<svg width="681" height="513" viewBox="0 0 681 513" fill="none" xmlns="http://www.w3.org/2000/svg">
<g clip-path="url(#clip0_109_606)">
<rect width="680.154" height="513" fill="white"/>
<path d="M499.311 120.348V78.5454H506.202V71.6541H527.557V78.5454H534.524V99.7494H527.557V106.641H524.225V112.775H531.041V120.348H523.468V113.532H516.501V106.641H506.959V120.348H499.311ZM506.959 98.9921H526.8V79.3026H506.959V98.9921Z" fill="#252840"/>
<path d="M458.8 120.348V113.532H451.908V78.5454H458.8V71.6541H480.155V78.5454H487.122V86.1182H479.398V79.3026H459.557V92.2522H473.339V99.7494H459.557V112.775H479.398V105.883H487.122V113.532H480.155V120.348H458.8Z" fill="#252840"/>
<path d="M418.215 120.348V113.532H411.399V99.7494H404.508V71.6541H412.156V98.9921H418.972V112.775H425.182V98.9921H431.997V71.6541H439.722V99.7494H432.755V113.532H425.939V120.348H418.215Z" fill="#252840"/>
<path d="M363.997 120.348V113.532H357.105V78.5454H363.997V71.6541H385.352V78.5454H392.319V113.532H385.352V120.348H363.997ZM364.754 112.775H384.595V79.3026H364.754V112.775Z" fill="#252840"/>
<path d="M298.405 120.348V113.532H291.514V78.5454H298.405V71.6541H319.76V78.5454H326.727V86.1182H319.003V79.3026H299.162V92.2522H312.945V99.7494H299.162V112.775H319.003V105.883H326.727V113.532H319.76V120.348H298.405Z" fill="#252840"/>
<path d="M230.432 120.348V78.5454H237.323V71.6541H244.896V78.5454H251.863V92.2522H257.921V78.5454H264.888V71.6541H272.537V78.5454H279.352V120.348H271.779V79.3026H265.645V92.9338H258.678V113.532H251.106V92.9338H244.139V79.3026H238.08V120.348H230.432Z" fill="#252840"/>
<path d="M183.031 120.348V85.3609H189.923V78.5454H196.738V71.6541H204.462V78.5454H211.278V85.3609H218.245V120.348H210.521V106.641H190.68V120.348H183.031ZM190.68 98.9921H210.521V86.1182H203.705V79.3026H197.495V86.1182H190.68V98.9921Z" fill="#252840"/>
<path d="M142.52 120.348V113.532H135.629V78.5454H142.52V71.6541H163.876V78.5454H170.843V92.9338H163.118V79.3026H143.277V112.775H163.118V106.641H156.303V99.7494H149.336V92.2522H157.06V98.9921H170.843V113.532H163.876V120.348H142.52Z" fill="#252840"/>
<path fill-rule="evenodd" clip-rule="evenodd" d="M497.658 122V76.8914H504.55V70.0001H529.211V76.8914H536.178V101.402H529.211V108.293H525.879V111.121H532.695V122H521.816V115.185H514.849V108.293H508.613V122H497.658ZM506.96 106.64H516.502V113.531H523.469V120.347H531.042V112.774H524.226V106.64H527.558V99.7487H534.525V78.5447H527.558V71.6534H506.203V78.5447H499.311V120.347H506.96V106.64ZM506.96 98.9914H526.801V79.302H506.96V98.9914ZM508.613 80.9552V97.3382H525.148V80.9552H508.613Z" fill="#252840"/>
<path fill-rule="evenodd" clip-rule="evenodd" d="M457.147 122V115.185H450.256V76.8914H457.147V70.0001H481.809V76.8914H488.776V87.7708H477.745V80.9552H461.211V90.5983H474.994V101.402H461.211V111.121H477.745V104.229H488.776V115.185H481.809V122H457.147ZM480.156 113.531H487.123V105.883H479.399V112.774H459.558V99.7487H473.34V92.2516H459.558V79.302H479.399V86.1175H487.123V78.5447H480.156V71.6534H458.8V78.5447H451.909V113.531H458.8V120.347H480.156V113.531Z" fill="#252840"/>
<path fill-rule="evenodd" clip-rule="evenodd" d="M416.562 122V115.185H409.747V101.402H402.855V70.0001H413.811V97.3382H420.626V111.121H423.529V97.3382H430.345V70.0001H441.376V101.402H434.409V115.185H427.593V122H416.562ZM425.94 113.531H432.755V99.7487H439.723V71.6534H431.998V98.9914H425.183V112.774H418.973V98.9914H412.157V71.6534H404.509V99.7487H411.4V113.531H418.216V120.347H425.94V113.531Z" fill="#252840"/>
<path fill-rule="evenodd" clip-rule="evenodd" d="M362.344 122V115.185H355.453V76.8914H362.344V70.0001H387.006V76.8914H393.973V115.185H387.006V122H362.344ZM385.353 113.531H392.32V78.5447H385.353V71.6534H363.998V78.5447H357.106V113.531H363.998V120.347H385.353V113.531ZM384.596 112.774V79.302H364.755V112.774H384.596ZM382.943 111.121V80.9552H366.408V111.121H382.943Z" fill="#252840"/>
<path fill-rule="evenodd" clip-rule="evenodd" d="M296.753 122V115.185H289.861V76.8914H296.753V70.0001H321.415V76.8914H328.382V87.7708H317.351V80.9552H300.816V90.5983H314.599V101.402H300.816V111.121H317.351V104.229H328.382V115.185H321.415V122H296.753ZM319.761 113.531H326.728V105.883H319.004V112.774H299.163V99.7487H312.946V92.2516H299.163V79.302H319.004V86.1175H326.728V78.5447H319.761V71.6534H298.406V78.5447H291.515V113.531H298.406V120.347H319.761V113.531Z" fill="#252840"/>
<path fill-rule="evenodd" clip-rule="evenodd" d="M228.779 122V76.8914H235.671V70.0001H246.55V76.8914H253.517V90.5983H256.269V76.8914H263.236V70.0001H274.191V76.8914H281.006V122H270.127V80.9552H267.3V94.5864H260.333V115.185H249.453V94.5864H242.486V80.9552H239.734V122H228.779ZM238.081 79.302H244.139V92.9331H251.106V113.531H258.679V92.9331H265.646V79.302H271.78V120.347H279.353V78.5447H272.538V71.6534H264.889V78.5447H257.922V92.2516H251.864V78.5447H244.897V71.6534H237.324V78.5447H230.433V120.347H238.081V79.302Z" fill="#252840"/>
<path fill-rule="evenodd" clip-rule="evenodd" d="M181.379 122V83.707H188.27V76.8914H195.086V70.0001H206.117V76.8914H212.932V83.707H219.899V122H208.868V108.293H192.334V122H181.379ZM190.681 106.64H210.522V120.347H218.246V85.3602H211.279V78.5447H204.463V71.6534H196.739V78.5447H189.923V85.3602H183.032V120.347H190.681V106.64ZM190.681 98.9914H210.522V86.1175H203.706V79.302H197.496V86.1175H190.681V98.9914ZM192.334 87.7708V97.3382H208.868V87.7708H202.053V80.9552H199.15V87.7708H192.334Z" fill="#252840"/>
<path fill-rule="evenodd" clip-rule="evenodd" d="M140.868 122V115.184H133.977V76.8913H140.868V70H165.53V76.8913H172.497V94.5862H161.466V80.9551H144.932V111.121H161.466V108.293H154.65V101.402H147.683V90.5982H158.714V97.338H172.497V115.184H165.53V122H140.868ZM163.877 113.531H170.844V98.9913H157.061V92.2514H149.337V99.7486H156.304V106.64H163.119V112.774H143.278V79.3018H163.119V92.933H170.844V78.5445H163.877V71.6532H142.521V78.5445H135.63V113.531H142.521V120.347H163.877V113.531Z" fill="#252840"/>
<rect x="667" y="0.5" width="13" height="507" fill="#B9A597"/>
<rect x="989" y="500" width="13" height="989" transform="rotate(90 989 500)" fill="#B9A597"/>
</g>
<defs>
<clipPath id="clip0_109_606">
<rect width="680.154" height="513" fill="white"/>
</clipPath>
</defs>
</svg>
