<svg width="838" height="513" viewBox="0 0 838 513" fill="none" xmlns="http://www.w3.org/2000/svg">
<g clip-path="url(#clip0_109_1230)">
<rect width="837.154" height="513" fill="white"/>
<path d="M660.791 120.274V85.3384H667.672V78.5327H674.478V71.6514H682.191V78.5327H688.997V85.3384H695.954V120.274H688.241V106.587H668.429V120.274H660.791ZM668.429 98.9498H688.241V86.0946H681.435V79.2889H675.234V86.0946H668.429V98.9498Z" fill="#252840"/>
<path d="M613.459 120.274V71.6514H621.096V92.2197H640.909V71.6514H648.622V120.274H640.909V99.706H621.096V120.274H613.459Z" fill="#252840"/>
<path d="M573.008 120.274V113.469H566.127V78.5327H573.008V71.6514H594.333V78.5327H601.29V86.0946H593.577V79.2889H573.764V92.2197H587.527V99.706H573.764V112.712H593.577V105.831H601.29V113.469H594.333V120.274H573.008Z" fill="#252840"/>
<path d="M546.318 120.35V99.8569H525.674V92.9756H518.793V71.7267H526.43V92.295H546.318V71.7267H553.956V120.35H546.318Z" fill="#252840"/>
<path d="M471.461 120.274V71.6514H479.098V92.2197H485.148V85.3384H492.861V92.2197H498.911V71.6514H506.624V120.274H498.911V99.706H479.098V120.274H471.461Z" fill="#252840"/>
<path d="M431.008 120.274V113.469H424.127V78.5327H431.008V71.6514H452.333V78.5327H459.29V113.469H452.333V120.274H431.008ZM431.764 112.712H451.577V79.2889H431.764V112.712Z" fill="#252840"/>
<path d="M379.084 120.274V78.5327H385.965V71.6514H393.527V79.2889H386.722V92.2197H392.771V85.3384H399.728V78.5327H406.534V71.6514H414.247V79.2889H407.29V86.0946H400.484V92.9003H393.527V98.9498H400.484V105.831H407.29V112.712H414.247V120.274H406.534V113.469H399.728V106.587H392.771V99.706H386.722V120.274H379.084Z" fill="#252840"/>
<path d="M338.633 120.274V113.469H331.752V78.5327H338.633V71.6514H359.958V78.5327H366.915V113.469H359.958V120.274H338.633ZM339.389 112.712H359.202V79.2889H339.389V112.712Z" fill="#252840"/>
<path d="M266.256 120.274V85.3384H273.137V78.5327H279.943V71.6514H287.656V78.5327H294.462V85.3384H301.419V120.274H293.706V106.587H273.893V120.274H266.256ZM273.893 98.9498H293.706V86.0946H286.9V79.2889H280.699V86.0946H273.893V98.9498Z" fill="#252840"/>
<path d="M218.924 120.274V78.5327H225.805V71.6514H247.13V78.5327H254.087V99.706H247.13V106.587H226.561V120.274H218.924ZM226.561 98.9498H246.374V79.2889H226.561V98.9498Z" fill="#252840"/>
<path d="M178.531 120.274V71.802H206.737V79.4395H186.169V120.274H178.531Z" fill="#252840"/>
<path d="M131.199 120.274V71.6514H138.837V105.831H144.886V85.3384H151.843V78.5327H158.649V71.6514H166.362V120.274H158.649V86.0946H152.599V106.587H145.642V113.469H138.837V120.274H131.199Z" fill="#252840"/>
<path fill-rule="evenodd" clip-rule="evenodd" d="M659.141 121.925V83.6872H666.022V76.8814H672.828V70.0001H683.842V76.8814H690.648V83.6872H697.605V121.925H686.59V108.238H670.08V121.925H659.141ZM668.429 106.587H688.241V120.274H695.954V85.338H688.997V78.5323H682.192V71.651H674.478V78.5323H667.673V85.338H660.791V120.274H668.429V106.587ZM668.429 98.9494H688.241V86.0942H681.435V79.2885H675.235V86.0942H668.429V98.9494ZM670.08 87.745V97.2986H686.59V87.745H679.785V80.9393H676.886V87.745H670.08Z" fill="#252840"/>
<path fill-rule="evenodd" clip-rule="evenodd" d="M611.809 121.925V70.0001H622.748V90.5685H639.258V70.0001H650.273V121.925H639.258V101.356H622.748V121.925H611.809ZM621.097 99.7056H640.909V120.274H648.622V71.651H640.909V92.2193H621.097V71.651H613.459V120.274H621.097V99.7056Z" fill="#252840"/>
<path fill-rule="evenodd" clip-rule="evenodd" d="M571.358 121.925V115.119H564.477V76.8814H571.358V70.0001H595.984V76.8814H602.941V87.745H591.926V80.9393H575.416V90.5685H589.178V101.356H575.416V111.061H591.926V104.18H602.941V115.119H595.984V121.925H571.358ZM594.333 113.468H601.29V105.831H593.577V112.712H573.765V99.7056H587.528V92.2193H573.765V79.2885H593.577V86.0942H601.29V78.5323H594.333V71.651H573.009V78.5323H566.127V113.468H573.009V120.274H594.333V113.468Z" fill="#252840"/>
<path fill-rule="evenodd" clip-rule="evenodd" d="M544.668 122V101.507H524.024V94.6261H517.143V70.0754H528.082V90.6438H544.668V70.0754H555.607V122H544.668ZM546.319 92.2946H526.431V71.7263H518.793V92.9752H525.675V99.8565H546.319V120.349H553.956V71.7263H546.319V92.2946Z" fill="#252840"/>
<path fill-rule="evenodd" clip-rule="evenodd" d="M469.811 121.925V70.0001H480.75V90.5685H483.498V83.6872H494.512V90.5685H497.26V70.0001H508.275V121.925H497.26V101.356H480.75V121.925H469.811ZM479.099 99.7056H498.911V120.274H506.624V71.651H498.911V92.2193H492.862V85.338H485.148V92.2193H479.099V71.651H471.461V120.274H479.099V99.7056Z" fill="#252840"/>
<path fill-rule="evenodd" clip-rule="evenodd" d="M429.358 121.925V115.119H422.477V76.8814H429.358V70.0001H453.984V76.8814H460.941V115.119H453.984V121.925H429.358ZM452.333 113.468H459.29V78.5323H452.333V71.651H431.009V78.5323H424.127V113.468H431.009V120.274H452.333V113.468ZM451.577 112.712V79.2885H431.765V112.712H451.577ZM449.926 111.061V80.9393H433.416V111.061H449.926Z" fill="#252840"/>
<path fill-rule="evenodd" clip-rule="evenodd" d="M377.434 121.925V76.8814H384.315V70.0001H395.178V80.9393H388.373V90.5685H391.121V83.6872H398.078V76.8814H404.883V70.0001H415.898V80.9393H408.941V87.745H402.135V94.5507H395.178V97.2986H402.135V104.18H408.941V111.061H415.898V121.925H404.883V115.119H398.078V108.238H391.121V101.356H388.373V121.925H377.434ZM386.722 99.7056H392.771V106.587H399.728V113.468H406.534V120.274H414.247V112.712H407.29V105.831H400.485V98.9494H393.528V92.8999H400.485V86.0942H407.29V79.2885H414.247V71.651H406.534V78.5323H399.728V85.338H392.771V92.2193H386.722V79.2885H393.528V71.651H385.966V78.5323H379.084V120.274H386.722V99.7056Z" fill="#252840"/>
<path fill-rule="evenodd" clip-rule="evenodd" d="M336.983 121.925V115.119H330.102V76.8814H336.983V70.0001H361.609V76.8814H368.566V115.119H361.609V121.925H336.983ZM359.958 113.468H366.915V78.5323H359.958V71.651H338.634V78.5323H331.752V113.468H338.634V120.274H359.958V113.468ZM359.202 112.712V79.2885H339.39V112.712H359.202ZM357.551 111.061V80.9393H341.041V111.061H357.551Z" fill="#252840"/>
<path fill-rule="evenodd" clip-rule="evenodd" d="M264.605 121.925V83.6872H271.487V76.8814H278.292V70.0001H289.307V76.8814H296.113V83.6872H303.07V121.925H292.055V108.238H275.545V121.925H264.605ZM273.894 106.587H293.706V120.274H301.419V85.338H294.462V78.5323H287.656V71.651H279.943V78.5323H273.138V85.338H266.256V120.274H273.894V106.587ZM273.894 98.9494H293.706V86.0942H286.9V79.2885H280.7V86.0942H273.894V98.9494ZM275.545 87.745V97.2986H292.055V87.745H285.249V80.9393H282.35V87.745H275.545Z" fill="#252840"/>
<path fill-rule="evenodd" clip-rule="evenodd" d="M217.273 121.925V76.8814H224.155V70.0001H248.781V76.8814H255.738V101.356H248.781V108.238H228.213V121.925H217.273ZM226.562 106.587H247.13V99.7056H254.087V78.5323H247.13V71.651H225.806V78.5323H218.924V120.274H226.562V106.587ZM226.562 98.9494H246.374V79.2885H226.562V98.9494ZM228.213 80.9393V97.2986H244.723V80.9393H228.213Z" fill="#252840"/>
<path fill-rule="evenodd" clip-rule="evenodd" d="M176.881 121.925V70.1515H208.388V81.0907H187.82V121.925H176.881ZM186.169 79.4398H206.738V71.8023H178.532V120.274H186.169V79.4398Z" fill="#252840"/>
<path fill-rule="evenodd" clip-rule="evenodd" d="M129.549 121.925V70H140.488V104.18H143.236V83.687H150.193V76.8813H156.999V70H168.013V121.925H156.999V87.7449H154.251V108.238H147.294V115.119H140.488V121.925H129.549ZM138.837 113.468H145.643V106.587H152.6V86.0941H158.649V120.274H166.362V71.6508H158.649V78.5322H151.844V85.3379H144.887V105.831H138.837V71.6508H131.2V120.274H138.837V113.468Z" fill="#252840"/>
<rect x="824" width="13" height="513" fill="#B9A597"/>
<rect x="989" y="500" width="13" height="989" transform="rotate(90 989 500)" fill="#B9A597"/>
</g>
<defs>
<clipPath id="clip0_109_1230">
<rect width="837.154" height="513" fill="white"/>
</clipPath>
</defs>
</svg>
