<svg width="664" height="511" viewBox="0 0 664 511" fill="none" xmlns="http://www.w3.org/2000/svg">
<g clip-path="url(#clip0_108_390)">
<rect width="664" height="511" fill="white"/>
<path d="M358.906 108.701V103.443H353.59V97.5429H359.49V102.859H374.796V92.811H358.906V87.5533H353.59V76.4538H358.906V71.1377H375.38V76.4538H380.754V82.2957H374.796V77.038H359.49V87.0276H375.38V92.2268H380.754V103.443H375.38V108.701H358.906Z" fill="#252840"/>
<path d="M324.093 108.701V103.443H318.777V76.4538H324.093V71.1377H340.567V76.4538H345.942V85.5H339.983V77.038H324.678V102.859H339.983V92.2268H345.942V103.443H340.567V108.701H324.093Z" fill="#252840"/>
<path d="M295.715 108.701V102.859H301.031V77.038H295.715V71.1377H312.247V77.038H306.873V102.859H312.247V108.701H295.715Z" fill="#252840"/>
<path d="M232.545 108.701V103.443H227.229V97.5429H233.129V102.859H248.434V92.811H232.545V87.5533H227.229V76.4538H232.545V71.1377H249.019V76.4538H254.393V82.2957H248.434V77.038H233.129V87.0276H249.019V92.2268H254.393V103.443H249.019V108.701H232.545Z" fill="#252840"/>
<path d="M203.025 108.701V102.859H208.341V77.038H203.025V71.1377H219.558V77.038H214.183V102.859H219.558V108.701H203.025Z" fill="#252840"/>
<path d="M136.879 108.701V81.7115H142.195V76.4538H147.453V71.1377H153.411V76.4538H158.669V81.7115H164.044V108.701H158.085V98.1271H142.779V108.701H136.879ZM142.779 92.2268H158.085V82.2957H152.827V77.038H148.037V82.2957H142.779V92.2268Z" fill="#252840"/>
<path d="M76.0466 108.701V103.443H70.7305V97.5429H76.6307V102.859H91.9364V92.811H76.0466V87.5533H70.7305V76.4538H76.0466V71.1377H92.5206V76.4538H97.8951V82.2957H91.9364V77.038H76.6307V87.0276H92.5206V92.2268H97.8951V103.443H92.5206V108.701H76.0466Z" fill="#252840"/>
<path fill-rule="evenodd" clip-rule="evenodd" d="M358.175 109.431V104.173H352.859V96.8124H360.22V102.129H374.065V93.541H358.175V88.2833H352.859V75.7233H358.175V70.4072H376.11V75.7233H381.484V83.0256H374.065V77.768H360.22V86.2971H376.11V91.4963H381.484V104.173H376.11V109.431H358.175ZM375.38 103.443H380.754V92.2266H375.38V87.0273H359.49V77.0377H374.796V82.2954H380.754V76.4536H375.38V71.1375H358.906V76.4536H353.59V87.5531H358.906V92.8108H374.796V102.859H359.49V97.5427H353.59V103.443H358.906V108.701H375.38V103.443Z" fill="#252840"/>
<path fill-rule="evenodd" clip-rule="evenodd" d="M323.363 109.431V104.173H318.047V75.7233H323.363V70.4072H341.297V75.7233H346.672V85.5H339.253V77.768H325.408V102.129H339.253V91.4963H346.672V104.173H341.297V109.431H323.363ZM340.567 103.443H345.942V92.2266H339.983V102.859H324.677V77.0377H339.983V85.5H345.942V76.4536H340.567V71.1375H324.093V76.4536H318.777V103.443H324.093V108.701H340.567V103.443Z" fill="#252840"/>
<path fill-rule="evenodd" clip-rule="evenodd" d="M294.984 109.431V102.129H300.3V77.768H294.984V70.4072H312.977V77.768H307.603V102.129H312.977V109.431H294.984ZM306.873 102.859V77.0377H312.247V71.1375H295.715V77.0377H301.031V102.859H295.715V108.701H312.247V102.859H306.873Z" fill="#252840"/>
<path fill-rule="evenodd" clip-rule="evenodd" d="M231.814 109.431V104.173H226.498V96.8124H233.859V102.129H247.704V93.541H231.814V88.2833H226.498V75.7233H231.814V70.4072H249.749V75.7233H255.123V83.0256H247.704V77.768H233.859V86.2971H249.749V91.4963H255.123V104.173H249.749V109.431H231.814ZM249.018 103.443H254.393V92.2266H249.018V87.0273H233.129V77.0377H248.434V82.2954H254.393V76.4536H249.018V71.1375H232.544V76.4536H227.228V87.5531H232.544V92.8108H248.434V102.859H233.129V97.5427H227.228V103.443H232.544V108.701H249.018V103.443Z" fill="#252840"/>
<path fill-rule="evenodd" clip-rule="evenodd" d="M202.295 109.431V102.129H207.611V77.768H202.295V70.4072H220.288V77.768H214.913V102.129H220.288V109.431H202.295ZM214.183 102.859V77.0377H219.558V71.1375H203.025V77.0377H208.341V102.859H203.025V108.701H219.558V102.859H214.183Z" fill="#252840"/>
<path fill-rule="evenodd" clip-rule="evenodd" d="M136.148 109.431V80.981H141.465V75.7233H146.722V70.4072H154.141V75.7233H159.399V80.981H164.774V109.431H157.354V98.8571H143.509V109.431H136.148ZM142.779 98.1269H158.085V108.701H164.043V81.7112H158.669V76.4536H153.411V71.1375H147.452V76.4536H142.195V81.7112H136.879V108.701H142.779V98.1269ZM142.779 92.2266H158.085V82.2954H152.827V77.0377H148.037V82.2954H142.779V92.2266ZM143.509 83.0256V91.4963H157.354V83.0256H152.097V77.768H148.767V83.0256H143.509Z" fill="#252840"/>
<path fill-rule="evenodd" clip-rule="evenodd" d="M75.3161 109.431V104.173H70V96.8124H77.3607V102.129H91.206V93.541H75.3161V88.2833H70V75.7233H75.3161V70.4072H93.2506V75.7233H98.6251V83.0256H91.206V77.768H77.3607V86.2971H93.2506V91.4963H98.6251V104.173H93.2506V109.431H75.3161ZM92.5204 103.443H97.8949V92.2266H92.5204V87.0273H76.6305V77.0377H91.9362V82.2954H97.8949V76.4536H92.5204V71.1375H76.0463V76.4536H70.7302V87.5531H76.0463V92.8108H91.9362V102.859H76.6305V97.5427H70.7302V103.443H76.0463V108.701H92.5204V103.443Z" fill="#252840"/>
<rect x="131.225" y="70" width="7" height="29" transform="rotate(90 131.225 70)" fill="#252840"/>
<rect x="113.225" y="75" width="7" height="34" fill="#252840"/>
<rect x="197.225" y="70" width="7" height="29" transform="rotate(90 197.225 70)" fill="#252840"/>
<rect x="179.225" y="75" width="7" height="34" fill="#252840"/>
<rect x="289.225" y="70" width="7" height="29" transform="rotate(90 289.225 70)" fill="#252840"/>
<rect x="271.225" y="75" width="7" height="34" fill="#252840"/>
<rect x="650.691" y="0.5" width="13" height="507" fill="#B9A597"/>
<rect x="989" y="498" width="13" height="989" transform="rotate(90 989 498)" fill="#B9A597"/>
</g>
<defs>
<clipPath id="clip0_108_390">
<rect width="664" height="511" fill="white"/>
</clipPath>
</defs>
</svg>
