<svg width="718" height="511" viewBox="0 0 718 511" fill="none" xmlns="http://www.w3.org/2000/svg">
<g clip-path="url(#clip0_109_1012)">
<rect width="718" height="511" fill="white"/>
<path d="M383.83 108.701V81.7115H389.146V76.4538H394.404V71.1377H400.363V76.4538H405.62V81.7115H410.995V108.701H405.036V98.1271H389.73V108.701H383.83ZM389.73 92.2268H405.036V82.2957H399.778V77.038H394.988V82.2957H389.73V92.2268Z" fill="#252840"/>
<path d="M349.016 108.701V76.4538H354.332V71.1377H360.174V77.038H354.916V87.0276H359.589V81.7115H364.964V76.4538H370.222V71.1377H376.18V77.038H370.806V82.2957H365.548V87.5533H360.174V92.2268H365.548V97.5429H370.806V102.859H376.18V108.701H370.222V103.443H364.964V98.1271H359.589V92.811H354.916V108.701H349.016Z" fill="#252840"/>
<path d="M314.203 108.701V71.1377H320.103V97.5429H324.777V81.7115H330.151V76.4538H335.409V71.1377H341.368V108.701H335.409V82.2957H330.736V98.1271H325.361V103.443H320.103V108.701H314.203Z" fill="#252840"/>
<path d="M209.76 108.701V71.1377H215.66V97.5429H220.334V81.7115H225.708V76.4538H230.966V71.1377H236.924V108.701H230.966V82.2957H226.292V98.1271H220.918V103.443H215.66V108.701H209.76Z" fill="#252840"/>
<path d="M140.133 108.701V81.7115H145.449V76.4538H150.707V71.1377H156.665V76.4538H161.923V81.7115H167.297V108.701H161.339V98.1271H146.033V108.701H140.133ZM146.033 92.2268H161.339V82.2957H156.081V77.038H151.291V82.2957H146.033V92.2268Z" fill="#252840"/>
<path fill-rule="evenodd" clip-rule="evenodd" d="M383.1 109.431V80.981H388.416V75.7233H393.673V70.4072H401.093V75.7233H406.35V80.981H411.725V109.431H404.306V98.8571H390.46V109.431H383.1ZM389.73 98.1269H405.036V108.701H410.995V81.7112H405.62V76.4536H400.362V71.1375H394.404V76.4536H389.146V81.7112H383.83V108.701H389.73V98.1269ZM389.73 92.2266H405.036V82.2954H399.778V77.0377H394.988V82.2954H389.73V92.2266ZM390.46 83.0256V91.4963H404.306V83.0256H399.048V77.768H395.718V83.0256H390.46Z" fill="#252840"/>
<path fill-rule="evenodd" clip-rule="evenodd" d="M348.285 109.431V75.7233H353.601V70.4072H360.904V77.768H355.646V86.2971H358.859V80.981H364.233V75.7233H369.491V70.4072H376.91V77.768H371.536V83.0256H366.278V88.2833H360.904V91.4963H366.278V96.8124H371.536V102.129H376.91V109.431H369.491V104.173H364.233V98.8571H358.859V93.541H355.646V109.431H348.285ZM354.916 92.8108H359.589V98.1269H364.964V103.443H370.221V108.701H376.18V102.859H370.806V97.5427H365.548V92.2266H360.173V87.5531H365.548V82.2954H370.806V77.0377H376.18V71.1375H370.221V76.4536H364.964V81.7112H359.589V87.0273H354.916V77.0377H360.173V71.1375H354.331V76.4536H349.015V108.701H354.916V92.8108Z" fill="#252840"/>
<path fill-rule="evenodd" clip-rule="evenodd" d="M313.473 109.431V70.4072H320.833V96.8124H324.046V80.981H329.421V75.7233H334.679V70.4072H342.098V109.431H334.679V83.0256H331.466V98.8571H326.091V104.173H320.833V109.431H313.473ZM320.103 103.443H325.361V98.1269H330.735V82.2954H335.409V108.701H341.368V71.1375H335.409V76.4536H330.151V81.7112H324.777V97.5427H320.103V71.1375H314.203V108.701H320.103V103.443Z" fill="#252840"/>
<path fill-rule="evenodd" clip-rule="evenodd" d="M209.031 109.431V70.4072H216.392V96.8124H219.605V80.981H224.98V75.7233H230.237V70.4072H237.656V109.431H230.237V83.0256H227.024V98.8571H221.65V104.173H216.392V109.431H209.031ZM215.662 103.443H220.919V98.1269H226.294V82.2954H230.967V108.701H236.926V71.1375H230.967V76.4536H225.71V81.7112H220.335V97.5427H215.662V71.1375H209.761V108.701H215.662V103.443Z" fill="#252840"/>
<path fill-rule="evenodd" clip-rule="evenodd" d="M139.402 109.431V80.981H144.718V75.7233H149.976V70.4072H157.395V75.7233H162.653V80.981H168.027V109.431H160.608V98.8571H146.763V109.431H139.402ZM146.033 98.1269H161.339V108.701H167.297V81.7112H161.923V76.4536H156.665V71.1375H150.706V76.4536H145.449V81.7112H140.133V108.701H146.033V98.1269ZM146.033 92.2266H161.339V82.2954H156.081V77.0377H151.291V82.2954H146.033V92.2266ZM146.763 83.0256V91.4963H160.608V83.0256H155.351V77.768H152.021V83.0256H146.763Z" fill="#252840"/>
<path d="M76.0466 108.294V103.036H70.7305V76.0466H76.0466V70.7305H92.5206V76.0466H97.8951V85.0928H91.9364V76.6307H76.6308V102.452H91.9364V91.8196H97.8951V103.036H92.5206V108.294H76.0466Z" fill="#252840"/>
<path fill-rule="evenodd" clip-rule="evenodd" d="M75.3161 109.024V103.766H70V75.3161H75.3161V70H93.2506V75.3161H98.6251V85.0928H91.2059V77.3607H77.3607V101.721H91.2059V91.0891H98.6251V103.766H93.2506V109.024H75.3161ZM92.5204 103.036H97.8949V91.8194H91.9362V102.452H76.6305V76.6305H91.9362V85.0928H97.8949V76.0463H92.5204V70.7302H76.0463V76.0463H70.7302V103.036H76.0463V108.293H92.5204V103.036Z" fill="#252840"/>
<path d="M250.047 108.294V103.036H244.73V76.0466H250.047V70.7305H266.521V76.0466H271.895V85.0928H265.936V76.6307H250.631V102.452H265.936V91.8196H271.895V103.036H266.521V108.294H250.047Z" fill="#252840"/>
<path fill-rule="evenodd" clip-rule="evenodd" d="M249.316 109.024V103.766H244V75.3161H249.316V70H267.251V75.3161H272.625V85.0928H265.206V77.3607H251.361V101.721H265.206V91.0891H272.625V103.766H267.251V109.024H249.316ZM266.52 103.036H271.895V91.8194H265.936V102.452H250.631V76.6305H265.936V85.0928H271.895V76.0463H266.52V70.7302H250.046V76.0463H244.73V103.036H250.046V108.293H266.52V103.036Z" fill="#252840"/>
<rect x="134" y="71" width="7" height="29" transform="rotate(90 134 71)" fill="#252840"/>
<rect x="116" y="76" width="7" height="34" fill="#252840"/>
<rect x="203" y="71" width="7" height="29" transform="rotate(90 203 71)" fill="#252840"/>
<rect x="185" y="76" width="7" height="34" fill="#252840"/>
<rect x="307" y="71" width="7" height="29" transform="rotate(90 307 71)" fill="#252840"/>
<rect x="289" y="76" width="7" height="34" fill="#252840"/>
<rect x="704.691" y="0.5" width="13" height="507" fill="#B9A597"/>
<rect x="989" y="498" width="13" height="989" transform="rotate(90 989 498)" fill="#B9A597"/>
</g>
<defs>
<clipPath id="clip0_109_1012">
<rect width="718" height="511" fill="white"/>
</clipPath>
</defs>
</svg>
