<svg width="235" height="102" viewBox="0 0 235 102" fill="none" xmlns="http://www.w3.org/2000/svg">
<mask id="path-1-inside-1_6_2730" fill="white">
<path fill-rule="evenodd" clip-rule="evenodd" d="M8.66359 0H226.336V8H235V94H226.336V102H8.66359V94H0V8H8.66359V0Z"/>
</mask>
<path fill-rule="evenodd" clip-rule="evenodd" d="M8.66359 0H226.336V8H235V94H226.336V102H8.66359V94H0V8H8.66359V0Z" fill="#F9D22B"/>
<path d="M226.336 0H236.336V-10H226.336V0ZM8.66359 0V-10H-1.33641V0H8.66359ZM226.336 8H216.336V18H226.336V8ZM235 8H245V-2H235V8ZM235 94V104H245V94H235ZM226.336 94V84H216.336V94H226.336ZM226.336 102V112H236.336V102H226.336ZM8.66359 102H-1.33641V112H8.66359V102ZM8.66359 94H18.6636V84H8.66359V94ZM0 94H-10V104H0V94ZM0 8V-2H-10V8H0ZM8.66359 8V18H18.6636V8H8.66359ZM226.336 -10H8.66359V10H226.336V-10ZM236.336 8V0H216.336V8H236.336ZM235 -2H226.336V18H235V-2ZM245 94V8H225V94H245ZM226.336 104H235V84H226.336V104ZM236.336 102V94H216.336V102H236.336ZM8.66359 112H226.336V92H8.66359V112ZM-1.33641 94V102H18.6636V94H-1.33641ZM0 104H8.66359V84H0V104ZM-10 8V94H10V8H-10ZM8.66359 -2H0V18H8.66359V-2ZM-1.33641 0V8H18.6636V0H-1.33641Z" fill="#252840" mask="url(#path-1-inside-1_6_2730)"/>
<path fill-rule="evenodd" clip-rule="evenodd" d="M160.952 38.6913H143.859V43.1894H150.157V62.9813H154.655V43.1894H160.952V38.6913Z" fill="#252840"/>
<path d="M169.953 62.4955V59.1323H166.553V38.4672H170.327V45.231H180.491V48.6316H183.929V59.1323H180.491V62.4955H169.953ZM170.327 58.7586H180.118V48.9679H170.327V58.7586Z" fill="#252840"/>
<path d="M120.519 62.4955V45.231H123.919V41.8678H127.282V38.4672H131.094V41.8678H134.457V45.231H137.895V62.4955H134.084V55.7317H124.293V62.4955H120.519ZM124.293 51.9574H134.084V45.6047H130.72V42.2414H127.656V45.6047H124.293V51.9574Z" fill="#252840"/>
<path d="M111.103 62.5329V52.4058H100.902V49.0052H97.501V38.5045H101.275V48.6689H111.103V38.5045H114.878V62.5329H111.103Z" fill="#252840"/>
<path d="M74.4844 62.4955V45.231H77.885V41.8678H81.2482V38.4672H85.0598V41.8678H88.4231V45.231H91.861V62.4955H88.0494V55.7317H78.2587V62.4955H74.4844ZM78.2587 51.9574H88.0494V45.6047H84.6862V42.2414H81.6219V45.6047H78.2587V51.9574Z" fill="#252840"/>
<path d="M51.4668 62.4955V38.4672H55.2411V48.6316H65.0318V38.4672H68.8435V62.4955H65.0318V52.3311H55.2411V62.4955H51.4668Z" fill="#252840"/>
<path fill-rule="evenodd" clip-rule="evenodd" d="M169.486 62.9626V59.5994H166.085V38H170.793V44.7638H180.958V48.1644H184.396V59.5994H180.958V62.9626H169.486ZM180.491 59.1323H183.929V48.6315H180.491V45.2309H170.326V38.4671H166.552V59.1323H169.953V62.4955H180.491V59.1323ZM180.117 58.7586V48.9678H170.326V58.7586H180.117ZM179.65 58.2914V49.435H170.793V58.2914H179.65Z" fill="#252840"/>
<path fill-rule="evenodd" clip-rule="evenodd" d="M120.051 62.9626V44.7638H123.451V41.4006H126.815V38H131.56V41.4006H134.924V44.7638H138.362V62.9626H133.616V56.1988H124.759V62.9626H120.051ZM124.292 55.7317H134.083V62.4955H137.895V45.2309H134.457V41.8677H131.093V38.4671H127.282V41.8677H123.918V45.2309H120.518V62.4955H124.292V55.7317ZM124.292 51.9574H134.083V45.6046H130.72V42.2414H127.655V45.6046H124.292V51.9574ZM124.759 46.0717V51.4903H133.616V46.0717H130.253V42.7085H128.123V46.0717H124.759Z" fill="#252840"/>
<path fill-rule="evenodd" clip-rule="evenodd" d="M110.637 63.0001V52.873H100.435V49.4724H97.0342V38.0375H101.743V48.2019H110.637V38.0375H115.345V63.0001H110.637ZM111.104 48.669H101.276V38.5046H97.5013V49.0053H100.902V52.4059H111.104V62.533H114.878V38.5046H111.104V48.669Z" fill="#252840"/>
<path fill-rule="evenodd" clip-rule="evenodd" d="M74.0176 62.9626V44.7638H77.4182V41.4006H80.7814V38H85.5273V41.4006H88.8905V44.7638H92.3285V62.9626H87.5826V56.1988H78.7261V62.9626H74.0176ZM78.259 55.7317H88.0497V62.4955H91.8613V45.2309H88.4234V41.8677H85.0602V38.4671H81.2485V41.8677H77.8853V45.2309H74.4847V62.4955H78.259V55.7317ZM78.259 51.9574H88.0497V45.6046H84.6865V42.2414H81.6222V45.6046H78.259V51.9574ZM78.7261 46.0717V51.4903H87.5826V46.0717H84.2194V42.7085H82.0893V46.0717H78.7261Z" fill="#252840"/>
<path fill-rule="evenodd" clip-rule="evenodd" d="M51 62.9626V38H55.7085V48.1644H64.565V38H69.3109V62.9626H64.565V52.7982H55.7085V62.9626H51ZM55.2414 52.3311H65.0321V62.4955H68.8438V38.4671H65.0321V48.6315H55.2414V38.4671H51.4671V62.4955H55.2414V52.3311Z" fill="#252840"/>
<rect x="18" y="10" width="8" height="8" fill="white"/>
<rect x="10" y="18" width="8" height="8" fill="white"/>
<rect x="26" y="10" width="8" height="8" fill="white"/>
<rect x="34" y="10" width="8" height="8" fill="white"/>
<rect x="19" y="84" width="198" height="8" fill="#EC9345"/>
<rect x="217" y="76" width="8" height="8" fill="#EC9345"/>
<rect x="10" y="76" width="8" height="8" fill="#EC9345"/>
<rect x="193" y="76" width="8" height="8" fill="white" fill-opacity="0.5"/>
<rect opacity="0.5" x="217" y="68" width="8" height="8" fill="white"/>
<rect opacity="0.5" x="217" y="60" width="8" height="8" fill="white"/>
<rect x="201" y="76" width="8" height="8" fill="white" fill-opacity="0.5"/>
<rect x="209" y="76" width="8" height="8" fill="white" fill-opacity="0.5"/>
</svg>
