<svg width="235" height="102" viewBox="0 0 235 102" fill="none" xmlns="http://www.w3.org/2000/svg">
<mask id="path-1-inside-1_6_2766" fill="white">
<path fill-rule="evenodd" clip-rule="evenodd" d="M8.66359 0H226.336V8H235V94H226.336V102H8.66359V94H0V8H8.66359V0Z"/>
</mask>
<path fill-rule="evenodd" clip-rule="evenodd" d="M8.66359 0H226.336V8H235V94H226.336V102H8.66359V94H0V8H8.66359V0Z" fill="#F9D22B"/>
<path d="M226.336 0H236.336V-10H226.336V0ZM8.66359 0V-10H-1.33641V0H8.66359ZM226.336 8H216.336V18H226.336V8ZM235 8H245V-2H235V8ZM235 94V104H245V94H235ZM226.336 94V84H216.336V94H226.336ZM226.336 102V112H236.336V102H226.336ZM8.66359 102H-1.33641V112H8.66359V102ZM8.66359 94H18.6636V84H8.66359V94ZM0 94H-10V104H0V94ZM0 8V-2H-10V8H0ZM8.66359 8V18H18.6636V8H8.66359ZM226.336 -10H8.66359V10H226.336V-10ZM236.336 8V0H216.336V8H236.336ZM235 -2H226.336V18H235V-2ZM245 94V8H225V94H245ZM226.336 104H235V84H226.336V104ZM236.336 102V94H216.336V102H236.336ZM8.66359 112H226.336V92H8.66359V112ZM-1.33641 94V102H18.6636V94H-1.33641ZM0 104H8.66359V84H0V104ZM-10 8V94H10V8H-10ZM8.66359 -2H0V18H8.66359V-2ZM-1.33641 0V8H18.6636V0H-1.33641Z" fill="#252840" mask="url(#path-1-inside-1_6_2766)"/>
<rect x="18" y="10" width="8" height="8" fill="white"/>
<rect x="10" y="18" width="8" height="8" fill="white"/>
<rect x="26" y="10" width="8" height="8" fill="white"/>
<rect x="34" y="10" width="8" height="8" fill="white"/>
<rect x="19" y="84" width="198" height="8" fill="#EC9345"/>
<rect x="217" y="76" width="8" height="8" fill="#EC9345"/>
<rect x="10" y="76" width="8" height="8" fill="#EC9345"/>
<rect x="193" y="76" width="8" height="8" fill="white" fill-opacity="0.5"/>
<rect opacity="0.5" x="217" y="68" width="8" height="8" fill="white"/>
<rect opacity="0.5" x="217" y="60" width="8" height="8" fill="white"/>
<rect x="201" y="76" width="8" height="8" fill="white" fill-opacity="0.5"/>
<rect x="209" y="76" width="8" height="8" fill="white" fill-opacity="0.5"/>
<path d="M192.988 62.4955V59.1323H189.587V41.8678H192.988V38.4672H203.526V41.8678H206.964V45.6047H203.152V42.2414H193.361V48.6316H200.162V52.3311H193.361V58.7586H203.152V55.358H206.964V59.1323H203.526V62.4955H192.988Z" fill="#252840"/>
<path d="M166.57 62.4955V38.4672H170.345V55.358H173.334V45.231H176.772V41.8678H180.135V38.4672H183.947V62.4955H180.135V45.6047H177.146V55.7317H173.708V59.1323H170.345V62.4955H166.57Z" fill="#252840"/>
<path d="M143.553 62.4955V38.4672H147.327V48.6316H157.118V38.4672H160.929V62.4955H157.118V52.3311H147.327V62.4955H143.553Z" fill="#252840"/>
<path d="M123.937 62.4955V59.1323H120.536V41.8678H123.937V38.4672H134.475V41.8678H137.913V45.6047H134.101V42.2414H124.31V48.6316H131.112V52.3311H124.31V58.7586H134.101V55.358H137.913V59.1323H134.475V62.4955H123.937Z" fill="#252840"/>
<path d="M111.122 62.5329V52.4058H100.92V49.0052H97.5195V38.5045H101.294V48.6689H111.122V38.5045H114.896V62.5329H111.122Z" fill="#252840"/>
<path d="M81.2658 62.4955V48.9679H77.9025V45.6047H74.502V38.4672H78.2762V45.231H81.6395V48.6316H84.7037V45.231H88.067V38.4672H91.8786V45.6047H88.4406V48.9679H85.0774V62.4955H81.2658Z" fill="#252840"/>
<path d="M54.8859 62.4955V59.1323H51.4854V38.4672H65.424V41.8678H68.862V45.6047H65.0504V42.2414H55.2596V48.6316H65.424V51.9574H68.862V59.1323H65.424V62.4955H54.8859ZM55.2596 58.7586H65.0504V52.3311H55.2596V58.7586Z" fill="#252840"/>
<path d="M31.8684 62.4955V59.1323H28.4678V41.8678H31.8684V38.4672H42.4065V41.8678H45.8444V59.1323H42.4065V62.4955H31.8684ZM32.2421 58.7586H42.0328V42.2414H32.2421V58.7586Z" fill="#252840"/>
<path fill-rule="evenodd" clip-rule="evenodd" d="M192.52 62.9626V59.5994H189.119V41.4006H192.52V38H203.992V41.4006H207.43V46.0717H202.684V42.7085H193.828V48.1644H200.629V52.7982H193.828V58.2914H202.684V54.8909H207.43V59.5994H203.992V62.9626H192.52ZM203.525 59.1323H206.963V55.358H203.151V58.7586H193.361V52.3311H200.162V48.6315H193.361V42.2414H203.151V45.6046H206.963V41.8677H203.525V38.4671H192.987V41.8677H189.586V59.1323H192.987V62.4955H203.525V59.1323Z" fill="#252840"/>
<path fill-rule="evenodd" clip-rule="evenodd" d="M166.103 62.9626V38H170.811V54.8909H172.866V44.7638H176.304V41.4006H179.668V38H184.413V62.9626H179.668V46.0717H177.612V56.1988H174.174V59.5994H170.811V62.9626H166.103ZM170.344 59.1323H173.707V55.7317H177.145V45.6046H180.135V62.4955H183.946V38.4671H180.135V41.8677H176.771V45.2309H173.333V55.358H170.344V38.4671H166.57V62.4955H170.344V59.1323Z" fill="#252840"/>
<path fill-rule="evenodd" clip-rule="evenodd" d="M143.086 62.9626V38H147.794V48.1644H156.651V38H161.397V62.9626H156.651V52.7982H147.794V62.9626H143.086ZM147.327 52.3311H157.118V62.4955H160.93V38.4671H157.118V48.6315H147.327V38.4671H143.553V62.4955H147.327V52.3311Z" fill="#252840"/>
<path fill-rule="evenodd" clip-rule="evenodd" d="M123.469 62.9626V59.5994H120.068V41.4006H123.469V38H134.941V41.4006H138.379V46.0717H133.633V42.7085H124.777V48.1644H131.578V52.7982H124.777V58.2914H133.633V54.8909H138.379V59.5994H134.941V62.9626H123.469ZM134.474 59.1323H137.912V55.358H134.1V58.7586H124.31V52.3311H131.111V48.6315H124.31V42.2414H134.1V45.6046H137.912V41.8677H134.474V38.4671H123.936V41.8677H120.535V59.1323H123.936V62.4955H134.474V59.1323Z" fill="#252840"/>
<path fill-rule="evenodd" clip-rule="evenodd" d="M110.654 63.0001V52.873H100.452V49.4724H97.0518V38.0375H101.76V48.2019H110.654V38.0375H115.363V63.0001H110.654ZM111.121 48.669H101.293V38.5046H97.5189V49.0053H100.919V52.4059H111.121V62.533H114.896V38.5046H111.121V48.669Z" fill="#252840"/>
<path fill-rule="evenodd" clip-rule="evenodd" d="M80.798 62.9626V49.435H77.4348V46.0717H74.0342V38H78.7427V44.7638H82.1059V48.1644H84.236V44.7638H87.5992V38H92.3451V46.0717H88.9071V49.435H85.5439V62.9626H80.798ZM85.0768 48.9678H88.44V45.6046H91.8779V38.4671H88.0663V45.2309H84.7031V48.6315H81.6388V45.2309H78.2756V38.4671H74.5013V45.6046H77.9019V48.9678H81.2651V62.4955H85.0768V48.9678Z" fill="#252840"/>
<path fill-rule="evenodd" clip-rule="evenodd" d="M54.4182 62.9626V59.5994H51.0176V38H65.8905V41.4006H69.3285V46.0717H64.5826V42.7085H55.7261V48.1644H65.8905V51.4903H69.3285V59.5994H65.8905V62.9626H54.4182ZM65.4234 59.1323H68.8613V51.9574H65.4234V48.6315H55.259V42.2414H65.0497V45.6046H68.8613V41.8677H65.4234V38.4671H51.4847V59.1323H54.8853V62.4955H65.4234V59.1323ZM65.0497 58.7586V52.3311H55.259V58.7586H65.0497ZM64.5826 58.2914V52.7982H55.7261V58.2914H64.5826Z" fill="#252840"/>
<path fill-rule="evenodd" clip-rule="evenodd" d="M31.4006 62.9626V59.5994H28V41.4006H31.4006V38H42.8729V41.4006H46.3109V59.5994H42.8729V62.9626H31.4006ZM42.4058 59.1323H45.8438V41.8677H42.4058V38.4671H31.8677V41.8677H28.4671V59.1323H31.8677V62.4955H42.4058V59.1323ZM42.0321 58.7586V42.2414H32.2414V58.7586H42.0321ZM41.565 58.2914V42.7085H32.7085V58.2914H41.565Z" fill="#252840"/>
</svg>
