<svg width="1291" height="105" viewBox="0 0 1291 105" fill="none" xmlns="http://www.w3.org/2000/svg">
<rect width="1291" height="103" fill="white"/>
<mask id="path-1-outside-1_6_1909" maskUnits="userSpaceOnUse" x="137" y="27.7908" width="910" height="35" fill="black">
<rect fill="white" x="137" y="27.7908" width="910" height="35"/>
<path d="M145.953 61.7908V58.1396H156.907V61.7908H145.953ZM142.302 58.1396V54.4884H145.953V58.1396H142.302ZM156.907 58.1396V54.4884H160.558V58.1396H156.907ZM138.651 54.4884V39.8838H142.302V54.4884H138.651ZM142.302 39.8838V36.2326H145.953V39.8838H142.302ZM156.907 39.8838V36.2326H160.558V39.8838H156.907ZM145.953 36.2326V32.5815H156.907V36.2326H145.953ZM168.445 61.7908V58.1396H179.398V61.7908H168.445ZM164.793 58.1396V43.535H168.445V58.1396H164.793ZM179.398 58.1396V43.535H183.049V58.1396H179.398ZM168.445 43.535V39.8838H179.398V43.535H168.445ZM201.889 61.7908V58.1396H205.54V61.7908H201.889ZM198.238 58.1396V32.5815H194.587V28.9303H201.889V58.1396H198.238ZM228.032 61.7908V58.1396H231.683V61.7908H228.032ZM224.38 58.1396V32.5815H220.729V28.9303H228.032V58.1396H224.38ZM246.872 61.7908V58.1396H257.825V61.7908H246.872ZM257.825 58.1396V54.4884H261.476V58.1396H257.825ZM243.22 58.1396V43.535H246.872V47.1861H257.825V43.535H261.476V50.8373H246.872V58.1396H243.22ZM246.872 43.535V39.8838H257.825V43.535H246.872ZM273.014 61.7908V58.1396H283.967V61.7908H273.014ZM283.967 58.1396V54.4884H287.619V58.1396H283.967ZM269.363 58.1396V43.535H273.014V58.1396H269.363ZM283.967 47.1861V43.535H287.619V47.1861H283.967ZM273.014 43.535V39.8838H283.967V43.535H273.014ZM302.807 61.7908V58.1396H313.761V61.7908H302.807ZM299.156 58.1396V32.5815H302.807V39.8838H313.761V43.535H302.807V58.1396H299.156ZM362.394 58.1396V43.535H366.046V58.1396H362.394ZM347.79 61.7908V28.9303H351.441V39.8838H362.394V43.535H351.441V58.1396H362.394V61.7908H347.79ZM377.583 61.7908V58.1396H388.537V61.7908H377.583ZM373.932 58.1396V43.535H377.583V58.1396H373.932ZM388.537 58.1396V43.535H392.188V58.1396H388.537ZM377.583 43.535V39.8838H388.537V43.535H377.583ZM414.679 61.7908V43.535H418.33V61.7908H414.679ZM400.074 61.7908V39.8838H414.679V43.535H403.726V61.7908H400.074ZM429.868 61.7908V58.1396H440.821V61.7908H429.868ZM440.821 58.1396V54.4884H444.473V58.1396H440.821ZM426.217 58.1396V43.535H429.868V47.1861H440.821V43.535H444.473V50.8373H429.868V58.1396H426.217ZM429.868 43.535V39.8838H440.821V43.535H429.868ZM452.359 61.7908V58.1396H466.964V61.7908H452.359ZM466.964 58.1396V54.4884H470.615V58.1396H466.964ZM463.313 54.4884V50.8373H466.964V54.4884H463.313ZM456.01 50.8373V47.1861H463.313V50.8373H456.01ZM452.359 47.1861V43.535H456.01V47.1861H452.359ZM456.01 43.535V39.8838H470.615V43.535H456.01ZM511.946 61.7908V58.1396H522.9V61.7908H511.946ZM508.295 58.1396V32.5815H511.946V39.8838H522.9V43.535H511.946V58.1396H508.295ZM534.437 61.7908V58.1396H545.391V61.7908H534.437ZM530.786 58.1396V43.535H534.437V58.1396H530.786ZM545.391 58.1396V43.535H549.042V58.1396H545.391ZM534.437 43.535V39.8838H545.391V43.535H534.437ZM590.373 61.7908V43.535H586.722V39.8838H594.024V61.7908H590.373ZM590.373 32.5815V28.9303H594.024V32.5815H590.373ZM623.818 61.7908V43.535H627.469V61.7908H623.818ZM609.213 61.7908V39.8838H623.818V43.535H612.864V61.7908H609.213ZM639.007 61.7908V58.1396H649.96V61.7908H639.007ZM649.96 58.1396V54.4884H653.611V58.1396H649.96ZM635.355 58.1396V43.535H639.007V58.1396H635.355ZM649.96 47.1861V43.535H653.611V47.1861H649.96ZM639.007 43.535V39.8838H649.96V43.535H639.007ZM676.102 47.1861V43.535H679.754V47.1861H676.102ZM661.498 61.7908V39.8838H665.149V43.535H668.8V47.1861H665.149V61.7908H661.498ZM668.8 43.535V39.8838H676.102V43.535H668.8ZM691.291 61.7908V58.1396H702.245V61.7908H691.291ZM702.245 58.1396V54.4884H705.896V58.1396H702.245ZM687.64 58.1396V43.535H691.291V47.1861H702.245V43.535H705.896V50.8373H691.291V58.1396H687.64ZM691.291 43.535V39.8838H702.245V43.535H691.291ZM713.782 58.1396V50.8373H717.434V58.1396H713.782ZM717.434 61.7908V58.1396H728.387V50.8373H717.434V47.1861H728.387V43.535H732.038V61.7908H717.434ZM717.434 43.535V39.8838H728.387V43.535H717.434ZM739.925 61.7908V58.1396H754.529V61.7908H739.925ZM754.529 58.1396V54.4884H758.181V58.1396H754.529ZM750.878 54.4884V50.8373H754.529V54.4884H750.878ZM743.576 50.8373V47.1861H750.878V50.8373H743.576ZM739.925 47.1861V43.535H743.576V47.1861H739.925ZM743.576 43.535V39.8838H758.181V43.535H743.576ZM769.718 61.7908V58.1396H780.672V61.7908H769.718ZM780.672 58.1396V54.4884H784.323V58.1396H780.672ZM766.067 58.1396V43.535H769.718V47.1861H780.672V43.535H784.323V50.8373H769.718V58.1396H766.067ZM769.718 43.535V39.8838H780.672V43.535H769.718ZM825.654 61.7908V58.1396H836.607V61.7908H825.654ZM822.003 58.1396V32.5815H825.654V39.8838H836.607V43.535H825.654V58.1396H822.003ZM859.099 61.7908V43.535H862.75V61.7908H859.099ZM844.494 61.7908V28.9303H848.145V39.8838H859.099V43.535H848.145V61.7908H844.494ZM874.287 61.7908V58.1396H885.241V61.7908H874.287ZM885.241 58.1396V54.4884H888.892V58.1396H885.241ZM870.636 58.1396V43.535H874.287V47.1861H885.241V43.535H888.892V50.8373H874.287V58.1396H870.636ZM874.287 43.535V39.8838H885.241V43.535H874.287ZM922.921 61.7908V58.1396H937.526V61.7908H922.921ZM937.526 58.1396V54.4884H941.177V58.1396H937.526ZM933.874 54.4884V50.8373H937.526V54.4884H933.874ZM926.572 50.8373V47.1861H933.874V50.8373H926.572ZM922.921 47.1861V43.535H926.572V47.1861H922.921ZM926.572 43.535V39.8838H941.177V43.535H926.572ZM952.714 61.7908V58.1396H963.668V61.7908H952.714ZM963.668 58.1396V54.4884H967.319V58.1396H963.668ZM949.063 58.1396V43.535H952.714V58.1396H949.063ZM963.668 47.1861V43.535H967.319V47.1861H963.668ZM952.714 43.535V39.8838H963.668V43.535H952.714ZM978.857 61.7908V58.1396H989.81V61.7908H978.857ZM975.206 58.1396V43.535H978.857V58.1396H975.206ZM989.81 58.1396V43.535H993.461V58.1396H989.81ZM978.857 43.535V39.8838H989.81V43.535H978.857ZM1015.95 47.1861V43.535H1019.6V47.1861H1015.95ZM1001.35 61.7908V39.8838H1005V43.535H1008.65V47.1861H1005V61.7908H1001.35ZM1008.65 43.535V39.8838H1015.95V43.535H1008.65ZM1031.14 61.7908V58.1396H1042.09V61.7908H1031.14ZM1042.09 58.1396V54.4884H1045.75V58.1396H1042.09ZM1027.49 58.1396V43.535H1031.14V47.1861H1042.09V43.535H1045.75V50.8373H1031.14V58.1396H1027.49ZM1031.14 43.535V39.8838H1042.09V43.535H1031.14Z"/>
</mask>
<path d="M145.953 61.7908V58.1396H156.907V61.7908H145.953ZM142.302 58.1396V54.4884H145.953V58.1396H142.302ZM156.907 58.1396V54.4884H160.558V58.1396H156.907ZM138.651 54.4884V39.8838H142.302V54.4884H138.651ZM142.302 39.8838V36.2326H145.953V39.8838H142.302ZM156.907 39.8838V36.2326H160.558V39.8838H156.907ZM145.953 36.2326V32.5815H156.907V36.2326H145.953ZM168.445 61.7908V58.1396H179.398V61.7908H168.445ZM164.793 58.1396V43.535H168.445V58.1396H164.793ZM179.398 58.1396V43.535H183.049V58.1396H179.398ZM168.445 43.535V39.8838H179.398V43.535H168.445ZM201.889 61.7908V58.1396H205.54V61.7908H201.889ZM198.238 58.1396V32.5815H194.587V28.9303H201.889V58.1396H198.238ZM228.032 61.7908V58.1396H231.683V61.7908H228.032ZM224.38 58.1396V32.5815H220.729V28.9303H228.032V58.1396H224.38ZM246.872 61.7908V58.1396H257.825V61.7908H246.872ZM257.825 58.1396V54.4884H261.476V58.1396H257.825ZM243.22 58.1396V43.535H246.872V47.1861H257.825V43.535H261.476V50.8373H246.872V58.1396H243.22ZM246.872 43.535V39.8838H257.825V43.535H246.872ZM273.014 61.7908V58.1396H283.967V61.7908H273.014ZM283.967 58.1396V54.4884H287.619V58.1396H283.967ZM269.363 58.1396V43.535H273.014V58.1396H269.363ZM283.967 47.1861V43.535H287.619V47.1861H283.967ZM273.014 43.535V39.8838H283.967V43.535H273.014ZM302.807 61.7908V58.1396H313.761V61.7908H302.807ZM299.156 58.1396V32.5815H302.807V39.8838H313.761V43.535H302.807V58.1396H299.156ZM362.394 58.1396V43.535H366.046V58.1396H362.394ZM347.79 61.7908V28.9303H351.441V39.8838H362.394V43.535H351.441V58.1396H362.394V61.7908H347.79ZM377.583 61.7908V58.1396H388.537V61.7908H377.583ZM373.932 58.1396V43.535H377.583V58.1396H373.932ZM388.537 58.1396V43.535H392.188V58.1396H388.537ZM377.583 43.535V39.8838H388.537V43.535H377.583ZM414.679 61.7908V43.535H418.33V61.7908H414.679ZM400.074 61.7908V39.8838H414.679V43.535H403.726V61.7908H400.074ZM429.868 61.7908V58.1396H440.821V61.7908H429.868ZM440.821 58.1396V54.4884H444.473V58.1396H440.821ZM426.217 58.1396V43.535H429.868V47.1861H440.821V43.535H444.473V50.8373H429.868V58.1396H426.217ZM429.868 43.535V39.8838H440.821V43.535H429.868ZM452.359 61.7908V58.1396H466.964V61.7908H452.359ZM466.964 58.1396V54.4884H470.615V58.1396H466.964ZM463.313 54.4884V50.8373H466.964V54.4884H463.313ZM456.01 50.8373V47.1861H463.313V50.8373H456.01ZM452.359 47.1861V43.535H456.01V47.1861H452.359ZM456.01 43.535V39.8838H470.615V43.535H456.01ZM511.946 61.7908V58.1396H522.9V61.7908H511.946ZM508.295 58.1396V32.5815H511.946V39.8838H522.9V43.535H511.946V58.1396H508.295ZM534.437 61.7908V58.1396H545.391V61.7908H534.437ZM530.786 58.1396V43.535H534.437V58.1396H530.786ZM545.391 58.1396V43.535H549.042V58.1396H545.391ZM534.437 43.535V39.8838H545.391V43.535H534.437ZM590.373 61.7908V43.535H586.722V39.8838H594.024V61.7908H590.373ZM590.373 32.5815V28.9303H594.024V32.5815H590.373ZM623.818 61.7908V43.535H627.469V61.7908H623.818ZM609.213 61.7908V39.8838H623.818V43.535H612.864V61.7908H609.213ZM639.007 61.7908V58.1396H649.96V61.7908H639.007ZM649.96 58.1396V54.4884H653.611V58.1396H649.96ZM635.355 58.1396V43.535H639.007V58.1396H635.355ZM649.96 47.1861V43.535H653.611V47.1861H649.96ZM639.007 43.535V39.8838H649.96V43.535H639.007ZM676.102 47.1861V43.535H679.754V47.1861H676.102ZM661.498 61.7908V39.8838H665.149V43.535H668.8V47.1861H665.149V61.7908H661.498ZM668.8 43.535V39.8838H676.102V43.535H668.8ZM691.291 61.7908V58.1396H702.245V61.7908H691.291ZM702.245 58.1396V54.4884H705.896V58.1396H702.245ZM687.64 58.1396V43.535H691.291V47.1861H702.245V43.535H705.896V50.8373H691.291V58.1396H687.64ZM691.291 43.535V39.8838H702.245V43.535H691.291ZM713.782 58.1396V50.8373H717.434V58.1396H713.782ZM717.434 61.7908V58.1396H728.387V50.8373H717.434V47.1861H728.387V43.535H732.038V61.7908H717.434ZM717.434 43.535V39.8838H728.387V43.535H717.434ZM739.925 61.7908V58.1396H754.529V61.7908H739.925ZM754.529 58.1396V54.4884H758.181V58.1396H754.529ZM750.878 54.4884V50.8373H754.529V54.4884H750.878ZM743.576 50.8373V47.1861H750.878V50.8373H743.576ZM739.925 47.1861V43.535H743.576V47.1861H739.925ZM743.576 43.535V39.8838H758.181V43.535H743.576ZM769.718 61.7908V58.1396H780.672V61.7908H769.718ZM780.672 58.1396V54.4884H784.323V58.1396H780.672ZM766.067 58.1396V43.535H769.718V47.1861H780.672V43.535H784.323V50.8373H769.718V58.1396H766.067ZM769.718 43.535V39.8838H780.672V43.535H769.718ZM825.654 61.7908V58.1396H836.607V61.7908H825.654ZM822.003 58.1396V32.5815H825.654V39.8838H836.607V43.535H825.654V58.1396H822.003ZM859.099 61.7908V43.535H862.75V61.7908H859.099ZM844.494 61.7908V28.9303H848.145V39.8838H859.099V43.535H848.145V61.7908H844.494ZM874.287 61.7908V58.1396H885.241V61.7908H874.287ZM885.241 58.1396V54.4884H888.892V58.1396H885.241ZM870.636 58.1396V43.535H874.287V47.1861H885.241V43.535H888.892V50.8373H874.287V58.1396H870.636ZM874.287 43.535V39.8838H885.241V43.535H874.287ZM922.921 61.7908V58.1396H937.526V61.7908H922.921ZM937.526 58.1396V54.4884H941.177V58.1396H937.526ZM933.874 54.4884V50.8373H937.526V54.4884H933.874ZM926.572 50.8373V47.1861H933.874V50.8373H926.572ZM922.921 47.1861V43.535H926.572V47.1861H922.921ZM926.572 43.535V39.8838H941.177V43.535H926.572ZM952.714 61.7908V58.1396H963.668V61.7908H952.714ZM963.668 58.1396V54.4884H967.319V58.1396H963.668ZM949.063 58.1396V43.535H952.714V58.1396H949.063ZM963.668 47.1861V43.535H967.319V47.1861H963.668ZM952.714 43.535V39.8838H963.668V43.535H952.714ZM978.857 61.7908V58.1396H989.81V61.7908H978.857ZM975.206 58.1396V43.535H978.857V58.1396H975.206ZM989.81 58.1396V43.535H993.461V58.1396H989.81ZM978.857 43.535V39.8838H989.81V43.535H978.857ZM1015.95 47.1861V43.535H1019.6V47.1861H1015.95ZM1001.35 61.7908V39.8838H1005V43.535H1008.65V47.1861H1005V61.7908H1001.35ZM1008.65 43.535V39.8838H1015.95V43.535H1008.65ZM1031.14 61.7908V58.1396H1042.09V61.7908H1031.14ZM1042.09 58.1396V54.4884H1045.75V58.1396H1042.09ZM1027.49 58.1396V43.535H1031.14V47.1861H1042.09V43.535H1045.75V50.8373H1031.14V58.1396H1027.49ZM1031.14 43.535V39.8838H1042.09V43.535H1031.14Z" fill="#252840"/>
<path d="M145.953 61.7908H145.223V62.521H145.953V61.7908ZM145.953 58.1396V57.4094H145.223V58.1396H145.953ZM156.907 58.1396H157.637V57.4094H156.907V58.1396ZM156.907 61.7908V62.521H157.637V61.7908H156.907ZM142.302 58.1396H141.572V58.8698H142.302V58.1396ZM142.302 54.4884V53.7582H141.572V54.4884H142.302ZM145.953 54.4884H146.684V53.7582H145.953V54.4884ZM145.953 58.1396V58.8698H146.684V58.1396H145.953ZM156.907 58.1396H156.177V58.8698H156.907V58.1396ZM156.907 54.4884V53.7582H156.177V54.4884H156.907ZM160.558 54.4884H161.288V53.7582H160.558V54.4884ZM160.558 58.1396V58.8698H161.288V58.1396H160.558ZM138.651 54.4884H137.921V55.2187H138.651V54.4884ZM138.651 39.8838V39.1536H137.921V39.8838H138.651ZM142.302 39.8838H143.033V39.1536H142.302V39.8838ZM142.302 54.4884V55.2187H143.033V54.4884H142.302ZM142.302 39.8838H141.572V40.614H142.302V39.8838ZM142.302 36.2326V35.5024H141.572V36.2326H142.302ZM145.953 36.2326H146.684V35.5024H145.953V36.2326ZM145.953 39.8838V40.614H146.684V39.8838H145.953ZM156.907 39.8838H156.177V40.614H156.907V39.8838ZM156.907 36.2326V35.5024H156.177V36.2326H156.907ZM160.558 36.2326H161.288V35.5024H160.558V36.2326ZM160.558 39.8838V40.614H161.288V39.8838H160.558ZM145.953 36.2326H145.223V36.9629H145.953V36.2326ZM145.953 32.5815V31.8512H145.223V32.5815H145.953ZM156.907 32.5815H157.637V31.8512H156.907V32.5815ZM156.907 36.2326V36.9629H157.637V36.2326H156.907ZM146.684 61.7908V58.1396H145.223V61.7908H146.684ZM145.953 58.8698H156.907V57.4094H145.953V58.8698ZM156.177 58.1396V61.7908H157.637V58.1396H156.177ZM156.907 61.0605H145.953V62.521H156.907V61.0605ZM143.033 58.1396V54.4884H141.572V58.1396H143.033ZM142.302 55.2187H145.953V53.7582H142.302V55.2187ZM145.223 54.4884V58.1396H146.684V54.4884H145.223ZM145.953 57.4094H142.302V58.8698H145.953V57.4094ZM157.637 58.1396V54.4884H156.177V58.1396H157.637ZM156.907 55.2187H160.558V53.7582H156.907V55.2187ZM159.828 54.4884V58.1396H161.288V54.4884H159.828ZM160.558 57.4094H156.907V58.8698H160.558V57.4094ZM139.381 54.4884V39.8838H137.921V54.4884H139.381ZM138.651 40.614H142.302V39.1536H138.651V40.614ZM141.572 39.8838V54.4884H143.033V39.8838H141.572ZM142.302 53.7582H138.651V55.2187H142.302V53.7582ZM143.033 39.8838V36.2326H141.572V39.8838H143.033ZM142.302 36.9629H145.953V35.5024H142.302V36.9629ZM145.223 36.2326V39.8838H146.684V36.2326H145.223ZM145.953 39.1536H142.302V40.614H145.953V39.1536ZM157.637 39.8838V36.2326H156.177V39.8838H157.637ZM156.907 36.9629H160.558V35.5024H156.907V36.9629ZM159.828 36.2326V39.8838H161.288V36.2326H159.828ZM160.558 39.1536H156.907V40.614H160.558V39.1536ZM146.684 36.2326V32.5815H145.223V36.2326H146.684ZM145.953 33.3117H156.907V31.8512H145.953V33.3117ZM156.177 32.5815V36.2326H157.637V32.5815H156.177ZM156.907 35.5024H145.953V36.9629H156.907V35.5024ZM168.445 61.7908H167.714V62.521H168.445V61.7908ZM168.445 58.1396V57.4094H167.714V58.1396H168.445ZM179.398 58.1396H180.128V57.4094H179.398V58.1396ZM179.398 61.7908V62.521H180.128V61.7908H179.398ZM164.793 58.1396H164.063V58.8698H164.793V58.1396ZM164.793 43.535V42.8047H164.063V43.535H164.793ZM168.445 43.535H169.175V42.8047H168.445V43.535ZM168.445 58.1396V58.8698H169.175V58.1396H168.445ZM179.398 58.1396H178.668V58.8698H179.398V58.1396ZM179.398 43.535V42.8047H178.668V43.535H179.398ZM183.049 43.535H183.78V42.8047H183.049V43.535ZM183.049 58.1396V58.8698H183.78V58.1396H183.049ZM168.445 43.535H167.714V44.2652H168.445V43.535ZM168.445 39.8838V39.1536H167.714V39.8838H168.445ZM179.398 39.8838H180.128V39.1536H179.398V39.8838ZM179.398 43.535V44.2652H180.128V43.535H179.398ZM169.175 61.7908V58.1396H167.714V61.7908H169.175ZM168.445 58.8698H179.398V57.4094H168.445V58.8698ZM178.668 58.1396V61.7908H180.128V58.1396H178.668ZM179.398 61.0605H168.445V62.521H179.398V61.0605ZM165.524 58.1396V43.535H164.063V58.1396H165.524ZM164.793 44.2652H168.445V42.8047H164.793V44.2652ZM167.714 43.535V58.1396H169.175V43.535H167.714ZM168.445 57.4094H164.793V58.8698H168.445V57.4094ZM180.128 58.1396V43.535H178.668V58.1396H180.128ZM179.398 44.2652H183.049V42.8047H179.398V44.2652ZM182.319 43.535V58.1396H183.78V43.535H182.319ZM183.049 57.4094H179.398V58.8698H183.049V57.4094ZM169.175 43.535V39.8838H167.714V43.535H169.175ZM168.445 40.614H179.398V39.1536H168.445V40.614ZM178.668 39.8838V43.535H180.128V39.8838H178.668ZM179.398 42.8047H168.445V44.2652H179.398V42.8047ZM201.889 61.7908H201.159V62.521H201.889V61.7908ZM201.889 58.1396V57.4094H201.159V58.1396H201.889ZM205.54 58.1396H206.271V57.4094H205.54V58.1396ZM205.54 61.7908V62.521H206.271V61.7908H205.54ZM198.238 58.1396H197.508V58.8698H198.238V58.1396ZM198.238 32.5815H198.968V31.8512H198.238V32.5815ZM194.587 32.5815H193.857V33.3117H194.587V32.5815ZM194.587 28.9303V28.2001H193.857V28.9303H194.587ZM201.889 28.9303H202.62V28.2001H201.889V28.9303ZM201.889 58.1396V58.8698H202.62V58.1396H201.889ZM202.62 61.7908V58.1396H201.159V61.7908H202.62ZM201.889 58.8698H205.54V57.4094H201.889V58.8698ZM204.81 58.1396V61.7908H206.271V58.1396H204.81ZM205.54 61.0605H201.889V62.521H205.54V61.0605ZM198.968 58.1396V32.5815H197.508V58.1396H198.968ZM198.238 31.8512H194.587V33.3117H198.238V31.8512ZM195.317 32.5815V28.9303H193.857V32.5815H195.317ZM194.587 29.6605H201.889V28.2001H194.587V29.6605ZM201.159 28.9303V58.1396H202.62V28.9303H201.159ZM201.889 57.4094H198.238V58.8698H201.889V57.4094ZM228.032 61.7908H227.301V62.521H228.032V61.7908ZM228.032 58.1396V57.4094H227.301V58.1396H228.032ZM231.683 58.1396H232.413V57.4094H231.683V58.1396ZM231.683 61.7908V62.521H232.413V61.7908H231.683ZM224.38 58.1396H223.65V58.8698H224.38V58.1396ZM224.38 32.5815H225.111V31.8512H224.38V32.5815ZM220.729 32.5815H219.999V33.3117H220.729V32.5815ZM220.729 28.9303V28.2001H219.999V28.9303H220.729ZM228.032 28.9303H228.762V28.2001H228.032V28.9303ZM228.032 58.1396V58.8698H228.762V58.1396H228.032ZM228.762 61.7908V58.1396H227.301V61.7908H228.762ZM228.032 58.8698H231.683V57.4094H228.032V58.8698ZM230.953 58.1396V61.7908H232.413V58.1396H230.953ZM231.683 61.0605H228.032V62.521H231.683V61.0605ZM225.111 58.1396V32.5815H223.65V58.1396H225.111ZM224.38 31.8512H220.729V33.3117H224.38V31.8512ZM221.46 32.5815V28.9303H219.999V32.5815H221.46ZM220.729 29.6605H228.032V28.2001H220.729V29.6605ZM227.301 28.9303V58.1396H228.762V28.9303H227.301ZM228.032 57.4094H224.38V58.8698H228.032V57.4094ZM246.872 61.7908H246.141V62.521H246.872V61.7908ZM246.872 58.1396V57.4094H246.141V58.1396H246.872ZM257.825 58.1396H258.555V57.4094H257.825V58.1396ZM257.825 61.7908V62.521H258.555V61.7908H257.825ZM257.825 58.1396H257.095V58.8698H257.825V58.1396ZM257.825 54.4884V53.7582H257.095V54.4884H257.825ZM261.476 54.4884H262.207V53.7582H261.476V54.4884ZM261.476 58.1396V58.8698H262.207V58.1396H261.476ZM243.22 58.1396H242.49V58.8698H243.22V58.1396ZM243.22 43.535V42.8047H242.49V43.535H243.22ZM246.872 43.535H247.602V42.8047H246.872V43.535ZM246.872 47.1861H246.141V47.9164H246.872V47.1861ZM257.825 47.1861V47.9164H258.555V47.1861H257.825ZM257.825 43.535V42.8047H257.095V43.535H257.825ZM261.476 43.535H262.207V42.8047H261.476V43.535ZM261.476 50.8373V51.5675H262.207V50.8373H261.476ZM246.872 50.8373V50.107H246.141V50.8373H246.872ZM246.872 58.1396V58.8698H247.602V58.1396H246.872ZM246.872 43.535H246.141V44.2652H246.872V43.535ZM246.872 39.8838V39.1536H246.141V39.8838H246.872ZM257.825 39.8838H258.555V39.1536H257.825V39.8838ZM257.825 43.535V44.2652H258.555V43.535H257.825ZM247.602 61.7908V58.1396H246.141V61.7908H247.602ZM246.872 58.8698H257.825V57.4094H246.872V58.8698ZM257.095 58.1396V61.7908H258.555V58.1396H257.095ZM257.825 61.0605H246.872V62.521H257.825V61.0605ZM258.555 58.1396V54.4884H257.095V58.1396H258.555ZM257.825 55.2187H261.476V53.7582H257.825V55.2187ZM260.746 54.4884V58.1396H262.207V54.4884H260.746ZM261.476 57.4094H257.825V58.8698H261.476V57.4094ZM243.951 58.1396V43.535H242.49V58.1396H243.951ZM243.22 44.2652H246.872V42.8047H243.22V44.2652ZM246.141 43.535V47.1861H247.602V43.535H246.141ZM246.872 47.9164H257.825V46.4559H246.872V47.9164ZM258.555 47.1861V43.535H257.095V47.1861H258.555ZM257.825 44.2652H261.476V42.8047H257.825V44.2652ZM260.746 43.535V50.8373H262.207V43.535H260.746ZM261.476 50.107H246.872V51.5675H261.476V50.107ZM246.141 50.8373V58.1396H247.602V50.8373H246.141ZM246.872 57.4094H243.22V58.8698H246.872V57.4094ZM247.602 43.535V39.8838H246.141V43.535H247.602ZM246.872 40.614H257.825V39.1536H246.872V40.614ZM257.095 39.8838V43.535H258.555V39.8838H257.095ZM257.825 42.8047H246.872V44.2652H257.825V42.8047ZM273.014 61.7908H272.284V62.521H273.014V61.7908ZM273.014 58.1396V57.4094H272.284V58.1396H273.014ZM283.967 58.1396H284.698V57.4094H283.967V58.1396ZM283.967 61.7908V62.521H284.698V61.7908H283.967ZM283.967 58.1396H283.237V58.8698H283.967V58.1396ZM283.967 54.4884V53.7582H283.237V54.4884H283.967ZM287.619 54.4884H288.349V53.7582H287.619V54.4884ZM287.619 58.1396V58.8698H288.349V58.1396H287.619ZM269.363 58.1396H268.633V58.8698H269.363V58.1396ZM269.363 43.535V42.8047H268.633V43.535H269.363ZM273.014 43.535H273.744V42.8047H273.014V43.535ZM273.014 58.1396V58.8698H273.744V58.1396H273.014ZM283.967 47.1861H283.237V47.9164H283.967V47.1861ZM283.967 43.535V42.8047H283.237V43.535H283.967ZM287.619 43.535H288.349V42.8047H287.619V43.535ZM287.619 47.1861V47.9164H288.349V47.1861H287.619ZM273.014 43.535H272.284V44.2652H273.014V43.535ZM273.014 39.8838V39.1536H272.284V39.8838H273.014ZM283.967 39.8838H284.698V39.1536H283.967V39.8838ZM283.967 43.535V44.2652H284.698V43.535H283.967ZM273.744 61.7908V58.1396H272.284V61.7908H273.744ZM273.014 58.8698H283.967V57.4094H273.014V58.8698ZM283.237 58.1396V61.7908H284.698V58.1396H283.237ZM283.967 61.0605H273.014V62.521H283.967V61.0605ZM284.698 58.1396V54.4884H283.237V58.1396H284.698ZM283.967 55.2187H287.619V53.7582H283.967V55.2187ZM286.888 54.4884V58.1396H288.349V54.4884H286.888ZM287.619 57.4094H283.967V58.8698H287.619V57.4094ZM270.093 58.1396V43.535H268.633V58.1396H270.093ZM269.363 44.2652H273.014V42.8047H269.363V44.2652ZM272.284 43.535V58.1396H273.744V43.535H272.284ZM273.014 57.4094H269.363V58.8698H273.014V57.4094ZM284.698 47.1861V43.535H283.237V47.1861H284.698ZM283.967 44.2652H287.619V42.8047H283.967V44.2652ZM286.888 43.535V47.1861H288.349V43.535H286.888ZM287.619 46.4559H283.967V47.9164H287.619V46.4559ZM273.744 43.535V39.8838H272.284V43.535H273.744ZM273.014 40.614H283.967V39.1536H273.014V40.614ZM283.237 39.8838V43.535H284.698V39.8838H283.237ZM283.967 42.8047H273.014V44.2652H283.967V42.8047ZM302.807 61.7908H302.077V62.521H302.807V61.7908ZM302.807 58.1396V57.4094H302.077V58.1396H302.807ZM313.761 58.1396H314.491V57.4094H313.761V58.1396ZM313.761 61.7908V62.521H314.491V61.7908H313.761ZM299.156 58.1396H298.426V58.8698H299.156V58.1396ZM299.156 32.5815V31.8512H298.426V32.5815H299.156ZM302.807 32.5815H303.538V31.8512H302.807V32.5815ZM302.807 39.8838H302.077V40.614H302.807V39.8838ZM313.761 39.8838H314.491V39.1536H313.761V39.8838ZM313.761 43.535V44.2652H314.491V43.535H313.761ZM302.807 43.535V42.8047H302.077V43.535H302.807ZM302.807 58.1396V58.8698H303.538V58.1396H302.807ZM303.538 61.7908V58.1396H302.077V61.7908H303.538ZM302.807 58.8698H313.761V57.4094H302.807V58.8698ZM313.031 58.1396V61.7908H314.491V58.1396H313.031ZM313.761 61.0605H302.807V62.521H313.761V61.0605ZM299.887 58.1396V32.5815H298.426V58.1396H299.887ZM299.156 33.3117H302.807V31.8512H299.156V33.3117ZM302.077 32.5815V39.8838H303.538V32.5815H302.077ZM302.807 40.614H313.761V39.1536H302.807V40.614ZM313.031 39.8838V43.535H314.491V39.8838H313.031ZM313.761 42.8047H302.807V44.2652H313.761V42.8047ZM302.077 43.535V58.1396H303.538V43.535H302.077ZM302.807 57.4094H299.156V58.8698H302.807V57.4094ZM362.394 58.1396H361.664V58.8698H362.394V58.1396ZM362.394 43.535V42.8047H361.664V43.535H362.394ZM366.046 43.535H366.776V42.8047H366.046V43.535ZM366.046 58.1396V58.8698H366.776V58.1396H366.046ZM347.79 61.7908H347.06V62.521H347.79V61.7908ZM347.79 28.9303V28.2001H347.06V28.9303H347.79ZM351.441 28.9303H352.171V28.2001H351.441V28.9303ZM351.441 39.8838H350.711V40.614H351.441V39.8838ZM362.394 39.8838H363.125V39.1536H362.394V39.8838ZM362.394 43.535V44.2652H363.125V43.535H362.394ZM351.441 43.535V42.8047H350.711V43.535H351.441ZM351.441 58.1396H350.711V58.8698H351.441V58.1396ZM362.394 58.1396H363.125V57.4094H362.394V58.1396ZM362.394 61.7908V62.521H363.125V61.7908H362.394ZM363.125 58.1396V43.535H361.664V58.1396H363.125ZM362.394 44.2652H366.046V42.8047H362.394V44.2652ZM365.315 43.535V58.1396H366.776V43.535H365.315ZM366.046 57.4094H362.394V58.8698H366.046V57.4094ZM348.52 61.7908V28.9303H347.06V61.7908H348.52ZM347.79 29.6605H351.441V28.2001H347.79V29.6605ZM350.711 28.9303V39.8838H352.171V28.9303H350.711ZM351.441 40.614H362.394V39.1536H351.441V40.614ZM361.664 39.8838V43.535H363.125V39.8838H361.664ZM362.394 42.8047H351.441V44.2652H362.394V42.8047ZM350.711 43.535V58.1396H352.171V43.535H350.711ZM351.441 58.8698H362.394V57.4094H351.441V58.8698ZM361.664 58.1396V61.7908H363.125V58.1396H361.664ZM362.394 61.0605H347.79V62.521H362.394V61.0605ZM377.583 61.7908H376.853V62.521H377.583V61.7908ZM377.583 58.1396V57.4094H376.853V58.1396H377.583ZM388.537 58.1396H389.267V57.4094H388.537V58.1396ZM388.537 61.7908V62.521H389.267V61.7908H388.537ZM373.932 58.1396H373.202V58.8698H373.932V58.1396ZM373.932 43.535V42.8047H373.202V43.535H373.932ZM377.583 43.535H378.314V42.8047H377.583V43.535ZM377.583 58.1396V58.8698H378.314V58.1396H377.583ZM388.537 58.1396H387.807V58.8698H388.537V58.1396ZM388.537 43.535V42.8047H387.807V43.535H388.537ZM392.188 43.535H392.918V42.8047H392.188V43.535ZM392.188 58.1396V58.8698H392.918V58.1396H392.188ZM377.583 43.535H376.853V44.2652H377.583V43.535ZM377.583 39.8838V39.1536H376.853V39.8838H377.583ZM388.537 39.8838H389.267V39.1536H388.537V39.8838ZM388.537 43.535V44.2652H389.267V43.535H388.537ZM378.314 61.7908V58.1396H376.853V61.7908H378.314ZM377.583 58.8698H388.537V57.4094H377.583V58.8698ZM387.807 58.1396V61.7908H389.267V58.1396H387.807ZM388.537 61.0605H377.583V62.521H388.537V61.0605ZM374.662 58.1396V43.535H373.202V58.1396H374.662ZM373.932 44.2652H377.583V42.8047H373.932V44.2652ZM376.853 43.535V58.1396H378.314V43.535H376.853ZM377.583 57.4094H373.932V58.8698H377.583V57.4094ZM389.267 58.1396V43.535H387.807V58.1396H389.267ZM388.537 44.2652H392.188V42.8047H388.537V44.2652ZM391.458 43.535V58.1396H392.918V43.535H391.458ZM392.188 57.4094H388.537V58.8698H392.188V57.4094ZM378.314 43.535V39.8838H376.853V43.535H378.314ZM377.583 40.614H388.537V39.1536H377.583V40.614ZM387.807 39.8838V43.535H389.267V39.8838H387.807ZM388.537 42.8047H377.583V44.2652H388.537V42.8047ZM414.679 61.7908H413.949V62.521H414.679V61.7908ZM414.679 43.535V42.8047H413.949V43.535H414.679ZM418.33 43.535H419.06V42.8047H418.33V43.535ZM418.33 61.7908V62.521H419.06V61.7908H418.33ZM400.074 61.7908H399.344V62.521H400.074V61.7908ZM400.074 39.8838V39.1536H399.344V39.8838H400.074ZM414.679 39.8838H415.409V39.1536H414.679V39.8838ZM414.679 43.535V44.2652H415.409V43.535H414.679ZM403.726 43.535V42.8047H402.995V43.535H403.726ZM403.726 61.7908V62.521H404.456V61.7908H403.726ZM415.409 61.7908V43.535H413.949V61.7908H415.409ZM414.679 44.2652H418.33V42.8047H414.679V44.2652ZM417.6 43.535V61.7908H419.06V43.535H417.6ZM418.33 61.0605H414.679V62.521H418.33V61.0605ZM400.805 61.7908V39.8838H399.344V61.7908H400.805ZM400.074 40.614H414.679V39.1536H400.074V40.614ZM413.949 39.8838V43.535H415.409V39.8838H413.949ZM414.679 42.8047H403.726V44.2652H414.679V42.8047ZM402.995 43.535V61.7908H404.456V43.535H402.995ZM403.726 61.0605H400.074V62.521H403.726V61.0605ZM429.868 61.7908H429.138V62.521H429.868V61.7908ZM429.868 58.1396V57.4094H429.138V58.1396H429.868ZM440.821 58.1396H441.552V57.4094H440.821V58.1396ZM440.821 61.7908V62.521H441.552V61.7908H440.821ZM440.821 58.1396H440.091V58.8698H440.821V58.1396ZM440.821 54.4884V53.7582H440.091V54.4884H440.821ZM444.473 54.4884H445.203V53.7582H444.473V54.4884ZM444.473 58.1396V58.8698H445.203V58.1396H444.473ZM426.217 58.1396H425.487V58.8698H426.217V58.1396ZM426.217 43.535V42.8047H425.487V43.535H426.217ZM429.868 43.535H430.598V42.8047H429.868V43.535ZM429.868 47.1861H429.138V47.9164H429.868V47.1861ZM440.821 47.1861V47.9164H441.552V47.1861H440.821ZM440.821 43.535V42.8047H440.091V43.535H440.821ZM444.473 43.535H445.203V42.8047H444.473V43.535ZM444.473 50.8373V51.5675H445.203V50.8373H444.473ZM429.868 50.8373V50.107H429.138V50.8373H429.868ZM429.868 58.1396V58.8698H430.598V58.1396H429.868ZM429.868 43.535H429.138V44.2652H429.868V43.535ZM429.868 39.8838V39.1536H429.138V39.8838H429.868ZM440.821 39.8838H441.552V39.1536H440.821V39.8838ZM440.821 43.535V44.2652H441.552V43.535H440.821ZM430.598 61.7908V58.1396H429.138V61.7908H430.598ZM429.868 58.8698H440.821V57.4094H429.868V58.8698ZM440.091 58.1396V61.7908H441.552V58.1396H440.091ZM440.821 61.0605H429.868V62.521H440.821V61.0605ZM441.552 58.1396V54.4884H440.091V58.1396H441.552ZM440.821 55.2187H444.473V53.7582H440.821V55.2187ZM443.742 54.4884V58.1396H445.203V54.4884H443.742ZM444.473 57.4094H440.821V58.8698H444.473V57.4094ZM426.947 58.1396V43.535H425.487V58.1396H426.947ZM426.217 44.2652H429.868V42.8047H426.217V44.2652ZM429.138 43.535V47.1861H430.598V43.535H429.138ZM429.868 47.9164H440.821V46.4559H429.868V47.9164ZM441.552 47.1861V43.535H440.091V47.1861H441.552ZM440.821 44.2652H444.473V42.8047H440.821V44.2652ZM443.742 43.535V50.8373H445.203V43.535H443.742ZM444.473 50.107H429.868V51.5675H444.473V50.107ZM429.138 50.8373V58.1396H430.598V50.8373H429.138ZM429.868 57.4094H426.217V58.8698H429.868V57.4094ZM430.598 43.535V39.8838H429.138V43.535H430.598ZM429.868 40.614H440.821V39.1536H429.868V40.614ZM440.091 39.8838V43.535H441.552V39.8838H440.091ZM440.821 42.8047H429.868V44.2652H440.821V42.8047ZM452.359 61.7908H451.629V62.521H452.359V61.7908ZM452.359 58.1396V57.4094H451.629V58.1396H452.359ZM466.964 58.1396H467.694V57.4094H466.964V58.1396ZM466.964 61.7908V62.521H467.694V61.7908H466.964ZM466.964 58.1396H466.234V58.8698H466.964V58.1396ZM466.964 54.4884V53.7582H466.234V54.4884H466.964ZM470.615 54.4884H471.345V53.7582H470.615V54.4884ZM470.615 58.1396V58.8698H471.345V58.1396H470.615ZM463.313 54.4884H462.582V55.2187H463.313V54.4884ZM463.313 50.8373V50.107H462.582V50.8373H463.313ZM466.964 50.8373H467.694V50.107H466.964V50.8373ZM466.964 54.4884V55.2187H467.694V54.4884H466.964ZM456.01 50.8373H455.28V51.5675H456.01V50.8373ZM456.01 47.1861V46.4559H455.28V47.1861H456.01ZM463.313 47.1861H464.043V46.4559H463.313V47.1861ZM463.313 50.8373V51.5675H464.043V50.8373H463.313ZM452.359 47.1861H451.629V47.9164H452.359V47.1861ZM452.359 43.535V42.8047H451.629V43.535H452.359ZM456.01 43.535H456.741V42.8047H456.01V43.535ZM456.01 47.1861V47.9164H456.741V47.1861H456.01ZM456.01 43.535H455.28V44.2652H456.01V43.535ZM456.01 39.8838V39.1536H455.28V39.8838H456.01ZM470.615 39.8838H471.345V39.1536H470.615V39.8838ZM470.615 43.535V44.2652H471.345V43.535H470.615ZM453.089 61.7908V58.1396H451.629V61.7908H453.089ZM452.359 58.8698H466.964V57.4094H452.359V58.8698ZM466.234 58.1396V61.7908H467.694V58.1396H466.234ZM466.964 61.0605H452.359V62.521H466.964V61.0605ZM467.694 58.1396V54.4884H466.234V58.1396H467.694ZM466.964 55.2187H470.615V53.7582H466.964V55.2187ZM469.885 54.4884V58.1396H471.345V54.4884H469.885ZM470.615 57.4094H466.964V58.8698H470.615V57.4094ZM464.043 54.4884V50.8373H462.582V54.4884H464.043ZM463.313 51.5675H466.964V50.107H463.313V51.5675ZM466.234 50.8373V54.4884H467.694V50.8373H466.234ZM466.964 53.7582H463.313V55.2187H466.964V53.7582ZM456.741 50.8373V47.1861H455.28V50.8373H456.741ZM456.01 47.9164H463.313V46.4559H456.01V47.9164ZM462.582 47.1861V50.8373H464.043V47.1861H462.582ZM463.313 50.107H456.01V51.5675H463.313V50.107ZM453.089 47.1861V43.535H451.629V47.1861H453.089ZM452.359 44.2652H456.01V42.8047H452.359V44.2652ZM455.28 43.535V47.1861H456.741V43.535H455.28ZM456.01 46.4559H452.359V47.9164H456.01V46.4559ZM456.741 43.535V39.8838H455.28V43.535H456.741ZM456.01 40.614H470.615V39.1536H456.01V40.614ZM469.885 39.8838V43.535H471.345V39.8838H469.885ZM470.615 42.8047H456.01V44.2652H470.615V42.8047ZM511.946 61.7908H511.216V62.521H511.946V61.7908ZM511.946 58.1396V57.4094H511.216V58.1396H511.946ZM522.9 58.1396H523.63V57.4094H522.9V58.1396ZM522.9 61.7908V62.521H523.63V61.7908H522.9ZM508.295 58.1396H507.565V58.8698H508.295V58.1396ZM508.295 32.5815V31.8512H507.565V32.5815H508.295ZM511.946 32.5815H512.676V31.8512H511.946V32.5815ZM511.946 39.8838H511.216V40.614H511.946V39.8838ZM522.9 39.8838H523.63V39.1536H522.9V39.8838ZM522.9 43.535V44.2652H523.63V43.535H522.9ZM511.946 43.535V42.8047H511.216V43.535H511.946ZM511.946 58.1396V58.8698H512.676V58.1396H511.946ZM512.676 61.7908V58.1396H511.216V61.7908H512.676ZM511.946 58.8698H522.9V57.4094H511.946V58.8698ZM522.169 58.1396V61.7908H523.63V58.1396H522.169ZM522.9 61.0605H511.946V62.521H522.9V61.0605ZM509.025 58.1396V32.5815H507.565V58.1396H509.025ZM508.295 33.3117H511.946V31.8512H508.295V33.3117ZM511.216 32.5815V39.8838H512.676V32.5815H511.216ZM511.946 40.614H522.9V39.1536H511.946V40.614ZM522.169 39.8838V43.535H523.63V39.8838H522.169ZM522.9 42.8047H511.946V44.2652H522.9V42.8047ZM511.216 43.535V58.1396H512.676V43.535H511.216ZM511.946 57.4094H508.295V58.8698H511.946V57.4094ZM534.437 61.7908H533.707V62.521H534.437V61.7908ZM534.437 58.1396V57.4094H533.707V58.1396H534.437ZM545.391 58.1396H546.121V57.4094H545.391V58.1396ZM545.391 61.7908V62.521H546.121V61.7908H545.391ZM530.786 58.1396H530.056V58.8698H530.786V58.1396ZM530.786 43.535V42.8047H530.056V43.535H530.786ZM534.437 43.535H535.167V42.8047H534.437V43.535ZM534.437 58.1396V58.8698H535.167V58.1396H534.437ZM545.391 58.1396H544.66V58.8698H545.391V58.1396ZM545.391 43.535V42.8047H544.66V43.535H545.391ZM549.042 43.535H549.772V42.8047H549.042V43.535ZM549.042 58.1396V58.8698H549.772V58.1396H549.042ZM534.437 43.535H533.707V44.2652H534.437V43.535ZM534.437 39.8838V39.1536H533.707V39.8838H534.437ZM545.391 39.8838H546.121V39.1536H545.391V39.8838ZM545.391 43.535V44.2652H546.121V43.535H545.391ZM535.167 61.7908V58.1396H533.707V61.7908H535.167ZM534.437 58.8698H545.391V57.4094H534.437V58.8698ZM544.66 58.1396V61.7908H546.121V58.1396H544.66ZM545.391 61.0605H534.437V62.521H545.391V61.0605ZM531.516 58.1396V43.535H530.056V58.1396H531.516ZM530.786 44.2652H534.437V42.8047H530.786V44.2652ZM533.707 43.535V58.1396H535.167V43.535H533.707ZM534.437 57.4094H530.786V58.8698H534.437V57.4094ZM546.121 58.1396V43.535H544.66V58.1396H546.121ZM545.391 44.2652H549.042V42.8047H545.391V44.2652ZM548.312 43.535V58.1396H549.772V43.535H548.312ZM549.042 57.4094H545.391V58.8698H549.042V57.4094ZM535.167 43.535V39.8838H533.707V43.535H535.167ZM534.437 40.614H545.391V39.1536H534.437V40.614ZM544.66 39.8838V43.535H546.121V39.8838H544.66ZM545.391 42.8047H534.437V44.2652H545.391V42.8047ZM590.373 61.7908H589.643V62.521H590.373V61.7908ZM590.373 43.535H591.103V42.8047H590.373V43.535ZM586.722 43.535H585.992V44.2652H586.722V43.535ZM586.722 39.8838V39.1536H585.992V39.8838H586.722ZM594.024 39.8838H594.754V39.1536H594.024V39.8838ZM594.024 61.7908V62.521H594.754V61.7908H594.024ZM590.373 32.5815H589.643V33.3117H590.373V32.5815ZM590.373 28.9303V28.2001H589.643V28.9303H590.373ZM594.024 28.9303H594.754V28.2001H594.024V28.9303ZM594.024 32.5815V33.3117H594.754V32.5815H594.024ZM591.103 61.7908V43.535H589.643V61.7908H591.103ZM590.373 42.8047H586.722V44.2652H590.373V42.8047ZM587.452 43.535V39.8838H585.992V43.535H587.452ZM586.722 40.614H594.024V39.1536H586.722V40.614ZM593.294 39.8838V61.7908H594.754V39.8838H593.294ZM594.024 61.0605H590.373V62.521H594.024V61.0605ZM591.103 32.5815V28.9303H589.643V32.5815H591.103ZM590.373 29.6605H594.024V28.2001H590.373V29.6605ZM593.294 28.9303V32.5815H594.754V28.9303H593.294ZM594.024 31.8512H590.373V33.3117H594.024V31.8512ZM623.818 61.7908H623.087V62.521H623.818V61.7908ZM623.818 43.535V42.8047H623.087V43.535H623.818ZM627.469 43.535H628.199V42.8047H627.469V43.535ZM627.469 61.7908V62.521H628.199V61.7908H627.469ZM609.213 61.7908H608.483V62.521H609.213V61.7908ZM609.213 39.8838V39.1536H608.483V39.8838H609.213ZM623.818 39.8838H624.548V39.1536H623.818V39.8838ZM623.818 43.535V44.2652H624.548V43.535H623.818ZM612.864 43.535V42.8047H612.134V43.535H612.864ZM612.864 61.7908V62.521H613.594V61.7908H612.864ZM624.548 61.7908V43.535H623.087V61.7908H624.548ZM623.818 44.2652H627.469V42.8047H623.818V44.2652ZM626.739 43.535V61.7908H628.199V43.535H626.739ZM627.469 61.0605H623.818V62.521H627.469V61.0605ZM609.943 61.7908V39.8838H608.483V61.7908H609.943ZM609.213 40.614H623.818V39.1536H609.213V40.614ZM623.087 39.8838V43.535H624.548V39.8838H623.087ZM623.818 42.8047H612.864V44.2652H623.818V42.8047ZM612.134 43.535V61.7908H613.594V43.535H612.134ZM612.864 61.0605H609.213V62.521H612.864V61.0605ZM639.007 61.7908H638.276V62.521H639.007V61.7908ZM639.007 58.1396V57.4094H638.276V58.1396H639.007ZM649.96 58.1396H650.69V57.4094H649.96V58.1396ZM649.96 61.7908V62.521H650.69V61.7908H649.96ZM649.96 58.1396H649.23V58.8698H649.96V58.1396ZM649.96 54.4884V53.7582H649.23V54.4884H649.96ZM653.611 54.4884H654.341V53.7582H653.611V54.4884ZM653.611 58.1396V58.8698H654.341V58.1396H653.611ZM635.355 58.1396H634.625V58.8698H635.355V58.1396ZM635.355 43.535V42.8047H634.625V43.535H635.355ZM639.007 43.535H639.737V42.8047H639.007V43.535ZM639.007 58.1396V58.8698H639.737V58.1396H639.007ZM649.96 47.1861H649.23V47.9164H649.96V47.1861ZM649.96 43.535V42.8047H649.23V43.535H649.96ZM653.611 43.535H654.341V42.8047H653.611V43.535ZM653.611 47.1861V47.9164H654.341V47.1861H653.611ZM639.007 43.535H638.276V44.2652H639.007V43.535ZM639.007 39.8838V39.1536H638.276V39.8838H639.007ZM649.96 39.8838H650.69V39.1536H649.96V39.8838ZM649.96 43.535V44.2652H650.69V43.535H649.96ZM639.737 61.7908V58.1396H638.276V61.7908H639.737ZM639.007 58.8698H649.96V57.4094H639.007V58.8698ZM649.23 58.1396V61.7908H650.69V58.1396H649.23ZM649.96 61.0605H639.007V62.521H649.96V61.0605ZM650.69 58.1396V54.4884H649.23V58.1396H650.69ZM649.96 55.2187H653.611V53.7582H649.96V55.2187ZM652.881 54.4884V58.1396H654.341V54.4884H652.881ZM653.611 57.4094H649.96V58.8698H653.611V57.4094ZM636.086 58.1396V43.535H634.625V58.1396H636.086ZM635.355 44.2652H639.007V42.8047H635.355V44.2652ZM638.276 43.535V58.1396H639.737V43.535H638.276ZM639.007 57.4094H635.355V58.8698H639.007V57.4094ZM650.69 47.1861V43.535H649.23V47.1861H650.69ZM649.96 44.2652H653.611V42.8047H649.96V44.2652ZM652.881 43.535V47.1861H654.341V43.535H652.881ZM653.611 46.4559H649.96V47.9164H653.611V46.4559ZM639.737 43.535V39.8838H638.276V43.535H639.737ZM639.007 40.614H649.96V39.1536H639.007V40.614ZM649.23 39.8838V43.535H650.69V39.8838H649.23ZM649.96 42.8047H639.007V44.2652H649.96V42.8047ZM676.102 47.1861H675.372V47.9164H676.102V47.1861ZM676.102 43.535V42.8047H675.372V43.535H676.102ZM679.754 43.535H680.484V42.8047H679.754V43.535ZM679.754 47.1861V47.9164H680.484V47.1861H679.754ZM661.498 61.7908H660.768V62.521H661.498V61.7908ZM661.498 39.8838V39.1536H660.768V39.8838H661.498ZM665.149 39.8838H665.879V39.1536H665.149V39.8838ZM665.149 43.535H664.419V44.2652H665.149V43.535ZM668.8 43.535H669.53V42.8047H668.8V43.535ZM668.8 47.1861V47.9164H669.53V47.1861H668.8ZM665.149 47.1861V46.4559H664.419V47.1861H665.149ZM665.149 61.7908V62.521H665.879V61.7908H665.149ZM668.8 43.535H668.07V44.2652H668.8V43.535ZM668.8 39.8838V39.1536H668.07V39.8838H668.8ZM676.102 39.8838H676.833V39.1536H676.102V39.8838ZM676.102 43.535V44.2652H676.833V43.535H676.102ZM676.833 47.1861V43.535H675.372V47.1861H676.833ZM676.102 44.2652H679.754V42.8047H676.102V44.2652ZM679.023 43.535V47.1861H680.484V43.535H679.023ZM679.754 46.4559H676.102V47.9164H679.754V46.4559ZM662.228 61.7908V39.8838H660.768V61.7908H662.228ZM661.498 40.614H665.149V39.1536H661.498V40.614ZM664.419 39.8838V43.535H665.879V39.8838H664.419ZM665.149 44.2652H668.8V42.8047H665.149V44.2652ZM668.07 43.535V47.1861H669.53V43.535H668.07ZM668.8 46.4559H665.149V47.9164H668.8V46.4559ZM664.419 47.1861V61.7908H665.879V47.1861H664.419ZM665.149 61.0605H661.498V62.521H665.149V61.0605ZM669.53 43.535V39.8838H668.07V43.535H669.53ZM668.8 40.614H676.102V39.1536H668.8V40.614ZM675.372 39.8838V43.535H676.833V39.8838H675.372ZM676.102 42.8047H668.8V44.2652H676.102V42.8047ZM691.291 61.7908H690.561V62.521H691.291V61.7908ZM691.291 58.1396V57.4094H690.561V58.1396H691.291ZM702.245 58.1396H702.975V57.4094H702.245V58.1396ZM702.245 61.7908V62.521H702.975V61.7908H702.245ZM702.245 58.1396H701.514V58.8698H702.245V58.1396ZM702.245 54.4884V53.7582H701.514V54.4884H702.245ZM705.896 54.4884H706.626V53.7582H705.896V54.4884ZM705.896 58.1396V58.8698H706.626V58.1396H705.896ZM687.64 58.1396H686.91V58.8698H687.64V58.1396ZM687.64 43.535V42.8047H686.91V43.535H687.64ZM691.291 43.535H692.021V42.8047H691.291V43.535ZM691.291 47.1861H690.561V47.9164H691.291V47.1861ZM702.245 47.1861V47.9164H702.975V47.1861H702.245ZM702.245 43.535V42.8047H701.514V43.535H702.245ZM705.896 43.535H706.626V42.8047H705.896V43.535ZM705.896 50.8373V51.5675H706.626V50.8373H705.896ZM691.291 50.8373V50.107H690.561V50.8373H691.291ZM691.291 58.1396V58.8698H692.021V58.1396H691.291ZM691.291 43.535H690.561V44.2652H691.291V43.535ZM691.291 39.8838V39.1536H690.561V39.8838H691.291ZM702.245 39.8838H702.975V39.1536H702.245V39.8838ZM702.245 43.535V44.2652H702.975V43.535H702.245ZM692.021 61.7908V58.1396H690.561V61.7908H692.021ZM691.291 58.8698H702.245V57.4094H691.291V58.8698ZM701.514 58.1396V61.7908H702.975V58.1396H701.514ZM702.245 61.0605H691.291V62.521H702.245V61.0605ZM702.975 58.1396V54.4884H701.514V58.1396H702.975ZM702.245 55.2187H705.896V53.7582H702.245V55.2187ZM705.166 54.4884V58.1396H706.626V54.4884H705.166ZM705.896 57.4094H702.245V58.8698H705.896V57.4094ZM688.37 58.1396V43.535H686.91V58.1396H688.37ZM687.64 44.2652H691.291V42.8047H687.64V44.2652ZM690.561 43.535V47.1861H692.021V43.535H690.561ZM691.291 47.9164H702.245V46.4559H691.291V47.9164ZM702.975 47.1861V43.535H701.514V47.1861H702.975ZM702.245 44.2652H705.896V42.8047H702.245V44.2652ZM705.166 43.535V50.8373H706.626V43.535H705.166ZM705.896 50.107H691.291V51.5675H705.896V50.107ZM690.561 50.8373V58.1396H692.021V50.8373H690.561ZM691.291 57.4094H687.64V58.8698H691.291V57.4094ZM692.021 43.535V39.8838H690.561V43.535H692.021ZM691.291 40.614H702.245V39.1536H691.291V40.614ZM701.514 39.8838V43.535H702.975V39.8838H701.514ZM702.245 42.8047H691.291V44.2652H702.245V42.8047ZM713.782 58.1396H713.052V58.8698H713.782V58.1396ZM713.782 50.8373V50.107H713.052V50.8373H713.782ZM717.434 50.8373H718.164V50.107H717.434V50.8373ZM717.434 58.1396V58.8698H718.164V58.1396H717.434ZM717.434 61.7908H716.703V62.521H717.434V61.7908ZM717.434 58.1396V57.4094H716.703V58.1396H717.434ZM728.387 58.1396V58.8698H729.117V58.1396H728.387ZM728.387 50.8373H729.117V50.107H728.387V50.8373ZM717.434 50.8373H716.703V51.5675H717.434V50.8373ZM717.434 47.1861V46.4559H716.703V47.1861H717.434ZM728.387 47.1861V47.9164H729.117V47.1861H728.387ZM728.387 43.535V42.8047H727.657V43.535H728.387ZM732.038 43.535H732.768V42.8047H732.038V43.535ZM732.038 61.7908V62.521H732.768V61.7908H732.038ZM717.434 43.535H716.703V44.2652H717.434V43.535ZM717.434 39.8838V39.1536H716.703V39.8838H717.434ZM728.387 39.8838H729.117V39.1536H728.387V39.8838ZM728.387 43.535V44.2652H729.117V43.535H728.387ZM714.513 58.1396V50.8373H713.052V58.1396H714.513ZM713.782 51.5675H717.434V50.107H713.782V51.5675ZM716.703 50.8373V58.1396H718.164V50.8373H716.703ZM717.434 57.4094H713.782V58.8698H717.434V57.4094ZM718.164 61.7908V58.1396H716.703V61.7908H718.164ZM717.434 58.8698H728.387V57.4094H717.434V58.8698ZM729.117 58.1396V50.8373H727.657V58.1396H729.117ZM728.387 50.107H717.434V51.5675H728.387V50.107ZM718.164 50.8373V47.1861H716.703V50.8373H718.164ZM717.434 47.9164H728.387V46.4559H717.434V47.9164ZM729.117 47.1861V43.535H727.657V47.1861H729.117ZM728.387 44.2652H732.038V42.8047H728.387V44.2652ZM731.308 43.535V61.7908H732.768V43.535H731.308ZM732.038 61.0605H717.434V62.521H732.038V61.0605ZM718.164 43.535V39.8838H716.703V43.535H718.164ZM717.434 40.614H728.387V39.1536H717.434V40.614ZM727.657 39.8838V43.535H729.117V39.8838H727.657ZM728.387 42.8047H717.434V44.2652H728.387V42.8047ZM739.925 61.7908H739.195V62.521H739.925V61.7908ZM739.925 58.1396V57.4094H739.195V58.1396H739.925ZM754.529 58.1396H755.26V57.4094H754.529V58.1396ZM754.529 61.7908V62.521H755.26V61.7908H754.529ZM754.529 58.1396H753.799V58.8698H754.529V58.1396ZM754.529 54.4884V53.7582H753.799V54.4884H754.529ZM758.181 54.4884H758.911V53.7582H758.181V54.4884ZM758.181 58.1396V58.8698H758.911V58.1396H758.181ZM750.878 54.4884H750.148V55.2187H750.878V54.4884ZM750.878 50.8373V50.107H750.148V50.8373H750.878ZM754.529 50.8373H755.26V50.107H754.529V50.8373ZM754.529 54.4884V55.2187H755.26V54.4884H754.529ZM743.576 50.8373H742.846V51.5675H743.576V50.8373ZM743.576 47.1861V46.4559H742.846V47.1861H743.576ZM750.878 47.1861H751.608V46.4559H750.878V47.1861ZM750.878 50.8373V51.5675H751.608V50.8373H750.878ZM739.925 47.1861H739.195V47.9164H739.925V47.1861ZM739.925 43.535V42.8047H739.195V43.535H739.925ZM743.576 43.535H744.306V42.8047H743.576V43.535ZM743.576 47.1861V47.9164H744.306V47.1861H743.576ZM743.576 43.535H742.846V44.2652H743.576V43.535ZM743.576 39.8838V39.1536H742.846V39.8838H743.576ZM758.181 39.8838H758.911V39.1536H758.181V39.8838ZM758.181 43.535V44.2652H758.911V43.535H758.181ZM740.655 61.7908V58.1396H739.195V61.7908H740.655ZM739.925 58.8698H754.529V57.4094H739.925V58.8698ZM753.799 58.1396V61.7908H755.26V58.1396H753.799ZM754.529 61.0605H739.925V62.521H754.529V61.0605ZM755.26 58.1396V54.4884H753.799V58.1396H755.26ZM754.529 55.2187H758.181V53.7582H754.529V55.2187ZM757.45 54.4884V58.1396H758.911V54.4884H757.45ZM758.181 57.4094H754.529V58.8698H758.181V57.4094ZM751.608 54.4884V50.8373H750.148V54.4884H751.608ZM750.878 51.5675H754.529V50.107H750.878V51.5675ZM753.799 50.8373V54.4884H755.26V50.8373H753.799ZM754.529 53.7582H750.878V55.2187H754.529V53.7582ZM744.306 50.8373V47.1861H742.846V50.8373H744.306ZM743.576 47.9164H750.878V46.4559H743.576V47.9164ZM750.148 47.1861V50.8373H751.608V47.1861H750.148ZM750.878 50.107H743.576V51.5675H750.878V50.107ZM740.655 47.1861V43.535H739.195V47.1861H740.655ZM739.925 44.2652H743.576V42.8047H739.925V44.2652ZM742.846 43.535V47.1861H744.306V43.535H742.846ZM743.576 46.4559H739.925V47.9164H743.576V46.4559ZM744.306 43.535V39.8838H742.846V43.535H744.306ZM743.576 40.614H758.181V39.1536H743.576V40.614ZM757.45 39.8838V43.535H758.911V39.8838H757.45ZM758.181 42.8047H743.576V44.2652H758.181V42.8047ZM769.718 61.7908H768.988V62.521H769.718V61.7908ZM769.718 58.1396V57.4094H768.988V58.1396H769.718ZM780.672 58.1396H781.402V57.4094H780.672V58.1396ZM780.672 61.7908V62.521H781.402V61.7908H780.672ZM780.672 58.1396H779.941V58.8698H780.672V58.1396ZM780.672 54.4884V53.7582H779.941V54.4884H780.672ZM784.323 54.4884H785.053V53.7582H784.323V54.4884ZM784.323 58.1396V58.8698H785.053V58.1396H784.323ZM766.067 58.1396H765.337V58.8698H766.067V58.1396ZM766.067 43.535V42.8047H765.337V43.535H766.067ZM769.718 43.535H770.448V42.8047H769.718V43.535ZM769.718 47.1861H768.988V47.9164H769.718V47.1861ZM780.672 47.1861V47.9164H781.402V47.1861H780.672ZM780.672 43.535V42.8047H779.941V43.535H780.672ZM784.323 43.535H785.053V42.8047H784.323V43.535ZM784.323 50.8373V51.5675H785.053V50.8373H784.323ZM769.718 50.8373V50.107H768.988V50.8373H769.718ZM769.718 58.1396V58.8698H770.448V58.1396H769.718ZM769.718 43.535H768.988V44.2652H769.718V43.535ZM769.718 39.8838V39.1536H768.988V39.8838H769.718ZM780.672 39.8838H781.402V39.1536H780.672V39.8838ZM780.672 43.535V44.2652H781.402V43.535H780.672ZM770.448 61.7908V58.1396H768.988V61.7908H770.448ZM769.718 58.8698H780.672V57.4094H769.718V58.8698ZM779.941 58.1396V61.7908H781.402V58.1396H779.941ZM780.672 61.0605H769.718V62.521H780.672V61.0605ZM781.402 58.1396V54.4884H779.941V58.1396H781.402ZM780.672 55.2187H784.323V53.7582H780.672V55.2187ZM783.593 54.4884V58.1396H785.053V54.4884H783.593ZM784.323 57.4094H780.672V58.8698H784.323V57.4094ZM766.797 58.1396V43.535H765.337V58.1396H766.797ZM766.067 44.2652H769.718V42.8047H766.067V44.2652ZM768.988 43.535V47.1861H770.448V43.535H768.988ZM769.718 47.9164H780.672V46.4559H769.718V47.9164ZM781.402 47.1861V43.535H779.941V47.1861H781.402ZM780.672 44.2652H784.323V42.8047H780.672V44.2652ZM783.593 43.535V50.8373H785.053V43.535H783.593ZM784.323 50.107H769.718V51.5675H784.323V50.107ZM768.988 50.8373V58.1396H770.448V50.8373H768.988ZM769.718 57.4094H766.067V58.8698H769.718V57.4094ZM770.448 43.535V39.8838H768.988V43.535H770.448ZM769.718 40.614H780.672V39.1536H769.718V40.614ZM779.941 39.8838V43.535H781.402V39.8838H779.941ZM780.672 42.8047H769.718V44.2652H780.672V42.8047ZM825.654 61.7908H824.924V62.521H825.654V61.7908ZM825.654 58.1396V57.4094H824.924V58.1396H825.654ZM836.607 58.1396H837.338V57.4094H836.607V58.1396ZM836.607 61.7908V62.521H837.338V61.7908H836.607ZM822.003 58.1396H821.273V58.8698H822.003V58.1396ZM822.003 32.5815V31.8512H821.273V32.5815H822.003ZM825.654 32.5815H826.384V31.8512H825.654V32.5815ZM825.654 39.8838H824.924V40.614H825.654V39.8838ZM836.607 39.8838H837.338V39.1536H836.607V39.8838ZM836.607 43.535V44.2652H837.338V43.535H836.607ZM825.654 43.535V42.8047H824.924V43.535H825.654ZM825.654 58.1396V58.8698H826.384V58.1396H825.654ZM826.384 61.7908V58.1396H824.924V61.7908H826.384ZM825.654 58.8698H836.607V57.4094H825.654V58.8698ZM835.877 58.1396V61.7908H837.338V58.1396H835.877ZM836.607 61.0605H825.654V62.521H836.607V61.0605ZM822.733 58.1396V32.5815H821.273V58.1396H822.733ZM822.003 33.3117H825.654V31.8512H822.003V33.3117ZM824.924 32.5815V39.8838H826.384V32.5815H824.924ZM825.654 40.614H836.607V39.1536H825.654V40.614ZM835.877 39.8838V43.535H837.338V39.8838H835.877ZM836.607 42.8047H825.654V44.2652H836.607V42.8047ZM824.924 43.535V58.1396H826.384V43.535H824.924ZM825.654 57.4094H822.003V58.8698H825.654V57.4094ZM859.099 61.7908H858.368V62.521H859.099V61.7908ZM859.099 43.535V42.8047H858.368V43.535H859.099ZM862.75 43.535H863.48V42.8047H862.75V43.535ZM862.75 61.7908V62.521H863.48V61.7908H862.75ZM844.494 61.7908H843.764V62.521H844.494V61.7908ZM844.494 28.9303V28.2001H843.764V28.9303H844.494ZM848.145 28.9303H848.875V28.2001H848.145V28.9303ZM848.145 39.8838H847.415V40.614H848.145V39.8838ZM859.099 39.8838H859.829V39.1536H859.099V39.8838ZM859.099 43.535V44.2652H859.829V43.535H859.099ZM848.145 43.535V42.8047H847.415V43.535H848.145ZM848.145 61.7908V62.521H848.875V61.7908H848.145ZM859.829 61.7908V43.535H858.368V61.7908H859.829ZM859.099 44.2652H862.75V42.8047H859.099V44.2652ZM862.02 43.535V61.7908H863.48V43.535H862.02ZM862.75 61.0605H859.099V62.521H862.75V61.0605ZM845.224 61.7908V28.9303H843.764V61.7908H845.224ZM844.494 29.6605H848.145V28.2001H844.494V29.6605ZM847.415 28.9303V39.8838H848.875V28.9303H847.415ZM848.145 40.614H859.099V39.1536H848.145V40.614ZM858.368 39.8838V43.535H859.829V39.8838H858.368ZM859.099 42.8047H848.145V44.2652H859.099V42.8047ZM847.415 43.535V61.7908H848.875V43.535H847.415ZM848.145 61.0605H844.494V62.521H848.145V61.0605ZM874.287 61.7908H873.557V62.521H874.287V61.7908ZM874.287 58.1396V57.4094H873.557V58.1396H874.287ZM885.241 58.1396H885.971V57.4094H885.241V58.1396ZM885.241 61.7908V62.521H885.971V61.7908H885.241ZM885.241 58.1396H884.511V58.8698H885.241V58.1396ZM885.241 54.4884V53.7582H884.511V54.4884H885.241ZM888.892 54.4884H889.622V53.7582H888.892V54.4884ZM888.892 58.1396V58.8698H889.622V58.1396H888.892ZM870.636 58.1396H869.906V58.8698H870.636V58.1396ZM870.636 43.535V42.8047H869.906V43.535H870.636ZM874.287 43.535H875.018V42.8047H874.287V43.535ZM874.287 47.1861H873.557V47.9164H874.287V47.1861ZM885.241 47.1861V47.9164H885.971V47.1861H885.241ZM885.241 43.535V42.8047H884.511V43.535H885.241ZM888.892 43.535H889.622V42.8047H888.892V43.535ZM888.892 50.8373V51.5675H889.622V50.8373H888.892ZM874.287 50.8373V50.107H873.557V50.8373H874.287ZM874.287 58.1396V58.8698H875.018V58.1396H874.287ZM874.287 43.535H873.557V44.2652H874.287V43.535ZM874.287 39.8838V39.1536H873.557V39.8838H874.287ZM885.241 39.8838H885.971V39.1536H885.241V39.8838ZM885.241 43.535V44.2652H885.971V43.535H885.241ZM875.018 61.7908V58.1396H873.557V61.7908H875.018ZM874.287 58.8698H885.241V57.4094H874.287V58.8698ZM884.511 58.1396V61.7908H885.971V58.1396H884.511ZM885.241 61.0605H874.287V62.521H885.241V61.0605ZM885.971 58.1396V54.4884H884.511V58.1396H885.971ZM885.241 55.2187H888.892V53.7582H885.241V55.2187ZM888.162 54.4884V58.1396H889.622V54.4884H888.162ZM888.892 57.4094H885.241V58.8698H888.892V57.4094ZM871.367 58.1396V43.535H869.906V58.1396H871.367ZM870.636 44.2652H874.287V42.8047H870.636V44.2652ZM873.557 43.535V47.1861H875.018V43.535H873.557ZM874.287 47.9164H885.241V46.4559H874.287V47.9164ZM885.971 47.1861V43.535H884.511V47.1861H885.971ZM885.241 44.2652H888.892V42.8047H885.241V44.2652ZM888.162 43.535V50.8373H889.622V43.535H888.162ZM888.892 50.107H874.287V51.5675H888.892V50.107ZM873.557 50.8373V58.1396H875.018V50.8373H873.557ZM874.287 57.4094H870.636V58.8698H874.287V57.4094ZM875.018 43.535V39.8838H873.557V43.535H875.018ZM874.287 40.614H885.241V39.1536H874.287V40.614ZM884.511 39.8838V43.535H885.971V39.8838H884.511ZM885.241 42.8047H874.287V44.2652H885.241V42.8047ZM922.921 61.7908H922.191V62.521H922.921V61.7908ZM922.921 58.1396V57.4094H922.191V58.1396H922.921ZM937.526 58.1396H938.256V57.4094H937.526V58.1396ZM937.526 61.7908V62.521H938.256V61.7908H937.526ZM937.526 58.1396H936.795V58.8698H937.526V58.1396ZM937.526 54.4884V53.7582H936.795V54.4884H937.526ZM941.177 54.4884H941.907V53.7582H941.177V54.4884ZM941.177 58.1396V58.8698H941.907V58.1396H941.177ZM933.875 54.4884H933.144V55.2187H933.875V54.4884ZM933.875 50.8373V50.107H933.144V50.8373H933.875ZM937.526 50.8373H938.256V50.107H937.526V50.8373ZM937.526 54.4884V55.2187H938.256V54.4884H937.526ZM926.572 50.8373H925.842V51.5675H926.572V50.8373ZM926.572 47.1861V46.4559H925.842V47.1861H926.572ZM933.875 47.1861H934.605V46.4559H933.875V47.1861ZM933.875 50.8373V51.5675H934.605V50.8373H933.875ZM922.921 47.1861H922.191V47.9164H922.921V47.1861ZM922.921 43.535V42.8047H922.191V43.535H922.921ZM926.572 43.535H927.302V42.8047H926.572V43.535ZM926.572 47.1861V47.9164H927.302V47.1861H926.572ZM926.572 43.535H925.842V44.2652H926.572V43.535ZM926.572 39.8838V39.1536H925.842V39.8838H926.572ZM941.177 39.8838H941.907V39.1536H941.177V39.8838ZM941.177 43.535V44.2652H941.907V43.535H941.177ZM923.651 61.7908V58.1396H922.191V61.7908H923.651ZM922.921 58.8698H937.526V57.4094H922.921V58.8698ZM936.795 58.1396V61.7908H938.256V58.1396H936.795ZM937.526 61.0605H922.921V62.521H937.526V61.0605ZM938.256 58.1396V54.4884H936.795V58.1396H938.256ZM937.526 55.2187H941.177V53.7582H937.526V55.2187ZM940.447 54.4884V58.1396H941.907V54.4884H940.447ZM941.177 57.4094H937.526V58.8698H941.177V57.4094ZM934.605 54.4884V50.8373H933.144V54.4884H934.605ZM933.875 51.5675H937.526V50.107H933.875V51.5675ZM936.795 50.8373V54.4884H938.256V50.8373H936.795ZM937.526 53.7582H933.875V55.2187H937.526V53.7582ZM927.302 50.8373V47.1861H925.842V50.8373H927.302ZM926.572 47.9164H933.875V46.4559H926.572V47.9164ZM933.144 47.1861V50.8373H934.605V47.1861H933.144ZM933.875 50.107H926.572V51.5675H933.875V50.107ZM923.651 47.1861V43.535H922.191V47.1861H923.651ZM922.921 44.2652H926.572V42.8047H922.921V44.2652ZM925.842 43.535V47.1861H927.302V43.535H925.842ZM926.572 46.4559H922.921V47.9164H926.572V46.4559ZM927.302 43.535V39.8838H925.842V43.535H927.302ZM926.572 40.614H941.177V39.1536H926.572V40.614ZM940.447 39.8838V43.535H941.907V39.8838H940.447ZM941.177 42.8047H926.572V44.2652H941.177V42.8047ZM952.714 61.7908H951.984V62.521H952.714V61.7908ZM952.714 58.1396V57.4094H951.984V58.1396H952.714ZM963.668 58.1396H964.398V57.4094H963.668V58.1396ZM963.668 61.7908V62.521H964.398V61.7908H963.668ZM963.668 58.1396H962.938V58.8698H963.668V58.1396ZM963.668 54.4884V53.7582H962.938V54.4884H963.668ZM967.319 54.4884H968.049V53.7582H967.319V54.4884ZM967.319 58.1396V58.8698H968.049V58.1396H967.319ZM949.063 58.1396H948.333V58.8698H949.063V58.1396ZM949.063 43.535V42.8047H948.333V43.535H949.063ZM952.714 43.535H953.445V42.8047H952.714V43.535ZM952.714 58.1396V58.8698H953.445V58.1396H952.714ZM963.668 47.1861H962.938V47.9164H963.668V47.1861ZM963.668 43.535V42.8047H962.938V43.535H963.668ZM967.319 43.535H968.049V42.8047H967.319V43.535ZM967.319 47.1861V47.9164H968.049V47.1861H967.319ZM952.714 43.535H951.984V44.2652H952.714V43.535ZM952.714 39.8838V39.1536H951.984V39.8838H952.714ZM963.668 39.8838H964.398V39.1536H963.668V39.8838ZM963.668 43.535V44.2652H964.398V43.535H963.668ZM953.445 61.7908V58.1396H951.984V61.7908H953.445ZM952.714 58.8698H963.668V57.4094H952.714V58.8698ZM962.938 58.1396V61.7908H964.398V58.1396H962.938ZM963.668 61.0605H952.714V62.521H963.668V61.0605ZM964.398 58.1396V54.4884H962.938V58.1396H964.398ZM963.668 55.2187H967.319V53.7582H963.668V55.2187ZM966.589 54.4884V58.1396H968.049V54.4884H966.589ZM967.319 57.4094H963.668V58.8698H967.319V57.4094ZM949.794 58.1396V43.535H948.333V58.1396H949.794ZM949.063 44.2652H952.714V42.8047H949.063V44.2652ZM951.984 43.535V58.1396H953.445V43.535H951.984ZM952.714 57.4094H949.063V58.8698H952.714V57.4094ZM964.398 47.1861V43.535H962.938V47.1861H964.398ZM963.668 44.2652H967.319V42.8047H963.668V44.2652ZM966.589 43.535V47.1861H968.049V43.535H966.589ZM967.319 46.4559H963.668V47.9164H967.319V46.4559ZM953.445 43.535V39.8838H951.984V43.535H953.445ZM952.714 40.614H963.668V39.1536H952.714V40.614ZM962.938 39.8838V43.535H964.398V39.8838H962.938ZM963.668 42.8047H952.714V44.2652H963.668V42.8047ZM978.857 61.7908H978.127V62.521H978.857V61.7908ZM978.857 58.1396V57.4094H978.127V58.1396H978.857ZM989.81 58.1396H990.541V57.4094H989.81V58.1396ZM989.81 61.7908V62.521H990.541V61.7908H989.81ZM975.206 58.1396H974.475V58.8698H975.206V58.1396ZM975.206 43.535V42.8047H974.475V43.535H975.206ZM978.857 43.535H979.587V42.8047H978.857V43.535ZM978.857 58.1396V58.8698H979.587V58.1396H978.857ZM989.81 58.1396H989.08V58.8698H989.81V58.1396ZM989.81 43.535V42.8047H989.08V43.535H989.81ZM993.461 43.535H994.192V42.8047H993.461V43.535ZM993.461 58.1396V58.8698H994.192V58.1396H993.461ZM978.857 43.535H978.127V44.2652H978.857V43.535ZM978.857 39.8838V39.1536H978.127V39.8838H978.857ZM989.81 39.8838H990.541V39.1536H989.81V39.8838ZM989.81 43.535V44.2652H990.541V43.535H989.81ZM979.587 61.7908V58.1396H978.127V61.7908H979.587ZM978.857 58.8698H989.81V57.4094H978.857V58.8698ZM989.08 58.1396V61.7908H990.541V58.1396H989.08ZM989.81 61.0605H978.857V62.521H989.81V61.0605ZM975.936 58.1396V43.535H974.475V58.1396H975.936ZM975.206 44.2652H978.857V42.8047H975.206V44.2652ZM978.127 43.535V58.1396H979.587V43.535H978.127ZM978.857 57.4094H975.206V58.8698H978.857V57.4094ZM990.541 58.1396V43.535H989.08V58.1396H990.541ZM989.81 44.2652H993.461V42.8047H989.81V44.2652ZM992.731 43.535V58.1396H994.192V43.535H992.731ZM993.461 57.4094H989.81V58.8698H993.461V57.4094ZM979.587 43.535V39.8838H978.127V43.535H979.587ZM978.857 40.614H989.81V39.1536H978.857V40.614ZM989.08 39.8838V43.535H990.541V39.8838H989.08ZM989.81 42.8047H978.857V44.2652H989.81V42.8047ZM1015.95 47.1861H1015.22V47.9164H1015.95V47.1861ZM1015.95 43.535V42.8047H1015.22V43.535H1015.95ZM1019.6 43.535H1020.33V42.8047H1019.6V43.535ZM1019.6 47.1861V47.9164H1020.33V47.1861H1019.6ZM1001.35 61.7908H1000.62V62.521H1001.35V61.7908ZM1001.35 39.8838V39.1536H1000.62V39.8838H1001.35ZM1005 39.8838H1005.73V39.1536H1005V39.8838ZM1005 43.535H1004.27V44.2652H1005V43.535ZM1008.65 43.535H1009.38V42.8047H1008.65V43.535ZM1008.65 47.1861V47.9164H1009.38V47.1861H1008.65ZM1005 47.1861V46.4559H1004.27V47.1861H1005ZM1005 61.7908V62.521H1005.73V61.7908H1005ZM1008.65 43.535H1007.92V44.2652H1008.65V43.535ZM1008.65 39.8838V39.1536H1007.92V39.8838H1008.65ZM1015.95 39.8838H1016.68V39.1536H1015.95V39.8838ZM1015.95 43.535V44.2652H1016.68V43.535H1015.95ZM1016.68 47.1861V43.535H1015.22V47.1861H1016.68ZM1015.95 44.2652H1019.6V42.8047H1015.95V44.2652ZM1018.87 43.535V47.1861H1020.33V43.535H1018.87ZM1019.6 46.4559H1015.95V47.9164H1019.6V46.4559ZM1002.08 61.7908V39.8838H1000.62V61.7908H1002.08ZM1001.35 40.614H1005V39.1536H1001.35V40.614ZM1004.27 39.8838V43.535H1005.73V39.8838H1004.27ZM1005 44.2652H1008.65V42.8047H1005V44.2652ZM1007.92 43.535V47.1861H1009.38V43.535H1007.92ZM1008.65 46.4559H1005V47.9164H1008.65V46.4559ZM1004.27 47.1861V61.7908H1005.73V47.1861H1004.27ZM1005 61.0605H1001.35V62.521H1005V61.0605ZM1009.38 43.535V39.8838H1007.92V43.535H1009.38ZM1008.65 40.614H1015.95V39.1536H1008.65V40.614ZM1015.22 39.8838V43.535H1016.68V39.8838H1015.22ZM1015.95 42.8047H1008.65V44.2652H1015.95V42.8047ZM1031.14 61.7908H1030.41V62.521H1031.14V61.7908ZM1031.14 58.1396V57.4094H1030.41V58.1396H1031.14ZM1042.09 58.1396H1042.83V57.4094H1042.09V58.1396ZM1042.09 61.7908V62.521H1042.83V61.7908H1042.09ZM1042.09 58.1396H1041.36V58.8698H1042.09V58.1396ZM1042.09 54.4884V53.7582H1041.36V54.4884H1042.09ZM1045.75 54.4884H1046.48V53.7582H1045.75V54.4884ZM1045.75 58.1396V58.8698H1046.48V58.1396H1045.75ZM1027.49 58.1396H1026.76V58.8698H1027.49V58.1396ZM1027.49 43.535V42.8047H1026.76V43.535H1027.49ZM1031.14 43.535H1031.87V42.8047H1031.14V43.535ZM1031.14 47.1861H1030.41V47.9164H1031.14V47.1861ZM1042.09 47.1861V47.9164H1042.83V47.1861H1042.09ZM1042.09 43.535V42.8047H1041.36V43.535H1042.09ZM1045.75 43.535H1046.48V42.8047H1045.75V43.535ZM1045.75 50.8373V51.5675H1046.48V50.8373H1045.75ZM1031.14 50.8373V50.107H1030.41V50.8373H1031.14ZM1031.14 58.1396V58.8698H1031.87V58.1396H1031.14ZM1031.14 43.535H1030.41V44.2652H1031.14V43.535ZM1031.14 39.8838V39.1536H1030.41V39.8838H1031.14ZM1042.09 39.8838H1042.83V39.1536H1042.09V39.8838ZM1042.09 43.535V44.2652H1042.83V43.535H1042.09ZM1031.87 61.7908V58.1396H1030.41V61.7908H1031.87ZM1031.14 58.8698H1042.09V57.4094H1031.14V58.8698ZM1041.36 58.1396V61.7908H1042.83V58.1396H1041.36ZM1042.09 61.0605H1031.14V62.521H1042.09V61.0605ZM1042.83 58.1396V54.4884H1041.36V58.1396H1042.83ZM1042.09 55.2187H1045.75V53.7582H1042.09V55.2187ZM1045.02 54.4884V58.1396H1046.48V54.4884H1045.02ZM1045.75 57.4094H1042.09V58.8698H1045.75V57.4094ZM1028.22 58.1396V43.535H1026.76V58.1396H1028.22ZM1027.49 44.2652H1031.14V42.8047H1027.49V44.2652ZM1030.41 43.535V47.1861H1031.87V43.535H1030.41ZM1031.14 47.9164H1042.09V46.4559H1031.14V47.9164ZM1042.83 47.1861V43.535H1041.36V47.1861H1042.83ZM1042.09 44.2652H1045.75V42.8047H1042.09V44.2652ZM1045.02 43.535V50.8373H1046.48V43.535H1045.02ZM1045.75 50.107H1031.14V51.5675H1045.75V50.107ZM1030.41 50.8373V58.1396H1031.87V50.8373H1030.41ZM1031.14 57.4094H1027.49V58.8698H1031.14V57.4094ZM1031.87 43.535V39.8838H1030.41V43.535H1031.87ZM1031.14 40.614H1042.09V39.1536H1031.14V40.614ZM1041.36 39.8838V43.535H1042.83V39.8838H1041.36ZM1042.09 42.8047H1031.14V44.2652H1042.09V42.8047Z" fill="#252840" mask="url(#path-1-outside-1_6_1909)"/>
<rect x="1278" width="13" height="105" fill="#B9A597"/>
<rect x="1291" y="92" width="13.0001" height="1291" transform="rotate(90 1291 92)" fill="#B9A597"/>
</svg>
