<svg width="1291" height="103" viewBox="0 0 1291 103" fill="none" xmlns="http://www.w3.org/2000/svg">
<rect width="1291" height="103" fill="white"/>
<mask id="path-1-outside-1_6_1919" maskUnits="userSpaceOnUse" x="134" y="27.7908" width="487" height="35" fill="black">
<rect fill="white" x="134" y="27.7908" width="487" height="35"/>
<path d="M138.651 61.7908V50.8373H142.302V43.535H145.953V54.4884H142.302V61.7908H138.651ZM153.256 61.7908V54.4884H149.605V43.535H153.256V50.8373H156.907V61.7908H153.256ZM145.953 43.535V36.2326H149.605V43.535H145.953ZM135 50.8373V32.5815H138.651V50.8373H135ZM156.907 50.8373V32.5815H160.558V50.8373H156.907ZM164.793 58.1396V50.8373H168.445V58.1396H164.793ZM168.445 61.7908V58.1396H179.398V50.8373H168.445V47.1861H179.398V43.535H183.049V61.7908H168.445ZM168.445 43.535V39.8838H179.398V43.535H168.445ZM198.238 61.7908V58.1396H209.192V61.7908H198.238ZM194.587 58.1396V32.5815H198.238V39.8838H209.192V43.535H198.238V58.1396H194.587ZM220.729 61.7908V58.1396H231.683V61.7908H220.729ZM231.683 58.1396V54.4884H235.334V58.1396H231.683ZM217.078 58.1396V43.535H220.729V58.1396H217.078ZM231.683 47.1861V43.535H235.334V47.1861H231.683ZM220.729 43.535V39.8838H231.683V43.535H220.729ZM257.825 61.7908V43.535H261.476V61.7908H257.825ZM243.22 61.7908V28.9303H246.872V39.8838H257.825V43.535H246.872V61.7908H243.22ZM299.156 61.7908V58.1396H310.11V61.7908H299.156ZM295.505 58.1396V43.535H299.156V58.1396H295.505ZM310.11 58.1396V43.535H313.761V58.1396H310.11ZM299.156 43.535V39.8838H310.11V43.535H299.156ZM321.647 58.1396V39.8838H325.299V58.1396H321.647ZM325.299 61.7908V58.1396H336.252V39.8838H339.903V61.7908H325.299ZM355.092 61.7908V58.1396H366.046V61.7908H355.092ZM351.441 58.1396V32.5815H355.092V39.8838H366.046V43.535H355.092V58.1396H351.441ZM403.726 61.7908V43.535H400.074V39.8838H403.726V32.5815H407.377V39.8838H414.679V43.535H407.377V61.7908H403.726ZM407.377 32.5815V28.9303H418.33V32.5815H407.377ZM429.868 61.7908V58.1396H440.821V61.7908H429.868ZM426.217 58.1396V43.535H429.868V58.1396H426.217ZM440.821 58.1396V43.535H444.473V58.1396H440.821ZM429.868 43.535V39.8838H440.821V43.535H429.868ZM466.964 47.1861V43.535H470.615V47.1861H466.964ZM452.359 61.7908V39.8838H456.01V43.535H459.661V47.1861H456.01V61.7908H452.359ZM459.661 43.535V39.8838H466.964V43.535H459.661ZM508.295 61.7908V58.1396H519.248V61.7908H508.295ZM519.248 58.1396V54.4884H522.9V58.1396H519.248ZM504.644 58.1396V43.535H508.295V58.1396H504.644ZM519.248 47.1861V43.535H522.9V47.1861H519.248ZM508.295 43.535V39.8838H519.248V43.535H508.295ZM530.786 58.1396V50.8373H534.437V58.1396H530.786ZM534.437 61.7908V58.1396H545.391V50.8373H534.437V47.1861H545.391V43.535H549.042V61.7908H534.437ZM534.437 43.535V39.8838H545.391V43.535H534.437ZM560.58 61.7908V58.1396H571.533V61.7908H560.58ZM571.533 58.1396V54.4884H575.184V58.1396H571.533ZM556.928 58.1396V43.535H560.58V58.1396H556.928ZM571.533 47.1861V43.535H575.184V47.1861H571.533ZM560.58 43.535V39.8838H571.533V43.535H560.58ZM590.373 61.7908V58.1396H601.327V61.7908H590.373ZM586.722 58.1396V32.5815H590.373V39.8838H601.327V43.535H590.373V58.1396H586.722ZM616.515 61.7908V43.535H612.864V39.8838H620.167V61.7908H616.515ZM616.515 32.5815V28.9303H620.167V32.5815H616.515Z"/>
</mask>
<path d="M138.651 61.7908V50.8373H142.302V43.535H145.953V54.4884H142.302V61.7908H138.651ZM153.256 61.7908V54.4884H149.605V43.535H153.256V50.8373H156.907V61.7908H153.256ZM145.953 43.535V36.2326H149.605V43.535H145.953ZM135 50.8373V32.5815H138.651V50.8373H135ZM156.907 50.8373V32.5815H160.558V50.8373H156.907ZM164.793 58.1396V50.8373H168.445V58.1396H164.793ZM168.445 61.7908V58.1396H179.398V50.8373H168.445V47.1861H179.398V43.535H183.049V61.7908H168.445ZM168.445 43.535V39.8838H179.398V43.535H168.445ZM198.238 61.7908V58.1396H209.192V61.7908H198.238ZM194.587 58.1396V32.5815H198.238V39.8838H209.192V43.535H198.238V58.1396H194.587ZM220.729 61.7908V58.1396H231.683V61.7908H220.729ZM231.683 58.1396V54.4884H235.334V58.1396H231.683ZM217.078 58.1396V43.535H220.729V58.1396H217.078ZM231.683 47.1861V43.535H235.334V47.1861H231.683ZM220.729 43.535V39.8838H231.683V43.535H220.729ZM257.825 61.7908V43.535H261.476V61.7908H257.825ZM243.22 61.7908V28.9303H246.872V39.8838H257.825V43.535H246.872V61.7908H243.22ZM299.156 61.7908V58.1396H310.11V61.7908H299.156ZM295.505 58.1396V43.535H299.156V58.1396H295.505ZM310.11 58.1396V43.535H313.761V58.1396H310.11ZM299.156 43.535V39.8838H310.11V43.535H299.156ZM321.647 58.1396V39.8838H325.299V58.1396H321.647ZM325.299 61.7908V58.1396H336.252V39.8838H339.903V61.7908H325.299ZM355.092 61.7908V58.1396H366.046V61.7908H355.092ZM351.441 58.1396V32.5815H355.092V39.8838H366.046V43.535H355.092V58.1396H351.441ZM403.726 61.7908V43.535H400.074V39.8838H403.726V32.5815H407.377V39.8838H414.679V43.535H407.377V61.7908H403.726ZM407.377 32.5815V28.9303H418.33V32.5815H407.377ZM429.868 61.7908V58.1396H440.821V61.7908H429.868ZM426.217 58.1396V43.535H429.868V58.1396H426.217ZM440.821 58.1396V43.535H444.473V58.1396H440.821ZM429.868 43.535V39.8838H440.821V43.535H429.868ZM466.964 47.1861V43.535H470.615V47.1861H466.964ZM452.359 61.7908V39.8838H456.01V43.535H459.661V47.1861H456.01V61.7908H452.359ZM459.661 43.535V39.8838H466.964V43.535H459.661ZM508.295 61.7908V58.1396H519.248V61.7908H508.295ZM519.248 58.1396V54.4884H522.9V58.1396H519.248ZM504.644 58.1396V43.535H508.295V58.1396H504.644ZM519.248 47.1861V43.535H522.9V47.1861H519.248ZM508.295 43.535V39.8838H519.248V43.535H508.295ZM530.786 58.1396V50.8373H534.437V58.1396H530.786ZM534.437 61.7908V58.1396H545.391V50.8373H534.437V47.1861H545.391V43.535H549.042V61.7908H534.437ZM534.437 43.535V39.8838H545.391V43.535H534.437ZM560.58 61.7908V58.1396H571.533V61.7908H560.58ZM571.533 58.1396V54.4884H575.184V58.1396H571.533ZM556.928 58.1396V43.535H560.58V58.1396H556.928ZM571.533 47.1861V43.535H575.184V47.1861H571.533ZM560.58 43.535V39.8838H571.533V43.535H560.58ZM590.373 61.7908V58.1396H601.327V61.7908H590.373ZM586.722 58.1396V32.5815H590.373V39.8838H601.327V43.535H590.373V58.1396H586.722ZM616.515 61.7908V43.535H612.864V39.8838H620.167V61.7908H616.515ZM616.515 32.5815V28.9303H620.167V32.5815H616.515Z" fill="#252840"/>
<path d="M138.651 61.7908H137.921V62.521H138.651V61.7908ZM138.651 50.8373V50.107H137.921V50.8373H138.651ZM142.302 50.8373V51.5675H143.033V50.8373H142.302ZM142.302 43.535V42.8047H141.572V43.535H142.302ZM145.953 43.535H146.684V42.8047H145.953V43.535ZM145.953 54.4884V55.2187H146.684V54.4884H145.953ZM142.302 54.4884V53.7582H141.572V54.4884H142.302ZM142.302 61.7908V62.521H143.033V61.7908H142.302ZM153.256 61.7908H152.526V62.521H153.256V61.7908ZM153.256 54.4884H153.986V53.7582H153.256V54.4884ZM149.605 54.4884H148.874V55.2187H149.605V54.4884ZM149.605 43.535V42.8047H148.874V43.535H149.605ZM153.256 43.535H153.986V42.8047H153.256V43.535ZM153.256 50.8373H152.526V51.5675H153.256V50.8373ZM156.907 50.8373H157.637V50.107H156.907V50.8373ZM156.907 61.7908V62.521H157.637V61.7908H156.907ZM145.953 43.535H145.223V44.2652H145.953V43.535ZM145.953 36.2326V35.5024H145.223V36.2326H145.953ZM149.605 36.2326H150.335V35.5024H149.605V36.2326ZM149.605 43.535V44.2652H150.335V43.535H149.605ZM135 50.8373H134.27V51.5675H135V50.8373ZM135 32.5815V31.8512H134.27V32.5815H135ZM138.651 32.5815H139.381V31.8512H138.651V32.5815ZM138.651 50.8373V51.5675H139.381V50.8373H138.651ZM156.907 50.8373H156.177V51.5675H156.907V50.8373ZM156.907 32.5815V31.8512H156.177V32.5815H156.907ZM160.558 32.5815H161.288V31.8512H160.558V32.5815ZM160.558 50.8373V51.5675H161.288V50.8373H160.558ZM139.381 61.7908V50.8373H137.921V61.7908H139.381ZM138.651 51.5675H142.302V50.107H138.651V51.5675ZM143.033 50.8373V43.535H141.572V50.8373H143.033ZM142.302 44.2652H145.953V42.8047H142.302V44.2652ZM145.223 43.535V54.4884H146.684V43.535H145.223ZM145.953 53.7582H142.302V55.2187H145.953V53.7582ZM141.572 54.4884V61.7908H143.033V54.4884H141.572ZM142.302 61.0605H138.651V62.521H142.302V61.0605ZM153.986 61.7908V54.4884H152.526V61.7908H153.986ZM153.256 53.7582H149.605V55.2187H153.256V53.7582ZM150.335 54.4884V43.535H148.874V54.4884H150.335ZM149.605 44.2652H153.256V42.8047H149.605V44.2652ZM152.526 43.535V50.8373H153.986V43.535H152.526ZM153.256 51.5675H156.907V50.107H153.256V51.5675ZM156.177 50.8373V61.7908H157.637V50.8373H156.177ZM156.907 61.0605H153.256V62.521H156.907V61.0605ZM146.684 43.535V36.2326H145.223V43.535H146.684ZM145.953 36.9629H149.605V35.5024H145.953V36.9629ZM148.874 36.2326V43.535H150.335V36.2326H148.874ZM149.605 42.8047H145.953V44.2652H149.605V42.8047ZM135.73 50.8373V32.5815H134.27V50.8373H135.73ZM135 33.3117H138.651V31.8512H135V33.3117ZM137.921 32.5815V50.8373H139.381V32.5815H137.921ZM138.651 50.107H135V51.5675H138.651V50.107ZM157.637 50.8373V32.5815H156.177V50.8373H157.637ZM156.907 33.3117H160.558V31.8512H156.907V33.3117ZM159.828 32.5815V50.8373H161.288V32.5815H159.828ZM160.558 50.107H156.907V51.5675H160.558V50.107ZM164.793 58.1396H164.063V58.8698H164.793V58.1396ZM164.793 50.8373V50.107H164.063V50.8373H164.793ZM168.445 50.8373H169.175V50.107H168.445V50.8373ZM168.445 58.1396V58.8698H169.175V58.1396H168.445ZM168.445 61.7908H167.714V62.521H168.445V61.7908ZM168.445 58.1396V57.4094H167.714V58.1396H168.445ZM179.398 58.1396V58.8698H180.128V58.1396H179.398ZM179.398 50.8373H180.128V50.107H179.398V50.8373ZM168.445 50.8373H167.714V51.5675H168.445V50.8373ZM168.445 47.1861V46.4559H167.714V47.1861H168.445ZM179.398 47.1861V47.9164H180.128V47.1861H179.398ZM179.398 43.535V42.8047H178.668V43.535H179.398ZM183.049 43.535H183.78V42.8047H183.049V43.535ZM183.049 61.7908V62.521H183.78V61.7908H183.049ZM168.445 43.535H167.714V44.2652H168.445V43.535ZM168.445 39.8838V39.1536H167.714V39.8838H168.445ZM179.398 39.8838H180.128V39.1536H179.398V39.8838ZM179.398 43.535V44.2652H180.128V43.535H179.398ZM165.524 58.1396V50.8373H164.063V58.1396H165.524ZM164.793 51.5675H168.445V50.107H164.793V51.5675ZM167.714 50.8373V58.1396H169.175V50.8373H167.714ZM168.445 57.4094H164.793V58.8698H168.445V57.4094ZM169.175 61.7908V58.1396H167.714V61.7908H169.175ZM168.445 58.8698H179.398V57.4094H168.445V58.8698ZM180.128 58.1396V50.8373H178.668V58.1396H180.128ZM179.398 50.107H168.445V51.5675H179.398V50.107ZM169.175 50.8373V47.1861H167.714V50.8373H169.175ZM168.445 47.9164H179.398V46.4559H168.445V47.9164ZM180.128 47.1861V43.535H178.668V47.1861H180.128ZM179.398 44.2652H183.049V42.8047H179.398V44.2652ZM182.319 43.535V61.7908H183.78V43.535H182.319ZM183.049 61.0605H168.445V62.521H183.049V61.0605ZM169.175 43.535V39.8838H167.714V43.535H169.175ZM168.445 40.614H179.398V39.1536H168.445V40.614ZM178.668 39.8838V43.535H180.128V39.8838H178.668ZM179.398 42.8047H168.445V44.2652H179.398V42.8047ZM198.238 61.7908H197.508V62.521H198.238V61.7908ZM198.238 58.1396V57.4094H197.508V58.1396H198.238ZM209.192 58.1396H209.922V57.4094H209.192V58.1396ZM209.192 61.7908V62.521H209.922V61.7908H209.192ZM194.587 58.1396H193.857V58.8698H194.587V58.1396ZM194.587 32.5815V31.8512H193.857V32.5815H194.587ZM198.238 32.5815H198.968V31.8512H198.238V32.5815ZM198.238 39.8838H197.508V40.614H198.238V39.8838ZM209.192 39.8838H209.922V39.1536H209.192V39.8838ZM209.192 43.535V44.2652H209.922V43.535H209.192ZM198.238 43.535V42.8047H197.508V43.535H198.238ZM198.238 58.1396V58.8698H198.968V58.1396H198.238ZM198.968 61.7908V58.1396H197.508V61.7908H198.968ZM198.238 58.8698H209.192V57.4094H198.238V58.8698ZM208.461 58.1396V61.7908H209.922V58.1396H208.461ZM209.192 61.0605H198.238V62.521H209.192V61.0605ZM195.317 58.1396V32.5815H193.857V58.1396H195.317ZM194.587 33.3117H198.238V31.8512H194.587V33.3117ZM197.508 32.5815V39.8838H198.968V32.5815H197.508ZM198.238 40.614H209.192V39.1536H198.238V40.614ZM208.461 39.8838V43.535H209.922V39.8838H208.461ZM209.192 42.8047H198.238V44.2652H209.192V42.8047ZM197.508 43.535V58.1396H198.968V43.535H197.508ZM198.238 57.4094H194.587V58.8698H198.238V57.4094ZM220.729 61.7908H219.999V62.521H220.729V61.7908ZM220.729 58.1396V57.4094H219.999V58.1396H220.729ZM231.683 58.1396H232.413V57.4094H231.683V58.1396ZM231.683 61.7908V62.521H232.413V61.7908H231.683ZM231.683 58.1396H230.953V58.8698H231.683V58.1396ZM231.683 54.4884V53.7582H230.953V54.4884H231.683ZM235.334 54.4884H236.064V53.7582H235.334V54.4884ZM235.334 58.1396V58.8698H236.064V58.1396H235.334ZM217.078 58.1396H216.348V58.8698H217.078V58.1396ZM217.078 43.535V42.8047H216.348V43.535H217.078ZM220.729 43.535H221.46V42.8047H220.729V43.535ZM220.729 58.1396V58.8698H221.46V58.1396H220.729ZM231.683 47.1861H230.953V47.9164H231.683V47.1861ZM231.683 43.535V42.8047H230.953V43.535H231.683ZM235.334 43.535H236.064V42.8047H235.334V43.535ZM235.334 47.1861V47.9164H236.064V47.1861H235.334ZM220.729 43.535H219.999V44.2652H220.729V43.535ZM220.729 39.8838V39.1536H219.999V39.8838H220.729ZM231.683 39.8838H232.413V39.1536H231.683V39.8838ZM231.683 43.535V44.2652H232.413V43.535H231.683ZM221.46 61.7908V58.1396H219.999V61.7908H221.46ZM220.729 58.8698H231.683V57.4094H220.729V58.8698ZM230.953 58.1396V61.7908H232.413V58.1396H230.953ZM231.683 61.0605H220.729V62.521H231.683V61.0605ZM232.413 58.1396V54.4884H230.953V58.1396H232.413ZM231.683 55.2187H235.334V53.7582H231.683V55.2187ZM234.604 54.4884V58.1396H236.064V54.4884H234.604ZM235.334 57.4094H231.683V58.8698H235.334V57.4094ZM217.808 58.1396V43.535H216.348V58.1396H217.808ZM217.078 44.2652H220.729V42.8047H217.078V44.2652ZM219.999 43.535V58.1396H221.46V43.535H219.999ZM220.729 57.4094H217.078V58.8698H220.729V57.4094ZM232.413 47.1861V43.535H230.953V47.1861H232.413ZM231.683 44.2652H235.334V42.8047H231.683V44.2652ZM234.604 43.535V47.1861H236.064V43.535H234.604ZM235.334 46.4559H231.683V47.9164H235.334V46.4559ZM221.46 43.535V39.8838H219.999V43.535H221.46ZM220.729 40.614H231.683V39.1536H220.729V40.614ZM230.953 39.8838V43.535H232.413V39.8838H230.953ZM231.683 42.8047H220.729V44.2652H231.683V42.8047ZM257.825 61.7908H257.095V62.521H257.825V61.7908ZM257.825 43.535V42.8047H257.095V43.535H257.825ZM261.476 43.535H262.207V42.8047H261.476V43.535ZM261.476 61.7908V62.521H262.207V61.7908H261.476ZM243.22 61.7908H242.49V62.521H243.22V61.7908ZM243.22 28.9303V28.2001H242.49V28.9303H243.22ZM246.872 28.9303H247.602V28.2001H246.872V28.9303ZM246.872 39.8838H246.141V40.614H246.872V39.8838ZM257.825 39.8838H258.555V39.1536H257.825V39.8838ZM257.825 43.535V44.2652H258.555V43.535H257.825ZM246.872 43.535V42.8047H246.141V43.535H246.872ZM246.872 61.7908V62.521H247.602V61.7908H246.872ZM258.555 61.7908V43.535H257.095V61.7908H258.555ZM257.825 44.2652H261.476V42.8047H257.825V44.2652ZM260.746 43.535V61.7908H262.207V43.535H260.746ZM261.476 61.0605H257.825V62.521H261.476V61.0605ZM243.951 61.7908V28.9303H242.49V61.7908H243.951ZM243.22 29.6605H246.872V28.2001H243.22V29.6605ZM246.141 28.9303V39.8838H247.602V28.9303H246.141ZM246.872 40.614H257.825V39.1536H246.872V40.614ZM257.095 39.8838V43.535H258.555V39.8838H257.095ZM257.825 42.8047H246.872V44.2652H257.825V42.8047ZM246.141 43.535V61.7908H247.602V43.535H246.141ZM246.872 61.0605H243.22V62.521H246.872V61.0605ZM299.156 61.7908H298.426V62.521H299.156V61.7908ZM299.156 58.1396V57.4094H298.426V58.1396H299.156ZM310.11 58.1396H310.84V57.4094H310.11V58.1396ZM310.11 61.7908V62.521H310.84V61.7908H310.11ZM295.505 58.1396H294.775V58.8698H295.505V58.1396ZM295.505 43.535V42.8047H294.775V43.535H295.505ZM299.156 43.535H299.887V42.8047H299.156V43.535ZM299.156 58.1396V58.8698H299.887V58.1396H299.156ZM310.11 58.1396H309.38V58.8698H310.11V58.1396ZM310.11 43.535V42.8047H309.38V43.535H310.11ZM313.761 43.535H314.491V42.8047H313.761V43.535ZM313.761 58.1396V58.8698H314.491V58.1396H313.761ZM299.156 43.535H298.426V44.2652H299.156V43.535ZM299.156 39.8838V39.1536H298.426V39.8838H299.156ZM310.11 39.8838H310.84V39.1536H310.11V39.8838ZM310.11 43.535V44.2652H310.84V43.535H310.11ZM299.887 61.7908V58.1396H298.426V61.7908H299.887ZM299.156 58.8698H310.11V57.4094H299.156V58.8698ZM309.38 58.1396V61.7908H310.84V58.1396H309.38ZM310.11 61.0605H299.156V62.521H310.11V61.0605ZM296.235 58.1396V43.535H294.775V58.1396H296.235ZM295.505 44.2652H299.156V42.8047H295.505V44.2652ZM298.426 43.535V58.1396H299.887V43.535H298.426ZM299.156 57.4094H295.505V58.8698H299.156V57.4094ZM310.84 58.1396V43.535H309.38V58.1396H310.84ZM310.11 44.2652H313.761V42.8047H310.11V44.2652ZM313.031 43.535V58.1396H314.491V43.535H313.031ZM313.761 57.4094H310.11V58.8698H313.761V57.4094ZM299.887 43.535V39.8838H298.426V43.535H299.887ZM299.156 40.614H310.11V39.1536H299.156V40.614ZM309.38 39.8838V43.535H310.84V39.8838H309.38ZM310.11 42.8047H299.156V44.2652H310.11V42.8047ZM321.647 58.1396H320.917V58.8698H321.647V58.1396ZM321.647 39.8838V39.1536H320.917V39.8838H321.647ZM325.299 39.8838H326.029V39.1536H325.299V39.8838ZM325.299 58.1396V58.8698H326.029V58.1396H325.299ZM325.299 61.7908H324.568V62.521H325.299V61.7908ZM325.299 58.1396V57.4094H324.568V58.1396H325.299ZM336.252 58.1396V58.8698H336.982V58.1396H336.252ZM336.252 39.8838V39.1536H335.522V39.8838H336.252ZM339.903 39.8838H340.633V39.1536H339.903V39.8838ZM339.903 61.7908V62.521H340.633V61.7908H339.903ZM322.378 58.1396V39.8838H320.917V58.1396H322.378ZM321.647 40.614H325.299V39.1536H321.647V40.614ZM324.568 39.8838V58.1396H326.029V39.8838H324.568ZM325.299 57.4094H321.647V58.8698H325.299V57.4094ZM326.029 61.7908V58.1396H324.568V61.7908H326.029ZM325.299 58.8698H336.252V57.4094H325.299V58.8698ZM336.982 58.1396V39.8838H335.522V58.1396H336.982ZM336.252 40.614H339.903V39.1536H336.252V40.614ZM339.173 39.8838V61.7908H340.633V39.8838H339.173ZM339.903 61.0605H325.299V62.521H339.903V61.0605ZM355.092 61.7908H354.362V62.521H355.092V61.7908ZM355.092 58.1396V57.4094H354.362V58.1396H355.092ZM366.046 58.1396H366.776V57.4094H366.046V58.1396ZM366.046 61.7908V62.521H366.776V61.7908H366.046ZM351.441 58.1396H350.711V58.8698H351.441V58.1396ZM351.441 32.5815V31.8512H350.711V32.5815H351.441ZM355.092 32.5815H355.822V31.8512H355.092V32.5815ZM355.092 39.8838H354.362V40.614H355.092V39.8838ZM366.046 39.8838H366.776V39.1536H366.046V39.8838ZM366.046 43.535V44.2652H366.776V43.535H366.046ZM355.092 43.535V42.8047H354.362V43.535H355.092ZM355.092 58.1396V58.8698H355.822V58.1396H355.092ZM355.822 61.7908V58.1396H354.362V61.7908H355.822ZM355.092 58.8698H366.046V57.4094H355.092V58.8698ZM365.315 58.1396V61.7908H366.776V58.1396H365.315ZM366.046 61.0605H355.092V62.521H366.046V61.0605ZM352.171 58.1396V32.5815H350.711V58.1396H352.171ZM351.441 33.3117H355.092V31.8512H351.441V33.3117ZM354.362 32.5815V39.8838H355.822V32.5815H354.362ZM355.092 40.614H366.046V39.1536H355.092V40.614ZM365.315 39.8838V43.535H366.776V39.8838H365.315ZM366.046 42.8047H355.092V44.2652H366.046V42.8047ZM354.362 43.535V58.1396H355.822V43.535H354.362ZM355.092 57.4094H351.441V58.8698H355.092V57.4094ZM403.726 61.7908H402.995V62.521H403.726V61.7908ZM403.726 43.535H404.456V42.8047H403.726V43.535ZM400.074 43.535H399.344V44.2652H400.074V43.535ZM400.074 39.8838V39.1536H399.344V39.8838H400.074ZM403.726 39.8838V40.614H404.456V39.8838H403.726ZM403.726 32.5815V31.8512H402.995V32.5815H403.726ZM407.377 32.5815H408.107V31.8512H407.377V32.5815ZM407.377 39.8838H406.647V40.614H407.377V39.8838ZM414.679 39.8838H415.409V39.1536H414.679V39.8838ZM414.679 43.535V44.2652H415.409V43.535H414.679ZM407.377 43.535V42.8047H406.647V43.535H407.377ZM407.377 61.7908V62.521H408.107V61.7908H407.377ZM407.377 32.5815H406.647V33.3117H407.377V32.5815ZM407.377 28.9303V28.2001H406.647V28.9303H407.377ZM418.33 28.9303H419.06V28.2001H418.33V28.9303ZM418.33 32.5815V33.3117H419.06V32.5815H418.33ZM404.456 61.7908V43.535H402.995V61.7908H404.456ZM403.726 42.8047H400.074V44.2652H403.726V42.8047ZM400.805 43.535V39.8838H399.344V43.535H400.805ZM400.074 40.614H403.726V39.1536H400.074V40.614ZM404.456 39.8838V32.5815H402.995V39.8838H404.456ZM403.726 33.3117H407.377V31.8512H403.726V33.3117ZM406.647 32.5815V39.8838H408.107V32.5815H406.647ZM407.377 40.614H414.679V39.1536H407.377V40.614ZM413.949 39.8838V43.535H415.409V39.8838H413.949ZM414.679 42.8047H407.377V44.2652H414.679V42.8047ZM406.647 43.535V61.7908H408.107V43.535H406.647ZM407.377 61.0605H403.726V62.521H407.377V61.0605ZM408.107 32.5815V28.9303H406.647V32.5815H408.107ZM407.377 29.6605H418.33V28.2001H407.377V29.6605ZM417.6 28.9303V32.5815H419.06V28.9303H417.6ZM418.33 31.8512H407.377V33.3117H418.33V31.8512ZM429.868 61.7908H429.138V62.521H429.868V61.7908ZM429.868 58.1396V57.4094H429.138V58.1396H429.868ZM440.821 58.1396H441.552V57.4094H440.821V58.1396ZM440.821 61.7908V62.521H441.552V61.7908H440.821ZM426.217 58.1396H425.487V58.8698H426.217V58.1396ZM426.217 43.535V42.8047H425.487V43.535H426.217ZM429.868 43.535H430.598V42.8047H429.868V43.535ZM429.868 58.1396V58.8698H430.598V58.1396H429.868ZM440.821 58.1396H440.091V58.8698H440.821V58.1396ZM440.821 43.535V42.8047H440.091V43.535H440.821ZM444.473 43.535H445.203V42.8047H444.473V43.535ZM444.473 58.1396V58.8698H445.203V58.1396H444.473ZM429.868 43.535H429.138V44.2652H429.868V43.535ZM429.868 39.8838V39.1536H429.138V39.8838H429.868ZM440.821 39.8838H441.552V39.1536H440.821V39.8838ZM440.821 43.535V44.2652H441.552V43.535H440.821ZM430.598 61.7908V58.1396H429.138V61.7908H430.598ZM429.868 58.8698H440.821V57.4094H429.868V58.8698ZM440.091 58.1396V61.7908H441.552V58.1396H440.091ZM440.821 61.0605H429.868V62.521H440.821V61.0605ZM426.947 58.1396V43.535H425.487V58.1396H426.947ZM426.217 44.2652H429.868V42.8047H426.217V44.2652ZM429.138 43.535V58.1396H430.598V43.535H429.138ZM429.868 57.4094H426.217V58.8698H429.868V57.4094ZM441.552 58.1396V43.535H440.091V58.1396H441.552ZM440.821 44.2652H444.473V42.8047H440.821V44.2652ZM443.742 43.535V58.1396H445.203V43.535H443.742ZM444.473 57.4094H440.821V58.8698H444.473V57.4094ZM430.598 43.535V39.8838H429.138V43.535H430.598ZM429.868 40.614H440.821V39.1536H429.868V40.614ZM440.091 39.8838V43.535H441.552V39.8838H440.091ZM440.821 42.8047H429.868V44.2652H440.821V42.8047ZM466.964 47.1861H466.234V47.9164H466.964V47.1861ZM466.964 43.535V42.8047H466.234V43.535H466.964ZM470.615 43.535H471.345V42.8047H470.615V43.535ZM470.615 47.1861V47.9164H471.345V47.1861H470.615ZM452.359 61.7908H451.629V62.521H452.359V61.7908ZM452.359 39.8838V39.1536H451.629V39.8838H452.359ZM456.01 39.8838H456.741V39.1536H456.01V39.8838ZM456.01 43.535H455.28V44.2652H456.01V43.535ZM459.661 43.535H460.392V42.8047H459.661V43.535ZM459.661 47.1861V47.9164H460.392V47.1861H459.661ZM456.01 47.1861V46.4559H455.28V47.1861H456.01ZM456.01 61.7908V62.521H456.741V61.7908H456.01ZM459.661 43.535H458.931V44.2652H459.661V43.535ZM459.661 39.8838V39.1536H458.931V39.8838H459.661ZM466.964 39.8838H467.694V39.1536H466.964V39.8838ZM466.964 43.535V44.2652H467.694V43.535H466.964ZM467.694 47.1861V43.535H466.234V47.1861H467.694ZM466.964 44.2652H470.615V42.8047H466.964V44.2652ZM469.885 43.535V47.1861H471.345V43.535H469.885ZM470.615 46.4559H466.964V47.9164H470.615V46.4559ZM453.089 61.7908V39.8838H451.629V61.7908H453.089ZM452.359 40.614H456.01V39.1536H452.359V40.614ZM455.28 39.8838V43.535H456.741V39.8838H455.28ZM456.01 44.2652H459.661V42.8047H456.01V44.2652ZM458.931 43.535V47.1861H460.392V43.535H458.931ZM459.661 46.4559H456.01V47.9164H459.661V46.4559ZM455.28 47.1861V61.7908H456.741V47.1861H455.28ZM456.01 61.0605H452.359V62.521H456.01V61.0605ZM460.392 43.535V39.8838H458.931V43.535H460.392ZM459.661 40.614H466.964V39.1536H459.661V40.614ZM466.234 39.8838V43.535H467.694V39.8838H466.234ZM466.964 42.8047H459.661V44.2652H466.964V42.8047ZM508.295 61.7908H507.565V62.521H508.295V61.7908ZM508.295 58.1396V57.4094H507.565V58.1396H508.295ZM519.248 58.1396H519.979V57.4094H519.248V58.1396ZM519.248 61.7908V62.521H519.979V61.7908H519.248ZM519.248 58.1396H518.518V58.8698H519.248V58.1396ZM519.248 54.4884V53.7582H518.518V54.4884H519.248ZM522.9 54.4884H523.63V53.7582H522.9V54.4884ZM522.9 58.1396V58.8698H523.63V58.1396H522.9ZM504.644 58.1396H503.914V58.8698H504.644V58.1396ZM504.644 43.535V42.8047H503.914V43.535H504.644ZM508.295 43.535H509.025V42.8047H508.295V43.535ZM508.295 58.1396V58.8698H509.025V58.1396H508.295ZM519.248 47.1861H518.518V47.9164H519.248V47.1861ZM519.248 43.535V42.8047H518.518V43.535H519.248ZM522.9 43.535H523.63V42.8047H522.9V43.535ZM522.9 47.1861V47.9164H523.63V47.1861H522.9ZM508.295 43.535H507.565V44.2652H508.295V43.535ZM508.295 39.8838V39.1536H507.565V39.8838H508.295ZM519.248 39.8838H519.979V39.1536H519.248V39.8838ZM519.248 43.535V44.2652H519.979V43.535H519.248ZM509.025 61.7908V58.1396H507.565V61.7908H509.025ZM508.295 58.8698H519.248V57.4094H508.295V58.8698ZM518.518 58.1396V61.7908H519.979V58.1396H518.518ZM519.248 61.0605H508.295V62.521H519.248V61.0605ZM519.979 58.1396V54.4884H518.518V58.1396H519.979ZM519.248 55.2187H522.9V53.7582H519.248V55.2187ZM522.169 54.4884V58.1396H523.63V54.4884H522.169ZM522.9 57.4094H519.248V58.8698H522.9V57.4094ZM505.374 58.1396V43.535H503.914V58.1396H505.374ZM504.644 44.2652H508.295V42.8047H504.644V44.2652ZM507.565 43.535V58.1396H509.025V43.535H507.565ZM508.295 57.4094H504.644V58.8698H508.295V57.4094ZM519.979 47.1861V43.535H518.518V47.1861H519.979ZM519.248 44.2652H522.9V42.8047H519.248V44.2652ZM522.169 43.535V47.1861H523.63V43.535H522.169ZM522.9 46.4559H519.248V47.9164H522.9V46.4559ZM509.025 43.535V39.8838H507.565V43.535H509.025ZM508.295 40.614H519.248V39.1536H508.295V40.614ZM518.518 39.8838V43.535H519.979V39.8838H518.518ZM519.248 42.8047H508.295V44.2652H519.248V42.8047ZM530.786 58.1396H530.056V58.8698H530.786V58.1396ZM530.786 50.8373V50.107H530.056V50.8373H530.786ZM534.437 50.8373H535.167V50.107H534.437V50.8373ZM534.437 58.1396V58.8698H535.167V58.1396H534.437ZM534.437 61.7908H533.707V62.521H534.437V61.7908ZM534.437 58.1396V57.4094H533.707V58.1396H534.437ZM545.391 58.1396V58.8698H546.121V58.1396H545.391ZM545.391 50.8373H546.121V50.107H545.391V50.8373ZM534.437 50.8373H533.707V51.5675H534.437V50.8373ZM534.437 47.1861V46.4559H533.707V47.1861H534.437ZM545.391 47.1861V47.9164H546.121V47.1861H545.391ZM545.391 43.535V42.8047H544.66V43.535H545.391ZM549.042 43.535H549.772V42.8047H549.042V43.535ZM549.042 61.7908V62.521H549.772V61.7908H549.042ZM534.437 43.535H533.707V44.2652H534.437V43.535ZM534.437 39.8838V39.1536H533.707V39.8838H534.437ZM545.391 39.8838H546.121V39.1536H545.391V39.8838ZM545.391 43.535V44.2652H546.121V43.535H545.391ZM531.516 58.1396V50.8373H530.056V58.1396H531.516ZM530.786 51.5675H534.437V50.107H530.786V51.5675ZM533.707 50.8373V58.1396H535.167V50.8373H533.707ZM534.437 57.4094H530.786V58.8698H534.437V57.4094ZM535.167 61.7908V58.1396H533.707V61.7908H535.167ZM534.437 58.8698H545.391V57.4094H534.437V58.8698ZM546.121 58.1396V50.8373H544.66V58.1396H546.121ZM545.391 50.107H534.437V51.5675H545.391V50.107ZM535.167 50.8373V47.1861H533.707V50.8373H535.167ZM534.437 47.9164H545.391V46.4559H534.437V47.9164ZM546.121 47.1861V43.535H544.66V47.1861H546.121ZM545.391 44.2652H549.042V42.8047H545.391V44.2652ZM548.312 43.535V61.7908H549.772V43.535H548.312ZM549.042 61.0605H534.437V62.521H549.042V61.0605ZM535.167 43.535V39.8838H533.707V43.535H535.167ZM534.437 40.614H545.391V39.1536H534.437V40.614ZM544.66 39.8838V43.535H546.121V39.8838H544.66ZM545.391 42.8047H534.437V44.2652H545.391V42.8047ZM560.58 61.7908H559.849V62.521H560.58V61.7908ZM560.58 58.1396V57.4094H559.849V58.1396H560.58ZM571.533 58.1396H572.263V57.4094H571.533V58.1396ZM571.533 61.7908V62.521H572.263V61.7908H571.533ZM571.533 58.1396H570.803V58.8698H571.533V58.1396ZM571.533 54.4884V53.7582H570.803V54.4884H571.533ZM575.184 54.4884H575.914V53.7582H575.184V54.4884ZM575.184 58.1396V58.8698H575.914V58.1396H575.184ZM556.928 58.1396H556.198V58.8698H556.928V58.1396ZM556.928 43.535V42.8047H556.198V43.535H556.928ZM560.58 43.535H561.31V42.8047H560.58V43.535ZM560.58 58.1396V58.8698H561.31V58.1396H560.58ZM571.533 47.1861H570.803V47.9164H571.533V47.1861ZM571.533 43.535V42.8047H570.803V43.535H571.533ZM575.184 43.535H575.914V42.8047H575.184V43.535ZM575.184 47.1861V47.9164H575.914V47.1861H575.184ZM560.58 43.535H559.849V44.2652H560.58V43.535ZM560.58 39.8838V39.1536H559.849V39.8838H560.58ZM571.533 39.8838H572.263V39.1536H571.533V39.8838ZM571.533 43.535V44.2652H572.263V43.535H571.533ZM561.31 61.7908V58.1396H559.849V61.7908H561.31ZM560.58 58.8698H571.533V57.4094H560.58V58.8698ZM570.803 58.1396V61.7908H572.263V58.1396H570.803ZM571.533 61.0605H560.58V62.521H571.533V61.0605ZM572.263 58.1396V54.4884H570.803V58.1396H572.263ZM571.533 55.2187H575.184V53.7582H571.533V55.2187ZM574.454 54.4884V58.1396H575.914V54.4884H574.454ZM575.184 57.4094H571.533V58.8698H575.184V57.4094ZM557.659 58.1396V43.535H556.198V58.1396H557.659ZM556.928 44.2652H560.58V42.8047H556.928V44.2652ZM559.849 43.535V58.1396H561.31V43.535H559.849ZM560.58 57.4094H556.928V58.8698H560.58V57.4094ZM572.263 47.1861V43.535H570.803V47.1861H572.263ZM571.533 44.2652H575.184V42.8047H571.533V44.2652ZM574.454 43.535V47.1861H575.914V43.535H574.454ZM575.184 46.4559H571.533V47.9164H575.184V46.4559ZM561.31 43.535V39.8838H559.849V43.535H561.31ZM560.58 40.614H571.533V39.1536H560.58V40.614ZM570.803 39.8838V43.535H572.263V39.8838H570.803ZM571.533 42.8047H560.58V44.2652H571.533V42.8047ZM590.373 61.7908H589.643V62.521H590.373V61.7908ZM590.373 58.1396V57.4094H589.643V58.1396H590.373ZM601.327 58.1396H602.057V57.4094H601.327V58.1396ZM601.327 61.7908V62.521H602.057V61.7908H601.327ZM586.722 58.1396H585.992V58.8698H586.722V58.1396ZM586.722 32.5815V31.8512H585.992V32.5815H586.722ZM590.373 32.5815H591.103V31.8512H590.373V32.5815ZM590.373 39.8838H589.643V40.614H590.373V39.8838ZM601.327 39.8838H602.057V39.1536H601.327V39.8838ZM601.327 43.535V44.2652H602.057V43.535H601.327ZM590.373 43.535V42.8047H589.643V43.535H590.373ZM590.373 58.1396V58.8698H591.103V58.1396H590.373ZM591.103 61.7908V58.1396H589.643V61.7908H591.103ZM590.373 58.8698H601.327V57.4094H590.373V58.8698ZM600.596 58.1396V61.7908H602.057V58.1396H600.596ZM601.327 61.0605H590.373V62.521H601.327V61.0605ZM587.452 58.1396V32.5815H585.992V58.1396H587.452ZM586.722 33.3117H590.373V31.8512H586.722V33.3117ZM589.643 32.5815V39.8838H591.103V32.5815H589.643ZM590.373 40.614H601.327V39.1536H590.373V40.614ZM600.596 39.8838V43.535H602.057V39.8838H600.596ZM601.327 42.8047H590.373V44.2652H601.327V42.8047ZM589.643 43.535V58.1396H591.103V43.535H589.643ZM590.373 57.4094H586.722V58.8698H590.373V57.4094ZM616.515 61.7908H615.785V62.521H616.515V61.7908ZM616.515 43.535H617.246V42.8047H616.515V43.535ZM612.864 43.535H612.134V44.2652H612.864V43.535ZM612.864 39.8838V39.1536H612.134V39.8838H612.864ZM620.167 39.8838H620.897V39.1536H620.167V39.8838ZM620.167 61.7908V62.521H620.897V61.7908H620.167ZM616.515 32.5815H615.785V33.3117H616.515V32.5815ZM616.515 28.9303V28.2001H615.785V28.9303H616.515ZM620.167 28.9303H620.897V28.2001H620.167V28.9303ZM620.167 32.5815V33.3117H620.897V32.5815H620.167ZM617.246 61.7908V43.535H615.785V61.7908H617.246ZM616.515 42.8047H612.864V44.2652H616.515V42.8047ZM613.594 43.535V39.8838H612.134V43.535H613.594ZM612.864 40.614H620.167V39.1536H612.864V40.614ZM619.436 39.8838V61.7908H620.897V39.8838H619.436ZM620.167 61.0605H616.515V62.521H620.167V61.0605ZM617.246 32.5815V28.9303H615.785V32.5815H617.246ZM616.515 29.6605H620.167V28.2001H616.515V29.6605ZM619.436 28.9303V32.5815H620.897V28.9303H619.436ZM620.167 31.8512H616.515V33.3117H620.167V31.8512Z" fill="#252840" mask="url(#path-1-outside-1_6_1919)"/>
<rect x="1278" width="13" height="103" fill="#B9A597"/>
<rect x="1291" y="90" width="13.0001" height="1291" transform="rotate(90 1291 90)" fill="#B9A597"/>
</svg>
