<svg width="1246" height="105" viewBox="0 0 1246 105" fill="none" xmlns="http://www.w3.org/2000/svg">
<rect width="1244" height="103" transform="translate(2 2)" fill="white"/>
<mask id="path-1-outside-1_6_1919" maskUnits="userSpaceOnUse" x="89" y="29.7908" width="487" height="35" fill="black">
<rect fill="white" x="89" y="29.7908" width="487" height="35"/>
<path d="M93.6512 63.7908V52.8373H97.3023V45.535H100.953V56.4884H97.3023V63.7908H93.6512ZM108.256 63.7908V56.4884H104.605V45.535H108.256V52.8373H111.907V63.7908H108.256ZM100.953 45.535V38.2326H104.605V45.535H100.953ZM90 52.8373V34.5815H93.6512V52.8373H90ZM111.907 52.8373V34.5815H115.558V52.8373H111.907ZM119.793 60.1396V52.8373H123.445V60.1396H119.793ZM123.445 63.7908V60.1396H134.398V52.8373H123.445V49.1861H134.398V45.535H138.049V63.7908H123.445ZM123.445 45.535V41.8838H134.398V45.535H123.445ZM153.238 63.7908V60.1396H164.192V63.7908H153.238ZM149.587 60.1396V34.5815H153.238V41.8838H164.192V45.535H153.238V60.1396H149.587ZM175.729 63.7908V60.1396H186.683V63.7908H175.729ZM186.683 60.1396V56.4884H190.334V60.1396H186.683ZM172.078 60.1396V45.535H175.729V60.1396H172.078ZM186.683 49.1861V45.535H190.334V49.1861H186.683ZM175.729 45.535V41.8838H186.683V45.535H175.729ZM212.825 63.7908V45.535H216.476V63.7908H212.825ZM198.22 63.7908V30.9303H201.872V41.8838H212.825V45.535H201.872V63.7908H198.22ZM254.156 63.7908V60.1396H265.11V63.7908H254.156ZM250.505 60.1396V45.535H254.156V60.1396H250.505ZM265.11 60.1396V45.535H268.761V60.1396H265.11ZM254.156 45.535V41.8838H265.11V45.535H254.156ZM276.647 60.1396V41.8838H280.299V60.1396H276.647ZM280.299 63.7908V60.1396H291.252V41.8838H294.903V63.7908H280.299ZM310.092 63.7908V60.1396H321.046V63.7908H310.092ZM306.441 60.1396V34.5815H310.092V41.8838H321.046V45.535H310.092V60.1396H306.441ZM358.726 63.7908V45.535H355.074V41.8838H358.726V34.5815H362.377V41.8838H369.679V45.535H362.377V63.7908H358.726ZM362.377 34.5815V30.9303H373.33V34.5815H362.377ZM384.868 63.7908V60.1396H395.821V63.7908H384.868ZM381.217 60.1396V45.535H384.868V60.1396H381.217ZM395.821 60.1396V45.535H399.473V60.1396H395.821ZM384.868 45.535V41.8838H395.821V45.535H384.868ZM421.964 49.1861V45.535H425.615V49.1861H421.964ZM407.359 63.7908V41.8838H411.01V45.535H414.661V49.1861H411.01V63.7908H407.359ZM414.661 45.535V41.8838H421.964V45.535H414.661ZM463.295 63.7908V60.1396H474.248V63.7908H463.295ZM474.248 60.1396V56.4884H477.9V60.1396H474.248ZM459.644 60.1396V45.535H463.295V60.1396H459.644ZM474.248 49.1861V45.535H477.9V49.1861H474.248ZM463.295 45.535V41.8838H474.248V45.535H463.295ZM485.786 60.1396V52.8373H489.437V60.1396H485.786ZM489.437 63.7908V60.1396H500.391V52.8373H489.437V49.1861H500.391V45.535H504.042V63.7908H489.437ZM489.437 45.535V41.8838H500.391V45.535H489.437ZM515.58 63.7908V60.1396H526.533V63.7908H515.58ZM526.533 60.1396V56.4884H530.184V60.1396H526.533ZM511.928 60.1396V45.535H515.58V60.1396H511.928ZM526.533 49.1861V45.535H530.184V49.1861H526.533ZM515.58 45.535V41.8838H526.533V45.535H515.58ZM545.373 63.7908V60.1396H556.327V63.7908H545.373ZM541.722 60.1396V34.5815H545.373V41.8838H556.327V45.535H545.373V60.1396H541.722ZM571.515 63.7908V45.535H567.864V41.8838H575.167V63.7908H571.515ZM571.515 34.5815V30.9303H575.167V34.5815H571.515Z"/>
</mask>
<path d="M93.6512 63.7908V52.8373H97.3023V45.535H100.953V56.4884H97.3023V63.7908H93.6512ZM108.256 63.7908V56.4884H104.605V45.535H108.256V52.8373H111.907V63.7908H108.256ZM100.953 45.535V38.2326H104.605V45.535H100.953ZM90 52.8373V34.5815H93.6512V52.8373H90ZM111.907 52.8373V34.5815H115.558V52.8373H111.907ZM119.793 60.1396V52.8373H123.445V60.1396H119.793ZM123.445 63.7908V60.1396H134.398V52.8373H123.445V49.1861H134.398V45.535H138.049V63.7908H123.445ZM123.445 45.535V41.8838H134.398V45.535H123.445ZM153.238 63.7908V60.1396H164.192V63.7908H153.238ZM149.587 60.1396V34.5815H153.238V41.8838H164.192V45.535H153.238V60.1396H149.587ZM175.729 63.7908V60.1396H186.683V63.7908H175.729ZM186.683 60.1396V56.4884H190.334V60.1396H186.683ZM172.078 60.1396V45.535H175.729V60.1396H172.078ZM186.683 49.1861V45.535H190.334V49.1861H186.683ZM175.729 45.535V41.8838H186.683V45.535H175.729ZM212.825 63.7908V45.535H216.476V63.7908H212.825ZM198.22 63.7908V30.9303H201.872V41.8838H212.825V45.535H201.872V63.7908H198.22ZM254.156 63.7908V60.1396H265.11V63.7908H254.156ZM250.505 60.1396V45.535H254.156V60.1396H250.505ZM265.11 60.1396V45.535H268.761V60.1396H265.11ZM254.156 45.535V41.8838H265.11V45.535H254.156ZM276.647 60.1396V41.8838H280.299V60.1396H276.647ZM280.299 63.7908V60.1396H291.252V41.8838H294.903V63.7908H280.299ZM310.092 63.7908V60.1396H321.046V63.7908H310.092ZM306.441 60.1396V34.5815H310.092V41.8838H321.046V45.535H310.092V60.1396H306.441ZM358.726 63.7908V45.535H355.074V41.8838H358.726V34.5815H362.377V41.8838H369.679V45.535H362.377V63.7908H358.726ZM362.377 34.5815V30.9303H373.33V34.5815H362.377ZM384.868 63.7908V60.1396H395.821V63.7908H384.868ZM381.217 60.1396V45.535H384.868V60.1396H381.217ZM395.821 60.1396V45.535H399.473V60.1396H395.821ZM384.868 45.535V41.8838H395.821V45.535H384.868ZM421.964 49.1861V45.535H425.615V49.1861H421.964ZM407.359 63.7908V41.8838H411.01V45.535H414.661V49.1861H411.01V63.7908H407.359ZM414.661 45.535V41.8838H421.964V45.535H414.661ZM463.295 63.7908V60.1396H474.248V63.7908H463.295ZM474.248 60.1396V56.4884H477.9V60.1396H474.248ZM459.644 60.1396V45.535H463.295V60.1396H459.644ZM474.248 49.1861V45.535H477.9V49.1861H474.248ZM463.295 45.535V41.8838H474.248V45.535H463.295ZM485.786 60.1396V52.8373H489.437V60.1396H485.786ZM489.437 63.7908V60.1396H500.391V52.8373H489.437V49.1861H500.391V45.535H504.042V63.7908H489.437ZM489.437 45.535V41.8838H500.391V45.535H489.437ZM515.58 63.7908V60.1396H526.533V63.7908H515.58ZM526.533 60.1396V56.4884H530.184V60.1396H526.533ZM511.928 60.1396V45.535H515.58V60.1396H511.928ZM526.533 49.1861V45.535H530.184V49.1861H526.533ZM515.58 45.535V41.8838H526.533V45.535H515.58ZM545.373 63.7908V60.1396H556.327V63.7908H545.373ZM541.722 60.1396V34.5815H545.373V41.8838H556.327V45.535H545.373V60.1396H541.722ZM571.515 63.7908V45.535H567.864V41.8838H575.167V63.7908H571.515ZM571.515 34.5815V30.9303H575.167V34.5815H571.515Z" fill="#252840"/>
<path d="M93.6512 63.7908H92.9209V64.521H93.6512V63.7908ZM93.6512 52.8373V52.107H92.9209V52.8373H93.6512ZM97.3023 52.8373V53.5675H98.0326V52.8373H97.3023ZM97.3023 45.535V44.8047H96.5721V45.535H97.3023ZM100.953 45.535H101.684V44.8047H100.953V45.535ZM100.953 56.4884V57.2187H101.684V56.4884H100.953ZM97.3023 56.4884V55.7582H96.5721V56.4884H97.3023ZM97.3023 63.7908V64.521H98.0326V63.7908H97.3023ZM108.256 63.7908H107.526V64.521H108.256V63.7908ZM108.256 56.4884H108.986V55.7582H108.256V56.4884ZM104.605 56.4884H103.874V57.2187H104.605V56.4884ZM104.605 45.535V44.8047H103.874V45.535H104.605ZM108.256 45.535H108.986V44.8047H108.256V45.535ZM108.256 52.8373H107.526V53.5675H108.256V52.8373ZM111.907 52.8373H112.637V52.107H111.907V52.8373ZM111.907 63.7908V64.521H112.637V63.7908H111.907ZM100.953 45.535H100.223V46.2652H100.953V45.535ZM100.953 38.2326V37.5024H100.223V38.2326H100.953ZM104.605 38.2326H105.335V37.5024H104.605V38.2326ZM104.605 45.535V46.2652H105.335V45.535H104.605ZM90 52.8373H89.2698V53.5675H90V52.8373ZM90 34.5815V33.8512H89.2698V34.5815H90ZM93.6512 34.5815H94.3814V33.8512H93.6512V34.5815ZM93.6512 52.8373V53.5675H94.3814V52.8373H93.6512ZM111.907 52.8373H111.177V53.5675H111.907V52.8373ZM111.907 34.5815V33.8512H111.177V34.5815H111.907ZM115.558 34.5815H116.288V33.8512H115.558V34.5815ZM115.558 52.8373V53.5675H116.288V52.8373H115.558ZM94.3814 63.7908V52.8373H92.9209V63.7908H94.3814ZM93.6512 53.5675H97.3023V52.107H93.6512V53.5675ZM98.0326 52.8373V45.535H96.5721V52.8373H98.0326ZM97.3023 46.2652H100.953V44.8047H97.3023V46.2652ZM100.223 45.535V56.4884H101.684V45.535H100.223ZM100.953 55.7582H97.3023V57.2187H100.953V55.7582ZM96.5721 56.4884V63.7908H98.0326V56.4884H96.5721ZM97.3023 63.0605H93.6512V64.521H97.3023V63.0605ZM108.986 63.7908V56.4884H107.526V63.7908H108.986ZM108.256 55.7582H104.605V57.2187H108.256V55.7582ZM105.335 56.4884V45.535H103.874V56.4884H105.335ZM104.605 46.2652H108.256V44.8047H104.605V46.2652ZM107.526 45.535V52.8373H108.986V45.535H107.526ZM108.256 53.5675H111.907V52.107H108.256V53.5675ZM111.177 52.8373V63.7908H112.637V52.8373H111.177ZM111.907 63.0605H108.256V64.521H111.907V63.0605ZM101.684 45.535V38.2326H100.223V45.535H101.684ZM100.953 38.9629H104.605V37.5024H100.953V38.9629ZM103.874 38.2326V45.535H105.335V38.2326H103.874ZM104.605 44.8047H100.953V46.2652H104.605V44.8047ZM90.7302 52.8373V34.5815H89.2698V52.8373H90.7302ZM90 35.3117H93.6512V33.8512H90V35.3117ZM92.9209 34.5815V52.8373H94.3814V34.5815H92.9209ZM93.6512 52.107H90V53.5675H93.6512V52.107ZM112.637 52.8373V34.5815H111.177V52.8373H112.637ZM111.907 35.3117H115.558V33.8512H111.907V35.3117ZM114.828 34.5815V52.8373H116.288V34.5815H114.828ZM115.558 52.107H111.907V53.5675H115.558V52.107ZM119.793 60.1396H119.063V60.8698H119.793V60.1396ZM119.793 52.8373V52.107H119.063V52.8373H119.793ZM123.445 52.8373H124.175V52.107H123.445V52.8373ZM123.445 60.1396V60.8698H124.175V60.1396H123.445ZM123.445 63.7908H122.714V64.521H123.445V63.7908ZM123.445 60.1396V59.4094H122.714V60.1396H123.445ZM134.398 60.1396V60.8698H135.128V60.1396H134.398ZM134.398 52.8373H135.128V52.107H134.398V52.8373ZM123.445 52.8373H122.714V53.5675H123.445V52.8373ZM123.445 49.1861V48.4559H122.714V49.1861H123.445ZM134.398 49.1861V49.9164H135.128V49.1861H134.398ZM134.398 45.535V44.8047H133.668V45.535H134.398ZM138.049 45.535H138.78V44.8047H138.049V45.535ZM138.049 63.7908V64.521H138.78V63.7908H138.049ZM123.445 45.535H122.714V46.2652H123.445V45.535ZM123.445 41.8838V41.1536H122.714V41.8838H123.445ZM134.398 41.8838H135.128V41.1536H134.398V41.8838ZM134.398 45.535V46.2652H135.128V45.535H134.398ZM120.524 60.1396V52.8373H119.063V60.1396H120.524ZM119.793 53.5675H123.445V52.107H119.793V53.5675ZM122.714 52.8373V60.1396H124.175V52.8373H122.714ZM123.445 59.4094H119.793V60.8698H123.445V59.4094ZM124.175 63.7908V60.1396H122.714V63.7908H124.175ZM123.445 60.8698H134.398V59.4094H123.445V60.8698ZM135.128 60.1396V52.8373H133.668V60.1396H135.128ZM134.398 52.107H123.445V53.5675H134.398V52.107ZM124.175 52.8373V49.1861H122.714V52.8373H124.175ZM123.445 49.9164H134.398V48.4559H123.445V49.9164ZM135.128 49.1861V45.535H133.668V49.1861H135.128ZM134.398 46.2652H138.049V44.8047H134.398V46.2652ZM137.319 45.535V63.7908H138.78V45.535H137.319ZM138.049 63.0605H123.445V64.521H138.049V63.0605ZM124.175 45.535V41.8838H122.714V45.535H124.175ZM123.445 42.614H134.398V41.1536H123.445V42.614ZM133.668 41.8838V45.535H135.128V41.8838H133.668ZM134.398 44.8047H123.445V46.2652H134.398V44.8047ZM153.238 63.7908H152.508V64.521H153.238V63.7908ZM153.238 60.1396V59.4094H152.508V60.1396H153.238ZM164.192 60.1396H164.922V59.4094H164.192V60.1396ZM164.192 63.7908V64.521H164.922V63.7908H164.192ZM149.587 60.1396H148.857V60.8698H149.587V60.1396ZM149.587 34.5815V33.8512H148.857V34.5815H149.587ZM153.238 34.5815H153.968V33.8512H153.238V34.5815ZM153.238 41.8838H152.508V42.614H153.238V41.8838ZM164.192 41.8838H164.922V41.1536H164.192V41.8838ZM164.192 45.535V46.2652H164.922V45.535H164.192ZM153.238 45.535V44.8047H152.508V45.535H153.238ZM153.238 60.1396V60.8698H153.968V60.1396H153.238ZM153.968 63.7908V60.1396H152.508V63.7908H153.968ZM153.238 60.8698H164.192V59.4094H153.238V60.8698ZM163.461 60.1396V63.7908H164.922V60.1396H163.461ZM164.192 63.0605H153.238V64.521H164.192V63.0605ZM150.317 60.1396V34.5815H148.857V60.1396H150.317ZM149.587 35.3117H153.238V33.8512H149.587V35.3117ZM152.508 34.5815V41.8838H153.968V34.5815H152.508ZM153.238 42.614H164.192V41.1536H153.238V42.614ZM163.461 41.8838V45.535H164.922V41.8838H163.461ZM164.192 44.8047H153.238V46.2652H164.192V44.8047ZM152.508 45.535V60.1396H153.968V45.535H152.508ZM153.238 59.4094H149.587V60.8698H153.238V59.4094ZM175.729 63.7908H174.999V64.521H175.729V63.7908ZM175.729 60.1396V59.4094H174.999V60.1396H175.729ZM186.683 60.1396H187.413V59.4094H186.683V60.1396ZM186.683 63.7908V64.521H187.413V63.7908H186.683ZM186.683 60.1396H185.953V60.8698H186.683V60.1396ZM186.683 56.4884V55.7582H185.953V56.4884H186.683ZM190.334 56.4884H191.064V55.7582H190.334V56.4884ZM190.334 60.1396V60.8698H191.064V60.1396H190.334ZM172.078 60.1396H171.348V60.8698H172.078V60.1396ZM172.078 45.535V44.8047H171.348V45.535H172.078ZM175.729 45.535H176.46V44.8047H175.729V45.535ZM175.729 60.1396V60.8698H176.46V60.1396H175.729ZM186.683 49.1861H185.953V49.9164H186.683V49.1861ZM186.683 45.535V44.8047H185.953V45.535H186.683ZM190.334 45.535H191.064V44.8047H190.334V45.535ZM190.334 49.1861V49.9164H191.064V49.1861H190.334ZM175.729 45.535H174.999V46.2652H175.729V45.535ZM175.729 41.8838V41.1536H174.999V41.8838H175.729ZM186.683 41.8838H187.413V41.1536H186.683V41.8838ZM186.683 45.535V46.2652H187.413V45.535H186.683ZM176.46 63.7908V60.1396H174.999V63.7908H176.46ZM175.729 60.8698H186.683V59.4094H175.729V60.8698ZM185.953 60.1396V63.7908H187.413V60.1396H185.953ZM186.683 63.0605H175.729V64.521H186.683V63.0605ZM187.413 60.1396V56.4884H185.953V60.1396H187.413ZM186.683 57.2187H190.334V55.7582H186.683V57.2187ZM189.604 56.4884V60.1396H191.064V56.4884H189.604ZM190.334 59.4094H186.683V60.8698H190.334V59.4094ZM172.808 60.1396V45.535H171.348V60.1396H172.808ZM172.078 46.2652H175.729V44.8047H172.078V46.2652ZM174.999 45.535V60.1396H176.46V45.535H174.999ZM175.729 59.4094H172.078V60.8698H175.729V59.4094ZM187.413 49.1861V45.535H185.953V49.1861H187.413ZM186.683 46.2652H190.334V44.8047H186.683V46.2652ZM189.604 45.535V49.1861H191.064V45.535H189.604ZM190.334 48.4559H186.683V49.9164H190.334V48.4559ZM176.46 45.535V41.8838H174.999V45.535H176.46ZM175.729 42.614H186.683V41.1536H175.729V42.614ZM185.953 41.8838V45.535H187.413V41.8838H185.953ZM186.683 44.8047H175.729V46.2652H186.683V44.8047ZM212.825 63.7908H212.095V64.521H212.825V63.7908ZM212.825 45.535V44.8047H212.095V45.535H212.825ZM216.476 45.535H217.207V44.8047H216.476V45.535ZM216.476 63.7908V64.521H217.207V63.7908H216.476ZM198.22 63.7908H197.49V64.521H198.22V63.7908ZM198.22 30.9303V30.2001H197.49V30.9303H198.22ZM201.872 30.9303H202.602V30.2001H201.872V30.9303ZM201.872 41.8838H201.141V42.614H201.872V41.8838ZM212.825 41.8838H213.555V41.1536H212.825V41.8838ZM212.825 45.535V46.2652H213.555V45.535H212.825ZM201.872 45.535V44.8047H201.141V45.535H201.872ZM201.872 63.7908V64.521H202.602V63.7908H201.872ZM213.555 63.7908V45.535H212.095V63.7908H213.555ZM212.825 46.2652H216.476V44.8047H212.825V46.2652ZM215.746 45.535V63.7908H217.207V45.535H215.746ZM216.476 63.0605H212.825V64.521H216.476V63.0605ZM198.951 63.7908V30.9303H197.49V63.7908H198.951ZM198.22 31.6605H201.872V30.2001H198.22V31.6605ZM201.141 30.9303V41.8838H202.602V30.9303H201.141ZM201.872 42.614H212.825V41.1536H201.872V42.614ZM212.095 41.8838V45.535H213.555V41.8838H212.095ZM212.825 44.8047H201.872V46.2652H212.825V44.8047ZM201.141 45.535V63.7908H202.602V45.535H201.141ZM201.872 63.0605H198.22V64.521H201.872V63.0605ZM254.156 63.7908H253.426V64.521H254.156V63.7908ZM254.156 60.1396V59.4094H253.426V60.1396H254.156ZM265.11 60.1396H265.84V59.4094H265.11V60.1396ZM265.11 63.7908V64.521H265.84V63.7908H265.11ZM250.505 60.1396H249.775V60.8698H250.505V60.1396ZM250.505 45.535V44.8047H249.775V45.535H250.505ZM254.156 45.535H254.887V44.8047H254.156V45.535ZM254.156 60.1396V60.8698H254.887V60.1396H254.156ZM265.11 60.1396H264.38V60.8698H265.11V60.1396ZM265.11 45.535V44.8047H264.38V45.535H265.11ZM268.761 45.535H269.491V44.8047H268.761V45.535ZM268.761 60.1396V60.8698H269.491V60.1396H268.761ZM254.156 45.535H253.426V46.2652H254.156V45.535ZM254.156 41.8838V41.1536H253.426V41.8838H254.156ZM265.11 41.8838H265.84V41.1536H265.11V41.8838ZM265.11 45.535V46.2652H265.84V45.535H265.11ZM254.887 63.7908V60.1396H253.426V63.7908H254.887ZM254.156 60.8698H265.11V59.4094H254.156V60.8698ZM264.38 60.1396V63.7908H265.84V60.1396H264.38ZM265.11 63.0605H254.156V64.521H265.11V63.0605ZM251.235 60.1396V45.535H249.775V60.1396H251.235ZM250.505 46.2652H254.156V44.8047H250.505V46.2652ZM253.426 45.535V60.1396H254.887V45.535H253.426ZM254.156 59.4094H250.505V60.8698H254.156V59.4094ZM265.84 60.1396V45.535H264.38V60.1396H265.84ZM265.11 46.2652H268.761V44.8047H265.11V46.2652ZM268.031 45.535V60.1396H269.491V45.535H268.031ZM268.761 59.4094H265.11V60.8698H268.761V59.4094ZM254.887 45.535V41.8838H253.426V45.535H254.887ZM254.156 42.614H265.11V41.1536H254.156V42.614ZM264.38 41.8838V45.535H265.84V41.8838H264.38ZM265.11 44.8047H254.156V46.2652H265.11V44.8047ZM276.647 60.1396H275.917V60.8698H276.647V60.1396ZM276.647 41.8838V41.1536H275.917V41.8838H276.647ZM280.299 41.8838H281.029V41.1536H280.299V41.8838ZM280.299 60.1396V60.8698H281.029V60.1396H280.299ZM280.299 63.7908H279.568V64.521H280.299V63.7908ZM280.299 60.1396V59.4094H279.568V60.1396H280.299ZM291.252 60.1396V60.8698H291.982V60.1396H291.252ZM291.252 41.8838V41.1536H290.522V41.8838H291.252ZM294.903 41.8838H295.633V41.1536H294.903V41.8838ZM294.903 63.7908V64.521H295.633V63.7908H294.903ZM277.378 60.1396V41.8838H275.917V60.1396H277.378ZM276.647 42.614H280.299V41.1536H276.647V42.614ZM279.568 41.8838V60.1396H281.029V41.8838H279.568ZM280.299 59.4094H276.647V60.8698H280.299V59.4094ZM281.029 63.7908V60.1396H279.568V63.7908H281.029ZM280.299 60.8698H291.252V59.4094H280.299V60.8698ZM291.982 60.1396V41.8838H290.522V60.1396H291.982ZM291.252 42.614H294.903V41.1536H291.252V42.614ZM294.173 41.8838V63.7908H295.633V41.8838H294.173ZM294.903 63.0605H280.299V64.521H294.903V63.0605ZM310.092 63.7908H309.362V64.521H310.092V63.7908ZM310.092 60.1396V59.4094H309.362V60.1396H310.092ZM321.046 60.1396H321.776V59.4094H321.046V60.1396ZM321.046 63.7908V64.521H321.776V63.7908H321.046ZM306.441 60.1396H305.711V60.8698H306.441V60.1396ZM306.441 34.5815V33.8512H305.711V34.5815H306.441ZM310.092 34.5815H310.822V33.8512H310.092V34.5815ZM310.092 41.8838H309.362V42.614H310.092V41.8838ZM321.046 41.8838H321.776V41.1536H321.046V41.8838ZM321.046 45.535V46.2652H321.776V45.535H321.046ZM310.092 45.535V44.8047H309.362V45.535H310.092ZM310.092 60.1396V60.8698H310.822V60.1396H310.092ZM310.822 63.7908V60.1396H309.362V63.7908H310.822ZM310.092 60.8698H321.046V59.4094H310.092V60.8698ZM320.315 60.1396V63.7908H321.776V60.1396H320.315ZM321.046 63.0605H310.092V64.521H321.046V63.0605ZM307.171 60.1396V34.5815H305.711V60.1396H307.171ZM306.441 35.3117H310.092V33.8512H306.441V35.3117ZM309.362 34.5815V41.8838H310.822V34.5815H309.362ZM310.092 42.614H321.046V41.1536H310.092V42.614ZM320.315 41.8838V45.535H321.776V41.8838H320.315ZM321.046 44.8047H310.092V46.2652H321.046V44.8047ZM309.362 45.535V60.1396H310.822V45.535H309.362ZM310.092 59.4094H306.441V60.8698H310.092V59.4094ZM358.726 63.7908H357.995V64.521H358.726V63.7908ZM358.726 45.535H359.456V44.8047H358.726V45.535ZM355.074 45.535H354.344V46.2652H355.074V45.535ZM355.074 41.8838V41.1536H354.344V41.8838H355.074ZM358.726 41.8838V42.614H359.456V41.8838H358.726ZM358.726 34.5815V33.8512H357.995V34.5815H358.726ZM362.377 34.5815H363.107V33.8512H362.377V34.5815ZM362.377 41.8838H361.647V42.614H362.377V41.8838ZM369.679 41.8838H370.409V41.1536H369.679V41.8838ZM369.679 45.535V46.2652H370.409V45.535H369.679ZM362.377 45.535V44.8047H361.647V45.535H362.377ZM362.377 63.7908V64.521H363.107V63.7908H362.377ZM362.377 34.5815H361.647V35.3117H362.377V34.5815ZM362.377 30.9303V30.2001H361.647V30.9303H362.377ZM373.33 30.9303H374.06V30.2001H373.33V30.9303ZM373.33 34.5815V35.3117H374.06V34.5815H373.33ZM359.456 63.7908V45.535H357.995V63.7908H359.456ZM358.726 44.8047H355.074V46.2652H358.726V44.8047ZM355.805 45.535V41.8838H354.344V45.535H355.805ZM355.074 42.614H358.726V41.1536H355.074V42.614ZM359.456 41.8838V34.5815H357.995V41.8838H359.456ZM358.726 35.3117H362.377V33.8512H358.726V35.3117ZM361.647 34.5815V41.8838H363.107V34.5815H361.647ZM362.377 42.614H369.679V41.1536H362.377V42.614ZM368.949 41.8838V45.535H370.409V41.8838H368.949ZM369.679 44.8047H362.377V46.2652H369.679V44.8047ZM361.647 45.535V63.7908H363.107V45.535H361.647ZM362.377 63.0605H358.726V64.521H362.377V63.0605ZM363.107 34.5815V30.9303H361.647V34.5815H363.107ZM362.377 31.6605H373.33V30.2001H362.377V31.6605ZM372.6 30.9303V34.5815H374.06V30.9303H372.6ZM373.33 33.8512H362.377V35.3117H373.33V33.8512ZM384.868 63.7908H384.138V64.521H384.868V63.7908ZM384.868 60.1396V59.4094H384.138V60.1396H384.868ZM395.821 60.1396H396.552V59.4094H395.821V60.1396ZM395.821 63.7908V64.521H396.552V63.7908H395.821ZM381.217 60.1396H380.487V60.8698H381.217V60.1396ZM381.217 45.535V44.8047H380.487V45.535H381.217ZM384.868 45.535H385.598V44.8047H384.868V45.535ZM384.868 60.1396V60.8698H385.598V60.1396H384.868ZM395.821 60.1396H395.091V60.8698H395.821V60.1396ZM395.821 45.535V44.8047H395.091V45.535H395.821ZM399.473 45.535H400.203V44.8047H399.473V45.535ZM399.473 60.1396V60.8698H400.203V60.1396H399.473ZM384.868 45.535H384.138V46.2652H384.868V45.535ZM384.868 41.8838V41.1536H384.138V41.8838H384.868ZM395.821 41.8838H396.552V41.1536H395.821V41.8838ZM395.821 45.535V46.2652H396.552V45.535H395.821ZM385.598 63.7908V60.1396H384.138V63.7908H385.598ZM384.868 60.8698H395.821V59.4094H384.868V60.8698ZM395.091 60.1396V63.7908H396.552V60.1396H395.091ZM395.821 63.0605H384.868V64.521H395.821V63.0605ZM381.947 60.1396V45.535H380.487V60.1396H381.947ZM381.217 46.2652H384.868V44.8047H381.217V46.2652ZM384.138 45.535V60.1396H385.598V45.535H384.138ZM384.868 59.4094H381.217V60.8698H384.868V59.4094ZM396.552 60.1396V45.535H395.091V60.1396H396.552ZM395.821 46.2652H399.473V44.8047H395.821V46.2652ZM398.742 45.535V60.1396H400.203V45.535H398.742ZM399.473 59.4094H395.821V60.8698H399.473V59.4094ZM385.598 45.535V41.8838H384.138V45.535H385.598ZM384.868 42.614H395.821V41.1536H384.868V42.614ZM395.091 41.8838V45.535H396.552V41.8838H395.091ZM395.821 44.8047H384.868V46.2652H395.821V44.8047ZM421.964 49.1861H421.234V49.9164H421.964V49.1861ZM421.964 45.535V44.8047H421.234V45.535H421.964ZM425.615 45.535H426.345V44.8047H425.615V45.535ZM425.615 49.1861V49.9164H426.345V49.1861H425.615ZM407.359 63.7908H406.629V64.521H407.359V63.7908ZM407.359 41.8838V41.1536H406.629V41.8838H407.359ZM411.01 41.8838H411.741V41.1536H411.01V41.8838ZM411.01 45.535H410.28V46.2652H411.01V45.535ZM414.661 45.535H415.392V44.8047H414.661V45.535ZM414.661 49.1861V49.9164H415.392V49.1861H414.661ZM411.01 49.1861V48.4559H410.28V49.1861H411.01ZM411.01 63.7908V64.521H411.741V63.7908H411.01ZM414.661 45.535H413.931V46.2652H414.661V45.535ZM414.661 41.8838V41.1536H413.931V41.8838H414.661ZM421.964 41.8838H422.694V41.1536H421.964V41.8838ZM421.964 45.535V46.2652H422.694V45.535H421.964ZM422.694 49.1861V45.535H421.234V49.1861H422.694ZM421.964 46.2652H425.615V44.8047H421.964V46.2652ZM424.885 45.535V49.1861H426.345V45.535H424.885ZM425.615 48.4559H421.964V49.9164H425.615V48.4559ZM408.089 63.7908V41.8838H406.629V63.7908H408.089ZM407.359 42.614H411.01V41.1536H407.359V42.614ZM410.28 41.8838V45.535H411.741V41.8838H410.28ZM411.01 46.2652H414.661V44.8047H411.01V46.2652ZM413.931 45.535V49.1861H415.392V45.535H413.931ZM414.661 48.4559H411.01V49.9164H414.661V48.4559ZM410.28 49.1861V63.7908H411.741V49.1861H410.28ZM411.01 63.0605H407.359V64.521H411.01V63.0605ZM415.392 45.535V41.8838H413.931V45.535H415.392ZM414.661 42.614H421.964V41.1536H414.661V42.614ZM421.234 41.8838V45.535H422.694V41.8838H421.234ZM421.964 44.8047H414.661V46.2652H421.964V44.8047ZM463.295 63.7908H462.565V64.521H463.295V63.7908ZM463.295 60.1396V59.4094H462.565V60.1396H463.295ZM474.248 60.1396H474.979V59.4094H474.248V60.1396ZM474.248 63.7908V64.521H474.979V63.7908H474.248ZM474.248 60.1396H473.518V60.8698H474.248V60.1396ZM474.248 56.4884V55.7582H473.518V56.4884H474.248ZM477.9 56.4884H478.63V55.7582H477.9V56.4884ZM477.9 60.1396V60.8698H478.63V60.1396H477.9ZM459.644 60.1396H458.914V60.8698H459.644V60.1396ZM459.644 45.535V44.8047H458.914V45.535H459.644ZM463.295 45.535H464.025V44.8047H463.295V45.535ZM463.295 60.1396V60.8698H464.025V60.1396H463.295ZM474.248 49.1861H473.518V49.9164H474.248V49.1861ZM474.248 45.535V44.8047H473.518V45.535H474.248ZM477.9 45.535H478.63V44.8047H477.9V45.535ZM477.9 49.1861V49.9164H478.63V49.1861H477.9ZM463.295 45.535H462.565V46.2652H463.295V45.535ZM463.295 41.8838V41.1536H462.565V41.8838H463.295ZM474.248 41.8838H474.979V41.1536H474.248V41.8838ZM474.248 45.535V46.2652H474.979V45.535H474.248ZM464.025 63.7908V60.1396H462.565V63.7908H464.025ZM463.295 60.8698H474.248V59.4094H463.295V60.8698ZM473.518 60.1396V63.7908H474.979V60.1396H473.518ZM474.248 63.0605H463.295V64.521H474.248V63.0605ZM474.979 60.1396V56.4884H473.518V60.1396H474.979ZM474.248 57.2187H477.9V55.7582H474.248V57.2187ZM477.169 56.4884V60.1396H478.63V56.4884H477.169ZM477.9 59.4094H474.248V60.8698H477.9V59.4094ZM460.374 60.1396V45.535H458.914V60.1396H460.374ZM459.644 46.2652H463.295V44.8047H459.644V46.2652ZM462.565 45.535V60.1396H464.025V45.535H462.565ZM463.295 59.4094H459.644V60.8698H463.295V59.4094ZM474.979 49.1861V45.535H473.518V49.1861H474.979ZM474.248 46.2652H477.9V44.8047H474.248V46.2652ZM477.169 45.535V49.1861H478.63V45.535H477.169ZM477.9 48.4559H474.248V49.9164H477.9V48.4559ZM464.025 45.535V41.8838H462.565V45.535H464.025ZM463.295 42.614H474.248V41.1536H463.295V42.614ZM473.518 41.8838V45.535H474.979V41.8838H473.518ZM474.248 44.8047H463.295V46.2652H474.248V44.8047ZM485.786 60.1396H485.056V60.8698H485.786V60.1396ZM485.786 52.8373V52.107H485.056V52.8373H485.786ZM489.437 52.8373H490.167V52.107H489.437V52.8373ZM489.437 60.1396V60.8698H490.167V60.1396H489.437ZM489.437 63.7908H488.707V64.521H489.437V63.7908ZM489.437 60.1396V59.4094H488.707V60.1396H489.437ZM500.391 60.1396V60.8698H501.121V60.1396H500.391ZM500.391 52.8373H501.121V52.107H500.391V52.8373ZM489.437 52.8373H488.707V53.5675H489.437V52.8373ZM489.437 49.1861V48.4559H488.707V49.1861H489.437ZM500.391 49.1861V49.9164H501.121V49.1861H500.391ZM500.391 45.535V44.8047H499.66V45.535H500.391ZM504.042 45.535H504.772V44.8047H504.042V45.535ZM504.042 63.7908V64.521H504.772V63.7908H504.042ZM489.437 45.535H488.707V46.2652H489.437V45.535ZM489.437 41.8838V41.1536H488.707V41.8838H489.437ZM500.391 41.8838H501.121V41.1536H500.391V41.8838ZM500.391 45.535V46.2652H501.121V45.535H500.391ZM486.516 60.1396V52.8373H485.056V60.1396H486.516ZM485.786 53.5675H489.437V52.107H485.786V53.5675ZM488.707 52.8373V60.1396H490.167V52.8373H488.707ZM489.437 59.4094H485.786V60.8698H489.437V59.4094ZM490.167 63.7908V60.1396H488.707V63.7908H490.167ZM489.437 60.8698H500.391V59.4094H489.437V60.8698ZM501.121 60.1396V52.8373H499.66V60.1396H501.121ZM500.391 52.107H489.437V53.5675H500.391V52.107ZM490.167 52.8373V49.1861H488.707V52.8373H490.167ZM489.437 49.9164H500.391V48.4559H489.437V49.9164ZM501.121 49.1861V45.535H499.66V49.1861H501.121ZM500.391 46.2652H504.042V44.8047H500.391V46.2652ZM503.312 45.535V63.7908H504.772V45.535H503.312ZM504.042 63.0605H489.437V64.521H504.042V63.0605ZM490.167 45.535V41.8838H488.707V45.535H490.167ZM489.437 42.614H500.391V41.1536H489.437V42.614ZM499.66 41.8838V45.535H501.121V41.8838H499.66ZM500.391 44.8047H489.437V46.2652H500.391V44.8047ZM515.58 63.7908H514.849V64.521H515.58V63.7908ZM515.58 60.1396V59.4094H514.849V60.1396H515.58ZM526.533 60.1396H527.263V59.4094H526.533V60.1396ZM526.533 63.7908V64.521H527.263V63.7908H526.533ZM526.533 60.1396H525.803V60.8698H526.533V60.1396ZM526.533 56.4884V55.7582H525.803V56.4884H526.533ZM530.184 56.4884H530.914V55.7582H530.184V56.4884ZM530.184 60.1396V60.8698H530.914V60.1396H530.184ZM511.928 60.1396H511.198V60.8698H511.928V60.1396ZM511.928 45.535V44.8047H511.198V45.535H511.928ZM515.58 45.535H516.31V44.8047H515.58V45.535ZM515.58 60.1396V60.8698H516.31V60.1396H515.58ZM526.533 49.1861H525.803V49.9164H526.533V49.1861ZM526.533 45.535V44.8047H525.803V45.535H526.533ZM530.184 45.535H530.914V44.8047H530.184V45.535ZM530.184 49.1861V49.9164H530.914V49.1861H530.184ZM515.58 45.535H514.849V46.2652H515.58V45.535ZM515.58 41.8838V41.1536H514.849V41.8838H515.58ZM526.533 41.8838H527.263V41.1536H526.533V41.8838ZM526.533 45.535V46.2652H527.263V45.535H526.533ZM516.31 63.7908V60.1396H514.849V63.7908H516.31ZM515.58 60.8698H526.533V59.4094H515.58V60.8698ZM525.803 60.1396V63.7908H527.263V60.1396H525.803ZM526.533 63.0605H515.58V64.521H526.533V63.0605ZM527.263 60.1396V56.4884H525.803V60.1396H527.263ZM526.533 57.2187H530.184V55.7582H526.533V57.2187ZM529.454 56.4884V60.1396H530.914V56.4884H529.454ZM530.184 59.4094H526.533V60.8698H530.184V59.4094ZM512.659 60.1396V45.535H511.198V60.1396H512.659ZM511.928 46.2652H515.58V44.8047H511.928V46.2652ZM514.849 45.535V60.1396H516.31V45.535H514.849ZM515.58 59.4094H511.928V60.8698H515.58V59.4094ZM527.263 49.1861V45.535H525.803V49.1861H527.263ZM526.533 46.2652H530.184V44.8047H526.533V46.2652ZM529.454 45.535V49.1861H530.914V45.535H529.454ZM530.184 48.4559H526.533V49.9164H530.184V48.4559ZM516.31 45.535V41.8838H514.849V45.535H516.31ZM515.58 42.614H526.533V41.1536H515.58V42.614ZM525.803 41.8838V45.535H527.263V41.8838H525.803ZM526.533 44.8047H515.58V46.2652H526.533V44.8047ZM545.373 63.7908H544.643V64.521H545.373V63.7908ZM545.373 60.1396V59.4094H544.643V60.1396H545.373ZM556.327 60.1396H557.057V59.4094H556.327V60.1396ZM556.327 63.7908V64.521H557.057V63.7908H556.327ZM541.722 60.1396H540.992V60.8698H541.722V60.1396ZM541.722 34.5815V33.8512H540.992V34.5815H541.722ZM545.373 34.5815H546.103V33.8512H545.373V34.5815ZM545.373 41.8838H544.643V42.614H545.373V41.8838ZM556.327 41.8838H557.057V41.1536H556.327V41.8838ZM556.327 45.535V46.2652H557.057V45.535H556.327ZM545.373 45.535V44.8047H544.643V45.535H545.373ZM545.373 60.1396V60.8698H546.103V60.1396H545.373ZM546.103 63.7908V60.1396H544.643V63.7908H546.103ZM545.373 60.8698H556.327V59.4094H545.373V60.8698ZM555.596 60.1396V63.7908H557.057V60.1396H555.596ZM556.327 63.0605H545.373V64.521H556.327V63.0605ZM542.452 60.1396V34.5815H540.992V60.1396H542.452ZM541.722 35.3117H545.373V33.8512H541.722V35.3117ZM544.643 34.5815V41.8838H546.103V34.5815H544.643ZM545.373 42.614H556.327V41.1536H545.373V42.614ZM555.596 41.8838V45.535H557.057V41.8838H555.596ZM556.327 44.8047H545.373V46.2652H556.327V44.8047ZM544.643 45.535V60.1396H546.103V45.535H544.643ZM545.373 59.4094H541.722V60.8698H545.373V59.4094ZM571.515 63.7908H570.785V64.521H571.515V63.7908ZM571.515 45.535H572.246V44.8047H571.515V45.535ZM567.864 45.535H567.134V46.2652H567.864V45.535ZM567.864 41.8838V41.1536H567.134V41.8838H567.864ZM575.167 41.8838H575.897V41.1536H575.167V41.8838ZM575.167 63.7908V64.521H575.897V63.7908H575.167ZM571.515 34.5815H570.785V35.3117H571.515V34.5815ZM571.515 30.9303V30.2001H570.785V30.9303H571.515ZM575.167 30.9303H575.897V30.2001H575.167V30.9303ZM575.167 34.5815V35.3117H575.897V34.5815H575.167ZM572.246 63.7908V45.535H570.785V63.7908H572.246ZM571.515 44.8047H567.864V46.2652H571.515V44.8047ZM568.594 45.535V41.8838H567.134V45.535H568.594ZM567.864 42.614H575.167V41.1536H567.864V42.614ZM574.436 41.8838V63.7908H575.897V41.8838H574.436ZM575.167 63.0605H571.515V64.521H575.167V63.0605ZM572.246 34.5815V30.9303H570.785V34.5815H572.246ZM571.515 31.6605H575.167V30.2001H571.515V31.6605ZM574.436 30.9303V34.5815H575.897V30.9303H574.436ZM575.167 33.8512H571.515V35.3117H575.167V33.8512Z" fill="#252840" mask="url(#path-1-outside-1_6_1919)"/>
<rect x="1233" width="13" height="105" fill="#B9A597"/>
<rect x="1246" y="92" width="13.0001" height="1246" transform="rotate(90 1246 92)" fill="#B9A597"/>
</svg>
