<svg width="1274" height="105" viewBox="0 0 1274 105" fill="none" xmlns="http://www.w3.org/2000/svg">
<rect width="1274" height="103" transform="translate(0 2)" fill="white"/>
<mask id="path-1-outside-1_6_1914" maskUnits="userSpaceOnUse" x="117" y="29.7908" width="599" height="46" fill="black">
<rect fill="white" x="117" y="29.7908" width="599" height="46"/>
<path d="M128.953 63.7908V38.2326H118V34.5815H143.558V38.2326H132.605V63.7908H128.953ZM162.398 49.1861V45.535H166.049V49.1861H162.398ZM147.793 63.7908V41.8838H151.445V45.535H155.096V49.1861H151.445V63.7908H147.793ZM155.096 45.535V41.8838H162.398V45.535H155.096ZM177.587 74.7443V71.0931H181.238V74.7443H177.587ZM181.238 71.0931V60.1396H184.889V71.0931H181.238ZM177.587 60.1396V49.1861H181.238V60.1396H177.587ZM184.889 60.1396V49.1861H188.54V60.1396H184.889ZM173.936 49.1861V41.8838H177.587V49.1861H173.936ZM188.54 49.1861V41.8838H192.192V49.1861H188.54ZM240.825 63.7908V45.535H244.476V63.7908H240.825ZM226.22 63.7908V41.8838H240.825V45.535H229.872V63.7908H226.22ZM256.014 63.7908V60.1396H266.967V63.7908H256.014ZM252.363 60.1396V45.535H256.014V60.1396H252.363ZM266.967 60.1396V45.535H270.619V60.1396H266.967ZM256.014 45.535V41.8838H266.967V45.535H256.014ZM285.807 63.7908V60.1396H296.761V63.7908H285.807ZM282.156 60.1396V34.5815H285.807V41.8838H296.761V45.535H285.807V60.1396H282.156ZM338.092 63.7908V60.1396H349.046V63.7908H338.092ZM334.441 60.1396V34.5815H338.092V41.8838H349.046V45.535H338.092V60.1396H334.441ZM360.583 63.7908V60.1396H371.537V63.7908H360.583ZM356.932 60.1396V45.535H360.583V60.1396H356.932ZM371.537 60.1396V45.535H375.188V60.1396H371.537ZM360.583 45.535V41.8838H371.537V45.535H360.583ZM409.217 63.7908V60.1396H423.821V63.7908H409.217ZM423.821 60.1396V56.4884H427.473V60.1396H423.821ZM420.17 56.4884V52.8373H423.821V56.4884H420.17ZM412.868 52.8373V49.1861H420.17V52.8373H412.868ZM409.217 49.1861V45.535H412.868V49.1861H409.217ZM412.868 45.535V41.8838H427.473V45.535H412.868ZM442.661 63.7908V60.1396H453.615V63.7908H442.661ZM439.01 60.1396V34.5815H442.661V41.8838H453.615V45.535H442.661V60.1396H439.01ZM465.153 63.7908V60.1396H476.106V63.7908H465.153ZM476.106 60.1396V56.4884H479.757V60.1396H476.106ZM461.501 60.1396V45.535H465.153V49.1861H476.106V45.535H479.757V52.8373H465.153V60.1396H461.501ZM465.153 45.535V41.8838H476.106V45.535H465.153ZM502.248 60.1396V45.535H505.9V60.1396H502.248ZM487.644 74.7443V41.8838H502.248V45.535H491.295V60.1396H502.248V63.7908H491.295V74.7443H487.644ZM547.231 63.7908V45.535H543.58V41.8838H550.882V63.7908H547.231ZM547.231 34.5815V30.9303H550.882V34.5815H547.231ZM580.675 63.7908V45.535H584.327V63.7908H580.675ZM566.071 63.7908V41.8838H580.675V45.535H569.722V63.7908H566.071ZM632.96 60.1396V45.535H636.611V60.1396H632.96ZM618.355 74.7443V41.8838H632.96V45.535H622.007V60.1396H632.96V63.7908H622.007V74.7443H618.355ZM648.149 63.7908V60.1396H659.102V63.7908H648.149ZM644.498 60.1396V45.535H648.149V60.1396H644.498ZM659.102 60.1396V45.535H662.754V60.1396H659.102ZM648.149 45.535V41.8838H659.102V45.535H648.149ZM674.291 63.7908V60.1396H685.245V63.7908H674.291ZM670.64 60.1396V45.535H674.291V60.1396H670.64ZM685.245 60.1396V45.535H688.896V60.1396H685.245ZM674.291 45.535V41.8838H685.245V45.535H674.291ZM711.387 60.1396V45.535H715.038V60.1396H711.387ZM696.782 74.7443V41.8838H711.387V45.535H700.434V60.1396H711.387V63.7908H700.434V74.7443H696.782Z"/>
</mask>
<path d="M128.953 63.7908V38.2326H118V34.5815H143.558V38.2326H132.605V63.7908H128.953ZM162.398 49.1861V45.535H166.049V49.1861H162.398ZM147.793 63.7908V41.8838H151.445V45.535H155.096V49.1861H151.445V63.7908H147.793ZM155.096 45.535V41.8838H162.398V45.535H155.096ZM177.587 74.7443V71.0931H181.238V74.7443H177.587ZM181.238 71.0931V60.1396H184.889V71.0931H181.238ZM177.587 60.1396V49.1861H181.238V60.1396H177.587ZM184.889 60.1396V49.1861H188.54V60.1396H184.889ZM173.936 49.1861V41.8838H177.587V49.1861H173.936ZM188.54 49.1861V41.8838H192.192V49.1861H188.54ZM240.825 63.7908V45.535H244.476V63.7908H240.825ZM226.22 63.7908V41.8838H240.825V45.535H229.872V63.7908H226.22ZM256.014 63.7908V60.1396H266.967V63.7908H256.014ZM252.363 60.1396V45.535H256.014V60.1396H252.363ZM266.967 60.1396V45.535H270.619V60.1396H266.967ZM256.014 45.535V41.8838H266.967V45.535H256.014ZM285.807 63.7908V60.1396H296.761V63.7908H285.807ZM282.156 60.1396V34.5815H285.807V41.8838H296.761V45.535H285.807V60.1396H282.156ZM338.092 63.7908V60.1396H349.046V63.7908H338.092ZM334.441 60.1396V34.5815H338.092V41.8838H349.046V45.535H338.092V60.1396H334.441ZM360.583 63.7908V60.1396H371.537V63.7908H360.583ZM356.932 60.1396V45.535H360.583V60.1396H356.932ZM371.537 60.1396V45.535H375.188V60.1396H371.537ZM360.583 45.535V41.8838H371.537V45.535H360.583ZM409.217 63.7908V60.1396H423.821V63.7908H409.217ZM423.821 60.1396V56.4884H427.473V60.1396H423.821ZM420.17 56.4884V52.8373H423.821V56.4884H420.17ZM412.868 52.8373V49.1861H420.17V52.8373H412.868ZM409.217 49.1861V45.535H412.868V49.1861H409.217ZM412.868 45.535V41.8838H427.473V45.535H412.868ZM442.661 63.7908V60.1396H453.615V63.7908H442.661ZM439.01 60.1396V34.5815H442.661V41.8838H453.615V45.535H442.661V60.1396H439.01ZM465.153 63.7908V60.1396H476.106V63.7908H465.153ZM476.106 60.1396V56.4884H479.757V60.1396H476.106ZM461.501 60.1396V45.535H465.153V49.1861H476.106V45.535H479.757V52.8373H465.153V60.1396H461.501ZM465.153 45.535V41.8838H476.106V45.535H465.153ZM502.248 60.1396V45.535H505.9V60.1396H502.248ZM487.644 74.7443V41.8838H502.248V45.535H491.295V60.1396H502.248V63.7908H491.295V74.7443H487.644ZM547.231 63.7908V45.535H543.58V41.8838H550.882V63.7908H547.231ZM547.231 34.5815V30.9303H550.882V34.5815H547.231ZM580.675 63.7908V45.535H584.327V63.7908H580.675ZM566.071 63.7908V41.8838H580.675V45.535H569.722V63.7908H566.071ZM632.96 60.1396V45.535H636.611V60.1396H632.96ZM618.355 74.7443V41.8838H632.96V45.535H622.007V60.1396H632.96V63.7908H622.007V74.7443H618.355ZM648.149 63.7908V60.1396H659.102V63.7908H648.149ZM644.498 60.1396V45.535H648.149V60.1396H644.498ZM659.102 60.1396V45.535H662.754V60.1396H659.102ZM648.149 45.535V41.8838H659.102V45.535H648.149ZM674.291 63.7908V60.1396H685.245V63.7908H674.291ZM670.64 60.1396V45.535H674.291V60.1396H670.64ZM685.245 60.1396V45.535H688.896V60.1396H685.245ZM674.291 45.535V41.8838H685.245V45.535H674.291ZM711.387 60.1396V45.535H715.038V60.1396H711.387ZM696.782 74.7443V41.8838H711.387V45.535H700.434V60.1396H711.387V63.7908H700.434V74.7443H696.782Z" fill="#252840"/>
<path d="M128.953 63.7908H128.223V64.521H128.953V63.7908ZM128.953 38.2326H129.684V37.5024H128.953V38.2326ZM118 38.2326H117.27V38.9629H118V38.2326ZM118 34.5815V33.8512H117.27V34.5815H118ZM143.558 34.5815H144.288V33.8512H143.558V34.5815ZM143.558 38.2326V38.9629H144.288V38.2326H143.558ZM132.605 38.2326V37.5024H131.874V38.2326H132.605ZM132.605 63.7908V64.521H133.335V63.7908H132.605ZM129.684 63.7908V38.2326H128.223V63.7908H129.684ZM128.953 37.5024H118V38.9629H128.953V37.5024ZM118.73 38.2326V34.5815H117.27V38.2326H118.73ZM118 35.3117H143.558V33.8512H118V35.3117ZM142.828 34.5815V38.2326H144.288V34.5815H142.828ZM143.558 37.5024H132.605V38.9629H143.558V37.5024ZM131.874 38.2326V63.7908H133.335V38.2326H131.874ZM132.605 63.0605H128.953V64.521H132.605V63.0605ZM162.398 49.1861H161.668V49.9164H162.398V49.1861ZM162.398 45.535V44.8047H161.668V45.535H162.398ZM166.049 45.535H166.78V44.8047H166.049V45.535ZM166.049 49.1861V49.9164H166.78V49.1861H166.049ZM147.793 63.7908H147.063V64.521H147.793V63.7908ZM147.793 41.8838V41.1536H147.063V41.8838H147.793ZM151.445 41.8838H152.175V41.1536H151.445V41.8838ZM151.445 45.535H150.714V46.2652H151.445V45.535ZM155.096 45.535H155.826V44.8047H155.096V45.535ZM155.096 49.1861V49.9164H155.826V49.1861H155.096ZM151.445 49.1861V48.4559H150.714V49.1861H151.445ZM151.445 63.7908V64.521H152.175V63.7908H151.445ZM155.096 45.535H154.366V46.2652H155.096V45.535ZM155.096 41.8838V41.1536H154.366V41.8838H155.096ZM162.398 41.8838H163.128V41.1536H162.398V41.8838ZM162.398 45.535V46.2652H163.128V45.535H162.398ZM163.128 49.1861V45.535H161.668V49.1861H163.128ZM162.398 46.2652H166.049V44.8047H162.398V46.2652ZM165.319 45.535V49.1861H166.78V45.535H165.319ZM166.049 48.4559H162.398V49.9164H166.049V48.4559ZM148.524 63.7908V41.8838H147.063V63.7908H148.524ZM147.793 42.614H151.445V41.1536H147.793V42.614ZM150.714 41.8838V45.535H152.175V41.8838H150.714ZM151.445 46.2652H155.096V44.8047H151.445V46.2652ZM154.366 45.535V49.1861H155.826V45.535H154.366ZM155.096 48.4559H151.445V49.9164H155.096V48.4559ZM150.714 49.1861V63.7908H152.175V49.1861H150.714ZM151.445 63.0605H147.793V64.521H151.445V63.0605ZM155.826 45.535V41.8838H154.366V45.535H155.826ZM155.096 42.614H162.398V41.1536H155.096V42.614ZM161.668 41.8838V45.535H163.128V41.8838H161.668ZM162.398 44.8047H155.096V46.2652H162.398V44.8047ZM177.587 74.7443H176.857V75.4745H177.587V74.7443ZM177.587 71.0931V70.3629H176.857V71.0931H177.587ZM181.238 71.0931H181.968V70.3629H181.238V71.0931ZM181.238 74.7443V75.4745H181.968V74.7443H181.238ZM181.238 71.0931H180.508V71.8233H181.238V71.0931ZM181.238 60.1396V59.4094H180.508V60.1396H181.238ZM184.889 60.1396H185.62V59.4094H184.889V60.1396ZM184.889 71.0931V71.8233H185.62V71.0931H184.889ZM177.587 60.1396H176.857V60.8698H177.587V60.1396ZM177.587 49.1861V48.4559H176.857V49.1861H177.587ZM181.238 49.1861H181.968V48.4559H181.238V49.1861ZM181.238 60.1396V60.8698H181.968V60.1396H181.238ZM184.889 60.1396H184.159V60.8698H184.889V60.1396ZM184.889 49.1861V48.4559H184.159V49.1861H184.889ZM188.54 49.1861H189.271V48.4559H188.54V49.1861ZM188.54 60.1396V60.8698H189.271V60.1396H188.54ZM173.936 49.1861H173.206V49.9164H173.936V49.1861ZM173.936 41.8838V41.1536H173.206V41.8838H173.936ZM177.587 41.8838H178.317V41.1536H177.587V41.8838ZM177.587 49.1861V49.9164H178.317V49.1861H177.587ZM188.54 49.1861H187.81V49.9164H188.54V49.1861ZM188.54 41.8838V41.1536H187.81V41.8838H188.54ZM192.192 41.8838H192.922V41.1536H192.192V41.8838ZM192.192 49.1861V49.9164H192.922V49.1861H192.192ZM178.317 74.7443V71.0931H176.857V74.7443H178.317ZM177.587 71.8233H181.238V70.3629H177.587V71.8233ZM180.508 71.0931V74.7443H181.968V71.0931H180.508ZM181.238 74.014H177.587V75.4745H181.238V74.014ZM181.968 71.0931V60.1396H180.508V71.0931H181.968ZM181.238 60.8698H184.889V59.4094H181.238V60.8698ZM184.159 60.1396V71.0931H185.62V60.1396H184.159ZM184.889 70.3629H181.238V71.8233H184.889V70.3629ZM178.317 60.1396V49.1861H176.857V60.1396H178.317ZM177.587 49.9164H181.238V48.4559H177.587V49.9164ZM180.508 49.1861V60.1396H181.968V49.1861H180.508ZM181.238 59.4094H177.587V60.8698H181.238V59.4094ZM185.62 60.1396V49.1861H184.159V60.1396H185.62ZM184.889 49.9164H188.54V48.4559H184.889V49.9164ZM187.81 49.1861V60.1396H189.271V49.1861H187.81ZM188.54 59.4094H184.889V60.8698H188.54V59.4094ZM174.666 49.1861V41.8838H173.206V49.1861H174.666ZM173.936 42.614H177.587V41.1536H173.936V42.614ZM176.857 41.8838V49.1861H178.317V41.8838H176.857ZM177.587 48.4559H173.936V49.9164H177.587V48.4559ZM189.271 49.1861V41.8838H187.81V49.1861H189.271ZM188.54 42.614H192.192V41.1536H188.54V42.614ZM191.461 41.8838V49.1861H192.922V41.8838H191.461ZM192.192 48.4559H188.54V49.9164H192.192V48.4559ZM240.825 63.7908H240.095V64.521H240.825V63.7908ZM240.825 45.535V44.8047H240.095V45.535H240.825ZM244.476 45.535H245.207V44.8047H244.476V45.535ZM244.476 63.7908V64.521H245.207V63.7908H244.476ZM226.22 63.7908H225.49V64.521H226.22V63.7908ZM226.22 41.8838V41.1536H225.49V41.8838H226.22ZM240.825 41.8838H241.555V41.1536H240.825V41.8838ZM240.825 45.535V46.2652H241.555V45.535H240.825ZM229.872 45.535V44.8047H229.141V45.535H229.872ZM229.872 63.7908V64.521H230.602V63.7908H229.872ZM241.555 63.7908V45.535H240.095V63.7908H241.555ZM240.825 46.2652H244.476V44.8047H240.825V46.2652ZM243.746 45.535V63.7908H245.207V45.535H243.746ZM244.476 63.0605H240.825V64.521H244.476V63.0605ZM226.951 63.7908V41.8838H225.49V63.7908H226.951ZM226.22 42.614H240.825V41.1536H226.22V42.614ZM240.095 41.8838V45.535H241.555V41.8838H240.095ZM240.825 44.8047H229.872V46.2652H240.825V44.8047ZM229.141 45.535V63.7908H230.602V45.535H229.141ZM229.872 63.0605H226.22V64.521H229.872V63.0605ZM256.014 63.7908H255.284V64.521H256.014V63.7908ZM256.014 60.1396V59.4094H255.284V60.1396H256.014ZM266.967 60.1396H267.698V59.4094H266.967V60.1396ZM266.967 63.7908V64.521H267.698V63.7908H266.967ZM252.363 60.1396H251.633V60.8698H252.363V60.1396ZM252.363 45.535V44.8047H251.633V45.535H252.363ZM256.014 45.535H256.744V44.8047H256.014V45.535ZM256.014 60.1396V60.8698H256.744V60.1396H256.014ZM266.967 60.1396H266.237V60.8698H266.967V60.1396ZM266.967 45.535V44.8047H266.237V45.535H266.967ZM270.619 45.535H271.349V44.8047H270.619V45.535ZM270.619 60.1396V60.8698H271.349V60.1396H270.619ZM256.014 45.535H255.284V46.2652H256.014V45.535ZM256.014 41.8838V41.1536H255.284V41.8838H256.014ZM266.967 41.8838H267.698V41.1536H266.967V41.8838ZM266.967 45.535V46.2652H267.698V45.535H266.967ZM256.744 63.7908V60.1396H255.284V63.7908H256.744ZM256.014 60.8698H266.967V59.4094H256.014V60.8698ZM266.237 60.1396V63.7908H267.698V60.1396H266.237ZM266.967 63.0605H256.014V64.521H266.967V63.0605ZM253.093 60.1396V45.535H251.633V60.1396H253.093ZM252.363 46.2652H256.014V44.8047H252.363V46.2652ZM255.284 45.535V60.1396H256.744V45.535H255.284ZM256.014 59.4094H252.363V60.8698H256.014V59.4094ZM267.698 60.1396V45.535H266.237V60.1396H267.698ZM266.967 46.2652H270.619V44.8047H266.967V46.2652ZM269.888 45.535V60.1396H271.349V45.535H269.888ZM270.619 59.4094H266.967V60.8698H270.619V59.4094ZM256.744 45.535V41.8838H255.284V45.535H256.744ZM256.014 42.614H266.967V41.1536H256.014V42.614ZM266.237 41.8838V45.535H267.698V41.8838H266.237ZM266.967 44.8047H256.014V46.2652H266.967V44.8047ZM285.807 63.7908H285.077V64.521H285.807V63.7908ZM285.807 60.1396V59.4094H285.077V60.1396H285.807ZM296.761 60.1396H297.491V59.4094H296.761V60.1396ZM296.761 63.7908V64.521H297.491V63.7908H296.761ZM282.156 60.1396H281.426V60.8698H282.156V60.1396ZM282.156 34.5815V33.8512H281.426V34.5815H282.156ZM285.807 34.5815H286.538V33.8512H285.807V34.5815ZM285.807 41.8838H285.077V42.614H285.807V41.8838ZM296.761 41.8838H297.491V41.1536H296.761V41.8838ZM296.761 45.535V46.2652H297.491V45.535H296.761ZM285.807 45.535V44.8047H285.077V45.535H285.807ZM285.807 60.1396V60.8698H286.538V60.1396H285.807ZM286.538 63.7908V60.1396H285.077V63.7908H286.538ZM285.807 60.8698H296.761V59.4094H285.807V60.8698ZM296.031 60.1396V63.7908H297.491V60.1396H296.031ZM296.761 63.0605H285.807V64.521H296.761V63.0605ZM282.887 60.1396V34.5815H281.426V60.1396H282.887ZM282.156 35.3117H285.807V33.8512H282.156V35.3117ZM285.077 34.5815V41.8838H286.538V34.5815H285.077ZM285.807 42.614H296.761V41.1536H285.807V42.614ZM296.031 41.8838V45.535H297.491V41.8838H296.031ZM296.761 44.8047H285.807V46.2652H296.761V44.8047ZM285.077 45.535V60.1396H286.538V45.535H285.077ZM285.807 59.4094H282.156V60.8698H285.807V59.4094ZM338.092 63.7908H337.362V64.521H338.092V63.7908ZM338.092 60.1396V59.4094H337.362V60.1396H338.092ZM349.046 60.1396H349.776V59.4094H349.046V60.1396ZM349.046 63.7908V64.521H349.776V63.7908H349.046ZM334.441 60.1396H333.711V60.8698H334.441V60.1396ZM334.441 34.5815V33.8512H333.711V34.5815H334.441ZM338.092 34.5815H338.822V33.8512H338.092V34.5815ZM338.092 41.8838H337.362V42.614H338.092V41.8838ZM349.046 41.8838H349.776V41.1536H349.046V41.8838ZM349.046 45.535V46.2652H349.776V45.535H349.046ZM338.092 45.535V44.8047H337.362V45.535H338.092ZM338.092 60.1396V60.8698H338.822V60.1396H338.092ZM338.822 63.7908V60.1396H337.362V63.7908H338.822ZM338.092 60.8698H349.046V59.4094H338.092V60.8698ZM348.315 60.1396V63.7908H349.776V60.1396H348.315ZM349.046 63.0605H338.092V64.521H349.046V63.0605ZM335.171 60.1396V34.5815H333.711V60.1396H335.171ZM334.441 35.3117H338.092V33.8512H334.441V35.3117ZM337.362 34.5815V41.8838H338.822V34.5815H337.362ZM338.092 42.614H349.046V41.1536H338.092V42.614ZM348.315 41.8838V45.535H349.776V41.8838H348.315ZM349.046 44.8047H338.092V46.2652H349.046V44.8047ZM337.362 45.535V60.1396H338.822V45.535H337.362ZM338.092 59.4094H334.441V60.8698H338.092V59.4094ZM360.583 63.7908H359.853V64.521H360.583V63.7908ZM360.583 60.1396V59.4094H359.853V60.1396H360.583ZM371.537 60.1396H372.267V59.4094H371.537V60.1396ZM371.537 63.7908V64.521H372.267V63.7908H371.537ZM356.932 60.1396H356.202V60.8698H356.932V60.1396ZM356.932 45.535V44.8047H356.202V45.535H356.932ZM360.583 45.535H361.314V44.8047H360.583V45.535ZM360.583 60.1396V60.8698H361.314V60.1396H360.583ZM371.537 60.1396H370.807V60.8698H371.537V60.1396ZM371.537 45.535V44.8047H370.807V45.535H371.537ZM375.188 45.535H375.918V44.8047H375.188V45.535ZM375.188 60.1396V60.8698H375.918V60.1396H375.188ZM360.583 45.535H359.853V46.2652H360.583V45.535ZM360.583 41.8838V41.1536H359.853V41.8838H360.583ZM371.537 41.8838H372.267V41.1536H371.537V41.8838ZM371.537 45.535V46.2652H372.267V45.535H371.537ZM361.314 63.7908V60.1396H359.853V63.7908H361.314ZM360.583 60.8698H371.537V59.4094H360.583V60.8698ZM370.807 60.1396V63.7908H372.267V60.1396H370.807ZM371.537 63.0605H360.583V64.521H371.537V63.0605ZM357.662 60.1396V45.535H356.202V60.1396H357.662ZM356.932 46.2652H360.583V44.8047H356.932V46.2652ZM359.853 45.535V60.1396H361.314V45.535H359.853ZM360.583 59.4094H356.932V60.8698H360.583V59.4094ZM372.267 60.1396V45.535H370.807V60.1396H372.267ZM371.537 46.2652H375.188V44.8047H371.537V46.2652ZM374.458 45.535V60.1396H375.918V45.535H374.458ZM375.188 59.4094H371.537V60.8698H375.188V59.4094ZM361.314 45.535V41.8838H359.853V45.535H361.314ZM360.583 42.614H371.537V41.1536H360.583V42.614ZM370.807 41.8838V45.535H372.267V41.8838H370.807ZM371.537 44.8047H360.583V46.2652H371.537V44.8047ZM409.217 63.7908H408.487V64.521H409.217V63.7908ZM409.217 60.1396V59.4094H408.487V60.1396H409.217ZM423.821 60.1396H424.552V59.4094H423.821V60.1396ZM423.821 63.7908V64.521H424.552V63.7908H423.821ZM423.821 60.1396H423.091V60.8698H423.821V60.1396ZM423.821 56.4884V55.7582H423.091V56.4884H423.821ZM427.473 56.4884H428.203V55.7582H427.473V56.4884ZM427.473 60.1396V60.8698H428.203V60.1396H427.473ZM420.17 56.4884H419.44V57.2187H420.17V56.4884ZM420.17 52.8373V52.107H419.44V52.8373H420.17ZM423.821 52.8373H424.552V52.107H423.821V52.8373ZM423.821 56.4884V57.2187H424.552V56.4884H423.821ZM412.868 52.8373H412.138V53.5675H412.868V52.8373ZM412.868 49.1861V48.4559H412.138V49.1861H412.868ZM420.17 49.1861H420.901V48.4559H420.17V49.1861ZM420.17 52.8373V53.5675H420.901V52.8373H420.17ZM409.217 49.1861H408.487V49.9164H409.217V49.1861ZM409.217 45.535V44.8047H408.487V45.535H409.217ZM412.868 45.535H413.598V44.8047H412.868V45.535ZM412.868 49.1861V49.9164H413.598V49.1861H412.868ZM412.868 45.535H412.138V46.2652H412.868V45.535ZM412.868 41.8838V41.1536H412.138V41.8838H412.868ZM427.473 41.8838H428.203V41.1536H427.473V41.8838ZM427.473 45.535V46.2652H428.203V45.535H427.473ZM409.947 63.7908V60.1396H408.487V63.7908H409.947ZM409.217 60.8698H423.821V59.4094H409.217V60.8698ZM423.091 60.1396V63.7908H424.552V60.1396H423.091ZM423.821 63.0605H409.217V64.521H423.821V63.0605ZM424.552 60.1396V56.4884H423.091V60.1396H424.552ZM423.821 57.2187H427.473V55.7582H423.821V57.2187ZM426.742 56.4884V60.1396H428.203V56.4884H426.742ZM427.473 59.4094H423.821V60.8698H427.473V59.4094ZM420.901 56.4884V52.8373H419.44V56.4884H420.901ZM420.17 53.5675H423.821V52.107H420.17V53.5675ZM423.091 52.8373V56.4884H424.552V52.8373H423.091ZM423.821 55.7582H420.17V57.2187H423.821V55.7582ZM413.598 52.8373V49.1861H412.138V52.8373H413.598ZM412.868 49.9164H420.17V48.4559H412.868V49.9164ZM419.44 49.1861V52.8373H420.901V49.1861H419.44ZM420.17 52.107H412.868V53.5675H420.17V52.107ZM409.947 49.1861V45.535H408.487V49.1861H409.947ZM409.217 46.2652H412.868V44.8047H409.217V46.2652ZM412.138 45.535V49.1861H413.598V45.535H412.138ZM412.868 48.4559H409.217V49.9164H412.868V48.4559ZM413.598 45.535V41.8838H412.138V45.535H413.598ZM412.868 42.614H427.473V41.1536H412.868V42.614ZM426.742 41.8838V45.535H428.203V41.8838H426.742ZM427.473 44.8047H412.868V46.2652H427.473V44.8047ZM442.661 63.7908H441.931V64.521H442.661V63.7908ZM442.661 60.1396V59.4094H441.931V60.1396H442.661ZM453.615 60.1396H454.345V59.4094H453.615V60.1396ZM453.615 63.7908V64.521H454.345V63.7908H453.615ZM439.01 60.1396H438.28V60.8698H439.01V60.1396ZM439.01 34.5815V33.8512H438.28V34.5815H439.01ZM442.661 34.5815H443.392V33.8512H442.661V34.5815ZM442.661 41.8838H441.931V42.614H442.661V41.8838ZM453.615 41.8838H454.345V41.1536H453.615V41.8838ZM453.615 45.535V46.2652H454.345V45.535H453.615ZM442.661 45.535V44.8047H441.931V45.535H442.661ZM442.661 60.1396V60.8698H443.392V60.1396H442.661ZM443.392 63.7908V60.1396H441.931V63.7908H443.392ZM442.661 60.8698H453.615V59.4094H442.661V60.8698ZM452.885 60.1396V63.7908H454.345V60.1396H452.885ZM453.615 63.0605H442.661V64.521H453.615V63.0605ZM439.741 60.1396V34.5815H438.28V60.1396H439.741ZM439.01 35.3117H442.661V33.8512H439.01V35.3117ZM441.931 34.5815V41.8838H443.392V34.5815H441.931ZM442.661 42.614H453.615V41.1536H442.661V42.614ZM452.885 41.8838V45.535H454.345V41.8838H452.885ZM453.615 44.8047H442.661V46.2652H453.615V44.8047ZM441.931 45.535V60.1396H443.392V45.535H441.931ZM442.661 59.4094H439.01V60.8698H442.661V59.4094ZM465.153 63.7908H464.422V64.521H465.153V63.7908ZM465.153 60.1396V59.4094H464.422V60.1396H465.153ZM476.106 60.1396H476.836V59.4094H476.106V60.1396ZM476.106 63.7908V64.521H476.836V63.7908H476.106ZM476.106 60.1396H475.376V60.8698H476.106V60.1396ZM476.106 56.4884V55.7582H475.376V56.4884H476.106ZM479.757 56.4884H480.487V55.7582H479.757V56.4884ZM479.757 60.1396V60.8698H480.487V60.1396H479.757ZM461.501 60.1396H460.771V60.8698H461.501V60.1396ZM461.501 45.535V44.8047H460.771V45.535H461.501ZM465.153 45.535H465.883V44.8047H465.153V45.535ZM465.153 49.1861H464.422V49.9164H465.153V49.1861ZM476.106 49.1861V49.9164H476.836V49.1861H476.106ZM476.106 45.535V44.8047H475.376V45.535H476.106ZM479.757 45.535H480.487V44.8047H479.757V45.535ZM479.757 52.8373V53.5675H480.487V52.8373H479.757ZM465.153 52.8373V52.107H464.422V52.8373H465.153ZM465.153 60.1396V60.8698H465.883V60.1396H465.153ZM465.153 45.535H464.422V46.2652H465.153V45.535ZM465.153 41.8838V41.1536H464.422V41.8838H465.153ZM476.106 41.8838H476.836V41.1536H476.106V41.8838ZM476.106 45.535V46.2652H476.836V45.535H476.106ZM465.883 63.7908V60.1396H464.422V63.7908H465.883ZM465.153 60.8698H476.106V59.4094H465.153V60.8698ZM475.376 60.1396V63.7908H476.836V60.1396H475.376ZM476.106 63.0605H465.153V64.521H476.106V63.0605ZM476.836 60.1396V56.4884H475.376V60.1396H476.836ZM476.106 57.2187H479.757V55.7582H476.106V57.2187ZM479.027 56.4884V60.1396H480.487V56.4884H479.027ZM479.757 59.4094H476.106V60.8698H479.757V59.4094ZM462.232 60.1396V45.535H460.771V60.1396H462.232ZM461.501 46.2652H465.153V44.8047H461.501V46.2652ZM464.422 45.535V49.1861H465.883V45.535H464.422ZM465.153 49.9164H476.106V48.4559H465.153V49.9164ZM476.836 49.1861V45.535H475.376V49.1861H476.836ZM476.106 46.2652H479.757V44.8047H476.106V46.2652ZM479.027 45.535V52.8373H480.487V45.535H479.027ZM479.757 52.107H465.153V53.5675H479.757V52.107ZM464.422 52.8373V60.1396H465.883V52.8373H464.422ZM465.153 59.4094H461.501V60.8698H465.153V59.4094ZM465.883 45.535V41.8838H464.422V45.535H465.883ZM465.153 42.614H476.106V41.1536H465.153V42.614ZM475.376 41.8838V45.535H476.836V41.8838H475.376ZM476.106 44.8047H465.153V46.2652H476.106V44.8047ZM502.248 60.1396H501.518V60.8698H502.248V60.1396ZM502.248 45.535V44.8047H501.518V45.535H502.248ZM505.9 45.535H506.63V44.8047H505.9V45.535ZM505.9 60.1396V60.8698H506.63V60.1396H505.9ZM487.644 74.7443H486.914V75.4745H487.644V74.7443ZM487.644 41.8838V41.1536H486.914V41.8838H487.644ZM502.248 41.8838H502.979V41.1536H502.248V41.8838ZM502.248 45.535V46.2652H502.979V45.535H502.248ZM491.295 45.535V44.8047H490.565V45.535H491.295ZM491.295 60.1396H490.565V60.8698H491.295V60.1396ZM502.248 60.1396H502.979V59.4094H502.248V60.1396ZM502.248 63.7908V64.521H502.979V63.7908H502.248ZM491.295 63.7908V63.0605H490.565V63.7908H491.295ZM491.295 74.7443V75.4745H492.025V74.7443H491.295ZM502.979 60.1396V45.535H501.518V60.1396H502.979ZM502.248 46.2652H505.9V44.8047H502.248V46.2652ZM505.169 45.535V60.1396H506.63V45.535H505.169ZM505.9 59.4094H502.248V60.8698H505.9V59.4094ZM488.374 74.7443V41.8838H486.914V74.7443H488.374ZM487.644 42.614H502.248V41.1536H487.644V42.614ZM501.518 41.8838V45.535H502.979V41.8838H501.518ZM502.248 44.8047H491.295V46.2652H502.248V44.8047ZM490.565 45.535V60.1396H492.025V45.535H490.565ZM491.295 60.8698H502.248V59.4094H491.295V60.8698ZM501.518 60.1396V63.7908H502.979V60.1396H501.518ZM502.248 63.0605H491.295V64.521H502.248V63.0605ZM490.565 63.7908V74.7443H492.025V63.7908H490.565ZM491.295 74.014H487.644V75.4745H491.295V74.014ZM547.231 63.7908H546.501V64.521H547.231V63.7908ZM547.231 45.535H547.961V44.8047H547.231V45.535ZM543.58 45.535H542.849V46.2652H543.58V45.535ZM543.58 41.8838V41.1536H542.849V41.8838H543.58ZM550.882 41.8838H551.612V41.1536H550.882V41.8838ZM550.882 63.7908V64.521H551.612V63.7908H550.882ZM547.231 34.5815H546.501V35.3117H547.231V34.5815ZM547.231 30.9303V30.2001H546.501V30.9303H547.231ZM550.882 30.9303H551.612V30.2001H550.882V30.9303ZM550.882 34.5815V35.3117H551.612V34.5815H550.882ZM547.961 63.7908V45.535H546.501V63.7908H547.961ZM547.231 44.8047H543.58V46.2652H547.231V44.8047ZM544.31 45.535V41.8838H542.849V45.535H544.31ZM543.58 42.614H550.882V41.1536H543.58V42.614ZM550.152 41.8838V63.7908H551.612V41.8838H550.152ZM550.882 63.0605H547.231V64.521H550.882V63.0605ZM547.961 34.5815V30.9303H546.501V34.5815H547.961ZM547.231 31.6605H550.882V30.2001H547.231V31.6605ZM550.152 30.9303V34.5815H551.612V30.9303H550.152ZM550.882 33.8512H547.231V35.3117H550.882V33.8512ZM580.675 63.7908H579.945V64.521H580.675V63.7908ZM580.675 45.535V44.8047H579.945V45.535H580.675ZM584.327 45.535H585.057V44.8047H584.327V45.535ZM584.327 63.7908V64.521H585.057V63.7908H584.327ZM566.071 63.7908H565.341V64.521H566.071V63.7908ZM566.071 41.8838V41.1536H565.341V41.8838H566.071ZM580.675 41.8838H581.406V41.1536H580.675V41.8838ZM580.675 45.535V46.2652H581.406V45.535H580.675ZM569.722 45.535V44.8047H568.992V45.535H569.722ZM569.722 63.7908V64.521H570.452V63.7908H569.722ZM581.406 63.7908V45.535H579.945V63.7908H581.406ZM580.675 46.2652H584.327V44.8047H580.675V46.2652ZM583.596 45.535V63.7908H585.057V45.535H583.596ZM584.327 63.0605H580.675V64.521H584.327V63.0605ZM566.801 63.7908V41.8838H565.341V63.7908H566.801ZM566.071 42.614H580.675V41.1536H566.071V42.614ZM579.945 41.8838V45.535H581.406V41.8838H579.945ZM580.675 44.8047H569.722V46.2652H580.675V44.8047ZM568.992 45.535V63.7908H570.452V45.535H568.992ZM569.722 63.0605H566.071V64.521H569.722V63.0605ZM632.96 60.1396H632.23V60.8698H632.96V60.1396ZM632.96 45.535V44.8047H632.23V45.535H632.96ZM636.611 45.535H637.341V44.8047H636.611V45.535ZM636.611 60.1396V60.8698H637.341V60.1396H636.611ZM618.355 74.7443H617.625V75.4745H618.355V74.7443ZM618.355 41.8838V41.1536H617.625V41.8838H618.355ZM632.96 41.8838H633.69V41.1536H632.96V41.8838ZM632.96 45.535V46.2652H633.69V45.535H632.96ZM622.007 45.535V44.8047H621.276V45.535H622.007ZM622.007 60.1396H621.276V60.8698H622.007V60.1396ZM632.96 60.1396H633.69V59.4094H632.96V60.1396ZM632.96 63.7908V64.521H633.69V63.7908H632.96ZM622.007 63.7908V63.0605H621.276V63.7908H622.007ZM622.007 74.7443V75.4745H622.737V74.7443H622.007ZM633.69 60.1396V45.535H632.23V60.1396H633.69ZM632.96 46.2652H636.611V44.8047H632.96V46.2652ZM635.881 45.535V60.1396H637.341V45.535H635.881ZM636.611 59.4094H632.96V60.8698H636.611V59.4094ZM619.086 74.7443V41.8838H617.625V74.7443H619.086ZM618.355 42.614H632.96V41.1536H618.355V42.614ZM632.23 41.8838V45.535H633.69V41.8838H632.23ZM632.96 44.8047H622.007V46.2652H632.96V44.8047ZM621.276 45.535V60.1396H622.737V45.535H621.276ZM622.007 60.8698H632.96V59.4094H622.007V60.8698ZM632.23 60.1396V63.7908H633.69V60.1396H632.23ZM632.96 63.0605H622.007V64.521H632.96V63.0605ZM621.276 63.7908V74.7443H622.737V63.7908H621.276ZM622.007 74.014H618.355V75.4745H622.007V74.014ZM648.149 63.7908H647.419V64.521H648.149V63.7908ZM648.149 60.1396V59.4094H647.419V60.1396H648.149ZM659.102 60.1396H659.833V59.4094H659.102V60.1396ZM659.102 63.7908V64.521H659.833V63.7908H659.102ZM644.498 60.1396H643.768V60.8698H644.498V60.1396ZM644.498 45.535V44.8047H643.768V45.535H644.498ZM648.149 45.535H648.879V44.8047H648.149V45.535ZM648.149 60.1396V60.8698H648.879V60.1396H648.149ZM659.102 60.1396H658.372V60.8698H659.102V60.1396ZM659.102 45.535V44.8047H658.372V45.535H659.102ZM662.754 45.535H663.484V44.8047H662.754V45.535ZM662.754 60.1396V60.8698H663.484V60.1396H662.754ZM648.149 45.535H647.419V46.2652H648.149V45.535ZM648.149 41.8838V41.1536H647.419V41.8838H648.149ZM659.102 41.8838H659.833V41.1536H659.102V41.8838ZM659.102 45.535V46.2652H659.833V45.535H659.102ZM648.879 63.7908V60.1396H647.419V63.7908H648.879ZM648.149 60.8698H659.102V59.4094H648.149V60.8698ZM658.372 60.1396V63.7908H659.833V60.1396H658.372ZM659.102 63.0605H648.149V64.521H659.102V63.0605ZM645.228 60.1396V45.535H643.768V60.1396H645.228ZM644.498 46.2652H648.149V44.8047H644.498V46.2652ZM647.419 45.535V60.1396H648.879V45.535H647.419ZM648.149 59.4094H644.498V60.8698H648.149V59.4094ZM659.833 60.1396V45.535H658.372V60.1396H659.833ZM659.102 46.2652H662.754V44.8047H659.102V46.2652ZM662.023 45.535V60.1396H663.484V45.535H662.023ZM662.754 59.4094H659.102V60.8698H662.754V59.4094ZM648.879 45.535V41.8838H647.419V45.535H648.879ZM648.149 42.614H659.102V41.1536H648.149V42.614ZM658.372 41.8838V45.535H659.833V41.8838H658.372ZM659.102 44.8047H648.149V46.2652H659.102V44.8047ZM674.291 63.7908H673.561V64.521H674.291V63.7908ZM674.291 60.1396V59.4094H673.561V60.1396H674.291ZM685.245 60.1396H685.975V59.4094H685.245V60.1396ZM685.245 63.7908V64.521H685.975V63.7908H685.245ZM670.64 60.1396H669.91V60.8698H670.64V60.1396ZM670.64 45.535V44.8047H669.91V45.535H670.64ZM674.291 45.535H675.021V44.8047H674.291V45.535ZM674.291 60.1396V60.8698H675.021V60.1396H674.291ZM685.245 60.1396H684.514V60.8698H685.245V60.1396ZM685.245 45.535V44.8047H684.514V45.535H685.245ZM688.896 45.535H689.626V44.8047H688.896V45.535ZM688.896 60.1396V60.8698H689.626V60.1396H688.896ZM674.291 45.535H673.561V46.2652H674.291V45.535ZM674.291 41.8838V41.1536H673.561V41.8838H674.291ZM685.245 41.8838H685.975V41.1536H685.245V41.8838ZM685.245 45.535V46.2652H685.975V45.535H685.245ZM675.021 63.7908V60.1396H673.561V63.7908H675.021ZM674.291 60.8698H685.245V59.4094H674.291V60.8698ZM684.514 60.1396V63.7908H685.975V60.1396H684.514ZM685.245 63.0605H674.291V64.521H685.245V63.0605ZM671.37 60.1396V45.535H669.91V60.1396H671.37ZM670.64 46.2652H674.291V44.8047H670.64V46.2652ZM673.561 45.535V60.1396H675.021V45.535H673.561ZM674.291 59.4094H670.64V60.8698H674.291V59.4094ZM685.975 60.1396V45.535H684.514V60.1396H685.975ZM685.245 46.2652H688.896V44.8047H685.245V46.2652ZM688.166 45.535V60.1396H689.626V45.535H688.166ZM688.896 59.4094H685.245V60.8698H688.896V59.4094ZM675.021 45.535V41.8838H673.561V45.535H675.021ZM674.291 42.614H685.245V41.1536H674.291V42.614ZM684.514 41.8838V45.535H685.975V41.8838H684.514ZM685.245 44.8047H674.291V46.2652H685.245V44.8047ZM711.387 60.1396H710.657V60.8698H711.387V60.1396ZM711.387 45.535V44.8047H710.657V45.535H711.387ZM715.038 45.535H715.768V44.8047H715.038V45.535ZM715.038 60.1396V60.8698H715.768V60.1396H715.038ZM696.782 74.7443H696.052V75.4745H696.782V74.7443ZM696.782 41.8838V41.1536H696.052V41.8838H696.782ZM711.387 41.8838H712.117V41.1536H711.387V41.8838ZM711.387 45.535V46.2652H712.117V45.535H711.387ZM700.434 45.535V44.8047H699.703V45.535H700.434ZM700.434 60.1396H699.703V60.8698H700.434V60.1396ZM711.387 60.1396H712.117V59.4094H711.387V60.1396ZM711.387 63.7908V64.521H712.117V63.7908H711.387ZM700.434 63.7908V63.0605H699.703V63.7908H700.434ZM700.434 74.7443V75.4745H701.164V74.7443H700.434ZM712.117 60.1396V45.535H710.657V60.1396H712.117ZM711.387 46.2652H715.038V44.8047H711.387V46.2652ZM714.308 45.535V60.1396H715.768V45.535H714.308ZM715.038 59.4094H711.387V60.8698H715.038V59.4094ZM697.513 74.7443V41.8838H696.052V74.7443H697.513ZM696.782 42.614H711.387V41.1536H696.782V42.614ZM710.657 41.8838V45.535H712.117V41.8838H710.657ZM711.387 44.8047H700.434V46.2652H711.387V44.8047ZM699.703 45.535V60.1396H701.164V45.535H699.703ZM700.434 60.8698H711.387V59.4094H700.434V60.8698ZM710.657 60.1396V63.7908H712.117V60.1396H710.657ZM711.387 63.0605H700.434V64.521H711.387V63.0605ZM699.703 63.7908V74.7443H701.164V63.7908H699.703ZM700.434 74.014H696.782V75.4745H700.434V74.014Z" fill="#252840" mask="url(#path-1-outside-1_6_1914)"/>
<rect x="1261" width="13" height="105" fill="#B9A597"/>
<rect x="1274" y="92" width="13.0001" height="1274" transform="rotate(90 1274 92)" fill="#B9A597"/>
</svg>
