<svg width="1291" height="103" viewBox="0 0 1291 103" fill="none" xmlns="http://www.w3.org/2000/svg">
<rect width="1291" height="103" fill="white"/>
<mask id="path-1-outside-1_6_1914" maskUnits="userSpaceOnUse" x="134" y="27.7908" width="599" height="46" fill="black">
<rect fill="white" x="134" y="27.7908" width="599" height="46"/>
<path d="M145.953 61.7908V36.2326H135V32.5815H160.558V36.2326H149.605V61.7908H145.953ZM179.398 47.1861V43.535H183.049V47.1861H179.398ZM164.793 61.7908V39.8838H168.445V43.535H172.096V47.1861H168.445V61.7908H164.793ZM172.096 43.535V39.8838H179.398V43.535H172.096ZM194.587 72.7443V69.0931H198.238V72.7443H194.587ZM198.238 69.0931V58.1396H201.889V69.0931H198.238ZM194.587 58.1396V47.1861H198.238V58.1396H194.587ZM201.889 58.1396V47.1861H205.54V58.1396H201.889ZM190.936 47.1861V39.8838H194.587V47.1861H190.936ZM205.54 47.1861V39.8838H209.192V47.1861H205.54ZM257.825 61.7908V43.535H261.476V61.7908H257.825ZM243.22 61.7908V39.8838H257.825V43.535H246.872V61.7908H243.22ZM273.014 61.7908V58.1396H283.967V61.7908H273.014ZM269.363 58.1396V43.535H273.014V58.1396H269.363ZM283.967 58.1396V43.535H287.619V58.1396H283.967ZM273.014 43.535V39.8838H283.967V43.535H273.014ZM302.807 61.7908V58.1396H313.761V61.7908H302.807ZM299.156 58.1396V32.5815H302.807V39.8838H313.761V43.535H302.807V58.1396H299.156ZM355.092 61.7908V58.1396H366.046V61.7908H355.092ZM351.441 58.1396V32.5815H355.092V39.8838H366.046V43.535H355.092V58.1396H351.441ZM377.583 61.7908V58.1396H388.537V61.7908H377.583ZM373.932 58.1396V43.535H377.583V58.1396H373.932ZM388.537 58.1396V43.535H392.188V58.1396H388.537ZM377.583 43.535V39.8838H388.537V43.535H377.583ZM426.217 61.7908V58.1396H440.821V61.7908H426.217ZM440.821 58.1396V54.4884H444.473V58.1396H440.821ZM437.17 54.4884V50.8373H440.821V54.4884H437.17ZM429.868 50.8373V47.1861H437.17V50.8373H429.868ZM426.217 47.1861V43.535H429.868V47.1861H426.217ZM429.868 43.535V39.8838H444.473V43.535H429.868ZM459.661 61.7908V58.1396H470.615V61.7908H459.661ZM456.01 58.1396V32.5815H459.661V39.8838H470.615V43.535H459.661V58.1396H456.01ZM482.153 61.7908V58.1396H493.106V61.7908H482.153ZM493.106 58.1396V54.4884H496.757V58.1396H493.106ZM478.501 58.1396V43.535H482.153V47.1861H493.106V43.535H496.757V50.8373H482.153V58.1396H478.501ZM482.153 43.535V39.8838H493.106V43.535H482.153ZM519.248 58.1396V43.535H522.9V58.1396H519.248ZM504.644 72.7443V39.8838H519.248V43.535H508.295V58.1396H519.248V61.7908H508.295V72.7443H504.644ZM564.231 61.7908V43.535H560.58V39.8838H567.882V61.7908H564.231ZM564.231 32.5815V28.9303H567.882V32.5815H564.231ZM597.675 61.7908V43.535H601.327V61.7908H597.675ZM583.071 61.7908V39.8838H597.675V43.535H586.722V61.7908H583.071ZM649.96 58.1396V43.535H653.611V58.1396H649.96ZM635.355 72.7443V39.8838H649.96V43.535H639.007V58.1396H649.96V61.7908H639.007V72.7443H635.355ZM665.149 61.7908V58.1396H676.102V61.7908H665.149ZM661.498 58.1396V43.535H665.149V58.1396H661.498ZM676.102 58.1396V43.535H679.754V58.1396H676.102ZM665.149 43.535V39.8838H676.102V43.535H665.149ZM691.291 61.7908V58.1396H702.245V61.7908H691.291ZM687.64 58.1396V43.535H691.291V58.1396H687.64ZM702.245 58.1396V43.535H705.896V58.1396H702.245ZM691.291 43.535V39.8838H702.245V43.535H691.291ZM728.387 58.1396V43.535H732.038V58.1396H728.387ZM713.782 72.7443V39.8838H728.387V43.535H717.434V58.1396H728.387V61.7908H717.434V72.7443H713.782Z"/>
</mask>
<path d="M145.953 61.7908V36.2326H135V32.5815H160.558V36.2326H149.605V61.7908H145.953ZM179.398 47.1861V43.535H183.049V47.1861H179.398ZM164.793 61.7908V39.8838H168.445V43.535H172.096V47.1861H168.445V61.7908H164.793ZM172.096 43.535V39.8838H179.398V43.535H172.096ZM194.587 72.7443V69.0931H198.238V72.7443H194.587ZM198.238 69.0931V58.1396H201.889V69.0931H198.238ZM194.587 58.1396V47.1861H198.238V58.1396H194.587ZM201.889 58.1396V47.1861H205.54V58.1396H201.889ZM190.936 47.1861V39.8838H194.587V47.1861H190.936ZM205.54 47.1861V39.8838H209.192V47.1861H205.54ZM257.825 61.7908V43.535H261.476V61.7908H257.825ZM243.22 61.7908V39.8838H257.825V43.535H246.872V61.7908H243.22ZM273.014 61.7908V58.1396H283.967V61.7908H273.014ZM269.363 58.1396V43.535H273.014V58.1396H269.363ZM283.967 58.1396V43.535H287.619V58.1396H283.967ZM273.014 43.535V39.8838H283.967V43.535H273.014ZM302.807 61.7908V58.1396H313.761V61.7908H302.807ZM299.156 58.1396V32.5815H302.807V39.8838H313.761V43.535H302.807V58.1396H299.156ZM355.092 61.7908V58.1396H366.046V61.7908H355.092ZM351.441 58.1396V32.5815H355.092V39.8838H366.046V43.535H355.092V58.1396H351.441ZM377.583 61.7908V58.1396H388.537V61.7908H377.583ZM373.932 58.1396V43.535H377.583V58.1396H373.932ZM388.537 58.1396V43.535H392.188V58.1396H388.537ZM377.583 43.535V39.8838H388.537V43.535H377.583ZM426.217 61.7908V58.1396H440.821V61.7908H426.217ZM440.821 58.1396V54.4884H444.473V58.1396H440.821ZM437.17 54.4884V50.8373H440.821V54.4884H437.17ZM429.868 50.8373V47.1861H437.17V50.8373H429.868ZM426.217 47.1861V43.535H429.868V47.1861H426.217ZM429.868 43.535V39.8838H444.473V43.535H429.868ZM459.661 61.7908V58.1396H470.615V61.7908H459.661ZM456.01 58.1396V32.5815H459.661V39.8838H470.615V43.535H459.661V58.1396H456.01ZM482.153 61.7908V58.1396H493.106V61.7908H482.153ZM493.106 58.1396V54.4884H496.757V58.1396H493.106ZM478.501 58.1396V43.535H482.153V47.1861H493.106V43.535H496.757V50.8373H482.153V58.1396H478.501ZM482.153 43.535V39.8838H493.106V43.535H482.153ZM519.248 58.1396V43.535H522.9V58.1396H519.248ZM504.644 72.7443V39.8838H519.248V43.535H508.295V58.1396H519.248V61.7908H508.295V72.7443H504.644ZM564.231 61.7908V43.535H560.58V39.8838H567.882V61.7908H564.231ZM564.231 32.5815V28.9303H567.882V32.5815H564.231ZM597.675 61.7908V43.535H601.327V61.7908H597.675ZM583.071 61.7908V39.8838H597.675V43.535H586.722V61.7908H583.071ZM649.96 58.1396V43.535H653.611V58.1396H649.96ZM635.355 72.7443V39.8838H649.96V43.535H639.007V58.1396H649.96V61.7908H639.007V72.7443H635.355ZM665.149 61.7908V58.1396H676.102V61.7908H665.149ZM661.498 58.1396V43.535H665.149V58.1396H661.498ZM676.102 58.1396V43.535H679.754V58.1396H676.102ZM665.149 43.535V39.8838H676.102V43.535H665.149ZM691.291 61.7908V58.1396H702.245V61.7908H691.291ZM687.64 58.1396V43.535H691.291V58.1396H687.64ZM702.245 58.1396V43.535H705.896V58.1396H702.245ZM691.291 43.535V39.8838H702.245V43.535H691.291ZM728.387 58.1396V43.535H732.038V58.1396H728.387ZM713.782 72.7443V39.8838H728.387V43.535H717.434V58.1396H728.387V61.7908H717.434V72.7443H713.782Z" fill="#252840"/>
<path d="M145.953 61.7908H145.223V62.521H145.953V61.7908ZM145.953 36.2326H146.684V35.5024H145.953V36.2326ZM135 36.2326H134.27V36.9629H135V36.2326ZM135 32.5815V31.8512H134.27V32.5815H135ZM160.558 32.5815H161.288V31.8512H160.558V32.5815ZM160.558 36.2326V36.9629H161.288V36.2326H160.558ZM149.605 36.2326V35.5024H148.874V36.2326H149.605ZM149.605 61.7908V62.521H150.335V61.7908H149.605ZM146.684 61.7908V36.2326H145.223V61.7908H146.684ZM145.953 35.5024H135V36.9629H145.953V35.5024ZM135.73 36.2326V32.5815H134.27V36.2326H135.73ZM135 33.3117H160.558V31.8512H135V33.3117ZM159.828 32.5815V36.2326H161.288V32.5815H159.828ZM160.558 35.5024H149.605V36.9629H160.558V35.5024ZM148.874 36.2326V61.7908H150.335V36.2326H148.874ZM149.605 61.0605H145.953V62.521H149.605V61.0605ZM179.398 47.1861H178.668V47.9164H179.398V47.1861ZM179.398 43.535V42.8047H178.668V43.535H179.398ZM183.049 43.535H183.78V42.8047H183.049V43.535ZM183.049 47.1861V47.9164H183.78V47.1861H183.049ZM164.793 61.7908H164.063V62.521H164.793V61.7908ZM164.793 39.8838V39.1536H164.063V39.8838H164.793ZM168.445 39.8838H169.175V39.1536H168.445V39.8838ZM168.445 43.535H167.714V44.2652H168.445V43.535ZM172.096 43.535H172.826V42.8047H172.096V43.535ZM172.096 47.1861V47.9164H172.826V47.1861H172.096ZM168.445 47.1861V46.4559H167.714V47.1861H168.445ZM168.445 61.7908V62.521H169.175V61.7908H168.445ZM172.096 43.535H171.366V44.2652H172.096V43.535ZM172.096 39.8838V39.1536H171.366V39.8838H172.096ZM179.398 39.8838H180.128V39.1536H179.398V39.8838ZM179.398 43.535V44.2652H180.128V43.535H179.398ZM180.128 47.1861V43.535H178.668V47.1861H180.128ZM179.398 44.2652H183.049V42.8047H179.398V44.2652ZM182.319 43.535V47.1861H183.78V43.535H182.319ZM183.049 46.4559H179.398V47.9164H183.049V46.4559ZM165.524 61.7908V39.8838H164.063V61.7908H165.524ZM164.793 40.614H168.445V39.1536H164.793V40.614ZM167.714 39.8838V43.535H169.175V39.8838H167.714ZM168.445 44.2652H172.096V42.8047H168.445V44.2652ZM171.366 43.535V47.1861H172.826V43.535H171.366ZM172.096 46.4559H168.445V47.9164H172.096V46.4559ZM167.714 47.1861V61.7908H169.175V47.1861H167.714ZM168.445 61.0605H164.793V62.521H168.445V61.0605ZM172.826 43.535V39.8838H171.366V43.535H172.826ZM172.096 40.614H179.398V39.1536H172.096V40.614ZM178.668 39.8838V43.535H180.128V39.8838H178.668ZM179.398 42.8047H172.096V44.2652H179.398V42.8047ZM194.587 72.7443H193.857V73.4745H194.587V72.7443ZM194.587 69.0931V68.3629H193.857V69.0931H194.587ZM198.238 69.0931H198.968V68.3629H198.238V69.0931ZM198.238 72.7443V73.4745H198.968V72.7443H198.238ZM198.238 69.0931H197.508V69.8233H198.238V69.0931ZM198.238 58.1396V57.4094H197.508V58.1396H198.238ZM201.889 58.1396H202.62V57.4094H201.889V58.1396ZM201.889 69.0931V69.8233H202.62V69.0931H201.889ZM194.587 58.1396H193.857V58.8698H194.587V58.1396ZM194.587 47.1861V46.4559H193.857V47.1861H194.587ZM198.238 47.1861H198.968V46.4559H198.238V47.1861ZM198.238 58.1396V58.8698H198.968V58.1396H198.238ZM201.889 58.1396H201.159V58.8698H201.889V58.1396ZM201.889 47.1861V46.4559H201.159V47.1861H201.889ZM205.54 47.1861H206.271V46.4559H205.54V47.1861ZM205.54 58.1396V58.8698H206.271V58.1396H205.54ZM190.936 47.1861H190.206V47.9164H190.936V47.1861ZM190.936 39.8838V39.1536H190.206V39.8838H190.936ZM194.587 39.8838H195.317V39.1536H194.587V39.8838ZM194.587 47.1861V47.9164H195.317V47.1861H194.587ZM205.54 47.1861H204.81V47.9164H205.54V47.1861ZM205.54 39.8838V39.1536H204.81V39.8838H205.54ZM209.192 39.8838H209.922V39.1536H209.192V39.8838ZM209.192 47.1861V47.9164H209.922V47.1861H209.192ZM195.317 72.7443V69.0931H193.857V72.7443H195.317ZM194.587 69.8233H198.238V68.3629H194.587V69.8233ZM197.508 69.0931V72.7443H198.968V69.0931H197.508ZM198.238 72.014H194.587V73.4745H198.238V72.014ZM198.968 69.0931V58.1396H197.508V69.0931H198.968ZM198.238 58.8698H201.889V57.4094H198.238V58.8698ZM201.159 58.1396V69.0931H202.62V58.1396H201.159ZM201.889 68.3629H198.238V69.8233H201.889V68.3629ZM195.317 58.1396V47.1861H193.857V58.1396H195.317ZM194.587 47.9164H198.238V46.4559H194.587V47.9164ZM197.508 47.1861V58.1396H198.968V47.1861H197.508ZM198.238 57.4094H194.587V58.8698H198.238V57.4094ZM202.62 58.1396V47.1861H201.159V58.1396H202.62ZM201.889 47.9164H205.54V46.4559H201.889V47.9164ZM204.81 47.1861V58.1396H206.271V47.1861H204.81ZM205.54 57.4094H201.889V58.8698H205.54V57.4094ZM191.666 47.1861V39.8838H190.206V47.1861H191.666ZM190.936 40.614H194.587V39.1536H190.936V40.614ZM193.857 39.8838V47.1861H195.317V39.8838H193.857ZM194.587 46.4559H190.936V47.9164H194.587V46.4559ZM206.271 47.1861V39.8838H204.81V47.1861H206.271ZM205.54 40.614H209.192V39.1536H205.54V40.614ZM208.461 39.8838V47.1861H209.922V39.8838H208.461ZM209.192 46.4559H205.54V47.9164H209.192V46.4559ZM257.825 61.7908H257.095V62.521H257.825V61.7908ZM257.825 43.535V42.8047H257.095V43.535H257.825ZM261.476 43.535H262.207V42.8047H261.476V43.535ZM261.476 61.7908V62.521H262.207V61.7908H261.476ZM243.22 61.7908H242.49V62.521H243.22V61.7908ZM243.22 39.8838V39.1536H242.49V39.8838H243.22ZM257.825 39.8838H258.555V39.1536H257.825V39.8838ZM257.825 43.535V44.2652H258.555V43.535H257.825ZM246.872 43.535V42.8047H246.141V43.535H246.872ZM246.872 61.7908V62.521H247.602V61.7908H246.872ZM258.555 61.7908V43.535H257.095V61.7908H258.555ZM257.825 44.2652H261.476V42.8047H257.825V44.2652ZM260.746 43.535V61.7908H262.207V43.535H260.746ZM261.476 61.0605H257.825V62.521H261.476V61.0605ZM243.951 61.7908V39.8838H242.49V61.7908H243.951ZM243.22 40.614H257.825V39.1536H243.22V40.614ZM257.095 39.8838V43.535H258.555V39.8838H257.095ZM257.825 42.8047H246.872V44.2652H257.825V42.8047ZM246.141 43.535V61.7908H247.602V43.535H246.141ZM246.872 61.0605H243.22V62.521H246.872V61.0605ZM273.014 61.7908H272.284V62.521H273.014V61.7908ZM273.014 58.1396V57.4094H272.284V58.1396H273.014ZM283.967 58.1396H284.698V57.4094H283.967V58.1396ZM283.967 61.7908V62.521H284.698V61.7908H283.967ZM269.363 58.1396H268.633V58.8698H269.363V58.1396ZM269.363 43.535V42.8047H268.633V43.535H269.363ZM273.014 43.535H273.744V42.8047H273.014V43.535ZM273.014 58.1396V58.8698H273.744V58.1396H273.014ZM283.967 58.1396H283.237V58.8698H283.967V58.1396ZM283.967 43.535V42.8047H283.237V43.535H283.967ZM287.619 43.535H288.349V42.8047H287.619V43.535ZM287.619 58.1396V58.8698H288.349V58.1396H287.619ZM273.014 43.535H272.284V44.2652H273.014V43.535ZM273.014 39.8838V39.1536H272.284V39.8838H273.014ZM283.967 39.8838H284.698V39.1536H283.967V39.8838ZM283.967 43.535V44.2652H284.698V43.535H283.967ZM273.744 61.7908V58.1396H272.284V61.7908H273.744ZM273.014 58.8698H283.967V57.4094H273.014V58.8698ZM283.237 58.1396V61.7908H284.698V58.1396H283.237ZM283.967 61.0605H273.014V62.521H283.967V61.0605ZM270.093 58.1396V43.535H268.633V58.1396H270.093ZM269.363 44.2652H273.014V42.8047H269.363V44.2652ZM272.284 43.535V58.1396H273.744V43.535H272.284ZM273.014 57.4094H269.363V58.8698H273.014V57.4094ZM284.698 58.1396V43.535H283.237V58.1396H284.698ZM283.967 44.2652H287.619V42.8047H283.967V44.2652ZM286.888 43.535V58.1396H288.349V43.535H286.888ZM287.619 57.4094H283.967V58.8698H287.619V57.4094ZM273.744 43.535V39.8838H272.284V43.535H273.744ZM273.014 40.614H283.967V39.1536H273.014V40.614ZM283.237 39.8838V43.535H284.698V39.8838H283.237ZM283.967 42.8047H273.014V44.2652H283.967V42.8047ZM302.807 61.7908H302.077V62.521H302.807V61.7908ZM302.807 58.1396V57.4094H302.077V58.1396H302.807ZM313.761 58.1396H314.491V57.4094H313.761V58.1396ZM313.761 61.7908V62.521H314.491V61.7908H313.761ZM299.156 58.1396H298.426V58.8698H299.156V58.1396ZM299.156 32.5815V31.8512H298.426V32.5815H299.156ZM302.807 32.5815H303.538V31.8512H302.807V32.5815ZM302.807 39.8838H302.077V40.614H302.807V39.8838ZM313.761 39.8838H314.491V39.1536H313.761V39.8838ZM313.761 43.535V44.2652H314.491V43.535H313.761ZM302.807 43.535V42.8047H302.077V43.535H302.807ZM302.807 58.1396V58.8698H303.538V58.1396H302.807ZM303.538 61.7908V58.1396H302.077V61.7908H303.538ZM302.807 58.8698H313.761V57.4094H302.807V58.8698ZM313.031 58.1396V61.7908H314.491V58.1396H313.031ZM313.761 61.0605H302.807V62.521H313.761V61.0605ZM299.887 58.1396V32.5815H298.426V58.1396H299.887ZM299.156 33.3117H302.807V31.8512H299.156V33.3117ZM302.077 32.5815V39.8838H303.538V32.5815H302.077ZM302.807 40.614H313.761V39.1536H302.807V40.614ZM313.031 39.8838V43.535H314.491V39.8838H313.031ZM313.761 42.8047H302.807V44.2652H313.761V42.8047ZM302.077 43.535V58.1396H303.538V43.535H302.077ZM302.807 57.4094H299.156V58.8698H302.807V57.4094ZM355.092 61.7908H354.362V62.521H355.092V61.7908ZM355.092 58.1396V57.4094H354.362V58.1396H355.092ZM366.046 58.1396H366.776V57.4094H366.046V58.1396ZM366.046 61.7908V62.521H366.776V61.7908H366.046ZM351.441 58.1396H350.711V58.8698H351.441V58.1396ZM351.441 32.5815V31.8512H350.711V32.5815H351.441ZM355.092 32.5815H355.822V31.8512H355.092V32.5815ZM355.092 39.8838H354.362V40.614H355.092V39.8838ZM366.046 39.8838H366.776V39.1536H366.046V39.8838ZM366.046 43.535V44.2652H366.776V43.535H366.046ZM355.092 43.535V42.8047H354.362V43.535H355.092ZM355.092 58.1396V58.8698H355.822V58.1396H355.092ZM355.822 61.7908V58.1396H354.362V61.7908H355.822ZM355.092 58.8698H366.046V57.4094H355.092V58.8698ZM365.315 58.1396V61.7908H366.776V58.1396H365.315ZM366.046 61.0605H355.092V62.521H366.046V61.0605ZM352.171 58.1396V32.5815H350.711V58.1396H352.171ZM351.441 33.3117H355.092V31.8512H351.441V33.3117ZM354.362 32.5815V39.8838H355.822V32.5815H354.362ZM355.092 40.614H366.046V39.1536H355.092V40.614ZM365.315 39.8838V43.535H366.776V39.8838H365.315ZM366.046 42.8047H355.092V44.2652H366.046V42.8047ZM354.362 43.535V58.1396H355.822V43.535H354.362ZM355.092 57.4094H351.441V58.8698H355.092V57.4094ZM377.583 61.7908H376.853V62.521H377.583V61.7908ZM377.583 58.1396V57.4094H376.853V58.1396H377.583ZM388.537 58.1396H389.267V57.4094H388.537V58.1396ZM388.537 61.7908V62.521H389.267V61.7908H388.537ZM373.932 58.1396H373.202V58.8698H373.932V58.1396ZM373.932 43.535V42.8047H373.202V43.535H373.932ZM377.583 43.535H378.314V42.8047H377.583V43.535ZM377.583 58.1396V58.8698H378.314V58.1396H377.583ZM388.537 58.1396H387.807V58.8698H388.537V58.1396ZM388.537 43.535V42.8047H387.807V43.535H388.537ZM392.188 43.535H392.918V42.8047H392.188V43.535ZM392.188 58.1396V58.8698H392.918V58.1396H392.188ZM377.583 43.535H376.853V44.2652H377.583V43.535ZM377.583 39.8838V39.1536H376.853V39.8838H377.583ZM388.537 39.8838H389.267V39.1536H388.537V39.8838ZM388.537 43.535V44.2652H389.267V43.535H388.537ZM378.314 61.7908V58.1396H376.853V61.7908H378.314ZM377.583 58.8698H388.537V57.4094H377.583V58.8698ZM387.807 58.1396V61.7908H389.267V58.1396H387.807ZM388.537 61.0605H377.583V62.521H388.537V61.0605ZM374.662 58.1396V43.535H373.202V58.1396H374.662ZM373.932 44.2652H377.583V42.8047H373.932V44.2652ZM376.853 43.535V58.1396H378.314V43.535H376.853ZM377.583 57.4094H373.932V58.8698H377.583V57.4094ZM389.267 58.1396V43.535H387.807V58.1396H389.267ZM388.537 44.2652H392.188V42.8047H388.537V44.2652ZM391.458 43.535V58.1396H392.918V43.535H391.458ZM392.188 57.4094H388.537V58.8698H392.188V57.4094ZM378.314 43.535V39.8838H376.853V43.535H378.314ZM377.583 40.614H388.537V39.1536H377.583V40.614ZM387.807 39.8838V43.535H389.267V39.8838H387.807ZM388.537 42.8047H377.583V44.2652H388.537V42.8047ZM426.217 61.7908H425.487V62.521H426.217V61.7908ZM426.217 58.1396V57.4094H425.487V58.1396H426.217ZM440.821 58.1396H441.552V57.4094H440.821V58.1396ZM440.821 61.7908V62.521H441.552V61.7908H440.821ZM440.821 58.1396H440.091V58.8698H440.821V58.1396ZM440.821 54.4884V53.7582H440.091V54.4884H440.821ZM444.473 54.4884H445.203V53.7582H444.473V54.4884ZM444.473 58.1396V58.8698H445.203V58.1396H444.473ZM437.17 54.4884H436.44V55.2187H437.17V54.4884ZM437.17 50.8373V50.107H436.44V50.8373H437.17ZM440.821 50.8373H441.552V50.107H440.821V50.8373ZM440.821 54.4884V55.2187H441.552V54.4884H440.821ZM429.868 50.8373H429.138V51.5675H429.868V50.8373ZM429.868 47.1861V46.4559H429.138V47.1861H429.868ZM437.17 47.1861H437.901V46.4559H437.17V47.1861ZM437.17 50.8373V51.5675H437.901V50.8373H437.17ZM426.217 47.1861H425.487V47.9164H426.217V47.1861ZM426.217 43.535V42.8047H425.487V43.535H426.217ZM429.868 43.535H430.598V42.8047H429.868V43.535ZM429.868 47.1861V47.9164H430.598V47.1861H429.868ZM429.868 43.535H429.138V44.2652H429.868V43.535ZM429.868 39.8838V39.1536H429.138V39.8838H429.868ZM444.473 39.8838H445.203V39.1536H444.473V39.8838ZM444.473 43.535V44.2652H445.203V43.535H444.473ZM426.947 61.7908V58.1396H425.487V61.7908H426.947ZM426.217 58.8698H440.821V57.4094H426.217V58.8698ZM440.091 58.1396V61.7908H441.552V58.1396H440.091ZM440.821 61.0605H426.217V62.521H440.821V61.0605ZM441.552 58.1396V54.4884H440.091V58.1396H441.552ZM440.821 55.2187H444.473V53.7582H440.821V55.2187ZM443.742 54.4884V58.1396H445.203V54.4884H443.742ZM444.473 57.4094H440.821V58.8698H444.473V57.4094ZM437.901 54.4884V50.8373H436.44V54.4884H437.901ZM437.17 51.5675H440.821V50.107H437.17V51.5675ZM440.091 50.8373V54.4884H441.552V50.8373H440.091ZM440.821 53.7582H437.17V55.2187H440.821V53.7582ZM430.598 50.8373V47.1861H429.138V50.8373H430.598ZM429.868 47.9164H437.17V46.4559H429.868V47.9164ZM436.44 47.1861V50.8373H437.901V47.1861H436.44ZM437.17 50.107H429.868V51.5675H437.17V50.107ZM426.947 47.1861V43.535H425.487V47.1861H426.947ZM426.217 44.2652H429.868V42.8047H426.217V44.2652ZM429.138 43.535V47.1861H430.598V43.535H429.138ZM429.868 46.4559H426.217V47.9164H429.868V46.4559ZM430.598 43.535V39.8838H429.138V43.535H430.598ZM429.868 40.614H444.473V39.1536H429.868V40.614ZM443.742 39.8838V43.535H445.203V39.8838H443.742ZM444.473 42.8047H429.868V44.2652H444.473V42.8047ZM459.661 61.7908H458.931V62.521H459.661V61.7908ZM459.661 58.1396V57.4094H458.931V58.1396H459.661ZM470.615 58.1396H471.345V57.4094H470.615V58.1396ZM470.615 61.7908V62.521H471.345V61.7908H470.615ZM456.01 58.1396H455.28V58.8698H456.01V58.1396ZM456.01 32.5815V31.8512H455.28V32.5815H456.01ZM459.661 32.5815H460.392V31.8512H459.661V32.5815ZM459.661 39.8838H458.931V40.614H459.661V39.8838ZM470.615 39.8838H471.345V39.1536H470.615V39.8838ZM470.615 43.535V44.2652H471.345V43.535H470.615ZM459.661 43.535V42.8047H458.931V43.535H459.661ZM459.661 58.1396V58.8698H460.392V58.1396H459.661ZM460.392 61.7908V58.1396H458.931V61.7908H460.392ZM459.661 58.8698H470.615V57.4094H459.661V58.8698ZM469.885 58.1396V61.7908H471.345V58.1396H469.885ZM470.615 61.0605H459.661V62.521H470.615V61.0605ZM456.741 58.1396V32.5815H455.28V58.1396H456.741ZM456.01 33.3117H459.661V31.8512H456.01V33.3117ZM458.931 32.5815V39.8838H460.392V32.5815H458.931ZM459.661 40.614H470.615V39.1536H459.661V40.614ZM469.885 39.8838V43.535H471.345V39.8838H469.885ZM470.615 42.8047H459.661V44.2652H470.615V42.8047ZM458.931 43.535V58.1396H460.392V43.535H458.931ZM459.661 57.4094H456.01V58.8698H459.661V57.4094ZM482.153 61.7908H481.422V62.521H482.153V61.7908ZM482.153 58.1396V57.4094H481.422V58.1396H482.153ZM493.106 58.1396H493.836V57.4094H493.106V58.1396ZM493.106 61.7908V62.521H493.836V61.7908H493.106ZM493.106 58.1396H492.376V58.8698H493.106V58.1396ZM493.106 54.4884V53.7582H492.376V54.4884H493.106ZM496.757 54.4884H497.487V53.7582H496.757V54.4884ZM496.757 58.1396V58.8698H497.487V58.1396H496.757ZM478.501 58.1396H477.771V58.8698H478.501V58.1396ZM478.501 43.535V42.8047H477.771V43.535H478.501ZM482.153 43.535H482.883V42.8047H482.153V43.535ZM482.153 47.1861H481.422V47.9164H482.153V47.1861ZM493.106 47.1861V47.9164H493.836V47.1861H493.106ZM493.106 43.535V42.8047H492.376V43.535H493.106ZM496.757 43.535H497.487V42.8047H496.757V43.535ZM496.757 50.8373V51.5675H497.487V50.8373H496.757ZM482.153 50.8373V50.107H481.422V50.8373H482.153ZM482.153 58.1396V58.8698H482.883V58.1396H482.153ZM482.153 43.535H481.422V44.2652H482.153V43.535ZM482.153 39.8838V39.1536H481.422V39.8838H482.153ZM493.106 39.8838H493.836V39.1536H493.106V39.8838ZM493.106 43.535V44.2652H493.836V43.535H493.106ZM482.883 61.7908V58.1396H481.422V61.7908H482.883ZM482.153 58.8698H493.106V57.4094H482.153V58.8698ZM492.376 58.1396V61.7908H493.836V58.1396H492.376ZM493.106 61.0605H482.153V62.521H493.106V61.0605ZM493.836 58.1396V54.4884H492.376V58.1396H493.836ZM493.106 55.2187H496.757V53.7582H493.106V55.2187ZM496.027 54.4884V58.1396H497.487V54.4884H496.027ZM496.757 57.4094H493.106V58.8698H496.757V57.4094ZM479.232 58.1396V43.535H477.771V58.1396H479.232ZM478.501 44.2652H482.153V42.8047H478.501V44.2652ZM481.422 43.535V47.1861H482.883V43.535H481.422ZM482.153 47.9164H493.106V46.4559H482.153V47.9164ZM493.836 47.1861V43.535H492.376V47.1861H493.836ZM493.106 44.2652H496.757V42.8047H493.106V44.2652ZM496.027 43.535V50.8373H497.487V43.535H496.027ZM496.757 50.107H482.153V51.5675H496.757V50.107ZM481.422 50.8373V58.1396H482.883V50.8373H481.422ZM482.153 57.4094H478.501V58.8698H482.153V57.4094ZM482.883 43.535V39.8838H481.422V43.535H482.883ZM482.153 40.614H493.106V39.1536H482.153V40.614ZM492.376 39.8838V43.535H493.836V39.8838H492.376ZM493.106 42.8047H482.153V44.2652H493.106V42.8047ZM519.248 58.1396H518.518V58.8698H519.248V58.1396ZM519.248 43.535V42.8047H518.518V43.535H519.248ZM522.9 43.535H523.63V42.8047H522.9V43.535ZM522.9 58.1396V58.8698H523.63V58.1396H522.9ZM504.644 72.7443H503.914V73.4745H504.644V72.7443ZM504.644 39.8838V39.1536H503.914V39.8838H504.644ZM519.248 39.8838H519.979V39.1536H519.248V39.8838ZM519.248 43.535V44.2652H519.979V43.535H519.248ZM508.295 43.535V42.8047H507.565V43.535H508.295ZM508.295 58.1396H507.565V58.8698H508.295V58.1396ZM519.248 58.1396H519.979V57.4094H519.248V58.1396ZM519.248 61.7908V62.521H519.979V61.7908H519.248ZM508.295 61.7908V61.0605H507.565V61.7908H508.295ZM508.295 72.7443V73.4745H509.025V72.7443H508.295ZM519.979 58.1396V43.535H518.518V58.1396H519.979ZM519.248 44.2652H522.9V42.8047H519.248V44.2652ZM522.169 43.535V58.1396H523.63V43.535H522.169ZM522.9 57.4094H519.248V58.8698H522.9V57.4094ZM505.374 72.7443V39.8838H503.914V72.7443H505.374ZM504.644 40.614H519.248V39.1536H504.644V40.614ZM518.518 39.8838V43.535H519.979V39.8838H518.518ZM519.248 42.8047H508.295V44.2652H519.248V42.8047ZM507.565 43.535V58.1396H509.025V43.535H507.565ZM508.295 58.8698H519.248V57.4094H508.295V58.8698ZM518.518 58.1396V61.7908H519.979V58.1396H518.518ZM519.248 61.0605H508.295V62.521H519.248V61.0605ZM507.565 61.7908V72.7443H509.025V61.7908H507.565ZM508.295 72.014H504.644V73.4745H508.295V72.014ZM564.231 61.7908H563.501V62.521H564.231V61.7908ZM564.231 43.535H564.961V42.8047H564.231V43.535ZM560.58 43.535H559.849V44.2652H560.58V43.535ZM560.58 39.8838V39.1536H559.849V39.8838H560.58ZM567.882 39.8838H568.612V39.1536H567.882V39.8838ZM567.882 61.7908V62.521H568.612V61.7908H567.882ZM564.231 32.5815H563.501V33.3117H564.231V32.5815ZM564.231 28.9303V28.2001H563.501V28.9303H564.231ZM567.882 28.9303H568.612V28.2001H567.882V28.9303ZM567.882 32.5815V33.3117H568.612V32.5815H567.882ZM564.961 61.7908V43.535H563.501V61.7908H564.961ZM564.231 42.8047H560.58V44.2652H564.231V42.8047ZM561.31 43.535V39.8838H559.849V43.535H561.31ZM560.58 40.614H567.882V39.1536H560.58V40.614ZM567.152 39.8838V61.7908H568.612V39.8838H567.152ZM567.882 61.0605H564.231V62.521H567.882V61.0605ZM564.961 32.5815V28.9303H563.501V32.5815H564.961ZM564.231 29.6605H567.882V28.2001H564.231V29.6605ZM567.152 28.9303V32.5815H568.612V28.9303H567.152ZM567.882 31.8512H564.231V33.3117H567.882V31.8512ZM597.675 61.7908H596.945V62.521H597.675V61.7908ZM597.675 43.535V42.8047H596.945V43.535H597.675ZM601.327 43.535H602.057V42.8047H601.327V43.535ZM601.327 61.7908V62.521H602.057V61.7908H601.327ZM583.071 61.7908H582.341V62.521H583.071V61.7908ZM583.071 39.8838V39.1536H582.341V39.8838H583.071ZM597.675 39.8838H598.406V39.1536H597.675V39.8838ZM597.675 43.535V44.2652H598.406V43.535H597.675ZM586.722 43.535V42.8047H585.992V43.535H586.722ZM586.722 61.7908V62.521H587.452V61.7908H586.722ZM598.406 61.7908V43.535H596.945V61.7908H598.406ZM597.675 44.2652H601.327V42.8047H597.675V44.2652ZM600.596 43.535V61.7908H602.057V43.535H600.596ZM601.327 61.0605H597.675V62.521H601.327V61.0605ZM583.801 61.7908V39.8838H582.341V61.7908H583.801ZM583.071 40.614H597.675V39.1536H583.071V40.614ZM596.945 39.8838V43.535H598.406V39.8838H596.945ZM597.675 42.8047H586.722V44.2652H597.675V42.8047ZM585.992 43.535V61.7908H587.452V43.535H585.992ZM586.722 61.0605H583.071V62.521H586.722V61.0605ZM649.96 58.1396H649.23V58.8698H649.96V58.1396ZM649.96 43.535V42.8047H649.23V43.535H649.96ZM653.611 43.535H654.341V42.8047H653.611V43.535ZM653.611 58.1396V58.8698H654.341V58.1396H653.611ZM635.355 72.7443H634.625V73.4745H635.355V72.7443ZM635.355 39.8838V39.1536H634.625V39.8838H635.355ZM649.96 39.8838H650.69V39.1536H649.96V39.8838ZM649.96 43.535V44.2652H650.69V43.535H649.96ZM639.007 43.535V42.8047H638.276V43.535H639.007ZM639.007 58.1396H638.276V58.8698H639.007V58.1396ZM649.96 58.1396H650.69V57.4094H649.96V58.1396ZM649.96 61.7908V62.521H650.69V61.7908H649.96ZM639.007 61.7908V61.0605H638.276V61.7908H639.007ZM639.007 72.7443V73.4745H639.737V72.7443H639.007ZM650.69 58.1396V43.535H649.23V58.1396H650.69ZM649.96 44.2652H653.611V42.8047H649.96V44.2652ZM652.881 43.535V58.1396H654.341V43.535H652.881ZM653.611 57.4094H649.96V58.8698H653.611V57.4094ZM636.086 72.7443V39.8838H634.625V72.7443H636.086ZM635.355 40.614H649.96V39.1536H635.355V40.614ZM649.23 39.8838V43.535H650.69V39.8838H649.23ZM649.96 42.8047H639.007V44.2652H649.96V42.8047ZM638.276 43.535V58.1396H639.737V43.535H638.276ZM639.007 58.8698H649.96V57.4094H639.007V58.8698ZM649.23 58.1396V61.7908H650.69V58.1396H649.23ZM649.96 61.0605H639.007V62.521H649.96V61.0605ZM638.276 61.7908V72.7443H639.737V61.7908H638.276ZM639.007 72.014H635.355V73.4745H639.007V72.014ZM665.149 61.7908H664.419V62.521H665.149V61.7908ZM665.149 58.1396V57.4094H664.419V58.1396H665.149ZM676.102 58.1396H676.833V57.4094H676.102V58.1396ZM676.102 61.7908V62.521H676.833V61.7908H676.102ZM661.498 58.1396H660.768V58.8698H661.498V58.1396ZM661.498 43.535V42.8047H660.768V43.535H661.498ZM665.149 43.535H665.879V42.8047H665.149V43.535ZM665.149 58.1396V58.8698H665.879V58.1396H665.149ZM676.102 58.1396H675.372V58.8698H676.102V58.1396ZM676.102 43.535V42.8047H675.372V43.535H676.102ZM679.754 43.535H680.484V42.8047H679.754V43.535ZM679.754 58.1396V58.8698H680.484V58.1396H679.754ZM665.149 43.535H664.419V44.2652H665.149V43.535ZM665.149 39.8838V39.1536H664.419V39.8838H665.149ZM676.102 39.8838H676.833V39.1536H676.102V39.8838ZM676.102 43.535V44.2652H676.833V43.535H676.102ZM665.879 61.7908V58.1396H664.419V61.7908H665.879ZM665.149 58.8698H676.102V57.4094H665.149V58.8698ZM675.372 58.1396V61.7908H676.833V58.1396H675.372ZM676.102 61.0605H665.149V62.521H676.102V61.0605ZM662.228 58.1396V43.535H660.768V58.1396H662.228ZM661.498 44.2652H665.149V42.8047H661.498V44.2652ZM664.419 43.535V58.1396H665.879V43.535H664.419ZM665.149 57.4094H661.498V58.8698H665.149V57.4094ZM676.833 58.1396V43.535H675.372V58.1396H676.833ZM676.102 44.2652H679.754V42.8047H676.102V44.2652ZM679.023 43.535V58.1396H680.484V43.535H679.023ZM679.754 57.4094H676.102V58.8698H679.754V57.4094ZM665.879 43.535V39.8838H664.419V43.535H665.879ZM665.149 40.614H676.102V39.1536H665.149V40.614ZM675.372 39.8838V43.535H676.833V39.8838H675.372ZM676.102 42.8047H665.149V44.2652H676.102V42.8047ZM691.291 61.7908H690.561V62.521H691.291V61.7908ZM691.291 58.1396V57.4094H690.561V58.1396H691.291ZM702.245 58.1396H702.975V57.4094H702.245V58.1396ZM702.245 61.7908V62.521H702.975V61.7908H702.245ZM687.64 58.1396H686.91V58.8698H687.64V58.1396ZM687.64 43.535V42.8047H686.91V43.535H687.64ZM691.291 43.535H692.021V42.8047H691.291V43.535ZM691.291 58.1396V58.8698H692.021V58.1396H691.291ZM702.245 58.1396H701.514V58.8698H702.245V58.1396ZM702.245 43.535V42.8047H701.514V43.535H702.245ZM705.896 43.535H706.626V42.8047H705.896V43.535ZM705.896 58.1396V58.8698H706.626V58.1396H705.896ZM691.291 43.535H690.561V44.2652H691.291V43.535ZM691.291 39.8838V39.1536H690.561V39.8838H691.291ZM702.245 39.8838H702.975V39.1536H702.245V39.8838ZM702.245 43.535V44.2652H702.975V43.535H702.245ZM692.021 61.7908V58.1396H690.561V61.7908H692.021ZM691.291 58.8698H702.245V57.4094H691.291V58.8698ZM701.514 58.1396V61.7908H702.975V58.1396H701.514ZM702.245 61.0605H691.291V62.521H702.245V61.0605ZM688.37 58.1396V43.535H686.91V58.1396H688.37ZM687.64 44.2652H691.291V42.8047H687.64V44.2652ZM690.561 43.535V58.1396H692.021V43.535H690.561ZM691.291 57.4094H687.64V58.8698H691.291V57.4094ZM702.975 58.1396V43.535H701.514V58.1396H702.975ZM702.245 44.2652H705.896V42.8047H702.245V44.2652ZM705.166 43.535V58.1396H706.626V43.535H705.166ZM705.896 57.4094H702.245V58.8698H705.896V57.4094ZM692.021 43.535V39.8838H690.561V43.535H692.021ZM691.291 40.614H702.245V39.1536H691.291V40.614ZM701.514 39.8838V43.535H702.975V39.8838H701.514ZM702.245 42.8047H691.291V44.2652H702.245V42.8047ZM728.387 58.1396H727.657V58.8698H728.387V58.1396ZM728.387 43.535V42.8047H727.657V43.535H728.387ZM732.038 43.535H732.768V42.8047H732.038V43.535ZM732.038 58.1396V58.8698H732.768V58.1396H732.038ZM713.782 72.7443H713.052V73.4745H713.782V72.7443ZM713.782 39.8838V39.1536H713.052V39.8838H713.782ZM728.387 39.8838H729.117V39.1536H728.387V39.8838ZM728.387 43.535V44.2652H729.117V43.535H728.387ZM717.434 43.535V42.8047H716.703V43.535H717.434ZM717.434 58.1396H716.703V58.8698H717.434V58.1396ZM728.387 58.1396H729.117V57.4094H728.387V58.1396ZM728.387 61.7908V62.521H729.117V61.7908H728.387ZM717.434 61.7908V61.0605H716.703V61.7908H717.434ZM717.434 72.7443V73.4745H718.164V72.7443H717.434ZM729.117 58.1396V43.535H727.657V58.1396H729.117ZM728.387 44.2652H732.038V42.8047H728.387V44.2652ZM731.308 43.535V58.1396H732.768V43.535H731.308ZM732.038 57.4094H728.387V58.8698H732.038V57.4094ZM714.513 72.7443V39.8838H713.052V72.7443H714.513ZM713.782 40.614H728.387V39.1536H713.782V40.614ZM727.657 39.8838V43.535H729.117V39.8838H727.657ZM728.387 42.8047H717.434V44.2652H728.387V42.8047ZM716.703 43.535V58.1396H718.164V43.535H716.703ZM717.434 58.8698H728.387V57.4094H717.434V58.8698ZM727.657 58.1396V61.7908H729.117V58.1396H727.657ZM728.387 61.0605H717.434V62.521H728.387V61.0605ZM716.703 61.7908V72.7443H718.164V61.7908H716.703ZM717.434 72.014H713.782V73.4745H717.434V72.014Z" fill="#252840" mask="url(#path-1-outside-1_6_1914)"/>
<rect x="1278" width="13" height="103" fill="#B9A597"/>
<rect x="1291" y="90" width="13.0001" height="1291" transform="rotate(90 1291 90)" fill="#B9A597"/>
</svg>
