<svg width="1291" height="103" viewBox="0 0 1291 103" fill="none" xmlns="http://www.w3.org/2000/svg">
<rect width="1291" height="103" fill="white"/>
<mask id="path-1-outside-1_6_1899" maskUnits="userSpaceOnUse" x="136" y="28" width="622" height="46" fill="black">
<rect fill="white" x="136" y="28" width="622" height="46"/>
<path d="M152.256 47.3953V36.4419H155.907V47.3953H152.256ZM137.651 62V32.7907H152.256V36.4419H141.302V47.3953H152.256V51.0465H141.302V62H137.651ZM167.445 62V58.3488H178.398V62H167.445ZM178.398 58.3488V54.6977H182.049V58.3488H178.398ZM163.793 58.3488V43.7442H167.445V47.3953H178.398V43.7442H182.049V51.0465H167.445V58.3488H163.793ZM167.445 43.7442V40.093H178.398V43.7442H167.445ZM204.54 47.3953V43.7442H208.192V47.3953H204.54ZM189.936 62V40.093H193.587V43.7442H197.238V47.3953H193.587V62H189.936ZM197.238 43.7442V40.093H204.54V43.7442H197.238ZM216.078 62V58.3488H230.683V62H216.078ZM230.683 58.3488V54.6977H234.334V58.3488H230.683ZM227.032 54.6977V51.0465H230.683V54.6977H227.032ZM219.729 51.0465V47.3953H227.032V51.0465H219.729ZM216.078 47.3953V43.7442H219.729V47.3953H216.078ZM219.729 43.7442V40.093H234.334V43.7442H219.729ZM268.363 58.3488V51.0465H272.014V58.3488H268.363ZM272.014 62V58.3488H282.967V51.0465H272.014V47.3953H282.967V43.7442H286.619V62H272.014ZM272.014 43.7442V40.093H282.967V43.7442H272.014ZM305.459 62V58.3488H309.11V62H305.459ZM301.807 58.3488V32.7907H298.156V29.1395H305.459V58.3488H301.807ZM320.647 62V54.6977H324.299V51.0465H327.95V58.3488H324.299V62H320.647ZM335.252 62V58.3488H331.601V51.0465H335.252V54.6977H338.903V62H335.252ZM327.95 51.0465V43.7442H331.601V51.0465H327.95ZM316.996 54.6977V40.093H320.647V54.6977H316.996ZM338.903 54.6977V40.093H342.554V54.6977H338.903ZM346.79 58.3488V51.0465H350.441V58.3488H346.79ZM350.441 62V58.3488H361.394V51.0465H350.441V47.3953H361.394V43.7442H365.046V62H350.441ZM350.441 43.7442V40.093H361.394V43.7442H350.441ZM376.583 72.9535V69.3023H380.234V72.9535H376.583ZM380.234 69.3023V58.3488H383.886V69.3023H380.234ZM376.583 58.3488V47.3953H380.234V58.3488H376.583ZM383.886 58.3488V47.3953H387.537V58.3488H383.886ZM372.932 47.3953V40.093H376.583V47.3953H372.932ZM387.537 47.3953V40.093H391.188V47.3953H387.537ZM399.074 62V58.3488H413.679V62H399.074ZM413.679 58.3488V54.6977H417.33V58.3488H413.679ZM410.028 54.6977V51.0465H413.679V54.6977H410.028ZM402.726 51.0465V47.3953H410.028V51.0465H402.726ZM399.074 47.3953V43.7442H402.726V47.3953H399.074ZM402.726 43.7442V40.093H417.33V43.7442H402.726ZM465.964 47.3953V43.7442H469.615V47.3953H465.964ZM451.359 62V40.093H455.01V43.7442H458.661V47.3953H455.01V62H451.359ZM458.661 43.7442V40.093H465.964V43.7442H458.661ZM477.501 58.3488V40.093H481.153V58.3488H477.501ZM481.153 62V58.3488H492.106V40.093H495.757V62H481.153ZM518.248 62V43.7442H521.9V62H518.248ZM503.644 62V40.093H518.248V43.7442H507.295V62H503.644ZM529.786 62V58.3488H544.391V62H529.786ZM544.391 58.3488V54.6977H548.042V58.3488H544.391ZM540.74 54.6977V51.0465H544.391V54.6977H540.74ZM533.437 51.0465V47.3953H540.74V51.0465H533.437ZM529.786 47.3953V43.7442H533.437V47.3953H529.786ZM533.437 43.7442V40.093H548.042V43.7442H533.437ZM585.722 62V43.7442H582.071V40.093H585.722V32.7907H589.373V40.093H596.675V43.7442H589.373V62H585.722ZM589.373 32.7907V29.1395H600.327V32.7907H589.373ZM611.864 62V58.3488H622.818V62H611.864ZM608.213 58.3488V43.7442H611.864V58.3488H608.213ZM622.818 58.3488V43.7442H626.469V58.3488H622.818ZM611.864 43.7442V40.093H622.818V43.7442H611.864ZM648.96 47.3953V43.7442H652.611V47.3953H648.96ZM634.355 62V40.093H638.007V43.7442H641.658V47.3953H638.007V62H634.355ZM641.658 43.7442V40.093H648.96V43.7442H641.658ZM660.498 62V54.6977H664.149V51.0465H667.8V58.3488H664.149V62H660.498ZM675.102 62V58.3488H671.451V51.0465H675.102V54.6977H678.754V62H675.102ZM667.8 51.0465V43.7442H671.451V51.0465H667.8ZM656.847 54.6977V40.093H660.498V54.6977H656.847ZM678.754 54.6977V40.093H682.405V54.6977H678.754ZM686.64 58.3488V51.0465H690.291V58.3488H686.64ZM690.291 62V58.3488H701.245V51.0465H690.291V47.3953H701.245V43.7442H704.896V62H690.291ZM690.291 43.7442V40.093H701.245V43.7442H690.291ZM727.387 47.3953V43.7442H731.038V47.3953H727.387ZM712.782 62V40.093H716.434V43.7442H720.085V47.3953H716.434V62H712.782ZM720.085 43.7442V40.093H727.387V43.7442H720.085ZM738.925 58.3488V43.7442H742.576V58.3488H738.925ZM742.576 62V58.3488H753.529V43.7442H742.576V40.093H753.529V29.1395H757.181V62H742.576Z"/>
</mask>
<path d="M152.256 47.3953V36.4419H155.907V47.3953H152.256ZM137.651 62V32.7907H152.256V36.4419H141.302V47.3953H152.256V51.0465H141.302V62H137.651ZM167.445 62V58.3488H178.398V62H167.445ZM178.398 58.3488V54.6977H182.049V58.3488H178.398ZM163.793 58.3488V43.7442H167.445V47.3953H178.398V43.7442H182.049V51.0465H167.445V58.3488H163.793ZM167.445 43.7442V40.093H178.398V43.7442H167.445ZM204.54 47.3953V43.7442H208.192V47.3953H204.54ZM189.936 62V40.093H193.587V43.7442H197.238V47.3953H193.587V62H189.936ZM197.238 43.7442V40.093H204.54V43.7442H197.238ZM216.078 62V58.3488H230.683V62H216.078ZM230.683 58.3488V54.6977H234.334V58.3488H230.683ZM227.032 54.6977V51.0465H230.683V54.6977H227.032ZM219.729 51.0465V47.3953H227.032V51.0465H219.729ZM216.078 47.3953V43.7442H219.729V47.3953H216.078ZM219.729 43.7442V40.093H234.334V43.7442H219.729ZM268.363 58.3488V51.0465H272.014V58.3488H268.363ZM272.014 62V58.3488H282.967V51.0465H272.014V47.3953H282.967V43.7442H286.619V62H272.014ZM272.014 43.7442V40.093H282.967V43.7442H272.014ZM305.459 62V58.3488H309.11V62H305.459ZM301.807 58.3488V32.7907H298.156V29.1395H305.459V58.3488H301.807ZM320.647 62V54.6977H324.299V51.0465H327.95V58.3488H324.299V62H320.647ZM335.252 62V58.3488H331.601V51.0465H335.252V54.6977H338.903V62H335.252ZM327.95 51.0465V43.7442H331.601V51.0465H327.95ZM316.996 54.6977V40.093H320.647V54.6977H316.996ZM338.903 54.6977V40.093H342.554V54.6977H338.903ZM346.79 58.3488V51.0465H350.441V58.3488H346.79ZM350.441 62V58.3488H361.394V51.0465H350.441V47.3953H361.394V43.7442H365.046V62H350.441ZM350.441 43.7442V40.093H361.394V43.7442H350.441ZM376.583 72.9535V69.3023H380.234V72.9535H376.583ZM380.234 69.3023V58.3488H383.886V69.3023H380.234ZM376.583 58.3488V47.3953H380.234V58.3488H376.583ZM383.886 58.3488V47.3953H387.537V58.3488H383.886ZM372.932 47.3953V40.093H376.583V47.3953H372.932ZM387.537 47.3953V40.093H391.188V47.3953H387.537ZM399.074 62V58.3488H413.679V62H399.074ZM413.679 58.3488V54.6977H417.33V58.3488H413.679ZM410.028 54.6977V51.0465H413.679V54.6977H410.028ZM402.726 51.0465V47.3953H410.028V51.0465H402.726ZM399.074 47.3953V43.7442H402.726V47.3953H399.074ZM402.726 43.7442V40.093H417.33V43.7442H402.726ZM465.964 47.3953V43.7442H469.615V47.3953H465.964ZM451.359 62V40.093H455.01V43.7442H458.661V47.3953H455.01V62H451.359ZM458.661 43.7442V40.093H465.964V43.7442H458.661ZM477.501 58.3488V40.093H481.153V58.3488H477.501ZM481.153 62V58.3488H492.106V40.093H495.757V62H481.153ZM518.248 62V43.7442H521.9V62H518.248ZM503.644 62V40.093H518.248V43.7442H507.295V62H503.644ZM529.786 62V58.3488H544.391V62H529.786ZM544.391 58.3488V54.6977H548.042V58.3488H544.391ZM540.74 54.6977V51.0465H544.391V54.6977H540.74ZM533.437 51.0465V47.3953H540.74V51.0465H533.437ZM529.786 47.3953V43.7442H533.437V47.3953H529.786ZM533.437 43.7442V40.093H548.042V43.7442H533.437ZM585.722 62V43.7442H582.071V40.093H585.722V32.7907H589.373V40.093H596.675V43.7442H589.373V62H585.722ZM589.373 32.7907V29.1395H600.327V32.7907H589.373ZM611.864 62V58.3488H622.818V62H611.864ZM608.213 58.3488V43.7442H611.864V58.3488H608.213ZM622.818 58.3488V43.7442H626.469V58.3488H622.818ZM611.864 43.7442V40.093H622.818V43.7442H611.864ZM648.96 47.3953V43.7442H652.611V47.3953H648.96ZM634.355 62V40.093H638.007V43.7442H641.658V47.3953H638.007V62H634.355ZM641.658 43.7442V40.093H648.96V43.7442H641.658ZM660.498 62V54.6977H664.149V51.0465H667.8V58.3488H664.149V62H660.498ZM675.102 62V58.3488H671.451V51.0465H675.102V54.6977H678.754V62H675.102ZM667.8 51.0465V43.7442H671.451V51.0465H667.8ZM656.847 54.6977V40.093H660.498V54.6977H656.847ZM678.754 54.6977V40.093H682.405V54.6977H678.754ZM686.64 58.3488V51.0465H690.291V58.3488H686.64ZM690.291 62V58.3488H701.245V51.0465H690.291V47.3953H701.245V43.7442H704.896V62H690.291ZM690.291 43.7442V40.093H701.245V43.7442H690.291ZM727.387 47.3953V43.7442H731.038V47.3953H727.387ZM712.782 62V40.093H716.434V43.7442H720.085V47.3953H716.434V62H712.782ZM720.085 43.7442V40.093H727.387V43.7442H720.085ZM738.925 58.3488V43.7442H742.576V58.3488H738.925ZM742.576 62V58.3488H753.529V43.7442H742.576V40.093H753.529V29.1395H757.181V62H742.576Z" fill="#252840"/>
<path d="M152.256 47.3953H151.526V48.1256H152.256V47.3953ZM152.256 36.4419V35.7116H151.526V36.4419H152.256ZM155.907 36.4419H156.637V35.7116H155.907V36.4419ZM155.907 47.3953V48.1256H156.637V47.3953H155.907ZM137.651 62H136.921V62.7302H137.651V62ZM137.651 32.7907V32.0605H136.921V32.7907H137.651ZM152.256 32.7907H152.986V32.0605H152.256V32.7907ZM152.256 36.4419V37.1721H152.986V36.4419H152.256ZM141.302 36.4419V35.7116H140.572V36.4419H141.302ZM141.302 47.3953H140.572V48.1256H141.302V47.3953ZM152.256 47.3953H152.986V46.6651H152.256V47.3953ZM152.256 51.0465V51.7767H152.986V51.0465H152.256ZM141.302 51.0465V50.3163H140.572V51.0465H141.302ZM141.302 62V62.7302H142.033V62H141.302ZM152.986 47.3953V36.4419H151.526V47.3953H152.986ZM152.256 37.1721H155.907V35.7116H152.256V37.1721ZM155.177 36.4419V47.3953H156.637V36.4419H155.177ZM155.907 46.6651H152.256V48.1256H155.907V46.6651ZM138.381 62V32.7907H136.921V62H138.381ZM137.651 33.5209H152.256V32.0605H137.651V33.5209ZM151.526 32.7907V36.4419H152.986V32.7907H151.526ZM152.256 35.7116H141.302V37.1721H152.256V35.7116ZM140.572 36.4419V47.3953H142.033V36.4419H140.572ZM141.302 48.1256H152.256V46.6651H141.302V48.1256ZM151.526 47.3953V51.0465H152.986V47.3953H151.526ZM152.256 50.3163H141.302V51.7767H152.256V50.3163ZM140.572 51.0465V62H142.033V51.0465H140.572ZM141.302 61.2698H137.651V62.7302H141.302V61.2698ZM167.445 62H166.714V62.7302H167.445V62ZM167.445 58.3488V57.6186H166.714V58.3488H167.445ZM178.398 58.3488H179.128V57.6186H178.398V58.3488ZM178.398 62V62.7302H179.128V62H178.398ZM178.398 58.3488H177.668V59.0791H178.398V58.3488ZM178.398 54.6977V53.9674H177.668V54.6977H178.398ZM182.049 54.6977H182.78V53.9674H182.049V54.6977ZM182.049 58.3488V59.0791H182.78V58.3488H182.049ZM163.793 58.3488H163.063V59.0791H163.793V58.3488ZM163.793 43.7442V43.014H163.063V43.7442H163.793ZM167.445 43.7442H168.175V43.014H167.445V43.7442ZM167.445 47.3953H166.714V48.1256H167.445V47.3953ZM178.398 47.3953V48.1256H179.128V47.3953H178.398ZM178.398 43.7442V43.014H177.668V43.7442H178.398ZM182.049 43.7442H182.78V43.014H182.049V43.7442ZM182.049 51.0465V51.7767H182.78V51.0465H182.049ZM167.445 51.0465V50.3163H166.714V51.0465H167.445ZM167.445 58.3488V59.0791H168.175V58.3488H167.445ZM167.445 43.7442H166.714V44.4744H167.445V43.7442ZM167.445 40.093V39.3628H166.714V40.093H167.445ZM178.398 40.093H179.128V39.3628H178.398V40.093ZM178.398 43.7442V44.4744H179.128V43.7442H178.398ZM168.175 62V58.3488H166.714V62H168.175ZM167.445 59.0791H178.398V57.6186H167.445V59.0791ZM177.668 58.3488V62H179.128V58.3488H177.668ZM178.398 61.2698H167.445V62.7302H178.398V61.2698ZM179.128 58.3488V54.6977H177.668V58.3488H179.128ZM178.398 55.4279H182.049V53.9674H178.398V55.4279ZM181.319 54.6977V58.3488H182.78V54.6977H181.319ZM182.049 57.6186H178.398V59.0791H182.049V57.6186ZM164.524 58.3488V43.7442H163.063V58.3488H164.524ZM163.793 44.4744H167.445V43.014H163.793V44.4744ZM166.714 43.7442V47.3953H168.175V43.7442H166.714ZM167.445 48.1256H178.398V46.6651H167.445V48.1256ZM179.128 47.3953V43.7442H177.668V47.3953H179.128ZM178.398 44.4744H182.049V43.014H178.398V44.4744ZM181.319 43.7442V51.0465H182.78V43.7442H181.319ZM182.049 50.3163H167.445V51.7767H182.049V50.3163ZM166.714 51.0465V58.3488H168.175V51.0465H166.714ZM167.445 57.6186H163.793V59.0791H167.445V57.6186ZM168.175 43.7442V40.093H166.714V43.7442H168.175ZM167.445 40.8233H178.398V39.3628H167.445V40.8233ZM177.668 40.093V43.7442H179.128V40.093H177.668ZM178.398 43.014H167.445V44.4744H178.398V43.014ZM204.54 47.3953H203.81V48.1256H204.54V47.3953ZM204.54 43.7442V43.014H203.81V43.7442H204.54ZM208.192 43.7442H208.922V43.014H208.192V43.7442ZM208.192 47.3953V48.1256H208.922V47.3953H208.192ZM189.936 62H189.206V62.7302H189.936V62ZM189.936 40.093V39.3628H189.206V40.093H189.936ZM193.587 40.093H194.317V39.3628H193.587V40.093ZM193.587 43.7442H192.857V44.4744H193.587V43.7442ZM197.238 43.7442H197.968V43.014H197.238V43.7442ZM197.238 47.3953V48.1256H197.968V47.3953H197.238ZM193.587 47.3953V46.6651H192.857V47.3953H193.587ZM193.587 62V62.7302H194.317V62H193.587ZM197.238 43.7442H196.508V44.4744H197.238V43.7442ZM197.238 40.093V39.3628H196.508V40.093H197.238ZM204.54 40.093H205.271V39.3628H204.54V40.093ZM204.54 43.7442V44.4744H205.271V43.7442H204.54ZM205.271 47.3953V43.7442H203.81V47.3953H205.271ZM204.54 44.4744H208.192V43.014H204.54V44.4744ZM207.461 43.7442V47.3953H208.922V43.7442H207.461ZM208.192 46.6651H204.54V48.1256H208.192V46.6651ZM190.666 62V40.093H189.206V62H190.666ZM189.936 40.8233H193.587V39.3628H189.936V40.8233ZM192.857 40.093V43.7442H194.317V40.093H192.857ZM193.587 44.4744H197.238V43.014H193.587V44.4744ZM196.508 43.7442V47.3953H197.968V43.7442H196.508ZM197.238 46.6651H193.587V48.1256H197.238V46.6651ZM192.857 47.3953V62H194.317V47.3953H192.857ZM193.587 61.2698H189.936V62.7302H193.587V61.2698ZM197.968 43.7442V40.093H196.508V43.7442H197.968ZM197.238 40.8233H204.54V39.3628H197.238V40.8233ZM203.81 40.093V43.7442H205.271V40.093H203.81ZM204.54 43.014H197.238V44.4744H204.54V43.014ZM216.078 62H215.348V62.7302H216.078V62ZM216.078 58.3488V57.6186H215.348V58.3488H216.078ZM230.683 58.3488H231.413V57.6186H230.683V58.3488ZM230.683 62V62.7302H231.413V62H230.683ZM230.683 58.3488H229.953V59.0791H230.683V58.3488ZM230.683 54.6977V53.9674H229.953V54.6977H230.683ZM234.334 54.6977H235.064V53.9674H234.334V54.6977ZM234.334 58.3488V59.0791H235.064V58.3488H234.334ZM227.032 54.6977H226.301V55.4279H227.032V54.6977ZM227.032 51.0465V50.3163H226.301V51.0465H227.032ZM230.683 51.0465H231.413V50.3163H230.683V51.0465ZM230.683 54.6977V55.4279H231.413V54.6977H230.683ZM219.729 51.0465H218.999V51.7767H219.729V51.0465ZM219.729 47.3953V46.6651H218.999V47.3953H219.729ZM227.032 47.3953H227.762V46.6651H227.032V47.3953ZM227.032 51.0465V51.7767H227.762V51.0465H227.032ZM216.078 47.3953H215.348V48.1256H216.078V47.3953ZM216.078 43.7442V43.014H215.348V43.7442H216.078ZM219.729 43.7442H220.46V43.014H219.729V43.7442ZM219.729 47.3953V48.1256H220.46V47.3953H219.729ZM219.729 43.7442H218.999V44.4744H219.729V43.7442ZM219.729 40.093V39.3628H218.999V40.093H219.729ZM234.334 40.093H235.064V39.3628H234.334V40.093ZM234.334 43.7442V44.4744H235.064V43.7442H234.334ZM216.808 62V58.3488H215.348V62H216.808ZM216.078 59.0791H230.683V57.6186H216.078V59.0791ZM229.953 58.3488V62H231.413V58.3488H229.953ZM230.683 61.2698H216.078V62.7302H230.683V61.2698ZM231.413 58.3488V54.6977H229.953V58.3488H231.413ZM230.683 55.4279H234.334V53.9674H230.683V55.4279ZM233.604 54.6977V58.3488H235.064V54.6977H233.604ZM234.334 57.6186H230.683V59.0791H234.334V57.6186ZM227.762 54.6977V51.0465H226.301V54.6977H227.762ZM227.032 51.7767H230.683V50.3163H227.032V51.7767ZM229.953 51.0465V54.6977H231.413V51.0465H229.953ZM230.683 53.9674H227.032V55.4279H230.683V53.9674ZM220.46 51.0465V47.3953H218.999V51.0465H220.46ZM219.729 48.1256H227.032V46.6651H219.729V48.1256ZM226.301 47.3953V51.0465H227.762V47.3953H226.301ZM227.032 50.3163H219.729V51.7767H227.032V50.3163ZM216.808 47.3953V43.7442H215.348V47.3953H216.808ZM216.078 44.4744H219.729V43.014H216.078V44.4744ZM218.999 43.7442V47.3953H220.46V43.7442H218.999ZM219.729 46.6651H216.078V48.1256H219.729V46.6651ZM220.46 43.7442V40.093H218.999V43.7442H220.46ZM219.729 40.8233H234.334V39.3628H219.729V40.8233ZM233.604 40.093V43.7442H235.064V40.093H233.604ZM234.334 43.014H219.729V44.4744H234.334V43.014ZM268.363 58.3488H267.633V59.0791H268.363V58.3488ZM268.363 51.0465V50.3163H267.633V51.0465H268.363ZM272.014 51.0465H272.744V50.3163H272.014V51.0465ZM272.014 58.3488V59.0791H272.744V58.3488H272.014ZM272.014 62H271.284V62.7302H272.014V62ZM272.014 58.3488V57.6186H271.284V58.3488H272.014ZM282.967 58.3488V59.0791H283.698V58.3488H282.967ZM282.967 51.0465H283.698V50.3163H282.967V51.0465ZM272.014 51.0465H271.284V51.7767H272.014V51.0465ZM272.014 47.3953V46.6651H271.284V47.3953H272.014ZM282.967 47.3953V48.1256H283.698V47.3953H282.967ZM282.967 43.7442V43.014H282.237V43.7442H282.967ZM286.619 43.7442H287.349V43.014H286.619V43.7442ZM286.619 62V62.7302H287.349V62H286.619ZM272.014 43.7442H271.284V44.4744H272.014V43.7442ZM272.014 40.093V39.3628H271.284V40.093H272.014ZM282.967 40.093H283.698V39.3628H282.967V40.093ZM282.967 43.7442V44.4744H283.698V43.7442H282.967ZM269.093 58.3488V51.0465H267.633V58.3488H269.093ZM268.363 51.7767H272.014V50.3163H268.363V51.7767ZM271.284 51.0465V58.3488H272.744V51.0465H271.284ZM272.014 57.6186H268.363V59.0791H272.014V57.6186ZM272.744 62V58.3488H271.284V62H272.744ZM272.014 59.0791H282.967V57.6186H272.014V59.0791ZM283.698 58.3488V51.0465H282.237V58.3488H283.698ZM282.967 50.3163H272.014V51.7767H282.967V50.3163ZM272.744 51.0465V47.3953H271.284V51.0465H272.744ZM272.014 48.1256H282.967V46.6651H272.014V48.1256ZM283.698 47.3953V43.7442H282.237V47.3953H283.698ZM282.967 44.4744H286.619V43.014H282.967V44.4744ZM285.888 43.7442V62H287.349V43.7442H285.888ZM286.619 61.2698H272.014V62.7302H286.619V61.2698ZM272.744 43.7442V40.093H271.284V43.7442H272.744ZM272.014 40.8233H282.967V39.3628H272.014V40.8233ZM282.237 40.093V43.7442H283.698V40.093H282.237ZM282.967 43.014H272.014V44.4744H282.967V43.014ZM305.459 62H304.728V62.7302H305.459V62ZM305.459 58.3488V57.6186H304.728V58.3488H305.459ZM309.11 58.3488H309.84V57.6186H309.11V58.3488ZM309.11 62V62.7302H309.84V62H309.11ZM301.807 58.3488H301.077V59.0791H301.807V58.3488ZM301.807 32.7907H302.538V32.0605H301.807V32.7907ZM298.156 32.7907H297.426V33.5209H298.156V32.7907ZM298.156 29.1395V28.4093H297.426V29.1395H298.156ZM305.459 29.1395H306.189V28.4093H305.459V29.1395ZM305.459 58.3488V59.0791H306.189V58.3488H305.459ZM306.189 62V58.3488H304.728V62H306.189ZM305.459 59.0791H309.11V57.6186H305.459V59.0791ZM308.38 58.3488V62H309.84V58.3488H308.38ZM309.11 61.2698H305.459V62.7302H309.11V61.2698ZM302.538 58.3488V32.7907H301.077V58.3488H302.538ZM301.807 32.0605H298.156V33.5209H301.807V32.0605ZM298.887 32.7907V29.1395H297.426V32.7907H298.887ZM298.156 29.8698H305.459V28.4093H298.156V29.8698ZM304.728 29.1395V58.3488H306.189V29.1395H304.728ZM305.459 57.6186H301.807V59.0791H305.459V57.6186ZM320.647 62H319.917V62.7302H320.647V62ZM320.647 54.6977V53.9674H319.917V54.6977H320.647ZM324.299 54.6977V55.4279H325.029V54.6977H324.299ZM324.299 51.0465V50.3163H323.568V51.0465H324.299ZM327.95 51.0465H328.68V50.3163H327.95V51.0465ZM327.95 58.3488V59.0791H328.68V58.3488H327.95ZM324.299 58.3488V57.6186H323.568V58.3488H324.299ZM324.299 62V62.7302H325.029V62H324.299ZM335.252 62H334.522V62.7302H335.252V62ZM335.252 58.3488H335.982V57.6186H335.252V58.3488ZM331.601 58.3488H330.871V59.0791H331.601V58.3488ZM331.601 51.0465V50.3163H330.871V51.0465H331.601ZM335.252 51.0465H335.982V50.3163H335.252V51.0465ZM335.252 54.6977H334.522V55.4279H335.252V54.6977ZM338.903 54.6977H339.633V53.9674H338.903V54.6977ZM338.903 62V62.7302H339.633V62H338.903ZM327.95 51.0465H327.22V51.7767H327.95V51.0465ZM327.95 43.7442V43.014H327.22V43.7442H327.95ZM331.601 43.7442H332.331V43.014H331.601V43.7442ZM331.601 51.0465V51.7767H332.331V51.0465H331.601ZM316.996 54.6977H316.266V55.4279H316.996V54.6977ZM316.996 40.093V39.3628H316.266V40.093H316.996ZM320.647 40.093H321.378V39.3628H320.647V40.093ZM320.647 54.6977V55.4279H321.378V54.6977H320.647ZM338.903 54.6977H338.173V55.4279H338.903V54.6977ZM338.903 40.093V39.3628H338.173V40.093H338.903ZM342.554 40.093H343.285V39.3628H342.554V40.093ZM342.554 54.6977V55.4279H343.285V54.6977H342.554ZM321.378 62V54.6977H319.917V62H321.378ZM320.647 55.4279H324.299V53.9674H320.647V55.4279ZM325.029 54.6977V51.0465H323.568V54.6977H325.029ZM324.299 51.7767H327.95V50.3163H324.299V51.7767ZM327.22 51.0465V58.3488H328.68V51.0465H327.22ZM327.95 57.6186H324.299V59.0791H327.95V57.6186ZM323.568 58.3488V62H325.029V58.3488H323.568ZM324.299 61.2698H320.647V62.7302H324.299V61.2698ZM335.982 62V58.3488H334.522V62H335.982ZM335.252 57.6186H331.601V59.0791H335.252V57.6186ZM332.331 58.3488V51.0465H330.871V58.3488H332.331ZM331.601 51.7767H335.252V50.3163H331.601V51.7767ZM334.522 51.0465V54.6977H335.982V51.0465H334.522ZM335.252 55.4279H338.903V53.9674H335.252V55.4279ZM338.173 54.6977V62H339.633V54.6977H338.173ZM338.903 61.2698H335.252V62.7302H338.903V61.2698ZM328.68 51.0465V43.7442H327.22V51.0465H328.68ZM327.95 44.4744H331.601V43.014H327.95V44.4744ZM330.871 43.7442V51.0465H332.331V43.7442H330.871ZM331.601 50.3163H327.95V51.7767H331.601V50.3163ZM317.727 54.6977V40.093H316.266V54.6977H317.727ZM316.996 40.8233H320.647V39.3628H316.996V40.8233ZM319.917 40.093V54.6977H321.378V40.093H319.917ZM320.647 53.9674H316.996V55.4279H320.647V53.9674ZM339.633 54.6977V40.093H338.173V54.6977H339.633ZM338.903 40.8233H342.554V39.3628H338.903V40.8233ZM341.824 40.093V54.6977H343.285V40.093H341.824ZM342.554 53.9674H338.903V55.4279H342.554V53.9674ZM346.79 58.3488H346.06V59.0791H346.79V58.3488ZM346.79 51.0465V50.3163H346.06V51.0465H346.79ZM350.441 51.0465H351.171V50.3163H350.441V51.0465ZM350.441 58.3488V59.0791H351.171V58.3488H350.441ZM350.441 62H349.711V62.7302H350.441V62ZM350.441 58.3488V57.6186H349.711V58.3488H350.441ZM361.394 58.3488V59.0791H362.125V58.3488H361.394ZM361.394 51.0465H362.125V50.3163H361.394V51.0465ZM350.441 51.0465H349.711V51.7767H350.441V51.0465ZM350.441 47.3953V46.6651H349.711V47.3953H350.441ZM361.394 47.3953V48.1256H362.125V47.3953H361.394ZM361.394 43.7442V43.014H360.664V43.7442H361.394ZM365.046 43.7442H365.776V43.014H365.046V43.7442ZM365.046 62V62.7302H365.776V62H365.046ZM350.441 43.7442H349.711V44.4744H350.441V43.7442ZM350.441 40.093V39.3628H349.711V40.093H350.441ZM361.394 40.093H362.125V39.3628H361.394V40.093ZM361.394 43.7442V44.4744H362.125V43.7442H361.394ZM347.52 58.3488V51.0465H346.06V58.3488H347.52ZM346.79 51.7767H350.441V50.3163H346.79V51.7767ZM349.711 51.0465V58.3488H351.171V51.0465H349.711ZM350.441 57.6186H346.79V59.0791H350.441V57.6186ZM351.171 62V58.3488H349.711V62H351.171ZM350.441 59.0791H361.394V57.6186H350.441V59.0791ZM362.125 58.3488V51.0465H360.664V58.3488H362.125ZM361.394 50.3163H350.441V51.7767H361.394V50.3163ZM351.171 51.0465V47.3953H349.711V51.0465H351.171ZM350.441 48.1256H361.394V46.6651H350.441V48.1256ZM362.125 47.3953V43.7442H360.664V47.3953H362.125ZM361.394 44.4744H365.046V43.014H361.394V44.4744ZM364.315 43.7442V62H365.776V43.7442H364.315ZM365.046 61.2698H350.441V62.7302H365.046V61.2698ZM351.171 43.7442V40.093H349.711V43.7442H351.171ZM350.441 40.8233H361.394V39.3628H350.441V40.8233ZM360.664 40.093V43.7442H362.125V40.093H360.664ZM361.394 43.014H350.441V44.4744H361.394V43.014ZM376.583 72.9535H375.853V73.6837H376.583V72.9535ZM376.583 69.3023V68.5721H375.853V69.3023H376.583ZM380.234 69.3023H380.965V68.5721H380.234V69.3023ZM380.234 72.9535V73.6837H380.965V72.9535H380.234ZM380.234 69.3023H379.504V70.0326H380.234V69.3023ZM380.234 58.3488V57.6186H379.504V58.3488H380.234ZM383.886 58.3488H384.616V57.6186H383.886V58.3488ZM383.886 69.3023V70.0326H384.616V69.3023H383.886ZM376.583 58.3488H375.853V59.0791H376.583V58.3488ZM376.583 47.3953V46.6651H375.853V47.3953H376.583ZM380.234 47.3953H380.965V46.6651H380.234V47.3953ZM380.234 58.3488V59.0791H380.965V58.3488H380.234ZM383.886 58.3488H383.155V59.0791H383.886V58.3488ZM383.886 47.3953V46.6651H383.155V47.3953H383.886ZM387.537 47.3953H388.267V46.6651H387.537V47.3953ZM387.537 58.3488V59.0791H388.267V58.3488H387.537ZM372.932 47.3953H372.202V48.1256H372.932V47.3953ZM372.932 40.093V39.3628H372.202V40.093H372.932ZM376.583 40.093H377.314V39.3628H376.583V40.093ZM376.583 47.3953V48.1256H377.314V47.3953H376.583ZM387.537 47.3953H386.807V48.1256H387.537V47.3953ZM387.537 40.093V39.3628H386.807V40.093H387.537ZM391.188 40.093H391.918V39.3628H391.188V40.093ZM391.188 47.3953V48.1256H391.918V47.3953H391.188ZM377.314 72.9535V69.3023H375.853V72.9535H377.314ZM376.583 70.0326H380.234V68.5721H376.583V70.0326ZM379.504 69.3023V72.9535H380.965V69.3023H379.504ZM380.234 72.2233H376.583V73.6837H380.234V72.2233ZM380.965 69.3023V58.3488H379.504V69.3023H380.965ZM380.234 59.0791H383.886V57.6186H380.234V59.0791ZM383.155 58.3488V69.3023H384.616V58.3488H383.155ZM383.886 68.5721H380.234V70.0326H383.886V68.5721ZM377.314 58.3488V47.3953H375.853V58.3488H377.314ZM376.583 48.1256H380.234V46.6651H376.583V48.1256ZM379.504 47.3953V58.3488H380.965V47.3953H379.504ZM380.234 57.6186H376.583V59.0791H380.234V57.6186ZM384.616 58.3488V47.3953H383.155V58.3488H384.616ZM383.886 48.1256H387.537V46.6651H383.886V48.1256ZM386.807 47.3953V58.3488H388.267V47.3953H386.807ZM387.537 57.6186H383.886V59.0791H387.537V57.6186ZM373.662 47.3953V40.093H372.202V47.3953H373.662ZM372.932 40.8233H376.583V39.3628H372.932V40.8233ZM375.853 40.093V47.3953H377.314V40.093H375.853ZM376.583 46.6651H372.932V48.1256H376.583V46.6651ZM388.267 47.3953V40.093H386.807V47.3953H388.267ZM387.537 40.8233H391.188V39.3628H387.537V40.8233ZM390.458 40.093V47.3953H391.918V40.093H390.458ZM391.188 46.6651H387.537V48.1256H391.188V46.6651ZM399.074 62H398.344V62.7302H399.074V62ZM399.074 58.3488V57.6186H398.344V58.3488H399.074ZM413.679 58.3488H414.409V57.6186H413.679V58.3488ZM413.679 62V62.7302H414.409V62H413.679ZM413.679 58.3488H412.949V59.0791H413.679V58.3488ZM413.679 54.6977V53.9674H412.949V54.6977H413.679ZM417.33 54.6977H418.06V53.9674H417.33V54.6977ZM417.33 58.3488V59.0791H418.06V58.3488H417.33ZM410.028 54.6977H409.298V55.4279H410.028V54.6977ZM410.028 51.0465V50.3163H409.298V51.0465H410.028ZM413.679 51.0465H414.409V50.3163H413.679V51.0465ZM413.679 54.6977V55.4279H414.409V54.6977H413.679ZM402.726 51.0465H401.995V51.7767H402.726V51.0465ZM402.726 47.3953V46.6651H401.995V47.3953H402.726ZM410.028 47.3953H410.758V46.6651H410.028V47.3953ZM410.028 51.0465V51.7767H410.758V51.0465H410.028ZM399.074 47.3953H398.344V48.1256H399.074V47.3953ZM399.074 43.7442V43.014H398.344V43.7442H399.074ZM402.726 43.7442H403.456V43.014H402.726V43.7442ZM402.726 47.3953V48.1256H403.456V47.3953H402.726ZM402.726 43.7442H401.995V44.4744H402.726V43.7442ZM402.726 40.093V39.3628H401.995V40.093H402.726ZM417.33 40.093H418.06V39.3628H417.33V40.093ZM417.33 43.7442V44.4744H418.06V43.7442H417.33ZM399.805 62V58.3488H398.344V62H399.805ZM399.074 59.0791H413.679V57.6186H399.074V59.0791ZM412.949 58.3488V62H414.409V58.3488H412.949ZM413.679 61.2698H399.074V62.7302H413.679V61.2698ZM414.409 58.3488V54.6977H412.949V58.3488H414.409ZM413.679 55.4279H417.33V53.9674H413.679V55.4279ZM416.6 54.6977V58.3488H418.06V54.6977H416.6ZM417.33 57.6186H413.679V59.0791H417.33V57.6186ZM410.758 54.6977V51.0465H409.298V54.6977H410.758ZM410.028 51.7767H413.679V50.3163H410.028V51.7767ZM412.949 51.0465V54.6977H414.409V51.0465H412.949ZM413.679 53.9674H410.028V55.4279H413.679V53.9674ZM403.456 51.0465V47.3953H401.995V51.0465H403.456ZM402.726 48.1256H410.028V46.6651H402.726V48.1256ZM409.298 47.3953V51.0465H410.758V47.3953H409.298ZM410.028 50.3163H402.726V51.7767H410.028V50.3163ZM399.805 47.3953V43.7442H398.344V47.3953H399.805ZM399.074 44.4744H402.726V43.014H399.074V44.4744ZM401.995 43.7442V47.3953H403.456V43.7442H401.995ZM402.726 46.6651H399.074V48.1256H402.726V46.6651ZM403.456 43.7442V40.093H401.995V43.7442H403.456ZM402.726 40.8233H417.33V39.3628H402.726V40.8233ZM416.6 40.093V43.7442H418.06V40.093H416.6ZM417.33 43.014H402.726V44.4744H417.33V43.014ZM465.964 47.3953H465.234V48.1256H465.964V47.3953ZM465.964 43.7442V43.014H465.234V43.7442H465.964ZM469.615 43.7442H470.345V43.014H469.615V43.7442ZM469.615 47.3953V48.1256H470.345V47.3953H469.615ZM451.359 62H450.629V62.7302H451.359V62ZM451.359 40.093V39.3628H450.629V40.093H451.359ZM455.01 40.093H455.741V39.3628H455.01V40.093ZM455.01 43.7442H454.28V44.4744H455.01V43.7442ZM458.661 43.7442H459.392V43.014H458.661V43.7442ZM458.661 47.3953V48.1256H459.392V47.3953H458.661ZM455.01 47.3953V46.6651H454.28V47.3953H455.01ZM455.01 62V62.7302H455.741V62H455.01ZM458.661 43.7442H457.931V44.4744H458.661V43.7442ZM458.661 40.093V39.3628H457.931V40.093H458.661ZM465.964 40.093H466.694V39.3628H465.964V40.093ZM465.964 43.7442V44.4744H466.694V43.7442H465.964ZM466.694 47.3953V43.7442H465.234V47.3953H466.694ZM465.964 44.4744H469.615V43.014H465.964V44.4744ZM468.885 43.7442V47.3953H470.345V43.7442H468.885ZM469.615 46.6651H465.964V48.1256H469.615V46.6651ZM452.089 62V40.093H450.629V62H452.089ZM451.359 40.8233H455.01V39.3628H451.359V40.8233ZM454.28 40.093V43.7442H455.741V40.093H454.28ZM455.01 44.4744H458.661V43.014H455.01V44.4744ZM457.931 43.7442V47.3953H459.392V43.7442H457.931ZM458.661 46.6651H455.01V48.1256H458.661V46.6651ZM454.28 47.3953V62H455.741V47.3953H454.28ZM455.01 61.2698H451.359V62.7302H455.01V61.2698ZM459.392 43.7442V40.093H457.931V43.7442H459.392ZM458.661 40.8233H465.964V39.3628H458.661V40.8233ZM465.234 40.093V43.7442H466.694V40.093H465.234ZM465.964 43.014H458.661V44.4744H465.964V43.014ZM477.501 58.3488H476.771V59.0791H477.501V58.3488ZM477.501 40.093V39.3628H476.771V40.093H477.501ZM481.153 40.093H481.883V39.3628H481.153V40.093ZM481.153 58.3488V59.0791H481.883V58.3488H481.153ZM481.153 62H480.422V62.7302H481.153V62ZM481.153 58.3488V57.6186H480.422V58.3488H481.153ZM492.106 58.3488V59.0791H492.836V58.3488H492.106ZM492.106 40.093V39.3628H491.376V40.093H492.106ZM495.757 40.093H496.487V39.3628H495.757V40.093ZM495.757 62V62.7302H496.487V62H495.757ZM478.232 58.3488V40.093H476.771V58.3488H478.232ZM477.501 40.8233H481.153V39.3628H477.501V40.8233ZM480.422 40.093V58.3488H481.883V40.093H480.422ZM481.153 57.6186H477.501V59.0791H481.153V57.6186ZM481.883 62V58.3488H480.422V62H481.883ZM481.153 59.0791H492.106V57.6186H481.153V59.0791ZM492.836 58.3488V40.093H491.376V58.3488H492.836ZM492.106 40.8233H495.757V39.3628H492.106V40.8233ZM495.027 40.093V62H496.487V40.093H495.027ZM495.757 61.2698H481.153V62.7302H495.757V61.2698ZM518.248 62H517.518V62.7302H518.248V62ZM518.248 43.7442V43.014H517.518V43.7442H518.248ZM521.9 43.7442H522.63V43.014H521.9V43.7442ZM521.9 62V62.7302H522.63V62H521.9ZM503.644 62H502.914V62.7302H503.644V62ZM503.644 40.093V39.3628H502.914V40.093H503.644ZM518.248 40.093H518.979V39.3628H518.248V40.093ZM518.248 43.7442V44.4744H518.979V43.7442H518.248ZM507.295 43.7442V43.014H506.565V43.7442H507.295ZM507.295 62V62.7302H508.025V62H507.295ZM518.979 62V43.7442H517.518V62H518.979ZM518.248 44.4744H521.9V43.014H518.248V44.4744ZM521.169 43.7442V62H522.63V43.7442H521.169ZM521.9 61.2698H518.248V62.7302H521.9V61.2698ZM504.374 62V40.093H502.914V62H504.374ZM503.644 40.8233H518.248V39.3628H503.644V40.8233ZM517.518 40.093V43.7442H518.979V40.093H517.518ZM518.248 43.014H507.295V44.4744H518.248V43.014ZM506.565 43.7442V62H508.025V43.7442H506.565ZM507.295 61.2698H503.644V62.7302H507.295V61.2698ZM529.786 62H529.056V62.7302H529.786V62ZM529.786 58.3488V57.6186H529.056V58.3488H529.786ZM544.391 58.3488H545.121V57.6186H544.391V58.3488ZM544.391 62V62.7302H545.121V62H544.391ZM544.391 58.3488H543.66V59.0791H544.391V58.3488ZM544.391 54.6977V53.9674H543.66V54.6977H544.391ZM548.042 54.6977H548.772V53.9674H548.042V54.6977ZM548.042 58.3488V59.0791H548.772V58.3488H548.042ZM540.74 54.6977H540.009V55.4279H540.74V54.6977ZM540.74 51.0465V50.3163H540.009V51.0465H540.74ZM544.391 51.0465H545.121V50.3163H544.391V51.0465ZM544.391 54.6977V55.4279H545.121V54.6977H544.391ZM533.437 51.0465H532.707V51.7767H533.437V51.0465ZM533.437 47.3953V46.6651H532.707V47.3953H533.437ZM540.74 47.3953H541.47V46.6651H540.74V47.3953ZM540.74 51.0465V51.7767H541.47V51.0465H540.74ZM529.786 47.3953H529.056V48.1256H529.786V47.3953ZM529.786 43.7442V43.014H529.056V43.7442H529.786ZM533.437 43.7442H534.167V43.014H533.437V43.7442ZM533.437 47.3953V48.1256H534.167V47.3953H533.437ZM533.437 43.7442H532.707V44.4744H533.437V43.7442ZM533.437 40.093V39.3628H532.707V40.093H533.437ZM548.042 40.093H548.772V39.3628H548.042V40.093ZM548.042 43.7442V44.4744H548.772V43.7442H548.042ZM530.516 62V58.3488H529.056V62H530.516ZM529.786 59.0791H544.391V57.6186H529.786V59.0791ZM543.66 58.3488V62H545.121V58.3488H543.66ZM544.391 61.2698H529.786V62.7302H544.391V61.2698ZM545.121 58.3488V54.6977H543.66V58.3488H545.121ZM544.391 55.4279H548.042V53.9674H544.391V55.4279ZM547.312 54.6977V58.3488H548.772V54.6977H547.312ZM548.042 57.6186H544.391V59.0791H548.042V57.6186ZM541.47 54.6977V51.0465H540.009V54.6977H541.47ZM540.74 51.7767H544.391V50.3163H540.74V51.7767ZM543.66 51.0465V54.6977H545.121V51.0465H543.66ZM544.391 53.9674H540.74V55.4279H544.391V53.9674ZM534.167 51.0465V47.3953H532.707V51.0465H534.167ZM533.437 48.1256H540.74V46.6651H533.437V48.1256ZM540.009 47.3953V51.0465H541.47V47.3953H540.009ZM540.74 50.3163H533.437V51.7767H540.74V50.3163ZM530.516 47.3953V43.7442H529.056V47.3953H530.516ZM529.786 44.4744H533.437V43.014H529.786V44.4744ZM532.707 43.7442V47.3953H534.167V43.7442H532.707ZM533.437 46.6651H529.786V48.1256H533.437V46.6651ZM534.167 43.7442V40.093H532.707V43.7442H534.167ZM533.437 40.8233H548.042V39.3628H533.437V40.8233ZM547.312 40.093V43.7442H548.772V40.093H547.312ZM548.042 43.014H533.437V44.4744H548.042V43.014ZM585.722 62H584.992V62.7302H585.722V62ZM585.722 43.7442H586.452V43.014H585.722V43.7442ZM582.071 43.7442H581.341V44.4744H582.071V43.7442ZM582.071 40.093V39.3628H581.341V40.093H582.071ZM585.722 40.093V40.8233H586.452V40.093H585.722ZM585.722 32.7907V32.0605H584.992V32.7907H585.722ZM589.373 32.7907H590.103V32.0605H589.373V32.7907ZM589.373 40.093H588.643V40.8233H589.373V40.093ZM596.675 40.093H597.406V39.3628H596.675V40.093ZM596.675 43.7442V44.4744H597.406V43.7442H596.675ZM589.373 43.7442V43.014H588.643V43.7442H589.373ZM589.373 62V62.7302H590.103V62H589.373ZM589.373 32.7907H588.643V33.5209H589.373V32.7907ZM589.373 29.1395V28.4093H588.643V29.1395H589.373ZM600.327 29.1395H601.057V28.4093H600.327V29.1395ZM600.327 32.7907V33.5209H601.057V32.7907H600.327ZM586.452 62V43.7442H584.992V62H586.452ZM585.722 43.014H582.071V44.4744H585.722V43.014ZM582.801 43.7442V40.093H581.341V43.7442H582.801ZM582.071 40.8233H585.722V39.3628H582.071V40.8233ZM586.452 40.093V32.7907H584.992V40.093H586.452ZM585.722 33.5209H589.373V32.0605H585.722V33.5209ZM588.643 32.7907V40.093H590.103V32.7907H588.643ZM589.373 40.8233H596.675V39.3628H589.373V40.8233ZM595.945 40.093V43.7442H597.406V40.093H595.945ZM596.675 43.014H589.373V44.4744H596.675V43.014ZM588.643 43.7442V62H590.103V43.7442H588.643ZM589.373 61.2698H585.722V62.7302H589.373V61.2698ZM590.103 32.7907V29.1395H588.643V32.7907H590.103ZM589.373 29.8698H600.327V28.4093H589.373V29.8698ZM599.596 29.1395V32.7907H601.057V29.1395H599.596ZM600.327 32.0605H589.373V33.5209H600.327V32.0605ZM611.864 62H611.134V62.7302H611.864V62ZM611.864 58.3488V57.6186H611.134V58.3488H611.864ZM622.818 58.3488H623.548V57.6186H622.818V58.3488ZM622.818 62V62.7302H623.548V62H622.818ZM608.213 58.3488H607.483V59.0791H608.213V58.3488ZM608.213 43.7442V43.014H607.483V43.7442H608.213ZM611.864 43.7442H612.594V43.014H611.864V43.7442ZM611.864 58.3488V59.0791H612.594V58.3488H611.864ZM622.818 58.3488H622.087V59.0791H622.818V58.3488ZM622.818 43.7442V43.014H622.087V43.7442H622.818ZM626.469 43.7442H627.199V43.014H626.469V43.7442ZM626.469 58.3488V59.0791H627.199V58.3488H626.469ZM611.864 43.7442H611.134V44.4744H611.864V43.7442ZM611.864 40.093V39.3628H611.134V40.093H611.864ZM622.818 40.093H623.548V39.3628H622.818V40.093ZM622.818 43.7442V44.4744H623.548V43.7442H622.818ZM612.594 62V58.3488H611.134V62H612.594ZM611.864 59.0791H622.818V57.6186H611.864V59.0791ZM622.087 58.3488V62H623.548V58.3488H622.087ZM622.818 61.2698H611.864V62.7302H622.818V61.2698ZM608.943 58.3488V43.7442H607.483V58.3488H608.943ZM608.213 44.4744H611.864V43.014H608.213V44.4744ZM611.134 43.7442V58.3488H612.594V43.7442H611.134ZM611.864 57.6186H608.213V59.0791H611.864V57.6186ZM623.548 58.3488V43.7442H622.087V58.3488H623.548ZM622.818 44.4744H626.469V43.014H622.818V44.4744ZM625.739 43.7442V58.3488H627.199V43.7442H625.739ZM626.469 57.6186H622.818V59.0791H626.469V57.6186ZM612.594 43.7442V40.093H611.134V43.7442H612.594ZM611.864 40.8233H622.818V39.3628H611.864V40.8233ZM622.087 40.093V43.7442H623.548V40.093H622.087ZM622.818 43.014H611.864V44.4744H622.818V43.014ZM648.96 47.3953H648.23V48.1256H648.96V47.3953ZM648.96 43.7442V43.014H648.23V43.7442H648.96ZM652.611 43.7442H653.341V43.014H652.611V43.7442ZM652.611 47.3953V48.1256H653.341V47.3953H652.611ZM634.355 62H633.625V62.7302H634.355V62ZM634.355 40.093V39.3628H633.625V40.093H634.355ZM638.007 40.093H638.737V39.3628H638.007V40.093ZM638.007 43.7442H637.276V44.4744H638.007V43.7442ZM641.658 43.7442H642.388V43.014H641.658V43.7442ZM641.658 47.3953V48.1256H642.388V47.3953H641.658ZM638.007 47.3953V46.6651H637.276V47.3953H638.007ZM638.007 62V62.7302H638.737V62H638.007ZM641.658 43.7442H640.927V44.4744H641.658V43.7442ZM641.658 40.093V39.3628H640.927V40.093H641.658ZM648.96 40.093H649.69V39.3628H648.96V40.093ZM648.96 43.7442V44.4744H649.69V43.7442H648.96ZM649.69 47.3953V43.7442H648.23V47.3953H649.69ZM648.96 44.4744H652.611V43.014H648.96V44.4744ZM651.881 43.7442V47.3953H653.341V43.7442H651.881ZM652.611 46.6651H648.96V48.1256H652.611V46.6651ZM635.086 62V40.093H633.625V62H635.086ZM634.355 40.8233H638.007V39.3628H634.355V40.8233ZM637.276 40.093V43.7442H638.737V40.093H637.276ZM638.007 44.4744H641.658V43.014H638.007V44.4744ZM640.927 43.7442V47.3953H642.388V43.7442H640.927ZM641.658 46.6651H638.007V48.1256H641.658V46.6651ZM637.276 47.3953V62H638.737V47.3953H637.276ZM638.007 61.2698H634.355V62.7302H638.007V61.2698ZM642.388 43.7442V40.093H640.927V43.7442H642.388ZM641.658 40.8233H648.96V39.3628H641.658V40.8233ZM648.23 40.093V43.7442H649.69V40.093H648.23ZM648.96 43.014H641.658V44.4744H648.96V43.014ZM660.498 62H659.768V62.7302H660.498V62ZM660.498 54.6977V53.9674H659.768V54.6977H660.498ZM664.149 54.6977V55.4279H664.879V54.6977H664.149ZM664.149 51.0465V50.3163H663.419V51.0465H664.149ZM667.8 51.0465H668.53V50.3163H667.8V51.0465ZM667.8 58.3488V59.0791H668.53V58.3488H667.8ZM664.149 58.3488V57.6186H663.419V58.3488H664.149ZM664.149 62V62.7302H664.879V62H664.149ZM675.102 62H674.372V62.7302H675.102V62ZM675.102 58.3488H675.833V57.6186H675.102V58.3488ZM671.451 58.3488H670.721V59.0791H671.451V58.3488ZM671.451 51.0465V50.3163H670.721V51.0465H671.451ZM675.102 51.0465H675.833V50.3163H675.102V51.0465ZM675.102 54.6977H674.372V55.4279H675.102V54.6977ZM678.754 54.6977H679.484V53.9674H678.754V54.6977ZM678.754 62V62.7302H679.484V62H678.754ZM667.8 51.0465H667.07V51.7767H667.8V51.0465ZM667.8 43.7442V43.014H667.07V43.7442H667.8ZM671.451 43.7442H672.181V43.014H671.451V43.7442ZM671.451 51.0465V51.7767H672.181V51.0465H671.451ZM656.847 54.6977H656.116V55.4279H656.847V54.6977ZM656.847 40.093V39.3628H656.116V40.093H656.847ZM660.498 40.093H661.228V39.3628H660.498V40.093ZM660.498 54.6977V55.4279H661.228V54.6977H660.498ZM678.754 54.6977H678.023V55.4279H678.754V54.6977ZM678.754 40.093V39.3628H678.023V40.093H678.754ZM682.405 40.093H683.135V39.3628H682.405V40.093ZM682.405 54.6977V55.4279H683.135V54.6977H682.405ZM661.228 62V54.6977H659.768V62H661.228ZM660.498 55.4279H664.149V53.9674H660.498V55.4279ZM664.879 54.6977V51.0465H663.419V54.6977H664.879ZM664.149 51.7767H667.8V50.3163H664.149V51.7767ZM667.07 51.0465V58.3488H668.53V51.0465H667.07ZM667.8 57.6186H664.149V59.0791H667.8V57.6186ZM663.419 58.3488V62H664.879V58.3488H663.419ZM664.149 61.2698H660.498V62.7302H664.149V61.2698ZM675.833 62V58.3488H674.372V62H675.833ZM675.102 57.6186H671.451V59.0791H675.102V57.6186ZM672.181 58.3488V51.0465H670.721V58.3488H672.181ZM671.451 51.7767H675.102V50.3163H671.451V51.7767ZM674.372 51.0465V54.6977H675.833V51.0465H674.372ZM675.102 55.4279H678.754V53.9674H675.102V55.4279ZM678.023 54.6977V62H679.484V54.6977H678.023ZM678.754 61.2698H675.102V62.7302H678.754V61.2698ZM668.53 51.0465V43.7442H667.07V51.0465H668.53ZM667.8 44.4744H671.451V43.014H667.8V44.4744ZM670.721 43.7442V51.0465H672.181V43.7442H670.721ZM671.451 50.3163H667.8V51.7767H671.451V50.3163ZM657.577 54.6977V40.093H656.116V54.6977H657.577ZM656.847 40.8233H660.498V39.3628H656.847V40.8233ZM659.768 40.093V54.6977H661.228V40.093H659.768ZM660.498 53.9674H656.847V55.4279H660.498V53.9674ZM679.484 54.6977V40.093H678.023V54.6977H679.484ZM678.754 40.8233H682.405V39.3628H678.754V40.8233ZM681.674 40.093V54.6977H683.135V40.093H681.674ZM682.405 53.9674H678.754V55.4279H682.405V53.9674ZM686.64 58.3488H685.91V59.0791H686.64V58.3488ZM686.64 51.0465V50.3163H685.91V51.0465H686.64ZM690.291 51.0465H691.021V50.3163H690.291V51.0465ZM690.291 58.3488V59.0791H691.021V58.3488H690.291ZM690.291 62H689.561V62.7302H690.291V62ZM690.291 58.3488V57.6186H689.561V58.3488H690.291ZM701.245 58.3488V59.0791H701.975V58.3488H701.245ZM701.245 51.0465H701.975V50.3163H701.245V51.0465ZM690.291 51.0465H689.561V51.7767H690.291V51.0465ZM690.291 47.3953V46.6651H689.561V47.3953H690.291ZM701.245 47.3953V48.1256H701.975V47.3953H701.245ZM701.245 43.7442V43.014H700.514V43.7442H701.245ZM704.896 43.7442H705.626V43.014H704.896V43.7442ZM704.896 62V62.7302H705.626V62H704.896ZM690.291 43.7442H689.561V44.4744H690.291V43.7442ZM690.291 40.093V39.3628H689.561V40.093H690.291ZM701.245 40.093H701.975V39.3628H701.245V40.093ZM701.245 43.7442V44.4744H701.975V43.7442H701.245ZM687.37 58.3488V51.0465H685.91V58.3488H687.37ZM686.64 51.7767H690.291V50.3163H686.64V51.7767ZM689.561 51.0465V58.3488H691.021V51.0465H689.561ZM690.291 57.6186H686.64V59.0791H690.291V57.6186ZM691.021 62V58.3488H689.561V62H691.021ZM690.291 59.0791H701.245V57.6186H690.291V59.0791ZM701.975 58.3488V51.0465H700.514V58.3488H701.975ZM701.245 50.3163H690.291V51.7767H701.245V50.3163ZM691.021 51.0465V47.3953H689.561V51.0465H691.021ZM690.291 48.1256H701.245V46.6651H690.291V48.1256ZM701.975 47.3953V43.7442H700.514V47.3953H701.975ZM701.245 44.4744H704.896V43.014H701.245V44.4744ZM704.166 43.7442V62H705.626V43.7442H704.166ZM704.896 61.2698H690.291V62.7302H704.896V61.2698ZM691.021 43.7442V40.093H689.561V43.7442H691.021ZM690.291 40.8233H701.245V39.3628H690.291V40.8233ZM700.514 40.093V43.7442H701.975V40.093H700.514ZM701.245 43.014H690.291V44.4744H701.245V43.014ZM727.387 47.3953H726.657V48.1256H727.387V47.3953ZM727.387 43.7442V43.014H726.657V43.7442H727.387ZM731.038 43.7442H731.768V43.014H731.038V43.7442ZM731.038 47.3953V48.1256H731.768V47.3953H731.038ZM712.782 62H712.052V62.7302H712.782V62ZM712.782 40.093V39.3628H712.052V40.093H712.782ZM716.434 40.093H717.164V39.3628H716.434V40.093ZM716.434 43.7442H715.703V44.4744H716.434V43.7442ZM720.085 43.7442H720.815V43.014H720.085V43.7442ZM720.085 47.3953V48.1256H720.815V47.3953H720.085ZM716.434 47.3953V46.6651H715.703V47.3953H716.434ZM716.434 62V62.7302H717.164V62H716.434ZM720.085 43.7442H719.354V44.4744H720.085V43.7442ZM720.085 40.093V39.3628H719.354V40.093H720.085ZM727.387 40.093H728.117V39.3628H727.387V40.093ZM727.387 43.7442V44.4744H728.117V43.7442H727.387ZM728.117 47.3953V43.7442H726.657V47.3953H728.117ZM727.387 44.4744H731.038V43.014H727.387V44.4744ZM730.308 43.7442V47.3953H731.768V43.7442H730.308ZM731.038 46.6651H727.387V48.1256H731.038V46.6651ZM713.513 62V40.093H712.052V62H713.513ZM712.782 40.8233H716.434V39.3628H712.782V40.8233ZM715.703 40.093V43.7442H717.164V40.093H715.703ZM716.434 44.4744H720.085V43.014H716.434V44.4744ZM719.354 43.7442V47.3953H720.815V43.7442H719.354ZM720.085 46.6651H716.434V48.1256H720.085V46.6651ZM715.703 47.3953V62H717.164V47.3953H715.703ZM716.434 61.2698H712.782V62.7302H716.434V61.2698ZM720.815 43.7442V40.093H719.354V43.7442H720.815ZM720.085 40.8233H727.387V39.3628H720.085V40.8233ZM726.657 40.093V43.7442H728.117V40.093H726.657ZM727.387 43.014H720.085V44.4744H727.387V43.014ZM738.925 58.3488H738.195V59.0791H738.925V58.3488ZM738.925 43.7442V43.014H738.195V43.7442H738.925ZM742.576 43.7442H743.306V43.014H742.576V43.7442ZM742.576 58.3488V59.0791H743.306V58.3488H742.576ZM742.576 62H741.846V62.7302H742.576V62ZM742.576 58.3488V57.6186H741.846V58.3488H742.576ZM753.529 58.3488V59.0791H754.26V58.3488H753.529ZM753.529 43.7442H754.26V43.014H753.529V43.7442ZM742.576 43.7442H741.846V44.4744H742.576V43.7442ZM742.576 40.093V39.3628H741.846V40.093H742.576ZM753.529 40.093V40.8233H754.26V40.093H753.529ZM753.529 29.1395V28.4093H752.799V29.1395H753.529ZM757.181 29.1395H757.911V28.4093H757.181V29.1395ZM757.181 62V62.7302H757.911V62H757.181ZM739.655 58.3488V43.7442H738.195V58.3488H739.655ZM738.925 44.4744H742.576V43.014H738.925V44.4744ZM741.846 43.7442V58.3488H743.306V43.7442H741.846ZM742.576 57.6186H738.925V59.0791H742.576V57.6186ZM743.306 62V58.3488H741.846V62H743.306ZM742.576 59.0791H753.529V57.6186H742.576V59.0791ZM754.26 58.3488V43.7442H752.799V58.3488H754.26ZM753.529 43.014H742.576V44.4744H753.529V43.014ZM743.306 43.7442V40.093H741.846V43.7442H743.306ZM742.576 40.8233H753.529V39.3628H742.576V40.8233ZM754.26 40.093V29.1395H752.799V40.093H754.26ZM753.529 29.8698H757.181V28.4093H753.529V29.8698ZM756.45 29.1395V62H757.911V29.1395H756.45ZM757.181 61.2698H742.576V62.7302H757.181V61.2698Z" fill="#252840" mask="url(#path-1-outside-1_6_1899)"/>
<rect x="1278" width="13" height="103" fill="#B9A597"/>
<rect x="1291" y="90" width="13.0001" height="1291" transform="rotate(90 1291 90)" fill="#B9A597"/>
</svg>
