<svg width="1274" height="105" viewBox="0 0 1274 105" fill="none" xmlns="http://www.w3.org/2000/svg">
<rect width="1260" height="103" transform="translate(14 2)" fill="white"/>
<mask id="path-1-outside-1_6_1899" maskUnits="userSpaceOnUse" x="122" y="29.7908" width="622" height="46" fill="black">
<rect fill="white" x="122" y="29.7908" width="622" height="46"/>
<path d="M138.256 49.1861V38.2326H141.907V49.1861H138.256ZM123.651 63.7908V34.5815H138.256V38.2326H127.302V49.1861H138.256V52.8373H127.302V63.7908H123.651ZM153.445 63.7908V60.1396H164.398V63.7908H153.445ZM164.398 60.1396V56.4884H168.049V60.1396H164.398ZM149.793 60.1396V45.535H153.445V49.1861H164.398V45.535H168.049V52.8373H153.445V60.1396H149.793ZM153.445 45.535V41.8838H164.398V45.535H153.445ZM190.54 49.1861V45.535H194.192V49.1861H190.54ZM175.936 63.7908V41.8838H179.587V45.535H183.238V49.1861H179.587V63.7908H175.936ZM183.238 45.535V41.8838H190.54V45.535H183.238ZM202.078 63.7908V60.1396H216.683V63.7908H202.078ZM216.683 60.1396V56.4884H220.334V60.1396H216.683ZM213.032 56.4884V52.8373H216.683V56.4884H213.032ZM205.729 52.8373V49.1861H213.032V52.8373H205.729ZM202.078 49.1861V45.535H205.729V49.1861H202.078ZM205.729 45.535V41.8838H220.334V45.535H205.729ZM254.363 60.1396V52.8373H258.014V60.1396H254.363ZM258.014 63.7908V60.1396H268.967V52.8373H258.014V49.1861H268.967V45.535H272.619V63.7908H258.014ZM258.014 45.535V41.8838H268.967V45.535H258.014ZM291.459 63.7908V60.1396H295.11V63.7908H291.459ZM287.807 60.1396V34.5815H284.156V30.9303H291.459V60.1396H287.807ZM306.647 63.7908V56.4884H310.299V52.8373H313.95V60.1396H310.299V63.7908H306.647ZM321.252 63.7908V60.1396H317.601V52.8373H321.252V56.4884H324.903V63.7908H321.252ZM313.95 52.8373V45.535H317.601V52.8373H313.95ZM302.996 56.4884V41.8838H306.647V56.4884H302.996ZM324.903 56.4884V41.8838H328.554V56.4884H324.903ZM332.79 60.1396V52.8373H336.441V60.1396H332.79ZM336.441 63.7908V60.1396H347.394V52.8373H336.441V49.1861H347.394V45.535H351.046V63.7908H336.441ZM336.441 45.535V41.8838H347.394V45.535H336.441ZM362.583 74.7443V71.0931H366.234V74.7443H362.583ZM366.234 71.0931V60.1396H369.886V71.0931H366.234ZM362.583 60.1396V49.1861H366.234V60.1396H362.583ZM369.886 60.1396V49.1861H373.537V60.1396H369.886ZM358.932 49.1861V41.8838H362.583V49.1861H358.932ZM373.537 49.1861V41.8838H377.188V49.1861H373.537ZM385.074 63.7908V60.1396H399.679V63.7908H385.074ZM399.679 60.1396V56.4884H403.33V60.1396H399.679ZM396.028 56.4884V52.8373H399.679V56.4884H396.028ZM388.726 52.8373V49.1861H396.028V52.8373H388.726ZM385.074 49.1861V45.535H388.726V49.1861H385.074ZM388.726 45.535V41.8838H403.33V45.535H388.726ZM451.964 49.1861V45.535H455.615V49.1861H451.964ZM437.359 63.7908V41.8838H441.01V45.535H444.661V49.1861H441.01V63.7908H437.359ZM444.661 45.535V41.8838H451.964V45.535H444.661ZM463.501 60.1396V41.8838H467.153V60.1396H463.501ZM467.153 63.7908V60.1396H478.106V41.8838H481.757V63.7908H467.153ZM504.248 63.7908V45.535H507.9V63.7908H504.248ZM489.644 63.7908V41.8838H504.248V45.535H493.295V63.7908H489.644ZM515.786 63.7908V60.1396H530.391V63.7908H515.786ZM530.391 60.1396V56.4884H534.042V60.1396H530.391ZM526.74 56.4884V52.8373H530.391V56.4884H526.74ZM519.437 52.8373V49.1861H526.74V52.8373H519.437ZM515.786 49.1861V45.535H519.437V49.1861H515.786ZM519.437 45.535V41.8838H534.042V45.535H519.437ZM571.722 63.7908V45.535H568.071V41.8838H571.722V34.5815H575.373V41.8838H582.675V45.535H575.373V63.7908H571.722ZM575.373 34.5815V30.9303H586.327V34.5815H575.373ZM597.864 63.7908V60.1396H608.818V63.7908H597.864ZM594.213 60.1396V45.535H597.864V60.1396H594.213ZM608.818 60.1396V45.535H612.469V60.1396H608.818ZM597.864 45.535V41.8838H608.818V45.535H597.864ZM634.96 49.1861V45.535H638.611V49.1861H634.96ZM620.355 63.7908V41.8838H624.007V45.535H627.658V49.1861H624.007V63.7908H620.355ZM627.658 45.535V41.8838H634.96V45.535H627.658ZM646.498 63.7908V56.4884H650.149V52.8373H653.8V60.1396H650.149V63.7908H646.498ZM661.102 63.7908V60.1396H657.451V52.8373H661.102V56.4884H664.754V63.7908H661.102ZM653.8 52.8373V45.535H657.451V52.8373H653.8ZM642.847 56.4884V41.8838H646.498V56.4884H642.847ZM664.754 56.4884V41.8838H668.405V56.4884H664.754ZM672.64 60.1396V52.8373H676.291V60.1396H672.64ZM676.291 63.7908V60.1396H687.245V52.8373H676.291V49.1861H687.245V45.535H690.896V63.7908H676.291ZM676.291 45.535V41.8838H687.245V45.535H676.291ZM713.387 49.1861V45.535H717.038V49.1861H713.387ZM698.782 63.7908V41.8838H702.434V45.535H706.085V49.1861H702.434V63.7908H698.782ZM706.085 45.535V41.8838H713.387V45.535H706.085ZM724.925 60.1396V45.535H728.576V60.1396H724.925ZM728.576 63.7908V60.1396H739.529V45.535H728.576V41.8838H739.529V30.9303H743.181V63.7908H728.576Z"/>
</mask>
<path d="M138.256 49.1861V38.2326H141.907V49.1861H138.256ZM123.651 63.7908V34.5815H138.256V38.2326H127.302V49.1861H138.256V52.8373H127.302V63.7908H123.651ZM153.445 63.7908V60.1396H164.398V63.7908H153.445ZM164.398 60.1396V56.4884H168.049V60.1396H164.398ZM149.793 60.1396V45.535H153.445V49.1861H164.398V45.535H168.049V52.8373H153.445V60.1396H149.793ZM153.445 45.535V41.8838H164.398V45.535H153.445ZM190.54 49.1861V45.535H194.192V49.1861H190.54ZM175.936 63.7908V41.8838H179.587V45.535H183.238V49.1861H179.587V63.7908H175.936ZM183.238 45.535V41.8838H190.54V45.535H183.238ZM202.078 63.7908V60.1396H216.683V63.7908H202.078ZM216.683 60.1396V56.4884H220.334V60.1396H216.683ZM213.032 56.4884V52.8373H216.683V56.4884H213.032ZM205.729 52.8373V49.1861H213.032V52.8373H205.729ZM202.078 49.1861V45.535H205.729V49.1861H202.078ZM205.729 45.535V41.8838H220.334V45.535H205.729ZM254.363 60.1396V52.8373H258.014V60.1396H254.363ZM258.014 63.7908V60.1396H268.967V52.8373H258.014V49.1861H268.967V45.535H272.619V63.7908H258.014ZM258.014 45.535V41.8838H268.967V45.535H258.014ZM291.459 63.7908V60.1396H295.11V63.7908H291.459ZM287.807 60.1396V34.5815H284.156V30.9303H291.459V60.1396H287.807ZM306.647 63.7908V56.4884H310.299V52.8373H313.95V60.1396H310.299V63.7908H306.647ZM321.252 63.7908V60.1396H317.601V52.8373H321.252V56.4884H324.903V63.7908H321.252ZM313.95 52.8373V45.535H317.601V52.8373H313.95ZM302.996 56.4884V41.8838H306.647V56.4884H302.996ZM324.903 56.4884V41.8838H328.554V56.4884H324.903ZM332.79 60.1396V52.8373H336.441V60.1396H332.79ZM336.441 63.7908V60.1396H347.394V52.8373H336.441V49.1861H347.394V45.535H351.046V63.7908H336.441ZM336.441 45.535V41.8838H347.394V45.535H336.441ZM362.583 74.7443V71.0931H366.234V74.7443H362.583ZM366.234 71.0931V60.1396H369.886V71.0931H366.234ZM362.583 60.1396V49.1861H366.234V60.1396H362.583ZM369.886 60.1396V49.1861H373.537V60.1396H369.886ZM358.932 49.1861V41.8838H362.583V49.1861H358.932ZM373.537 49.1861V41.8838H377.188V49.1861H373.537ZM385.074 63.7908V60.1396H399.679V63.7908H385.074ZM399.679 60.1396V56.4884H403.33V60.1396H399.679ZM396.028 56.4884V52.8373H399.679V56.4884H396.028ZM388.726 52.8373V49.1861H396.028V52.8373H388.726ZM385.074 49.1861V45.535H388.726V49.1861H385.074ZM388.726 45.535V41.8838H403.33V45.535H388.726ZM451.964 49.1861V45.535H455.615V49.1861H451.964ZM437.359 63.7908V41.8838H441.01V45.535H444.661V49.1861H441.01V63.7908H437.359ZM444.661 45.535V41.8838H451.964V45.535H444.661ZM463.501 60.1396V41.8838H467.153V60.1396H463.501ZM467.153 63.7908V60.1396H478.106V41.8838H481.757V63.7908H467.153ZM504.248 63.7908V45.535H507.9V63.7908H504.248ZM489.644 63.7908V41.8838H504.248V45.535H493.295V63.7908H489.644ZM515.786 63.7908V60.1396H530.391V63.7908H515.786ZM530.391 60.1396V56.4884H534.042V60.1396H530.391ZM526.74 56.4884V52.8373H530.391V56.4884H526.74ZM519.437 52.8373V49.1861H526.74V52.8373H519.437ZM515.786 49.1861V45.535H519.437V49.1861H515.786ZM519.437 45.535V41.8838H534.042V45.535H519.437ZM571.722 63.7908V45.535H568.071V41.8838H571.722V34.5815H575.373V41.8838H582.675V45.535H575.373V63.7908H571.722ZM575.373 34.5815V30.9303H586.327V34.5815H575.373ZM597.864 63.7908V60.1396H608.818V63.7908H597.864ZM594.213 60.1396V45.535H597.864V60.1396H594.213ZM608.818 60.1396V45.535H612.469V60.1396H608.818ZM597.864 45.535V41.8838H608.818V45.535H597.864ZM634.96 49.1861V45.535H638.611V49.1861H634.96ZM620.355 63.7908V41.8838H624.007V45.535H627.658V49.1861H624.007V63.7908H620.355ZM627.658 45.535V41.8838H634.96V45.535H627.658ZM646.498 63.7908V56.4884H650.149V52.8373H653.8V60.1396H650.149V63.7908H646.498ZM661.102 63.7908V60.1396H657.451V52.8373H661.102V56.4884H664.754V63.7908H661.102ZM653.8 52.8373V45.535H657.451V52.8373H653.8ZM642.847 56.4884V41.8838H646.498V56.4884H642.847ZM664.754 56.4884V41.8838H668.405V56.4884H664.754ZM672.64 60.1396V52.8373H676.291V60.1396H672.64ZM676.291 63.7908V60.1396H687.245V52.8373H676.291V49.1861H687.245V45.535H690.896V63.7908H676.291ZM676.291 45.535V41.8838H687.245V45.535H676.291ZM713.387 49.1861V45.535H717.038V49.1861H713.387ZM698.782 63.7908V41.8838H702.434V45.535H706.085V49.1861H702.434V63.7908H698.782ZM706.085 45.535V41.8838H713.387V45.535H706.085ZM724.925 60.1396V45.535H728.576V60.1396H724.925ZM728.576 63.7908V60.1396H739.529V45.535H728.576V41.8838H739.529V30.9303H743.181V63.7908H728.576Z" fill="#252840"/>
<path d="M138.256 49.1861H137.526V49.9164H138.256V49.1861ZM138.256 38.2326V37.5024H137.526V38.2326H138.256ZM141.907 38.2326H142.637V37.5024H141.907V38.2326ZM141.907 49.1861V49.9164H142.637V49.1861H141.907ZM123.651 63.7908H122.921V64.521H123.651V63.7908ZM123.651 34.5815V33.8512H122.921V34.5815H123.651ZM138.256 34.5815H138.986V33.8512H138.256V34.5815ZM138.256 38.2326V38.9629H138.986V38.2326H138.256ZM127.302 38.2326V37.5024H126.572V38.2326H127.302ZM127.302 49.1861H126.572V49.9164H127.302V49.1861ZM138.256 49.1861H138.986V48.4559H138.256V49.1861ZM138.256 52.8373V53.5675H138.986V52.8373H138.256ZM127.302 52.8373V52.107H126.572V52.8373H127.302ZM127.302 63.7908V64.521H128.033V63.7908H127.302ZM138.986 49.1861V38.2326H137.526V49.1861H138.986ZM138.256 38.9629H141.907V37.5024H138.256V38.9629ZM141.177 38.2326V49.1861H142.637V38.2326H141.177ZM141.907 48.4559H138.256V49.9164H141.907V48.4559ZM124.381 63.7908V34.5815H122.921V63.7908H124.381ZM123.651 35.3117H138.256V33.8512H123.651V35.3117ZM137.526 34.5815V38.2326H138.986V34.5815H137.526ZM138.256 37.5024H127.302V38.9629H138.256V37.5024ZM126.572 38.2326V49.1861H128.033V38.2326H126.572ZM127.302 49.9164H138.256V48.4559H127.302V49.9164ZM137.526 49.1861V52.8373H138.986V49.1861H137.526ZM138.256 52.107H127.302V53.5675H138.256V52.107ZM126.572 52.8373V63.7908H128.033V52.8373H126.572ZM127.302 63.0605H123.651V64.521H127.302V63.0605ZM153.445 63.7908H152.714V64.521H153.445V63.7908ZM153.445 60.1396V59.4094H152.714V60.1396H153.445ZM164.398 60.1396H165.128V59.4094H164.398V60.1396ZM164.398 63.7908V64.521H165.128V63.7908H164.398ZM164.398 60.1396H163.668V60.8698H164.398V60.1396ZM164.398 56.4884V55.7582H163.668V56.4884H164.398ZM168.049 56.4884H168.78V55.7582H168.049V56.4884ZM168.049 60.1396V60.8698H168.78V60.1396H168.049ZM149.793 60.1396H149.063V60.8698H149.793V60.1396ZM149.793 45.535V44.8047H149.063V45.535H149.793ZM153.445 45.535H154.175V44.8047H153.445V45.535ZM153.445 49.1861H152.714V49.9164H153.445V49.1861ZM164.398 49.1861V49.9164H165.128V49.1861H164.398ZM164.398 45.535V44.8047H163.668V45.535H164.398ZM168.049 45.535H168.78V44.8047H168.049V45.535ZM168.049 52.8373V53.5675H168.78V52.8373H168.049ZM153.445 52.8373V52.107H152.714V52.8373H153.445ZM153.445 60.1396V60.8698H154.175V60.1396H153.445ZM153.445 45.535H152.714V46.2652H153.445V45.535ZM153.445 41.8838V41.1536H152.714V41.8838H153.445ZM164.398 41.8838H165.128V41.1536H164.398V41.8838ZM164.398 45.535V46.2652H165.128V45.535H164.398ZM154.175 63.7908V60.1396H152.714V63.7908H154.175ZM153.445 60.8698H164.398V59.4094H153.445V60.8698ZM163.668 60.1396V63.7908H165.128V60.1396H163.668ZM164.398 63.0605H153.445V64.521H164.398V63.0605ZM165.128 60.1396V56.4884H163.668V60.1396H165.128ZM164.398 57.2187H168.049V55.7582H164.398V57.2187ZM167.319 56.4884V60.1396H168.78V56.4884H167.319ZM168.049 59.4094H164.398V60.8698H168.049V59.4094ZM150.524 60.1396V45.535H149.063V60.1396H150.524ZM149.793 46.2652H153.445V44.8047H149.793V46.2652ZM152.714 45.535V49.1861H154.175V45.535H152.714ZM153.445 49.9164H164.398V48.4559H153.445V49.9164ZM165.128 49.1861V45.535H163.668V49.1861H165.128ZM164.398 46.2652H168.049V44.8047H164.398V46.2652ZM167.319 45.535V52.8373H168.78V45.535H167.319ZM168.049 52.107H153.445V53.5675H168.049V52.107ZM152.714 52.8373V60.1396H154.175V52.8373H152.714ZM153.445 59.4094H149.793V60.8698H153.445V59.4094ZM154.175 45.535V41.8838H152.714V45.535H154.175ZM153.445 42.614H164.398V41.1536H153.445V42.614ZM163.668 41.8838V45.535H165.128V41.8838H163.668ZM164.398 44.8047H153.445V46.2652H164.398V44.8047ZM190.54 49.1861H189.81V49.9164H190.54V49.1861ZM190.54 45.535V44.8047H189.81V45.535H190.54ZM194.192 45.535H194.922V44.8047H194.192V45.535ZM194.192 49.1861V49.9164H194.922V49.1861H194.192ZM175.936 63.7908H175.206V64.521H175.936V63.7908ZM175.936 41.8838V41.1536H175.206V41.8838H175.936ZM179.587 41.8838H180.317V41.1536H179.587V41.8838ZM179.587 45.535H178.857V46.2652H179.587V45.535ZM183.238 45.535H183.968V44.8047H183.238V45.535ZM183.238 49.1861V49.9164H183.968V49.1861H183.238ZM179.587 49.1861V48.4559H178.857V49.1861H179.587ZM179.587 63.7908V64.521H180.317V63.7908H179.587ZM183.238 45.535H182.508V46.2652H183.238V45.535ZM183.238 41.8838V41.1536H182.508V41.8838H183.238ZM190.54 41.8838H191.271V41.1536H190.54V41.8838ZM190.54 45.535V46.2652H191.271V45.535H190.54ZM191.271 49.1861V45.535H189.81V49.1861H191.271ZM190.54 46.2652H194.192V44.8047H190.54V46.2652ZM193.461 45.535V49.1861H194.922V45.535H193.461ZM194.192 48.4559H190.54V49.9164H194.192V48.4559ZM176.666 63.7908V41.8838H175.206V63.7908H176.666ZM175.936 42.614H179.587V41.1536H175.936V42.614ZM178.857 41.8838V45.535H180.317V41.8838H178.857ZM179.587 46.2652H183.238V44.8047H179.587V46.2652ZM182.508 45.535V49.1861H183.968V45.535H182.508ZM183.238 48.4559H179.587V49.9164H183.238V48.4559ZM178.857 49.1861V63.7908H180.317V49.1861H178.857ZM179.587 63.0605H175.936V64.521H179.587V63.0605ZM183.968 45.535V41.8838H182.508V45.535H183.968ZM183.238 42.614H190.54V41.1536H183.238V42.614ZM189.81 41.8838V45.535H191.271V41.8838H189.81ZM190.54 44.8047H183.238V46.2652H190.54V44.8047ZM202.078 63.7908H201.348V64.521H202.078V63.7908ZM202.078 60.1396V59.4094H201.348V60.1396H202.078ZM216.683 60.1396H217.413V59.4094H216.683V60.1396ZM216.683 63.7908V64.521H217.413V63.7908H216.683ZM216.683 60.1396H215.953V60.8698H216.683V60.1396ZM216.683 56.4884V55.7582H215.953V56.4884H216.683ZM220.334 56.4884H221.064V55.7582H220.334V56.4884ZM220.334 60.1396V60.8698H221.064V60.1396H220.334ZM213.032 56.4884H212.301V57.2187H213.032V56.4884ZM213.032 52.8373V52.107H212.301V52.8373H213.032ZM216.683 52.8373H217.413V52.107H216.683V52.8373ZM216.683 56.4884V57.2187H217.413V56.4884H216.683ZM205.729 52.8373H204.999V53.5675H205.729V52.8373ZM205.729 49.1861V48.4559H204.999V49.1861H205.729ZM213.032 49.1861H213.762V48.4559H213.032V49.1861ZM213.032 52.8373V53.5675H213.762V52.8373H213.032ZM202.078 49.1861H201.348V49.9164H202.078V49.1861ZM202.078 45.535V44.8047H201.348V45.535H202.078ZM205.729 45.535H206.46V44.8047H205.729V45.535ZM205.729 49.1861V49.9164H206.46V49.1861H205.729ZM205.729 45.535H204.999V46.2652H205.729V45.535ZM205.729 41.8838V41.1536H204.999V41.8838H205.729ZM220.334 41.8838H221.064V41.1536H220.334V41.8838ZM220.334 45.535V46.2652H221.064V45.535H220.334ZM202.808 63.7908V60.1396H201.348V63.7908H202.808ZM202.078 60.8698H216.683V59.4094H202.078V60.8698ZM215.953 60.1396V63.7908H217.413V60.1396H215.953ZM216.683 63.0605H202.078V64.521H216.683V63.0605ZM217.413 60.1396V56.4884H215.953V60.1396H217.413ZM216.683 57.2187H220.334V55.7582H216.683V57.2187ZM219.604 56.4884V60.1396H221.064V56.4884H219.604ZM220.334 59.4094H216.683V60.8698H220.334V59.4094ZM213.762 56.4884V52.8373H212.301V56.4884H213.762ZM213.032 53.5675H216.683V52.107H213.032V53.5675ZM215.953 52.8373V56.4884H217.413V52.8373H215.953ZM216.683 55.7582H213.032V57.2187H216.683V55.7582ZM206.46 52.8373V49.1861H204.999V52.8373H206.46ZM205.729 49.9164H213.032V48.4559H205.729V49.9164ZM212.301 49.1861V52.8373H213.762V49.1861H212.301ZM213.032 52.107H205.729V53.5675H213.032V52.107ZM202.808 49.1861V45.535H201.348V49.1861H202.808ZM202.078 46.2652H205.729V44.8047H202.078V46.2652ZM204.999 45.535V49.1861H206.46V45.535H204.999ZM205.729 48.4559H202.078V49.9164H205.729V48.4559ZM206.46 45.535V41.8838H204.999V45.535H206.46ZM205.729 42.614H220.334V41.1536H205.729V42.614ZM219.604 41.8838V45.535H221.064V41.8838H219.604ZM220.334 44.8047H205.729V46.2652H220.334V44.8047ZM254.363 60.1396H253.633V60.8698H254.363V60.1396ZM254.363 52.8373V52.107H253.633V52.8373H254.363ZM258.014 52.8373H258.744V52.107H258.014V52.8373ZM258.014 60.1396V60.8698H258.744V60.1396H258.014ZM258.014 63.7908H257.284V64.521H258.014V63.7908ZM258.014 60.1396V59.4094H257.284V60.1396H258.014ZM268.967 60.1396V60.8698H269.698V60.1396H268.967ZM268.967 52.8373H269.698V52.107H268.967V52.8373ZM258.014 52.8373H257.284V53.5675H258.014V52.8373ZM258.014 49.1861V48.4559H257.284V49.1861H258.014ZM268.967 49.1861V49.9164H269.698V49.1861H268.967ZM268.967 45.535V44.8047H268.237V45.535H268.967ZM272.619 45.535H273.349V44.8047H272.619V45.535ZM272.619 63.7908V64.521H273.349V63.7908H272.619ZM258.014 45.535H257.284V46.2652H258.014V45.535ZM258.014 41.8838V41.1536H257.284V41.8838H258.014ZM268.967 41.8838H269.698V41.1536H268.967V41.8838ZM268.967 45.535V46.2652H269.698V45.535H268.967ZM255.093 60.1396V52.8373H253.633V60.1396H255.093ZM254.363 53.5675H258.014V52.107H254.363V53.5675ZM257.284 52.8373V60.1396H258.744V52.8373H257.284ZM258.014 59.4094H254.363V60.8698H258.014V59.4094ZM258.744 63.7908V60.1396H257.284V63.7908H258.744ZM258.014 60.8698H268.967V59.4094H258.014V60.8698ZM269.698 60.1396V52.8373H268.237V60.1396H269.698ZM268.967 52.107H258.014V53.5675H268.967V52.107ZM258.744 52.8373V49.1861H257.284V52.8373H258.744ZM258.014 49.9164H268.967V48.4559H258.014V49.9164ZM269.698 49.1861V45.535H268.237V49.1861H269.698ZM268.967 46.2652H272.619V44.8047H268.967V46.2652ZM271.888 45.535V63.7908H273.349V45.535H271.888ZM272.619 63.0605H258.014V64.521H272.619V63.0605ZM258.744 45.535V41.8838H257.284V45.535H258.744ZM258.014 42.614H268.967V41.1536H258.014V42.614ZM268.237 41.8838V45.535H269.698V41.8838H268.237ZM268.967 44.8047H258.014V46.2652H268.967V44.8047ZM291.459 63.7908H290.728V64.521H291.459V63.7908ZM291.459 60.1396V59.4094H290.728V60.1396H291.459ZM295.11 60.1396H295.84V59.4094H295.11V60.1396ZM295.11 63.7908V64.521H295.84V63.7908H295.11ZM287.807 60.1396H287.077V60.8698H287.807V60.1396ZM287.807 34.5815H288.538V33.8512H287.807V34.5815ZM284.156 34.5815H283.426V35.3117H284.156V34.5815ZM284.156 30.9303V30.2001H283.426V30.9303H284.156ZM291.459 30.9303H292.189V30.2001H291.459V30.9303ZM291.459 60.1396V60.8698H292.189V60.1396H291.459ZM292.189 63.7908V60.1396H290.728V63.7908H292.189ZM291.459 60.8698H295.11V59.4094H291.459V60.8698ZM294.38 60.1396V63.7908H295.84V60.1396H294.38ZM295.11 63.0605H291.459V64.521H295.11V63.0605ZM288.538 60.1396V34.5815H287.077V60.1396H288.538ZM287.807 33.8512H284.156V35.3117H287.807V33.8512ZM284.887 34.5815V30.9303H283.426V34.5815H284.887ZM284.156 31.6605H291.459V30.2001H284.156V31.6605ZM290.728 30.9303V60.1396H292.189V30.9303H290.728ZM291.459 59.4094H287.807V60.8698H291.459V59.4094ZM306.647 63.7908H305.917V64.521H306.647V63.7908ZM306.647 56.4884V55.7582H305.917V56.4884H306.647ZM310.299 56.4884V57.2187H311.029V56.4884H310.299ZM310.299 52.8373V52.107H309.568V52.8373H310.299ZM313.95 52.8373H314.68V52.107H313.95V52.8373ZM313.95 60.1396V60.8698H314.68V60.1396H313.95ZM310.299 60.1396V59.4094H309.568V60.1396H310.299ZM310.299 63.7908V64.521H311.029V63.7908H310.299ZM321.252 63.7908H320.522V64.521H321.252V63.7908ZM321.252 60.1396H321.982V59.4094H321.252V60.1396ZM317.601 60.1396H316.871V60.8698H317.601V60.1396ZM317.601 52.8373V52.107H316.871V52.8373H317.601ZM321.252 52.8373H321.982V52.107H321.252V52.8373ZM321.252 56.4884H320.522V57.2187H321.252V56.4884ZM324.903 56.4884H325.633V55.7582H324.903V56.4884ZM324.903 63.7908V64.521H325.633V63.7908H324.903ZM313.95 52.8373H313.22V53.5675H313.95V52.8373ZM313.95 45.535V44.8047H313.22V45.535H313.95ZM317.601 45.535H318.331V44.8047H317.601V45.535ZM317.601 52.8373V53.5675H318.331V52.8373H317.601ZM302.996 56.4884H302.266V57.2187H302.996V56.4884ZM302.996 41.8838V41.1536H302.266V41.8838H302.996ZM306.647 41.8838H307.378V41.1536H306.647V41.8838ZM306.647 56.4884V57.2187H307.378V56.4884H306.647ZM324.903 56.4884H324.173V57.2187H324.903V56.4884ZM324.903 41.8838V41.1536H324.173V41.8838H324.903ZM328.554 41.8838H329.285V41.1536H328.554V41.8838ZM328.554 56.4884V57.2187H329.285V56.4884H328.554ZM307.378 63.7908V56.4884H305.917V63.7908H307.378ZM306.647 57.2187H310.299V55.7582H306.647V57.2187ZM311.029 56.4884V52.8373H309.568V56.4884H311.029ZM310.299 53.5675H313.95V52.107H310.299V53.5675ZM313.22 52.8373V60.1396H314.68V52.8373H313.22ZM313.95 59.4094H310.299V60.8698H313.95V59.4094ZM309.568 60.1396V63.7908H311.029V60.1396H309.568ZM310.299 63.0605H306.647V64.521H310.299V63.0605ZM321.982 63.7908V60.1396H320.522V63.7908H321.982ZM321.252 59.4094H317.601V60.8698H321.252V59.4094ZM318.331 60.1396V52.8373H316.871V60.1396H318.331ZM317.601 53.5675H321.252V52.107H317.601V53.5675ZM320.522 52.8373V56.4884H321.982V52.8373H320.522ZM321.252 57.2187H324.903V55.7582H321.252V57.2187ZM324.173 56.4884V63.7908H325.633V56.4884H324.173ZM324.903 63.0605H321.252V64.521H324.903V63.0605ZM314.68 52.8373V45.535H313.22V52.8373H314.68ZM313.95 46.2652H317.601V44.8047H313.95V46.2652ZM316.871 45.535V52.8373H318.331V45.535H316.871ZM317.601 52.107H313.95V53.5675H317.601V52.107ZM303.727 56.4884V41.8838H302.266V56.4884H303.727ZM302.996 42.614H306.647V41.1536H302.996V42.614ZM305.917 41.8838V56.4884H307.378V41.8838H305.917ZM306.647 55.7582H302.996V57.2187H306.647V55.7582ZM325.633 56.4884V41.8838H324.173V56.4884H325.633ZM324.903 42.614H328.554V41.1536H324.903V42.614ZM327.824 41.8838V56.4884H329.285V41.8838H327.824ZM328.554 55.7582H324.903V57.2187H328.554V55.7582ZM332.79 60.1396H332.06V60.8698H332.79V60.1396ZM332.79 52.8373V52.107H332.06V52.8373H332.79ZM336.441 52.8373H337.171V52.107H336.441V52.8373ZM336.441 60.1396V60.8698H337.171V60.1396H336.441ZM336.441 63.7908H335.711V64.521H336.441V63.7908ZM336.441 60.1396V59.4094H335.711V60.1396H336.441ZM347.394 60.1396V60.8698H348.125V60.1396H347.394ZM347.394 52.8373H348.125V52.107H347.394V52.8373ZM336.441 52.8373H335.711V53.5675H336.441V52.8373ZM336.441 49.1861V48.4559H335.711V49.1861H336.441ZM347.394 49.1861V49.9164H348.125V49.1861H347.394ZM347.394 45.535V44.8047H346.664V45.535H347.394ZM351.046 45.535H351.776V44.8047H351.046V45.535ZM351.046 63.7908V64.521H351.776V63.7908H351.046ZM336.441 45.535H335.711V46.2652H336.441V45.535ZM336.441 41.8838V41.1536H335.711V41.8838H336.441ZM347.394 41.8838H348.125V41.1536H347.394V41.8838ZM347.394 45.535V46.2652H348.125V45.535H347.394ZM333.52 60.1396V52.8373H332.06V60.1396H333.52ZM332.79 53.5675H336.441V52.107H332.79V53.5675ZM335.711 52.8373V60.1396H337.171V52.8373H335.711ZM336.441 59.4094H332.79V60.8698H336.441V59.4094ZM337.171 63.7908V60.1396H335.711V63.7908H337.171ZM336.441 60.8698H347.394V59.4094H336.441V60.8698ZM348.125 60.1396V52.8373H346.664V60.1396H348.125ZM347.394 52.107H336.441V53.5675H347.394V52.107ZM337.171 52.8373V49.1861H335.711V52.8373H337.171ZM336.441 49.9164H347.394V48.4559H336.441V49.9164ZM348.125 49.1861V45.535H346.664V49.1861H348.125ZM347.394 46.2652H351.046V44.8047H347.394V46.2652ZM350.315 45.535V63.7908H351.776V45.535H350.315ZM351.046 63.0605H336.441V64.521H351.046V63.0605ZM337.171 45.535V41.8838H335.711V45.535H337.171ZM336.441 42.614H347.394V41.1536H336.441V42.614ZM346.664 41.8838V45.535H348.125V41.8838H346.664ZM347.394 44.8047H336.441V46.2652H347.394V44.8047ZM362.583 74.7443H361.853V75.4745H362.583V74.7443ZM362.583 71.0931V70.3629H361.853V71.0931H362.583ZM366.234 71.0931H366.965V70.3629H366.234V71.0931ZM366.234 74.7443V75.4745H366.965V74.7443H366.234ZM366.234 71.0931H365.504V71.8233H366.234V71.0931ZM366.234 60.1396V59.4094H365.504V60.1396H366.234ZM369.886 60.1396H370.616V59.4094H369.886V60.1396ZM369.886 71.0931V71.8233H370.616V71.0931H369.886ZM362.583 60.1396H361.853V60.8698H362.583V60.1396ZM362.583 49.1861V48.4559H361.853V49.1861H362.583ZM366.234 49.1861H366.965V48.4559H366.234V49.1861ZM366.234 60.1396V60.8698H366.965V60.1396H366.234ZM369.886 60.1396H369.155V60.8698H369.886V60.1396ZM369.886 49.1861V48.4559H369.155V49.1861H369.886ZM373.537 49.1861H374.267V48.4559H373.537V49.1861ZM373.537 60.1396V60.8698H374.267V60.1396H373.537ZM358.932 49.1861H358.202V49.9164H358.932V49.1861ZM358.932 41.8838V41.1536H358.202V41.8838H358.932ZM362.583 41.8838H363.314V41.1536H362.583V41.8838ZM362.583 49.1861V49.9164H363.314V49.1861H362.583ZM373.537 49.1861H372.807V49.9164H373.537V49.1861ZM373.537 41.8838V41.1536H372.807V41.8838H373.537ZM377.188 41.8838H377.918V41.1536H377.188V41.8838ZM377.188 49.1861V49.9164H377.918V49.1861H377.188ZM363.314 74.7443V71.0931H361.853V74.7443H363.314ZM362.583 71.8233H366.234V70.3629H362.583V71.8233ZM365.504 71.0931V74.7443H366.965V71.0931H365.504ZM366.234 74.014H362.583V75.4745H366.234V74.014ZM366.965 71.0931V60.1396H365.504V71.0931H366.965ZM366.234 60.8698H369.886V59.4094H366.234V60.8698ZM369.155 60.1396V71.0931H370.616V60.1396H369.155ZM369.886 70.3629H366.234V71.8233H369.886V70.3629ZM363.314 60.1396V49.1861H361.853V60.1396H363.314ZM362.583 49.9164H366.234V48.4559H362.583V49.9164ZM365.504 49.1861V60.1396H366.965V49.1861H365.504ZM366.234 59.4094H362.583V60.8698H366.234V59.4094ZM370.616 60.1396V49.1861H369.155V60.1396H370.616ZM369.886 49.9164H373.537V48.4559H369.886V49.9164ZM372.807 49.1861V60.1396H374.267V49.1861H372.807ZM373.537 59.4094H369.886V60.8698H373.537V59.4094ZM359.662 49.1861V41.8838H358.202V49.1861H359.662ZM358.932 42.614H362.583V41.1536H358.932V42.614ZM361.853 41.8838V49.1861H363.314V41.8838H361.853ZM362.583 48.4559H358.932V49.9164H362.583V48.4559ZM374.267 49.1861V41.8838H372.807V49.1861H374.267ZM373.537 42.614H377.188V41.1536H373.537V42.614ZM376.458 41.8838V49.1861H377.918V41.8838H376.458ZM377.188 48.4559H373.537V49.9164H377.188V48.4559ZM385.074 63.7908H384.344V64.521H385.074V63.7908ZM385.074 60.1396V59.4094H384.344V60.1396H385.074ZM399.679 60.1396H400.409V59.4094H399.679V60.1396ZM399.679 63.7908V64.521H400.409V63.7908H399.679ZM399.679 60.1396H398.949V60.8698H399.679V60.1396ZM399.679 56.4884V55.7582H398.949V56.4884H399.679ZM403.33 56.4884H404.06V55.7582H403.33V56.4884ZM403.33 60.1396V60.8698H404.06V60.1396H403.33ZM396.028 56.4884H395.298V57.2187H396.028V56.4884ZM396.028 52.8373V52.107H395.298V52.8373H396.028ZM399.679 52.8373H400.409V52.107H399.679V52.8373ZM399.679 56.4884V57.2187H400.409V56.4884H399.679ZM388.726 52.8373H387.995V53.5675H388.726V52.8373ZM388.726 49.1861V48.4559H387.995V49.1861H388.726ZM396.028 49.1861H396.758V48.4559H396.028V49.1861ZM396.028 52.8373V53.5675H396.758V52.8373H396.028ZM385.074 49.1861H384.344V49.9164H385.074V49.1861ZM385.074 45.535V44.8047H384.344V45.535H385.074ZM388.726 45.535H389.456V44.8047H388.726V45.535ZM388.726 49.1861V49.9164H389.456V49.1861H388.726ZM388.726 45.535H387.995V46.2652H388.726V45.535ZM388.726 41.8838V41.1536H387.995V41.8838H388.726ZM403.33 41.8838H404.06V41.1536H403.33V41.8838ZM403.33 45.535V46.2652H404.06V45.535H403.33ZM385.805 63.7908V60.1396H384.344V63.7908H385.805ZM385.074 60.8698H399.679V59.4094H385.074V60.8698ZM398.949 60.1396V63.7908H400.409V60.1396H398.949ZM399.679 63.0605H385.074V64.521H399.679V63.0605ZM400.409 60.1396V56.4884H398.949V60.1396H400.409ZM399.679 57.2187H403.33V55.7582H399.679V57.2187ZM402.6 56.4884V60.1396H404.06V56.4884H402.6ZM403.33 59.4094H399.679V60.8698H403.33V59.4094ZM396.758 56.4884V52.8373H395.298V56.4884H396.758ZM396.028 53.5675H399.679V52.107H396.028V53.5675ZM398.949 52.8373V56.4884H400.409V52.8373H398.949ZM399.679 55.7582H396.028V57.2187H399.679V55.7582ZM389.456 52.8373V49.1861H387.995V52.8373H389.456ZM388.726 49.9164H396.028V48.4559H388.726V49.9164ZM395.298 49.1861V52.8373H396.758V49.1861H395.298ZM396.028 52.107H388.726V53.5675H396.028V52.107ZM385.805 49.1861V45.535H384.344V49.1861H385.805ZM385.074 46.2652H388.726V44.8047H385.074V46.2652ZM387.995 45.535V49.1861H389.456V45.535H387.995ZM388.726 48.4559H385.074V49.9164H388.726V48.4559ZM389.456 45.535V41.8838H387.995V45.535H389.456ZM388.726 42.614H403.33V41.1536H388.726V42.614ZM402.6 41.8838V45.535H404.06V41.8838H402.6ZM403.33 44.8047H388.726V46.2652H403.33V44.8047ZM451.964 49.1861H451.234V49.9164H451.964V49.1861ZM451.964 45.535V44.8047H451.234V45.535H451.964ZM455.615 45.535H456.345V44.8047H455.615V45.535ZM455.615 49.1861V49.9164H456.345V49.1861H455.615ZM437.359 63.7908H436.629V64.521H437.359V63.7908ZM437.359 41.8838V41.1536H436.629V41.8838H437.359ZM441.01 41.8838H441.741V41.1536H441.01V41.8838ZM441.01 45.535H440.28V46.2652H441.01V45.535ZM444.661 45.535H445.392V44.8047H444.661V45.535ZM444.661 49.1861V49.9164H445.392V49.1861H444.661ZM441.01 49.1861V48.4559H440.28V49.1861H441.01ZM441.01 63.7908V64.521H441.741V63.7908H441.01ZM444.661 45.535H443.931V46.2652H444.661V45.535ZM444.661 41.8838V41.1536H443.931V41.8838H444.661ZM451.964 41.8838H452.694V41.1536H451.964V41.8838ZM451.964 45.535V46.2652H452.694V45.535H451.964ZM452.694 49.1861V45.535H451.234V49.1861H452.694ZM451.964 46.2652H455.615V44.8047H451.964V46.2652ZM454.885 45.535V49.1861H456.345V45.535H454.885ZM455.615 48.4559H451.964V49.9164H455.615V48.4559ZM438.089 63.7908V41.8838H436.629V63.7908H438.089ZM437.359 42.614H441.01V41.1536H437.359V42.614ZM440.28 41.8838V45.535H441.741V41.8838H440.28ZM441.01 46.2652H444.661V44.8047H441.01V46.2652ZM443.931 45.535V49.1861H445.392V45.535H443.931ZM444.661 48.4559H441.01V49.9164H444.661V48.4559ZM440.28 49.1861V63.7908H441.741V49.1861H440.28ZM441.01 63.0605H437.359V64.521H441.01V63.0605ZM445.392 45.535V41.8838H443.931V45.535H445.392ZM444.661 42.614H451.964V41.1536H444.661V42.614ZM451.234 41.8838V45.535H452.694V41.8838H451.234ZM451.964 44.8047H444.661V46.2652H451.964V44.8047ZM463.501 60.1396H462.771V60.8698H463.501V60.1396ZM463.501 41.8838V41.1536H462.771V41.8838H463.501ZM467.153 41.8838H467.883V41.1536H467.153V41.8838ZM467.153 60.1396V60.8698H467.883V60.1396H467.153ZM467.153 63.7908H466.422V64.521H467.153V63.7908ZM467.153 60.1396V59.4094H466.422V60.1396H467.153ZM478.106 60.1396V60.8698H478.836V60.1396H478.106ZM478.106 41.8838V41.1536H477.376V41.8838H478.106ZM481.757 41.8838H482.487V41.1536H481.757V41.8838ZM481.757 63.7908V64.521H482.487V63.7908H481.757ZM464.232 60.1396V41.8838H462.771V60.1396H464.232ZM463.501 42.614H467.153V41.1536H463.501V42.614ZM466.422 41.8838V60.1396H467.883V41.8838H466.422ZM467.153 59.4094H463.501V60.8698H467.153V59.4094ZM467.883 63.7908V60.1396H466.422V63.7908H467.883ZM467.153 60.8698H478.106V59.4094H467.153V60.8698ZM478.836 60.1396V41.8838H477.376V60.1396H478.836ZM478.106 42.614H481.757V41.1536H478.106V42.614ZM481.027 41.8838V63.7908H482.487V41.8838H481.027ZM481.757 63.0605H467.153V64.521H481.757V63.0605ZM504.248 63.7908H503.518V64.521H504.248V63.7908ZM504.248 45.535V44.8047H503.518V45.535H504.248ZM507.9 45.535H508.63V44.8047H507.9V45.535ZM507.9 63.7908V64.521H508.63V63.7908H507.9ZM489.644 63.7908H488.914V64.521H489.644V63.7908ZM489.644 41.8838V41.1536H488.914V41.8838H489.644ZM504.248 41.8838H504.979V41.1536H504.248V41.8838ZM504.248 45.535V46.2652H504.979V45.535H504.248ZM493.295 45.535V44.8047H492.565V45.535H493.295ZM493.295 63.7908V64.521H494.025V63.7908H493.295ZM504.979 63.7908V45.535H503.518V63.7908H504.979ZM504.248 46.2652H507.9V44.8047H504.248V46.2652ZM507.169 45.535V63.7908H508.63V45.535H507.169ZM507.9 63.0605H504.248V64.521H507.9V63.0605ZM490.374 63.7908V41.8838H488.914V63.7908H490.374ZM489.644 42.614H504.248V41.1536H489.644V42.614ZM503.518 41.8838V45.535H504.979V41.8838H503.518ZM504.248 44.8047H493.295V46.2652H504.248V44.8047ZM492.565 45.535V63.7908H494.025V45.535H492.565ZM493.295 63.0605H489.644V64.521H493.295V63.0605ZM515.786 63.7908H515.056V64.521H515.786V63.7908ZM515.786 60.1396V59.4094H515.056V60.1396H515.786ZM530.391 60.1396H531.121V59.4094H530.391V60.1396ZM530.391 63.7908V64.521H531.121V63.7908H530.391ZM530.391 60.1396H529.66V60.8698H530.391V60.1396ZM530.391 56.4884V55.7582H529.66V56.4884H530.391ZM534.042 56.4884H534.772V55.7582H534.042V56.4884ZM534.042 60.1396V60.8698H534.772V60.1396H534.042ZM526.74 56.4884H526.009V57.2187H526.74V56.4884ZM526.74 52.8373V52.107H526.009V52.8373H526.74ZM530.391 52.8373H531.121V52.107H530.391V52.8373ZM530.391 56.4884V57.2187H531.121V56.4884H530.391ZM519.437 52.8373H518.707V53.5675H519.437V52.8373ZM519.437 49.1861V48.4559H518.707V49.1861H519.437ZM526.74 49.1861H527.47V48.4559H526.74V49.1861ZM526.74 52.8373V53.5675H527.47V52.8373H526.74ZM515.786 49.1861H515.056V49.9164H515.786V49.1861ZM515.786 45.535V44.8047H515.056V45.535H515.786ZM519.437 45.535H520.167V44.8047H519.437V45.535ZM519.437 49.1861V49.9164H520.167V49.1861H519.437ZM519.437 45.535H518.707V46.2652H519.437V45.535ZM519.437 41.8838V41.1536H518.707V41.8838H519.437ZM534.042 41.8838H534.772V41.1536H534.042V41.8838ZM534.042 45.535V46.2652H534.772V45.535H534.042ZM516.516 63.7908V60.1396H515.056V63.7908H516.516ZM515.786 60.8698H530.391V59.4094H515.786V60.8698ZM529.66 60.1396V63.7908H531.121V60.1396H529.66ZM530.391 63.0605H515.786V64.521H530.391V63.0605ZM531.121 60.1396V56.4884H529.66V60.1396H531.121ZM530.391 57.2187H534.042V55.7582H530.391V57.2187ZM533.312 56.4884V60.1396H534.772V56.4884H533.312ZM534.042 59.4094H530.391V60.8698H534.042V59.4094ZM527.47 56.4884V52.8373H526.009V56.4884H527.47ZM526.74 53.5675H530.391V52.107H526.74V53.5675ZM529.66 52.8373V56.4884H531.121V52.8373H529.66ZM530.391 55.7582H526.74V57.2187H530.391V55.7582ZM520.167 52.8373V49.1861H518.707V52.8373H520.167ZM519.437 49.9164H526.74V48.4559H519.437V49.9164ZM526.009 49.1861V52.8373H527.47V49.1861H526.009ZM526.74 52.107H519.437V53.5675H526.74V52.107ZM516.516 49.1861V45.535H515.056V49.1861H516.516ZM515.786 46.2652H519.437V44.8047H515.786V46.2652ZM518.707 45.535V49.1861H520.167V45.535H518.707ZM519.437 48.4559H515.786V49.9164H519.437V48.4559ZM520.167 45.535V41.8838H518.707V45.535H520.167ZM519.437 42.614H534.042V41.1536H519.437V42.614ZM533.312 41.8838V45.535H534.772V41.8838H533.312ZM534.042 44.8047H519.437V46.2652H534.042V44.8047ZM571.722 63.7908H570.992V64.521H571.722V63.7908ZM571.722 45.535H572.452V44.8047H571.722V45.535ZM568.071 45.535H567.341V46.2652H568.071V45.535ZM568.071 41.8838V41.1536H567.341V41.8838H568.071ZM571.722 41.8838V42.614H572.452V41.8838H571.722ZM571.722 34.5815V33.8512H570.992V34.5815H571.722ZM575.373 34.5815H576.103V33.8512H575.373V34.5815ZM575.373 41.8838H574.643V42.614H575.373V41.8838ZM582.675 41.8838H583.406V41.1536H582.675V41.8838ZM582.675 45.535V46.2652H583.406V45.535H582.675ZM575.373 45.535V44.8047H574.643V45.535H575.373ZM575.373 63.7908V64.521H576.103V63.7908H575.373ZM575.373 34.5815H574.643V35.3117H575.373V34.5815ZM575.373 30.9303V30.2001H574.643V30.9303H575.373ZM586.327 30.9303H587.057V30.2001H586.327V30.9303ZM586.327 34.5815V35.3117H587.057V34.5815H586.327ZM572.452 63.7908V45.535H570.992V63.7908H572.452ZM571.722 44.8047H568.071V46.2652H571.722V44.8047ZM568.801 45.535V41.8838H567.341V45.535H568.801ZM568.071 42.614H571.722V41.1536H568.071V42.614ZM572.452 41.8838V34.5815H570.992V41.8838H572.452ZM571.722 35.3117H575.373V33.8512H571.722V35.3117ZM574.643 34.5815V41.8838H576.103V34.5815H574.643ZM575.373 42.614H582.675V41.1536H575.373V42.614ZM581.945 41.8838V45.535H583.406V41.8838H581.945ZM582.675 44.8047H575.373V46.2652H582.675V44.8047ZM574.643 45.535V63.7908H576.103V45.535H574.643ZM575.373 63.0605H571.722V64.521H575.373V63.0605ZM576.103 34.5815V30.9303H574.643V34.5815H576.103ZM575.373 31.6605H586.327V30.2001H575.373V31.6605ZM585.596 30.9303V34.5815H587.057V30.9303H585.596ZM586.327 33.8512H575.373V35.3117H586.327V33.8512ZM597.864 63.7908H597.134V64.521H597.864V63.7908ZM597.864 60.1396V59.4094H597.134V60.1396H597.864ZM608.818 60.1396H609.548V59.4094H608.818V60.1396ZM608.818 63.7908V64.521H609.548V63.7908H608.818ZM594.213 60.1396H593.483V60.8698H594.213V60.1396ZM594.213 45.535V44.8047H593.483V45.535H594.213ZM597.864 45.535H598.594V44.8047H597.864V45.535ZM597.864 60.1396V60.8698H598.594V60.1396H597.864ZM608.818 60.1396H608.087V60.8698H608.818V60.1396ZM608.818 45.535V44.8047H608.087V45.535H608.818ZM612.469 45.535H613.199V44.8047H612.469V45.535ZM612.469 60.1396V60.8698H613.199V60.1396H612.469ZM597.864 45.535H597.134V46.2652H597.864V45.535ZM597.864 41.8838V41.1536H597.134V41.8838H597.864ZM608.818 41.8838H609.548V41.1536H608.818V41.8838ZM608.818 45.535V46.2652H609.548V45.535H608.818ZM598.594 63.7908V60.1396H597.134V63.7908H598.594ZM597.864 60.8698H608.818V59.4094H597.864V60.8698ZM608.087 60.1396V63.7908H609.548V60.1396H608.087ZM608.818 63.0605H597.864V64.521H608.818V63.0605ZM594.943 60.1396V45.535H593.483V60.1396H594.943ZM594.213 46.2652H597.864V44.8047H594.213V46.2652ZM597.134 45.535V60.1396H598.594V45.535H597.134ZM597.864 59.4094H594.213V60.8698H597.864V59.4094ZM609.548 60.1396V45.535H608.087V60.1396H609.548ZM608.818 46.2652H612.469V44.8047H608.818V46.2652ZM611.739 45.535V60.1396H613.199V45.535H611.739ZM612.469 59.4094H608.818V60.8698H612.469V59.4094ZM598.594 45.535V41.8838H597.134V45.535H598.594ZM597.864 42.614H608.818V41.1536H597.864V42.614ZM608.087 41.8838V45.535H609.548V41.8838H608.087ZM608.818 44.8047H597.864V46.2652H608.818V44.8047ZM634.96 49.1861H634.23V49.9164H634.96V49.1861ZM634.96 45.535V44.8047H634.23V45.535H634.96ZM638.611 45.535H639.341V44.8047H638.611V45.535ZM638.611 49.1861V49.9164H639.341V49.1861H638.611ZM620.355 63.7908H619.625V64.521H620.355V63.7908ZM620.355 41.8838V41.1536H619.625V41.8838H620.355ZM624.007 41.8838H624.737V41.1536H624.007V41.8838ZM624.007 45.535H623.276V46.2652H624.007V45.535ZM627.658 45.535H628.388V44.8047H627.658V45.535ZM627.658 49.1861V49.9164H628.388V49.1861H627.658ZM624.007 49.1861V48.4559H623.276V49.1861H624.007ZM624.007 63.7908V64.521H624.737V63.7908H624.007ZM627.658 45.535H626.927V46.2652H627.658V45.535ZM627.658 41.8838V41.1536H626.927V41.8838H627.658ZM634.96 41.8838H635.69V41.1536H634.96V41.8838ZM634.96 45.535V46.2652H635.69V45.535H634.96ZM635.69 49.1861V45.535H634.23V49.1861H635.69ZM634.96 46.2652H638.611V44.8047H634.96V46.2652ZM637.881 45.535V49.1861H639.341V45.535H637.881ZM638.611 48.4559H634.96V49.9164H638.611V48.4559ZM621.086 63.7908V41.8838H619.625V63.7908H621.086ZM620.355 42.614H624.007V41.1536H620.355V42.614ZM623.276 41.8838V45.535H624.737V41.8838H623.276ZM624.007 46.2652H627.658V44.8047H624.007V46.2652ZM626.927 45.535V49.1861H628.388V45.535H626.927ZM627.658 48.4559H624.007V49.9164H627.658V48.4559ZM623.276 49.1861V63.7908H624.737V49.1861H623.276ZM624.007 63.0605H620.355V64.521H624.007V63.0605ZM628.388 45.535V41.8838H626.927V45.535H628.388ZM627.658 42.614H634.96V41.1536H627.658V42.614ZM634.23 41.8838V45.535H635.69V41.8838H634.23ZM634.96 44.8047H627.658V46.2652H634.96V44.8047ZM646.498 63.7908H645.768V64.521H646.498V63.7908ZM646.498 56.4884V55.7582H645.768V56.4884H646.498ZM650.149 56.4884V57.2187H650.879V56.4884H650.149ZM650.149 52.8373V52.107H649.419V52.8373H650.149ZM653.8 52.8373H654.53V52.107H653.8V52.8373ZM653.8 60.1396V60.8698H654.53V60.1396H653.8ZM650.149 60.1396V59.4094H649.419V60.1396H650.149ZM650.149 63.7908V64.521H650.879V63.7908H650.149ZM661.102 63.7908H660.372V64.521H661.102V63.7908ZM661.102 60.1396H661.833V59.4094H661.102V60.1396ZM657.451 60.1396H656.721V60.8698H657.451V60.1396ZM657.451 52.8373V52.107H656.721V52.8373H657.451ZM661.102 52.8373H661.833V52.107H661.102V52.8373ZM661.102 56.4884H660.372V57.2187H661.102V56.4884ZM664.754 56.4884H665.484V55.7582H664.754V56.4884ZM664.754 63.7908V64.521H665.484V63.7908H664.754ZM653.8 52.8373H653.07V53.5675H653.8V52.8373ZM653.8 45.535V44.8047H653.07V45.535H653.8ZM657.451 45.535H658.181V44.8047H657.451V45.535ZM657.451 52.8373V53.5675H658.181V52.8373H657.451ZM642.847 56.4884H642.116V57.2187H642.847V56.4884ZM642.847 41.8838V41.1536H642.116V41.8838H642.847ZM646.498 41.8838H647.228V41.1536H646.498V41.8838ZM646.498 56.4884V57.2187H647.228V56.4884H646.498ZM664.754 56.4884H664.023V57.2187H664.754V56.4884ZM664.754 41.8838V41.1536H664.023V41.8838H664.754ZM668.405 41.8838H669.135V41.1536H668.405V41.8838ZM668.405 56.4884V57.2187H669.135V56.4884H668.405ZM647.228 63.7908V56.4884H645.768V63.7908H647.228ZM646.498 57.2187H650.149V55.7582H646.498V57.2187ZM650.879 56.4884V52.8373H649.419V56.4884H650.879ZM650.149 53.5675H653.8V52.107H650.149V53.5675ZM653.07 52.8373V60.1396H654.53V52.8373H653.07ZM653.8 59.4094H650.149V60.8698H653.8V59.4094ZM649.419 60.1396V63.7908H650.879V60.1396H649.419ZM650.149 63.0605H646.498V64.521H650.149V63.0605ZM661.833 63.7908V60.1396H660.372V63.7908H661.833ZM661.102 59.4094H657.451V60.8698H661.102V59.4094ZM658.181 60.1396V52.8373H656.721V60.1396H658.181ZM657.451 53.5675H661.102V52.107H657.451V53.5675ZM660.372 52.8373V56.4884H661.833V52.8373H660.372ZM661.102 57.2187H664.754V55.7582H661.102V57.2187ZM664.023 56.4884V63.7908H665.484V56.4884H664.023ZM664.754 63.0605H661.102V64.521H664.754V63.0605ZM654.53 52.8373V45.535H653.07V52.8373H654.53ZM653.8 46.2652H657.451V44.8047H653.8V46.2652ZM656.721 45.535V52.8373H658.181V45.535H656.721ZM657.451 52.107H653.8V53.5675H657.451V52.107ZM643.577 56.4884V41.8838H642.116V56.4884H643.577ZM642.847 42.614H646.498V41.1536H642.847V42.614ZM645.768 41.8838V56.4884H647.228V41.8838H645.768ZM646.498 55.7582H642.847V57.2187H646.498V55.7582ZM665.484 56.4884V41.8838H664.023V56.4884H665.484ZM664.754 42.614H668.405V41.1536H664.754V42.614ZM667.674 41.8838V56.4884H669.135V41.8838H667.674ZM668.405 55.7582H664.754V57.2187H668.405V55.7582ZM672.64 60.1396H671.91V60.8698H672.64V60.1396ZM672.64 52.8373V52.107H671.91V52.8373H672.64ZM676.291 52.8373H677.021V52.107H676.291V52.8373ZM676.291 60.1396V60.8698H677.021V60.1396H676.291ZM676.291 63.7908H675.561V64.521H676.291V63.7908ZM676.291 60.1396V59.4094H675.561V60.1396H676.291ZM687.245 60.1396V60.8698H687.975V60.1396H687.245ZM687.245 52.8373H687.975V52.107H687.245V52.8373ZM676.291 52.8373H675.561V53.5675H676.291V52.8373ZM676.291 49.1861V48.4559H675.561V49.1861H676.291ZM687.245 49.1861V49.9164H687.975V49.1861H687.245ZM687.245 45.535V44.8047H686.514V45.535H687.245ZM690.896 45.535H691.626V44.8047H690.896V45.535ZM690.896 63.7908V64.521H691.626V63.7908H690.896ZM676.291 45.535H675.561V46.2652H676.291V45.535ZM676.291 41.8838V41.1536H675.561V41.8838H676.291ZM687.245 41.8838H687.975V41.1536H687.245V41.8838ZM687.245 45.535V46.2652H687.975V45.535H687.245ZM673.37 60.1396V52.8373H671.91V60.1396H673.37ZM672.64 53.5675H676.291V52.107H672.64V53.5675ZM675.561 52.8373V60.1396H677.021V52.8373H675.561ZM676.291 59.4094H672.64V60.8698H676.291V59.4094ZM677.021 63.7908V60.1396H675.561V63.7908H677.021ZM676.291 60.8698H687.245V59.4094H676.291V60.8698ZM687.975 60.1396V52.8373H686.514V60.1396H687.975ZM687.245 52.107H676.291V53.5675H687.245V52.107ZM677.021 52.8373V49.1861H675.561V52.8373H677.021ZM676.291 49.9164H687.245V48.4559H676.291V49.9164ZM687.975 49.1861V45.535H686.514V49.1861H687.975ZM687.245 46.2652H690.896V44.8047H687.245V46.2652ZM690.166 45.535V63.7908H691.626V45.535H690.166ZM690.896 63.0605H676.291V64.521H690.896V63.0605ZM677.021 45.535V41.8838H675.561V45.535H677.021ZM676.291 42.614H687.245V41.1536H676.291V42.614ZM686.514 41.8838V45.535H687.975V41.8838H686.514ZM687.245 44.8047H676.291V46.2652H687.245V44.8047ZM713.387 49.1861H712.657V49.9164H713.387V49.1861ZM713.387 45.535V44.8047H712.657V45.535H713.387ZM717.038 45.535H717.768V44.8047H717.038V45.535ZM717.038 49.1861V49.9164H717.768V49.1861H717.038ZM698.782 63.7908H698.052V64.521H698.782V63.7908ZM698.782 41.8838V41.1536H698.052V41.8838H698.782ZM702.434 41.8838H703.164V41.1536H702.434V41.8838ZM702.434 45.535H701.703V46.2652H702.434V45.535ZM706.085 45.535H706.815V44.8047H706.085V45.535ZM706.085 49.1861V49.9164H706.815V49.1861H706.085ZM702.434 49.1861V48.4559H701.703V49.1861H702.434ZM702.434 63.7908V64.521H703.164V63.7908H702.434ZM706.085 45.535H705.354V46.2652H706.085V45.535ZM706.085 41.8838V41.1536H705.354V41.8838H706.085ZM713.387 41.8838H714.117V41.1536H713.387V41.8838ZM713.387 45.535V46.2652H714.117V45.535H713.387ZM714.117 49.1861V45.535H712.657V49.1861H714.117ZM713.387 46.2652H717.038V44.8047H713.387V46.2652ZM716.308 45.535V49.1861H717.768V45.535H716.308ZM717.038 48.4559H713.387V49.9164H717.038V48.4559ZM699.513 63.7908V41.8838H698.052V63.7908H699.513ZM698.782 42.614H702.434V41.1536H698.782V42.614ZM701.703 41.8838V45.535H703.164V41.8838H701.703ZM702.434 46.2652H706.085V44.8047H702.434V46.2652ZM705.354 45.535V49.1861H706.815V45.535H705.354ZM706.085 48.4559H702.434V49.9164H706.085V48.4559ZM701.703 49.1861V63.7908H703.164V49.1861H701.703ZM702.434 63.0605H698.782V64.521H702.434V63.0605ZM706.815 45.535V41.8838H705.354V45.535H706.815ZM706.085 42.614H713.387V41.1536H706.085V42.614ZM712.657 41.8838V45.535H714.117V41.8838H712.657ZM713.387 44.8047H706.085V46.2652H713.387V44.8047ZM724.925 60.1396H724.195V60.8698H724.925V60.1396ZM724.925 45.535V44.8047H724.195V45.535H724.925ZM728.576 45.535H729.306V44.8047H728.576V45.535ZM728.576 60.1396V60.8698H729.306V60.1396H728.576ZM728.576 63.7908H727.846V64.521H728.576V63.7908ZM728.576 60.1396V59.4094H727.846V60.1396H728.576ZM739.529 60.1396V60.8698H740.26V60.1396H739.529ZM739.529 45.535H740.26V44.8047H739.529V45.535ZM728.576 45.535H727.846V46.2652H728.576V45.535ZM728.576 41.8838V41.1536H727.846V41.8838H728.576ZM739.529 41.8838V42.614H740.26V41.8838H739.529ZM739.529 30.9303V30.2001H738.799V30.9303H739.529ZM743.181 30.9303H743.911V30.2001H743.181V30.9303ZM743.181 63.7908V64.521H743.911V63.7908H743.181ZM725.655 60.1396V45.535H724.195V60.1396H725.655ZM724.925 46.2652H728.576V44.8047H724.925V46.2652ZM727.846 45.535V60.1396H729.306V45.535H727.846ZM728.576 59.4094H724.925V60.8698H728.576V59.4094ZM729.306 63.7908V60.1396H727.846V63.7908H729.306ZM728.576 60.8698H739.529V59.4094H728.576V60.8698ZM740.26 60.1396V45.535H738.799V60.1396H740.26ZM739.529 44.8047H728.576V46.2652H739.529V44.8047ZM729.306 45.535V41.8838H727.846V45.535H729.306ZM728.576 42.614H739.529V41.1536H728.576V42.614ZM740.26 41.8838V30.9303H738.799V41.8838H740.26ZM739.529 31.6605H743.181V30.2001H739.529V31.6605ZM742.45 30.9303V63.7908H743.911V30.9303H742.45ZM743.181 63.0605H728.576V64.521H743.181V63.0605Z" fill="#252840" mask="url(#path-1-outside-1_6_1899)"/>
<rect x="1261" width="13" height="105" fill="#B9A597"/>
<rect x="1274" y="92" width="13.0001" height="1274" transform="rotate(90 1274 92)" fill="#B9A597"/>
</svg>
