<svg width="838" height="513" viewBox="0 0 838 513" fill="none" xmlns="http://www.w3.org/2000/svg">
<g clip-path="url(#clip0_97_15582)">
<rect width="837.154" height="513" fill="white"/>
<path d="M660.791 120.274V85.3384H667.672V78.5327H674.478V71.6514H682.191V78.5327H688.997V85.3384H695.954V120.274H688.241V106.587H668.429V120.274H660.791ZM668.429 98.9498H688.241V86.0946H681.435V79.2889H675.234V86.0946H668.429V98.9498Z" fill="#252840"/>
<path d="M613.459 120.274V71.6514H621.096V92.2197H640.909V71.6514H648.622V120.274H640.909V99.706H621.096V120.274H613.459Z" fill="#252840"/>
<path d="M573.008 120.274V113.469H566.127V78.5327H573.008V71.6514H594.333V78.5327H601.29V86.0946H593.577V79.2889H573.764V92.2197H587.527V99.706H573.764V112.712H593.577V105.831H601.29V113.469H594.333V120.274H573.008Z" fill="#252840"/>
<path d="M546.318 120.35V99.8569H525.674V92.9756H518.793V71.7267H526.43V92.295H546.318V71.7267H553.956V120.35H546.318Z" fill="#252840"/>
<path d="M471.461 120.274V71.6514H479.098V92.2197H485.148V85.3384H492.861V92.2197H498.911V71.6514H506.624V120.274H498.911V99.706H479.098V120.274H471.461Z" fill="#252840"/>
<path d="M431.008 120.274V113.469H424.127V78.5327H431.008V71.6514H452.333V78.5327H459.29V113.469H452.333V120.274H431.008ZM431.764 112.712H451.577V79.2889H431.764V112.712Z" fill="#252840"/>
<path d="M379.084 120.274V78.5327H385.965V71.6514H393.527V79.2889H386.722V92.2197H392.771V85.3384H399.728V78.5327H406.534V71.6514H414.247V79.2889H407.29V86.0946H400.484V92.9003H393.527V98.9498H400.484V105.831H407.29V112.712H414.247V120.274H406.534V113.469H399.728V106.587H392.771V99.706H386.722V120.274H379.084Z" fill="#252840"/>
<path d="M338.633 120.274V113.469H331.752V78.5327H338.633V71.6514H359.958V78.5327H366.915V113.469H359.958V120.274H338.633ZM339.389 112.712H359.202V79.2889H339.389V112.712Z" fill="#252840"/>
<path d="M266.256 120.274V85.3384H273.137V78.5327H279.943V71.6514H287.656V78.5327H294.462V85.3384H301.419V120.274H293.706V106.587H273.893V120.274H266.256ZM273.893 98.9498H293.706V86.0946H286.9V79.2889H280.699V86.0946H273.893V98.9498Z" fill="#252840"/>
<path d="M218.924 120.274V78.5327H225.805V71.6514H247.13V78.5327H254.087V99.706H247.13V106.587H226.561V120.274H218.924ZM226.561 98.9498H246.374V79.2889H226.561V98.9498Z" fill="#252840"/>
<path d="M178.531 120.274V71.802H206.737V79.4395H186.169V120.274H178.531Z" fill="#252840"/>
<path d="M131.199 120.274V71.6514H138.837V105.831H144.886V85.3384H151.843V78.5327H158.649V71.6514H166.362V120.274H158.649V86.0946H152.599V106.587H145.642V113.469H138.837V120.274H131.199Z" fill="#252840"/>
<path fill-rule="evenodd" clip-rule="evenodd" d="M659.141 121.925V83.6872H666.022V76.8814H672.828V70.0001H683.842V76.8814H690.648V83.6872H697.605V121.925H686.59V108.238H670.08V121.925H659.141ZM668.429 106.587H688.241V120.274H695.954V85.338H688.997V78.5323H682.192V71.651H674.478V78.5323H667.673V85.338H660.791V120.274H668.429V106.587ZM668.429 98.9494H688.241V86.0942H681.435V79.2885H675.235V86.0942H668.429V98.9494ZM670.08 87.745V97.2986H686.59V87.745H679.785V80.9393H676.886V87.745H670.08Z" fill="#252840"/>
<path fill-rule="evenodd" clip-rule="evenodd" d="M611.809 121.925V70.0001H622.748V90.5685H639.258V70.0001H650.273V121.925H639.258V101.356H622.748V121.925H611.809ZM621.097 99.7056H640.909V120.274H648.622V71.651H640.909V92.2193H621.097V71.651H613.459V120.274H621.097V99.7056Z" fill="#252840"/>
<path fill-rule="evenodd" clip-rule="evenodd" d="M571.358 121.925V115.119H564.477V76.8814H571.358V70.0001H595.984V76.8814H602.941V87.745H591.926V80.9393H575.416V90.5685H589.178V101.356H575.416V111.061H591.926V104.18H602.941V115.119H595.984V121.925H571.358ZM594.333 113.468H601.29V105.831H593.577V112.712H573.765V99.7056H587.528V92.2193H573.765V79.2885H593.577V86.0942H601.29V78.5323H594.333V71.651H573.009V78.5323H566.127V113.468H573.009V120.274H594.333V113.468Z" fill="#252840"/>
<path fill-rule="evenodd" clip-rule="evenodd" d="M544.668 122V101.507H524.024V94.6261H517.143V70.0754H528.082V90.6438H544.668V70.0754H555.607V122H544.668ZM546.319 92.2946H526.431V71.7263H518.793V92.9752H525.675V99.8565H546.319V120.349H553.956V71.7263H546.319V92.2946Z" fill="#252840"/>
<path fill-rule="evenodd" clip-rule="evenodd" d="M469.811 121.925V70.0001H480.75V90.5685H483.498V83.6872H494.512V90.5685H497.26V70.0001H508.275V121.925H497.26V101.356H480.75V121.925H469.811ZM479.099 99.7056H498.911V120.274H506.624V71.651H498.911V92.2193H492.862V85.338H485.148V92.2193H479.099V71.651H471.461V120.274H479.099V99.7056Z" fill="#252840"/>
<path fill-rule="evenodd" clip-rule="evenodd" d="M429.358 121.925V115.119H422.477V76.8814H429.358V70.0001H453.984V76.8814H460.941V115.119H453.984V121.925H429.358ZM452.333 113.468H459.29V78.5323H452.333V71.651H431.009V78.5323H424.127V113.468H431.009V120.274H452.333V113.468ZM451.577 112.712V79.2885H431.765V112.712H451.577ZM449.926 111.061V80.9393H433.416V111.061H449.926Z" fill="#252840"/>
<path fill-rule="evenodd" clip-rule="evenodd" d="M377.434 121.925V76.8814H384.315V70.0001H395.178V80.9393H388.373V90.5685H391.121V83.6872H398.078V76.8814H404.883V70.0001H415.898V80.9393H408.941V87.745H402.135V94.5507H395.178V97.2986H402.135V104.18H408.941V111.061H415.898V121.925H404.883V115.119H398.078V108.238H391.121V101.356H388.373V121.925H377.434ZM386.722 99.7056H392.771V106.587H399.728V113.468H406.534V120.274H414.247V112.712H407.29V105.831H400.485V98.9494H393.528V92.8999H400.485V86.0942H407.29V79.2885H414.247V71.651H406.534V78.5323H399.728V85.338H392.771V92.2193H386.722V79.2885H393.528V71.651H385.966V78.5323H379.084V120.274H386.722V99.7056Z" fill="#252840"/>
<path fill-rule="evenodd" clip-rule="evenodd" d="M336.983 121.925V115.119H330.102V76.8814H336.983V70.0001H361.609V76.8814H368.566V115.119H361.609V121.925H336.983ZM359.958 113.468H366.915V78.5323H359.958V71.651H338.634V78.5323H331.752V113.468H338.634V120.274H359.958V113.468ZM359.202 112.712V79.2885H339.39V112.712H359.202ZM357.551 111.061V80.9393H341.041V111.061H357.551Z" fill="#252840"/>
<path fill-rule="evenodd" clip-rule="evenodd" d="M264.605 121.925V83.6872H271.487V76.8814H278.292V70.0001H289.307V76.8814H296.113V83.6872H303.07V121.925H292.055V108.238H275.545V121.925H264.605ZM273.894 106.587H293.706V120.274H301.419V85.338H294.462V78.5323H287.656V71.651H279.943V78.5323H273.138V85.338H266.256V120.274H273.894V106.587ZM273.894 98.9494H293.706V86.0942H286.9V79.2885H280.7V86.0942H273.894V98.9494ZM275.545 87.745V97.2986H292.055V87.745H285.249V80.9393H282.35V87.745H275.545Z" fill="#252840"/>
<path fill-rule="evenodd" clip-rule="evenodd" d="M217.273 121.925V76.8814H224.155V70.0001H248.781V76.8814H255.738V101.356H248.781V108.238H228.213V121.925H217.273ZM226.562 106.587H247.13V99.7056H254.087V78.5323H247.13V71.651H225.806V78.5323H218.924V120.274H226.562V106.587ZM226.562 98.9494H246.374V79.2885H226.562V98.9494ZM228.213 80.9393V97.2986H244.723V80.9393H228.213Z" fill="#252840"/>
<path fill-rule="evenodd" clip-rule="evenodd" d="M176.881 121.925V70.1515H208.388V81.0907H187.82V121.925H176.881ZM186.169 79.4398H206.738V71.8023H178.532V120.274H186.169V79.4398Z" fill="#252840"/>
<path fill-rule="evenodd" clip-rule="evenodd" d="M129.549 121.925V70H140.488V104.18H143.236V83.687H150.193V76.8813H156.999V70H168.013V121.925H156.999V87.7449H154.251V108.238H147.294V115.119H140.488V121.925H129.549ZM138.837 113.468H145.643V106.587H152.6V86.0941H158.649V120.274H166.362V71.6508H158.649V78.5322H151.844V85.3379H144.887V105.831H138.837V71.6508H131.2V120.274H138.837V113.468Z" fill="#252840"/>
<rect x="323.615" y="184.654" width="3.07694" height="3.07694" transform="rotate(90 323.615 184.654)" fill="#AE3B30"/>
<rect x="320.539" y="181.576" width="3.07694" height="3.07694" transform="rotate(90 320.539 181.576)" fill="#AE3B30"/>
<rect x="317.461" y="178.5" width="30.7694" height="6.15388" transform="rotate(90 317.461 178.5)" fill="#AE3B30"/>
<rect x="311.309" y="178.5" width="21.5386" height="6.15389" transform="rotate(90 311.309 178.5)" fill="#AE3B30"/>
<rect x="314.385" y="178.5" width="3.07694" height="3.07694" transform="rotate(90 314.385 178.5)" fill="#AE3B30"/>
<rect x="311.309" y="178.5" width="3.07694" height="3.07694" transform="rotate(90 311.309 178.5)" fill="#AE3B30"/>
<rect x="308.23" y="178.5" width="3.07694" height="3.07694" transform="rotate(90 308.23 178.5)" fill="#AE3B30"/>
<rect x="305.154" y="181.576" width="3.07694" height="3.07694" transform="rotate(90 305.154 181.576)" fill="#AE3B30"/>
<rect x="302.076" y="184.654" width="3.07694" height="3.07694" transform="rotate(90 302.076 184.654)" fill="#AE3B30"/>
<rect x="305.154" y="184.654" width="3.07694" height="3.07694" transform="rotate(90 305.154 184.654)" fill="#AE3B30"/>
<rect x="342.078" y="184.654" width="3.07694" height="3.07694" transform="rotate(90 342.078 184.654)" fill="#AE3B30"/>
<rect x="302.076" y="187.731" width="3.07694" height="3.07694" transform="rotate(90 302.076 187.731)" fill="#AE3B30"/>
<rect x="305.154" y="187.731" width="3.07694" height="3.07694" transform="rotate(90 305.154 187.731)" fill="#AE3B30"/>
<rect x="342.078" y="187.731" width="3.07694" height="3.07694" transform="rotate(90 342.078 187.731)" fill="#AE3B30"/>
<rect x="302.076" y="190.807" width="3.07694" height="3.07694" transform="rotate(90 302.076 190.807)" fill="#AE3B30"/>
<rect x="305.154" y="190.807" width="3.07694" height="3.07694" transform="rotate(90 305.154 190.807)" fill="#AE3B30"/>
<rect x="342.078" y="190.807" width="3.07694" height="3.07694" transform="rotate(90 342.078 190.807)" fill="#AE3B30"/>
<rect x="302.076" y="193.885" width="3.07694" height="3.07694" transform="rotate(90 302.076 193.885)" fill="#AE3B30"/>
<rect x="305.154" y="193.885" width="3.07694" height="3.07694" transform="rotate(90 305.154 193.885)" fill="#AE3B30"/>
<rect x="342.078" y="193.885" width="3.07694" height="3.07694" transform="rotate(90 342.078 193.885)" fill="#AE3B30"/>
<path fill-rule="evenodd" clip-rule="evenodd" d="M339.001 186.192V181.577H335.924V186.192V186.192V190.807H339.001V186.192L339.001 186.192ZM339.001 195.423L339.001 195.423V200.038H335.924V195.423V195.423V190.808H339.001V195.423Z" fill="#AE3B30"/>
<path fill-rule="evenodd" clip-rule="evenodd" d="M335.925 186.961L335.925 181.577H332.848V186.961H335.925ZM335.925 192.346L335.925 192.346V186.962H332.848V192.346V192.346V197.73H335.925V192.346ZM335.925 203.115L335.925 197.731H332.848V203.115H335.925Z" fill="#AE3B30"/>
<path fill-rule="evenodd" clip-rule="evenodd" d="M332.846 187.73L332.846 181.577H329.77V187.73H332.846ZM332.846 193.884L332.846 193.884V187.731L329.77 187.731V193.884V193.884V200.038H332.846V193.884ZM332.846 206.192L332.846 200.039H329.77V206.192L332.846 206.192Z" fill="#AE3B30"/>
<path fill-rule="evenodd" clip-rule="evenodd" d="M329.77 188.5V181.577H326.693V188.5V188.5V195.423V195.423V202.346V202.346V209.269H329.77V202.346L329.77 202.346L329.77 195.423L329.77 195.423L329.77 188.5L329.77 188.5Z" fill="#AE3B30"/>
<path fill-rule="evenodd" clip-rule="evenodd" d="M326.692 191.578V184.655H323.615V191.578V191.578V198.501V198.501V205.424V205.424V212.347H326.692V205.424L326.692 205.424L326.692 198.501L326.692 198.501L326.692 191.578L326.692 191.578Z" fill="#AE3B30"/>
<path fill-rule="evenodd" clip-rule="evenodd" d="M323.616 194.653V187.73H320.539V194.653V194.653V201.576V201.576V208.499V208.499V215.422H323.616V208.499L323.616 208.499L323.616 201.576L323.616 201.576L323.616 194.653L323.616 194.653Z" fill="#AE3B30"/>
<path fill-rule="evenodd" clip-rule="evenodd" d="M320.54 191.578L320.54 184.655H317.463V191.578H320.54ZM320.54 198.502L320.54 198.501V191.579L317.463 191.579V198.501V198.502V205.424V205.424V212.347H320.54V205.424L320.54 205.424L320.54 198.502Z" fill="#AE3B30"/>
<rect x="305.154" y="196.962" width="3.07694" height="3.07694" transform="rotate(90 305.154 196.962)" fill="#AE3B30"/>
<rect x="308.23" y="200.038" width="3.07694" height="3.07694" transform="rotate(90 308.23 200.038)" fill="#AE3B30"/>
<rect x="311.309" y="203.115" width="3.07694" height="3.07694" transform="rotate(90 311.309 203.115)" fill="#AE3B30"/>
<rect x="311.309" y="200.038" width="3.07694" height="3.07694" transform="rotate(90 311.309 200.038)" fill="#AE3B30"/>
<rect x="314.385" y="206.193" width="3.07694" height="3.07694" transform="rotate(90 314.385 206.193)" fill="#AE3B30"/>
<rect x="317.461" y="209.269" width="3.07694" height="3.07694" transform="rotate(90 317.461 209.269)" fill="#AE3B30"/>
<rect x="320.539" y="212.346" width="3.07694" height="3.07694" transform="rotate(90 320.539 212.346)" fill="#AE3B30"/>
<rect x="323.615" y="215.423" width="3.07694" height="3.07694" transform="rotate(90 323.615 215.423)" fill="#AE3B30"/>
<rect x="312.627" y="181.576" width="3.07694" height="3.07694" transform="rotate(90 312.627 181.576)" fill="#D5716E"/>
<rect x="309.549" y="184.654" width="3.07694" height="3.07694" transform="rotate(90 309.549 184.654)" fill="#D5716E"/>
<rect x="306.473" y="187.731" width="3.07694" height="3.07694" transform="rotate(90 306.473 187.731)" fill="#D5716E"/>
<rect x="306.473" y="190.807" width="3.07694" height="3.07694" transform="rotate(90 306.473 190.807)" fill="#D5716E"/>
<rect x="309.549" y="193.885" width="3.07694" height="3.07694" transform="rotate(90 309.549 193.885)" fill="#D5716E"/>
<rect width="3.07694" height="3.07694" transform="matrix(4.37114e-08 1 1 -4.37114e-08 320.539 184.654)" fill="#AE3B30"/>
<rect width="3.07694" height="3.07694" transform="matrix(4.37114e-08 1 1 -4.37114e-08 323.615 181.576)" fill="#AE3B30"/>
<rect width="3.07694" height="3.07694" transform="matrix(4.37114e-08 1 1 -4.37114e-08 326.693 178.5)" fill="#AE3B30"/>
<rect width="3.07694" height="3.07694" transform="matrix(4.37114e-08 1 1 -4.37114e-08 329.77 178.5)" fill="#AE3B30"/>
<rect width="3.07694" height="3.07694" transform="matrix(4.37114e-08 1 1 -4.37114e-08 332.846 178.5)" fill="#AE3B30"/>
<rect width="3.07694" height="3.07694" transform="matrix(4.37114e-08 1 1 -4.37114e-08 335.924 178.5)" fill="#AE3B30"/>
<rect width="3.07694" height="3.07694" transform="matrix(4.37114e-08 1 1 -4.37114e-08 339 181.576)" fill="#AE3B30"/>
<rect width="3.07694" height="3.07694" transform="matrix(4.37114e-08 1 1 -4.37114e-08 342.078 184.654)" fill="#AE3B30"/>
<rect width="3.07694" height="3.07694" transform="matrix(4.37114e-08 1 1 -4.37114e-08 342.078 187.731)" fill="#AE3B30"/>
<rect width="3.07694" height="3.07694" transform="matrix(4.37114e-08 1 1 -4.37114e-08 342.078 190.807)" fill="#AE3B30"/>
<rect width="3.07694" height="3.07694" transform="matrix(4.37114e-08 1 1 -4.37114e-08 342.078 193.885)" fill="#AE3B30"/>
<rect width="3.07694" height="3.07694" transform="matrix(4.37114e-08 1 1 -4.37114e-08 339 196.962)" fill="#AE3B30"/>
<rect width="3.07694" height="3.07694" transform="matrix(4.37114e-08 1 1 -4.37114e-08 335.924 200.038)" fill="#AE3B30"/>
<rect width="3.07694" height="3.07694" transform="matrix(4.37114e-08 1 1 -4.37114e-08 332.846 203.115)" fill="#AE3B30"/>
<rect width="3.07694" height="3.07694" transform="matrix(4.37114e-08 1 1 -4.37114e-08 329.77 206.193)" fill="#AE3B30"/>
<rect width="3.07694" height="3.07694" transform="matrix(4.37114e-08 1 1 -4.37114e-08 326.693 209.269)" fill="#AE3B30"/>
<rect width="3.07694" height="3.07694" transform="matrix(4.37114e-08 1 1 -4.37114e-08 323.615 212.346)" fill="#AE3B30"/>
<rect width="3.07694" height="3.07694" transform="matrix(4.37114e-08 1 1 -4.37114e-08 320.539 215.423)" fill="#AE3B30"/>
<mask id="path-83-outside-1_97_15582" maskUnits="userSpaceOnUse" x="367.154" y="186" width="204" height="35" fill="black">
<rect fill="white" x="367.154" y="186" width="204" height="35"/>
<path d="M368.805 209V187.093H387.061V209H383.41V190.744H372.457V209H368.805ZM398.599 209V205.349H409.552V209H398.599ZM394.948 205.349V190.744H398.599V205.349H394.948ZM409.552 205.349V190.744H413.204V205.349H409.552ZM398.599 190.744V187.093H409.552V190.744H398.599ZM421.09 209V205.349H424.741V209H421.09ZM435.695 209V190.744H428.392V205.349H424.741V187.093H439.346V209H435.695ZM450.884 219.953V216.302H454.535V219.953H450.884ZM454.535 216.302V205.349H458.186V216.302H454.535ZM450.884 205.349V194.395H454.535V205.349H450.884ZM458.186 205.349V194.395H461.837V205.349H458.186ZM447.232 194.395V187.093H450.884V194.395H447.232ZM461.837 194.395V187.093H465.488V194.395H461.837ZM473.375 198.047V187.093H477.026V198.047H473.375ZM487.979 209V201.698H477.026V198.047H487.979V187.093H491.631V209H487.979ZM503.168 209V205.349H514.122V209H503.168ZM514.122 205.349V201.698H517.773V205.349H514.122ZM499.517 205.349V190.744H503.168V194.395H514.122V190.744H517.773V198.047H503.168V205.349H499.517ZM503.168 190.744V187.093H514.122V190.744H503.168ZM525.659 209V187.093H529.311V194.395H540.264V187.093H543.915V209H540.264V198.047H529.311V209H525.659ZM555.453 209V205.349H566.406V209H555.453ZM551.802 205.349V190.744H555.453V205.349H551.802ZM566.406 205.349V190.744H570.058V205.349H566.406ZM555.453 190.744V187.093H566.406V190.744H555.453Z"/>
</mask>
<path d="M368.805 209V187.093H387.061V209H383.41V190.744H372.457V209H368.805ZM398.599 209V205.349H409.552V209H398.599ZM394.948 205.349V190.744H398.599V205.349H394.948ZM409.552 205.349V190.744H413.204V205.349H409.552ZM398.599 190.744V187.093H409.552V190.744H398.599ZM421.09 209V205.349H424.741V209H421.09ZM435.695 209V190.744H428.392V205.349H424.741V187.093H439.346V209H435.695ZM450.884 219.953V216.302H454.535V219.953H450.884ZM454.535 216.302V205.349H458.186V216.302H454.535ZM450.884 205.349V194.395H454.535V205.349H450.884ZM458.186 205.349V194.395H461.837V205.349H458.186ZM447.232 194.395V187.093H450.884V194.395H447.232ZM461.837 194.395V187.093H465.488V194.395H461.837ZM473.375 198.047V187.093H477.026V198.047H473.375ZM487.979 209V201.698H477.026V198.047H487.979V187.093H491.631V209H487.979ZM503.168 209V205.349H514.122V209H503.168ZM514.122 205.349V201.698H517.773V205.349H514.122ZM499.517 205.349V190.744H503.168V194.395H514.122V190.744H517.773V198.047H503.168V205.349H499.517ZM503.168 190.744V187.093H514.122V190.744H503.168ZM525.659 209V187.093H529.311V194.395H540.264V187.093H543.915V209H540.264V198.047H529.311V209H525.659ZM555.453 209V205.349H566.406V209H555.453ZM551.802 205.349V190.744H555.453V205.349H551.802ZM566.406 205.349V190.744H570.058V205.349H566.406ZM555.453 190.744V187.093H566.406V190.744H555.453Z" fill="#252840"/>
<path d="M368.805 209H368.075V209.73H368.805V209ZM368.805 187.093V186.363H368.075V187.093H368.805ZM387.061 187.093H387.792V186.363H387.061V187.093ZM387.061 209V209.73H387.792V209H387.061ZM383.41 209H382.68V209.73H383.41V209ZM383.41 190.744H384.14V190.014H383.41V190.744ZM372.457 190.744V190.014H371.726V190.744H372.457ZM372.457 209V209.73H373.187V209H372.457ZM369.536 209V187.093H368.075V209H369.536ZM368.805 187.823H387.061V186.363H368.805V187.823ZM386.331 187.093V209H387.792V187.093H386.331ZM387.061 208.27H383.41V209.73H387.061V208.27ZM384.14 209V190.744H382.68V209H384.14ZM383.41 190.014H372.457V191.474H383.41V190.014ZM371.726 190.744V209H373.187V190.744H371.726ZM372.457 208.27H368.805V209.73H372.457V208.27ZM398.599 209H397.869V209.73H398.599V209ZM398.599 205.349V204.619H397.869V205.349H398.599ZM409.552 205.349H410.283V204.619H409.552V205.349ZM409.552 209V209.73H410.283V209H409.552ZM394.948 205.349H394.218V206.079H394.948V205.349ZM394.948 190.744V190.014H394.218V190.744H394.948ZM398.599 190.744H399.329V190.014H398.599V190.744ZM398.599 205.349V206.079H399.329V205.349H398.599ZM409.552 205.349H408.822V206.079H409.552V205.349ZM409.552 190.744V190.014H408.822V190.744H409.552ZM413.204 190.744H413.934V190.014H413.204V190.744ZM413.204 205.349V206.079H413.934V205.349H413.204ZM398.599 190.744H397.869V191.474H398.599V190.744ZM398.599 187.093V186.363H397.869V187.093H398.599ZM409.552 187.093H410.283V186.363H409.552V187.093ZM409.552 190.744V191.474H410.283V190.744H409.552ZM399.329 209V205.349H397.869V209H399.329ZM398.599 206.079H409.552V204.619H398.599V206.079ZM408.822 205.349V209H410.283V205.349H408.822ZM409.552 208.27H398.599V209.73H409.552V208.27ZM395.678 205.349V190.744H394.218V205.349H395.678ZM394.948 191.474H398.599V190.014H394.948V191.474ZM397.869 190.744V205.349H399.329V190.744H397.869ZM398.599 204.619H394.948V206.079H398.599V204.619ZM410.283 205.349V190.744H408.822V205.349H410.283ZM409.552 191.474H413.204V190.014H409.552V191.474ZM412.473 190.744V205.349H413.934V190.744H412.473ZM413.204 204.619H409.552V206.079H413.204V204.619ZM399.329 190.744V187.093H397.869V190.744H399.329ZM398.599 187.823H409.552V186.363H398.599V187.823ZM408.822 187.093V190.744H410.283V187.093H408.822ZM409.552 190.014H398.599V191.474H409.552V190.014ZM421.09 209H420.36V209.73H421.09V209ZM421.09 205.349V204.619H420.36V205.349H421.09ZM424.741 205.349H425.472V204.619H424.741V205.349ZM424.741 209V209.73H425.472V209H424.741ZM435.695 209H434.965V209.73H435.695V209ZM435.695 190.744H436.425V190.014H435.695V190.744ZM428.392 190.744V190.014H427.662V190.744H428.392ZM428.392 205.349V206.079H429.123V205.349H428.392ZM424.741 205.349H424.011V206.079H424.741V205.349ZM424.741 187.093V186.363H424.011V187.093H424.741ZM439.346 187.093H440.076V186.363H439.346V187.093ZM439.346 209V209.73H440.076V209H439.346ZM421.82 209V205.349H420.36V209H421.82ZM421.09 206.079H424.741V204.619H421.09V206.079ZM424.011 205.349V209H425.472V205.349H424.011ZM424.741 208.27H421.09V209.73H424.741V208.27ZM436.425 209V190.744H434.965V209H436.425ZM435.695 190.014H428.392V191.474H435.695V190.014ZM427.662 190.744V205.349H429.123V190.744H427.662ZM428.392 204.619H424.741V206.079H428.392V204.619ZM425.472 205.349V187.093H424.011V205.349H425.472ZM424.741 187.823H439.346V186.363H424.741V187.823ZM438.616 187.093V209H440.076V187.093H438.616ZM439.346 208.27H435.695V209.73H439.346V208.27ZM450.884 219.953H450.153V220.684H450.884V219.953ZM450.884 216.302V215.572H450.153V216.302H450.884ZM454.535 216.302H455.265V215.572H454.535V216.302ZM454.535 219.953V220.684H455.265V219.953H454.535ZM454.535 216.302H453.805V217.033H454.535V216.302ZM454.535 205.349V204.619H453.805V205.349H454.535ZM458.186 205.349H458.916V204.619H458.186V205.349ZM458.186 216.302V217.033H458.916V216.302H458.186ZM450.884 205.349H450.153V206.079H450.884V205.349ZM450.884 194.395V193.665H450.153V194.395H450.884ZM454.535 194.395H455.265V193.665H454.535V194.395ZM454.535 205.349V206.079H455.265V205.349H454.535ZM458.186 205.349H457.456V206.079H458.186V205.349ZM458.186 194.395V193.665H457.456V194.395H458.186ZM461.837 194.395H462.567V193.665H461.837V194.395ZM461.837 205.349V206.079H462.567V205.349H461.837ZM447.232 194.395H446.502V195.126H447.232V194.395ZM447.232 187.093V186.363H446.502V187.093H447.232ZM450.884 187.093H451.614V186.363H450.884V187.093ZM450.884 194.395V195.126H451.614V194.395H450.884ZM461.837 194.395H461.107V195.126H461.837V194.395ZM461.837 187.093V186.363H461.107V187.093H461.837ZM465.488 187.093H466.218V186.363H465.488V187.093ZM465.488 194.395V195.126H466.218V194.395H465.488ZM451.614 219.953V216.302H450.153V219.953H451.614ZM450.884 217.033H454.535V215.572H450.884V217.033ZM453.805 216.302V219.953H455.265V216.302H453.805ZM454.535 219.223H450.884V220.684H454.535V219.223ZM455.265 216.302V205.349H453.805V216.302H455.265ZM454.535 206.079H458.186V204.619H454.535V206.079ZM457.456 205.349V216.302H458.916V205.349H457.456ZM458.186 215.572H454.535V217.033H458.186V215.572ZM451.614 205.349V194.395H450.153V205.349H451.614ZM450.884 195.126H454.535V193.665H450.884V195.126ZM453.805 194.395V205.349H455.265V194.395H453.805ZM454.535 204.619H450.884V206.079H454.535V204.619ZM458.916 205.349V194.395H457.456V205.349H458.916ZM458.186 195.126H461.837V193.665H458.186V195.126ZM461.107 194.395V205.349H462.567V194.395H461.107ZM461.837 204.619H458.186V206.079H461.837V204.619ZM447.963 194.395V187.093H446.502V194.395H447.963ZM447.232 187.823H450.884V186.363H447.232V187.823ZM450.153 187.093V194.395H451.614V187.093H450.153ZM450.884 193.665H447.232V195.126H450.884V193.665ZM462.567 194.395V187.093H461.107V194.395H462.567ZM461.837 187.823H465.488V186.363H461.837V187.823ZM464.758 187.093V194.395H466.218V187.093H464.758ZM465.488 193.665H461.837V195.126H465.488V193.665ZM473.375 198.047H472.645V198.777H473.375V198.047ZM473.375 187.093V186.363H472.645V187.093H473.375ZM477.026 187.093H477.756V186.363H477.026V187.093ZM477.026 198.047V198.777H477.756V198.047H477.026ZM487.979 209H487.249V209.73H487.979V209ZM487.979 201.698H488.71V200.967H487.979V201.698ZM477.026 201.698H476.296V202.428H477.026V201.698ZM477.026 198.047V197.316H476.296V198.047H477.026ZM487.979 198.047V198.777H488.71V198.047H487.979ZM487.979 187.093V186.363H487.249V187.093H487.979ZM491.631 187.093H492.361V186.363H491.631V187.093ZM491.631 209V209.73H492.361V209H491.631ZM474.105 198.047V187.093H472.645V198.047H474.105ZM473.375 187.823H477.026V186.363H473.375V187.823ZM476.296 187.093V198.047H477.756V187.093H476.296ZM477.026 197.316H473.375V198.777H477.026V197.316ZM488.71 209V201.698H487.249V209H488.71ZM487.979 200.967H477.026V202.428H487.979V200.967ZM477.756 201.698V198.047H476.296V201.698H477.756ZM477.026 198.777H487.979V197.316H477.026V198.777ZM488.71 198.047V187.093H487.249V198.047H488.71ZM487.979 187.823H491.631V186.363H487.979V187.823ZM490.9 187.093V209H492.361V187.093H490.9ZM491.631 208.27H487.979V209.73H491.631V208.27ZM503.168 209H502.438V209.73H503.168V209ZM503.168 205.349V204.619H502.438V205.349H503.168ZM514.122 205.349H514.852V204.619H514.122V205.349ZM514.122 209V209.73H514.852V209H514.122ZM514.122 205.349H513.392V206.079H514.122V205.349ZM514.122 201.698V200.967H513.392V201.698H514.122ZM517.773 201.698H518.503V200.967H517.773V201.698ZM517.773 205.349V206.079H518.503V205.349H517.773ZM499.517 205.349H498.787V206.079H499.517V205.349ZM499.517 190.744V190.014H498.787V190.744H499.517ZM503.168 190.744H503.898V190.014H503.168V190.744ZM503.168 194.395H502.438V195.126H503.168V194.395ZM514.122 194.395V195.126H514.852V194.395H514.122ZM514.122 190.744V190.014H513.392V190.744H514.122ZM517.773 190.744H518.503V190.014H517.773V190.744ZM517.773 198.047V198.777H518.503V198.047H517.773ZM503.168 198.047V197.316H502.438V198.047H503.168ZM503.168 205.349V206.079H503.898V205.349H503.168ZM503.168 190.744H502.438V191.474H503.168V190.744ZM503.168 187.093V186.363H502.438V187.093H503.168ZM514.122 187.093H514.852V186.363H514.122V187.093ZM514.122 190.744V191.474H514.852V190.744H514.122ZM503.898 209V205.349H502.438V209H503.898ZM503.168 206.079H514.122V204.619H503.168V206.079ZM513.392 205.349V209H514.852V205.349H513.392ZM514.122 208.27H503.168V209.73H514.122V208.27ZM514.852 205.349V201.698H513.392V205.349H514.852ZM514.122 202.428H517.773V200.967H514.122V202.428ZM517.043 201.698V205.349H518.503V201.698H517.043ZM517.773 204.619H514.122V206.079H517.773V204.619ZM500.247 205.349V190.744H498.787V205.349H500.247ZM499.517 191.474H503.168V190.014H499.517V191.474ZM502.438 190.744V194.395H503.898V190.744H502.438ZM503.168 195.126H514.122V193.665H503.168V195.126ZM514.852 194.395V190.744H513.392V194.395H514.852ZM514.122 191.474H517.773V190.014H514.122V191.474ZM517.043 190.744V198.047H518.503V190.744H517.043ZM517.773 197.316H503.168V198.777H517.773V197.316ZM502.438 198.047V205.349H503.898V198.047H502.438ZM503.168 204.619H499.517V206.079H503.168V204.619ZM503.898 190.744V187.093H502.438V190.744H503.898ZM503.168 187.823H514.122V186.363H503.168V187.823ZM513.392 187.093V190.744H514.852V187.093H513.392ZM514.122 190.014H503.168V191.474H514.122V190.014ZM525.659 209H524.929V209.73H525.659V209ZM525.659 187.093V186.363H524.929V187.093H525.659ZM529.311 187.093H530.041V186.363H529.311V187.093ZM529.311 194.395H528.58V195.126H529.311V194.395ZM540.264 194.395V195.126H540.994V194.395H540.264ZM540.264 187.093V186.363H539.534V187.093H540.264ZM543.915 187.093H544.645V186.363H543.915V187.093ZM543.915 209V209.73H544.645V209H543.915ZM540.264 209H539.534V209.73H540.264V209ZM540.264 198.047H540.994V197.316H540.264V198.047ZM529.311 198.047V197.316H528.58V198.047H529.311ZM529.311 209V209.73H530.041V209H529.311ZM526.39 209V187.093H524.929V209H526.39ZM525.659 187.823H529.311V186.363H525.659V187.823ZM528.58 187.093V194.395H530.041V187.093H528.58ZM529.311 195.126H540.264V193.665H529.311V195.126ZM540.994 194.395V187.093H539.534V194.395H540.994ZM540.264 187.823H543.915V186.363H540.264V187.823ZM543.185 187.093V209H544.645V187.093H543.185ZM543.915 208.27H540.264V209.73H543.915V208.27ZM540.994 209V198.047H539.534V209H540.994ZM540.264 197.316H529.311V198.777H540.264V197.316ZM528.58 198.047V209H530.041V198.047H528.58ZM529.311 208.27H525.659V209.73H529.311V208.27ZM555.453 209H554.723V209.73H555.453V209ZM555.453 205.349V204.619H554.723V205.349H555.453ZM566.406 205.349H567.137V204.619H566.406V205.349ZM566.406 209V209.73H567.137V209H566.406ZM551.802 205.349H551.072V206.079H551.802V205.349ZM551.802 190.744V190.014H551.072V190.744H551.802ZM555.453 190.744H556.183V190.014H555.453V190.744ZM555.453 205.349V206.079H556.183V205.349H555.453ZM566.406 205.349H565.676V206.079H566.406V205.349ZM566.406 190.744V190.014H565.676V190.744H566.406ZM570.058 190.744H570.788V190.014H570.058V190.744ZM570.058 205.349V206.079H570.788V205.349H570.058ZM555.453 190.744H554.723V191.474H555.453V190.744ZM555.453 187.093V186.363H554.723V187.093H555.453ZM566.406 187.093H567.137V186.363H566.406V187.093ZM566.406 190.744V191.474H567.137V190.744H566.406ZM556.183 209V205.349H554.723V209H556.183ZM555.453 206.079H566.406V204.619H555.453V206.079ZM565.676 205.349V209H567.137V205.349H565.676ZM566.406 208.27H555.453V209.73H566.406V208.27ZM552.532 205.349V190.744H551.072V205.349H552.532ZM551.802 191.474H555.453V190.014H551.802V191.474ZM554.723 190.744V205.349H556.183V190.744H554.723ZM555.453 204.619H551.802V206.079H555.453V204.619ZM567.137 205.349V190.744H565.676V205.349H567.137ZM566.406 191.474H570.058V190.014H566.406V191.474ZM569.327 190.744V205.349H570.788V190.744H569.327ZM570.058 204.619H566.406V206.079H570.058V204.619ZM556.183 190.744V187.093H554.723V190.744H556.183ZM555.453 187.823H566.406V186.363H555.453V187.823ZM565.676 187.093V190.744H567.137V187.093H565.676ZM566.406 190.014H555.453V191.474H566.406V190.014Z" fill="#252840" mask="url(#path-83-outside-1_97_15582)"/>
<rect x="166.615" y="239.654" width="3.07694" height="3.07694" transform="rotate(90 166.615 239.654)" fill="#AE3B30"/>
<rect x="163.539" y="236.576" width="3.07694" height="3.07694" transform="rotate(90 163.539 236.576)" fill="#AE3B30"/>
<rect x="160.461" y="233.5" width="30.7694" height="6.15388" transform="rotate(90 160.461 233.5)" fill="#AE3B30"/>
<rect x="154.309" y="233.5" width="21.5386" height="6.15389" transform="rotate(90 154.309 233.5)" fill="#AE3B30"/>
<rect x="157.385" y="233.5" width="3.07694" height="3.07694" transform="rotate(90 157.385 233.5)" fill="#AE3B30"/>
<rect x="154.309" y="233.5" width="3.07694" height="3.07694" transform="rotate(90 154.309 233.5)" fill="#AE3B30"/>
<rect x="151.23" y="233.5" width="3.07694" height="3.07694" transform="rotate(90 151.23 233.5)" fill="#AE3B30"/>
<rect x="148.154" y="236.576" width="3.07694" height="3.07694" transform="rotate(90 148.154 236.576)" fill="#AE3B30"/>
<rect x="145.076" y="239.654" width="3.07694" height="3.07694" transform="rotate(90 145.076 239.654)" fill="#AE3B30"/>
<rect x="148.154" y="239.654" width="3.07694" height="3.07694" transform="rotate(90 148.154 239.654)" fill="#AE3B30"/>
<rect x="185.078" y="239.654" width="3.07694" height="3.07694" transform="rotate(90 185.078 239.654)" fill="#AE3B30"/>
<rect x="145.076" y="242.731" width="3.07694" height="3.07694" transform="rotate(90 145.076 242.731)" fill="#AE3B30"/>
<rect x="148.154" y="242.731" width="3.07694" height="3.07694" transform="rotate(90 148.154 242.731)" fill="#AE3B30"/>
<rect x="185.078" y="242.731" width="3.07694" height="3.07694" transform="rotate(90 185.078 242.731)" fill="#AE3B30"/>
<rect x="145.076" y="245.807" width="3.07694" height="3.07694" transform="rotate(90 145.076 245.807)" fill="#AE3B30"/>
<rect x="148.154" y="245.807" width="3.07694" height="3.07694" transform="rotate(90 148.154 245.807)" fill="#AE3B30"/>
<rect x="185.078" y="245.807" width="3.07694" height="3.07694" transform="rotate(90 185.078 245.807)" fill="#AE3B30"/>
<rect x="145.076" y="248.885" width="3.07694" height="3.07694" transform="rotate(90 145.076 248.885)" fill="#AE3B30"/>
<rect x="148.154" y="248.885" width="3.07694" height="3.07694" transform="rotate(90 148.154 248.885)" fill="#AE3B30"/>
<rect x="185.078" y="248.885" width="3.07694" height="3.07694" transform="rotate(90 185.078 248.885)" fill="#AE3B30"/>
<path fill-rule="evenodd" clip-rule="evenodd" d="M182.001 241.192V236.577H178.924V241.192V241.192V245.807H182.001V241.192L182.001 241.192ZM182.001 250.423L182.001 250.423V255.038H178.924V250.423V250.423V245.808H182.001V250.423Z" fill="#AE3B30"/>
<path fill-rule="evenodd" clip-rule="evenodd" d="M178.925 241.961L178.925 236.577H175.848V241.961H178.925ZM178.925 247.346L178.925 247.346V241.962H175.848V247.346V247.346V252.73H178.925V247.346ZM178.925 258.115L178.925 252.731H175.848V258.115H178.925Z" fill="#AE3B30"/>
<path fill-rule="evenodd" clip-rule="evenodd" d="M175.846 242.73L175.846 236.577H172.77V242.73H175.846ZM175.846 248.884L175.846 248.884V242.731L172.77 242.731V248.884V248.884V255.038H175.846V248.884ZM175.846 261.192L175.846 255.039H172.77V261.192L175.846 261.192Z" fill="#AE3B30"/>
<path fill-rule="evenodd" clip-rule="evenodd" d="M172.77 243.5V236.577H169.693V243.5V243.5V250.423V250.423V257.346V257.346V264.269H172.77V257.346L172.77 257.346L172.77 250.423L172.77 250.423L172.77 243.5L172.77 243.5Z" fill="#AE3B30"/>
<path fill-rule="evenodd" clip-rule="evenodd" d="M169.692 246.578V239.655H166.615V246.578V246.578V253.501V253.501V260.424V260.424V267.347H169.692V260.424L169.692 260.424L169.692 253.501L169.692 253.501L169.692 246.578L169.692 246.578Z" fill="#AE3B30"/>
<path fill-rule="evenodd" clip-rule="evenodd" d="M166.616 249.653V242.73H163.539V249.653V249.653V256.576V256.576V263.499V263.499V270.422H166.616V263.499L166.616 263.499L166.616 256.576L166.616 256.576L166.616 249.653L166.616 249.653Z" fill="#AE3B30"/>
<path fill-rule="evenodd" clip-rule="evenodd" d="M163.54 246.578L163.54 239.655H160.463V246.578H163.54ZM163.54 253.502L163.54 253.501V246.579L160.463 246.579V253.501V253.502V260.424V260.424V267.347H163.54V260.424L163.54 260.424L163.54 253.502Z" fill="#AE3B30"/>
<rect x="148.154" y="251.962" width="3.07694" height="3.07694" transform="rotate(90 148.154 251.962)" fill="#AE3B30"/>
<rect x="151.23" y="255.038" width="3.07694" height="3.07694" transform="rotate(90 151.23 255.038)" fill="#AE3B30"/>
<rect x="154.309" y="258.115" width="3.07694" height="3.07694" transform="rotate(90 154.309 258.115)" fill="#AE3B30"/>
<rect x="154.309" y="255.038" width="3.07694" height="3.07694" transform="rotate(90 154.309 255.038)" fill="#AE3B30"/>
<rect x="157.385" y="261.193" width="3.07694" height="3.07694" transform="rotate(90 157.385 261.193)" fill="#AE3B30"/>
<rect x="160.461" y="264.269" width="3.07694" height="3.07694" transform="rotate(90 160.461 264.269)" fill="#AE3B30"/>
<rect x="163.539" y="267.346" width="3.07694" height="3.07694" transform="rotate(90 163.539 267.346)" fill="#AE3B30"/>
<rect x="166.615" y="270.423" width="3.07694" height="3.07694" transform="rotate(90 166.615 270.423)" fill="#AE3B30"/>
<rect x="155.627" y="236.576" width="3.07694" height="3.07694" transform="rotate(90 155.627 236.576)" fill="#D5716E"/>
<rect x="152.549" y="239.654" width="3.07694" height="3.07694" transform="rotate(90 152.549 239.654)" fill="#D5716E"/>
<rect x="149.473" y="242.731" width="3.07694" height="3.07694" transform="rotate(90 149.473 242.731)" fill="#D5716E"/>
<rect x="149.473" y="245.807" width="3.07694" height="3.07694" transform="rotate(90 149.473 245.807)" fill="#D5716E"/>
<rect x="152.549" y="248.885" width="3.07694" height="3.07694" transform="rotate(90 152.549 248.885)" fill="#D5716E"/>
<rect width="3.07694" height="3.07694" transform="matrix(4.37114e-08 1 1 -4.37114e-08 163.539 239.654)" fill="#AE3B30"/>
<rect width="3.07694" height="3.07694" transform="matrix(4.37114e-08 1 1 -4.37114e-08 166.615 236.576)" fill="#AE3B30"/>
<rect width="3.07694" height="3.07694" transform="matrix(4.37114e-08 1 1 -4.37114e-08 169.693 233.5)" fill="#AE3B30"/>
<rect width="3.07694" height="3.07694" transform="matrix(4.37114e-08 1 1 -4.37114e-08 172.77 233.5)" fill="#AE3B30"/>
<rect width="3.07694" height="3.07694" transform="matrix(4.37114e-08 1 1 -4.37114e-08 175.846 233.5)" fill="#AE3B30"/>
<rect width="3.07694" height="3.07694" transform="matrix(4.37114e-08 1 1 -4.37114e-08 178.924 233.5)" fill="#AE3B30"/>
<rect width="3.07694" height="3.07694" transform="matrix(4.37114e-08 1 1 -4.37114e-08 182 236.576)" fill="#AE3B30"/>
<rect width="3.07694" height="3.07694" transform="matrix(4.37114e-08 1 1 -4.37114e-08 185.078 239.654)" fill="#AE3B30"/>
<rect width="3.07694" height="3.07694" transform="matrix(4.37114e-08 1 1 -4.37114e-08 185.078 242.731)" fill="#AE3B30"/>
<rect width="3.07694" height="3.07694" transform="matrix(4.37114e-08 1 1 -4.37114e-08 185.078 245.807)" fill="#AE3B30"/>
<rect width="3.07694" height="3.07694" transform="matrix(4.37114e-08 1 1 -4.37114e-08 185.078 248.885)" fill="#AE3B30"/>
<rect width="3.07694" height="3.07694" transform="matrix(4.37114e-08 1 1 -4.37114e-08 182 251.962)" fill="#AE3B30"/>
<rect width="3.07694" height="3.07694" transform="matrix(4.37114e-08 1 1 -4.37114e-08 178.924 255.038)" fill="#AE3B30"/>
<rect width="3.07694" height="3.07694" transform="matrix(4.37114e-08 1 1 -4.37114e-08 175.846 258.115)" fill="#AE3B30"/>
<rect width="3.07694" height="3.07694" transform="matrix(4.37114e-08 1 1 -4.37114e-08 172.77 261.193)" fill="#AE3B30"/>
<rect width="3.07694" height="3.07694" transform="matrix(4.37114e-08 1 1 -4.37114e-08 169.693 264.269)" fill="#AE3B30"/>
<rect width="3.07694" height="3.07694" transform="matrix(4.37114e-08 1 1 -4.37114e-08 166.615 267.346)" fill="#AE3B30"/>
<rect width="3.07694" height="3.07694" transform="matrix(4.37114e-08 1 1 -4.37114e-08 163.539 270.423)" fill="#AE3B30"/>
<mask id="path-143-outside-2_97_15582" maskUnits="userSpaceOnUse" x="210.154" y="241" width="544" height="35" fill="black">
<rect fill="white" x="210.154" y="241" width="544" height="35"/>
<path d="M211.805 264V242.093H215.457V249.395H226.41V242.093H230.061V264H226.41V253.047H215.457V264H211.805ZM241.599 274.953V271.302H245.25V274.953H241.599ZM245.25 271.302V260.349H248.901V271.302H245.25ZM241.599 260.349V249.395H245.25V260.349H241.599ZM248.901 260.349V249.395H252.552V260.349H248.901ZM237.948 249.395V242.093H241.599V249.395H237.948ZM252.552 249.395V242.093H256.204V249.395H252.552ZM260.439 264V260.349H264.09V264H260.439ZM282.346 264V260.349H285.997V264H282.346ZM264.09 260.349V256.698H267.741V260.349H264.09ZM278.695 260.349V256.698H282.346V260.349H278.695ZM264.09 249.395V245.744H267.741V249.395H264.09ZM278.695 249.395V245.744H282.346V249.395H278.695ZM260.439 245.744V242.093H264.09V245.744H260.439ZM271.392 264V256.698H267.741V249.395H271.392V242.093H275.044V249.395H278.695V256.698H275.044V264H271.392ZM282.346 245.744V242.093H285.997V245.744H282.346ZM290.232 264V242.093H293.884V249.395H304.837V242.093H308.488V264H304.837V253.047H293.884V264H290.232ZM320.026 264V260.349H330.979V264H320.026ZM316.375 260.349V245.744H320.026V260.349H316.375ZM330.979 260.349V245.744H334.631V260.349H330.979ZM320.026 245.744V242.093H330.979V245.744H320.026ZM365.008 271.302V260.349H368.659V245.744H372.311V260.349H383.264V245.744H372.311V242.093H386.915V260.349H390.566V271.302H386.915V264H368.659V271.302H365.008ZM394.802 264V260.349H398.453V264H394.802ZM409.406 264V245.744H402.104V260.349H398.453V242.093H413.058V264H409.406ZM420.944 264V260.349H424.595V264H420.944ZM420.944 253.047V245.744H424.595V253.047H420.944ZM435.549 264V256.698H428.246V260.349H424.595V253.047H435.549V245.744H424.595V242.093H439.2V264H435.549ZM487.833 260.349V253.047H491.485V260.349H487.833ZM487.833 249.395V245.744H491.485V249.395H487.833ZM473.229 264V242.093H487.833V245.744H476.88V249.395H487.833V253.047H476.88V260.349H487.833V264H473.229ZM503.022 264V260.349H513.976V264H503.022ZM499.371 260.349V245.744H503.022V260.349H499.371ZM513.976 260.349V245.744H517.627V260.349H513.976ZM503.022 245.744V242.093H513.976V245.744H503.022ZM529.165 264V260.349H540.118V264H529.165ZM525.513 260.349V256.698H529.165V260.349H525.513ZM540.118 260.349V253.047H543.769V260.349H540.118ZM536.467 253.047V249.395H540.118V253.047H536.467ZM525.513 249.395V245.744H529.165V249.395H525.513ZM540.118 249.395V245.744H543.769V249.395H540.118ZM529.165 245.744V242.093H540.118V245.744H529.165ZM566.26 260.349V245.744H569.912V260.349H566.26ZM551.656 274.953V242.093H566.26V245.744H555.307V260.349H566.26V264H555.307V274.953H551.656ZM581.449 264V260.349H592.403V264H581.449ZM577.798 260.349V245.744H581.449V260.349H577.798ZM592.403 260.349V245.744H596.054V260.349H592.403ZM581.449 245.744V242.093H592.403V245.744H581.449ZM600.289 264V260.349H603.94V264H600.289ZM622.196 264V260.349H625.847V264H622.196ZM603.94 260.349V256.698H607.592V260.349H603.94ZM618.545 260.349V256.698H622.196V260.349H618.545ZM603.94 249.395V245.744H607.592V249.395H603.94ZM618.545 249.395V245.744H622.196V249.395H618.545ZM600.289 245.744V242.093H603.94V245.744H600.289ZM611.243 264V256.698H607.592V249.395H611.243V242.093H614.894V249.395H618.545V256.698H614.894V264H611.243ZM622.196 245.744V242.093H625.847V245.744H622.196ZM626.432 271.302V260.349H630.083V245.744H633.734V260.349H644.687V245.744H633.734V242.093H648.339V260.349H651.99V271.302H648.339V264H630.083V271.302H626.432ZM659.876 264V260.349H670.83V264H659.876ZM670.83 260.349V256.698H674.481V260.349H670.83ZM656.225 260.349V245.744H659.876V249.395H670.83V245.744H674.481V253.047H659.876V260.349H656.225ZM659.876 245.744V242.093H670.83V245.744H659.876ZM682.367 264V242.093H686.019V249.395H696.972V242.093H700.623V264H696.972V253.047H686.019V264H682.367ZM715.812 256.698V249.395H719.463V256.698H715.812ZM708.51 264V242.093H712.161V256.698H715.812V260.349H712.161V264H708.51ZM723.114 264V249.395H719.463V245.744H723.114V242.093H726.765V264H723.114ZM734.652 264V260.349H738.303V264H734.652ZM734.652 253.047V245.744H738.303V253.047H734.652ZM749.257 264V256.698H741.954V260.349H738.303V253.047H749.257V245.744H738.303V242.093H752.908V264H749.257Z"/>
</mask>
<path d="M211.805 264V242.093H215.457V249.395H226.41V242.093H230.061V264H226.41V253.047H215.457V264H211.805ZM241.599 274.953V271.302H245.25V274.953H241.599ZM245.25 271.302V260.349H248.901V271.302H245.25ZM241.599 260.349V249.395H245.25V260.349H241.599ZM248.901 260.349V249.395H252.552V260.349H248.901ZM237.948 249.395V242.093H241.599V249.395H237.948ZM252.552 249.395V242.093H256.204V249.395H252.552ZM260.439 264V260.349H264.09V264H260.439ZM282.346 264V260.349H285.997V264H282.346ZM264.09 260.349V256.698H267.741V260.349H264.09ZM278.695 260.349V256.698H282.346V260.349H278.695ZM264.09 249.395V245.744H267.741V249.395H264.09ZM278.695 249.395V245.744H282.346V249.395H278.695ZM260.439 245.744V242.093H264.09V245.744H260.439ZM271.392 264V256.698H267.741V249.395H271.392V242.093H275.044V249.395H278.695V256.698H275.044V264H271.392ZM282.346 245.744V242.093H285.997V245.744H282.346ZM290.232 264V242.093H293.884V249.395H304.837V242.093H308.488V264H304.837V253.047H293.884V264H290.232ZM320.026 264V260.349H330.979V264H320.026ZM316.375 260.349V245.744H320.026V260.349H316.375ZM330.979 260.349V245.744H334.631V260.349H330.979ZM320.026 245.744V242.093H330.979V245.744H320.026ZM365.008 271.302V260.349H368.659V245.744H372.311V260.349H383.264V245.744H372.311V242.093H386.915V260.349H390.566V271.302H386.915V264H368.659V271.302H365.008ZM394.802 264V260.349H398.453V264H394.802ZM409.406 264V245.744H402.104V260.349H398.453V242.093H413.058V264H409.406ZM420.944 264V260.349H424.595V264H420.944ZM420.944 253.047V245.744H424.595V253.047H420.944ZM435.549 264V256.698H428.246V260.349H424.595V253.047H435.549V245.744H424.595V242.093H439.2V264H435.549ZM487.833 260.349V253.047H491.485V260.349H487.833ZM487.833 249.395V245.744H491.485V249.395H487.833ZM473.229 264V242.093H487.833V245.744H476.88V249.395H487.833V253.047H476.88V260.349H487.833V264H473.229ZM503.022 264V260.349H513.976V264H503.022ZM499.371 260.349V245.744H503.022V260.349H499.371ZM513.976 260.349V245.744H517.627V260.349H513.976ZM503.022 245.744V242.093H513.976V245.744H503.022ZM529.165 264V260.349H540.118V264H529.165ZM525.513 260.349V256.698H529.165V260.349H525.513ZM540.118 260.349V253.047H543.769V260.349H540.118ZM536.467 253.047V249.395H540.118V253.047H536.467ZM525.513 249.395V245.744H529.165V249.395H525.513ZM540.118 249.395V245.744H543.769V249.395H540.118ZM529.165 245.744V242.093H540.118V245.744H529.165ZM566.26 260.349V245.744H569.912V260.349H566.26ZM551.656 274.953V242.093H566.26V245.744H555.307V260.349H566.26V264H555.307V274.953H551.656ZM581.449 264V260.349H592.403V264H581.449ZM577.798 260.349V245.744H581.449V260.349H577.798ZM592.403 260.349V245.744H596.054V260.349H592.403ZM581.449 245.744V242.093H592.403V245.744H581.449ZM600.289 264V260.349H603.94V264H600.289ZM622.196 264V260.349H625.847V264H622.196ZM603.94 260.349V256.698H607.592V260.349H603.94ZM618.545 260.349V256.698H622.196V260.349H618.545ZM603.94 249.395V245.744H607.592V249.395H603.94ZM618.545 249.395V245.744H622.196V249.395H618.545ZM600.289 245.744V242.093H603.94V245.744H600.289ZM611.243 264V256.698H607.592V249.395H611.243V242.093H614.894V249.395H618.545V256.698H614.894V264H611.243ZM622.196 245.744V242.093H625.847V245.744H622.196ZM626.432 271.302V260.349H630.083V245.744H633.734V260.349H644.687V245.744H633.734V242.093H648.339V260.349H651.99V271.302H648.339V264H630.083V271.302H626.432ZM659.876 264V260.349H670.83V264H659.876ZM670.83 260.349V256.698H674.481V260.349H670.83ZM656.225 260.349V245.744H659.876V249.395H670.83V245.744H674.481V253.047H659.876V260.349H656.225ZM659.876 245.744V242.093H670.83V245.744H659.876ZM682.367 264V242.093H686.019V249.395H696.972V242.093H700.623V264H696.972V253.047H686.019V264H682.367ZM715.812 256.698V249.395H719.463V256.698H715.812ZM708.51 264V242.093H712.161V256.698H715.812V260.349H712.161V264H708.51ZM723.114 264V249.395H719.463V245.744H723.114V242.093H726.765V264H723.114ZM734.652 264V260.349H738.303V264H734.652ZM734.652 253.047V245.744H738.303V253.047H734.652ZM749.257 264V256.698H741.954V260.349H738.303V253.047H749.257V245.744H738.303V242.093H752.908V264H749.257Z" fill="#252840"/>
<path d="M211.805 264H211.075V264.73H211.805V264ZM211.805 242.093V241.363H211.075V242.093H211.805ZM215.457 242.093H216.187V241.363H215.457V242.093ZM215.457 249.395H214.726V250.126H215.457V249.395ZM226.41 249.395V250.126H227.14V249.395H226.41ZM226.41 242.093V241.363H225.68V242.093H226.41ZM230.061 242.093H230.792V241.363H230.061V242.093ZM230.061 264V264.73H230.792V264H230.061ZM226.41 264H225.68V264.73H226.41V264ZM226.41 253.047H227.14V252.316H226.41V253.047ZM215.457 253.047V252.316H214.726V253.047H215.457ZM215.457 264V264.73H216.187V264H215.457ZM212.536 264V242.093H211.075V264H212.536ZM211.805 242.823H215.457V241.363H211.805V242.823ZM214.726 242.093V249.395H216.187V242.093H214.726ZM215.457 250.126H226.41V248.665H215.457V250.126ZM227.14 249.395V242.093H225.68V249.395H227.14ZM226.41 242.823H230.061V241.363H226.41V242.823ZM229.331 242.093V264H230.792V242.093H229.331ZM230.061 263.27H226.41V264.73H230.061V263.27ZM227.14 264V253.047H225.68V264H227.14ZM226.41 252.316H215.457V253.777H226.41V252.316ZM214.726 253.047V264H216.187V253.047H214.726ZM215.457 263.27H211.805V264.73H215.457V263.27ZM241.599 274.953H240.869V275.684H241.599V274.953ZM241.599 271.302V270.572H240.869V271.302H241.599ZM245.25 271.302H245.98V270.572H245.25V271.302ZM245.25 274.953V275.684H245.98V274.953H245.25ZM245.25 271.302H244.52V272.033H245.25V271.302ZM245.25 260.349V259.619H244.52V260.349H245.25ZM248.901 260.349H249.632V259.619H248.901V260.349ZM248.901 271.302V272.033H249.632V271.302H248.901ZM241.599 260.349H240.869V261.079H241.599V260.349ZM241.599 249.395V248.665H240.869V249.395H241.599ZM245.25 249.395H245.98V248.665H245.25V249.395ZM245.25 260.349V261.079H245.98V260.349H245.25ZM248.901 260.349H248.171V261.079H248.901V260.349ZM248.901 249.395V248.665H248.171V249.395H248.901ZM252.552 249.395H253.283V248.665H252.552V249.395ZM252.552 260.349V261.079H253.283V260.349H252.552ZM237.948 249.395H237.218V250.126H237.948V249.395ZM237.948 242.093V241.363H237.218V242.093H237.948ZM241.599 242.093H242.329V241.363H241.599V242.093ZM241.599 249.395V250.126H242.329V249.395H241.599ZM252.552 249.395H251.822V250.126H252.552V249.395ZM252.552 242.093V241.363H251.822V242.093H252.552ZM256.204 242.093H256.934V241.363H256.204V242.093ZM256.204 249.395V250.126H256.934V249.395H256.204ZM242.329 274.953V271.302H240.869V274.953H242.329ZM241.599 272.033H245.25V270.572H241.599V272.033ZM244.52 271.302V274.953H245.98V271.302H244.52ZM245.25 274.223H241.599V275.684H245.25V274.223ZM245.98 271.302V260.349H244.52V271.302H245.98ZM245.25 261.079H248.901V259.619H245.25V261.079ZM248.171 260.349V271.302H249.632V260.349H248.171ZM248.901 270.572H245.25V272.033H248.901V270.572ZM242.329 260.349V249.395H240.869V260.349H242.329ZM241.599 250.126H245.25V248.665H241.599V250.126ZM244.52 249.395V260.349H245.98V249.395H244.52ZM245.25 259.619H241.599V261.079H245.25V259.619ZM249.632 260.349V249.395H248.171V260.349H249.632ZM248.901 250.126H252.552V248.665H248.901V250.126ZM251.822 249.395V260.349H253.283V249.395H251.822ZM252.552 259.619H248.901V261.079H252.552V259.619ZM238.678 249.395V242.093H237.218V249.395H238.678ZM237.948 242.823H241.599V241.363H237.948V242.823ZM240.869 242.093V249.395H242.329V242.093H240.869ZM241.599 248.665H237.948V250.126H241.599V248.665ZM253.283 249.395V242.093H251.822V249.395H253.283ZM252.552 242.823H256.204V241.363H252.552V242.823ZM255.473 242.093V249.395H256.934V242.093H255.473ZM256.204 248.665H252.552V250.126H256.204V248.665ZM260.439 264H259.709V264.73H260.439V264ZM260.439 260.349V259.619H259.709V260.349H260.439ZM264.09 260.349H264.82V259.619H264.09V260.349ZM264.09 264V264.73H264.82V264H264.09ZM282.346 264H281.616V264.73H282.346V264ZM282.346 260.349V259.619H281.616V260.349H282.346ZM285.997 260.349H286.727V259.619H285.997V260.349ZM285.997 264V264.73H286.727V264H285.997ZM264.09 260.349H263.36V261.079H264.09V260.349ZM264.09 256.698V255.967H263.36V256.698H264.09ZM267.741 256.698H268.472V255.967H267.741V256.698ZM267.741 260.349V261.079H268.472V260.349H267.741ZM278.695 260.349H277.965V261.079H278.695V260.349ZM278.695 256.698V255.967H277.965V256.698H278.695ZM282.346 256.698H283.076V255.967H282.346V256.698ZM282.346 260.349V261.079H283.076V260.349H282.346ZM264.09 249.395H263.36V250.126H264.09V249.395ZM264.09 245.744V245.014H263.36V245.744H264.09ZM267.741 245.744H268.472V245.014H267.741V245.744ZM267.741 249.395V250.126H268.472V249.395H267.741ZM278.695 249.395H277.965V250.126H278.695V249.395ZM278.695 245.744V245.014H277.965V245.744H278.695ZM282.346 245.744H283.076V245.014H282.346V245.744ZM282.346 249.395V250.126H283.076V249.395H282.346ZM260.439 245.744H259.709V246.474H260.439V245.744ZM260.439 242.093V241.363H259.709V242.093H260.439ZM264.09 242.093H264.82V241.363H264.09V242.093ZM264.09 245.744V246.474H264.82V245.744H264.09ZM271.392 264H270.662V264.73H271.392V264ZM271.392 256.698H272.123V255.967H271.392V256.698ZM267.741 256.698H267.011V257.428H267.741V256.698ZM267.741 249.395V248.665H267.011V249.395H267.741ZM271.392 249.395V250.126H272.123V249.395H271.392ZM271.392 242.093V241.363H270.662V242.093H271.392ZM275.044 242.093H275.774V241.363H275.044V242.093ZM275.044 249.395H274.313V250.126H275.044V249.395ZM278.695 249.395H279.425V248.665H278.695V249.395ZM278.695 256.698V257.428H279.425V256.698H278.695ZM275.044 256.698V255.967H274.313V256.698H275.044ZM275.044 264V264.73H275.774V264H275.044ZM282.346 245.744H281.616V246.474H282.346V245.744ZM282.346 242.093V241.363H281.616V242.093H282.346ZM285.997 242.093H286.727V241.363H285.997V242.093ZM285.997 245.744V246.474H286.727V245.744H285.997ZM261.169 264V260.349H259.709V264H261.169ZM260.439 261.079H264.09V259.619H260.439V261.079ZM263.36 260.349V264H264.82V260.349H263.36ZM264.09 263.27H260.439V264.73H264.09V263.27ZM283.076 264V260.349H281.616V264H283.076ZM282.346 261.079H285.997V259.619H282.346V261.079ZM285.267 260.349V264H286.727V260.349H285.267ZM285.997 263.27H282.346V264.73H285.997V263.27ZM264.82 260.349V256.698H263.36V260.349H264.82ZM264.09 257.428H267.741V255.967H264.09V257.428ZM267.011 256.698V260.349H268.472V256.698H267.011ZM267.741 259.619H264.09V261.079H267.741V259.619ZM279.425 260.349V256.698H277.965V260.349H279.425ZM278.695 257.428H282.346V255.967H278.695V257.428ZM281.616 256.698V260.349H283.076V256.698H281.616ZM282.346 259.619H278.695V261.079H282.346V259.619ZM264.82 249.395V245.744H263.36V249.395H264.82ZM264.09 246.474H267.741V245.014H264.09V246.474ZM267.011 245.744V249.395H268.472V245.744H267.011ZM267.741 248.665H264.09V250.126H267.741V248.665ZM279.425 249.395V245.744H277.965V249.395H279.425ZM278.695 246.474H282.346V245.014H278.695V246.474ZM281.616 245.744V249.395H283.076V245.744H281.616ZM282.346 248.665H278.695V250.126H282.346V248.665ZM261.169 245.744V242.093H259.709V245.744H261.169ZM260.439 242.823H264.09V241.363H260.439V242.823ZM263.36 242.093V245.744H264.82V242.093H263.36ZM264.09 245.014H260.439V246.474H264.09V245.014ZM272.123 264V256.698H270.662V264H272.123ZM271.392 255.967H267.741V257.428H271.392V255.967ZM268.472 256.698V249.395H267.011V256.698H268.472ZM267.741 250.126H271.392V248.665H267.741V250.126ZM272.123 249.395V242.093H270.662V249.395H272.123ZM271.392 242.823H275.044V241.363H271.392V242.823ZM274.313 242.093V249.395H275.774V242.093H274.313ZM275.044 250.126H278.695V248.665H275.044V250.126ZM277.965 249.395V256.698H279.425V249.395H277.965ZM278.695 255.967H275.044V257.428H278.695V255.967ZM274.313 256.698V264H275.774V256.698H274.313ZM275.044 263.27H271.392V264.73H275.044V263.27ZM283.076 245.744V242.093H281.616V245.744H283.076ZM282.346 242.823H285.997V241.363H282.346V242.823ZM285.267 242.093V245.744H286.727V242.093H285.267ZM285.997 245.014H282.346V246.474H285.997V245.014ZM290.232 264H289.502V264.73H290.232V264ZM290.232 242.093V241.363H289.502V242.093H290.232ZM293.884 242.093H294.614V241.363H293.884V242.093ZM293.884 249.395H293.153V250.126H293.884V249.395ZM304.837 249.395V250.126H305.567V249.395H304.837ZM304.837 242.093V241.363H304.107V242.093H304.837ZM308.488 242.093H309.218V241.363H308.488V242.093ZM308.488 264V264.73H309.218V264H308.488ZM304.837 264H304.107V264.73H304.837V264ZM304.837 253.047H305.567V252.316H304.837V253.047ZM293.884 253.047V252.316H293.153V253.047H293.884ZM293.884 264V264.73H294.614V264H293.884ZM290.963 264V242.093H289.502V264H290.963ZM290.232 242.823H293.884V241.363H290.232V242.823ZM293.153 242.093V249.395H294.614V242.093H293.153ZM293.884 250.126H304.837V248.665H293.884V250.126ZM305.567 249.395V242.093H304.107V249.395H305.567ZM304.837 242.823H308.488V241.363H304.837V242.823ZM307.758 242.093V264H309.218V242.093H307.758ZM308.488 263.27H304.837V264.73H308.488V263.27ZM305.567 264V253.047H304.107V264H305.567ZM304.837 252.316H293.884V253.777H304.837V252.316ZM293.153 253.047V264H294.614V253.047H293.153ZM293.884 263.27H290.232V264.73H293.884V263.27ZM320.026 264H319.296V264.73H320.026V264ZM320.026 260.349V259.619H319.296V260.349H320.026ZM330.979 260.349H331.71V259.619H330.979V260.349ZM330.979 264V264.73H331.71V264H330.979ZM316.375 260.349H315.645V261.079H316.375V260.349ZM316.375 245.744V245.014H315.645V245.744H316.375ZM320.026 245.744H320.756V245.014H320.026V245.744ZM320.026 260.349V261.079H320.756V260.349H320.026ZM330.979 260.349H330.249V261.079H330.979V260.349ZM330.979 245.744V245.014H330.249V245.744H330.979ZM334.631 245.744H335.361V245.014H334.631V245.744ZM334.631 260.349V261.079H335.361V260.349H334.631ZM320.026 245.744H319.296V246.474H320.026V245.744ZM320.026 242.093V241.363H319.296V242.093H320.026ZM330.979 242.093H331.71V241.363H330.979V242.093ZM330.979 245.744V246.474H331.71V245.744H330.979ZM320.756 264V260.349H319.296V264H320.756ZM320.026 261.079H330.979V259.619H320.026V261.079ZM330.249 260.349V264H331.71V260.349H330.249ZM330.979 263.27H320.026V264.73H330.979V263.27ZM317.105 260.349V245.744H315.645V260.349H317.105ZM316.375 246.474H320.026V245.014H316.375V246.474ZM319.296 245.744V260.349H320.756V245.744H319.296ZM320.026 259.619H316.375V261.079H320.026V259.619ZM331.71 260.349V245.744H330.249V260.349H331.71ZM330.979 246.474H334.631V245.014H330.979V246.474ZM333.9 245.744V260.349H335.361V245.744H333.9ZM334.631 259.619H330.979V261.079H334.631V259.619ZM320.756 245.744V242.093H319.296V245.744H320.756ZM320.026 242.823H330.979V241.363H320.026V242.823ZM330.249 242.093V245.744H331.71V242.093H330.249ZM330.979 245.014H320.026V246.474H330.979V245.014ZM365.008 271.302H364.278V272.033H365.008V271.302ZM365.008 260.349V259.619H364.278V260.349H365.008ZM368.659 260.349V261.079H369.39V260.349H368.659ZM368.659 245.744V245.014H367.929V245.744H368.659ZM372.311 245.744H373.041V245.014H372.311V245.744ZM372.311 260.349H371.58V261.079H372.311V260.349ZM383.264 260.349V261.079H383.994V260.349H383.264ZM383.264 245.744H383.994V245.014H383.264V245.744ZM372.311 245.744H371.58V246.474H372.311V245.744ZM372.311 242.093V241.363H371.58V242.093H372.311ZM386.915 242.093H387.645V241.363H386.915V242.093ZM386.915 260.349H386.185V261.079H386.915V260.349ZM390.566 260.349H391.297V259.619H390.566V260.349ZM390.566 271.302V272.033H391.297V271.302H390.566ZM386.915 271.302H386.185V272.033H386.915V271.302ZM386.915 264H387.645V263.27H386.915V264ZM368.659 264V263.27H367.929V264H368.659ZM368.659 271.302V272.033H369.39V271.302H368.659ZM365.739 271.302V260.349H364.278V271.302H365.739ZM365.008 261.079H368.659V259.619H365.008V261.079ZM369.39 260.349V245.744H367.929V260.349H369.39ZM368.659 246.474H372.311V245.014H368.659V246.474ZM371.58 245.744V260.349H373.041V245.744H371.58ZM372.311 261.079H383.264V259.619H372.311V261.079ZM383.994 260.349V245.744H382.534V260.349H383.994ZM383.264 245.014H372.311V246.474H383.264V245.014ZM373.041 245.744V242.093H371.58V245.744H373.041ZM372.311 242.823H386.915V241.363H372.311V242.823ZM386.185 242.093V260.349H387.645V242.093H386.185ZM386.915 261.079H390.566V259.619H386.915V261.079ZM389.836 260.349V271.302H391.297V260.349H389.836ZM390.566 270.572H386.915V272.033H390.566V270.572ZM387.645 271.302V264H386.185V271.302H387.645ZM386.915 263.27H368.659V264.73H386.915V263.27ZM367.929 264V271.302H369.39V264H367.929ZM368.659 270.572H365.008V272.033H368.659V270.572ZM394.802 264H394.072V264.73H394.802V264ZM394.802 260.349V259.619H394.072V260.349H394.802ZM398.453 260.349H399.183V259.619H398.453V260.349ZM398.453 264V264.73H399.183V264H398.453ZM409.406 264H408.676V264.73H409.406V264ZM409.406 245.744H410.137V245.014H409.406V245.744ZM402.104 245.744V245.014H401.374V245.744H402.104ZM402.104 260.349V261.079H402.834V260.349H402.104ZM398.453 260.349H397.723V261.079H398.453V260.349ZM398.453 242.093V241.363H397.723V242.093H398.453ZM413.058 242.093H413.788V241.363H413.058V242.093ZM413.058 264V264.73H413.788V264H413.058ZM395.532 264V260.349H394.072V264H395.532ZM394.802 261.079H398.453V259.619H394.802V261.079ZM397.723 260.349V264H399.183V260.349H397.723ZM398.453 263.27H394.802V264.73H398.453V263.27ZM410.137 264V245.744H408.676V264H410.137ZM409.406 245.014H402.104V246.474H409.406V245.014ZM401.374 245.744V260.349H402.834V245.744H401.374ZM402.104 259.619H398.453V261.079H402.104V259.619ZM399.183 260.349V242.093H397.723V260.349H399.183ZM398.453 242.823H413.058V241.363H398.453V242.823ZM412.327 242.093V264H413.788V242.093H412.327ZM413.058 263.27H409.406V264.73H413.058V263.27ZM420.944 264H420.214V264.73H420.944V264ZM420.944 260.349V259.619H420.214V260.349H420.944ZM424.595 260.349H425.325V259.619H424.595V260.349ZM424.595 264V264.73H425.325V264H424.595ZM420.944 253.047H420.214V253.777H420.944V253.047ZM420.944 245.744V245.014H420.214V245.744H420.944ZM424.595 245.744H425.325V245.014H424.595V245.744ZM424.595 253.047V253.777H425.325V253.047H424.595ZM435.549 264H434.819V264.73H435.549V264ZM435.549 256.698H436.279V255.967H435.549V256.698ZM428.246 256.698V255.967H427.516V256.698H428.246ZM428.246 260.349V261.079H428.977V260.349H428.246ZM424.595 260.349H423.865V261.079H424.595V260.349ZM424.595 253.047V252.316H423.865V253.047H424.595ZM435.549 253.047V253.777H436.279V253.047H435.549ZM435.549 245.744H436.279V245.014H435.549V245.744ZM424.595 245.744H423.865V246.474H424.595V245.744ZM424.595 242.093V241.363H423.865V242.093H424.595ZM439.2 242.093H439.93V241.363H439.2V242.093ZM439.2 264V264.73H439.93V264H439.2ZM421.674 264V260.349H420.214V264H421.674ZM420.944 261.079H424.595V259.619H420.944V261.079ZM423.865 260.349V264H425.325V260.349H423.865ZM424.595 263.27H420.944V264.73H424.595V263.27ZM421.674 253.047V245.744H420.214V253.047H421.674ZM420.944 246.474H424.595V245.014H420.944V246.474ZM423.865 245.744V253.047H425.325V245.744H423.865ZM424.595 252.316H420.944V253.777H424.595V252.316ZM436.279 264V256.698H434.819V264H436.279ZM435.549 255.967H428.246V257.428H435.549V255.967ZM427.516 256.698V260.349H428.977V256.698H427.516ZM428.246 259.619H424.595V261.079H428.246V259.619ZM425.325 260.349V253.047H423.865V260.349H425.325ZM424.595 253.777H435.549V252.316H424.595V253.777ZM436.279 253.047V245.744H434.819V253.047H436.279ZM435.549 245.014H424.595V246.474H435.549V245.014ZM425.325 245.744V242.093H423.865V245.744H425.325ZM424.595 242.823H439.2V241.363H424.595V242.823ZM438.47 242.093V264H439.93V242.093H438.47ZM439.2 263.27H435.549V264.73H439.2V263.27ZM487.833 260.349H487.103V261.079H487.833V260.349ZM487.833 253.047V252.316H487.103V253.047H487.833ZM491.485 253.047H492.215V252.316H491.485V253.047ZM491.485 260.349V261.079H492.215V260.349H491.485ZM487.833 249.395H487.103V250.126H487.833V249.395ZM487.833 245.744V245.014H487.103V245.744H487.833ZM491.485 245.744H492.215V245.014H491.485V245.744ZM491.485 249.395V250.126H492.215V249.395H491.485ZM473.229 264H472.499V264.73H473.229V264ZM473.229 242.093V241.363H472.499V242.093H473.229ZM487.833 242.093H488.564V241.363H487.833V242.093ZM487.833 245.744V246.474H488.564V245.744H487.833ZM476.88 245.744V245.014H476.15V245.744H476.88ZM476.88 249.395H476.15V250.126H476.88V249.395ZM487.833 249.395H488.564V248.665H487.833V249.395ZM487.833 253.047V253.777H488.564V253.047H487.833ZM476.88 253.047V252.316H476.15V253.047H476.88ZM476.88 260.349H476.15V261.079H476.88V260.349ZM487.833 260.349H488.564V259.619H487.833V260.349ZM487.833 264V264.73H488.564V264H487.833ZM488.564 260.349V253.047H487.103V260.349H488.564ZM487.833 253.777H491.485V252.316H487.833V253.777ZM490.754 253.047V260.349H492.215V253.047H490.754ZM491.485 259.619H487.833V261.079H491.485V259.619ZM488.564 249.395V245.744H487.103V249.395H488.564ZM487.833 246.474H491.485V245.014H487.833V246.474ZM490.754 245.744V249.395H492.215V245.744H490.754ZM491.485 248.665H487.833V250.126H491.485V248.665ZM473.959 264V242.093H472.499V264H473.959ZM473.229 242.823H487.833V241.363H473.229V242.823ZM487.103 242.093V245.744H488.564V242.093H487.103ZM487.833 245.014H476.88V246.474H487.833V245.014ZM476.15 245.744V249.395H477.61V245.744H476.15ZM476.88 250.126H487.833V248.665H476.88V250.126ZM487.103 249.395V253.047H488.564V249.395H487.103ZM487.833 252.316H476.88V253.777H487.833V252.316ZM476.15 253.047V260.349H477.61V253.047H476.15ZM476.88 261.079H487.833V259.619H476.88V261.079ZM487.103 260.349V264H488.564V260.349H487.103ZM487.833 263.27H473.229V264.73H487.833V263.27ZM503.022 264H502.292V264.73H503.022V264ZM503.022 260.349V259.619H502.292V260.349H503.022ZM513.976 260.349H514.706V259.619H513.976V260.349ZM513.976 264V264.73H514.706V264H513.976ZM499.371 260.349H498.641V261.079H499.371V260.349ZM499.371 245.744V245.014H498.641V245.744H499.371ZM503.022 245.744H503.752V245.014H503.022V245.744ZM503.022 260.349V261.079H503.752V260.349H503.022ZM513.976 260.349H513.245V261.079H513.976V260.349ZM513.976 245.744V245.014H513.245V245.744H513.976ZM517.627 245.744H518.357V245.014H517.627V245.744ZM517.627 260.349V261.079H518.357V260.349H517.627ZM503.022 245.744H502.292V246.474H503.022V245.744ZM503.022 242.093V241.363H502.292V242.093H503.022ZM513.976 242.093H514.706V241.363H513.976V242.093ZM513.976 245.744V246.474H514.706V245.744H513.976ZM503.752 264V260.349H502.292V264H503.752ZM503.022 261.079H513.976V259.619H503.022V261.079ZM513.245 260.349V264H514.706V260.349H513.245ZM513.976 263.27H503.022V264.73H513.976V263.27ZM500.101 260.349V245.744H498.641V260.349H500.101ZM499.371 246.474H503.022V245.014H499.371V246.474ZM502.292 245.744V260.349H503.752V245.744H502.292ZM503.022 259.619H499.371V261.079H503.022V259.619ZM514.706 260.349V245.744H513.245V260.349H514.706ZM513.976 246.474H517.627V245.014H513.976V246.474ZM516.897 245.744V260.349H518.357V245.744H516.897ZM517.627 259.619H513.976V261.079H517.627V259.619ZM503.752 245.744V242.093H502.292V245.744H503.752ZM503.022 242.823H513.976V241.363H503.022V242.823ZM513.245 242.093V245.744H514.706V242.093H513.245ZM513.976 245.014H503.022V246.474H513.976V245.014ZM529.165 264H528.434V264.73H529.165V264ZM529.165 260.349V259.619H528.434V260.349H529.165ZM540.118 260.349H540.848V259.619H540.118V260.349ZM540.118 264V264.73H540.848V264H540.118ZM525.513 260.349H524.783V261.079H525.513V260.349ZM525.513 256.698V255.967H524.783V256.698H525.513ZM529.165 256.698H529.895V255.967H529.165V256.698ZM529.165 260.349V261.079H529.895V260.349H529.165ZM540.118 260.349H539.388V261.079H540.118V260.349ZM540.118 253.047V252.316H539.388V253.047H540.118ZM543.769 253.047H544.499V252.316H543.769V253.047ZM543.769 260.349V261.079H544.499V260.349H543.769ZM536.467 253.047H535.737V253.777H536.467V253.047ZM536.467 249.395V248.665H535.737V249.395H536.467ZM540.118 249.395H540.848V248.665H540.118V249.395ZM540.118 253.047V253.777H540.848V253.047H540.118ZM525.513 249.395H524.783V250.126H525.513V249.395ZM525.513 245.744V245.014H524.783V245.744H525.513ZM529.165 245.744H529.895V245.014H529.165V245.744ZM529.165 249.395V250.126H529.895V249.395H529.165ZM540.118 249.395H539.388V250.126H540.118V249.395ZM540.118 245.744V245.014H539.388V245.744H540.118ZM543.769 245.744H544.499V245.014H543.769V245.744ZM543.769 249.395V250.126H544.499V249.395H543.769ZM529.165 245.744H528.434V246.474H529.165V245.744ZM529.165 242.093V241.363H528.434V242.093H529.165ZM540.118 242.093H540.848V241.363H540.118V242.093ZM540.118 245.744V246.474H540.848V245.744H540.118ZM529.895 264V260.349H528.434V264H529.895ZM529.165 261.079H540.118V259.619H529.165V261.079ZM539.388 260.349V264H540.848V260.349H539.388ZM540.118 263.27H529.165V264.73H540.118V263.27ZM526.244 260.349V256.698H524.783V260.349H526.244ZM525.513 257.428H529.165V255.967H525.513V257.428ZM528.434 256.698V260.349H529.895V256.698H528.434ZM529.165 259.619H525.513V261.079H529.165V259.619ZM540.848 260.349V253.047H539.388V260.349H540.848ZM540.118 253.777H543.769V252.316H540.118V253.777ZM543.039 253.047V260.349H544.499V253.047H543.039ZM543.769 259.619H540.118V261.079H543.769V259.619ZM537.197 253.047V249.395H535.737V253.047H537.197ZM536.467 250.126H540.118V248.665H536.467V250.126ZM539.388 249.395V253.047H540.848V249.395H539.388ZM540.118 252.316H536.467V253.777H540.118V252.316ZM526.244 249.395V245.744H524.783V249.395H526.244ZM525.513 246.474H529.165V245.014H525.513V246.474ZM528.434 245.744V249.395H529.895V245.744H528.434ZM529.165 248.665H525.513V250.126H529.165V248.665ZM540.848 249.395V245.744H539.388V249.395H540.848ZM540.118 246.474H543.769V245.014H540.118V246.474ZM543.039 245.744V249.395H544.499V245.744H543.039ZM543.769 248.665H540.118V250.126H543.769V248.665ZM529.895 245.744V242.093H528.434V245.744H529.895ZM529.165 242.823H540.118V241.363H529.165V242.823ZM539.388 242.093V245.744H540.848V242.093H539.388ZM540.118 245.014H529.165V246.474H540.118V245.014ZM566.26 260.349H565.53V261.079H566.26V260.349ZM566.26 245.744V245.014H565.53V245.744H566.26ZM569.912 245.744H570.642V245.014H569.912V245.744ZM569.912 260.349V261.079H570.642V260.349H569.912ZM551.656 274.953H550.925V275.684H551.656V274.953ZM551.656 242.093V241.363H550.925V242.093H551.656ZM566.26 242.093H566.991V241.363H566.26V242.093ZM566.26 245.744V246.474H566.991V245.744H566.26ZM555.307 245.744V245.014H554.577V245.744H555.307ZM555.307 260.349H554.577V261.079H555.307V260.349ZM566.26 260.349H566.991V259.619H566.26V260.349ZM566.26 264V264.73H566.991V264H566.26ZM555.307 264V263.27H554.577V264H555.307ZM555.307 274.953V275.684H556.037V274.953H555.307ZM566.991 260.349V245.744H565.53V260.349H566.991ZM566.26 246.474H569.912V245.014H566.26V246.474ZM569.181 245.744V260.349H570.642V245.744H569.181ZM569.912 259.619H566.26V261.079H569.912V259.619ZM552.386 274.953V242.093H550.925V274.953H552.386ZM551.656 242.823H566.26V241.363H551.656V242.823ZM565.53 242.093V245.744H566.991V242.093H565.53ZM566.26 245.014H555.307V246.474H566.26V245.014ZM554.577 245.744V260.349H556.037V245.744H554.577ZM555.307 261.079H566.26V259.619H555.307V261.079ZM565.53 260.349V264H566.991V260.349H565.53ZM566.26 263.27H555.307V264.73H566.26V263.27ZM554.577 264V274.953H556.037V264H554.577ZM555.307 274.223H551.656V275.684H555.307V274.223ZM581.449 264H580.719V264.73H581.449V264ZM581.449 260.349V259.619H580.719V260.349H581.449ZM592.403 260.349H593.133V259.619H592.403V260.349ZM592.403 264V264.73H593.133V264H592.403ZM577.798 260.349H577.068V261.079H577.798V260.349ZM577.798 245.744V245.014H577.068V245.744H577.798ZM581.449 245.744H582.179V245.014H581.449V245.744ZM581.449 260.349V261.079H582.179V260.349H581.449ZM592.403 260.349H591.672V261.079H592.403V260.349ZM592.403 245.744V245.014H591.672V245.744H592.403ZM596.054 245.744H596.784V245.014H596.054V245.744ZM596.054 260.349V261.079H596.784V260.349H596.054ZM581.449 245.744H580.719V246.474H581.449V245.744ZM581.449 242.093V241.363H580.719V242.093H581.449ZM592.403 242.093H593.133V241.363H592.403V242.093ZM592.403 245.744V246.474H593.133V245.744H592.403ZM582.179 264V260.349H580.719V264H582.179ZM581.449 261.079H592.403V259.619H581.449V261.079ZM591.672 260.349V264H593.133V260.349H591.672ZM592.403 263.27H581.449V264.73H592.403V263.27ZM578.528 260.349V245.744H577.068V260.349H578.528ZM577.798 246.474H581.449V245.014H577.798V246.474ZM580.719 245.744V260.349H582.179V245.744H580.719ZM581.449 259.619H577.798V261.079H581.449V259.619ZM593.133 260.349V245.744H591.672V260.349H593.133ZM592.403 246.474H596.054V245.014H592.403V246.474ZM595.324 245.744V260.349H596.784V245.744H595.324ZM596.054 259.619H592.403V261.079H596.054V259.619ZM582.179 245.744V242.093H580.719V245.744H582.179ZM581.449 242.823H592.403V241.363H581.449V242.823ZM591.672 242.093V245.744H593.133V242.093H591.672ZM592.403 245.014H581.449V246.474H592.403V245.014ZM600.289 264H599.559V264.73H600.289V264ZM600.289 260.349V259.619H599.559V260.349H600.289ZM603.94 260.349H604.671V259.619H603.94V260.349ZM603.94 264V264.73H604.671V264H603.94ZM622.196 264H621.466V264.73H622.196V264ZM622.196 260.349V259.619H621.466V260.349H622.196ZM625.847 260.349H626.578V259.619H625.847V260.349ZM625.847 264V264.73H626.578V264H625.847ZM603.94 260.349H603.21V261.079H603.94V260.349ZM603.94 256.698V255.967H603.21V256.698H603.94ZM607.592 256.698H608.322V255.967H607.592V256.698ZM607.592 260.349V261.079H608.322V260.349H607.592ZM618.545 260.349H617.815V261.079H618.545V260.349ZM618.545 256.698V255.967H617.815V256.698H618.545ZM622.196 256.698H622.926V255.967H622.196V256.698ZM622.196 260.349V261.079H622.926V260.349H622.196ZM603.94 249.395H603.21V250.126H603.94V249.395ZM603.94 245.744V245.014H603.21V245.744H603.94ZM607.592 245.744H608.322V245.014H607.592V245.744ZM607.592 249.395V250.126H608.322V249.395H607.592ZM618.545 249.395H617.815V250.126H618.545V249.395ZM618.545 245.744V245.014H617.815V245.744H618.545ZM622.196 245.744H622.926V245.014H622.196V245.744ZM622.196 249.395V250.126H622.926V249.395H622.196ZM600.289 245.744H599.559V246.474H600.289V245.744ZM600.289 242.093V241.363H599.559V242.093H600.289ZM603.94 242.093H604.671V241.363H603.94V242.093ZM603.94 245.744V246.474H604.671V245.744H603.94ZM611.243 264H610.512V264.73H611.243V264ZM611.243 256.698H611.973V255.967H611.243V256.698ZM607.592 256.698H606.861V257.428H607.592V256.698ZM607.592 249.395V248.665H606.861V249.395H607.592ZM611.243 249.395V250.126H611.973V249.395H611.243ZM611.243 242.093V241.363H610.512V242.093H611.243ZM614.894 242.093H615.624V241.363H614.894V242.093ZM614.894 249.395H614.164V250.126H614.894V249.395ZM618.545 249.395H619.275V248.665H618.545V249.395ZM618.545 256.698V257.428H619.275V256.698H618.545ZM614.894 256.698V255.967H614.164V256.698H614.894ZM614.894 264V264.73H615.624V264H614.894ZM622.196 245.744H621.466V246.474H622.196V245.744ZM622.196 242.093V241.363H621.466V242.093H622.196ZM625.847 242.093H626.578V241.363H625.847V242.093ZM625.847 245.744V246.474H626.578V245.744H625.847ZM601.019 264V260.349H599.559V264H601.019ZM600.289 261.079H603.94V259.619H600.289V261.079ZM603.21 260.349V264H604.671V260.349H603.21ZM603.94 263.27H600.289V264.73H603.94V263.27ZM622.926 264V260.349H621.466V264H622.926ZM622.196 261.079H625.847V259.619H622.196V261.079ZM625.117 260.349V264H626.578V260.349H625.117ZM625.847 263.27H622.196V264.73H625.847V263.27ZM604.671 260.349V256.698H603.21V260.349H604.671ZM603.94 257.428H607.592V255.967H603.94V257.428ZM606.861 256.698V260.349H608.322V256.698H606.861ZM607.592 259.619H603.94V261.079H607.592V259.619ZM619.275 260.349V256.698H617.815V260.349H619.275ZM618.545 257.428H622.196V255.967H618.545V257.428ZM621.466 256.698V260.349H622.926V256.698H621.466ZM622.196 259.619H618.545V261.079H622.196V259.619ZM604.671 249.395V245.744H603.21V249.395H604.671ZM603.94 246.474H607.592V245.014H603.94V246.474ZM606.861 245.744V249.395H608.322V245.744H606.861ZM607.592 248.665H603.94V250.126H607.592V248.665ZM619.275 249.395V245.744H617.815V249.395H619.275ZM618.545 246.474H622.196V245.014H618.545V246.474ZM621.466 245.744V249.395H622.926V245.744H621.466ZM622.196 248.665H618.545V250.126H622.196V248.665ZM601.019 245.744V242.093H599.559V245.744H601.019ZM600.289 242.823H603.94V241.363H600.289V242.823ZM603.21 242.093V245.744H604.671V242.093H603.21ZM603.94 245.014H600.289V246.474H603.94V245.014ZM611.973 264V256.698H610.512V264H611.973ZM611.243 255.967H607.592V257.428H611.243V255.967ZM608.322 256.698V249.395H606.861V256.698H608.322ZM607.592 250.126H611.243V248.665H607.592V250.126ZM611.973 249.395V242.093H610.512V249.395H611.973ZM611.243 242.823H614.894V241.363H611.243V242.823ZM614.164 242.093V249.395H615.624V242.093H614.164ZM614.894 250.126H618.545V248.665H614.894V250.126ZM617.815 249.395V256.698H619.275V249.395H617.815ZM618.545 255.967H614.894V257.428H618.545V255.967ZM614.164 256.698V264H615.624V256.698H614.164ZM614.894 263.27H611.243V264.73H614.894V263.27ZM622.926 245.744V242.093H621.466V245.744H622.926ZM622.196 242.823H625.847V241.363H622.196V242.823ZM625.117 242.093V245.744H626.578V242.093H625.117ZM625.847 245.014H622.196V246.474H625.847V245.014ZM626.432 271.302H625.701V272.033H626.432V271.302ZM626.432 260.349V259.619H625.701V260.349H626.432ZM630.083 260.349V261.079H630.813V260.349H630.083ZM630.083 245.744V245.014H629.352V245.744H630.083ZM633.734 245.744H634.464V245.014H633.734V245.744ZM633.734 260.349H633.004V261.079H633.734V260.349ZM644.687 260.349V261.079H645.418V260.349H644.687ZM644.687 245.744H645.418V245.014H644.687V245.744ZM633.734 245.744H633.004V246.474H633.734V245.744ZM633.734 242.093V241.363H633.004V242.093H633.734ZM648.339 242.093H649.069V241.363H648.339V242.093ZM648.339 260.349H647.608V261.079H648.339V260.349ZM651.99 260.349H652.72V259.619H651.99V260.349ZM651.99 271.302V272.033H652.72V271.302H651.99ZM648.339 271.302H647.608V272.033H648.339V271.302ZM648.339 264H649.069V263.27H648.339V264ZM630.083 264V263.27H629.352V264H630.083ZM630.083 271.302V272.033H630.813V271.302H630.083ZM627.162 271.302V260.349H625.701V271.302H627.162ZM626.432 261.079H630.083V259.619H626.432V261.079ZM630.813 260.349V245.744H629.352V260.349H630.813ZM630.083 246.474H633.734V245.014H630.083V246.474ZM633.004 245.744V260.349H634.464V245.744H633.004ZM633.734 261.079H644.687V259.619H633.734V261.079ZM645.418 260.349V245.744H643.957V260.349H645.418ZM644.687 245.014H633.734V246.474H644.687V245.014ZM634.464 245.744V242.093H633.004V245.744H634.464ZM633.734 242.823H648.339V241.363H633.734V242.823ZM647.608 242.093V260.349H649.069V242.093H647.608ZM648.339 261.079H651.99V259.619H648.339V261.079ZM651.259 260.349V271.302H652.72V260.349H651.259ZM651.99 270.572H648.339V272.033H651.99V270.572ZM649.069 271.302V264H647.608V271.302H649.069ZM648.339 263.27H630.083V264.73H648.339V263.27ZM629.352 264V271.302H630.813V264H629.352ZM630.083 270.572H626.432V272.033H630.083V270.572ZM659.876 264H659.146V264.73H659.876V264ZM659.876 260.349V259.619H659.146V260.349H659.876ZM670.83 260.349H671.56V259.619H670.83V260.349ZM670.83 264V264.73H671.56V264H670.83ZM670.83 260.349H670.099V261.079H670.83V260.349ZM670.83 256.698V255.967H670.099V256.698H670.83ZM674.481 256.698H675.211V255.967H674.481V256.698ZM674.481 260.349V261.079H675.211V260.349H674.481ZM656.225 260.349H655.495V261.079H656.225V260.349ZM656.225 245.744V245.014H655.495V245.744H656.225ZM659.876 245.744H660.606V245.014H659.876V245.744ZM659.876 249.395H659.146V250.126H659.876V249.395ZM670.83 249.395V250.126H671.56V249.395H670.83ZM670.83 245.744V245.014H670.099V245.744H670.83ZM674.481 245.744H675.211V245.014H674.481V245.744ZM674.481 253.047V253.777H675.211V253.047H674.481ZM659.876 253.047V252.316H659.146V253.047H659.876ZM659.876 260.349V261.079H660.606V260.349H659.876ZM659.876 245.744H659.146V246.474H659.876V245.744ZM659.876 242.093V241.363H659.146V242.093H659.876ZM670.83 242.093H671.56V241.363H670.83V242.093ZM670.83 245.744V246.474H671.56V245.744H670.83ZM660.606 264V260.349H659.146V264H660.606ZM659.876 261.079H670.83V259.619H659.876V261.079ZM670.099 260.349V264H671.56V260.349H670.099ZM670.83 263.27H659.876V264.73H670.83V263.27ZM671.56 260.349V256.698H670.099V260.349H671.56ZM670.83 257.428H674.481V255.967H670.83V257.428ZM673.751 256.698V260.349H675.211V256.698H673.751ZM674.481 259.619H670.83V261.079H674.481V259.619ZM656.955 260.349V245.744H655.495V260.349H656.955ZM656.225 246.474H659.876V245.014H656.225V246.474ZM659.146 245.744V249.395H660.606V245.744H659.146ZM659.876 250.126H670.83V248.665H659.876V250.126ZM671.56 249.395V245.744H670.099V249.395H671.56ZM670.83 246.474H674.481V245.014H670.83V246.474ZM673.751 245.744V253.047H675.211V245.744H673.751ZM674.481 252.316H659.876V253.777H674.481V252.316ZM659.146 253.047V260.349H660.606V253.047H659.146ZM659.876 259.619H656.225V261.079H659.876V259.619ZM660.606 245.744V242.093H659.146V245.744H660.606ZM659.876 242.823H670.83V241.363H659.876V242.823ZM670.099 242.093V245.744H671.56V242.093H670.099ZM670.83 245.014H659.876V246.474H670.83V245.014ZM682.367 264H681.637V264.73H682.367V264ZM682.367 242.093V241.363H681.637V242.093H682.367ZM686.019 242.093H686.749V241.363H686.019V242.093ZM686.019 249.395H685.288V250.126H686.019V249.395ZM696.972 249.395V250.126H697.702V249.395H696.972ZM696.972 242.093V241.363H696.242V242.093H696.972ZM700.623 242.093H701.353V241.363H700.623V242.093ZM700.623 264V264.73H701.353V264H700.623ZM696.972 264H696.242V264.73H696.972V264ZM696.972 253.047H697.702V252.316H696.972V253.047ZM686.019 253.047V252.316H685.288V253.047H686.019ZM686.019 264V264.73H686.749V264H686.019ZM683.098 264V242.093H681.637V264H683.098ZM682.367 242.823H686.019V241.363H682.367V242.823ZM685.288 242.093V249.395H686.749V242.093H685.288ZM686.019 250.126H696.972V248.665H686.019V250.126ZM697.702 249.395V242.093H696.242V249.395H697.702ZM696.972 242.823H700.623V241.363H696.972V242.823ZM699.893 242.093V264H701.353V242.093H699.893ZM700.623 263.27H696.972V264.73H700.623V263.27ZM697.702 264V253.047H696.242V264H697.702ZM696.972 252.316H686.019V253.777H696.972V252.316ZM685.288 253.047V264H686.749V253.047H685.288ZM686.019 263.27H682.367V264.73H686.019V263.27ZM715.812 256.698H715.082V257.428H715.812V256.698ZM715.812 249.395V248.665H715.082V249.395H715.812ZM719.463 249.395H720.193V248.665H719.463V249.395ZM719.463 256.698V257.428H720.193V256.698H719.463ZM708.51 264H707.779V264.73H708.51V264ZM708.51 242.093V241.363H707.779V242.093H708.51ZM712.161 242.093H712.891V241.363H712.161V242.093ZM712.161 256.698H711.431V257.428H712.161V256.698ZM715.812 256.698H716.542V255.967H715.812V256.698ZM715.812 260.349V261.079H716.542V260.349H715.812ZM712.161 260.349V259.619H711.431V260.349H712.161ZM712.161 264V264.73H712.891V264H712.161ZM723.114 264H722.384V264.73H723.114V264ZM723.114 249.395H723.845V248.665H723.114V249.395ZM719.463 249.395H718.733V250.126H719.463V249.395ZM719.463 245.744V245.014H718.733V245.744H719.463ZM723.114 245.744V246.474H723.845V245.744H723.114ZM723.114 242.093V241.363H722.384V242.093H723.114ZM726.766 242.093H727.496V241.363H726.766V242.093ZM726.766 264V264.73H727.496V264H726.766ZM716.542 256.698V249.395H715.082V256.698H716.542ZM715.812 250.126H719.463V248.665H715.812V250.126ZM718.733 249.395V256.698H720.193V249.395H718.733ZM719.463 255.967H715.812V257.428H719.463V255.967ZM709.24 264V242.093H707.779V264H709.24ZM708.51 242.823H712.161V241.363H708.51V242.823ZM711.431 242.093V256.698H712.891V242.093H711.431ZM712.161 257.428H715.812V255.967H712.161V257.428ZM715.082 256.698V260.349H716.542V256.698H715.082ZM715.812 259.619H712.161V261.079H715.812V259.619ZM711.431 260.349V264H712.891V260.349H711.431ZM712.161 263.27H708.51V264.73H712.161V263.27ZM723.845 264V249.395H722.384V264H723.845ZM723.114 248.665H719.463V250.126H723.114V248.665ZM720.193 249.395V245.744H718.733V249.395H720.193ZM719.463 246.474H723.114V245.014H719.463V246.474ZM723.845 245.744V242.093H722.384V245.744H723.845ZM723.114 242.823H726.766V241.363H723.114V242.823ZM726.035 242.093V264H727.496V242.093H726.035ZM726.766 263.27H723.114V264.73H726.766V263.27ZM734.652 264H733.922V264.73H734.652V264ZM734.652 260.349V259.619H733.922V260.349H734.652ZM738.303 260.349H739.033V259.619H738.303V260.349ZM738.303 264V264.73H739.033V264H738.303ZM734.652 253.047H733.922V253.777H734.652V253.047ZM734.652 245.744V245.014H733.922V245.744H734.652ZM738.303 245.744H739.033V245.014H738.303V245.744ZM738.303 253.047V253.777H739.033V253.047H738.303ZM749.257 264H748.526V264.73H749.257V264ZM749.257 256.698H749.987V255.967H749.257V256.698ZM741.954 256.698V255.967H741.224V256.698H741.954ZM741.954 260.349V261.079H742.685V260.349H741.954ZM738.303 260.349H737.573V261.079H738.303V260.349ZM738.303 253.047V252.316H737.573V253.047H738.303ZM749.257 253.047V253.777H749.987V253.047H749.257ZM749.257 245.744H749.987V245.014H749.257V245.744ZM738.303 245.744H737.573V246.474H738.303V245.744ZM738.303 242.093V241.363H737.573V242.093H738.303ZM752.908 242.093H753.638V241.363H752.908V242.093ZM752.908 264V264.73H753.638V264H752.908ZM735.382 264V260.349H733.922V264H735.382ZM734.652 261.079H738.303V259.619H734.652V261.079ZM737.573 260.349V264H739.033V260.349H737.573ZM738.303 263.27H734.652V264.73H738.303V263.27ZM735.382 253.047V245.744H733.922V253.047H735.382ZM734.652 246.474H738.303V245.014H734.652V246.474ZM737.573 245.744V253.047H739.033V245.744H737.573ZM738.303 252.316H734.652V253.777H738.303V252.316ZM749.987 264V256.698H748.526V264H749.987ZM749.257 255.967H741.954V257.428H749.257V255.967ZM741.224 256.698V260.349H742.685V256.698H741.224ZM741.954 259.619H738.303V261.079H741.954V259.619ZM739.033 260.349V253.047H737.573V260.349H739.033ZM738.303 253.777H749.257V252.316H738.303V253.777ZM749.987 253.047V245.744H748.526V253.047H749.987ZM749.257 245.014H738.303V246.474H749.257V245.014ZM739.033 245.744V242.093H737.573V245.744H739.033ZM738.303 242.823H752.908V241.363H738.303V242.823ZM752.178 242.093V264H753.638V242.093H752.178ZM752.908 263.27H749.257V264.73H752.908V263.27Z" fill="#252840" mask="url(#path-143-outside-2_97_15582)"/>
<rect x="824" width="13" height="513" fill="#B9A597"/>
<rect x="989" y="500" width="13" height="989" transform="rotate(90 989 500)" fill="#B9A597"/>
</g>
<defs>
<clipPath id="clip0_97_15582">
<rect width="837.154" height="513" fill="white"/>
</clipPath>
</defs>
</svg>
