<svg width="681" height="513" viewBox="0 0 681 513" fill="none" xmlns="http://www.w3.org/2000/svg">
<g clip-path="url(#clip0_97_14957)">
<rect width="680.154" height="513" fill="white"/>
<path d="M499.311 120.348V78.5454H506.202V71.6541H527.557V78.5454H534.524V99.7494H527.557V106.641H524.225V112.775H531.041V120.348H523.468V113.532H516.501V106.641H506.959V120.348H499.311ZM506.959 98.9921H526.8V79.3026H506.959V98.9921Z" fill="#252840"/>
<path d="M458.8 120.348V113.532H451.908V78.5454H458.8V71.6541H480.155V78.5454H487.122V86.1182H479.398V79.3026H459.557V92.2522H473.339V99.7494H459.557V112.775H479.398V105.883H487.122V113.532H480.155V120.348H458.8Z" fill="#252840"/>
<path d="M418.215 120.348V113.532H411.399V99.7494H404.508V71.6541H412.156V98.9921H418.972V112.775H425.182V98.9921H431.997V71.6541H439.722V99.7494H432.755V113.532H425.939V120.348H418.215Z" fill="#252840"/>
<path d="M363.997 120.348V113.532H357.105V78.5454H363.997V71.6541H385.352V78.5454H392.319V113.532H385.352V120.348H363.997ZM364.754 112.775H384.595V79.3026H364.754V112.775Z" fill="#252840"/>
<path d="M298.405 120.348V113.532H291.514V78.5454H298.405V71.6541H319.76V78.5454H326.727V86.1182H319.003V79.3026H299.162V92.2522H312.945V99.7494H299.162V112.775H319.003V105.883H326.727V113.532H319.76V120.348H298.405Z" fill="#252840"/>
<path d="M230.432 120.348V78.5454H237.323V71.6541H244.896V78.5454H251.863V92.2522H257.921V78.5454H264.888V71.6541H272.537V78.5454H279.352V120.348H271.779V79.3026H265.645V92.9338H258.678V113.532H251.106V92.9338H244.139V79.3026H238.08V120.348H230.432Z" fill="#252840"/>
<path d="M183.031 120.348V85.3609H189.923V78.5454H196.738V71.6541H204.462V78.5454H211.278V85.3609H218.245V120.348H210.521V106.641H190.68V120.348H183.031ZM190.68 98.9921H210.521V86.1182H203.705V79.3026H197.495V86.1182H190.68V98.9921Z" fill="#252840"/>
<path d="M142.52 120.348V113.532H135.629V78.5454H142.52V71.6541H163.876V78.5454H170.843V92.9338H163.118V79.3026H143.277V112.775H163.118V106.641H156.303V99.7494H149.336V92.2522H157.06V98.9921H170.843V113.532H163.876V120.348H142.52Z" fill="#252840"/>
<path fill-rule="evenodd" clip-rule="evenodd" d="M497.658 122V76.8914H504.55V70.0001H529.211V76.8914H536.178V101.402H529.211V108.293H525.879V111.121H532.695V122H521.816V115.185H514.849V108.293H508.613V122H497.658ZM506.96 106.64H516.502V113.531H523.469V120.347H531.042V112.774H524.226V106.64H527.558V99.7487H534.525V78.5447H527.558V71.6534H506.203V78.5447H499.311V120.347H506.96V106.64ZM506.96 98.9914H526.801V79.302H506.96V98.9914ZM508.613 80.9552V97.3382H525.148V80.9552H508.613Z" fill="#252840"/>
<path fill-rule="evenodd" clip-rule="evenodd" d="M457.147 122V115.185H450.256V76.8914H457.147V70.0001H481.809V76.8914H488.776V87.7708H477.745V80.9552H461.211V90.5983H474.994V101.402H461.211V111.121H477.745V104.229H488.776V115.185H481.809V122H457.147ZM480.156 113.531H487.123V105.883H479.399V112.774H459.558V99.7487H473.34V92.2516H459.558V79.302H479.399V86.1175H487.123V78.5447H480.156V71.6534H458.8V78.5447H451.909V113.531H458.8V120.347H480.156V113.531Z" fill="#252840"/>
<path fill-rule="evenodd" clip-rule="evenodd" d="M416.562 122V115.185H409.747V101.402H402.855V70.0001H413.811V97.3382H420.626V111.121H423.529V97.3382H430.345V70.0001H441.376V101.402H434.409V115.185H427.593V122H416.562ZM425.94 113.531H432.755V99.7487H439.723V71.6534H431.998V98.9914H425.183V112.774H418.973V98.9914H412.157V71.6534H404.509V99.7487H411.4V113.531H418.216V120.347H425.94V113.531Z" fill="#252840"/>
<path fill-rule="evenodd" clip-rule="evenodd" d="M362.344 122V115.185H355.453V76.8914H362.344V70.0001H387.006V76.8914H393.973V115.185H387.006V122H362.344ZM385.353 113.531H392.32V78.5447H385.353V71.6534H363.998V78.5447H357.106V113.531H363.998V120.347H385.353V113.531ZM384.596 112.774V79.302H364.755V112.774H384.596ZM382.943 111.121V80.9552H366.408V111.121H382.943Z" fill="#252840"/>
<path fill-rule="evenodd" clip-rule="evenodd" d="M296.753 122V115.185H289.861V76.8914H296.753V70.0001H321.415V76.8914H328.382V87.7708H317.351V80.9552H300.816V90.5983H314.599V101.402H300.816V111.121H317.351V104.229H328.382V115.185H321.415V122H296.753ZM319.761 113.531H326.728V105.883H319.004V112.774H299.163V99.7487H312.946V92.2516H299.163V79.302H319.004V86.1175H326.728V78.5447H319.761V71.6534H298.406V78.5447H291.515V113.531H298.406V120.347H319.761V113.531Z" fill="#252840"/>
<path fill-rule="evenodd" clip-rule="evenodd" d="M228.779 122V76.8914H235.671V70.0001H246.55V76.8914H253.517V90.5983H256.269V76.8914H263.236V70.0001H274.191V76.8914H281.006V122H270.127V80.9552H267.3V94.5864H260.333V115.185H249.453V94.5864H242.486V80.9552H239.734V122H228.779ZM238.081 79.302H244.139V92.9331H251.106V113.531H258.679V92.9331H265.646V79.302H271.78V120.347H279.353V78.5447H272.538V71.6534H264.889V78.5447H257.922V92.2516H251.864V78.5447H244.897V71.6534H237.324V78.5447H230.433V120.347H238.081V79.302Z" fill="#252840"/>
<path fill-rule="evenodd" clip-rule="evenodd" d="M181.379 122V83.707H188.27V76.8914H195.086V70.0001H206.117V76.8914H212.932V83.707H219.899V122H208.868V108.293H192.334V122H181.379ZM190.681 106.64H210.522V120.347H218.246V85.3602H211.279V78.5447H204.463V71.6534H196.739V78.5447H189.923V85.3602H183.032V120.347H190.681V106.64ZM190.681 98.9914H210.522V86.1175H203.706V79.302H197.496V86.1175H190.681V98.9914ZM192.334 87.7708V97.3382H208.868V87.7708H202.053V80.9552H199.15V87.7708H192.334Z" fill="#252840"/>
<path fill-rule="evenodd" clip-rule="evenodd" d="M140.868 122V115.184H133.977V76.8913H140.868V70H165.53V76.8913H172.497V94.5862H161.466V80.9551H144.932V111.121H161.466V108.293H154.65V101.402H147.683V90.5982H158.714V97.338H172.497V115.184H165.53V122H140.868ZM163.877 113.531H170.844V98.9913H157.061V92.2514H149.337V99.7486H156.304V106.64H163.119V112.774H143.278V79.3018H163.119V92.933H170.844V78.5445H163.877V71.6532H142.521V78.5445H135.63V113.531H142.521V120.347H163.877V113.531Z" fill="#252840"/>
<rect x="258.115" y="184.654" width="3.07694" height="3.07694" transform="rotate(90 258.115 184.654)" fill="#AE3B30"/>
<rect x="255.039" y="181.576" width="3.07694" height="3.07694" transform="rotate(90 255.039 181.576)" fill="#AE3B30"/>
<rect x="251.961" y="178.5" width="30.7694" height="6.15388" transform="rotate(90 251.961 178.5)" fill="#AE3B30"/>
<rect x="245.809" y="178.5" width="21.5386" height="6.15389" transform="rotate(90 245.809 178.5)" fill="#AE3B30"/>
<rect x="248.885" y="178.5" width="3.07694" height="3.07694" transform="rotate(90 248.885 178.5)" fill="#AE3B30"/>
<rect x="245.809" y="178.5" width="3.07694" height="3.07694" transform="rotate(90 245.809 178.5)" fill="#AE3B30"/>
<rect x="242.73" y="178.5" width="3.07694" height="3.07694" transform="rotate(90 242.73 178.5)" fill="#AE3B30"/>
<rect x="239.654" y="181.576" width="3.07694" height="3.07694" transform="rotate(90 239.654 181.576)" fill="#AE3B30"/>
<rect x="236.576" y="184.654" width="3.07694" height="3.07694" transform="rotate(90 236.576 184.654)" fill="#AE3B30"/>
<rect x="239.654" y="184.654" width="3.07694" height="3.07694" transform="rotate(90 239.654 184.654)" fill="#AE3B30"/>
<rect x="276.578" y="184.654" width="3.07694" height="3.07694" transform="rotate(90 276.578 184.654)" fill="#AE3B30"/>
<rect x="236.576" y="187.731" width="3.07694" height="3.07694" transform="rotate(90 236.576 187.731)" fill="#AE3B30"/>
<rect x="239.654" y="187.731" width="3.07694" height="3.07694" transform="rotate(90 239.654 187.731)" fill="#AE3B30"/>
<rect x="276.578" y="187.731" width="3.07694" height="3.07694" transform="rotate(90 276.578 187.731)" fill="#AE3B30"/>
<rect x="236.576" y="190.807" width="3.07694" height="3.07694" transform="rotate(90 236.576 190.807)" fill="#AE3B30"/>
<rect x="239.654" y="190.807" width="3.07694" height="3.07694" transform="rotate(90 239.654 190.807)" fill="#AE3B30"/>
<rect x="276.578" y="190.807" width="3.07694" height="3.07694" transform="rotate(90 276.578 190.807)" fill="#AE3B30"/>
<rect x="236.576" y="193.885" width="3.07694" height="3.07694" transform="rotate(90 236.576 193.885)" fill="#AE3B30"/>
<rect x="239.654" y="193.885" width="3.07694" height="3.07694" transform="rotate(90 239.654 193.885)" fill="#AE3B30"/>
<rect x="276.578" y="193.885" width="3.07694" height="3.07694" transform="rotate(90 276.578 193.885)" fill="#AE3B30"/>
<path fill-rule="evenodd" clip-rule="evenodd" d="M273.501 186.192V181.577H270.424V186.192V186.192V190.807H273.501V186.192L273.501 186.192ZM273.501 195.423L273.501 195.423V200.038H270.424V195.423V195.423V190.808H273.501V195.423Z" fill="#AE3B30"/>
<path fill-rule="evenodd" clip-rule="evenodd" d="M270.425 186.961L270.425 181.577H267.348V186.961H270.425ZM270.425 192.346L270.425 192.346V186.962H267.348V192.346V192.346V197.73H270.425V192.346ZM270.425 203.115L270.425 197.731H267.348V203.115H270.425Z" fill="#AE3B30"/>
<path fill-rule="evenodd" clip-rule="evenodd" d="M267.346 187.73L267.346 181.577H264.27V187.73H267.346ZM267.346 193.884L267.346 193.884V187.731L264.27 187.731V193.884V193.884V200.038H267.346V193.884ZM267.346 206.192L267.346 200.039H264.27V206.192L267.346 206.192Z" fill="#AE3B30"/>
<path fill-rule="evenodd" clip-rule="evenodd" d="M264.27 188.5V181.577H261.193V188.5V188.5V195.423V195.423V202.346V202.346V209.269H264.27V202.346L264.27 202.346L264.27 195.423L264.27 195.423L264.27 188.5L264.27 188.5Z" fill="#AE3B30"/>
<path fill-rule="evenodd" clip-rule="evenodd" d="M261.192 191.578V184.655H258.115V191.578V191.578V198.501V198.501V205.424V205.424V212.347H261.192V205.424L261.192 205.424L261.192 198.501L261.192 198.501L261.192 191.578L261.192 191.578Z" fill="#AE3B30"/>
<path fill-rule="evenodd" clip-rule="evenodd" d="M258.116 194.653V187.73H255.039V194.653V194.653V201.576V201.576V208.499V208.499V215.422H258.116V208.499L258.116 208.499L258.116 201.576L258.116 201.576L258.116 194.653L258.116 194.653Z" fill="#AE3B30"/>
<path fill-rule="evenodd" clip-rule="evenodd" d="M255.04 191.578L255.04 184.655H251.963V191.578H255.04ZM255.04 198.502L255.04 198.501V191.579L251.963 191.579V198.501V198.502V205.424V205.424V212.347H255.04V205.424L255.04 205.424L255.04 198.502Z" fill="#AE3B30"/>
<rect x="239.654" y="196.962" width="3.07694" height="3.07694" transform="rotate(90 239.654 196.962)" fill="#AE3B30"/>
<rect x="242.73" y="200.038" width="3.07694" height="3.07694" transform="rotate(90 242.73 200.038)" fill="#AE3B30"/>
<rect x="245.809" y="203.115" width="3.07694" height="3.07694" transform="rotate(90 245.809 203.115)" fill="#AE3B30"/>
<rect x="245.809" y="200.038" width="3.07694" height="3.07694" transform="rotate(90 245.809 200.038)" fill="#AE3B30"/>
<rect x="248.885" y="206.193" width="3.07694" height="3.07694" transform="rotate(90 248.885 206.193)" fill="#AE3B30"/>
<rect x="251.961" y="209.269" width="3.07694" height="3.07694" transform="rotate(90 251.961 209.269)" fill="#AE3B30"/>
<rect x="255.039" y="212.346" width="3.07694" height="3.07694" transform="rotate(90 255.039 212.346)" fill="#AE3B30"/>
<rect x="258.115" y="215.423" width="3.07694" height="3.07694" transform="rotate(90 258.115 215.423)" fill="#AE3B30"/>
<rect x="247.127" y="181.576" width="3.07694" height="3.07694" transform="rotate(90 247.127 181.576)" fill="#D5716E"/>
<rect x="244.049" y="184.654" width="3.07694" height="3.07694" transform="rotate(90 244.049 184.654)" fill="#D5716E"/>
<rect x="240.973" y="187.731" width="3.07694" height="3.07694" transform="rotate(90 240.973 187.731)" fill="#D5716E"/>
<rect x="240.973" y="190.807" width="3.07694" height="3.07694" transform="rotate(90 240.973 190.807)" fill="#D5716E"/>
<rect x="244.049" y="193.885" width="3.07694" height="3.07694" transform="rotate(90 244.049 193.885)" fill="#D5716E"/>
<rect width="3.07694" height="3.07694" transform="matrix(4.37114e-08 1 1 -4.37114e-08 255.039 184.654)" fill="#AE3B30"/>
<rect width="3.07694" height="3.07694" transform="matrix(4.37114e-08 1 1 -4.37114e-08 258.115 181.576)" fill="#AE3B30"/>
<rect width="3.07694" height="3.07694" transform="matrix(4.37114e-08 1 1 -4.37114e-08 261.193 178.5)" fill="#AE3B30"/>
<rect width="3.07694" height="3.07694" transform="matrix(4.37114e-08 1 1 -4.37114e-08 264.27 178.5)" fill="#AE3B30"/>
<rect width="3.07694" height="3.07694" transform="matrix(4.37114e-08 1 1 -4.37114e-08 267.346 178.5)" fill="#AE3B30"/>
<rect width="3.07694" height="3.07694" transform="matrix(4.37114e-08 1 1 -4.37114e-08 270.424 178.5)" fill="#AE3B30"/>
<rect width="3.07694" height="3.07694" transform="matrix(4.37114e-08 1 1 -4.37114e-08 273.5 181.576)" fill="#AE3B30"/>
<rect width="3.07694" height="3.07694" transform="matrix(4.37114e-08 1 1 -4.37114e-08 276.578 184.654)" fill="#AE3B30"/>
<rect width="3.07694" height="3.07694" transform="matrix(4.37114e-08 1 1 -4.37114e-08 276.578 187.731)" fill="#AE3B30"/>
<rect width="3.07694" height="3.07694" transform="matrix(4.37114e-08 1 1 -4.37114e-08 276.578 190.807)" fill="#AE3B30"/>
<rect width="3.07694" height="3.07694" transform="matrix(4.37114e-08 1 1 -4.37114e-08 276.578 193.885)" fill="#AE3B30"/>
<rect width="3.07694" height="3.07694" transform="matrix(4.37114e-08 1 1 -4.37114e-08 273.5 196.962)" fill="#AE3B30"/>
<rect width="3.07694" height="3.07694" transform="matrix(4.37114e-08 1 1 -4.37114e-08 270.424 200.038)" fill="#AE3B30"/>
<rect width="3.07694" height="3.07694" transform="matrix(4.37114e-08 1 1 -4.37114e-08 267.346 203.115)" fill="#AE3B30"/>
<rect width="3.07694" height="3.07694" transform="matrix(4.37114e-08 1 1 -4.37114e-08 264.27 206.193)" fill="#AE3B30"/>
<rect width="3.07694" height="3.07694" transform="matrix(4.37114e-08 1 1 -4.37114e-08 261.193 209.269)" fill="#AE3B30"/>
<rect width="3.07694" height="3.07694" transform="matrix(4.37114e-08 1 1 -4.37114e-08 258.115 212.346)" fill="#AE3B30"/>
<rect width="3.07694" height="3.07694" transform="matrix(4.37114e-08 1 1 -4.37114e-08 255.039 215.423)" fill="#AE3B30"/>
<mask id="path-75-outside-1_97_14957" maskUnits="userSpaceOnUse" x="301.654" y="175" width="204" height="35" fill="black">
<rect fill="white" x="301.654" y="175" width="204" height="35"/>
<path d="M317.91 194.395V190.744H321.561V194.395H317.91ZM303.305 209V187.093H306.957V190.744H310.608V194.395H306.957V209H303.305ZM310.608 190.744V187.093H317.91V190.744H310.608ZM333.099 209V205.349H344.052V209H333.099ZM344.052 205.349V201.698H347.704V205.349H344.052ZM329.448 205.349V190.744H333.099V194.395H344.052V190.744H347.704V198.047H333.099V205.349H329.448ZM333.099 190.744V187.093H344.052V190.744H333.099ZM359.241 209V205.349H370.195V209H359.241ZM370.195 205.349V201.698H373.846V205.349H370.195ZM355.59 205.349V190.744H359.241V205.349H355.59ZM370.195 194.395V190.744H373.846V194.395H370.195ZM359.241 190.744V187.093H370.195V190.744H359.241ZM385.384 209V205.349H396.337V209H385.384ZM396.337 205.349V201.698H399.988V205.349H396.337ZM381.732 205.349V190.744H385.384V194.395H396.337V190.744H399.988V198.047H385.384V205.349H381.732ZM385.384 190.744V187.093H396.337V190.744H385.384ZM415.177 209V190.744H411.526V187.093H418.828V209H415.177ZM415.177 179.791V176.14H418.828V179.791H415.177ZM441.319 209V201.698H444.971V209H441.319ZM437.668 201.698V194.395H441.319V201.698H437.668ZM444.971 201.698V194.395H448.622V201.698H444.971ZM434.017 194.395V187.093H437.668V194.395H434.017ZM448.622 194.395V187.093H452.273V194.395H448.622ZM463.811 209V205.349H474.764V209H463.811ZM474.764 205.349V201.698H478.415V205.349H474.764ZM460.159 205.349V190.744H463.811V194.395H474.764V190.744H478.415V198.047H463.811V205.349H460.159ZM463.811 190.744V187.093H474.764V190.744H463.811ZM486.302 205.349V190.744H489.953V205.349H486.302ZM489.953 209V205.349H500.906V190.744H489.953V187.093H500.906V176.14H504.558V209H489.953Z"/>
</mask>
<path d="M317.91 194.395V190.744H321.561V194.395H317.91ZM303.305 209V187.093H306.957V190.744H310.608V194.395H306.957V209H303.305ZM310.608 190.744V187.093H317.91V190.744H310.608ZM333.099 209V205.349H344.052V209H333.099ZM344.052 205.349V201.698H347.704V205.349H344.052ZM329.448 205.349V190.744H333.099V194.395H344.052V190.744H347.704V198.047H333.099V205.349H329.448ZM333.099 190.744V187.093H344.052V190.744H333.099ZM359.241 209V205.349H370.195V209H359.241ZM370.195 205.349V201.698H373.846V205.349H370.195ZM355.59 205.349V190.744H359.241V205.349H355.59ZM370.195 194.395V190.744H373.846V194.395H370.195ZM359.241 190.744V187.093H370.195V190.744H359.241ZM385.384 209V205.349H396.337V209H385.384ZM396.337 205.349V201.698H399.988V205.349H396.337ZM381.732 205.349V190.744H385.384V194.395H396.337V190.744H399.988V198.047H385.384V205.349H381.732ZM385.384 190.744V187.093H396.337V190.744H385.384ZM415.177 209V190.744H411.526V187.093H418.828V209H415.177ZM415.177 179.791V176.14H418.828V179.791H415.177ZM441.319 209V201.698H444.971V209H441.319ZM437.668 201.698V194.395H441.319V201.698H437.668ZM444.971 201.698V194.395H448.622V201.698H444.971ZM434.017 194.395V187.093H437.668V194.395H434.017ZM448.622 194.395V187.093H452.273V194.395H448.622ZM463.811 209V205.349H474.764V209H463.811ZM474.764 205.349V201.698H478.415V205.349H474.764ZM460.159 205.349V190.744H463.811V194.395H474.764V190.744H478.415V198.047H463.811V205.349H460.159ZM463.811 190.744V187.093H474.764V190.744H463.811ZM486.302 205.349V190.744H489.953V205.349H486.302ZM489.953 209V205.349H500.906V190.744H489.953V187.093H500.906V176.14H504.558V209H489.953Z" fill="#252840"/>
<path d="M317.91 194.395H317.18V195.126H317.91V194.395ZM317.91 190.744V190.014H317.18V190.744H317.91ZM321.561 190.744H322.292V190.014H321.561V190.744ZM321.561 194.395V195.126H322.292V194.395H321.561ZM303.305 209H302.575V209.73H303.305V209ZM303.305 187.093V186.363H302.575V187.093H303.305ZM306.957 187.093H307.687V186.363H306.957V187.093ZM306.957 190.744H306.226V191.474H306.957V190.744ZM310.608 190.744H311.338V190.014H310.608V190.744ZM310.608 194.395V195.126H311.338V194.395H310.608ZM306.957 194.395V193.665H306.226V194.395H306.957ZM306.957 209V209.73H307.687V209H306.957ZM310.608 190.744H309.878V191.474H310.608V190.744ZM310.608 187.093V186.363H309.878V187.093H310.608ZM317.91 187.093H318.64V186.363H317.91V187.093ZM317.91 190.744V191.474H318.64V190.744H317.91ZM318.64 194.395V190.744H317.18V194.395H318.64ZM317.91 191.474H321.561V190.014H317.91V191.474ZM320.831 190.744V194.395H322.292V190.744H320.831ZM321.561 193.665H317.91V195.126H321.561V193.665ZM304.036 209V187.093H302.575V209H304.036ZM303.305 187.823H306.957V186.363H303.305V187.823ZM306.226 187.093V190.744H307.687V187.093H306.226ZM306.957 191.474H310.608V190.014H306.957V191.474ZM309.878 190.744V194.395H311.338V190.744H309.878ZM310.608 193.665H306.957V195.126H310.608V193.665ZM306.226 194.395V209H307.687V194.395H306.226ZM306.957 208.27H303.305V209.73H306.957V208.27ZM311.338 190.744V187.093H309.878V190.744H311.338ZM310.608 187.823H317.91V186.363H310.608V187.823ZM317.18 187.093V190.744H318.64V187.093H317.18ZM317.91 190.014H310.608V191.474H317.91V190.014ZM333.099 209H332.369V209.73H333.099V209ZM333.099 205.349V204.619H332.369V205.349H333.099ZM344.052 205.349H344.783V204.619H344.052V205.349ZM344.052 209V209.73H344.783V209H344.052ZM344.052 205.349H343.322V206.079H344.052V205.349ZM344.052 201.698V200.967H343.322V201.698H344.052ZM347.704 201.698H348.434V200.967H347.704V201.698ZM347.704 205.349V206.079H348.434V205.349H347.704ZM329.448 205.349H328.718V206.079H329.448V205.349ZM329.448 190.744V190.014H328.718V190.744H329.448ZM333.099 190.744H333.829V190.014H333.099V190.744ZM333.099 194.395H332.369V195.126H333.099V194.395ZM344.052 194.395V195.126H344.783V194.395H344.052ZM344.052 190.744V190.014H343.322V190.744H344.052ZM347.704 190.744H348.434V190.014H347.704V190.744ZM347.704 198.047V198.777H348.434V198.047H347.704ZM333.099 198.047V197.316H332.369V198.047H333.099ZM333.099 205.349V206.079H333.829V205.349H333.099ZM333.099 190.744H332.369V191.474H333.099V190.744ZM333.099 187.093V186.363H332.369V187.093H333.099ZM344.052 187.093H344.783V186.363H344.052V187.093ZM344.052 190.744V191.474H344.783V190.744H344.052ZM333.829 209V205.349H332.369V209H333.829ZM333.099 206.079H344.052V204.619H333.099V206.079ZM343.322 205.349V209H344.783V205.349H343.322ZM344.052 208.27H333.099V209.73H344.052V208.27ZM344.783 205.349V201.698H343.322V205.349H344.783ZM344.052 202.428H347.704V200.967H344.052V202.428ZM346.973 201.698V205.349H348.434V201.698H346.973ZM347.704 204.619H344.052V206.079H347.704V204.619ZM330.178 205.349V190.744H328.718V205.349H330.178ZM329.448 191.474H333.099V190.014H329.448V191.474ZM332.369 190.744V194.395H333.829V190.744H332.369ZM333.099 195.126H344.052V193.665H333.099V195.126ZM344.783 194.395V190.744H343.322V194.395H344.783ZM344.052 191.474H347.704V190.014H344.052V191.474ZM346.973 190.744V198.047H348.434V190.744H346.973ZM347.704 197.316H333.099V198.777H347.704V197.316ZM332.369 198.047V205.349H333.829V198.047H332.369ZM333.099 204.619H329.448V206.079H333.099V204.619ZM333.829 190.744V187.093H332.369V190.744H333.829ZM333.099 187.823H344.052V186.363H333.099V187.823ZM343.322 187.093V190.744H344.783V187.093H343.322ZM344.052 190.014H333.099V191.474H344.052V190.014ZM359.241 209H358.511V209.73H359.241V209ZM359.241 205.349V204.619H358.511V205.349H359.241ZM370.195 205.349H370.925V204.619H370.195V205.349ZM370.195 209V209.73H370.925V209H370.195ZM370.195 205.349H369.465V206.079H370.195V205.349ZM370.195 201.698V200.967H369.465V201.698H370.195ZM373.846 201.698H374.576V200.967H373.846V201.698ZM373.846 205.349V206.079H374.576V205.349H373.846ZM355.59 205.349H354.86V206.079H355.59V205.349ZM355.59 190.744V190.014H354.86V190.744H355.59ZM359.241 190.744H359.972V190.014H359.241V190.744ZM359.241 205.349V206.079H359.972V205.349H359.241ZM370.195 194.395H369.465V195.126H370.195V194.395ZM370.195 190.744V190.014H369.465V190.744H370.195ZM373.846 190.744H374.576V190.014H373.846V190.744ZM373.846 194.395V195.126H374.576V194.395H373.846ZM359.241 190.744H358.511V191.474H359.241V190.744ZM359.241 187.093V186.363H358.511V187.093H359.241ZM370.195 187.093H370.925V186.363H370.195V187.093ZM370.195 190.744V191.474H370.925V190.744H370.195ZM359.972 209V205.349H358.511V209H359.972ZM359.241 206.079H370.195V204.619H359.241V206.079ZM369.465 205.349V209H370.925V205.349H369.465ZM370.195 208.27H359.241V209.73H370.195V208.27ZM370.925 205.349V201.698H369.465V205.349H370.925ZM370.195 202.428H373.846V200.967H370.195V202.428ZM373.116 201.698V205.349H374.576V201.698H373.116ZM373.846 204.619H370.195V206.079H373.846V204.619ZM356.32 205.349V190.744H354.86V205.349H356.32ZM355.59 191.474H359.241V190.014H355.59V191.474ZM358.511 190.744V205.349H359.972V190.744H358.511ZM359.241 204.619H355.59V206.079H359.241V204.619ZM370.925 194.395V190.744H369.465V194.395H370.925ZM370.195 191.474H373.846V190.014H370.195V191.474ZM373.116 190.744V194.395H374.576V190.744H373.116ZM373.846 193.665H370.195V195.126H373.846V193.665ZM359.972 190.744V187.093H358.511V190.744H359.972ZM359.241 187.823H370.195V186.363H359.241V187.823ZM369.465 187.093V190.744H370.925V187.093H369.465ZM370.195 190.014H359.241V191.474H370.195V190.014ZM385.384 209H384.653V209.73H385.384V209ZM385.384 205.349V204.619H384.653V205.349H385.384ZM396.337 205.349H397.067V204.619H396.337V205.349ZM396.337 209V209.73H397.067V209H396.337ZM396.337 205.349H395.607V206.079H396.337V205.349ZM396.337 201.698V200.967H395.607V201.698H396.337ZM399.988 201.698H400.718V200.967H399.988V201.698ZM399.988 205.349V206.079H400.718V205.349H399.988ZM381.732 205.349H381.002V206.079H381.732V205.349ZM381.732 190.744V190.014H381.002V190.744H381.732ZM385.384 190.744H386.114V190.014H385.384V190.744ZM385.384 194.395H384.653V195.126H385.384V194.395ZM396.337 194.395V195.126H397.067V194.395H396.337ZM396.337 190.744V190.014H395.607V190.744H396.337ZM399.988 190.744H400.718V190.014H399.988V190.744ZM399.988 198.047V198.777H400.718V198.047H399.988ZM385.384 198.047V197.316H384.653V198.047H385.384ZM385.384 205.349V206.079H386.114V205.349H385.384ZM385.384 190.744H384.653V191.474H385.384V190.744ZM385.384 187.093V186.363H384.653V187.093H385.384ZM396.337 187.093H397.067V186.363H396.337V187.093ZM396.337 190.744V191.474H397.067V190.744H396.337ZM386.114 209V205.349H384.653V209H386.114ZM385.384 206.079H396.337V204.619H385.384V206.079ZM395.607 205.349V209H397.067V205.349H395.607ZM396.337 208.27H385.384V209.73H396.337V208.27ZM397.067 205.349V201.698H395.607V205.349H397.067ZM396.337 202.428H399.988V200.967H396.337V202.428ZM399.258 201.698V205.349H400.718V201.698H399.258ZM399.988 204.619H396.337V206.079H399.988V204.619ZM382.463 205.349V190.744H381.002V205.349H382.463ZM381.732 191.474H385.384V190.014H381.732V191.474ZM384.653 190.744V194.395H386.114V190.744H384.653ZM385.384 195.126H396.337V193.665H385.384V195.126ZM397.067 194.395V190.744H395.607V194.395H397.067ZM396.337 191.474H399.988V190.014H396.337V191.474ZM399.258 190.744V198.047H400.718V190.744H399.258ZM399.988 197.316H385.384V198.777H399.988V197.316ZM384.653 198.047V205.349H386.114V198.047H384.653ZM385.384 204.619H381.732V206.079H385.384V204.619ZM386.114 190.744V187.093H384.653V190.744H386.114ZM385.384 187.823H396.337V186.363H385.384V187.823ZM395.607 187.093V190.744H397.067V187.093H395.607ZM396.337 190.014H385.384V191.474H396.337V190.014ZM415.177 209H414.447V209.73H415.177V209ZM415.177 190.744H415.907V190.014H415.177V190.744ZM411.526 190.744H410.796V191.474H411.526V190.744ZM411.526 187.093V186.363H410.796V187.093H411.526ZM418.828 187.093H419.558V186.363H418.828V187.093ZM418.828 209V209.73H419.558V209H418.828ZM415.177 179.791H414.447V180.521H415.177V179.791ZM415.177 176.14V175.409H414.447V176.14H415.177ZM418.828 176.14H419.558V175.409H418.828V176.14ZM418.828 179.791V180.521H419.558V179.791H418.828ZM415.907 209V190.744H414.447V209H415.907ZM415.177 190.014H411.526V191.474H415.177V190.014ZM412.256 190.744V187.093H410.796V190.744H412.256ZM411.526 187.823H418.828V186.363H411.526V187.823ZM418.098 187.093V209H419.558V187.093H418.098ZM418.828 208.27H415.177V209.73H418.828V208.27ZM415.907 179.791V176.14H414.447V179.791H415.907ZM415.177 176.87H418.828V175.409H415.177V176.87ZM418.098 176.14V179.791H419.558V176.14H418.098ZM418.828 179.06H415.177V180.521H418.828V179.06ZM441.319 209H440.589V209.73H441.319V209ZM441.319 201.698V200.967H440.589V201.698H441.319ZM444.971 201.698H445.701V200.967H444.971V201.698ZM444.971 209V209.73H445.701V209H444.971ZM437.668 201.698H436.938V202.428H437.668V201.698ZM437.668 194.395V193.665H436.938V194.395H437.668ZM441.319 194.395H442.05V193.665H441.319V194.395ZM441.319 201.698V202.428H442.05V201.698H441.319ZM444.971 201.698H444.24V202.428H444.971V201.698ZM444.971 194.395V193.665H444.24V194.395H444.971ZM448.622 194.395H449.352V193.665H448.622V194.395ZM448.622 201.698V202.428H449.352V201.698H448.622ZM434.017 194.395H433.287V195.126H434.017V194.395ZM434.017 187.093V186.363H433.287V187.093H434.017ZM437.668 187.093H438.398V186.363H437.668V187.093ZM437.668 194.395V195.126H438.398V194.395H437.668ZM448.622 194.395H447.892V195.126H448.622V194.395ZM448.622 187.093V186.363H447.892V187.093H448.622ZM452.273 187.093H453.003V186.363H452.273V187.093ZM452.273 194.395V195.126H453.003V194.395H452.273ZM442.05 209V201.698H440.589V209H442.05ZM441.319 202.428H444.971V200.967H441.319V202.428ZM444.24 201.698V209H445.701V201.698H444.24ZM444.971 208.27H441.319V209.73H444.971V208.27ZM438.398 201.698V194.395H436.938V201.698H438.398ZM437.668 195.126H441.319V193.665H437.668V195.126ZM440.589 194.395V201.698H442.05V194.395H440.589ZM441.319 200.967H437.668V202.428H441.319V200.967ZM445.701 201.698V194.395H444.24V201.698H445.701ZM444.971 195.126H448.622V193.665H444.971V195.126ZM447.892 194.395V201.698H449.352V194.395H447.892ZM448.622 200.967H444.971V202.428H448.622V200.967ZM434.747 194.395V187.093H433.287V194.395H434.747ZM434.017 187.823H437.668V186.363H434.017V187.823ZM436.938 187.093V194.395H438.398V187.093H436.938ZM437.668 193.665H434.017V195.126H437.668V193.665ZM449.352 194.395V187.093H447.892V194.395H449.352ZM448.622 187.823H452.273V186.363H448.622V187.823ZM451.543 187.093V194.395H453.003V187.093H451.543ZM452.273 193.665H448.622V195.126H452.273V193.665ZM463.811 209H463.08V209.73H463.811V209ZM463.811 205.349V204.619H463.08V205.349H463.811ZM474.764 205.349H475.494V204.619H474.764V205.349ZM474.764 209V209.73H475.494V209H474.764ZM474.764 205.349H474.034V206.079H474.764V205.349ZM474.764 201.698V200.967H474.034V201.698H474.764ZM478.415 201.698H479.145V200.967H478.415V201.698ZM478.415 205.349V206.079H479.145V205.349H478.415ZM460.159 205.349H459.429V206.079H460.159V205.349ZM460.159 190.744V190.014H459.429V190.744H460.159ZM463.811 190.744H464.541V190.014H463.811V190.744ZM463.811 194.395H463.08V195.126H463.811V194.395ZM474.764 194.395V195.126H475.494V194.395H474.764ZM474.764 190.744V190.014H474.034V190.744H474.764ZM478.415 190.744H479.145V190.014H478.415V190.744ZM478.415 198.047V198.777H479.145V198.047H478.415ZM463.811 198.047V197.316H463.08V198.047H463.811ZM463.811 205.349V206.079H464.541V205.349H463.811ZM463.811 190.744H463.08V191.474H463.811V190.744ZM463.811 187.093V186.363H463.08V187.093H463.811ZM474.764 187.093H475.494V186.363H474.764V187.093ZM474.764 190.744V191.474H475.494V190.744H474.764ZM464.541 209V205.349H463.08V209H464.541ZM463.811 206.079H474.764V204.619H463.811V206.079ZM474.034 205.349V209H475.494V205.349H474.034ZM474.764 208.27H463.811V209.73H474.764V208.27ZM475.494 205.349V201.698H474.034V205.349H475.494ZM474.764 202.428H478.415V200.967H474.764V202.428ZM477.685 201.698V205.349H479.145V201.698H477.685ZM478.415 204.619H474.764V206.079H478.415V204.619ZM460.89 205.349V190.744H459.429V205.349H460.89ZM460.159 191.474H463.811V190.014H460.159V191.474ZM463.08 190.744V194.395H464.541V190.744H463.08ZM463.811 195.126H474.764V193.665H463.811V195.126ZM475.494 194.395V190.744H474.034V194.395H475.494ZM474.764 191.474H478.415V190.014H474.764V191.474ZM477.685 190.744V198.047H479.145V190.744H477.685ZM478.415 197.316H463.811V198.777H478.415V197.316ZM463.08 198.047V205.349H464.541V198.047H463.08ZM463.811 204.619H460.159V206.079H463.811V204.619ZM464.541 190.744V187.093H463.08V190.744H464.541ZM463.811 187.823H474.764V186.363H463.811V187.823ZM474.034 187.093V190.744H475.494V187.093H474.034ZM474.764 190.014H463.811V191.474H474.764V190.014ZM486.302 205.349H485.572V206.079H486.302V205.349ZM486.302 190.744V190.014H485.572V190.744H486.302ZM489.953 190.744H490.683V190.014H489.953V190.744ZM489.953 205.349V206.079H490.683V205.349H489.953ZM489.953 209H489.223V209.73H489.953V209ZM489.953 205.349V204.619H489.223V205.349H489.953ZM500.906 205.349V206.079H501.637V205.349H500.906ZM500.906 190.744H501.637V190.014H500.906V190.744ZM489.953 190.744H489.223V191.474H489.953V190.744ZM489.953 187.093V186.363H489.223V187.093H489.953ZM500.906 187.093V187.823H501.637V187.093H500.906ZM500.906 176.14V175.409H500.176V176.14H500.906ZM504.558 176.14H505.288V175.409H504.558V176.14ZM504.558 209V209.73H505.288V209H504.558ZM487.032 205.349V190.744H485.572V205.349H487.032ZM486.302 191.474H489.953V190.014H486.302V191.474ZM489.223 190.744V205.349H490.683V190.744H489.223ZM489.953 204.619H486.302V206.079H489.953V204.619ZM490.683 209V205.349H489.223V209H490.683ZM489.953 206.079H500.906V204.619H489.953V206.079ZM501.637 205.349V190.744H500.176V205.349H501.637ZM500.906 190.014H489.953V191.474H500.906V190.014ZM490.683 190.744V187.093H489.223V190.744H490.683ZM489.953 187.823H500.906V186.363H489.953V187.823ZM501.637 187.093V176.14H500.176V187.093H501.637ZM500.906 176.87H504.558V175.409H500.906V176.87ZM503.827 176.14V209H505.288V176.14H503.827ZM504.558 208.27H489.953V209.73H504.558V208.27Z" fill="#252840" mask="url(#path-75-outside-1_97_14957)"/>
<rect x="140.615" y="239.654" width="3.07694" height="3.07694" transform="rotate(90 140.615 239.654)" fill="#AE3B30"/>
<rect x="137.539" y="236.576" width="3.07694" height="3.07694" transform="rotate(90 137.539 236.576)" fill="#AE3B30"/>
<rect x="134.461" y="233.5" width="30.7694" height="6.15388" transform="rotate(90 134.461 233.5)" fill="#AE3B30"/>
<rect x="128.309" y="233.5" width="21.5386" height="6.15389" transform="rotate(90 128.309 233.5)" fill="#AE3B30"/>
<rect x="131.385" y="233.5" width="3.07694" height="3.07694" transform="rotate(90 131.385 233.5)" fill="#AE3B30"/>
<rect x="128.309" y="233.5" width="3.07694" height="3.07694" transform="rotate(90 128.309 233.5)" fill="#AE3B30"/>
<rect x="125.23" y="233.5" width="3.07694" height="3.07694" transform="rotate(90 125.23 233.5)" fill="#AE3B30"/>
<rect x="122.154" y="236.576" width="3.07694" height="3.07694" transform="rotate(90 122.154 236.576)" fill="#AE3B30"/>
<rect x="119.076" y="239.654" width="3.07694" height="3.07694" transform="rotate(90 119.076 239.654)" fill="#AE3B30"/>
<rect x="122.154" y="239.654" width="3.07694" height="3.07694" transform="rotate(90 122.154 239.654)" fill="#AE3B30"/>
<rect x="159.078" y="239.654" width="3.07694" height="3.07694" transform="rotate(90 159.078 239.654)" fill="#AE3B30"/>
<rect x="119.076" y="242.731" width="3.07694" height="3.07694" transform="rotate(90 119.076 242.731)" fill="#AE3B30"/>
<rect x="122.154" y="242.731" width="3.07694" height="3.07694" transform="rotate(90 122.154 242.731)" fill="#AE3B30"/>
<rect x="159.078" y="242.731" width="3.07694" height="3.07694" transform="rotate(90 159.078 242.731)" fill="#AE3B30"/>
<rect x="119.076" y="245.807" width="3.07694" height="3.07694" transform="rotate(90 119.076 245.807)" fill="#AE3B30"/>
<rect x="122.154" y="245.807" width="3.07694" height="3.07694" transform="rotate(90 122.154 245.807)" fill="#AE3B30"/>
<rect x="159.078" y="245.807" width="3.07694" height="3.07694" transform="rotate(90 159.078 245.807)" fill="#AE3B30"/>
<rect x="119.076" y="248.885" width="3.07694" height="3.07694" transform="rotate(90 119.076 248.885)" fill="#AE3B30"/>
<rect x="122.154" y="248.885" width="3.07694" height="3.07694" transform="rotate(90 122.154 248.885)" fill="#AE3B30"/>
<rect x="159.078" y="248.885" width="3.07694" height="3.07694" transform="rotate(90 159.078 248.885)" fill="#AE3B30"/>
<path fill-rule="evenodd" clip-rule="evenodd" d="M156.001 241.192V236.577H152.924V241.192V241.192V245.807H156.001V241.192L156.001 241.192ZM156.001 250.423L156.001 250.423V255.038H152.924V250.423V250.423V245.808H156.001V250.423Z" fill="#AE3B30"/>
<path fill-rule="evenodd" clip-rule="evenodd" d="M152.925 241.961L152.925 236.577H149.848V241.961H152.925ZM152.925 247.346L152.925 247.346V241.962H149.848V247.346V247.346V252.73H152.925V247.346ZM152.925 258.115L152.925 252.731H149.848V258.115H152.925Z" fill="#AE3B30"/>
<path fill-rule="evenodd" clip-rule="evenodd" d="M149.846 242.73L149.846 236.577H146.77V242.73H149.846ZM149.846 248.884L149.846 248.884V242.731L146.77 242.731V248.884V248.884V255.038H149.846V248.884ZM149.846 261.192L149.846 255.039H146.77V261.192L149.846 261.192Z" fill="#AE3B30"/>
<path fill-rule="evenodd" clip-rule="evenodd" d="M146.77 243.5V236.577H143.693V243.5V243.5V250.423V250.423V257.346V257.346V264.269H146.77V257.346L146.77 257.346L146.77 250.423L146.77 250.423L146.77 243.5L146.77 243.5Z" fill="#AE3B30"/>
<path fill-rule="evenodd" clip-rule="evenodd" d="M143.692 246.578V239.655H140.615V246.578V246.578V253.501V253.501V260.424V260.424V267.347H143.692V260.424L143.692 260.424L143.692 253.501L143.692 253.501L143.692 246.578L143.692 246.578Z" fill="#AE3B30"/>
<path fill-rule="evenodd" clip-rule="evenodd" d="M140.616 249.653V242.73H137.539V249.653V249.653V256.576V256.576V263.499V263.499V270.422H140.616V263.499L140.616 263.499L140.616 256.576L140.616 256.576L140.616 249.653L140.616 249.653Z" fill="#AE3B30"/>
<path fill-rule="evenodd" clip-rule="evenodd" d="M137.54 246.578L137.54 239.655H134.463V246.578H137.54ZM137.54 253.502L137.54 253.501V246.579L134.463 246.579V253.501V253.502V260.424V260.424V267.347H137.54V260.424L137.54 260.424L137.54 253.502Z" fill="#AE3B30"/>
<rect x="122.154" y="251.962" width="3.07694" height="3.07694" transform="rotate(90 122.154 251.962)" fill="#AE3B30"/>
<rect x="125.23" y="255.038" width="3.07694" height="3.07694" transform="rotate(90 125.23 255.038)" fill="#AE3B30"/>
<rect x="128.309" y="258.115" width="3.07694" height="3.07694" transform="rotate(90 128.309 258.115)" fill="#AE3B30"/>
<rect x="128.309" y="255.038" width="3.07694" height="3.07694" transform="rotate(90 128.309 255.038)" fill="#AE3B30"/>
<rect x="131.385" y="261.193" width="3.07694" height="3.07694" transform="rotate(90 131.385 261.193)" fill="#AE3B30"/>
<rect x="134.461" y="264.269" width="3.07694" height="3.07694" transform="rotate(90 134.461 264.269)" fill="#AE3B30"/>
<rect x="137.539" y="267.346" width="3.07694" height="3.07694" transform="rotate(90 137.539 267.346)" fill="#AE3B30"/>
<rect x="140.615" y="270.423" width="3.07694" height="3.07694" transform="rotate(90 140.615 270.423)" fill="#AE3B30"/>
<rect x="129.627" y="236.576" width="3.07694" height="3.07694" transform="rotate(90 129.627 236.576)" fill="#D5716E"/>
<rect x="126.549" y="239.654" width="3.07694" height="3.07694" transform="rotate(90 126.549 239.654)" fill="#D5716E"/>
<rect x="123.473" y="242.731" width="3.07694" height="3.07694" transform="rotate(90 123.473 242.731)" fill="#D5716E"/>
<rect x="123.473" y="245.807" width="3.07694" height="3.07694" transform="rotate(90 123.473 245.807)" fill="#D5716E"/>
<rect x="126.549" y="248.885" width="3.07694" height="3.07694" transform="rotate(90 126.549 248.885)" fill="#D5716E"/>
<rect width="3.07694" height="3.07694" transform="matrix(4.37114e-08 1 1 -4.37114e-08 137.539 239.654)" fill="#AE3B30"/>
<rect width="3.07694" height="3.07694" transform="matrix(4.37114e-08 1 1 -4.37114e-08 140.615 236.576)" fill="#AE3B30"/>
<rect width="3.07694" height="3.07694" transform="matrix(4.37114e-08 1 1 -4.37114e-08 143.693 233.5)" fill="#AE3B30"/>
<rect width="3.07694" height="3.07694" transform="matrix(4.37114e-08 1 1 -4.37114e-08 146.77 233.5)" fill="#AE3B30"/>
<rect width="3.07694" height="3.07694" transform="matrix(4.37114e-08 1 1 -4.37114e-08 149.846 233.5)" fill="#AE3B30"/>
<rect width="3.07694" height="3.07694" transform="matrix(4.37114e-08 1 1 -4.37114e-08 152.924 233.5)" fill="#AE3B30"/>
<rect width="3.07694" height="3.07694" transform="matrix(4.37114e-08 1 1 -4.37114e-08 156 236.576)" fill="#AE3B30"/>
<rect width="3.07694" height="3.07694" transform="matrix(4.37114e-08 1 1 -4.37114e-08 159.078 239.654)" fill="#AE3B30"/>
<rect width="3.07694" height="3.07694" transform="matrix(4.37114e-08 1 1 -4.37114e-08 159.078 242.731)" fill="#AE3B30"/>
<rect width="3.07694" height="3.07694" transform="matrix(4.37114e-08 1 1 -4.37114e-08 159.078 245.807)" fill="#AE3B30"/>
<rect width="3.07694" height="3.07694" transform="matrix(4.37114e-08 1 1 -4.37114e-08 159.078 248.885)" fill="#AE3B30"/>
<rect width="3.07694" height="3.07694" transform="matrix(4.37114e-08 1 1 -4.37114e-08 156 251.962)" fill="#AE3B30"/>
<rect width="3.07694" height="3.07694" transform="matrix(4.37114e-08 1 1 -4.37114e-08 152.924 255.038)" fill="#AE3B30"/>
<rect width="3.07694" height="3.07694" transform="matrix(4.37114e-08 1 1 -4.37114e-08 149.846 258.115)" fill="#AE3B30"/>
<rect width="3.07694" height="3.07694" transform="matrix(4.37114e-08 1 1 -4.37114e-08 146.77 261.193)" fill="#AE3B30"/>
<rect width="3.07694" height="3.07694" transform="matrix(4.37114e-08 1 1 -4.37114e-08 143.693 264.269)" fill="#AE3B30"/>
<rect width="3.07694" height="3.07694" transform="matrix(4.37114e-08 1 1 -4.37114e-08 140.615 267.346)" fill="#AE3B30"/>
<rect width="3.07694" height="3.07694" transform="matrix(4.37114e-08 1 1 -4.37114e-08 137.539 270.423)" fill="#AE3B30"/>
<mask id="path-135-outside-2_97_14957" maskUnits="userSpaceOnUse" x="184.154" y="230" width="413" height="35" fill="black">
<rect fill="white" x="184.154" y="230" width="413" height="35"/>
<path d="M200.41 264V245.744H204.061V264H200.41ZM185.805 264V242.093H200.41V245.744H189.457V264H185.805ZM215.599 264V260.349H226.552V264H215.599ZM226.552 260.349V256.698H230.204V260.349H226.552ZM211.948 260.349V245.744H215.599V249.395H226.552V245.744H230.204V253.047H215.599V260.349H211.948ZM215.599 245.744V242.093H226.552V245.744H215.599ZM241.741 264V260.349H252.695V264H241.741ZM252.695 260.349V256.698H256.346V260.349H252.695ZM238.09 260.349V245.744H241.741V249.395H252.695V245.744H256.346V253.047H241.741V260.349H238.09ZM241.741 245.744V242.093H252.695V245.744H241.741ZM264.232 260.349V245.744H267.884V260.349H264.232ZM267.884 264V260.349H278.837V245.744H267.884V242.093H278.837V231.14H282.488V264H267.884ZM294.026 264V260.349H304.979V264H294.026ZM304.979 260.349V256.698H308.631V260.349H304.979ZM290.375 260.349V245.744H294.026V249.395H304.979V245.744H308.631V253.047H294.026V260.349H290.375ZM294.026 245.744V242.093H304.979V245.744H294.026ZM316.517 260.349V245.744H320.168V260.349H316.517ZM320.168 264V260.349H331.122V245.744H320.168V242.093H331.122V231.14H334.773V264H320.168ZM376.104 264V260.349H387.058V264H376.104ZM372.453 260.349V234.791H376.104V242.093H387.058V245.744H376.104V260.349H372.453ZM398.595 264V260.349H409.549V264H398.595ZM394.944 260.349V245.744H398.595V260.349H394.944ZM409.549 260.349V245.744H413.2V260.349H409.549ZM398.595 245.744V242.093H409.549V245.744H398.595ZM461.833 249.395V245.744H465.485V249.395H461.833ZM447.229 264V242.093H450.88V245.744H454.531V249.395H450.88V264H447.229ZM454.531 245.744V242.093H461.833V245.744H454.531ZM477.022 264V260.349H487.976V264H477.022ZM487.976 260.349V256.698H491.627V260.349H487.976ZM473.371 260.349V245.744H477.022V249.395H487.976V245.744H491.627V253.047H477.022V260.349H473.371ZM477.022 245.744V242.093H487.976V245.744H477.022ZM506.816 264V256.698H510.467V264H506.816ZM503.165 256.698V249.395H506.816V256.698H503.165ZM510.467 256.698V249.395H514.118V256.698H510.467ZM499.513 249.395V242.093H503.165V249.395H499.513ZM514.118 249.395V242.093H517.769V249.395H514.118ZM532.958 264V245.744H529.307V242.093H536.609V264H532.958ZM532.958 234.791V231.14H536.609V234.791H532.958ZM559.1 264V256.698H562.752V264H559.1ZM555.449 256.698V249.395H559.1V256.698H555.449ZM562.752 256.698V249.395H566.403V256.698H562.752ZM551.798 249.395V242.093H555.449V249.395H551.798ZM566.403 249.395V242.093H570.054V249.395H566.403ZM581.592 264V260.349H592.545V264H581.592ZM592.545 260.349V256.698H596.196V260.349H592.545ZM577.94 260.349V245.744H581.592V249.395H592.545V245.744H596.196V253.047H581.592V260.349H577.94ZM581.592 245.744V242.093H592.545V245.744H581.592Z"/>
</mask>
<path d="M200.41 264V245.744H204.061V264H200.41ZM185.805 264V242.093H200.41V245.744H189.457V264H185.805ZM215.599 264V260.349H226.552V264H215.599ZM226.552 260.349V256.698H230.204V260.349H226.552ZM211.948 260.349V245.744H215.599V249.395H226.552V245.744H230.204V253.047H215.599V260.349H211.948ZM215.599 245.744V242.093H226.552V245.744H215.599ZM241.741 264V260.349H252.695V264H241.741ZM252.695 260.349V256.698H256.346V260.349H252.695ZM238.09 260.349V245.744H241.741V249.395H252.695V245.744H256.346V253.047H241.741V260.349H238.09ZM241.741 245.744V242.093H252.695V245.744H241.741ZM264.232 260.349V245.744H267.884V260.349H264.232ZM267.884 264V260.349H278.837V245.744H267.884V242.093H278.837V231.14H282.488V264H267.884ZM294.026 264V260.349H304.979V264H294.026ZM304.979 260.349V256.698H308.631V260.349H304.979ZM290.375 260.349V245.744H294.026V249.395H304.979V245.744H308.631V253.047H294.026V260.349H290.375ZM294.026 245.744V242.093H304.979V245.744H294.026ZM316.517 260.349V245.744H320.168V260.349H316.517ZM320.168 264V260.349H331.122V245.744H320.168V242.093H331.122V231.14H334.773V264H320.168ZM376.104 264V260.349H387.058V264H376.104ZM372.453 260.349V234.791H376.104V242.093H387.058V245.744H376.104V260.349H372.453ZM398.595 264V260.349H409.549V264H398.595ZM394.944 260.349V245.744H398.595V260.349H394.944ZM409.549 260.349V245.744H413.2V260.349H409.549ZM398.595 245.744V242.093H409.549V245.744H398.595ZM461.833 249.395V245.744H465.485V249.395H461.833ZM447.229 264V242.093H450.88V245.744H454.531V249.395H450.88V264H447.229ZM454.531 245.744V242.093H461.833V245.744H454.531ZM477.022 264V260.349H487.976V264H477.022ZM487.976 260.349V256.698H491.627V260.349H487.976ZM473.371 260.349V245.744H477.022V249.395H487.976V245.744H491.627V253.047H477.022V260.349H473.371ZM477.022 245.744V242.093H487.976V245.744H477.022ZM506.816 264V256.698H510.467V264H506.816ZM503.165 256.698V249.395H506.816V256.698H503.165ZM510.467 256.698V249.395H514.118V256.698H510.467ZM499.513 249.395V242.093H503.165V249.395H499.513ZM514.118 249.395V242.093H517.769V249.395H514.118ZM532.958 264V245.744H529.307V242.093H536.609V264H532.958ZM532.958 234.791V231.14H536.609V234.791H532.958ZM559.1 264V256.698H562.752V264H559.1ZM555.449 256.698V249.395H559.1V256.698H555.449ZM562.752 256.698V249.395H566.403V256.698H562.752ZM551.798 249.395V242.093H555.449V249.395H551.798ZM566.403 249.395V242.093H570.054V249.395H566.403ZM581.592 264V260.349H592.545V264H581.592ZM592.545 260.349V256.698H596.196V260.349H592.545ZM577.94 260.349V245.744H581.592V249.395H592.545V245.744H596.196V253.047H581.592V260.349H577.94ZM581.592 245.744V242.093H592.545V245.744H581.592Z" fill="#252840"/>
<path d="M200.41 264H199.68V264.73H200.41V264ZM200.41 245.744V245.014H199.68V245.744H200.41ZM204.061 245.744H204.792V245.014H204.061V245.744ZM204.061 264V264.73H204.792V264H204.061ZM185.805 264H185.075V264.73H185.805V264ZM185.805 242.093V241.363H185.075V242.093H185.805ZM200.41 242.093H201.14V241.363H200.41V242.093ZM200.41 245.744V246.474H201.14V245.744H200.41ZM189.457 245.744V245.014H188.726V245.744H189.457ZM189.457 264V264.73H190.187V264H189.457ZM201.14 264V245.744H199.68V264H201.14ZM200.41 246.474H204.061V245.014H200.41V246.474ZM203.331 245.744V264H204.792V245.744H203.331ZM204.061 263.27H200.41V264.73H204.061V263.27ZM186.536 264V242.093H185.075V264H186.536ZM185.805 242.823H200.41V241.363H185.805V242.823ZM199.68 242.093V245.744H201.14V242.093H199.68ZM200.41 245.014H189.457V246.474H200.41V245.014ZM188.726 245.744V264H190.187V245.744H188.726ZM189.457 263.27H185.805V264.73H189.457V263.27ZM215.599 264H214.869V264.73H215.599V264ZM215.599 260.349V259.619H214.869V260.349H215.599ZM226.552 260.349H227.283V259.619H226.552V260.349ZM226.552 264V264.73H227.283V264H226.552ZM226.552 260.349H225.822V261.079H226.552V260.349ZM226.552 256.698V255.967H225.822V256.698H226.552ZM230.204 256.698H230.934V255.967H230.204V256.698ZM230.204 260.349V261.079H230.934V260.349H230.204ZM211.948 260.349H211.218V261.079H211.948V260.349ZM211.948 245.744V245.014H211.218V245.744H211.948ZM215.599 245.744H216.329V245.014H215.599V245.744ZM215.599 249.395H214.869V250.126H215.599V249.395ZM226.552 249.395V250.126H227.283V249.395H226.552ZM226.552 245.744V245.014H225.822V245.744H226.552ZM230.204 245.744H230.934V245.014H230.204V245.744ZM230.204 253.047V253.777H230.934V253.047H230.204ZM215.599 253.047V252.316H214.869V253.047H215.599ZM215.599 260.349V261.079H216.329V260.349H215.599ZM215.599 245.744H214.869V246.474H215.599V245.744ZM215.599 242.093V241.363H214.869V242.093H215.599ZM226.552 242.093H227.283V241.363H226.552V242.093ZM226.552 245.744V246.474H227.283V245.744H226.552ZM216.329 264V260.349H214.869V264H216.329ZM215.599 261.079H226.552V259.619H215.599V261.079ZM225.822 260.349V264H227.283V260.349H225.822ZM226.552 263.27H215.599V264.73H226.552V263.27ZM227.283 260.349V256.698H225.822V260.349H227.283ZM226.552 257.428H230.204V255.967H226.552V257.428ZM229.473 256.698V260.349H230.934V256.698H229.473ZM230.204 259.619H226.552V261.079H230.204V259.619ZM212.678 260.349V245.744H211.218V260.349H212.678ZM211.948 246.474H215.599V245.014H211.948V246.474ZM214.869 245.744V249.395H216.329V245.744H214.869ZM215.599 250.126H226.552V248.665H215.599V250.126ZM227.283 249.395V245.744H225.822V249.395H227.283ZM226.552 246.474H230.204V245.014H226.552V246.474ZM229.473 245.744V253.047H230.934V245.744H229.473ZM230.204 252.316H215.599V253.777H230.204V252.316ZM214.869 253.047V260.349H216.329V253.047H214.869ZM215.599 259.619H211.948V261.079H215.599V259.619ZM216.329 245.744V242.093H214.869V245.744H216.329ZM215.599 242.823H226.552V241.363H215.599V242.823ZM225.822 242.093V245.744H227.283V242.093H225.822ZM226.552 245.014H215.599V246.474H226.552V245.014ZM241.741 264H241.011V264.73H241.741V264ZM241.741 260.349V259.619H241.011V260.349H241.741ZM252.695 260.349H253.425V259.619H252.695V260.349ZM252.695 264V264.73H253.425V264H252.695ZM252.695 260.349H251.965V261.079H252.695V260.349ZM252.695 256.698V255.967H251.965V256.698H252.695ZM256.346 256.698H257.076V255.967H256.346V256.698ZM256.346 260.349V261.079H257.076V260.349H256.346ZM238.09 260.349H237.36V261.079H238.09V260.349ZM238.09 245.744V245.014H237.36V245.744H238.09ZM241.741 245.744H242.472V245.014H241.741V245.744ZM241.741 249.395H241.011V250.126H241.741V249.395ZM252.695 249.395V250.126H253.425V249.395H252.695ZM252.695 245.744V245.014H251.965V245.744H252.695ZM256.346 245.744H257.076V245.014H256.346V245.744ZM256.346 253.047V253.777H257.076V253.047H256.346ZM241.741 253.047V252.316H241.011V253.047H241.741ZM241.741 260.349V261.079H242.472V260.349H241.741ZM241.741 245.744H241.011V246.474H241.741V245.744ZM241.741 242.093V241.363H241.011V242.093H241.741ZM252.695 242.093H253.425V241.363H252.695V242.093ZM252.695 245.744V246.474H253.425V245.744H252.695ZM242.472 264V260.349H241.011V264H242.472ZM241.741 261.079H252.695V259.619H241.741V261.079ZM251.965 260.349V264H253.425V260.349H251.965ZM252.695 263.27H241.741V264.73H252.695V263.27ZM253.425 260.349V256.698H251.965V260.349H253.425ZM252.695 257.428H256.346V255.967H252.695V257.428ZM255.616 256.698V260.349H257.076V256.698H255.616ZM256.346 259.619H252.695V261.079H256.346V259.619ZM238.82 260.349V245.744H237.36V260.349H238.82ZM238.09 246.474H241.741V245.014H238.09V246.474ZM241.011 245.744V249.395H242.472V245.744H241.011ZM241.741 250.126H252.695V248.665H241.741V250.126ZM253.425 249.395V245.744H251.965V249.395H253.425ZM252.695 246.474H256.346V245.014H252.695V246.474ZM255.616 245.744V253.047H257.076V245.744H255.616ZM256.346 252.316H241.741V253.777H256.346V252.316ZM241.011 253.047V260.349H242.472V253.047H241.011ZM241.741 259.619H238.09V261.079H241.741V259.619ZM242.472 245.744V242.093H241.011V245.744H242.472ZM241.741 242.823H252.695V241.363H241.741V242.823ZM251.965 242.093V245.744H253.425V242.093H251.965ZM252.695 245.014H241.741V246.474H252.695V245.014ZM264.232 260.349H263.502V261.079H264.232V260.349ZM264.232 245.744V245.014H263.502V245.744H264.232ZM267.884 245.744H268.614V245.014H267.884V245.744ZM267.884 260.349V261.079H268.614V260.349H267.884ZM267.884 264H267.153V264.73H267.884V264ZM267.884 260.349V259.619H267.153V260.349H267.884ZM278.837 260.349V261.079H279.567V260.349H278.837ZM278.837 245.744H279.567V245.014H278.837V245.744ZM267.884 245.744H267.153V246.474H267.884V245.744ZM267.884 242.093V241.363H267.153V242.093H267.884ZM278.837 242.093V242.823H279.567V242.093H278.837ZM278.837 231.14V230.409H278.107V231.14H278.837ZM282.488 231.14H283.218V230.409H282.488V231.14ZM282.488 264V264.73H283.218V264H282.488ZM264.963 260.349V245.744H263.502V260.349H264.963ZM264.232 246.474H267.884V245.014H264.232V246.474ZM267.153 245.744V260.349H268.614V245.744H267.153ZM267.884 259.619H264.232V261.079H267.884V259.619ZM268.614 264V260.349H267.153V264H268.614ZM267.884 261.079H278.837V259.619H267.884V261.079ZM279.567 260.349V245.744H278.107V260.349H279.567ZM278.837 245.014H267.884V246.474H278.837V245.014ZM268.614 245.744V242.093H267.153V245.744H268.614ZM267.884 242.823H278.837V241.363H267.884V242.823ZM279.567 242.093V231.14H278.107V242.093H279.567ZM278.837 231.87H282.488V230.409H278.837V231.87ZM281.758 231.14V264H283.218V231.14H281.758ZM282.488 263.27H267.884V264.73H282.488V263.27ZM294.026 264H293.296V264.73H294.026V264ZM294.026 260.349V259.619H293.296V260.349H294.026ZM304.979 260.349H305.71V259.619H304.979V260.349ZM304.979 264V264.73H305.71V264H304.979ZM304.979 260.349H304.249V261.079H304.979V260.349ZM304.979 256.698V255.967H304.249V256.698H304.979ZM308.631 256.698H309.361V255.967H308.631V256.698ZM308.631 260.349V261.079H309.361V260.349H308.631ZM290.375 260.349H289.645V261.079H290.375V260.349ZM290.375 245.744V245.014H289.645V245.744H290.375ZM294.026 245.744H294.756V245.014H294.026V245.744ZM294.026 249.395H293.296V250.126H294.026V249.395ZM304.979 249.395V250.126H305.71V249.395H304.979ZM304.979 245.744V245.014H304.249V245.744H304.979ZM308.631 245.744H309.361V245.014H308.631V245.744ZM308.631 253.047V253.777H309.361V253.047H308.631ZM294.026 253.047V252.316H293.296V253.047H294.026ZM294.026 260.349V261.079H294.756V260.349H294.026ZM294.026 245.744H293.296V246.474H294.026V245.744ZM294.026 242.093V241.363H293.296V242.093H294.026ZM304.979 242.093H305.71V241.363H304.979V242.093ZM304.979 245.744V246.474H305.71V245.744H304.979ZM294.756 264V260.349H293.296V264H294.756ZM294.026 261.079H304.979V259.619H294.026V261.079ZM304.249 260.349V264H305.71V260.349H304.249ZM304.979 263.27H294.026V264.73H304.979V263.27ZM305.71 260.349V256.698H304.249V260.349H305.71ZM304.979 257.428H308.631V255.967H304.979V257.428ZM307.9 256.698V260.349H309.361V256.698H307.9ZM308.631 259.619H304.979V261.079H308.631V259.619ZM291.105 260.349V245.744H289.645V260.349H291.105ZM290.375 246.474H294.026V245.014H290.375V246.474ZM293.296 245.744V249.395H294.756V245.744H293.296ZM294.026 250.126H304.979V248.665H294.026V250.126ZM305.71 249.395V245.744H304.249V249.395H305.71ZM304.979 246.474H308.631V245.014H304.979V246.474ZM307.9 245.744V253.047H309.361V245.744H307.9ZM308.631 252.316H294.026V253.777H308.631V252.316ZM293.296 253.047V260.349H294.756V253.047H293.296ZM294.026 259.619H290.375V261.079H294.026V259.619ZM294.756 245.744V242.093H293.296V245.744H294.756ZM294.026 242.823H304.979V241.363H294.026V242.823ZM304.249 242.093V245.744H305.71V242.093H304.249ZM304.979 245.014H294.026V246.474H304.979V245.014ZM316.517 260.349H315.787V261.079H316.517V260.349ZM316.517 245.744V245.014H315.787V245.744H316.517ZM320.168 245.744H320.898V245.014H320.168V245.744ZM320.168 260.349V261.079H320.898V260.349H320.168ZM320.168 264H319.438V264.73H320.168V264ZM320.168 260.349V259.619H319.438V260.349H320.168ZM331.122 260.349V261.079H331.852V260.349H331.122ZM331.122 245.744H331.852V245.014H331.122V245.744ZM320.168 245.744H319.438V246.474H320.168V245.744ZM320.168 242.093V241.363H319.438V242.093H320.168ZM331.122 242.093V242.823H331.852V242.093H331.122ZM331.122 231.14V230.409H330.392V231.14H331.122ZM334.773 231.14H335.503V230.409H334.773V231.14ZM334.773 264V264.73H335.503V264H334.773ZM317.247 260.349V245.744H315.787V260.349H317.247ZM316.517 246.474H320.168V245.014H316.517V246.474ZM319.438 245.744V260.349H320.898V245.744H319.438ZM320.168 259.619H316.517V261.079H320.168V259.619ZM320.898 264V260.349H319.438V264H320.898ZM320.168 261.079H331.122V259.619H320.168V261.079ZM331.852 260.349V245.744H330.392V260.349H331.852ZM331.122 245.014H320.168V246.474H331.122V245.014ZM320.898 245.744V242.093H319.438V245.744H320.898ZM320.168 242.823H331.122V241.363H320.168V242.823ZM331.852 242.093V231.14H330.392V242.093H331.852ZM331.122 231.87H334.773V230.409H331.122V231.87ZM334.043 231.14V264H335.503V231.14H334.043ZM334.773 263.27H320.168V264.73H334.773V263.27ZM376.104 264H375.374V264.73H376.104V264ZM376.104 260.349V259.619H375.374V260.349H376.104ZM387.058 260.349H387.788V259.619H387.058V260.349ZM387.058 264V264.73H387.788V264H387.058ZM372.453 260.349H371.723V261.079H372.453V260.349ZM372.453 234.791V234.06H371.723V234.791H372.453ZM376.104 234.791H376.834V234.06H376.104V234.791ZM376.104 242.093H375.374V242.823H376.104V242.093ZM387.058 242.093H387.788V241.363H387.058V242.093ZM387.058 245.744V246.474H387.788V245.744H387.058ZM376.104 245.744V245.014H375.374V245.744H376.104ZM376.104 260.349V261.079H376.834V260.349H376.104ZM376.834 264V260.349H375.374V264H376.834ZM376.104 261.079H387.058V259.619H376.104V261.079ZM386.327 260.349V264H387.788V260.349H386.327ZM387.058 263.27H376.104V264.73H387.058V263.27ZM373.183 260.349V234.791H371.723V260.349H373.183ZM372.453 235.521H376.104V234.06H372.453V235.521ZM375.374 234.791V242.093H376.834V234.791H375.374ZM376.104 242.823H387.058V241.363H376.104V242.823ZM386.327 242.093V245.744H387.788V242.093H386.327ZM387.058 245.014H376.104V246.474H387.058V245.014ZM375.374 245.744V260.349H376.834V245.744H375.374ZM376.104 259.619H372.453V261.079H376.104V259.619ZM398.595 264H397.865V264.73H398.595V264ZM398.595 260.349V259.619H397.865V260.349H398.595ZM409.549 260.349H410.279V259.619H409.549V260.349ZM409.549 264V264.73H410.279V264H409.549ZM394.944 260.349H394.214V261.079H394.944V260.349ZM394.944 245.744V245.014H394.214V245.744H394.944ZM398.595 245.744H399.325V245.014H398.595V245.744ZM398.595 260.349V261.079H399.325V260.349H398.595ZM409.549 260.349H408.819V261.079H409.549V260.349ZM409.549 245.744V245.014H408.819V245.744H409.549ZM413.2 245.744H413.93V245.014H413.2V245.744ZM413.2 260.349V261.079H413.93V260.349H413.2ZM398.595 245.744H397.865V246.474H398.595V245.744ZM398.595 242.093V241.363H397.865V242.093H398.595ZM409.549 242.093H410.279V241.363H409.549V242.093ZM409.549 245.744V246.474H410.279V245.744H409.549ZM399.325 264V260.349H397.865V264H399.325ZM398.595 261.079H409.549V259.619H398.595V261.079ZM408.819 260.349V264H410.279V260.349H408.819ZM409.549 263.27H398.595V264.73H409.549V263.27ZM395.674 260.349V245.744H394.214V260.349H395.674ZM394.944 246.474H398.595V245.014H394.944V246.474ZM397.865 245.744V260.349H399.325V245.744H397.865ZM398.595 259.619H394.944V261.079H398.595V259.619ZM410.279 260.349V245.744H408.819V260.349H410.279ZM409.549 246.474H413.2V245.014H409.549V246.474ZM412.47 245.744V260.349H413.93V245.744H412.47ZM413.2 259.619H409.549V261.079H413.2V259.619ZM399.325 245.744V242.093H397.865V245.744H399.325ZM398.595 242.823H409.549V241.363H398.595V242.823ZM408.819 242.093V245.744H410.279V242.093H408.819ZM409.549 245.014H398.595V246.474H409.549V245.014ZM461.833 249.395H461.103V250.126H461.833V249.395ZM461.833 245.744V245.014H461.103V245.744H461.833ZM465.485 245.744H466.215V245.014H465.485V245.744ZM465.485 249.395V250.126H466.215V249.395H465.485ZM447.229 264H446.499V264.73H447.229V264ZM447.229 242.093V241.363H446.499V242.093H447.229ZM450.88 242.093H451.61V241.363H450.88V242.093ZM450.88 245.744H450.15V246.474H450.88V245.744ZM454.531 245.744H455.261V245.014H454.531V245.744ZM454.531 249.395V250.126H455.261V249.395H454.531ZM450.88 249.395V248.665H450.15V249.395H450.88ZM450.88 264V264.73H451.61V264H450.88ZM454.531 245.744H453.801V246.474H454.531V245.744ZM454.531 242.093V241.363H453.801V242.093H454.531ZM461.833 242.093H462.564V241.363H461.833V242.093ZM461.833 245.744V246.474H462.564V245.744H461.833ZM462.564 249.395V245.744H461.103V249.395H462.564ZM461.833 246.474H465.485V245.014H461.833V246.474ZM464.754 245.744V249.395H466.215V245.744H464.754ZM465.485 248.665H461.833V250.126H465.485V248.665ZM447.959 264V242.093H446.499V264H447.959ZM447.229 242.823H450.88V241.363H447.229V242.823ZM450.15 242.093V245.744H451.61V242.093H450.15ZM450.88 246.474H454.531V245.014H450.88V246.474ZM453.801 245.744V249.395H455.261V245.744H453.801ZM454.531 248.665H450.88V250.126H454.531V248.665ZM450.15 249.395V264H451.61V249.395H450.15ZM450.88 263.27H447.229V264.73H450.88V263.27ZM455.261 245.744V242.093H453.801V245.744H455.261ZM454.531 242.823H461.833V241.363H454.531V242.823ZM461.103 242.093V245.744H462.564V242.093H461.103ZM461.833 245.014H454.531V246.474H461.833V245.014ZM477.022 264H476.292V264.73H477.022V264ZM477.022 260.349V259.619H476.292V260.349H477.022ZM487.976 260.349H488.706V259.619H487.976V260.349ZM487.976 264V264.73H488.706V264H487.976ZM487.976 260.349H487.245V261.079H487.976V260.349ZM487.976 256.698V255.967H487.245V256.698H487.976ZM491.627 256.698H492.357V255.967H491.627V256.698ZM491.627 260.349V261.079H492.357V260.349H491.627ZM473.371 260.349H472.641V261.079H473.371V260.349ZM473.371 245.744V245.014H472.641V245.744H473.371ZM477.022 245.744H477.752V245.014H477.022V245.744ZM477.022 249.395H476.292V250.126H477.022V249.395ZM487.976 249.395V250.126H488.706V249.395H487.976ZM487.976 245.744V245.014H487.245V245.744H487.976ZM491.627 245.744H492.357V245.014H491.627V245.744ZM491.627 253.047V253.777H492.357V253.047H491.627ZM477.022 253.047V252.316H476.292V253.047H477.022ZM477.022 260.349V261.079H477.752V260.349H477.022ZM477.022 245.744H476.292V246.474H477.022V245.744ZM477.022 242.093V241.363H476.292V242.093H477.022ZM487.976 242.093H488.706V241.363H487.976V242.093ZM487.976 245.744V246.474H488.706V245.744H487.976ZM477.752 264V260.349H476.292V264H477.752ZM477.022 261.079H487.976V259.619H477.022V261.079ZM487.245 260.349V264H488.706V260.349H487.245ZM487.976 263.27H477.022V264.73H487.976V263.27ZM488.706 260.349V256.698H487.245V260.349H488.706ZM487.976 257.428H491.627V255.967H487.976V257.428ZM490.897 256.698V260.349H492.357V256.698H490.897ZM491.627 259.619H487.976V261.079H491.627V259.619ZM474.101 260.349V245.744H472.641V260.349H474.101ZM473.371 246.474H477.022V245.014H473.371V246.474ZM476.292 245.744V249.395H477.752V245.744H476.292ZM477.022 250.126H487.976V248.665H477.022V250.126ZM488.706 249.395V245.744H487.245V249.395H488.706ZM487.976 246.474H491.627V245.014H487.976V246.474ZM490.897 245.744V253.047H492.357V245.744H490.897ZM491.627 252.316H477.022V253.777H491.627V252.316ZM476.292 253.047V260.349H477.752V253.047H476.292ZM477.022 259.619H473.371V261.079H477.022V259.619ZM477.752 245.744V242.093H476.292V245.744H477.752ZM477.022 242.823H487.976V241.363H477.022V242.823ZM487.245 242.093V245.744H488.706V242.093H487.245ZM487.976 245.014H477.022V246.474H487.976V245.014ZM506.816 264H506.086V264.73H506.816V264ZM506.816 256.698V255.967H506.086V256.698H506.816ZM510.467 256.698H511.197V255.967H510.467V256.698ZM510.467 264V264.73H511.197V264H510.467ZM503.165 256.698H502.434V257.428H503.165V256.698ZM503.165 249.395V248.665H502.434V249.395H503.165ZM506.816 249.395H507.546V248.665H506.816V249.395ZM506.816 256.698V257.428H507.546V256.698H506.816ZM510.467 256.698H509.737V257.428H510.467V256.698ZM510.467 249.395V248.665H509.737V249.395H510.467ZM514.118 249.395H514.848V248.665H514.118V249.395ZM514.118 256.698V257.428H514.848V256.698H514.118ZM499.513 249.395H498.783V250.126H499.513V249.395ZM499.513 242.093V241.363H498.783V242.093H499.513ZM503.165 242.093H503.895V241.363H503.165V242.093ZM503.165 249.395V250.126H503.895V249.395H503.165ZM514.118 249.395H513.388V250.126H514.118V249.395ZM514.118 242.093V241.363H513.388V242.093H514.118ZM517.769 242.093H518.499V241.363H517.769V242.093ZM517.769 249.395V250.126H518.499V249.395H517.769ZM507.546 264V256.698H506.086V264H507.546ZM506.816 257.428H510.467V255.967H506.816V257.428ZM509.737 256.698V264H511.197V256.698H509.737ZM510.467 263.27H506.816V264.73H510.467V263.27ZM503.895 256.698V249.395H502.434V256.698H503.895ZM503.165 250.126H506.816V248.665H503.165V250.126ZM506.086 249.395V256.698H507.546V249.395H506.086ZM506.816 255.967H503.165V257.428H506.816V255.967ZM511.197 256.698V249.395H509.737V256.698H511.197ZM510.467 250.126H514.118V248.665H510.467V250.126ZM513.388 249.395V256.698H514.848V249.395H513.388ZM514.118 255.967H510.467V257.428H514.118V255.967ZM500.244 249.395V242.093H498.783V249.395H500.244ZM499.513 242.823H503.165V241.363H499.513V242.823ZM502.434 242.093V249.395H503.895V242.093H502.434ZM503.165 248.665H499.513V250.126H503.165V248.665ZM514.848 249.395V242.093H513.388V249.395H514.848ZM514.118 242.823H517.769V241.363H514.118V242.823ZM517.039 242.093V249.395H518.499V242.093H517.039ZM517.769 248.665H514.118V250.126H517.769V248.665ZM532.958 264H532.228V264.73H532.958V264ZM532.958 245.744H533.688V245.014H532.958V245.744ZM529.307 245.744H528.577V246.474H529.307V245.744ZM529.307 242.093V241.363H528.577V242.093H529.307ZM536.609 242.093H537.339V241.363H536.609V242.093ZM536.609 264V264.73H537.339V264H536.609ZM532.958 234.791H532.228V235.521H532.958V234.791ZM532.958 231.14V230.409H532.228V231.14H532.958ZM536.609 231.14H537.339V230.409H536.609V231.14ZM536.609 234.791V235.521H537.339V234.791H536.609ZM533.688 264V245.744H532.228V264H533.688ZM532.958 245.014H529.307V246.474H532.958V245.014ZM530.037 245.744V242.093H528.577V245.744H530.037ZM529.307 242.823H536.609V241.363H529.307V242.823ZM535.879 242.093V264H537.339V242.093H535.879ZM536.609 263.27H532.958V264.73H536.609V263.27ZM533.688 234.791V231.14H532.228V234.791H533.688ZM532.958 231.87H536.609V230.409H532.958V231.87ZM535.879 231.14V234.791H537.339V231.14H535.879ZM536.609 234.06H532.958V235.521H536.609V234.06ZM559.1 264H558.37V264.73H559.1V264ZM559.1 256.698V255.967H558.37V256.698H559.1ZM562.752 256.698H563.482V255.967H562.752V256.698ZM562.752 264V264.73H563.482V264H562.752ZM555.449 256.698H554.719V257.428H555.449V256.698ZM555.449 249.395V248.665H554.719V249.395H555.449ZM559.1 249.395H559.831V248.665H559.1V249.395ZM559.1 256.698V257.428H559.831V256.698H559.1ZM562.752 256.698H562.021V257.428H562.752V256.698ZM562.752 249.395V248.665H562.021V249.395H562.752ZM566.403 249.395H567.133V248.665H566.403V249.395ZM566.403 256.698V257.428H567.133V256.698H566.403ZM551.798 249.395H551.068V250.126H551.798V249.395ZM551.798 242.093V241.363H551.068V242.093H551.798ZM555.449 242.093H556.179V241.363H555.449V242.093ZM555.449 249.395V250.126H556.179V249.395H555.449ZM566.403 249.395H565.672V250.126H566.403V249.395ZM566.403 242.093V241.363H565.672V242.093H566.403ZM570.054 242.093H570.784V241.363H570.054V242.093ZM570.054 249.395V250.126H570.784V249.395H570.054ZM559.831 264V256.698H558.37V264H559.831ZM559.1 257.428H562.752V255.967H559.1V257.428ZM562.021 256.698V264H563.482V256.698H562.021ZM562.752 263.27H559.1V264.73H562.752V263.27ZM556.179 256.698V249.395H554.719V256.698H556.179ZM555.449 250.126H559.1V248.665H555.449V250.126ZM558.37 249.395V256.698H559.831V249.395H558.37ZM559.1 255.967H555.449V257.428H559.1V255.967ZM563.482 256.698V249.395H562.021V256.698H563.482ZM562.752 250.126H566.403V248.665H562.752V250.126ZM565.672 249.395V256.698H567.133V249.395H565.672ZM566.403 255.967H562.752V257.428H566.403V255.967ZM552.528 249.395V242.093H551.068V249.395H552.528ZM551.798 242.823H555.449V241.363H551.798V242.823ZM554.719 242.093V249.395H556.179V242.093H554.719ZM555.449 248.665H551.798V250.126H555.449V248.665ZM567.133 249.395V242.093H565.672V249.395H567.133ZM566.403 242.823H570.054V241.363H566.403V242.823ZM569.324 242.093V249.395H570.784V242.093H569.324ZM570.054 248.665H566.403V250.126H570.054V248.665ZM581.592 264H580.861V264.73H581.592V264ZM581.592 260.349V259.619H580.861V260.349H581.592ZM592.545 260.349H593.275V259.619H592.545V260.349ZM592.545 264V264.73H593.275V264H592.545ZM592.545 260.349H591.815V261.079H592.545V260.349ZM592.545 256.698V255.967H591.815V256.698H592.545ZM596.196 256.698H596.926V255.967H596.196V256.698ZM596.196 260.349V261.079H596.926V260.349H596.196ZM577.94 260.349H577.21V261.079H577.94V260.349ZM577.94 245.744V245.014H577.21V245.744H577.94ZM581.592 245.744H582.322V245.014H581.592V245.744ZM581.592 249.395H580.861V250.126H581.592V249.395ZM592.545 249.395V250.126H593.275V249.395H592.545ZM592.545 245.744V245.014H591.815V245.744H592.545ZM596.196 245.744H596.926V245.014H596.196V245.744ZM596.196 253.047V253.777H596.926V253.047H596.196ZM581.592 253.047V252.316H580.861V253.047H581.592ZM581.592 260.349V261.079H582.322V260.349H581.592ZM581.592 245.744H580.861V246.474H581.592V245.744ZM581.592 242.093V241.363H580.861V242.093H581.592ZM592.545 242.093H593.275V241.363H592.545V242.093ZM592.545 245.744V246.474H593.275V245.744H592.545ZM582.322 264V260.349H580.861V264H582.322ZM581.592 261.079H592.545V259.619H581.592V261.079ZM591.815 260.349V264H593.275V260.349H591.815ZM592.545 263.27H581.592V264.73H592.545V263.27ZM593.275 260.349V256.698H591.815V260.349H593.275ZM592.545 257.428H596.196V255.967H592.545V257.428ZM595.466 256.698V260.349H596.926V256.698H595.466ZM596.196 259.619H592.545V261.079H596.196V259.619ZM578.671 260.349V245.744H577.21V260.349H578.671ZM577.94 246.474H581.592V245.014H577.94V246.474ZM580.861 245.744V249.395H582.322V245.744H580.861ZM581.592 250.126H592.545V248.665H581.592V250.126ZM593.275 249.395V245.744H591.815V249.395H593.275ZM592.545 246.474H596.196V245.014H592.545V246.474ZM595.466 245.744V253.047H596.926V245.744H595.466ZM596.196 252.316H581.592V253.777H596.196V252.316ZM580.861 253.047V260.349H582.322V253.047H580.861ZM581.592 259.619H577.94V261.079H581.592V259.619ZM582.322 245.744V242.093H580.861V245.744H582.322ZM581.592 242.823H592.545V241.363H581.592V242.823ZM591.815 242.093V245.744H593.275V242.093H591.815ZM592.545 245.014H581.592V246.474H592.545V245.014Z" fill="#252840" mask="url(#path-135-outside-2_97_14957)"/>
<rect x="667" y="0.5" width="13" height="507" fill="#B9A597"/>
<rect x="989" y="500" width="13" height="989" transform="rotate(90 989 500)" fill="#B9A597"/>
</g>
<defs>
<clipPath id="clip0_97_14957">
<rect width="680.154" height="513" fill="white"/>
</clipPath>
</defs>
</svg>
