<svg width="736" height="511" viewBox="0 0 736 511" fill="none" xmlns="http://www.w3.org/2000/svg">
<g clip-path="url(#clip0_97_15364)">
<rect width="736" height="511" fill="white"/>
<path d="M383.83 108.701V81.7115H389.146V76.4538H394.404V71.1377H400.363V76.4538H405.62V81.7115H410.995V108.701H405.036V98.1271H389.73V108.701H383.83ZM389.73 92.2268H405.036V82.2957H399.778V77.038H394.988V82.2957H389.73V92.2268Z" fill="#252840"/>
<path d="M349.016 108.701V76.4538H354.332V71.1377H360.174V77.038H354.916V87.0276H359.589V81.7115H364.964V76.4538H370.222V71.1377H376.18V77.038H370.806V82.2957H365.548V87.5533H360.174V92.2268H365.548V97.5429H370.806V102.859H376.18V108.701H370.222V103.443H364.964V98.1271H359.589V92.811H354.916V108.701H349.016Z" fill="#252840"/>
<path d="M314.203 108.701V71.1377H320.103V97.5429H324.777V81.7115H330.151V76.4538H335.409V71.1377H341.368V108.701H335.409V82.2957H330.736V98.1271H325.361V103.443H320.103V108.701H314.203Z" fill="#252840"/>
<path d="M209.76 108.701V71.1377H215.66V97.5429H220.334V81.7115H225.708V76.4538H230.966V71.1377H236.924V108.701H230.966V82.2957H226.292V98.1271H220.918V103.443H215.66V108.701H209.76Z" fill="#252840"/>
<path d="M140.133 108.701V81.7115H145.449V76.4538H150.707V71.1377H156.665V76.4538H161.923V81.7115H167.297V108.701H161.339V98.1271H146.033V108.701H140.133ZM146.033 92.2268H161.339V82.2957H156.081V77.038H151.291V82.2957H146.033V92.2268Z" fill="#252840"/>
<path fill-rule="evenodd" clip-rule="evenodd" d="M383.1 109.431V80.981H388.416V75.7233H393.673V70.4072H401.093V75.7233H406.35V80.981H411.725V109.431H404.306V98.8571H390.46V109.431H383.1ZM389.73 98.1269H405.036V108.701H410.995V81.7112H405.62V76.4536H400.362V71.1375H394.404V76.4536H389.146V81.7112H383.83V108.701H389.73V98.1269ZM389.73 92.2266H405.036V82.2954H399.778V77.0377H394.988V82.2954H389.73V92.2266ZM390.46 83.0256V91.4963H404.306V83.0256H399.048V77.768H395.718V83.0256H390.46Z" fill="#252840"/>
<path fill-rule="evenodd" clip-rule="evenodd" d="M348.285 109.431V75.7233H353.601V70.4072H360.904V77.768H355.646V86.2971H358.859V80.981H364.233V75.7233H369.491V70.4072H376.91V77.768H371.536V83.0256H366.278V88.2833H360.904V91.4963H366.278V96.8124H371.536V102.129H376.91V109.431H369.491V104.173H364.233V98.8571H358.859V93.541H355.646V109.431H348.285ZM354.916 92.8108H359.589V98.1269H364.964V103.443H370.221V108.701H376.18V102.859H370.806V97.5427H365.548V92.2266H360.173V87.5531H365.548V82.2954H370.806V77.0377H376.18V71.1375H370.221V76.4536H364.964V81.7112H359.589V87.0273H354.916V77.0377H360.173V71.1375H354.331V76.4536H349.015V108.701H354.916V92.8108Z" fill="#252840"/>
<path fill-rule="evenodd" clip-rule="evenodd" d="M313.473 109.431V70.4072H320.833V96.8124H324.046V80.981H329.421V75.7233H334.679V70.4072H342.098V109.431H334.679V83.0256H331.466V98.8571H326.091V104.173H320.833V109.431H313.473ZM320.103 103.443H325.361V98.1269H330.735V82.2954H335.409V108.701H341.368V71.1375H335.409V76.4536H330.151V81.7112H324.777V97.5427H320.103V71.1375H314.203V108.701H320.103V103.443Z" fill="#252840"/>
<path fill-rule="evenodd" clip-rule="evenodd" d="M209.031 109.431V70.4072H216.392V96.8124H219.605V80.981H224.98V75.7233H230.237V70.4072H237.656V109.431H230.237V83.0256H227.024V98.8571H221.65V104.173H216.392V109.431H209.031ZM215.662 103.443H220.919V98.1269H226.294V82.2954H230.967V108.701H236.926V71.1375H230.967V76.4536H225.71V81.7112H220.335V97.5427H215.662V71.1375H209.761V108.701H215.662V103.443Z" fill="#252840"/>
<path fill-rule="evenodd" clip-rule="evenodd" d="M139.402 109.431V80.981H144.718V75.7233H149.976V70.4072H157.395V75.7233H162.653V80.981H168.027V109.431H160.608V98.8571H146.763V109.431H139.402ZM146.033 98.1269H161.339V108.701H167.297V81.7112H161.923V76.4536H156.665V71.1375H150.706V76.4536H145.449V81.7112H140.133V108.701H146.033V98.1269ZM146.033 92.2266H161.339V82.2954H156.081V77.0377H151.291V82.2954H146.033V92.2266ZM146.763 83.0256V91.4963H160.608V83.0256H155.351V77.768H152.021V83.0256H146.763Z" fill="#252840"/>
<path d="M76.0466 108.294V103.036H70.7305V76.0466H76.0466V70.7305H92.5206V76.0466H97.8951V85.0928H91.9364V76.6307H76.6308V102.452H91.9364V91.8196H97.8951V103.036H92.5206V108.294H76.0466Z" fill="#252840"/>
<path fill-rule="evenodd" clip-rule="evenodd" d="M75.3161 109.024V103.766H70V75.3161H75.3161V70H93.2506V75.3161H98.6251V85.0928H91.2059V77.3607H77.3607V101.721H91.2059V91.0891H98.6251V103.766H93.2506V109.024H75.3161ZM92.5204 103.036H97.8949V91.8194H91.9362V102.452H76.6305V76.6305H91.9362V85.0928H97.8949V76.0463H92.5204V70.7302H76.0463V76.0463H70.7302V103.036H76.0463V108.293H92.5204V103.036Z" fill="#252840"/>
<path d="M250.047 108.294V103.036H244.73V76.0466H250.047V70.7305H266.521V76.0466H271.895V85.0928H265.936V76.6307H250.631V102.452H265.936V91.8196H271.895V103.036H266.521V108.294H250.047Z" fill="#252840"/>
<path fill-rule="evenodd" clip-rule="evenodd" d="M249.316 109.024V103.766H244V75.3161H249.316V70H267.251V75.3161H272.625V85.0928H265.206V77.3607H251.361V101.721H265.206V91.0891H272.625V103.766H267.251V109.024H249.316ZM266.52 103.036H271.895V91.8194H265.936V102.452H250.631V76.6305H265.936V85.0928H271.895V76.0463H266.52V70.7302H250.046V76.0463H244.73V103.036H250.046V108.293H266.52V103.036Z" fill="#252840"/>
<rect x="134" y="71" width="7" height="29" transform="rotate(90 134 71)" fill="#252840"/>
<rect x="116" y="76" width="7" height="34" fill="#252840"/>
<rect x="203" y="71" width="7" height="29" transform="rotate(90 203 71)" fill="#252840"/>
<rect x="185" y="76" width="7" height="34" fill="#252840"/>
<rect x="307" y="71" width="7" height="29" transform="rotate(90 307 71)" fill="#252840"/>
<rect x="289" y="76" width="7" height="34" fill="#252840"/>
<rect x="77" y="186.5" width="7" height="7" transform="rotate(90 77 186.5)" fill="#252840"/>
<rect x="77" y="179.5" width="7" height="7" transform="rotate(90 77 179.5)" fill="#252840"/>
<rect x="77" y="172.5" width="7" height="7" transform="rotate(90 77 172.5)" fill="#252840"/>
<rect x="77" y="165.5" width="7" height="7" transform="rotate(90 77 165.5)" fill="#252840"/>
<rect x="77" y="158.5" width="7" height="7" transform="rotate(90 77 158.5)" fill="#252840"/>
<rect x="84" y="158.5" width="7" height="7" transform="rotate(90 84 158.5)" fill="#252840"/>
<rect x="91" y="158.5" width="7" height="7" transform="rotate(90 91 158.5)" fill="#252840"/>
<rect x="98" y="158.5" width="7" height="7" transform="rotate(90 98 158.5)" fill="#252840"/>
<rect x="105" y="158.5" width="7" height="7" transform="rotate(90 105 158.5)" fill="#252840"/>
<rect x="112" y="158.5" width="7" height="7" transform="rotate(90 112 158.5)" fill="#252840"/>
<rect x="119" y="158.5" width="7" height="7" transform="rotate(90 119 158.5)" fill="#252840"/>
<rect x="84" y="193.5" width="7" height="7" transform="rotate(90 84 193.5)" fill="#252840"/>
<rect x="91" y="200.5" width="7" height="7" transform="rotate(90 91 200.5)" fill="#252840"/>
<rect x="98" y="207.5" width="7" height="7" transform="rotate(90 98 207.5)" fill="#252840"/>
<rect x="98" y="200.5" width="7" height="7" transform="rotate(90 98 200.5)" fill="#252840"/>
<rect x="98" y="193.5" width="7" height="7" transform="rotate(90 98 193.5)" fill="#252840"/>
<rect x="98" y="186.5" width="7" height="7" transform="rotate(90 98 186.5)" fill="#252840"/>
<rect x="98" y="179.5" width="7" height="7" transform="rotate(90 98 179.5)" fill="#252840"/>
<rect x="98" y="172.5" width="7" height="7" transform="rotate(90 98 172.5)" fill="#252840"/>
<rect x="98" y="165.5" width="7" height="7" transform="rotate(90 98 165.5)" fill="#252840"/>
<rect x="105" y="214.5" width="7" height="7" transform="rotate(90 105 214.5)" fill="#252840"/>
<rect x="112" y="221.5" width="7" height="7" transform="rotate(90 112 221.5)" fill="#252840"/>
<rect x="119" y="228.5" width="7" height="7" transform="rotate(90 119 228.5)" fill="#252840"/>
<rect x="119" y="235.5" width="7" height="7" transform="rotate(90 119 235.5)" fill="#252840"/>
<rect x="112" y="242.5" width="7" height="7" transform="rotate(90 112 242.5)" fill="#252840"/>
<rect x="105" y="249.5" width="7" height="7" transform="rotate(90 105 249.5)" fill="#252840"/>
<rect x="105" y="256.5" width="7" height="7" transform="rotate(90 105 256.5)" fill="#252840"/>
<rect x="105" y="263.5" width="7" height="7" transform="rotate(90 105 263.5)" fill="#252840"/>
<rect x="112" y="263.5" width="7" height="7" transform="rotate(90 112 263.5)" fill="#252840"/>
<rect x="119" y="263.5" width="7" height="7" transform="rotate(90 119 263.5)" fill="#252840"/>
<rect width="7" height="7" transform="matrix(4.37114e-08 1 1 -4.37114e-08 168 186.5)" fill="#252840"/>
<rect width="7" height="7" transform="matrix(4.37114e-08 1 1 -4.37114e-08 168 179.5)" fill="#252840"/>
<rect width="7" height="7" transform="matrix(4.37114e-08 1 1 -4.37114e-08 168 172.5)" fill="#252840"/>
<rect width="7" height="7" transform="matrix(4.37114e-08 1 1 -4.37114e-08 168 165.5)" fill="#252840"/>
<rect width="7" height="7" transform="matrix(4.37114e-08 1 1 -4.37114e-08 168 158.5)" fill="#252840"/>
<rect width="7" height="7" transform="matrix(4.37114e-08 1 1 -4.37114e-08 161 158.5)" fill="#252840"/>
<rect width="7" height="7" transform="matrix(4.37114e-08 1 1 -4.37114e-08 154 158.5)" fill="#252840"/>
<rect width="7" height="7" transform="matrix(4.37114e-08 1 1 -4.37114e-08 147 158.5)" fill="#252840"/>
<rect width="7" height="7" transform="matrix(4.37114e-08 1 1 -4.37114e-08 140 158.5)" fill="#252840"/>
<rect width="7" height="7" transform="matrix(4.37114e-08 1 1 -4.37114e-08 133 158.5)" fill="#252840"/>
<rect width="7" height="7" transform="matrix(4.37114e-08 1 1 -4.37114e-08 126 158.5)" fill="#252840"/>
<rect width="7" height="7" transform="matrix(4.37114e-08 1 1 -4.37114e-08 119 158.5)" fill="#252840"/>
<rect width="7" height="7" transform="matrix(4.37114e-08 1 1 -4.37114e-08 161 193.5)" fill="#252840"/>
<rect width="7" height="7" transform="matrix(4.37114e-08 1 1 -4.37114e-08 154 200.5)" fill="#252840"/>
<rect width="7" height="7" transform="matrix(4.37114e-08 1 1 -4.37114e-08 147 207.5)" fill="#252840"/>
<rect width="7" height="7" transform="matrix(4.37114e-08 1 1 -4.37114e-08 147 200.5)" fill="#252840"/>
<rect width="7" height="7" transform="matrix(4.37114e-08 1 1 -4.37114e-08 147 193.5)" fill="#252840"/>
<rect width="7" height="7" transform="matrix(4.37114e-08 1 1 -4.37114e-08 147 186.5)" fill="#252840"/>
<rect width="7" height="7" transform="matrix(4.37114e-08 1 1 -4.37114e-08 147 179.5)" fill="#252840"/>
<rect width="7" height="7" transform="matrix(4.37114e-08 1 1 -4.37114e-08 147 172.5)" fill="#252840"/>
<rect width="7" height="7" transform="matrix(4.37114e-08 1 1 -4.37114e-08 147 165.5)" fill="#252840"/>
<rect width="49" height="49" transform="matrix(4.37114e-08 1 1 -4.37114e-08 98 165.5)" fill="#F9D22B"/>
<rect width="7" height="7" transform="matrix(4.37114e-08 1 1 -4.37114e-08 140 214.5)" fill="#252840"/>
<rect width="7" height="7" transform="matrix(4.37114e-08 1 1 -4.37114e-08 133 221.5)" fill="#252840"/>
<rect width="7" height="7" transform="matrix(4.37114e-08 1 1 -4.37114e-08 126 228.5)" fill="#252840"/>
<rect width="7" height="7" transform="matrix(4.37114e-08 1 1 -4.37114e-08 126 235.5)" fill="#252840"/>
<rect width="7" height="7" transform="matrix(4.37114e-08 1 1 -4.37114e-08 133 242.5)" fill="#252840"/>
<rect width="7" height="7" transform="matrix(4.37114e-08 1 1 -4.37114e-08 140 249.5)" fill="#252840"/>
<rect width="7" height="7" transform="matrix(4.37114e-08 1 1 -4.37114e-08 140 256.5)" fill="#252840"/>
<rect width="7" height="7" transform="matrix(4.37114e-08 1 1 -4.37114e-08 140 263.5)" fill="#252840"/>
<rect width="7" height="7" transform="matrix(4.37114e-08 1 1 -4.37114e-08 133 263.5)" fill="#252840"/>
<rect width="7" height="7" transform="matrix(4.37114e-08 1 1 -4.37114e-08 126 263.5)" fill="#252840"/>
<rect width="7" height="7" transform="matrix(4.37114e-08 1 1 -4.37114e-08 119 263.5)" fill="#252840"/>
<rect width="7" height="7" transform="matrix(4.37114e-08 1 1 -4.37114e-08 133 171.5)" fill="#FCE895"/>
<rect width="7" height="7" transform="matrix(4.37114e-08 1 1 -4.37114e-08 133 178.5)" fill="#FCE895"/>
<rect width="7" height="7" transform="matrix(4.37114e-08 1 1 -4.37114e-08 133 185.5)" fill="#FCE895"/>
<rect width="7" height="7" transform="matrix(4.37114e-08 1 1 -4.37114e-08 133 192.5)" fill="#FCE895"/>
<rect x="105" y="214.5" width="35" height="7" fill="#F9D22B"/>
<rect x="112" y="221.5" width="21" height="7" fill="#F9D22B"/>
<rect x="105" y="256.5" width="35" height="7" fill="#F9D22B"/>
<rect x="105" y="249.5" width="35" height="7" fill="#F9D22B"/>
<rect x="112" y="242.5" width="21" height="7" fill="#F9D22B"/>
<rect x="126" y="227.5" width="21" height="7" transform="rotate(90 126 227.5)" fill="#F9D22B"/>
<rect x="98" y="165.5" width="7" height="7" fill="#EC9345"/>
<rect x="98" y="172.5" width="7" height="7" fill="#EC9345"/>
<rect x="98" y="179.5" width="7" height="7" fill="#EC9345"/>
<rect x="98" y="186.5" width="7" height="7" fill="#EC9345"/>
<rect x="98" y="193.5" width="7" height="7" fill="#EC9345"/>
<rect x="98" y="200.5" width="7" height="7" fill="#EC9345"/>
<rect x="98" y="207.5" width="7" height="7" fill="#EC9345"/>
<rect x="105" y="214.5" width="7" height="7" fill="#EC9345"/>
<rect x="112" y="221.5" width="7" height="7" fill="#EC9345"/>
<rect x="112" y="242.5" width="7" height="7" fill="#EC9345"/>
<rect x="105" y="249.5" width="7" height="7" fill="#EC9345"/>
<mask id="path-105-outside-1_97_15364" maskUnits="userSpaceOnUse" x="209" y="183.5" width="297" height="30" fill="black">
<rect fill="white" x="209" y="183.5" width="297" height="30"/>
<path d="M210.5 204.5V202H213V204.5H210.5ZM213 202V187H215.5V202H213ZM223 204.5V187H215.5V184.5H225.5V204.5H223ZM230.9 212V209.5H233.4V212H230.9ZM233.4 209.5V202H235.9V209.5H233.4ZM230.9 202V194.5H233.4V202H230.9ZM235.9 202V194.5H238.4V202H235.9ZM228.4 194.5V189.5H230.9V194.5H228.4ZM238.4 194.5V189.5H240.9V194.5H238.4ZM246.3 197V189.5H248.8V197H246.3ZM256.3 204.5V199.5H248.8V197H256.3V189.5H258.8V204.5H256.3ZM264.2 204.5V189.5H266.7V202H269.2V189.5H271.7V202H274.2V189.5H276.7V204.5H264.2ZM282.1 202V197H284.6V202H282.1ZM284.6 204.5V202H292.1V197H284.6V194.5H292.1V192H294.6V204.5H284.6ZM284.6 192V189.5H292.1V192H284.6ZM300 204.5V202H302.5V204.5H300ZM300 197V192H302.5V197H300ZM310 204.5V199.5H305V202H302.5V197H310V192H302.5V189.5H312.5V204.5H310ZM333.3 209.5V202H335.8V192H338.3V202H345.8V192H338.3V189.5H348.3V202H350.8V209.5H348.3V204.5H335.8V209.5H333.3ZM358.7 199.5V194.5H361.2V199.5H358.7ZM353.7 204.5V189.5H356.2V199.5H358.7V202H356.2V204.5H353.7ZM363.7 204.5V194.5H361.2V192H363.7V189.5H366.2V204.5H363.7ZM374.1 204.5V202H381.6V204.5H374.1ZM381.6 202V199.5H384.1V202H381.6ZM371.6 202V192H374.1V202H371.6ZM381.6 194.5V192H384.1V194.5H381.6ZM374.1 192V189.5H381.6V192H374.1ZM394.5 204.5V192H389.5V189.5H402V192H397V204.5H394.5ZM407.4 202V197H409.9V202H407.4ZM409.9 204.5V202H417.4V197H409.9V194.5H417.4V192H419.9V204.5H409.9ZM409.9 192V189.5H417.4V192H409.9ZM425.3 204.5V189.5H427.8V194.5H435.3V189.5H437.8V204.5H435.3V197H427.8V204.5H425.3ZM455.7 209.5V204.5H443.2V189.5H445.7V202H453.2V189.5H455.7V202H458.2V209.5H455.7ZM466.1 199.5V194.5H468.6V199.5H466.1ZM461.1 204.5V189.5H463.6V199.5H466.1V202H463.6V204.5H461.1ZM471.1 204.5V194.5H468.6V192H471.1V189.5H473.6V204.5H471.1ZM479 204.5V202H481.5V204.5H479ZM479 197V192H481.5V197H479ZM489 204.5V199.5H484V202H481.5V197H489V192H481.5V189.5H491.5V204.5H489ZM501.9 204.5V199.5H504.4V204.5H501.9ZM501.9 194.5V189.5H504.4V194.5H501.9Z"/>
</mask>
<path d="M210.5 204.5V202H213V204.5H210.5ZM213 202V187H215.5V202H213ZM223 204.5V187H215.5V184.5H225.5V204.5H223ZM230.9 212V209.5H233.4V212H230.9ZM233.4 209.5V202H235.9V209.5H233.4ZM230.9 202V194.5H233.4V202H230.9ZM235.9 202V194.5H238.4V202H235.9ZM228.4 194.5V189.5H230.9V194.5H228.4ZM238.4 194.5V189.5H240.9V194.5H238.4ZM246.3 197V189.5H248.8V197H246.3ZM256.3 204.5V199.5H248.8V197H256.3V189.5H258.8V204.5H256.3ZM264.2 204.5V189.5H266.7V202H269.2V189.5H271.7V202H274.2V189.5H276.7V204.5H264.2ZM282.1 202V197H284.6V202H282.1ZM284.6 204.5V202H292.1V197H284.6V194.5H292.1V192H294.6V204.5H284.6ZM284.6 192V189.5H292.1V192H284.6ZM300 204.5V202H302.5V204.5H300ZM300 197V192H302.5V197H300ZM310 204.5V199.5H305V202H302.5V197H310V192H302.5V189.5H312.5V204.5H310ZM333.3 209.5V202H335.8V192H338.3V202H345.8V192H338.3V189.5H348.3V202H350.8V209.5H348.3V204.5H335.8V209.5H333.3ZM358.7 199.5V194.5H361.2V199.5H358.7ZM353.7 204.5V189.5H356.2V199.5H358.7V202H356.2V204.5H353.7ZM363.7 204.5V194.5H361.2V192H363.7V189.5H366.2V204.5H363.7ZM374.1 204.5V202H381.6V204.5H374.1ZM381.6 202V199.5H384.1V202H381.6ZM371.6 202V192H374.1V202H371.6ZM381.6 194.5V192H384.1V194.5H381.6ZM374.1 192V189.5H381.6V192H374.1ZM394.5 204.5V192H389.5V189.5H402V192H397V204.5H394.5ZM407.4 202V197H409.9V202H407.4ZM409.9 204.5V202H417.4V197H409.9V194.5H417.4V192H419.9V204.5H409.9ZM409.9 192V189.5H417.4V192H409.9ZM425.3 204.5V189.5H427.8V194.5H435.3V189.5H437.8V204.5H435.3V197H427.8V204.5H425.3ZM455.7 209.5V204.5H443.2V189.5H445.7V202H453.2V189.5H455.7V202H458.2V209.5H455.7ZM466.1 199.5V194.5H468.6V199.5H466.1ZM461.1 204.5V189.5H463.6V199.5H466.1V202H463.6V204.5H461.1ZM471.1 204.5V194.5H468.6V192H471.1V189.5H473.6V204.5H471.1ZM479 204.5V202H481.5V204.5H479ZM479 197V192H481.5V197H479ZM489 204.5V199.5H484V202H481.5V197H489V192H481.5V189.5H491.5V204.5H489ZM501.9 204.5V199.5H504.4V204.5H501.9ZM501.9 194.5V189.5H504.4V194.5H501.9Z" fill="#252840"/>
<path d="M210.5 204.5H209.77V205.23H210.5V204.5ZM210.5 202V201.27H209.77V202H210.5ZM213 202H213.73V201.27H213V202ZM213 204.5V205.23H213.73V204.5H213ZM213 202H212.27V202.73H213V202ZM213 187V186.27H212.27V187H213ZM215.5 187H216.23V186.27H215.5V187ZM215.5 202V202.73H216.23V202H215.5ZM223 204.5H222.27V205.23H223V204.5ZM223 187H223.73V186.27H223V187ZM215.5 187H214.77V187.73H215.5V187ZM215.5 184.5V183.77H214.77V184.5H215.5ZM225.5 184.5H226.23V183.77H225.5V184.5ZM225.5 204.5V205.23H226.23V204.5H225.5ZM211.23 204.5V202H209.77V204.5H211.23ZM210.5 202.73H213V201.27H210.5V202.73ZM212.27 202V204.5H213.73V202H212.27ZM213 203.77H210.5V205.23H213V203.77ZM213.73 202V187H212.27V202H213.73ZM213 187.73H215.5V186.27H213V187.73ZM214.77 187V202H216.23V187H214.77ZM215.5 201.27H213V202.73H215.5V201.27ZM223.73 204.5V187H222.27V204.5H223.73ZM223 186.27H215.5V187.73H223V186.27ZM216.23 187V184.5H214.77V187H216.23ZM215.5 185.23H225.5V183.77H215.5V185.23ZM224.77 184.5V204.5H226.23V184.5H224.77ZM225.5 203.77H223V205.23H225.5V203.77ZM230.9 212H230.17V212.73H230.9V212ZM230.9 209.5V208.77H230.17V209.5H230.9ZM233.4 209.5H234.13V208.77H233.4V209.5ZM233.4 212V212.73H234.13V212H233.4ZM233.4 209.5H232.67V210.23H233.4V209.5ZM233.4 202V201.27H232.67V202H233.4ZM235.9 202H236.63V201.27H235.9V202ZM235.9 209.5V210.23H236.63V209.5H235.9ZM230.9 202H230.17V202.73H230.9V202ZM230.9 194.5V193.77H230.17V194.5H230.9ZM233.4 194.5H234.13V193.77H233.4V194.5ZM233.4 202V202.73H234.13V202H233.4ZM235.9 202H235.17V202.73H235.9V202ZM235.9 194.5V193.77H235.17V194.5H235.9ZM238.4 194.5H239.13V193.77H238.4V194.5ZM238.4 202V202.73H239.13V202H238.4ZM228.4 194.5H227.67V195.23H228.4V194.5ZM228.4 189.5V188.77H227.67V189.5H228.4ZM230.9 189.5H231.63V188.77H230.9V189.5ZM230.9 194.5V195.23H231.63V194.5H230.9ZM238.4 194.5H237.67V195.23H238.4V194.5ZM238.4 189.5V188.77H237.67V189.5H238.4ZM240.9 189.5H241.63V188.77H240.9V189.5ZM240.9 194.5V195.23H241.63V194.5H240.9ZM231.63 212V209.5H230.17V212H231.63ZM230.9 210.23H233.4V208.77H230.9V210.23ZM232.67 209.5V212H234.13V209.5H232.67ZM233.4 211.27H230.9V212.73H233.4V211.27ZM234.13 209.5V202H232.67V209.5H234.13ZM233.4 202.73H235.9V201.27H233.4V202.73ZM235.17 202V209.5H236.63V202H235.17ZM235.9 208.77H233.4V210.23H235.9V208.77ZM231.63 202V194.5H230.17V202H231.63ZM230.9 195.23H233.4V193.77H230.9V195.23ZM232.67 194.5V202H234.13V194.5H232.67ZM233.4 201.27H230.9V202.73H233.4V201.27ZM236.63 202V194.5H235.17V202H236.63ZM235.9 195.23H238.4V193.77H235.9V195.23ZM237.67 194.5V202H239.13V194.5H237.67ZM238.4 201.27H235.9V202.73H238.4V201.27ZM229.13 194.5V189.5H227.67V194.5H229.13ZM228.4 190.23H230.9V188.77H228.4V190.23ZM230.17 189.5V194.5H231.63V189.5H230.17ZM230.9 193.77H228.4V195.23H230.9V193.77ZM239.13 194.5V189.5H237.67V194.5H239.13ZM238.4 190.23H240.9V188.77H238.4V190.23ZM240.17 189.5V194.5H241.63V189.5H240.17ZM240.9 193.77H238.4V195.23H240.9V193.77ZM246.3 197H245.57V197.73H246.3V197ZM246.3 189.5V188.77H245.57V189.5H246.3ZM248.8 189.5H249.53V188.77H248.8V189.5ZM248.8 197V197.73H249.53V197H248.8ZM256.3 204.5H255.57V205.23H256.3V204.5ZM256.3 199.5H257.03V198.77H256.3V199.5ZM248.8 199.5H248.07V200.23H248.8V199.5ZM248.8 197V196.27H248.07V197H248.8ZM256.3 197V197.73H257.03V197H256.3ZM256.3 189.5V188.77H255.57V189.5H256.3ZM258.8 189.5H259.53V188.77H258.8V189.5ZM258.8 204.5V205.23H259.53V204.5H258.8ZM247.03 197V189.5H245.57V197H247.03ZM246.3 190.23H248.8V188.77H246.3V190.23ZM248.07 189.5V197H249.53V189.5H248.07ZM248.8 196.27H246.3V197.73H248.8V196.27ZM257.03 204.5V199.5H255.57V204.5H257.03ZM256.3 198.77H248.8V200.23H256.3V198.77ZM249.53 199.5V197H248.07V199.5H249.53ZM248.8 197.73H256.3V196.27H248.8V197.73ZM257.03 197V189.5H255.57V197H257.03ZM256.3 190.23H258.8V188.77H256.3V190.23ZM258.07 189.5V204.5H259.53V189.5H258.07ZM258.8 203.77H256.3V205.23H258.8V203.77ZM264.2 204.5H263.47V205.23H264.2V204.5ZM264.2 189.5V188.77H263.47V189.5H264.2ZM266.7 189.5H267.43V188.77H266.7V189.5ZM266.7 202H265.97V202.73H266.7V202ZM269.2 202V202.73H269.93V202H269.2ZM269.2 189.5V188.77H268.47V189.5H269.2ZM271.7 189.5H272.43V188.77H271.7V189.5ZM271.7 202H270.97V202.73H271.7V202ZM274.2 202V202.73H274.93V202H274.2ZM274.2 189.5V188.77H273.47V189.5H274.2ZM276.7 189.5H277.43V188.77H276.7V189.5ZM276.7 204.5V205.23H277.43V204.5H276.7ZM264.93 204.5V189.5H263.47V204.5H264.93ZM264.2 190.23H266.7V188.77H264.2V190.23ZM265.97 189.5V202H267.43V189.5H265.97ZM266.7 202.73H269.2V201.27H266.7V202.73ZM269.93 202V189.5H268.47V202H269.93ZM269.2 190.23H271.7V188.77H269.2V190.23ZM270.97 189.5V202H272.43V189.5H270.97ZM271.7 202.73H274.2V201.27H271.7V202.73ZM274.93 202V189.5H273.47V202H274.93ZM274.2 190.23H276.7V188.77H274.2V190.23ZM275.97 189.5V204.5H277.43V189.5H275.97ZM276.7 203.77H264.2V205.23H276.7V203.77ZM282.1 202H281.37V202.73H282.1V202ZM282.1 197V196.27H281.37V197H282.1ZM284.6 197H285.33V196.27H284.6V197ZM284.6 202V202.73H285.33V202H284.6ZM284.6 204.5H283.87V205.23H284.6V204.5ZM284.6 202V201.27H283.87V202H284.6ZM292.1 202V202.73H292.83V202H292.1ZM292.1 197H292.83V196.27H292.1V197ZM284.6 197H283.87V197.73H284.6V197ZM284.6 194.5V193.77H283.87V194.5H284.6ZM292.1 194.5V195.23H292.83V194.5H292.1ZM292.1 192V191.27H291.37V192H292.1ZM294.6 192H295.33V191.27H294.6V192ZM294.6 204.5V205.23H295.33V204.5H294.6ZM284.6 192H283.87V192.73H284.6V192ZM284.6 189.5V188.77H283.87V189.5H284.6ZM292.1 189.5H292.83V188.77H292.1V189.5ZM292.1 192V192.73H292.83V192H292.1ZM282.83 202V197H281.37V202H282.83ZM282.1 197.73H284.6V196.27H282.1V197.73ZM283.87 197V202H285.33V197H283.87ZM284.6 201.27H282.1V202.73H284.6V201.27ZM285.33 204.5V202H283.87V204.5H285.33ZM284.6 202.73H292.1V201.27H284.6V202.73ZM292.83 202V197H291.37V202H292.83ZM292.1 196.27H284.6V197.73H292.1V196.27ZM285.33 197V194.5H283.87V197H285.33ZM284.6 195.23H292.1V193.77H284.6V195.23ZM292.83 194.5V192H291.37V194.5H292.83ZM292.1 192.73H294.6V191.27H292.1V192.73ZM293.87 192V204.5H295.33V192H293.87ZM294.6 203.77H284.6V205.23H294.6V203.77ZM285.33 192V189.5H283.87V192H285.33ZM284.6 190.23H292.1V188.77H284.6V190.23ZM291.37 189.5V192H292.83V189.5H291.37ZM292.1 191.27H284.6V192.73H292.1V191.27ZM300 204.5H299.27V205.23H300V204.5ZM300 202V201.27H299.27V202H300ZM302.5 202H303.23V201.27H302.5V202ZM302.5 204.5V205.23H303.23V204.5H302.5ZM300 197H299.27V197.73H300V197ZM300 192V191.27H299.27V192H300ZM302.5 192H303.23V191.27H302.5V192ZM302.5 197V197.73H303.23V197H302.5ZM310 204.5H309.27V205.23H310V204.5ZM310 199.5H310.73V198.77H310V199.5ZM305 199.5V198.77H304.27V199.5H305ZM305 202V202.73H305.73V202H305ZM302.5 202H301.77V202.73H302.5V202ZM302.5 197V196.27H301.77V197H302.5ZM310 197V197.73H310.73V197H310ZM310 192H310.73V191.27H310V192ZM302.5 192H301.77V192.73H302.5V192ZM302.5 189.5V188.77H301.77V189.5H302.5ZM312.5 189.5H313.23V188.77H312.5V189.5ZM312.5 204.5V205.23H313.23V204.5H312.5ZM300.73 204.5V202H299.27V204.5H300.73ZM300 202.73H302.5V201.27H300V202.73ZM301.77 202V204.5H303.23V202H301.77ZM302.5 203.77H300V205.23H302.5V203.77ZM300.73 197V192H299.27V197H300.73ZM300 192.73H302.5V191.27H300V192.73ZM301.77 192V197H303.23V192H301.77ZM302.5 196.27H300V197.73H302.5V196.27ZM310.73 204.5V199.5H309.27V204.5H310.73ZM310 198.77H305V200.23H310V198.77ZM304.27 199.5V202H305.73V199.5H304.27ZM305 201.27H302.5V202.73H305V201.27ZM303.23 202V197H301.77V202H303.23ZM302.5 197.73H310V196.27H302.5V197.73ZM310.73 197V192H309.27V197H310.73ZM310 191.27H302.5V192.73H310V191.27ZM303.23 192V189.5H301.77V192H303.23ZM302.5 190.23H312.5V188.77H302.5V190.23ZM311.77 189.5V204.5H313.23V189.5H311.77ZM312.5 203.77H310V205.23H312.5V203.77ZM333.3 209.5H332.57V210.23H333.3V209.5ZM333.3 202V201.27H332.57V202H333.3ZM335.8 202V202.73H336.53V202H335.8ZM335.8 192V191.27H335.07V192H335.8ZM338.3 192H339.03V191.27H338.3V192ZM338.3 202H337.57V202.73H338.3V202ZM345.8 202V202.73H346.53V202H345.8ZM345.8 192H346.53V191.27H345.8V192ZM338.3 192H337.57V192.73H338.3V192ZM338.3 189.5V188.77H337.57V189.5H338.3ZM348.3 189.5H349.03V188.77H348.3V189.5ZM348.3 202H347.57V202.73H348.3V202ZM350.8 202H351.53V201.27H350.8V202ZM350.8 209.5V210.23H351.53V209.5H350.8ZM348.3 209.5H347.57V210.23H348.3V209.5ZM348.3 204.5H349.03V203.77H348.3V204.5ZM335.8 204.5V203.77H335.07V204.5H335.8ZM335.8 209.5V210.23H336.53V209.5H335.8ZM334.03 209.5V202H332.57V209.5H334.03ZM333.3 202.73H335.8V201.27H333.3V202.73ZM336.53 202V192H335.07V202H336.53ZM335.8 192.73H338.3V191.27H335.8V192.73ZM337.57 192V202H339.03V192H337.57ZM338.3 202.73H345.8V201.27H338.3V202.73ZM346.53 202V192H345.07V202H346.53ZM345.8 191.27H338.3V192.73H345.8V191.27ZM339.03 192V189.5H337.57V192H339.03ZM338.3 190.23H348.3V188.77H338.3V190.23ZM347.57 189.5V202H349.03V189.5H347.57ZM348.3 202.73H350.8V201.27H348.3V202.73ZM350.07 202V209.5H351.53V202H350.07ZM350.8 208.77H348.3V210.23H350.8V208.77ZM349.03 209.5V204.5H347.57V209.5H349.03ZM348.3 203.77H335.8V205.23H348.3V203.77ZM335.07 204.5V209.5H336.53V204.5H335.07ZM335.8 208.77H333.3V210.23H335.8V208.77ZM358.7 199.5H357.97V200.23H358.7V199.5ZM358.7 194.5V193.77H357.97V194.5H358.7ZM361.2 194.5H361.93V193.77H361.2V194.5ZM361.2 199.5V200.23H361.93V199.5H361.2ZM353.7 204.5H352.97V205.23H353.7V204.5ZM353.7 189.5V188.77H352.97V189.5H353.7ZM356.2 189.5H356.93V188.77H356.2V189.5ZM356.2 199.5H355.47V200.23H356.2V199.5ZM358.7 199.5H359.43V198.77H358.7V199.5ZM358.7 202V202.73H359.43V202H358.7ZM356.2 202V201.27H355.47V202H356.2ZM356.2 204.5V205.23H356.93V204.5H356.2ZM363.7 204.5H362.97V205.23H363.7V204.5ZM363.7 194.5H364.43V193.77H363.7V194.5ZM361.2 194.5H360.47V195.23H361.2V194.5ZM361.2 192V191.27H360.47V192H361.2ZM363.7 192V192.73H364.43V192H363.7ZM363.7 189.5V188.77H362.97V189.5H363.7ZM366.2 189.5H366.93V188.77H366.2V189.5ZM366.2 204.5V205.23H366.93V204.5H366.2ZM359.43 199.5V194.5H357.97V199.5H359.43ZM358.7 195.23H361.2V193.77H358.7V195.23ZM360.47 194.5V199.5H361.93V194.5H360.47ZM361.2 198.77H358.7V200.23H361.2V198.77ZM354.43 204.5V189.5H352.97V204.5H354.43ZM353.7 190.23H356.2V188.77H353.7V190.23ZM355.47 189.5V199.5H356.93V189.5H355.47ZM356.2 200.23H358.7V198.77H356.2V200.23ZM357.97 199.5V202H359.43V199.5H357.97ZM358.7 201.27H356.2V202.73H358.7V201.27ZM355.47 202V204.5H356.93V202H355.47ZM356.2 203.77H353.7V205.23H356.2V203.77ZM364.43 204.5V194.5H362.97V204.5H364.43ZM363.7 193.77H361.2V195.23H363.7V193.77ZM361.93 194.5V192H360.47V194.5H361.93ZM361.2 192.73H363.7V191.27H361.2V192.73ZM364.43 192V189.5H362.97V192H364.43ZM363.7 190.23H366.2V188.77H363.7V190.23ZM365.47 189.5V204.5H366.93V189.5H365.47ZM366.2 203.77H363.7V205.23H366.2V203.77ZM374.1 204.5H373.37V205.23H374.1V204.5ZM374.1 202V201.27H373.37V202H374.1ZM381.6 202H382.33V201.27H381.6V202ZM381.6 204.5V205.23H382.33V204.5H381.6ZM381.6 202H380.87V202.73H381.6V202ZM381.6 199.5V198.77H380.87V199.5H381.6ZM384.1 199.5H384.83V198.77H384.1V199.5ZM384.1 202V202.73H384.83V202H384.1ZM371.6 202H370.87V202.73H371.6V202ZM371.6 192V191.27H370.87V192H371.6ZM374.1 192H374.83V191.27H374.1V192ZM374.1 202V202.73H374.83V202H374.1ZM381.6 194.5H380.87V195.23H381.6V194.5ZM381.6 192V191.27H380.87V192H381.6ZM384.1 192H384.83V191.27H384.1V192ZM384.1 194.5V195.23H384.83V194.5H384.1ZM374.1 192H373.37V192.73H374.1V192ZM374.1 189.5V188.77H373.37V189.5H374.1ZM381.6 189.5H382.33V188.77H381.6V189.5ZM381.6 192V192.73H382.33V192H381.6ZM374.83 204.5V202H373.37V204.5H374.83ZM374.1 202.73H381.6V201.27H374.1V202.73ZM380.87 202V204.5H382.33V202H380.87ZM381.6 203.77H374.1V205.23H381.6V203.77ZM382.33 202V199.5H380.87V202H382.33ZM381.6 200.23H384.1V198.77H381.6V200.23ZM383.37 199.5V202H384.83V199.5H383.37ZM384.1 201.27H381.6V202.73H384.1V201.27ZM372.33 202V192H370.87V202H372.33ZM371.6 192.73H374.1V191.27H371.6V192.73ZM373.37 192V202H374.83V192H373.37ZM374.1 201.27H371.6V202.73H374.1V201.27ZM382.33 194.5V192H380.87V194.5H382.33ZM381.6 192.73H384.1V191.27H381.6V192.73ZM383.37 192V194.5H384.83V192H383.37ZM384.1 193.77H381.6V195.23H384.1V193.77ZM374.83 192V189.5H373.37V192H374.83ZM374.1 190.23H381.6V188.77H374.1V190.23ZM380.87 189.5V192H382.33V189.5H380.87ZM381.6 191.27H374.1V192.73H381.6V191.27ZM394.5 204.5H393.77V205.23H394.5V204.5ZM394.5 192H395.23V191.27H394.5V192ZM389.5 192H388.77V192.73H389.5V192ZM389.5 189.5V188.77H388.77V189.5H389.5ZM402 189.5H402.73V188.77H402V189.5ZM402 192V192.73H402.73V192H402ZM397 192V191.27H396.27V192H397ZM397 204.5V205.23H397.73V204.5H397ZM395.23 204.5V192H393.77V204.5H395.23ZM394.5 191.27H389.5V192.73H394.5V191.27ZM390.23 192V189.5H388.77V192H390.23ZM389.5 190.23H402V188.77H389.5V190.23ZM401.27 189.5V192H402.73V189.5H401.27ZM402 191.27H397V192.73H402V191.27ZM396.27 192V204.5H397.73V192H396.27ZM397 203.77H394.5V205.23H397V203.77ZM407.4 202H406.67V202.73H407.4V202ZM407.4 197V196.27H406.67V197H407.4ZM409.9 197H410.63V196.27H409.9V197ZM409.9 202V202.73H410.63V202H409.9ZM409.9 204.5H409.17V205.23H409.9V204.5ZM409.9 202V201.27H409.17V202H409.9ZM417.4 202V202.73H418.13V202H417.4ZM417.4 197H418.13V196.27H417.4V197ZM409.9 197H409.17V197.73H409.9V197ZM409.9 194.5V193.77H409.17V194.5H409.9ZM417.4 194.5V195.23H418.13V194.5H417.4ZM417.4 192V191.27H416.67V192H417.4ZM419.9 192H420.63V191.27H419.9V192ZM419.9 204.5V205.23H420.63V204.5H419.9ZM409.9 192H409.17V192.73H409.9V192ZM409.9 189.5V188.77H409.17V189.5H409.9ZM417.4 189.5H418.13V188.77H417.4V189.5ZM417.4 192V192.73H418.13V192H417.4ZM408.13 202V197H406.67V202H408.13ZM407.4 197.73H409.9V196.27H407.4V197.73ZM409.17 197V202H410.63V197H409.17ZM409.9 201.27H407.4V202.73H409.9V201.27ZM410.63 204.5V202H409.17V204.5H410.63ZM409.9 202.73H417.4V201.27H409.9V202.73ZM418.13 202V197H416.67V202H418.13ZM417.4 196.27H409.9V197.73H417.4V196.27ZM410.63 197V194.5H409.17V197H410.63ZM409.9 195.23H417.4V193.77H409.9V195.23ZM418.13 194.5V192H416.67V194.5H418.13ZM417.4 192.73H419.9V191.27H417.4V192.73ZM419.17 192V204.5H420.63V192H419.17ZM419.9 203.77H409.9V205.23H419.9V203.77ZM410.63 192V189.5H409.17V192H410.63ZM409.9 190.23H417.4V188.77H409.9V190.23ZM416.67 189.5V192H418.13V189.5H416.67ZM417.4 191.27H409.9V192.73H417.4V191.27ZM425.3 204.5H424.57V205.23H425.3V204.5ZM425.3 189.5V188.77H424.57V189.5H425.3ZM427.8 189.5H428.53V188.77H427.8V189.5ZM427.8 194.5H427.07V195.23H427.8V194.5ZM435.3 194.5V195.23H436.03V194.5H435.3ZM435.3 189.5V188.77H434.57V189.5H435.3ZM437.8 189.5H438.53V188.77H437.8V189.5ZM437.8 204.5V205.23H438.53V204.5H437.8ZM435.3 204.5H434.57V205.23H435.3V204.5ZM435.3 197H436.03V196.27H435.3V197ZM427.8 197V196.27H427.07V197H427.8ZM427.8 204.5V205.23H428.53V204.5H427.8ZM426.03 204.5V189.5H424.57V204.5H426.03ZM425.3 190.23H427.8V188.77H425.3V190.23ZM427.07 189.5V194.5H428.53V189.5H427.07ZM427.8 195.23H435.3V193.77H427.8V195.23ZM436.03 194.5V189.5H434.57V194.5H436.03ZM435.3 190.23H437.8V188.77H435.3V190.23ZM437.07 189.5V204.5H438.53V189.5H437.07ZM437.8 203.77H435.3V205.23H437.8V203.77ZM436.03 204.5V197H434.57V204.5H436.03ZM435.3 196.27H427.8V197.73H435.3V196.27ZM427.07 197V204.5H428.53V197H427.07ZM427.8 203.77H425.3V205.23H427.8V203.77ZM455.7 209.5H454.97V210.23H455.7V209.5ZM455.7 204.5H456.43V203.77H455.7V204.5ZM443.2 204.5H442.47V205.23H443.2V204.5ZM443.2 189.5V188.77H442.47V189.5H443.2ZM445.7 189.5H446.43V188.77H445.7V189.5ZM445.7 202H444.97V202.73H445.7V202ZM453.2 202V202.73H453.93V202H453.2ZM453.2 189.5V188.77H452.47V189.5H453.2ZM455.7 189.5H456.43V188.77H455.7V189.5ZM455.7 202H454.97V202.73H455.7V202ZM458.2 202H458.93V201.27H458.2V202ZM458.2 209.5V210.23H458.93V209.5H458.2ZM456.43 209.5V204.5H454.97V209.5H456.43ZM455.7 203.77H443.2V205.23H455.7V203.77ZM443.93 204.5V189.5H442.47V204.5H443.93ZM443.2 190.23H445.7V188.77H443.2V190.23ZM444.97 189.5V202H446.43V189.5H444.97ZM445.7 202.73H453.2V201.27H445.7V202.73ZM453.93 202V189.5H452.47V202H453.93ZM453.2 190.23H455.7V188.77H453.2V190.23ZM454.97 189.5V202H456.43V189.5H454.97ZM455.7 202.73H458.2V201.27H455.7V202.73ZM457.47 202V209.5H458.93V202H457.47ZM458.2 208.77H455.7V210.23H458.2V208.77ZM466.1 199.5H465.37V200.23H466.1V199.5ZM466.1 194.5V193.77H465.37V194.5H466.1ZM468.6 194.5H469.33V193.77H468.6V194.5ZM468.6 199.5V200.23H469.33V199.5H468.6ZM461.1 204.5H460.37V205.23H461.1V204.5ZM461.1 189.5V188.77H460.37V189.5H461.1ZM463.6 189.5H464.33V188.77H463.6V189.5ZM463.6 199.5H462.87V200.23H463.6V199.5ZM466.1 199.5H466.83V198.77H466.1V199.5ZM466.1 202V202.73H466.83V202H466.1ZM463.6 202V201.27H462.87V202H463.6ZM463.6 204.5V205.23H464.33V204.5H463.6ZM471.1 204.5H470.37V205.23H471.1V204.5ZM471.1 194.5H471.83V193.77H471.1V194.5ZM468.6 194.5H467.87V195.23H468.6V194.5ZM468.6 192V191.27H467.87V192H468.6ZM471.1 192V192.73H471.83V192H471.1ZM471.1 189.5V188.77H470.37V189.5H471.1ZM473.6 189.5H474.33V188.77H473.6V189.5ZM473.6 204.5V205.23H474.33V204.5H473.6ZM466.83 199.5V194.5H465.37V199.5H466.83ZM466.1 195.23H468.6V193.77H466.1V195.23ZM467.87 194.5V199.5H469.33V194.5H467.87ZM468.6 198.77H466.1V200.23H468.6V198.77ZM461.83 204.5V189.5H460.37V204.5H461.83ZM461.1 190.23H463.6V188.77H461.1V190.23ZM462.87 189.5V199.5H464.33V189.5H462.87ZM463.6 200.23H466.1V198.77H463.6V200.23ZM465.37 199.5V202H466.83V199.5H465.37ZM466.1 201.27H463.6V202.73H466.1V201.27ZM462.87 202V204.5H464.33V202H462.87ZM463.6 203.77H461.1V205.23H463.6V203.77ZM471.83 204.5V194.5H470.37V204.5H471.83ZM471.1 193.77H468.6V195.23H471.1V193.77ZM469.33 194.5V192H467.87V194.5H469.33ZM468.6 192.73H471.1V191.27H468.6V192.73ZM471.83 192V189.5H470.37V192H471.83ZM471.1 190.23H473.6V188.77H471.1V190.23ZM472.87 189.5V204.5H474.33V189.5H472.87ZM473.6 203.77H471.1V205.23H473.6V203.77ZM479 204.5H478.27V205.23H479V204.5ZM479 202V201.27H478.27V202H479ZM481.5 202H482.23V201.27H481.5V202ZM481.5 204.5V205.23H482.23V204.5H481.5ZM479 197H478.27V197.73H479V197ZM479 192V191.27H478.27V192H479ZM481.5 192H482.23V191.27H481.5V192ZM481.5 197V197.73H482.23V197H481.5ZM489 204.5H488.27V205.23H489V204.5ZM489 199.5H489.73V198.77H489V199.5ZM484 199.5V198.77H483.27V199.5H484ZM484 202V202.73H484.73V202H484ZM481.5 202H480.77V202.73H481.5V202ZM481.5 197V196.27H480.77V197H481.5ZM489 197V197.73H489.73V197H489ZM489 192H489.73V191.27H489V192ZM481.5 192H480.77V192.73H481.5V192ZM481.5 189.5V188.77H480.77V189.5H481.5ZM491.5 189.5H492.23V188.77H491.5V189.5ZM491.5 204.5V205.23H492.23V204.5H491.5ZM479.73 204.5V202H478.27V204.5H479.73ZM479 202.73H481.5V201.27H479V202.73ZM480.77 202V204.5H482.23V202H480.77ZM481.5 203.77H479V205.23H481.5V203.77ZM479.73 197V192H478.27V197H479.73ZM479 192.73H481.5V191.27H479V192.73ZM480.77 192V197H482.23V192H480.77ZM481.5 196.27H479V197.73H481.5V196.27ZM489.73 204.5V199.5H488.27V204.5H489.73ZM489 198.77H484V200.23H489V198.77ZM483.27 199.5V202H484.73V199.5H483.27ZM484 201.27H481.5V202.73H484V201.27ZM482.23 202V197H480.77V202H482.23ZM481.5 197.73H489V196.27H481.5V197.73ZM489.73 197V192H488.27V197H489.73ZM489 191.27H481.5V192.73H489V191.27ZM482.23 192V189.5H480.77V192H482.23ZM481.5 190.23H491.5V188.77H481.5V190.23ZM490.77 189.5V204.5H492.23V189.5H490.77ZM491.5 203.77H489V205.23H491.5V203.77ZM501.9 204.5H501.17V205.23H501.9V204.5ZM501.9 199.5V198.77H501.17V199.5H501.9ZM504.4 199.5H505.13V198.77H504.4V199.5ZM504.4 204.5V205.23H505.13V204.5H504.4ZM501.9 194.5H501.17V195.23H501.9V194.5ZM501.9 189.5V188.77H501.17V189.5H501.9ZM504.4 189.5H505.13V188.77H504.4V189.5ZM504.4 194.5V195.23H505.13V194.5H504.4ZM502.63 204.5V199.5H501.17V204.5H502.63ZM501.9 200.23H504.4V198.77H501.9V200.23ZM503.67 199.5V204.5H505.13V199.5H503.67ZM504.4 203.77H501.9V205.23H504.4V203.77ZM502.63 194.5V189.5H501.17V194.5H502.63ZM501.9 190.23H504.4V188.77H501.9V190.23ZM503.67 189.5V194.5H505.13V189.5H503.67ZM504.4 193.77H501.9V195.23H504.4V193.77Z" fill="#252840" mask="url(#path-105-outside-1_97_15364)"/>
<mask id="path-107-outside-2_97_15364" maskUnits="userSpaceOnUse" x="209" y="219.5" width="261" height="27" fill="black">
<rect fill="white" x="209" y="219.5" width="261" height="27"/>
<path d="M223 238V230.5H225.5V238H223ZM210.5 240.5V220.5H220.5V223H213V228H220.5V223H223V230.5H213V238H223V240.5H210.5ZM228.4 238V233H230.9V238H228.4ZM230.9 240.5V238H238.4V233H230.9V230.5H238.4V228H240.9V240.5H230.9ZM230.9 228V225.5H238.4V228H230.9ZM246.3 240.5V225.5H248.8V238H251.3V225.5H253.8V238H256.3V225.5H258.8V240.5H246.3ZM264.2 238V233H266.7V238H264.2ZM266.7 240.5V238H274.2V233H266.7V230.5H274.2V228H276.7V240.5H266.7ZM266.7 228V225.5H274.2V228H266.7ZM297.5 245.5V238H300V228H302.5V238H310V228H302.5V225.5H312.5V238H315V245.5H312.5V240.5H300V245.5H297.5ZM322.9 235.5V230.5H325.4V235.5H322.9ZM317.9 240.5V225.5H320.4V235.5H322.9V238H320.4V240.5H317.9ZM327.9 240.5V230.5H325.4V228H327.9V225.5H330.4V240.5H327.9ZM338.3 240.5V238H345.8V240.5H338.3ZM345.8 238V235.5H348.3V238H345.8ZM335.8 238V228H338.3V238H335.8ZM345.8 230.5V228H348.3V230.5H345.8ZM338.3 228V225.5H345.8V228H338.3ZM358.7 240.5V228H353.7V225.5H366.2V228H361.2V240.5H358.7ZM371.6 238V233H374.1V238H371.6ZM374.1 240.5V238H381.6V233H374.1V230.5H381.6V228H384.1V240.5H374.1ZM374.1 228V225.5H381.6V228H374.1ZM389.5 240.5V225.5H392V230.5H399.5V225.5H402V240.5H399.5V233H392V240.5H389.5ZM419.9 245.5V240.5H407.4V225.5H409.9V238H417.4V225.5H419.9V238H422.4V245.5H419.9ZM430.3 235.5V230.5H432.8V235.5H430.3ZM425.3 240.5V225.5H427.8V235.5H430.3V238H427.8V240.5H425.3ZM435.3 240.5V230.5H432.8V228H435.3V225.5H437.8V240.5H435.3ZM443.2 240.5V238H445.7V240.5H443.2ZM443.2 233V228H445.7V233H443.2ZM453.2 240.5V235.5H448.2V238H445.7V233H453.2V228H445.7V225.5H455.7V240.5H453.2ZM466.1 240.5V235.5H468.6V240.5H466.1ZM466.1 230.5V225.5H468.6V230.5H466.1Z"/>
</mask>
<path d="M223 238V230.5H225.5V238H223ZM210.5 240.5V220.5H220.5V223H213V228H220.5V223H223V230.5H213V238H223V240.5H210.5ZM228.4 238V233H230.9V238H228.4ZM230.9 240.5V238H238.4V233H230.9V230.5H238.4V228H240.9V240.5H230.9ZM230.9 228V225.5H238.4V228H230.9ZM246.3 240.5V225.5H248.8V238H251.3V225.5H253.8V238H256.3V225.5H258.8V240.5H246.3ZM264.2 238V233H266.7V238H264.2ZM266.7 240.5V238H274.2V233H266.7V230.5H274.2V228H276.7V240.5H266.7ZM266.7 228V225.5H274.2V228H266.7ZM297.5 245.5V238H300V228H302.5V238H310V228H302.5V225.5H312.5V238H315V245.5H312.5V240.5H300V245.5H297.5ZM322.9 235.5V230.5H325.4V235.5H322.9ZM317.9 240.5V225.5H320.4V235.5H322.9V238H320.4V240.5H317.9ZM327.9 240.5V230.5H325.4V228H327.9V225.5H330.4V240.5H327.9ZM338.3 240.5V238H345.8V240.5H338.3ZM345.8 238V235.5H348.3V238H345.8ZM335.8 238V228H338.3V238H335.8ZM345.8 230.5V228H348.3V230.5H345.8ZM338.3 228V225.5H345.8V228H338.3ZM358.7 240.5V228H353.7V225.5H366.2V228H361.2V240.5H358.7ZM371.6 238V233H374.1V238H371.6ZM374.1 240.5V238H381.6V233H374.1V230.5H381.6V228H384.1V240.5H374.1ZM374.1 228V225.5H381.6V228H374.1ZM389.5 240.5V225.5H392V230.5H399.5V225.5H402V240.5H399.5V233H392V240.5H389.5ZM419.9 245.5V240.5H407.4V225.5H409.9V238H417.4V225.5H419.9V238H422.4V245.5H419.9ZM430.3 235.5V230.5H432.8V235.5H430.3ZM425.3 240.5V225.5H427.8V235.5H430.3V238H427.8V240.5H425.3ZM435.3 240.5V230.5H432.8V228H435.3V225.5H437.8V240.5H435.3ZM443.2 240.5V238H445.7V240.5H443.2ZM443.2 233V228H445.7V233H443.2ZM453.2 240.5V235.5H448.2V238H445.7V233H453.2V228H445.7V225.5H455.7V240.5H453.2ZM466.1 240.5V235.5H468.6V240.5H466.1ZM466.1 230.5V225.5H468.6V230.5H466.1Z" fill="#252840"/>
<path d="M223 238H222.27V238.73H223V238ZM223 230.5V229.77H222.27V230.5H223ZM225.5 230.5H226.23V229.77H225.5V230.5ZM225.5 238V238.73H226.23V238H225.5ZM210.5 240.5H209.77V241.23H210.5V240.5ZM210.5 220.5V219.77H209.77V220.5H210.5ZM220.5 220.5H221.23V219.77H220.5V220.5ZM220.5 223V223.73H221.23V223H220.5ZM213 223V222.27H212.27V223H213ZM213 228H212.27V228.73H213V228ZM220.5 228V228.73H221.23V228H220.5ZM220.5 223V222.27H219.77V223H220.5ZM223 223H223.73V222.27H223V223ZM223 230.5V231.23H223.73V230.5H223ZM213 230.5V229.77H212.27V230.5H213ZM213 238H212.27V238.73H213V238ZM223 238H223.73V237.27H223V238ZM223 240.5V241.23H223.73V240.5H223ZM223.73 238V230.5H222.27V238H223.73ZM223 231.23H225.5V229.77H223V231.23ZM224.77 230.5V238H226.23V230.5H224.77ZM225.5 237.27H223V238.73H225.5V237.27ZM211.23 240.5V220.5H209.77V240.5H211.23ZM210.5 221.23H220.5V219.77H210.5V221.23ZM219.77 220.5V223H221.23V220.5H219.77ZM220.5 222.27H213V223.73H220.5V222.27ZM212.27 223V228H213.73V223H212.27ZM213 228.73H220.5V227.27H213V228.73ZM221.23 228V223H219.77V228H221.23ZM220.5 223.73H223V222.27H220.5V223.73ZM222.27 223V230.5H223.73V223H222.27ZM223 229.77H213V231.23H223V229.77ZM212.27 230.5V238H213.73V230.5H212.27ZM213 238.73H223V237.27H213V238.73ZM222.27 238V240.5H223.73V238H222.27ZM223 239.77H210.5V241.23H223V239.77ZM228.4 238H227.67V238.73H228.4V238ZM228.4 233V232.27H227.67V233H228.4ZM230.9 233H231.63V232.27H230.9V233ZM230.9 238V238.73H231.63V238H230.9ZM230.9 240.5H230.17V241.23H230.9V240.5ZM230.9 238V237.27H230.17V238H230.9ZM238.4 238V238.73H239.13V238H238.4ZM238.4 233H239.13V232.27H238.4V233ZM230.9 233H230.17V233.73H230.9V233ZM230.9 230.5V229.77H230.17V230.5H230.9ZM238.4 230.5V231.23H239.13V230.5H238.4ZM238.4 228V227.27H237.67V228H238.4ZM240.9 228H241.63V227.27H240.9V228ZM240.9 240.5V241.23H241.63V240.5H240.9ZM230.9 228H230.17V228.73H230.9V228ZM230.9 225.5V224.77H230.17V225.5H230.9ZM238.4 225.5H239.13V224.77H238.4V225.5ZM238.4 228V228.73H239.13V228H238.4ZM229.13 238V233H227.67V238H229.13ZM228.4 233.73H230.9V232.27H228.4V233.73ZM230.17 233V238H231.63V233H230.17ZM230.9 237.27H228.4V238.73H230.9V237.27ZM231.63 240.5V238H230.17V240.5H231.63ZM230.9 238.73H238.4V237.27H230.9V238.73ZM239.13 238V233H237.67V238H239.13ZM238.4 232.27H230.9V233.73H238.4V232.27ZM231.63 233V230.5H230.17V233H231.63ZM230.9 231.23H238.4V229.77H230.9V231.23ZM239.13 230.5V228H237.67V230.5H239.13ZM238.4 228.73H240.9V227.27H238.4V228.73ZM240.17 228V240.5H241.63V228H240.17ZM240.9 239.77H230.9V241.23H240.9V239.77ZM231.63 228V225.5H230.17V228H231.63ZM230.9 226.23H238.4V224.77H230.9V226.23ZM237.67 225.5V228H239.13V225.5H237.67ZM238.4 227.27H230.9V228.73H238.4V227.27ZM246.3 240.5H245.57V241.23H246.3V240.5ZM246.3 225.5V224.77H245.57V225.5H246.3ZM248.8 225.5H249.53V224.77H248.8V225.5ZM248.8 238H248.07V238.73H248.8V238ZM251.3 238V238.73H252.03V238H251.3ZM251.3 225.5V224.77H250.57V225.5H251.3ZM253.8 225.5H254.53V224.77H253.8V225.5ZM253.8 238H253.07V238.73H253.8V238ZM256.3 238V238.73H257.03V238H256.3ZM256.3 225.5V224.77H255.57V225.5H256.3ZM258.8 225.5H259.53V224.77H258.8V225.5ZM258.8 240.5V241.23H259.53V240.5H258.8ZM247.03 240.5V225.5H245.57V240.5H247.03ZM246.3 226.23H248.8V224.77H246.3V226.23ZM248.07 225.5V238H249.53V225.5H248.07ZM248.8 238.73H251.3V237.27H248.8V238.73ZM252.03 238V225.5H250.57V238H252.03ZM251.3 226.23H253.8V224.77H251.3V226.23ZM253.07 225.5V238H254.53V225.5H253.07ZM253.8 238.73H256.3V237.27H253.8V238.73ZM257.03 238V225.5H255.57V238H257.03ZM256.3 226.23H258.8V224.77H256.3V226.23ZM258.07 225.5V240.5H259.53V225.5H258.07ZM258.8 239.77H246.3V241.23H258.8V239.77ZM264.2 238H263.47V238.73H264.2V238ZM264.2 233V232.27H263.47V233H264.2ZM266.7 233H267.43V232.27H266.7V233ZM266.7 238V238.73H267.43V238H266.7ZM266.7 240.5H265.97V241.23H266.7V240.5ZM266.7 238V237.27H265.97V238H266.7ZM274.2 238V238.73H274.93V238H274.2ZM274.2 233H274.93V232.27H274.2V233ZM266.7 233H265.97V233.73H266.7V233ZM266.7 230.5V229.77H265.97V230.5H266.7ZM274.2 230.5V231.23H274.93V230.5H274.2ZM274.2 228V227.27H273.47V228H274.2ZM276.7 228H277.43V227.27H276.7V228ZM276.7 240.5V241.23H277.43V240.5H276.7ZM266.7 228H265.97V228.73H266.7V228ZM266.7 225.5V224.77H265.97V225.5H266.7ZM274.2 225.5H274.93V224.77H274.2V225.5ZM274.2 228V228.73H274.93V228H274.2ZM264.93 238V233H263.47V238H264.93ZM264.2 233.73H266.7V232.27H264.2V233.73ZM265.97 233V238H267.43V233H265.97ZM266.7 237.27H264.2V238.73H266.7V237.27ZM267.43 240.5V238H265.97V240.5H267.43ZM266.7 238.73H274.2V237.27H266.7V238.73ZM274.93 238V233H273.47V238H274.93ZM274.2 232.27H266.7V233.73H274.2V232.27ZM267.43 233V230.5H265.97V233H267.43ZM266.7 231.23H274.2V229.77H266.7V231.23ZM274.93 230.5V228H273.47V230.5H274.93ZM274.2 228.73H276.7V227.27H274.2V228.73ZM275.97 228V240.5H277.43V228H275.97ZM276.7 239.77H266.7V241.23H276.7V239.77ZM267.43 228V225.5H265.97V228H267.43ZM266.7 226.23H274.2V224.77H266.7V226.23ZM273.47 225.5V228H274.93V225.5H273.47ZM274.2 227.27H266.7V228.73H274.2V227.27ZM297.5 245.5H296.77V246.23H297.5V245.5ZM297.5 238V237.27H296.77V238H297.5ZM300 238V238.73H300.73V238H300ZM300 228V227.27H299.27V228H300ZM302.5 228H303.23V227.27H302.5V228ZM302.5 238H301.77V238.73H302.5V238ZM310 238V238.73H310.73V238H310ZM310 228H310.73V227.27H310V228ZM302.5 228H301.77V228.73H302.5V228ZM302.5 225.5V224.77H301.77V225.5H302.5ZM312.5 225.5H313.23V224.77H312.5V225.5ZM312.5 238H311.77V238.73H312.5V238ZM315 238H315.73V237.27H315V238ZM315 245.5V246.23H315.73V245.5H315ZM312.5 245.5H311.77V246.23H312.5V245.5ZM312.5 240.5H313.23V239.77H312.5V240.5ZM300 240.5V239.77H299.27V240.5H300ZM300 245.5V246.23H300.73V245.5H300ZM298.23 245.5V238H296.77V245.5H298.23ZM297.5 238.73H300V237.27H297.5V238.73ZM300.73 238V228H299.27V238H300.73ZM300 228.73H302.5V227.27H300V228.73ZM301.77 228V238H303.23V228H301.77ZM302.5 238.73H310V237.27H302.5V238.73ZM310.73 238V228H309.27V238H310.73ZM310 227.27H302.5V228.73H310V227.27ZM303.23 228V225.5H301.77V228H303.23ZM302.5 226.23H312.5V224.77H302.5V226.23ZM311.77 225.5V238H313.23V225.5H311.77ZM312.5 238.73H315V237.27H312.5V238.73ZM314.27 238V245.5H315.73V238H314.27ZM315 244.77H312.5V246.23H315V244.77ZM313.23 245.5V240.5H311.77V245.5H313.23ZM312.5 239.77H300V241.23H312.5V239.77ZM299.27 240.5V245.5H300.73V240.5H299.27ZM300 244.77H297.5V246.23H300V244.77ZM322.9 235.5H322.17V236.23H322.9V235.5ZM322.9 230.5V229.77H322.17V230.5H322.9ZM325.4 230.5H326.13V229.77H325.4V230.5ZM325.4 235.5V236.23H326.13V235.5H325.4ZM317.9 240.5H317.17V241.23H317.9V240.5ZM317.9 225.5V224.77H317.17V225.5H317.9ZM320.4 225.5H321.13V224.77H320.4V225.5ZM320.4 235.5H319.67V236.23H320.4V235.5ZM322.9 235.5H323.63V234.77H322.9V235.5ZM322.9 238V238.73H323.63V238H322.9ZM320.4 238V237.27H319.67V238H320.4ZM320.4 240.5V241.23H321.13V240.5H320.4ZM327.9 240.5H327.17V241.23H327.9V240.5ZM327.9 230.5H328.63V229.77H327.9V230.5ZM325.4 230.5H324.67V231.23H325.4V230.5ZM325.4 228V227.27H324.67V228H325.4ZM327.9 228V228.73H328.63V228H327.9ZM327.9 225.5V224.77H327.17V225.5H327.9ZM330.4 225.5H331.13V224.77H330.4V225.5ZM330.4 240.5V241.23H331.13V240.5H330.4ZM323.63 235.5V230.5H322.17V235.5H323.63ZM322.9 231.23H325.4V229.77H322.9V231.23ZM324.67 230.5V235.5H326.13V230.5H324.67ZM325.4 234.77H322.9V236.23H325.4V234.77ZM318.63 240.5V225.5H317.17V240.5H318.63ZM317.9 226.23H320.4V224.77H317.9V226.23ZM319.67 225.5V235.5H321.13V225.5H319.67ZM320.4 236.23H322.9V234.77H320.4V236.23ZM322.17 235.5V238H323.63V235.5H322.17ZM322.9 237.27H320.4V238.73H322.9V237.27ZM319.67 238V240.5H321.13V238H319.67ZM320.4 239.77H317.9V241.23H320.4V239.77ZM328.63 240.5V230.5H327.17V240.5H328.63ZM327.9 229.77H325.4V231.23H327.9V229.77ZM326.13 230.5V228H324.67V230.5H326.13ZM325.4 228.73H327.9V227.27H325.4V228.73ZM328.63 228V225.5H327.17V228H328.63ZM327.9 226.23H330.4V224.77H327.9V226.23ZM329.67 225.5V240.5H331.13V225.5H329.67ZM330.4 239.77H327.9V241.23H330.4V239.77ZM338.3 240.5H337.57V241.23H338.3V240.5ZM338.3 238V237.27H337.57V238H338.3ZM345.8 238H346.53V237.27H345.8V238ZM345.8 240.5V241.23H346.53V240.5H345.8ZM345.8 238H345.07V238.73H345.8V238ZM345.8 235.5V234.77H345.07V235.5H345.8ZM348.3 235.5H349.03V234.77H348.3V235.5ZM348.3 238V238.73H349.03V238H348.3ZM335.8 238H335.07V238.73H335.8V238ZM335.8 228V227.27H335.07V228H335.8ZM338.3 228H339.03V227.27H338.3V228ZM338.3 238V238.73H339.03V238H338.3ZM345.8 230.5H345.07V231.23H345.8V230.5ZM345.8 228V227.27H345.07V228H345.8ZM348.3 228H349.03V227.27H348.3V228ZM348.3 230.5V231.23H349.03V230.5H348.3ZM338.3 228H337.57V228.73H338.3V228ZM338.3 225.5V224.77H337.57V225.5H338.3ZM345.8 225.5H346.53V224.77H345.8V225.5ZM345.8 228V228.73H346.53V228H345.8ZM339.03 240.5V238H337.57V240.5H339.03ZM338.3 238.73H345.8V237.27H338.3V238.73ZM345.07 238V240.5H346.53V238H345.07ZM345.8 239.77H338.3V241.23H345.8V239.77ZM346.53 238V235.5H345.07V238H346.53ZM345.8 236.23H348.3V234.77H345.8V236.23ZM347.57 235.5V238H349.03V235.5H347.57ZM348.3 237.27H345.8V238.73H348.3V237.27ZM336.53 238V228H335.07V238H336.53ZM335.8 228.73H338.3V227.27H335.8V228.73ZM337.57 228V238H339.03V228H337.57ZM338.3 237.27H335.8V238.73H338.3V237.27ZM346.53 230.5V228H345.07V230.5H346.53ZM345.8 228.73H348.3V227.27H345.8V228.73ZM347.57 228V230.5H349.03V228H347.57ZM348.3 229.77H345.8V231.23H348.3V229.77ZM339.03 228V225.5H337.57V228H339.03ZM338.3 226.23H345.8V224.77H338.3V226.23ZM345.07 225.5V228H346.53V225.5H345.07ZM345.8 227.27H338.3V228.73H345.8V227.27ZM358.7 240.5H357.97V241.23H358.7V240.5ZM358.7 228H359.43V227.27H358.7V228ZM353.7 228H352.97V228.73H353.7V228ZM353.7 225.5V224.77H352.97V225.5H353.7ZM366.2 225.5H366.93V224.77H366.2V225.5ZM366.2 228V228.73H366.93V228H366.2ZM361.2 228V227.27H360.47V228H361.2ZM361.2 240.5V241.23H361.93V240.5H361.2ZM359.43 240.5V228H357.97V240.5H359.43ZM358.7 227.27H353.7V228.73H358.7V227.27ZM354.43 228V225.5H352.97V228H354.43ZM353.7 226.23H366.2V224.77H353.7V226.23ZM365.47 225.5V228H366.93V225.5H365.47ZM366.2 227.27H361.2V228.73H366.2V227.27ZM360.47 228V240.5H361.93V228H360.47ZM361.2 239.77H358.7V241.23H361.2V239.77ZM371.6 238H370.87V238.73H371.6V238ZM371.6 233V232.27H370.87V233H371.6ZM374.1 233H374.83V232.27H374.1V233ZM374.1 238V238.73H374.83V238H374.1ZM374.1 240.5H373.37V241.23H374.1V240.5ZM374.1 238V237.27H373.37V238H374.1ZM381.6 238V238.73H382.33V238H381.6ZM381.6 233H382.33V232.27H381.6V233ZM374.1 233H373.37V233.73H374.1V233ZM374.1 230.5V229.77H373.37V230.5H374.1ZM381.6 230.5V231.23H382.33V230.5H381.6ZM381.6 228V227.27H380.87V228H381.6ZM384.1 228H384.83V227.27H384.1V228ZM384.1 240.5V241.23H384.83V240.5H384.1ZM374.1 228H373.37V228.73H374.1V228ZM374.1 225.5V224.77H373.37V225.5H374.1ZM381.6 225.5H382.33V224.77H381.6V225.5ZM381.6 228V228.73H382.33V228H381.6ZM372.33 238V233H370.87V238H372.33ZM371.6 233.73H374.1V232.27H371.6V233.73ZM373.37 233V238H374.83V233H373.37ZM374.1 237.27H371.6V238.73H374.1V237.27ZM374.83 240.5V238H373.37V240.5H374.83ZM374.1 238.73H381.6V237.27H374.1V238.73ZM382.33 238V233H380.87V238H382.33ZM381.6 232.27H374.1V233.73H381.6V232.27ZM374.83 233V230.5H373.37V233H374.83ZM374.1 231.23H381.6V229.77H374.1V231.23ZM382.33 230.5V228H380.87V230.5H382.33ZM381.6 228.73H384.1V227.27H381.6V228.73ZM383.37 228V240.5H384.83V228H383.37ZM384.1 239.77H374.1V241.23H384.1V239.77ZM374.83 228V225.5H373.37V228H374.83ZM374.1 226.23H381.6V224.77H374.1V226.23ZM380.87 225.5V228H382.33V225.5H380.87ZM381.6 227.27H374.1V228.73H381.6V227.27ZM389.5 240.5H388.77V241.23H389.5V240.5ZM389.5 225.5V224.77H388.77V225.5H389.5ZM392 225.5H392.73V224.77H392V225.5ZM392 230.5H391.27V231.23H392V230.5ZM399.5 230.5V231.23H400.23V230.5H399.5ZM399.5 225.5V224.77H398.77V225.5H399.5ZM402 225.5H402.73V224.77H402V225.5ZM402 240.5V241.23H402.73V240.5H402ZM399.5 240.5H398.77V241.23H399.5V240.5ZM399.5 233H400.23V232.27H399.5V233ZM392 233V232.27H391.27V233H392ZM392 240.5V241.23H392.73V240.5H392ZM390.23 240.5V225.5H388.77V240.5H390.23ZM389.5 226.23H392V224.77H389.5V226.23ZM391.27 225.5V230.5H392.73V225.5H391.27ZM392 231.23H399.5V229.77H392V231.23ZM400.23 230.5V225.5H398.77V230.5H400.23ZM399.5 226.23H402V224.77H399.5V226.23ZM401.27 225.5V240.5H402.73V225.5H401.27ZM402 239.77H399.5V241.23H402V239.77ZM400.23 240.5V233H398.77V240.5H400.23ZM399.5 232.27H392V233.73H399.5V232.27ZM391.27 233V240.5H392.73V233H391.27ZM392 239.77H389.5V241.23H392V239.77ZM419.9 245.5H419.17V246.23H419.9V245.5ZM419.9 240.5H420.63V239.77H419.9V240.5ZM407.4 240.5H406.67V241.23H407.4V240.5ZM407.4 225.5V224.77H406.67V225.5H407.4ZM409.9 225.5H410.63V224.77H409.9V225.5ZM409.9 238H409.17V238.73H409.9V238ZM417.4 238V238.73H418.13V238H417.4ZM417.4 225.5V224.77H416.67V225.5H417.4ZM419.9 225.5H420.63V224.77H419.9V225.5ZM419.9 238H419.17V238.73H419.9V238ZM422.4 238H423.13V237.27H422.4V238ZM422.4 245.5V246.23H423.13V245.5H422.4ZM420.63 245.5V240.5H419.17V245.5H420.63ZM419.9 239.77H407.4V241.23H419.9V239.77ZM408.13 240.5V225.5H406.67V240.5H408.13ZM407.4 226.23H409.9V224.77H407.4V226.23ZM409.17 225.5V238H410.63V225.5H409.17ZM409.9 238.73H417.4V237.27H409.9V238.73ZM418.13 238V225.5H416.67V238H418.13ZM417.4 226.23H419.9V224.77H417.4V226.23ZM419.17 225.5V238H420.63V225.5H419.17ZM419.9 238.73H422.4V237.27H419.9V238.73ZM421.67 238V245.5H423.13V238H421.67ZM422.4 244.77H419.9V246.23H422.4V244.77ZM430.3 235.5H429.57V236.23H430.3V235.5ZM430.3 230.5V229.77H429.57V230.5H430.3ZM432.8 230.5H433.53V229.77H432.8V230.5ZM432.8 235.5V236.23H433.53V235.5H432.8ZM425.3 240.5H424.57V241.23H425.3V240.5ZM425.3 225.5V224.77H424.57V225.5H425.3ZM427.8 225.5H428.53V224.77H427.8V225.5ZM427.8 235.5H427.07V236.23H427.8V235.5ZM430.3 235.5H431.03V234.77H430.3V235.5ZM430.3 238V238.73H431.03V238H430.3ZM427.8 238V237.27H427.07V238H427.8ZM427.8 240.5V241.23H428.53V240.5H427.8ZM435.3 240.5H434.57V241.23H435.3V240.5ZM435.3 230.5H436.03V229.77H435.3V230.5ZM432.8 230.5H432.07V231.23H432.8V230.5ZM432.8 228V227.27H432.07V228H432.8ZM435.3 228V228.73H436.03V228H435.3ZM435.3 225.5V224.77H434.57V225.5H435.3ZM437.8 225.5H438.53V224.77H437.8V225.5ZM437.8 240.5V241.23H438.53V240.5H437.8ZM431.03 235.5V230.5H429.57V235.5H431.03ZM430.3 231.23H432.8V229.77H430.3V231.23ZM432.07 230.5V235.5H433.53V230.5H432.07ZM432.8 234.77H430.3V236.23H432.8V234.77ZM426.03 240.5V225.5H424.57V240.5H426.03ZM425.3 226.23H427.8V224.77H425.3V226.23ZM427.07 225.5V235.5H428.53V225.5H427.07ZM427.8 236.23H430.3V234.77H427.8V236.23ZM429.57 235.5V238H431.03V235.5H429.57ZM430.3 237.27H427.8V238.73H430.3V237.27ZM427.07 238V240.5H428.53V238H427.07ZM427.8 239.77H425.3V241.23H427.8V239.77ZM436.03 240.5V230.5H434.57V240.5H436.03ZM435.3 229.77H432.8V231.23H435.3V229.77ZM433.53 230.5V228H432.07V230.5H433.53ZM432.8 228.73H435.3V227.27H432.8V228.73ZM436.03 228V225.5H434.57V228H436.03ZM435.3 226.23H437.8V224.77H435.3V226.23ZM437.07 225.5V240.5H438.53V225.5H437.07ZM437.8 239.77H435.3V241.23H437.8V239.77ZM443.2 240.5H442.47V241.23H443.2V240.5ZM443.2 238V237.27H442.47V238H443.2ZM445.7 238H446.43V237.27H445.7V238ZM445.7 240.5V241.23H446.43V240.5H445.7ZM443.2 233H442.47V233.73H443.2V233ZM443.2 228V227.27H442.47V228H443.2ZM445.7 228H446.43V227.27H445.7V228ZM445.7 233V233.73H446.43V233H445.7ZM453.2 240.5H452.47V241.23H453.2V240.5ZM453.2 235.5H453.93V234.77H453.2V235.5ZM448.2 235.5V234.77H447.47V235.5H448.2ZM448.2 238V238.73H448.93V238H448.2ZM445.7 238H444.97V238.73H445.7V238ZM445.7 233V232.27H444.97V233H445.7ZM453.2 233V233.73H453.93V233H453.2ZM453.2 228H453.93V227.27H453.2V228ZM445.7 228H444.97V228.73H445.7V228ZM445.7 225.5V224.77H444.97V225.5H445.7ZM455.7 225.5H456.43V224.77H455.7V225.5ZM455.7 240.5V241.23H456.43V240.5H455.7ZM443.93 240.5V238H442.47V240.5H443.93ZM443.2 238.73H445.7V237.27H443.2V238.73ZM444.97 238V240.5H446.43V238H444.97ZM445.7 239.77H443.2V241.23H445.7V239.77ZM443.93 233V228H442.47V233H443.93ZM443.2 228.73H445.7V227.27H443.2V228.73ZM444.97 228V233H446.43V228H444.97ZM445.7 232.27H443.2V233.73H445.7V232.27ZM453.93 240.5V235.5H452.47V240.5H453.93ZM453.2 234.77H448.2V236.23H453.2V234.77ZM447.47 235.5V238H448.93V235.5H447.47ZM448.2 237.27H445.7V238.73H448.2V237.27ZM446.43 238V233H444.97V238H446.43ZM445.7 233.73H453.2V232.27H445.7V233.73ZM453.93 233V228H452.47V233H453.93ZM453.2 227.27H445.7V228.73H453.2V227.27ZM446.43 228V225.5H444.97V228H446.43ZM445.7 226.23H455.7V224.77H445.7V226.23ZM454.97 225.5V240.5H456.43V225.5H454.97ZM455.7 239.77H453.2V241.23H455.7V239.77ZM466.1 240.5H465.37V241.23H466.1V240.5ZM466.1 235.5V234.77H465.37V235.5H466.1ZM468.6 235.5H469.33V234.77H468.6V235.5ZM468.6 240.5V241.23H469.33V240.5H468.6ZM466.1 230.5H465.37V231.23H466.1V230.5ZM466.1 225.5V224.77H465.37V225.5H466.1ZM468.6 225.5H469.33V224.77H468.6V225.5ZM468.6 230.5V231.23H469.33V230.5H468.6ZM466.83 240.5V235.5H465.37V240.5H466.83ZM466.1 236.23H468.6V234.77H466.1V236.23ZM467.87 235.5V240.5H469.33V235.5H467.87ZM468.6 239.77H466.1V241.23H468.6V239.77ZM466.83 230.5V225.5H465.37V230.5H466.83ZM466.1 226.23H468.6V224.77H466.1V226.23ZM467.87 225.5V230.5H469.33V225.5H467.87ZM468.6 229.77H466.1V231.23H468.6V229.77Z" fill="#252840" mask="url(#path-107-outside-2_97_15364)"/>
<rect x="77" y="347" width="7" height="7" transform="rotate(90 77 347)" fill="#252840"/>
<rect x="77" y="340" width="7" height="7" transform="rotate(90 77 340)" fill="#252840"/>
<rect x="77" y="333" width="7" height="7" transform="rotate(90 77 333)" fill="#252840"/>
<rect x="77" y="326" width="7" height="7" transform="rotate(90 77 326)" fill="#252840"/>
<rect x="77" y="319" width="7" height="7" transform="rotate(90 77 319)" fill="#252840"/>
<rect x="84" y="319" width="7" height="7" transform="rotate(90 84 319)" fill="#252840"/>
<rect x="91" y="319" width="7" height="7" transform="rotate(90 91 319)" fill="#252840"/>
<rect x="98" y="319" width="7" height="7" transform="rotate(90 98 319)" fill="#252840"/>
<rect x="105" y="319" width="7" height="7" transform="rotate(90 105 319)" fill="#252840"/>
<rect x="112" y="319" width="7" height="7" transform="rotate(90 112 319)" fill="#252840"/>
<rect x="119" y="319" width="7" height="7" transform="rotate(90 119 319)" fill="#252840"/>
<rect x="84" y="354" width="7" height="7" transform="rotate(90 84 354)" fill="#252840"/>
<rect x="91" y="361" width="7" height="7" transform="rotate(90 91 361)" fill="#252840"/>
<rect x="98" y="368" width="7" height="7" transform="rotate(90 98 368)" fill="#252840"/>
<rect x="98" y="361" width="7" height="7" transform="rotate(90 98 361)" fill="#252840"/>
<rect x="98" y="354" width="7" height="7" transform="rotate(90 98 354)" fill="#252840"/>
<rect x="98" y="347" width="7" height="7" transform="rotate(90 98 347)" fill="#252840"/>
<rect x="98" y="340" width="7" height="7" transform="rotate(90 98 340)" fill="#252840"/>
<rect x="98" y="333" width="7" height="7" transform="rotate(90 98 333)" fill="#252840"/>
<rect x="98" y="326" width="7" height="7" transform="rotate(90 98 326)" fill="#252840"/>
<rect x="105" y="375" width="7" height="7" transform="rotate(90 105 375)" fill="#252840"/>
<rect x="112" y="382" width="7" height="7" transform="rotate(90 112 382)" fill="#252840"/>
<rect x="119" y="389" width="7" height="7" transform="rotate(90 119 389)" fill="#252840"/>
<rect x="119" y="396" width="7" height="7" transform="rotate(90 119 396)" fill="#252840"/>
<rect x="112" y="403" width="7" height="7" transform="rotate(90 112 403)" fill="#252840"/>
<rect x="105" y="410" width="7" height="7" transform="rotate(90 105 410)" fill="#252840"/>
<rect x="105" y="417" width="7" height="7" transform="rotate(90 105 417)" fill="#252840"/>
<rect x="105" y="424" width="7" height="7" transform="rotate(90 105 424)" fill="#252840"/>
<rect x="112" y="424" width="7" height="7" transform="rotate(90 112 424)" fill="#252840"/>
<rect x="119" y="424" width="7" height="7" transform="rotate(90 119 424)" fill="#252840"/>
<rect width="7" height="7" transform="matrix(4.37114e-08 1 1 -4.37114e-08 168 347)" fill="#252840"/>
<rect width="7" height="7" transform="matrix(4.37114e-08 1 1 -4.37114e-08 168 340)" fill="#252840"/>
<rect width="7" height="7" transform="matrix(4.37114e-08 1 1 -4.37114e-08 168 333)" fill="#252840"/>
<rect width="7" height="7" transform="matrix(4.37114e-08 1 1 -4.37114e-08 168 326)" fill="#252840"/>
<rect width="7" height="7" transform="matrix(4.37114e-08 1 1 -4.37114e-08 168 319)" fill="#252840"/>
<rect width="7" height="7" transform="matrix(4.37114e-08 1 1 -4.37114e-08 161 319)" fill="#252840"/>
<rect width="7" height="7" transform="matrix(4.37114e-08 1 1 -4.37114e-08 154 319)" fill="#252840"/>
<rect width="7" height="7" transform="matrix(4.37114e-08 1 1 -4.37114e-08 147 319)" fill="#252840"/>
<rect width="7" height="7" transform="matrix(4.37114e-08 1 1 -4.37114e-08 140 319)" fill="#252840"/>
<rect width="7" height="7" transform="matrix(4.37114e-08 1 1 -4.37114e-08 133 319)" fill="#252840"/>
<rect width="7" height="7" transform="matrix(4.37114e-08 1 1 -4.37114e-08 126 319)" fill="#252840"/>
<rect width="7" height="7" transform="matrix(4.37114e-08 1 1 -4.37114e-08 119 319)" fill="#252840"/>
<rect width="7" height="7" transform="matrix(4.37114e-08 1 1 -4.37114e-08 161 354)" fill="#252840"/>
<rect width="7" height="7" transform="matrix(4.37114e-08 1 1 -4.37114e-08 154 361)" fill="#252840"/>
<rect width="7" height="7" transform="matrix(4.37114e-08 1 1 -4.37114e-08 147 368)" fill="#252840"/>
<rect width="7" height="7" transform="matrix(4.37114e-08 1 1 -4.37114e-08 147 361)" fill="#252840"/>
<rect width="7" height="7" transform="matrix(4.37114e-08 1 1 -4.37114e-08 147 354)" fill="#252840"/>
<rect width="7" height="7" transform="matrix(4.37114e-08 1 1 -4.37114e-08 147 347)" fill="#252840"/>
<rect width="7" height="7" transform="matrix(4.37114e-08 1 1 -4.37114e-08 147 340)" fill="#252840"/>
<rect width="7" height="7" transform="matrix(4.37114e-08 1 1 -4.37114e-08 147 333)" fill="#252840"/>
<rect width="7" height="7" transform="matrix(4.37114e-08 1 1 -4.37114e-08 147 326)" fill="#252840"/>
<rect width="49" height="49" transform="matrix(4.37114e-08 1 1 -4.37114e-08 98 326)" fill="#F9D22B"/>
<rect width="7" height="7" transform="matrix(4.37114e-08 1 1 -4.37114e-08 140 375)" fill="#252840"/>
<rect width="7" height="7" transform="matrix(4.37114e-08 1 1 -4.37114e-08 133 382)" fill="#252840"/>
<rect width="7" height="7" transform="matrix(4.37114e-08 1 1 -4.37114e-08 126 389)" fill="#252840"/>
<rect width="7" height="7" transform="matrix(4.37114e-08 1 1 -4.37114e-08 126 396)" fill="#252840"/>
<rect width="7" height="7" transform="matrix(4.37114e-08 1 1 -4.37114e-08 133 403)" fill="#252840"/>
<rect width="7" height="7" transform="matrix(4.37114e-08 1 1 -4.37114e-08 140 410)" fill="#252840"/>
<rect width="7" height="7" transform="matrix(4.37114e-08 1 1 -4.37114e-08 140 417)" fill="#252840"/>
<rect width="7" height="7" transform="matrix(4.37114e-08 1 1 -4.37114e-08 140 424)" fill="#252840"/>
<rect width="7" height="7" transform="matrix(4.37114e-08 1 1 -4.37114e-08 133 424)" fill="#252840"/>
<rect width="7" height="7" transform="matrix(4.37114e-08 1 1 -4.37114e-08 126 424)" fill="#252840"/>
<rect width="7" height="7" transform="matrix(4.37114e-08 1 1 -4.37114e-08 119 424)" fill="#252840"/>
<rect width="7" height="7" transform="matrix(4.37114e-08 1 1 -4.37114e-08 133 332)" fill="#FCE895"/>
<rect width="7" height="7" transform="matrix(4.37114e-08 1 1 -4.37114e-08 133 339)" fill="#FCE895"/>
<rect width="7" height="7" transform="matrix(4.37114e-08 1 1 -4.37114e-08 133 346)" fill="#FCE895"/>
<rect width="7" height="7" transform="matrix(4.37114e-08 1 1 -4.37114e-08 133 353)" fill="#FCE895"/>
<rect x="105" y="375" width="35" height="7" fill="#F9D22B"/>
<rect x="112" y="382" width="21" height="7" fill="#F9D22B"/>
<rect x="105" y="417" width="35" height="7" fill="#F9D22B"/>
<rect x="105" y="410" width="35" height="7" fill="#F9D22B"/>
<rect x="112" y="403" width="21" height="7" fill="#F9D22B"/>
<rect x="126" y="388" width="21" height="7" transform="rotate(90 126 388)" fill="#F9D22B"/>
<rect x="98" y="326" width="7" height="7" fill="#EC9345"/>
<rect x="98" y="333" width="7" height="7" fill="#EC9345"/>
<rect x="98" y="340" width="7" height="7" fill="#EC9345"/>
<rect x="98" y="347" width="7" height="7" fill="#EC9345"/>
<rect x="98" y="354" width="7" height="7" fill="#EC9345"/>
<rect x="98" y="361" width="7" height="7" fill="#EC9345"/>
<rect x="98" y="368" width="7" height="7" fill="#EC9345"/>
<rect x="105" y="375" width="7" height="7" fill="#EC9345"/>
<rect x="112" y="382" width="7" height="7" fill="#EC9345"/>
<rect x="112" y="403" width="7" height="7" fill="#EC9345"/>
<rect x="105" y="410" width="7" height="7" fill="#EC9345"/>
<mask id="path-193-outside-3_97_15364" maskUnits="userSpaceOnUse" x="209" y="344" width="207" height="30" fill="black">
<rect fill="white" x="209" y="344" width="207" height="30"/>
<path d="M210.5 365V362.5H213V365H210.5ZM213 362.5V347.5H215.5V362.5H213ZM223 365V347.5H215.5V345H225.5V365H223ZM230.9 372.5V370H233.4V372.5H230.9ZM233.4 370V362.5H235.9V370H233.4ZM230.9 362.5V355H233.4V362.5H230.9ZM235.9 362.5V355H238.4V362.5H235.9ZM228.4 355V350H230.9V355H228.4ZM238.4 355V350H240.9V355H238.4ZM246.3 357.5V350H248.8V357.5H246.3ZM256.3 365V360H248.8V357.5H256.3V350H258.8V365H256.3ZM264.2 365V350H266.7V362.5H269.2V350H271.7V362.5H274.2V350H276.7V365H264.2ZM287.1 360V355H289.6V360H287.1ZM282.1 365V350H284.6V360H287.1V362.5H284.6V365H282.1ZM292.1 365V355H289.6V352.5H292.1V350H294.6V365H292.1ZM305 360V355H307.5V360H305ZM300 365V350H302.5V360H305V362.5H302.5V365H300ZM310 365V355H307.5V352.5H310V350H312.5V365H310ZM305 350V347.5H307.5V350H305ZM302.5 347.5V345H305V347.5H302.5ZM307.5 347.5V345H310V347.5H307.5ZM338.3 365V362.5H345.8V365H338.3ZM345.8 362.5V360H348.3V362.5H345.8ZM335.8 362.5V352.5H338.3V362.5H335.8ZM345.8 355V352.5H348.3V355H345.8ZM338.3 352.5V350H345.8V352.5H338.3ZM353.7 357.5V350H356.2V357.5H353.7ZM363.7 365V360H356.2V357.5H363.7V350H366.2V365H363.7ZM374.1 365V362.5H381.6V365H374.1ZM381.6 362.5V360H384.1V362.5H381.6ZM371.6 362.5V352.5H374.1V355H381.6V352.5H384.1V357.5H374.1V362.5H371.6ZM374.1 352.5V350H381.6V352.5H374.1ZM374.1 347.5V345H376.6V347.5H374.1ZM379.1 347.5V345H381.6V347.5H379.1ZM394.5 365V352.5H389.5V350H402V352.5H397V365H394.5ZM412.4 365V360H414.9V365H412.4ZM412.4 355V350H414.9V355H412.4Z"/>
</mask>
<path d="M210.5 365V362.5H213V365H210.5ZM213 362.5V347.5H215.5V362.5H213ZM223 365V347.5H215.5V345H225.5V365H223ZM230.9 372.5V370H233.4V372.5H230.9ZM233.4 370V362.5H235.9V370H233.4ZM230.9 362.5V355H233.4V362.5H230.9ZM235.9 362.5V355H238.4V362.5H235.9ZM228.4 355V350H230.9V355H228.4ZM238.4 355V350H240.9V355H238.4ZM246.3 357.5V350H248.8V357.5H246.3ZM256.3 365V360H248.8V357.5H256.3V350H258.8V365H256.3ZM264.2 365V350H266.7V362.5H269.2V350H271.7V362.5H274.2V350H276.7V365H264.2ZM287.1 360V355H289.6V360H287.1ZM282.1 365V350H284.6V360H287.1V362.5H284.6V365H282.1ZM292.1 365V355H289.6V352.5H292.1V350H294.6V365H292.1ZM305 360V355H307.5V360H305ZM300 365V350H302.5V360H305V362.5H302.5V365H300ZM310 365V355H307.5V352.5H310V350H312.5V365H310ZM305 350V347.5H307.5V350H305ZM302.5 347.5V345H305V347.5H302.5ZM307.5 347.5V345H310V347.5H307.5ZM338.3 365V362.5H345.8V365H338.3ZM345.8 362.5V360H348.3V362.5H345.8ZM335.8 362.5V352.5H338.3V362.5H335.8ZM345.8 355V352.5H348.3V355H345.8ZM338.3 352.5V350H345.8V352.5H338.3ZM353.7 357.5V350H356.2V357.5H353.7ZM363.7 365V360H356.2V357.5H363.7V350H366.2V365H363.7ZM374.1 365V362.5H381.6V365H374.1ZM381.6 362.5V360H384.1V362.5H381.6ZM371.6 362.5V352.5H374.1V355H381.6V352.5H384.1V357.5H374.1V362.5H371.6ZM374.1 352.5V350H381.6V352.5H374.1ZM374.1 347.5V345H376.6V347.5H374.1ZM379.1 347.5V345H381.6V347.5H379.1ZM394.5 365V352.5H389.5V350H402V352.5H397V365H394.5ZM412.4 365V360H414.9V365H412.4ZM412.4 355V350H414.9V355H412.4Z" fill="#252840"/>
<path d="M210.5 365H209.77V365.73H210.5V365ZM210.5 362.5V361.77H209.77V362.5H210.5ZM213 362.5H213.73V361.77H213V362.5ZM213 365V365.73H213.73V365H213ZM213 362.5H212.27V363.23H213V362.5ZM213 347.5V346.77H212.27V347.5H213ZM215.5 347.5H216.23V346.77H215.5V347.5ZM215.5 362.5V363.23H216.23V362.5H215.5ZM223 365H222.27V365.73H223V365ZM223 347.5H223.73V346.77H223V347.5ZM215.5 347.5H214.77V348.23H215.5V347.5ZM215.5 345V344.27H214.77V345H215.5ZM225.5 345H226.23V344.27H225.5V345ZM225.5 365V365.73H226.23V365H225.5ZM211.23 365V362.5H209.77V365H211.23ZM210.5 363.23H213V361.77H210.5V363.23ZM212.27 362.5V365H213.73V362.5H212.27ZM213 364.27H210.5V365.73H213V364.27ZM213.73 362.5V347.5H212.27V362.5H213.73ZM213 348.23H215.5V346.77H213V348.23ZM214.77 347.5V362.5H216.23V347.5H214.77ZM215.5 361.77H213V363.23H215.5V361.77ZM223.73 365V347.5H222.27V365H223.73ZM223 346.77H215.5V348.23H223V346.77ZM216.23 347.5V345H214.77V347.5H216.23ZM215.5 345.73H225.5V344.27H215.5V345.73ZM224.77 345V365H226.23V345H224.77ZM225.5 364.27H223V365.73H225.5V364.27ZM230.9 372.5H230.17V373.23H230.9V372.5ZM230.9 370V369.27H230.17V370H230.9ZM233.4 370H234.13V369.27H233.4V370ZM233.4 372.5V373.23H234.13V372.5H233.4ZM233.4 370H232.67V370.73H233.4V370ZM233.4 362.5V361.77H232.67V362.5H233.4ZM235.9 362.5H236.63V361.77H235.9V362.5ZM235.9 370V370.73H236.63V370H235.9ZM230.9 362.5H230.17V363.23H230.9V362.5ZM230.9 355V354.27H230.17V355H230.9ZM233.4 355H234.13V354.27H233.4V355ZM233.4 362.5V363.23H234.13V362.5H233.4ZM235.9 362.5H235.17V363.23H235.9V362.5ZM235.9 355V354.27H235.17V355H235.9ZM238.4 355H239.13V354.27H238.4V355ZM238.4 362.5V363.23H239.13V362.5H238.4ZM228.4 355H227.67V355.73H228.4V355ZM228.4 350V349.27H227.67V350H228.4ZM230.9 350H231.63V349.27H230.9V350ZM230.9 355V355.73H231.63V355H230.9ZM238.4 355H237.67V355.73H238.4V355ZM238.4 350V349.27H237.67V350H238.4ZM240.9 350H241.63V349.27H240.9V350ZM240.9 355V355.73H241.63V355H240.9ZM231.63 372.5V370H230.17V372.5H231.63ZM230.9 370.73H233.4V369.27H230.9V370.73ZM232.67 370V372.5H234.13V370H232.67ZM233.4 371.77H230.9V373.23H233.4V371.77ZM234.13 370V362.5H232.67V370H234.13ZM233.4 363.23H235.9V361.77H233.4V363.23ZM235.17 362.5V370H236.63V362.5H235.17ZM235.9 369.27H233.4V370.73H235.9V369.27ZM231.63 362.5V355H230.17V362.5H231.63ZM230.9 355.73H233.4V354.27H230.9V355.73ZM232.67 355V362.5H234.13V355H232.67ZM233.4 361.77H230.9V363.23H233.4V361.77ZM236.63 362.5V355H235.17V362.5H236.63ZM235.9 355.73H238.4V354.27H235.9V355.73ZM237.67 355V362.5H239.13V355H237.67ZM238.4 361.77H235.9V363.23H238.4V361.77ZM229.13 355V350H227.67V355H229.13ZM228.4 350.73H230.9V349.27H228.4V350.73ZM230.17 350V355H231.63V350H230.17ZM230.9 354.27H228.4V355.73H230.9V354.27ZM239.13 355V350H237.67V355H239.13ZM238.4 350.73H240.9V349.27H238.4V350.73ZM240.17 350V355H241.63V350H240.17ZM240.9 354.27H238.4V355.73H240.9V354.27ZM246.3 357.5H245.57V358.23H246.3V357.5ZM246.3 350V349.27H245.57V350H246.3ZM248.8 350H249.53V349.27H248.8V350ZM248.8 357.5V358.23H249.53V357.5H248.8ZM256.3 365H255.57V365.73H256.3V365ZM256.3 360H257.03V359.27H256.3V360ZM248.8 360H248.07V360.73H248.8V360ZM248.8 357.5V356.77H248.07V357.5H248.8ZM256.3 357.5V358.23H257.03V357.5H256.3ZM256.3 350V349.27H255.57V350H256.3ZM258.8 350H259.53V349.27H258.8V350ZM258.8 365V365.73H259.53V365H258.8ZM247.03 357.5V350H245.57V357.5H247.03ZM246.3 350.73H248.8V349.27H246.3V350.73ZM248.07 350V357.5H249.53V350H248.07ZM248.8 356.77H246.3V358.23H248.8V356.77ZM257.03 365V360H255.57V365H257.03ZM256.3 359.27H248.8V360.73H256.3V359.27ZM249.53 360V357.5H248.07V360H249.53ZM248.8 358.23H256.3V356.77H248.8V358.23ZM257.03 357.5V350H255.57V357.5H257.03ZM256.3 350.73H258.8V349.27H256.3V350.73ZM258.07 350V365H259.53V350H258.07ZM258.8 364.27H256.3V365.73H258.8V364.27ZM264.2 365H263.47V365.73H264.2V365ZM264.2 350V349.27H263.47V350H264.2ZM266.7 350H267.43V349.27H266.7V350ZM266.7 362.5H265.97V363.23H266.7V362.5ZM269.2 362.5V363.23H269.93V362.5H269.2ZM269.2 350V349.27H268.47V350H269.2ZM271.7 350H272.43V349.27H271.7V350ZM271.7 362.5H270.97V363.23H271.7V362.5ZM274.2 362.5V363.23H274.93V362.5H274.2ZM274.2 350V349.27H273.47V350H274.2ZM276.7 350H277.43V349.27H276.7V350ZM276.7 365V365.73H277.43V365H276.7ZM264.93 365V350H263.47V365H264.93ZM264.2 350.73H266.7V349.27H264.2V350.73ZM265.97 350V362.5H267.43V350H265.97ZM266.7 363.23H269.2V361.77H266.7V363.23ZM269.93 362.5V350H268.47V362.5H269.93ZM269.2 350.73H271.7V349.27H269.2V350.73ZM270.97 350V362.5H272.43V350H270.97ZM271.7 363.23H274.2V361.77H271.7V363.23ZM274.93 362.5V350H273.47V362.5H274.93ZM274.2 350.73H276.7V349.27H274.2V350.73ZM275.97 350V365H277.43V350H275.97ZM276.7 364.27H264.2V365.73H276.7V364.27ZM287.1 360H286.37V360.73H287.1V360ZM287.1 355V354.27H286.37V355H287.1ZM289.6 355H290.33V354.27H289.6V355ZM289.6 360V360.73H290.33V360H289.6ZM282.1 365H281.37V365.73H282.1V365ZM282.1 350V349.27H281.37V350H282.1ZM284.6 350H285.33V349.27H284.6V350ZM284.6 360H283.87V360.73H284.6V360ZM287.1 360H287.83V359.27H287.1V360ZM287.1 362.5V363.23H287.83V362.5H287.1ZM284.6 362.5V361.77H283.87V362.5H284.6ZM284.6 365V365.73H285.33V365H284.6ZM292.1 365H291.37V365.73H292.1V365ZM292.1 355H292.83V354.27H292.1V355ZM289.6 355H288.87V355.73H289.6V355ZM289.6 352.5V351.77H288.87V352.5H289.6ZM292.1 352.5V353.23H292.83V352.5H292.1ZM292.1 350V349.27H291.37V350H292.1ZM294.6 350H295.33V349.27H294.6V350ZM294.6 365V365.73H295.33V365H294.6ZM287.83 360V355H286.37V360H287.83ZM287.1 355.73H289.6V354.27H287.1V355.73ZM288.87 355V360H290.33V355H288.87ZM289.6 359.27H287.1V360.73H289.6V359.27ZM282.83 365V350H281.37V365H282.83ZM282.1 350.73H284.6V349.27H282.1V350.73ZM283.87 350V360H285.33V350H283.87ZM284.6 360.73H287.1V359.27H284.6V360.73ZM286.37 360V362.5H287.83V360H286.37ZM287.1 361.77H284.6V363.23H287.1V361.77ZM283.87 362.5V365H285.33V362.5H283.87ZM284.6 364.27H282.1V365.73H284.6V364.27ZM292.83 365V355H291.37V365H292.83ZM292.1 354.27H289.6V355.73H292.1V354.27ZM290.33 355V352.5H288.87V355H290.33ZM289.6 353.23H292.1V351.77H289.6V353.23ZM292.83 352.5V350H291.37V352.5H292.83ZM292.1 350.73H294.6V349.27H292.1V350.73ZM293.87 350V365H295.33V350H293.87ZM294.6 364.27H292.1V365.73H294.6V364.27ZM305 360H304.27V360.73H305V360ZM305 355V354.27H304.27V355H305ZM307.5 355H308.23V354.27H307.5V355ZM307.5 360V360.73H308.23V360H307.5ZM300 365H299.27V365.73H300V365ZM300 350V349.27H299.27V350H300ZM302.5 350H303.23V349.27H302.5V350ZM302.5 360H301.77V360.73H302.5V360ZM305 360H305.73V359.27H305V360ZM305 362.5V363.23H305.73V362.5H305ZM302.5 362.5V361.77H301.77V362.5H302.5ZM302.5 365V365.73H303.23V365H302.5ZM310 365H309.27V365.73H310V365ZM310 355H310.73V354.27H310V355ZM307.5 355H306.77V355.73H307.5V355ZM307.5 352.5V351.77H306.77V352.5H307.5ZM310 352.5V353.23H310.73V352.5H310ZM310 350V349.27H309.27V350H310ZM312.5 350H313.23V349.27H312.5V350ZM312.5 365V365.73H313.23V365H312.5ZM305 350H304.27V350.73H305V350ZM305 347.5V346.77H304.27V347.5H305ZM307.5 347.5H308.23V346.77H307.5V347.5ZM307.5 350V350.73H308.23V350H307.5ZM302.5 347.5H301.77V348.23H302.5V347.5ZM302.5 345V344.27H301.77V345H302.5ZM305 345H305.73V344.27H305V345ZM305 347.5V348.23H305.73V347.5H305ZM307.5 347.5H306.77V348.23H307.5V347.5ZM307.5 345V344.27H306.77V345H307.5ZM310 345H310.73V344.27H310V345ZM310 347.5V348.23H310.73V347.5H310ZM305.73 360V355H304.27V360H305.73ZM305 355.73H307.5V354.27H305V355.73ZM306.77 355V360H308.23V355H306.77ZM307.5 359.27H305V360.73H307.5V359.27ZM300.73 365V350H299.27V365H300.73ZM300 350.73H302.5V349.27H300V350.73ZM301.77 350V360H303.23V350H301.77ZM302.5 360.73H305V359.27H302.5V360.73ZM304.27 360V362.5H305.73V360H304.27ZM305 361.77H302.5V363.23H305V361.77ZM301.77 362.5V365H303.23V362.5H301.77ZM302.5 364.27H300V365.73H302.5V364.27ZM310.73 365V355H309.27V365H310.73ZM310 354.27H307.5V355.73H310V354.27ZM308.23 355V352.5H306.77V355H308.23ZM307.5 353.23H310V351.77H307.5V353.23ZM310.73 352.5V350H309.27V352.5H310.73ZM310 350.73H312.5V349.27H310V350.73ZM311.77 350V365H313.23V350H311.77ZM312.5 364.27H310V365.73H312.5V364.27ZM305.73 350V347.5H304.27V350H305.73ZM305 348.23H307.5V346.77H305V348.23ZM306.77 347.5V350H308.23V347.5H306.77ZM307.5 349.27H305V350.73H307.5V349.27ZM303.23 347.5V345H301.77V347.5H303.23ZM302.5 345.73H305V344.27H302.5V345.73ZM304.27 345V347.5H305.73V345H304.27ZM305 346.77H302.5V348.23H305V346.77ZM308.23 347.5V345H306.77V347.5H308.23ZM307.5 345.73H310V344.27H307.5V345.73ZM309.27 345V347.5H310.73V345H309.27ZM310 346.77H307.5V348.23H310V346.77ZM338.3 365H337.57V365.73H338.3V365ZM338.3 362.5V361.77H337.57V362.5H338.3ZM345.8 362.5H346.53V361.77H345.8V362.5ZM345.8 365V365.73H346.53V365H345.8ZM345.8 362.5H345.07V363.23H345.8V362.5ZM345.8 360V359.27H345.07V360H345.8ZM348.3 360H349.03V359.27H348.3V360ZM348.3 362.5V363.23H349.03V362.5H348.3ZM335.8 362.5H335.07V363.23H335.8V362.5ZM335.8 352.5V351.77H335.07V352.5H335.8ZM338.3 352.5H339.03V351.77H338.3V352.5ZM338.3 362.5V363.23H339.03V362.5H338.3ZM345.8 355H345.07V355.73H345.8V355ZM345.8 352.5V351.77H345.07V352.5H345.8ZM348.3 352.5H349.03V351.77H348.3V352.5ZM348.3 355V355.73H349.03V355H348.3ZM338.3 352.5H337.57V353.23H338.3V352.5ZM338.3 350V349.27H337.57V350H338.3ZM345.8 350H346.53V349.27H345.8V350ZM345.8 352.5V353.23H346.53V352.5H345.8ZM339.03 365V362.5H337.57V365H339.03ZM338.3 363.23H345.8V361.77H338.3V363.23ZM345.07 362.5V365H346.53V362.5H345.07ZM345.8 364.27H338.3V365.73H345.8V364.27ZM346.53 362.5V360H345.07V362.5H346.53ZM345.8 360.73H348.3V359.27H345.8V360.73ZM347.57 360V362.5H349.03V360H347.57ZM348.3 361.77H345.8V363.23H348.3V361.77ZM336.53 362.5V352.5H335.07V362.5H336.53ZM335.8 353.23H338.3V351.77H335.8V353.23ZM337.57 352.5V362.5H339.03V352.5H337.57ZM338.3 361.77H335.8V363.23H338.3V361.77ZM346.53 355V352.5H345.07V355H346.53ZM345.8 353.23H348.3V351.77H345.8V353.23ZM347.57 352.5V355H349.03V352.5H347.57ZM348.3 354.27H345.8V355.73H348.3V354.27ZM339.03 352.5V350H337.57V352.5H339.03ZM338.3 350.73H345.8V349.27H338.3V350.73ZM345.07 350V352.5H346.53V350H345.07ZM345.8 351.77H338.3V353.23H345.8V351.77ZM353.7 357.5H352.97V358.23H353.7V357.5ZM353.7 350V349.27H352.97V350H353.7ZM356.2 350H356.93V349.27H356.2V350ZM356.2 357.5V358.23H356.93V357.5H356.2ZM363.7 365H362.97V365.73H363.7V365ZM363.7 360H364.43V359.27H363.7V360ZM356.2 360H355.47V360.73H356.2V360ZM356.2 357.5V356.77H355.47V357.5H356.2ZM363.7 357.5V358.23H364.43V357.5H363.7ZM363.7 350V349.27H362.97V350H363.7ZM366.2 350H366.93V349.27H366.2V350ZM366.2 365V365.73H366.93V365H366.2ZM354.43 357.5V350H352.97V357.5H354.43ZM353.7 350.73H356.2V349.27H353.7V350.73ZM355.47 350V357.5H356.93V350H355.47ZM356.2 356.77H353.7V358.23H356.2V356.77ZM364.43 365V360H362.97V365H364.43ZM363.7 359.27H356.2V360.73H363.7V359.27ZM356.93 360V357.5H355.47V360H356.93ZM356.2 358.23H363.7V356.77H356.2V358.23ZM364.43 357.5V350H362.97V357.5H364.43ZM363.7 350.73H366.2V349.27H363.7V350.73ZM365.47 350V365H366.93V350H365.47ZM366.2 364.27H363.7V365.73H366.2V364.27ZM374.1 365H373.37V365.73H374.1V365ZM374.1 362.5V361.77H373.37V362.5H374.1ZM381.6 362.5H382.33V361.77H381.6V362.5ZM381.6 365V365.73H382.33V365H381.6ZM381.6 362.5H380.87V363.23H381.6V362.5ZM381.6 360V359.27H380.87V360H381.6ZM384.1 360H384.83V359.27H384.1V360ZM384.1 362.5V363.23H384.83V362.5H384.1ZM371.6 362.5H370.87V363.23H371.6V362.5ZM371.6 352.5V351.77H370.87V352.5H371.6ZM374.1 352.5H374.83V351.77H374.1V352.5ZM374.1 355H373.37V355.73H374.1V355ZM381.6 355V355.73H382.33V355H381.6ZM381.6 352.5V351.77H380.87V352.5H381.6ZM384.1 352.5H384.83V351.77H384.1V352.5ZM384.1 357.5V358.23H384.83V357.5H384.1ZM374.1 357.5V356.77H373.37V357.5H374.1ZM374.1 362.5V363.23H374.83V362.5H374.1ZM374.1 352.5H373.37V353.23H374.1V352.5ZM374.1 350V349.27H373.37V350H374.1ZM381.6 350H382.33V349.27H381.6V350ZM381.6 352.5V353.23H382.33V352.5H381.6ZM374.1 347.5H373.37V348.23H374.1V347.5ZM374.1 345V344.27H373.37V345H374.1ZM376.6 345H377.33V344.27H376.6V345ZM376.6 347.5V348.23H377.33V347.5H376.6ZM379.1 347.5H378.37V348.23H379.1V347.5ZM379.1 345V344.27H378.37V345H379.1ZM381.6 345H382.33V344.27H381.6V345ZM381.6 347.5V348.23H382.33V347.5H381.6ZM374.83 365V362.5H373.37V365H374.83ZM374.1 363.23H381.6V361.77H374.1V363.23ZM380.87 362.5V365H382.33V362.5H380.87ZM381.6 364.27H374.1V365.73H381.6V364.27ZM382.33 362.5V360H380.87V362.5H382.33ZM381.6 360.73H384.1V359.27H381.6V360.73ZM383.37 360V362.5H384.83V360H383.37ZM384.1 361.77H381.6V363.23H384.1V361.77ZM372.33 362.5V352.5H370.87V362.5H372.33ZM371.6 353.23H374.1V351.77H371.6V353.23ZM373.37 352.5V355H374.83V352.5H373.37ZM374.1 355.73H381.6V354.27H374.1V355.73ZM382.33 355V352.5H380.87V355H382.33ZM381.6 353.23H384.1V351.77H381.6V353.23ZM383.37 352.5V357.5H384.83V352.5H383.37ZM384.1 356.77H374.1V358.23H384.1V356.77ZM373.37 357.5V362.5H374.83V357.5H373.37ZM374.1 361.77H371.6V363.23H374.1V361.77ZM374.83 352.5V350H373.37V352.5H374.83ZM374.1 350.73H381.6V349.27H374.1V350.73ZM380.87 350V352.5H382.33V350H380.87ZM381.6 351.77H374.1V353.23H381.6V351.77ZM374.83 347.5V345H373.37V347.5H374.83ZM374.1 345.73H376.6V344.27H374.1V345.73ZM375.87 345V347.5H377.33V345H375.87ZM376.6 346.77H374.1V348.23H376.6V346.77ZM379.83 347.5V345H378.37V347.5H379.83ZM379.1 345.73H381.6V344.27H379.1V345.73ZM380.87 345V347.5H382.33V345H380.87ZM381.6 346.77H379.1V348.23H381.6V346.77ZM394.5 365H393.77V365.73H394.5V365ZM394.5 352.5H395.23V351.77H394.5V352.5ZM389.5 352.5H388.77V353.23H389.5V352.5ZM389.5 350V349.27H388.77V350H389.5ZM402 350H402.73V349.27H402V350ZM402 352.5V353.23H402.73V352.5H402ZM397 352.5V351.77H396.27V352.5H397ZM397 365V365.73H397.73V365H397ZM395.23 365V352.5H393.77V365H395.23ZM394.5 351.77H389.5V353.23H394.5V351.77ZM390.23 352.5V350H388.77V352.5H390.23ZM389.5 350.73H402V349.27H389.5V350.73ZM401.27 350V352.5H402.73V350H401.27ZM402 351.77H397V353.23H402V351.77ZM396.27 352.5V365H397.73V352.5H396.27ZM397 364.27H394.5V365.73H397V364.27ZM412.4 365H411.67V365.73H412.4V365ZM412.4 360V359.27H411.67V360H412.4ZM414.9 360H415.63V359.27H414.9V360ZM414.9 365V365.73H415.63V365H414.9ZM412.4 355H411.67V355.73H412.4V355ZM412.4 350V349.27H411.67V350H412.4ZM414.9 350H415.63V349.27H414.9V350ZM414.9 355V355.73H415.63V355H414.9ZM413.13 365V360H411.67V365H413.13ZM412.4 360.73H414.9V359.27H412.4V360.73ZM414.17 360V365H415.63V360H414.17ZM414.9 364.27H412.4V365.73H414.9V364.27ZM413.13 355V350H411.67V355H413.13ZM412.4 350.73H414.9V349.27H412.4V350.73ZM414.17 350V355H415.63V350H414.17ZM414.9 354.27H412.4V355.73H414.9V354.27Z" fill="#252840" mask="url(#path-193-outside-3_97_15364)"/>
<mask id="path-195-outside-4_97_15364" maskUnits="userSpaceOnUse" x="209" y="380" width="153" height="22" fill="black">
<rect fill="white" x="209" y="380" width="153" height="22"/>
<path d="M223 398.5V391H225.5V398.5H223ZM210.5 401V381H220.5V383.5H213V388.5H220.5V383.5H223V391H213V398.5H223V401H210.5ZM228.4 398.5V393.5H230.9V398.5H228.4ZM230.9 401V398.5H238.4V393.5H230.9V391H238.4V388.5H240.9V401H230.9ZM230.9 388.5V386H238.4V388.5H230.9ZM246.3 401V386H248.8V398.5H251.3V386H253.8V398.5H256.3V386H258.8V401H246.3ZM284.6 401V398.5H292.1V401H284.6ZM292.1 398.5V396H294.6V398.5H292.1ZM282.1 398.5V388.5H284.6V398.5H282.1ZM292.1 391V388.5H294.6V391H292.1ZM284.6 388.5V386H292.1V388.5H284.6ZM300 393.5V386H302.5V393.5H300ZM310 401V396H302.5V393.5H310V386H312.5V401H310ZM320.4 401V398.5H327.9V401H320.4ZM327.9 398.5V396H330.4V398.5H327.9ZM317.9 398.5V388.5H320.4V391H327.9V388.5H330.4V393.5H320.4V398.5H317.9ZM320.4 388.5V386H327.9V388.5H320.4ZM320.4 383.5V381H322.9V383.5H320.4ZM325.4 383.5V381H327.9V383.5H325.4ZM340.8 401V388.5H335.8V386H348.3V388.5H343.3V401H340.8ZM358.7 401V396H361.2V401H358.7ZM358.7 391V386H361.2V391H358.7Z"/>
</mask>
<path d="M223 398.5V391H225.5V398.5H223ZM210.5 401V381H220.5V383.5H213V388.5H220.5V383.5H223V391H213V398.5H223V401H210.5ZM228.4 398.5V393.5H230.9V398.5H228.4ZM230.9 401V398.5H238.4V393.5H230.9V391H238.4V388.5H240.9V401H230.9ZM230.9 388.5V386H238.4V388.5H230.9ZM246.3 401V386H248.8V398.5H251.3V386H253.8V398.5H256.3V386H258.8V401H246.3ZM284.6 401V398.5H292.1V401H284.6ZM292.1 398.5V396H294.6V398.5H292.1ZM282.1 398.5V388.5H284.6V398.5H282.1ZM292.1 391V388.5H294.6V391H292.1ZM284.6 388.5V386H292.1V388.5H284.6ZM300 393.5V386H302.5V393.5H300ZM310 401V396H302.5V393.5H310V386H312.5V401H310ZM320.4 401V398.5H327.9V401H320.4ZM327.9 398.5V396H330.4V398.5H327.9ZM317.9 398.5V388.5H320.4V391H327.9V388.5H330.4V393.5H320.4V398.5H317.9ZM320.4 388.5V386H327.9V388.5H320.4ZM320.4 383.5V381H322.9V383.5H320.4ZM325.4 383.5V381H327.9V383.5H325.4ZM340.8 401V388.5H335.8V386H348.3V388.5H343.3V401H340.8ZM358.7 401V396H361.2V401H358.7ZM358.7 391V386H361.2V391H358.7Z" fill="#252840"/>
<path d="M223 398.5H222.27V399.23H223V398.5ZM223 391V390.27H222.27V391H223ZM225.5 391H226.23V390.27H225.5V391ZM225.5 398.5V399.23H226.23V398.5H225.5ZM210.5 401H209.77V401.73H210.5V401ZM210.5 381V380.27H209.77V381H210.5ZM220.5 381H221.23V380.27H220.5V381ZM220.5 383.5V384.23H221.23V383.5H220.5ZM213 383.5V382.77H212.27V383.5H213ZM213 388.5H212.27V389.23H213V388.5ZM220.5 388.5V389.23H221.23V388.5H220.5ZM220.5 383.5V382.77H219.77V383.5H220.5ZM223 383.5H223.73V382.77H223V383.5ZM223 391V391.73H223.73V391H223ZM213 391V390.27H212.27V391H213ZM213 398.5H212.27V399.23H213V398.5ZM223 398.5H223.73V397.77H223V398.5ZM223 401V401.73H223.73V401H223ZM223.73 398.5V391H222.27V398.5H223.73ZM223 391.73H225.5V390.27H223V391.73ZM224.77 391V398.5H226.23V391H224.77ZM225.5 397.77H223V399.23H225.5V397.77ZM211.23 401V381H209.77V401H211.23ZM210.5 381.73H220.5V380.27H210.5V381.73ZM219.77 381V383.5H221.23V381H219.77ZM220.5 382.77H213V384.23H220.5V382.77ZM212.27 383.5V388.5H213.73V383.5H212.27ZM213 389.23H220.5V387.77H213V389.23ZM221.23 388.5V383.5H219.77V388.5H221.23ZM220.5 384.23H223V382.77H220.5V384.23ZM222.27 383.5V391H223.73V383.5H222.27ZM223 390.27H213V391.73H223V390.27ZM212.27 391V398.5H213.73V391H212.27ZM213 399.23H223V397.77H213V399.23ZM222.27 398.5V401H223.73V398.5H222.27ZM223 400.27H210.5V401.73H223V400.27ZM228.4 398.5H227.67V399.23H228.4V398.5ZM228.4 393.5V392.77H227.67V393.5H228.4ZM230.9 393.5H231.63V392.77H230.9V393.5ZM230.9 398.5V399.23H231.63V398.5H230.9ZM230.9 401H230.17V401.73H230.9V401ZM230.9 398.5V397.77H230.17V398.5H230.9ZM238.4 398.5V399.23H239.13V398.5H238.4ZM238.4 393.5H239.13V392.77H238.4V393.5ZM230.9 393.5H230.17V394.23H230.9V393.5ZM230.9 391V390.27H230.17V391H230.9ZM238.4 391V391.73H239.13V391H238.4ZM238.4 388.5V387.77H237.67V388.5H238.4ZM240.9 388.5H241.63V387.77H240.9V388.5ZM240.9 401V401.73H241.63V401H240.9ZM230.9 388.5H230.17V389.23H230.9V388.5ZM230.9 386V385.27H230.17V386H230.9ZM238.4 386H239.13V385.27H238.4V386ZM238.4 388.5V389.23H239.13V388.5H238.4ZM229.13 398.5V393.5H227.67V398.5H229.13ZM228.4 394.23H230.9V392.77H228.4V394.23ZM230.17 393.5V398.5H231.63V393.5H230.17ZM230.9 397.77H228.4V399.23H230.9V397.77ZM231.63 401V398.5H230.17V401H231.63ZM230.9 399.23H238.4V397.77H230.9V399.23ZM239.13 398.5V393.5H237.67V398.5H239.13ZM238.4 392.77H230.9V394.23H238.4V392.77ZM231.63 393.5V391H230.17V393.5H231.63ZM230.9 391.73H238.4V390.27H230.9V391.73ZM239.13 391V388.5H237.67V391H239.13ZM238.4 389.23H240.9V387.77H238.4V389.23ZM240.17 388.5V401H241.63V388.5H240.17ZM240.9 400.27H230.9V401.73H240.9V400.27ZM231.63 388.5V386H230.17V388.5H231.63ZM230.9 386.73H238.4V385.27H230.9V386.73ZM237.67 386V388.5H239.13V386H237.67ZM238.4 387.77H230.9V389.23H238.4V387.77ZM246.3 401H245.57V401.73H246.3V401ZM246.3 386V385.27H245.57V386H246.3ZM248.8 386H249.53V385.27H248.8V386ZM248.8 398.5H248.07V399.23H248.8V398.5ZM251.3 398.5V399.23H252.03V398.5H251.3ZM251.3 386V385.27H250.57V386H251.3ZM253.8 386H254.53V385.27H253.8V386ZM253.8 398.5H253.07V399.23H253.8V398.5ZM256.3 398.5V399.23H257.03V398.5H256.3ZM256.3 386V385.27H255.57V386H256.3ZM258.8 386H259.53V385.27H258.8V386ZM258.8 401V401.73H259.53V401H258.8ZM247.03 401V386H245.57V401H247.03ZM246.3 386.73H248.8V385.27H246.3V386.73ZM248.07 386V398.5H249.53V386H248.07ZM248.8 399.23H251.3V397.77H248.8V399.23ZM252.03 398.5V386H250.57V398.5H252.03ZM251.3 386.73H253.8V385.27H251.3V386.73ZM253.07 386V398.5H254.53V386H253.07ZM253.8 399.23H256.3V397.77H253.8V399.23ZM257.03 398.5V386H255.57V398.5H257.03ZM256.3 386.73H258.8V385.27H256.3V386.73ZM258.07 386V401H259.53V386H258.07ZM258.8 400.27H246.3V401.73H258.8V400.27ZM284.6 401H283.87V401.73H284.6V401ZM284.6 398.5V397.77H283.87V398.5H284.6ZM292.1 398.5H292.83V397.77H292.1V398.5ZM292.1 401V401.73H292.83V401H292.1ZM292.1 398.5H291.37V399.23H292.1V398.5ZM292.1 396V395.27H291.37V396H292.1ZM294.6 396H295.33V395.27H294.6V396ZM294.6 398.5V399.23H295.33V398.5H294.6ZM282.1 398.5H281.37V399.23H282.1V398.5ZM282.1 388.5V387.77H281.37V388.5H282.1ZM284.6 388.5H285.33V387.77H284.6V388.5ZM284.6 398.5V399.23H285.33V398.5H284.6ZM292.1 391H291.37V391.73H292.1V391ZM292.1 388.5V387.77H291.37V388.5H292.1ZM294.6 388.5H295.33V387.77H294.6V388.5ZM294.6 391V391.73H295.33V391H294.6ZM284.6 388.5H283.87V389.23H284.6V388.5ZM284.6 386V385.27H283.87V386H284.6ZM292.1 386H292.83V385.27H292.1V386ZM292.1 388.5V389.23H292.83V388.5H292.1ZM285.33 401V398.5H283.87V401H285.33ZM284.6 399.23H292.1V397.77H284.6V399.23ZM291.37 398.5V401H292.83V398.5H291.37ZM292.1 400.27H284.6V401.73H292.1V400.27ZM292.83 398.5V396H291.37V398.5H292.83ZM292.1 396.73H294.6V395.27H292.1V396.73ZM293.87 396V398.5H295.33V396H293.87ZM294.6 397.77H292.1V399.23H294.6V397.77ZM282.83 398.5V388.5H281.37V398.5H282.83ZM282.1 389.23H284.6V387.77H282.1V389.23ZM283.87 388.5V398.5H285.33V388.5H283.87ZM284.6 397.77H282.1V399.23H284.6V397.77ZM292.83 391V388.5H291.37V391H292.83ZM292.1 389.23H294.6V387.77H292.1V389.23ZM293.87 388.5V391H295.33V388.5H293.87ZM294.6 390.27H292.1V391.73H294.6V390.27ZM285.33 388.5V386H283.87V388.5H285.33ZM284.6 386.73H292.1V385.27H284.6V386.73ZM291.37 386V388.5H292.83V386H291.37ZM292.1 387.77H284.6V389.23H292.1V387.77ZM300 393.5H299.27V394.23H300V393.5ZM300 386V385.27H299.27V386H300ZM302.5 386H303.23V385.27H302.5V386ZM302.5 393.5V394.23H303.23V393.5H302.5ZM310 401H309.27V401.73H310V401ZM310 396H310.73V395.27H310V396ZM302.5 396H301.77V396.73H302.5V396ZM302.5 393.5V392.77H301.77V393.5H302.5ZM310 393.5V394.23H310.73V393.5H310ZM310 386V385.27H309.27V386H310ZM312.5 386H313.23V385.27H312.5V386ZM312.5 401V401.73H313.23V401H312.5ZM300.73 393.5V386H299.27V393.5H300.73ZM300 386.73H302.5V385.27H300V386.73ZM301.77 386V393.5H303.23V386H301.77ZM302.5 392.77H300V394.23H302.5V392.77ZM310.73 401V396H309.27V401H310.73ZM310 395.27H302.5V396.73H310V395.27ZM303.23 396V393.5H301.77V396H303.23ZM302.5 394.23H310V392.77H302.5V394.23ZM310.73 393.5V386H309.27V393.5H310.73ZM310 386.73H312.5V385.27H310V386.73ZM311.77 386V401H313.23V386H311.77ZM312.5 400.27H310V401.73H312.5V400.27ZM320.4 401H319.67V401.73H320.4V401ZM320.4 398.5V397.77H319.67V398.5H320.4ZM327.9 398.5H328.63V397.77H327.9V398.5ZM327.9 401V401.73H328.63V401H327.9ZM327.9 398.5H327.17V399.23H327.9V398.5ZM327.9 396V395.27H327.17V396H327.9ZM330.4 396H331.13V395.27H330.4V396ZM330.4 398.5V399.23H331.13V398.5H330.4ZM317.9 398.5H317.17V399.23H317.9V398.5ZM317.9 388.5V387.77H317.17V388.5H317.9ZM320.4 388.5H321.13V387.77H320.4V388.5ZM320.4 391H319.67V391.73H320.4V391ZM327.9 391V391.73H328.63V391H327.9ZM327.9 388.5V387.77H327.17V388.5H327.9ZM330.4 388.5H331.13V387.77H330.4V388.5ZM330.4 393.5V394.23H331.13V393.5H330.4ZM320.4 393.5V392.77H319.67V393.5H320.4ZM320.4 398.5V399.23H321.13V398.5H320.4ZM320.4 388.5H319.67V389.23H320.4V388.5ZM320.4 386V385.27H319.67V386H320.4ZM327.9 386H328.63V385.27H327.9V386ZM327.9 388.5V389.23H328.63V388.5H327.9ZM320.4 383.5H319.67V384.23H320.4V383.5ZM320.4 381V380.27H319.67V381H320.4ZM322.9 381H323.63V380.27H322.9V381ZM322.9 383.5V384.23H323.63V383.5H322.9ZM325.4 383.5H324.67V384.23H325.4V383.5ZM325.4 381V380.27H324.67V381H325.4ZM327.9 381H328.63V380.27H327.9V381ZM327.9 383.5V384.23H328.63V383.5H327.9ZM321.13 401V398.5H319.67V401H321.13ZM320.4 399.23H327.9V397.77H320.4V399.23ZM327.17 398.5V401H328.63V398.5H327.17ZM327.9 400.27H320.4V401.73H327.9V400.27ZM328.63 398.5V396H327.17V398.5H328.63ZM327.9 396.73H330.4V395.27H327.9V396.73ZM329.67 396V398.5H331.13V396H329.67ZM330.4 397.77H327.9V399.23H330.4V397.77ZM318.63 398.5V388.5H317.17V398.5H318.63ZM317.9 389.23H320.4V387.77H317.9V389.23ZM319.67 388.5V391H321.13V388.5H319.67ZM320.4 391.73H327.9V390.27H320.4V391.73ZM328.63 391V388.5H327.17V391H328.63ZM327.9 389.23H330.4V387.77H327.9V389.23ZM329.67 388.5V393.5H331.13V388.5H329.67ZM330.4 392.77H320.4V394.23H330.4V392.77ZM319.67 393.5V398.5H321.13V393.5H319.67ZM320.4 397.77H317.9V399.23H320.4V397.77ZM321.13 388.5V386H319.67V388.5H321.13ZM320.4 386.73H327.9V385.27H320.4V386.73ZM327.17 386V388.5H328.63V386H327.17ZM327.9 387.77H320.4V389.23H327.9V387.77ZM321.13 383.5V381H319.67V383.5H321.13ZM320.4 381.73H322.9V380.27H320.4V381.73ZM322.17 381V383.5H323.63V381H322.17ZM322.9 382.77H320.4V384.23H322.9V382.77ZM326.13 383.5V381H324.67V383.5H326.13ZM325.4 381.73H327.9V380.27H325.4V381.73ZM327.17 381V383.5H328.63V381H327.17ZM327.9 382.77H325.4V384.23H327.9V382.77ZM340.8 401H340.07V401.73H340.8V401ZM340.8 388.5H341.53V387.77H340.8V388.5ZM335.8 388.5H335.07V389.23H335.8V388.5ZM335.8 386V385.27H335.07V386H335.8ZM348.3 386H349.03V385.27H348.3V386ZM348.3 388.5V389.23H349.03V388.5H348.3ZM343.3 388.5V387.77H342.57V388.5H343.3ZM343.3 401V401.73H344.03V401H343.3ZM341.53 401V388.5H340.07V401H341.53ZM340.8 387.77H335.8V389.23H340.8V387.77ZM336.53 388.5V386H335.07V388.5H336.53ZM335.8 386.73H348.3V385.27H335.8V386.73ZM347.57 386V388.5H349.03V386H347.57ZM348.3 387.77H343.3V389.23H348.3V387.77ZM342.57 388.5V401H344.03V388.5H342.57ZM343.3 400.27H340.8V401.73H343.3V400.27ZM358.7 401H357.97V401.73H358.7V401ZM358.7 396V395.27H357.97V396H358.7ZM361.2 396H361.93V395.27H361.2V396ZM361.2 401V401.73H361.93V401H361.2ZM358.7 391H357.97V391.73H358.7V391ZM358.7 386V385.27H357.97V386H358.7ZM361.2 386H361.93V385.27H361.2V386ZM361.2 391V391.73H361.93V391H361.2ZM359.43 401V396H357.97V401H359.43ZM358.7 396.73H361.2V395.27H358.7V396.73ZM360.47 396V401H361.93V396H360.47ZM361.2 400.27H358.7V401.73H361.2V400.27ZM359.43 391V386H357.97V391H359.43ZM358.7 386.73H361.2V385.27H358.7V386.73ZM360.47 386V391H361.93V386H360.47ZM361.2 390.27H358.7V391.73H361.2V390.27Z" fill="#252840" mask="url(#path-195-outside-4_97_15364)"/>
<rect x="722.691" y="0.5" width="13" height="507" fill="#B9A597"/>
<rect x="989" y="498" width="13" height="989" transform="rotate(90 989 498)" fill="#B9A597"/>
</g>
<defs>
<clipPath id="clip0_97_15364">
<rect width="736" height="511" fill="white"/>
</clipPath>
</defs>
</svg>
