<svg width="471" height="100" viewBox="0 0 471 100" fill="none" xmlns="http://www.w3.org/2000/svg">
<path fill-rule="evenodd" clip-rule="evenodd" d="M73.3027 0H0.302734V20H27.3027L27.3027 100H47.3027L47.3027 20H73.3027V0Z" fill="#252840"/>
<path fill-rule="evenodd" clip-rule="evenodd" d="M259.303 0H186.303V20H213.303L213.303 100H233.303L233.303 20H259.303V0Z" fill="#252840"/>
<path d="M386.206 97.7758V84.4558H372.738V2.61182H387.686V43.0158H427.942V56.3358H441.558V84.4558H427.942V97.7758H386.206ZM387.686 82.9758H426.462V57.8158H387.686V82.9758ZM453.398 97.7758V29.3998H468.346V97.7758H453.398Z" fill="#252840"/>
<path d="M280.098 97.7758V16.0798H293.566V2.61182H335.302V16.0798H348.918V57.5198H335.302V70.9878H295.046V97.7758H280.098ZM295.046 56.0398H333.822V17.5598H295.046V56.0398Z" fill="#252840"/>
<path d="M94.8203 97.7758V2.61182H109.768V69.5078H121.608V29.3998H135.224V16.0798H148.544V2.61182H163.64V97.7758H148.544V30.8798H136.704V70.9878H123.088V84.4558H109.768V97.7758H94.8203Z" fill="#252840"/>
<path fill-rule="evenodd" clip-rule="evenodd" d="M426.462 82.9758V57.8158H387.686V82.9758H426.462ZM424.279 80.7927V59.9989H389.869V80.7927H424.279Z" fill="#252840"/>
<path fill-rule="evenodd" clip-rule="evenodd" d="M384.023 99.9589V86.6389H370.555V0.428711H389.869V40.8327H430.125V54.1527H443.741V86.6389H430.125V99.9589H384.023ZM427.942 84.4558H441.558V56.3358H427.942V43.0158H387.686V2.61182H372.738V84.4558H386.206V97.7758H427.942V84.4558Z" fill="#252840"/>
<path fill-rule="evenodd" clip-rule="evenodd" d="M451.215 99.9589V0.428711H470.529V99.9589H451.215ZM453.398 97.7758H468.346V29.3998H453.398V97.7758Z" fill="#252840"/>
<path fill-rule="evenodd" clip-rule="evenodd" d="M277.916 99.9589V13.8967H291.384V0.428711H337.486V13.8967H351.102V59.7029H337.486V73.1709H297.23V99.9589H277.916ZM295.047 70.9878H335.303V57.5198H348.919V16.0798H335.303V2.61182H293.567V16.0798H280.099V97.7758H295.047V70.9878ZM295.047 56.0398H333.823V17.5598H295.047V56.0398ZM297.23 19.7429V53.8567H331.64V19.7429H297.23Z" fill="#252840"/>
<path fill-rule="evenodd" clip-rule="evenodd" d="M92.6387 99.9589V0.428711H111.953V67.3247H119.427V27.2167H133.043V13.8967H146.363V0.428711H165.825V99.9589H146.363V33.0629H138.889V73.1709H125.273V86.6389H111.953V99.9589H92.6387ZM109.77 84.4558H123.09V70.9878H136.706V30.8798H148.546V97.7758H163.642V2.61182H148.546V16.0798H135.226V29.3998H121.61V69.5078H109.77V2.61182H94.8218V97.7758H109.77V84.4558Z" fill="#252840"/>
</svg>
