<svg width="1099" height="217" viewBox="0 0 1099 217" fill="none" xmlns="http://www.w3.org/2000/svg">
<mask id="path-1-outside-1_6_2610" maskUnits="userSpaceOnUse" x="0" y="50.3296" width="1097" height="131" fill="black">
<rect fill="white" y="50.3296" width="1097" height="131"/>
<path d="M11.1455 170.359V77.0205H26.5327V61.6332H74.2164V77.0205H89.7727V124.366H74.2164V139.753H66.7764V153.45H81.9946V170.359H65.0855V155.14H49.5291V139.753H28.2236V170.359H11.1455ZM28.2236 122.675H72.5255V78.7114H28.2236V122.675ZM132.373 170.359V155.14H116.986V61.6332H134.064V153.45H178.366V61.6332H195.613V155.14H180.057V170.359H132.373ZM222.826 170.359V61.6332H239.904V77.0205H255.123V92.2387H270.679V138.062H284.206V61.6332H301.453V170.359H284.206V155.14H268.988V139.753H253.432V93.9296H239.904V170.359H222.826ZM328.666 170.359V77.0205H344.054V61.6332H391.737V77.0205H407.294V124.366H391.737V139.753H345.745V170.359H328.666ZM345.745 122.675H390.046V78.7114H345.745V122.675ZM449.894 170.359V155.14H434.507V77.0205H449.894V61.6332H497.578V77.0205H513.134V93.9296H495.887V78.7114H451.585V107.626H482.36V124.366H451.585V153.45H495.887V138.062H513.134V155.14H497.578V170.359H449.894ZM540.347 170.359V77.0205H555.734V61.6332H603.418V77.0205H618.974V124.366H603.418V139.753H595.978V153.45H611.196V170.359H594.287V155.14H578.731V139.753H557.425V170.359H540.347ZM557.425 122.675H601.727V78.7114H557.425V122.675ZM661.575 170.359V155.14H646.188V138.062H663.266V153.45H707.568V124.366H661.575V109.148H646.188V77.0205H661.575V61.6332H709.258V77.0205H724.815V93.9296H707.568V78.7114H663.266V107.626H709.258V122.675H724.815V155.14H709.258V170.359H661.575ZM752.028 170.359V77.0205H767.415V61.6332H815.099V77.0205H830.655V124.366H815.099V139.753H807.659V153.45H822.877V170.359H805.968V155.14H790.411V139.753H769.106V170.359H752.028ZM769.106 122.675H813.408V78.7114H769.106V122.675ZM873.255 170.359V155.14H857.868V61.6332H874.946V153.45H919.248V61.6332H936.495V155.14H920.939V170.359H873.255ZM963.709 170.359V61.6332H980.787V77.0205H996.005V92.2387H1011.56V138.062H1025.09V61.6332H1042.34V170.359H1025.09V155.14H1009.87V139.753H994.314V93.9296H980.787V170.359H963.709ZM1069.55 139.753V61.6332H1086.63V139.753H1069.55ZM1069.55 170.359V153.45H1086.63V170.359H1069.55Z"/>
</mask>
<path d="M11.1455 170.359V77.0205H26.5327V61.6332H74.2164V77.0205H89.7727V124.366H74.2164V139.753H66.7764V153.45H81.9946V170.359H65.0855V155.14H49.5291V139.753H28.2236V170.359H11.1455ZM28.2236 122.675H72.5255V78.7114H28.2236V122.675ZM132.373 170.359V155.14H116.986V61.6332H134.064V153.45H178.366V61.6332H195.613V155.14H180.057V170.359H132.373ZM222.826 170.359V61.6332H239.904V77.0205H255.123V92.2387H270.679V138.062H284.206V61.6332H301.453V170.359H284.206V155.14H268.988V139.753H253.432V93.9296H239.904V170.359H222.826ZM328.666 170.359V77.0205H344.054V61.6332H391.737V77.0205H407.294V124.366H391.737V139.753H345.745V170.359H328.666ZM345.745 122.675H390.046V78.7114H345.745V122.675ZM449.894 170.359V155.14H434.507V77.0205H449.894V61.6332H497.578V77.0205H513.134V93.9296H495.887V78.7114H451.585V107.626H482.36V124.366H451.585V153.45H495.887V138.062H513.134V155.14H497.578V170.359H449.894ZM540.347 170.359V77.0205H555.734V61.6332H603.418V77.0205H618.974V124.366H603.418V139.753H595.978V153.45H611.196V170.359H594.287V155.14H578.731V139.753H557.425V170.359H540.347ZM557.425 122.675H601.727V78.7114H557.425V122.675ZM661.575 170.359V155.14H646.188V138.062H663.266V153.45H707.568V124.366H661.575V109.148H646.188V77.0205H661.575V61.6332H709.258V77.0205H724.815V93.9296H707.568V78.7114H663.266V107.626H709.258V122.675H724.815V155.14H709.258V170.359H661.575ZM752.028 170.359V77.0205H767.415V61.6332H815.099V77.0205H830.655V124.366H815.099V139.753H807.659V153.45H822.877V170.359H805.968V155.14H790.411V139.753H769.106V170.359H752.028ZM769.106 122.675H813.408V78.7114H769.106V122.675ZM873.255 170.359V155.14H857.868V61.6332H874.946V153.45H919.248V61.6332H936.495V155.14H920.939V170.359H873.255ZM963.709 170.359V61.6332H980.787V77.0205H996.005V92.2387H1011.56V138.062H1025.09V61.6332H1042.34V170.359H1025.09V155.14H1009.87V139.753H994.314V93.9296H980.787V170.359H963.709ZM1069.55 139.753V61.6332H1086.63V139.753H1069.55ZM1069.55 170.359V153.45H1086.63V170.359H1069.55Z" fill="#252840"/>
<path d="M11.1455 170.359H0.788637V180.715H11.1455V170.359ZM11.1455 77.0205V66.6637H0.788637V77.0205H11.1455ZM26.5327 77.0205V87.3773H36.8895V77.0205H26.5327ZM26.5327 61.6332V51.2764H16.1759V61.6332H26.5327ZM74.2164 61.6332H84.5732V51.2764H74.2164V61.6332ZM74.2164 77.0205H63.8596V87.3773H74.2164V77.0205ZM89.7727 77.0205H100.13V66.6637H89.7727V77.0205ZM89.7727 124.366V134.723H100.13V124.366H89.7727ZM74.2164 124.366V114.009H63.8596V124.366H74.2164ZM74.2164 139.753V150.11H84.5732V139.753H74.2164ZM66.7764 139.753V129.396H56.4196V139.753H66.7764ZM66.7764 153.45H56.4196V163.806H66.7764V153.45ZM81.9946 153.45H92.3514V143.093H81.9946V153.45ZM81.9946 170.359V180.715H92.3514V170.359H81.9946ZM65.0855 170.359H54.7286V180.715H65.0855V170.359ZM65.0855 155.14H75.4423V144.784H65.0855V155.14ZM49.5291 155.14H39.1723V165.497H49.5291V155.14ZM49.5291 139.753H59.8859V129.396H49.5291V139.753ZM28.2236 139.753V129.396H17.8668V139.753H28.2236ZM28.2236 170.359V180.715H38.5805V170.359H28.2236ZM28.2236 122.675H17.8668V133.032H28.2236V122.675ZM72.5255 122.675V133.032H82.8823V122.675H72.5255ZM72.5255 78.7114H82.8823V68.3546H72.5255V78.7114ZM28.2236 78.7114V68.3546H17.8668V78.7114H28.2236ZM21.5023 170.359V77.0205H0.788637V170.359H21.5023ZM11.1455 87.3773H26.5327V66.6637H11.1455V87.3773ZM36.8895 77.0205V61.6332H16.1759V77.0205H36.8895ZM26.5327 71.99H74.2164V51.2764H26.5327V71.99ZM63.8596 61.6332V77.0205H84.5732V61.6332H63.8596ZM74.2164 87.3773H89.7727V66.6637H74.2164V87.3773ZM79.4159 77.0205V124.366H100.13V77.0205H79.4159ZM89.7727 114.009H74.2164V134.723H89.7727V114.009ZM63.8596 124.366V139.753H84.5732V124.366H63.8596ZM74.2164 129.396H66.7764V150.11H74.2164V129.396ZM56.4196 139.753V153.45H77.1332V139.753H56.4196ZM66.7764 163.806H81.9946V143.093H66.7764V163.806ZM71.6377 153.45V170.359H92.3514V153.45H71.6377ZM81.9946 160.002H65.0855V180.715H81.9946V160.002ZM75.4423 170.359V155.14H54.7286V170.359H75.4423ZM65.0855 144.784H49.5291V165.497H65.0855V144.784ZM59.8859 155.14V139.753H39.1723V155.14H59.8859ZM49.5291 129.396H28.2236V150.11H49.5291V129.396ZM17.8668 139.753V170.359H38.5805V139.753H17.8668ZM28.2236 160.002H11.1455V180.715H28.2236V160.002ZM28.2236 133.032H72.5255V112.318H28.2236V133.032ZM82.8823 122.675V78.7114H62.1686V122.675H82.8823ZM72.5255 68.3546H28.2236V89.0682H72.5255V68.3546ZM17.8668 78.7114V122.675H38.5805V78.7114H17.8668ZM132.373 170.359H122.016V180.715H132.373V170.359ZM132.373 155.14H142.73V144.784H132.373V155.14ZM116.986 155.14H106.629V165.497H116.986V155.14ZM116.986 61.6332V51.2764H106.629V61.6332H116.986ZM134.064 61.6332H144.421V51.2764H134.064V61.6332ZM134.064 153.45H123.707V163.806H134.064V153.45ZM178.366 153.45V163.806H188.723V153.45H178.366ZM178.366 61.6332V51.2764H168.009V61.6332H178.366ZM195.613 61.6332H205.97V51.2764H195.613V61.6332ZM195.613 155.14V165.497H205.97V155.14H195.613ZM180.057 155.14V144.784H169.7V155.14H180.057ZM180.057 170.359V180.715H190.414V170.359H180.057ZM142.73 170.359V155.14H122.016V170.359H142.73ZM132.373 144.784H116.986V165.497H132.373V144.784ZM127.343 155.14V61.6332H106.629V155.14H127.343ZM116.986 71.99H134.064V51.2764H116.986V71.99ZM123.707 61.6332V153.45H144.421V61.6332H123.707ZM134.064 163.806H178.366V143.093H134.064V163.806ZM188.723 153.45V61.6332H168.009V153.45H188.723ZM178.366 71.99H195.613V51.2764H178.366V71.99ZM185.256 61.6332V155.14H205.97V61.6332H185.256ZM195.613 144.784H180.057V165.497H195.613V144.784ZM169.7 155.14V170.359H190.414V155.14H169.7ZM180.057 160.002H132.373V180.715H180.057V160.002ZM222.826 170.359H212.469V180.715H222.826V170.359ZM222.826 61.6332V51.2764H212.469V61.6332H222.826ZM239.904 61.6332H250.261V51.2764H239.904V61.6332ZM239.904 77.0205H229.548V87.3773H239.904V77.0205ZM255.123 77.0205H265.479V66.6637H255.123V77.0205ZM255.123 92.2387H244.766V102.595H255.123V92.2387ZM270.679 92.2387H281.036V81.8819H270.679V92.2387ZM270.679 138.062H260.322V148.419H270.679V138.062ZM284.206 138.062V148.419H294.563V138.062H284.206ZM284.206 61.6332V51.2764H273.849V61.6332H284.206ZM301.453 61.6332H311.81V51.2764H301.453V61.6332ZM301.453 170.359V180.715H311.81V170.359H301.453ZM284.206 170.359H273.849V180.715H284.206V170.359ZM284.206 155.14H294.563V144.784H284.206V155.14ZM268.988 155.14H258.631V165.497H268.988V155.14ZM268.988 139.753H279.345V129.396H268.988V139.753ZM253.432 139.753H243.075V150.11H253.432V139.753ZM253.432 93.9296H263.788V83.5728H253.432V93.9296ZM239.904 93.9296V83.5728H229.548V93.9296H239.904ZM239.904 170.359V180.715H250.261V170.359H239.904ZM233.183 170.359V61.6332H212.469V170.359H233.183ZM222.826 71.99H239.904V51.2764H222.826V71.99ZM229.548 61.6332V77.0205H250.261V61.6332H229.548ZM239.904 87.3773H255.123V66.6637H239.904V87.3773ZM244.766 77.0205V92.2387H265.479V77.0205H244.766ZM255.123 102.595H270.679V81.8819H255.123V102.595ZM260.322 92.2387V138.062H281.036V92.2387H260.322ZM270.679 148.419H284.206V127.705H270.679V148.419ZM294.563 138.062V61.6332H273.849V138.062H294.563ZM284.206 71.99H301.453V51.2764H284.206V71.99ZM291.097 61.6332V170.359H311.81V61.6332H291.097ZM301.453 160.002H284.206V180.715H301.453V160.002ZM294.563 170.359V155.14H273.849V170.359H294.563ZM284.206 144.784H268.988V165.497H284.206V144.784ZM279.345 155.14V139.753H258.631V155.14H279.345ZM268.988 129.396H253.432V150.11H268.988V129.396ZM263.788 139.753V93.9296H243.075V139.753H263.788ZM253.432 83.5728H239.904V104.286H253.432V83.5728ZM229.548 93.9296V170.359H250.261V93.9296H229.548ZM239.904 160.002H222.826V180.715H239.904V160.002ZM328.666 170.359H318.31V180.715H328.666V170.359ZM328.666 77.0205V66.6637H318.31V77.0205H328.666ZM344.054 77.0205V87.3773H354.411V77.0205H344.054ZM344.054 61.6332V51.2764H333.697V61.6332H344.054ZM391.737 61.6332H402.094V51.2764H391.737V61.6332ZM391.737 77.0205H381.381V87.3773H391.737V77.0205ZM407.294 77.0205H417.651V66.6637H407.294V77.0205ZM407.294 124.366V134.723H417.651V124.366H407.294ZM391.737 124.366V114.009H381.381V124.366H391.737ZM391.737 139.753V150.11H402.094V139.753H391.737ZM345.745 139.753V129.396H335.388V139.753H345.745ZM345.745 170.359V180.715H356.101V170.359H345.745ZM345.745 122.675H335.388V133.032H345.745V122.675ZM390.046 122.675V133.032H400.403V122.675H390.046ZM390.046 78.7114H400.403V68.3546H390.046V78.7114ZM345.745 78.7114V68.3546H335.388V78.7114H345.745ZM339.023 170.359V77.0205H318.31V170.359H339.023ZM328.666 87.3773H344.054V66.6637H328.666V87.3773ZM354.411 77.0205V61.6332H333.697V77.0205H354.411ZM344.054 71.99H391.737V51.2764H344.054V71.99ZM381.381 61.6332V77.0205H402.094V61.6332H381.381ZM391.737 87.3773H407.294V66.6637H391.737V87.3773ZM396.937 77.0205V124.366H417.651V77.0205H396.937ZM407.294 114.009H391.737V134.723H407.294V114.009ZM381.381 124.366V139.753H402.094V124.366H381.381ZM391.737 129.396H345.745V150.11H391.737V129.396ZM335.388 139.753V170.359H356.101V139.753H335.388ZM345.745 160.002H328.666V180.715H345.745V160.002ZM345.745 133.032H390.046V112.318H345.745V133.032ZM400.403 122.675V78.7114H379.69V122.675H400.403ZM390.046 68.3546H345.745V89.0682H390.046V68.3546ZM335.388 78.7114V122.675H356.101V78.7114H335.388ZM449.894 170.359H439.537V180.715H449.894V170.359ZM449.894 155.14H460.251V144.784H449.894V155.14ZM434.507 155.14H424.15V165.497H434.507V155.14ZM434.507 77.0205V66.6637H424.15V77.0205H434.507ZM449.894 77.0205V87.3773H460.251V77.0205H449.894ZM449.894 61.6332V51.2764H439.537V61.6332H449.894ZM497.578 61.6332H507.935V51.2764H497.578V61.6332ZM497.578 77.0205H487.221V87.3773H497.578V77.0205ZM513.134 77.0205H523.491V66.6637H513.134V77.0205ZM513.134 93.9296V104.286H523.491V93.9296H513.134ZM495.887 93.9296H485.53V104.286H495.887V93.9296ZM495.887 78.7114H506.244V68.3546H495.887V78.7114ZM451.585 78.7114V68.3546H441.228V78.7114H451.585ZM451.585 107.626H441.228V117.983H451.585V107.626ZM482.36 107.626H492.716V97.2691H482.36V107.626ZM482.36 124.366V134.723H492.716V124.366H482.36ZM451.585 124.366V114.009H441.228V124.366H451.585ZM451.585 153.45H441.228V163.806H451.585V153.45ZM495.887 153.45V163.806H506.244V153.45H495.887ZM495.887 138.062V127.705H485.53V138.062H495.887ZM513.134 138.062H523.491V127.705H513.134V138.062ZM513.134 155.14V165.497H523.491V155.14H513.134ZM497.578 155.14V144.784H487.221V155.14H497.578ZM497.578 170.359V180.715H507.935V170.359H497.578ZM460.251 170.359V155.14H439.537V170.359H460.251ZM449.894 144.784H434.507V165.497H449.894V144.784ZM444.864 155.14V77.0205H424.15V155.14H444.864ZM434.507 87.3773H449.894V66.6637H434.507V87.3773ZM460.251 77.0205V61.6332H439.537V77.0205H460.251ZM449.894 71.99H497.578V51.2764H449.894V71.99ZM487.221 61.6332V77.0205H507.935V61.6332H487.221ZM497.578 87.3773H513.134V66.6637H497.578V87.3773ZM502.777 77.0205V93.9296H523.491V77.0205H502.777ZM513.134 83.5728H495.887V104.286H513.134V83.5728ZM506.244 93.9296V78.7114H485.53V93.9296H506.244ZM495.887 68.3546H451.585V89.0682H495.887V68.3546ZM441.228 78.7114V107.626H461.942V78.7114H441.228ZM451.585 117.983H482.36V97.2691H451.585V117.983ZM472.003 107.626V124.366H492.716V107.626H472.003ZM482.36 114.009H451.585V134.723H482.36V114.009ZM441.228 124.366V153.45H461.942V124.366H441.228ZM451.585 163.806H495.887V143.093H451.585V163.806ZM506.244 153.45V138.062H485.53V153.45H506.244ZM495.887 148.419H513.134V127.705H495.887V148.419ZM502.777 138.062V155.14H523.491V138.062H502.777ZM513.134 144.784H497.578V165.497H513.134V144.784ZM487.221 155.14V170.359H507.935V155.14H487.221ZM497.578 160.002H449.894V180.715H497.578V160.002ZM540.347 170.359H529.99V180.715H540.347V170.359ZM540.347 77.0205V66.6637H529.99V77.0205H540.347ZM555.734 77.0205V87.3773H566.091V77.0205H555.734ZM555.734 61.6332V51.2764H545.378V61.6332H555.734ZM603.418 61.6332H613.775V51.2764H603.418V61.6332ZM603.418 77.0205H593.061V87.3773H603.418V77.0205ZM618.974 77.0205H629.331V66.6637H618.974V77.0205ZM618.974 124.366V134.723H629.331V124.366H618.974ZM603.418 124.366V114.009H593.061V124.366H603.418ZM603.418 139.753V150.11H613.775V139.753H603.418ZM595.978 139.753V129.396H585.621V139.753H595.978ZM595.978 153.45H585.621V163.806H595.978V153.45ZM611.196 153.45H621.553V143.093H611.196V153.45ZM611.196 170.359V180.715H621.553V170.359H611.196ZM594.287 170.359H583.93V180.715H594.287V170.359ZM594.287 155.14H604.644V144.784H594.287V155.14ZM578.731 155.14H568.374V165.497H578.731V155.14ZM578.731 139.753H589.088V129.396H578.731V139.753ZM557.425 139.753V129.396H547.069V139.753H557.425ZM557.425 170.359V180.715H567.782V170.359H557.425ZM557.425 122.675H547.069V133.032H557.425V122.675ZM601.727 122.675V133.032H612.084V122.675H601.727ZM601.727 78.7114H612.084V68.3546H601.727V78.7114ZM557.425 78.7114V68.3546H547.069V78.7114H557.425ZM550.704 170.359V77.0205H529.99V170.359H550.704ZM540.347 87.3773H555.734V66.6637H540.347V87.3773ZM566.091 77.0205V61.6332H545.378V77.0205H566.091ZM555.734 71.99H603.418V51.2764H555.734V71.99ZM593.061 61.6332V77.0205H613.775V61.6332H593.061ZM603.418 87.3773H618.974V66.6637H603.418V87.3773ZM608.618 77.0205V124.366H629.331V77.0205H608.618ZM618.974 114.009H603.418V134.723H618.974V114.009ZM593.061 124.366V139.753H613.775V124.366H593.061ZM603.418 129.396H595.978V150.11H603.418V129.396ZM585.621 139.753V153.45H606.335V139.753H585.621ZM595.978 163.806H611.196V143.093H595.978V163.806ZM600.839 153.45V170.359H621.553V153.45H600.839ZM611.196 160.002H594.287V180.715H611.196V160.002ZM604.644 170.359V155.14H583.93V170.359H604.644ZM594.287 144.784H578.731V165.497H594.287V144.784ZM589.088 155.14V139.753H568.374V155.14H589.088ZM578.731 129.396H557.425V150.11H578.731V129.396ZM547.069 139.753V170.359H567.782V139.753H547.069ZM557.425 160.002H540.347V180.715H557.425V160.002ZM557.425 133.032H601.727V112.318H557.425V133.032ZM612.084 122.675V78.7114H591.37V122.675H612.084ZM601.727 68.3546H557.425V89.0682H601.727V68.3546ZM547.069 78.7114V122.675H567.782V78.7114H547.069ZM661.575 170.359H651.218V180.715H661.575V170.359ZM661.575 155.14H671.932V144.784H661.575V155.14ZM646.188 155.14H635.831V165.497H646.188V155.14ZM646.188 138.062V127.705H635.831V138.062H646.188ZM663.266 138.062H673.623V127.705H663.266V138.062ZM663.266 153.45H652.909V163.806H663.266V153.45ZM707.568 153.45V163.806H717.924V153.45H707.568ZM707.568 124.366H717.924V114.009H707.568V124.366ZM661.575 124.366H651.218V134.723H661.575V124.366ZM661.575 109.148H671.932V98.7909H661.575V109.148ZM646.188 109.148H635.831V119.505H646.188V109.148ZM646.188 77.0205V66.6637H635.831V77.0205H646.188ZM661.575 77.0205V87.3773H671.932V77.0205H661.575ZM661.575 61.6332V51.2764H651.218V61.6332H661.575ZM709.258 61.6332H719.615V51.2764H709.258V61.6332ZM709.258 77.0205H698.902V87.3773H709.258V77.0205ZM724.815 77.0205H735.172V66.6637H724.815V77.0205ZM724.815 93.9296V104.286H735.172V93.9296H724.815ZM707.568 93.9296H697.211V104.286H707.568V93.9296ZM707.568 78.7114H717.924V68.3546H707.568V78.7114ZM663.266 78.7114V68.3546H652.909V78.7114H663.266ZM663.266 107.626H652.909V117.983H663.266V107.626ZM709.258 107.626H719.615V97.2691H709.258V107.626ZM709.258 122.675H698.902V133.032H709.258V122.675ZM724.815 122.675H735.172V112.318H724.815V122.675ZM724.815 155.14V165.497H735.172V155.14H724.815ZM709.258 155.14V144.784H698.902V155.14H709.258ZM709.258 170.359V180.715H719.615V170.359H709.258ZM671.932 170.359V155.14H651.218V170.359H671.932ZM661.575 144.784H646.188V165.497H661.575V144.784ZM656.544 155.14V138.062H635.831V155.14H656.544ZM646.188 148.419H663.266V127.705H646.188V148.419ZM652.909 138.062V153.45H673.623V138.062H652.909ZM663.266 163.806H707.568V143.093H663.266V163.806ZM717.924 153.45V124.366H697.211V153.45H717.924ZM707.568 114.009H661.575V134.723H707.568V114.009ZM671.932 124.366V109.148H651.218V124.366H671.932ZM661.575 98.7909H646.188V119.505H661.575V98.7909ZM656.544 109.148V77.0205H635.831V109.148H656.544ZM646.188 87.3773H661.575V66.6637H646.188V87.3773ZM671.932 77.0205V61.6332H651.218V77.0205H671.932ZM661.575 71.99H709.258V51.2764H661.575V71.99ZM698.902 61.6332V77.0205H719.615V61.6332H698.902ZM709.258 87.3773H724.815V66.6637H709.258V87.3773ZM714.458 77.0205V93.9296H735.172V77.0205H714.458ZM724.815 83.5728H707.568V104.286H724.815V83.5728ZM717.924 93.9296V78.7114H697.211V93.9296H717.924ZM707.568 68.3546H663.266V89.0682H707.568V68.3546ZM652.909 78.7114V107.626H673.623V78.7114H652.909ZM663.266 117.983H709.258V97.2691H663.266V117.983ZM698.902 107.626V122.675H719.615V107.626H698.902ZM709.258 133.032H724.815V112.318H709.258V133.032ZM714.458 122.675V155.14H735.172V122.675H714.458ZM724.815 144.784H709.258V165.497H724.815V144.784ZM698.902 155.14V170.359H719.615V155.14H698.902ZM709.258 160.002H661.575V180.715H709.258V160.002ZM752.028 170.359H741.671V180.715H752.028V170.359ZM752.028 77.0205V66.6637H741.671V77.0205H752.028ZM767.415 77.0205V87.3773H777.772V77.0205H767.415ZM767.415 61.6332V51.2764H757.058V61.6332H767.415ZM815.099 61.6332H825.456V51.2764H815.099V61.6332ZM815.099 77.0205H804.742V87.3773H815.099V77.0205ZM830.655 77.0205H841.012V66.6637H830.655V77.0205ZM830.655 124.366V134.723H841.012V124.366H830.655ZM815.099 124.366V114.009H804.742V124.366H815.099ZM815.099 139.753V150.11H825.456V139.753H815.099ZM807.659 139.753V129.396H797.302V139.753H807.659ZM807.659 153.45H797.302V163.806H807.659V153.45ZM822.877 153.45H833.234V143.093H822.877V153.45ZM822.877 170.359V180.715H833.234V170.359H822.877ZM805.968 170.359H795.611V180.715H805.968V170.359ZM805.968 155.14H816.325V144.784H805.968V155.14ZM790.411 155.14H780.055V165.497H790.411V155.14ZM790.411 139.753H800.768V129.396H790.411V139.753ZM769.106 139.753V129.396H758.749V139.753H769.106ZM769.106 170.359V180.715H779.463V170.359H769.106ZM769.106 122.675H758.749V133.032H769.106V122.675ZM813.408 122.675V133.032H823.765V122.675H813.408ZM813.408 78.7114H823.765V68.3546H813.408V78.7114ZM769.106 78.7114V68.3546H758.749V78.7114H769.106ZM762.385 170.359V77.0205H741.671V170.359H762.385ZM752.028 87.3773H767.415V66.6637H752.028V87.3773ZM777.772 77.0205V61.6332H757.058V77.0205H777.772ZM767.415 71.99H815.099V51.2764H767.415V71.99ZM804.742 61.6332V77.0205H825.456V61.6332H804.742ZM815.099 87.3773H830.655V66.6637H815.099V87.3773ZM820.298 77.0205V124.366H841.012V77.0205H820.298ZM830.655 114.009H815.099V134.723H830.655V114.009ZM804.742 124.366V139.753H825.456V124.366H804.742ZM815.099 129.396H807.659V150.11H815.099V129.396ZM797.302 139.753V153.45H818.016V139.753H797.302ZM807.659 163.806H822.877V143.093H807.659V163.806ZM812.52 153.45V170.359H833.234V153.45H812.52ZM822.877 160.002H805.968V180.715H822.877V160.002ZM816.325 170.359V155.14H795.611V170.359H816.325ZM805.968 144.784H790.411V165.497H805.968V144.784ZM800.768 155.14V139.753H780.055V155.14H800.768ZM790.411 129.396H769.106V150.11H790.411V129.396ZM758.749 139.753V170.359H779.463V139.753H758.749ZM769.106 160.002H752.028V180.715H769.106V160.002ZM769.106 133.032H813.408V112.318H769.106V133.032ZM823.765 122.675V78.7114H803.051V122.675H823.765ZM813.408 68.3546H769.106V89.0682H813.408V68.3546ZM758.749 78.7114V122.675H779.463V78.7114H758.749ZM873.255 170.359H862.899V180.715H873.255V170.359ZM873.255 155.14H883.612V144.784H873.255V155.14ZM857.868 155.14H847.511V165.497H857.868V155.14ZM857.868 61.6332V51.2764H847.511V61.6332H857.868ZM874.946 61.6332H885.303V51.2764H874.946V61.6332ZM874.946 153.45H864.59V163.806H874.946V153.45ZM919.248 153.45V163.806H929.605V153.45H919.248ZM919.248 61.6332V51.2764H908.891V61.6332H919.248ZM936.495 61.6332H946.852V51.2764H936.495V61.6332ZM936.495 155.14V165.497H946.852V155.14H936.495ZM920.939 155.14V144.784H910.582V155.14H920.939ZM920.939 170.359V180.715H931.296V170.359H920.939ZM883.612 170.359V155.14H862.899V170.359H883.612ZM873.255 144.784H857.868V165.497H873.255V144.784ZM868.225 155.14V61.6332H847.511V155.14H868.225ZM857.868 71.99H874.946V51.2764H857.868V71.99ZM864.59 61.6332V153.45H885.303V61.6332H864.59ZM874.946 163.806H919.248V143.093H874.946V163.806ZM929.605 153.45V61.6332H908.891V153.45H929.605ZM919.248 71.99H936.495V51.2764H919.248V71.99ZM926.139 61.6332V155.14H946.852V61.6332H926.139ZM936.495 144.784H920.939V165.497H936.495V144.784ZM910.582 155.14V170.359H931.296V155.14H910.582ZM920.939 160.002H873.255V180.715H920.939V160.002ZM963.709 170.359H953.352V180.715H963.709V170.359ZM963.709 61.6332V51.2764H953.352V61.6332H963.709ZM980.787 61.6332H991.144V51.2764H980.787V61.6332ZM980.787 77.0205H970.43V87.3773H980.787V77.0205ZM996.005 77.0205H1006.36V66.6637H996.005V77.0205ZM996.005 92.2387H985.648V102.595H996.005V92.2387ZM1011.56 92.2387H1021.92V81.8819H1011.56V92.2387ZM1011.56 138.062H1001.2V148.419H1011.56V138.062ZM1025.09 138.062V148.419H1035.45V138.062H1025.09ZM1025.09 61.6332V51.2764H1014.73V61.6332H1025.09ZM1042.34 61.6332H1052.69V51.2764H1042.34V61.6332ZM1042.34 170.359V180.715H1052.69V170.359H1042.34ZM1025.09 170.359H1014.73V180.715H1025.09V170.359ZM1025.09 155.14H1035.45V144.784H1025.09V155.14ZM1009.87 155.14H999.514V165.497H1009.87V155.14ZM1009.87 139.753H1020.23V129.396H1009.87V139.753ZM994.314 139.753H983.957V150.11H994.314V139.753ZM994.314 93.9296H1004.67V83.5728H994.314V93.9296ZM980.787 93.9296V83.5728H970.43V93.9296H980.787ZM980.787 170.359V180.715H991.144V170.359H980.787ZM974.065 170.359V61.6332H953.352V170.359H974.065ZM963.709 71.99H980.787V51.2764H963.709V71.99ZM970.43 61.6332V77.0205H991.144V61.6332H970.43ZM980.787 87.3773H996.005V66.6637H980.787V87.3773ZM985.648 77.0205V92.2387H1006.36V77.0205H985.648ZM996.005 102.595H1011.56V81.8819H996.005V102.595ZM1001.2 92.2387V138.062H1021.92V92.2387H1001.2ZM1011.56 148.419H1025.09V127.705H1011.56V148.419ZM1035.45 138.062V61.6332H1014.73V138.062H1035.45ZM1025.09 71.99H1042.34V51.2764H1025.09V71.99ZM1031.98 61.6332V170.359H1052.69V61.6332H1031.98ZM1042.34 160.002H1025.09V180.715H1042.34V160.002ZM1035.45 170.359V155.14H1014.73V170.359H1035.45ZM1025.09 144.784H1009.87V165.497H1025.09V144.784ZM1020.23 155.14V139.753H999.514V155.14H1020.23ZM1009.87 129.396H994.314V150.11H1009.87V129.396ZM1004.67 139.753V93.9296H983.957V139.753H1004.67ZM994.314 83.5728H980.787V104.286H994.314V83.5728ZM970.43 93.9296V170.359H991.144V93.9296H970.43ZM980.787 160.002H963.709V180.715H980.787V160.002ZM1069.55 139.753H1059.19V150.11H1069.55V139.753ZM1069.55 61.6332V51.2764H1059.19V61.6332H1069.55ZM1086.63 61.6332H1096.98V51.2764H1086.63V61.6332ZM1086.63 139.753V150.11H1096.98V139.753H1086.63ZM1069.55 170.359H1059.19V180.715H1069.55V170.359ZM1069.55 153.45V143.093H1059.19V153.45H1069.55ZM1086.63 153.45H1096.98V143.093H1086.63V153.45ZM1086.63 170.359V180.715H1096.98V170.359H1086.63ZM1079.91 139.753V61.6332H1059.19V139.753H1079.91ZM1069.55 71.99H1086.63V51.2764H1069.55V71.99ZM1076.27 61.6332V139.753H1096.98V61.6332H1076.27ZM1086.63 129.396H1069.55V150.11H1086.63V129.396ZM1079.91 170.359V153.45H1059.19V170.359H1079.91ZM1069.55 163.806H1086.63V143.093H1069.55V163.806ZM1076.27 153.45V170.359H1096.98V153.45H1076.27ZM1086.63 160.002H1069.55V180.715H1086.63V160.002Z" fill="#252840" mask="url(#path-1-outside-1_6_2610)"/>
<mask id="path-3-outside-2_6_2610" maskUnits="userSpaceOnUse" x="8" y="46" width="1082" height="115" fill="black">
<rect fill="white" x="8" y="46" width="1082" height="115"/>
<path d="M11.1455 158.029V64.6909H26.5327V49.3036H74.2164V64.6909H89.7727V112.036H74.2164V127.424H66.7764V141.12H81.9946V158.029H65.0855V142.811H49.5291V127.424H28.2236V158.029H11.1455ZM28.2236 110.345H72.5255V66.3818H28.2236V110.345ZM132.373 158.029V142.811H116.986V49.3036H134.064V141.12H178.366V49.3036H195.613V142.811H180.057V158.029H132.373ZM222.826 158.029V49.3036H239.904V64.6909H255.123V79.9091H270.679V125.733H284.206V49.3036H301.453V158.029H284.206V142.811H268.988V127.424H253.432V81.6H239.904V158.029H222.826ZM328.666 158.029V64.6909H344.054V49.3036H391.737V64.6909H407.294V112.036H391.737V127.424H345.745V158.029H328.666ZM345.745 110.345H390.046V66.3818H345.745V110.345ZM449.894 158.029V142.811H434.507V64.6909H449.894V49.3036H497.578V64.6909H513.134V81.6H495.887V66.3818H451.585V95.2964H482.36V112.036H451.585V141.12H495.887V125.733H513.134V142.811H497.578V158.029H449.894ZM540.347 158.029V64.6909H555.734V49.3036H603.418V64.6909H618.974V112.036H603.418V127.424H595.978V141.12H611.196V158.029H594.287V142.811H578.731V127.424H557.425V158.029H540.347ZM557.425 110.345H601.727V66.3818H557.425V110.345ZM661.575 158.029V142.811H646.188V125.733H663.266V141.12H707.568V112.036H661.575V96.8182H646.188V64.6909H661.575V49.3036H709.258V64.6909H724.815V81.6H707.568V66.3818H663.266V95.2964H709.258V110.345H724.815V142.811H709.258V158.029H661.575ZM752.028 158.029V64.6909H767.415V49.3036H815.099V64.6909H830.655V112.036H815.099V127.424H807.659V141.12H822.877V158.029H805.968V142.811H790.411V127.424H769.106V158.029H752.028ZM769.106 110.345H813.408V66.3818H769.106V110.345ZM873.255 158.029V142.811H857.868V49.3036H874.946V141.12H919.248V49.3036H936.495V142.811H920.939V158.029H873.255ZM963.709 158.029V49.3036H980.787V64.6909H996.005V79.9091H1011.56V125.733H1025.09V49.3036H1042.34V158.029H1025.09V142.811H1009.87V127.424H994.314V81.6H980.787V158.029H963.709ZM1069.55 127.424V49.3036H1086.63V127.424H1069.55ZM1069.55 158.029V141.12H1086.63V158.029H1069.55Z"/>
</mask>
<path d="M11.1455 158.029V64.6909H26.5327V49.3036H74.2164V64.6909H89.7727V112.036H74.2164V127.424H66.7764V141.12H81.9946V158.029H65.0855V142.811H49.5291V127.424H28.2236V158.029H11.1455ZM28.2236 110.345H72.5255V66.3818H28.2236V110.345ZM132.373 158.029V142.811H116.986V49.3036H134.064V141.12H178.366V49.3036H195.613V142.811H180.057V158.029H132.373ZM222.826 158.029V49.3036H239.904V64.6909H255.123V79.9091H270.679V125.733H284.206V49.3036H301.453V158.029H284.206V142.811H268.988V127.424H253.432V81.6H239.904V158.029H222.826ZM328.666 158.029V64.6909H344.054V49.3036H391.737V64.6909H407.294V112.036H391.737V127.424H345.745V158.029H328.666ZM345.745 110.345H390.046V66.3818H345.745V110.345ZM449.894 158.029V142.811H434.507V64.6909H449.894V49.3036H497.578V64.6909H513.134V81.6H495.887V66.3818H451.585V95.2964H482.36V112.036H451.585V141.12H495.887V125.733H513.134V142.811H497.578V158.029H449.894ZM540.347 158.029V64.6909H555.734V49.3036H603.418V64.6909H618.974V112.036H603.418V127.424H595.978V141.12H611.196V158.029H594.287V142.811H578.731V127.424H557.425V158.029H540.347ZM557.425 110.345H601.727V66.3818H557.425V110.345ZM661.575 158.029V142.811H646.188V125.733H663.266V141.12H707.568V112.036H661.575V96.8182H646.188V64.6909H661.575V49.3036H709.258V64.6909H724.815V81.6H707.568V66.3818H663.266V95.2964H709.258V110.345H724.815V142.811H709.258V158.029H661.575ZM752.028 158.029V64.6909H767.415V49.3036H815.099V64.6909H830.655V112.036H815.099V127.424H807.659V141.12H822.877V158.029H805.968V142.811H790.411V127.424H769.106V158.029H752.028ZM769.106 110.345H813.408V66.3818H769.106V110.345ZM873.255 158.029V142.811H857.868V49.3036H874.946V141.12H919.248V49.3036H936.495V142.811H920.939V158.029H873.255ZM963.709 158.029V49.3036H980.787V64.6909H996.005V79.9091H1011.56V125.733H1025.09V49.3036H1042.34V158.029H1025.09V142.811H1009.87V127.424H994.314V81.6H980.787V158.029H963.709ZM1069.55 127.424V49.3036H1086.63V127.424H1069.55ZM1069.55 158.029V141.12H1086.63V158.029H1069.55Z" fill="url(#paint0_linear_6_2610)"/>
<path d="M11.1455 158.029H8.67955V160.495H11.1455V158.029ZM11.1455 64.6909V62.225H8.67955V64.6909H11.1455ZM26.5327 64.6909V67.1568H28.9986V64.6909H26.5327ZM26.5327 49.3036V46.8377H24.0668V49.3036H26.5327ZM74.2164 49.3036H76.6823V46.8377H74.2164V49.3036ZM74.2164 64.6909H71.7505V67.1568H74.2164V64.6909ZM89.7727 64.6909H92.2386V62.225H89.7727V64.6909ZM89.7727 112.036V114.502H92.2386V112.036H89.7727ZM74.2164 112.036V109.57H71.7505V112.036H74.2164ZM74.2164 127.424V129.89H76.6823V127.424H74.2164ZM66.7764 127.424V124.958H64.3105V127.424H66.7764ZM66.7764 141.12H64.3105V143.586H66.7764V141.12ZM81.9946 141.12H84.4605V138.654H81.9946V141.12ZM81.9946 158.029V160.495H84.4605V158.029H81.9946ZM65.0855 158.029H62.6195V160.495H65.0855V158.029ZM65.0855 142.811H67.5514V140.345H65.0855V142.811ZM49.5291 142.811H47.0632V145.277H49.5291V142.811ZM49.5291 127.424H51.995V124.958H49.5291V127.424ZM28.2236 127.424V124.958H25.7577V127.424H28.2236ZM28.2236 158.029V160.495H30.6895V158.029H28.2236ZM28.2236 110.345H25.7577V112.811H28.2236V110.345ZM72.5255 110.345V112.811H74.9914V110.345H72.5255ZM72.5255 66.3818H74.9914V63.9159H72.5255V66.3818ZM28.2236 66.3818V63.9159H25.7577V66.3818H28.2236ZM13.6114 158.029V64.6909H8.67955V158.029H13.6114ZM11.1455 67.1568H26.5327V62.225H11.1455V67.1568ZM28.9986 64.6909V49.3036H24.0668V64.6909H28.9986ZM26.5327 51.7695H74.2164V46.8377H26.5327V51.7695ZM71.7505 49.3036V64.6909H76.6823V49.3036H71.7505ZM74.2164 67.1568H89.7727V62.225H74.2164V67.1568ZM87.3068 64.6909V112.036H92.2386V64.6909H87.3068ZM89.7727 109.57H74.2164V114.502H89.7727V109.57ZM71.7505 112.036V127.424H76.6823V112.036H71.7505ZM74.2164 124.958H66.7764V129.89H74.2164V124.958ZM64.3105 127.424V141.12H69.2423V127.424H64.3105ZM66.7764 143.586H81.9946V138.654H66.7764V143.586ZM79.5286 141.12V158.029H84.4605V141.12H79.5286ZM81.9946 155.563H65.0855V160.495H81.9946V155.563ZM67.5514 158.029V142.811H62.6195V158.029H67.5514ZM65.0855 140.345H49.5291V145.277H65.0855V140.345ZM51.995 142.811V127.424H47.0632V142.811H51.995ZM49.5291 124.958H28.2236V129.89H49.5291V124.958ZM25.7577 127.424V158.029H30.6895V127.424H25.7577ZM28.2236 155.563H11.1455V160.495H28.2236V155.563ZM28.2236 112.811H72.5255V107.88H28.2236V112.811ZM74.9914 110.345V66.3818H70.0595V110.345H74.9914ZM72.5255 63.9159H28.2236V68.8477H72.5255V63.9159ZM25.7577 66.3818V110.345H30.6895V66.3818H25.7577ZM132.373 158.029H129.907V160.495H132.373V158.029ZM132.373 142.811H134.839V140.345H132.373V142.811ZM116.986 142.811H114.52V145.277H116.986V142.811ZM116.986 49.3036V46.8377H114.52V49.3036H116.986ZM134.064 49.3036H136.53V46.8377H134.064V49.3036ZM134.064 141.12H131.598V143.586H134.064V141.12ZM178.366 141.12V143.586H180.832V141.12H178.366ZM178.366 49.3036V46.8377H175.9V49.3036H178.366ZM195.613 49.3036H198.079V46.8377H195.613V49.3036ZM195.613 142.811V145.277H198.079V142.811H195.613ZM180.057 142.811V140.345H177.591V142.811H180.057ZM180.057 158.029V160.495H182.523V158.029H180.057ZM134.839 158.029V142.811H129.907V158.029H134.839ZM132.373 140.345H116.986V145.277H132.373V140.345ZM119.452 142.811V49.3036H114.52V142.811H119.452ZM116.986 51.7695H134.064V46.8377H116.986V51.7695ZM131.598 49.3036V141.12H136.53V49.3036H131.598ZM134.064 143.586H178.366V138.654H134.064V143.586ZM180.832 141.12V49.3036H175.9V141.12H180.832ZM178.366 51.7695H195.613V46.8377H178.366V51.7695ZM193.147 49.3036V142.811H198.079V49.3036H193.147ZM195.613 140.345H180.057V145.277H195.613V140.345ZM177.591 142.811V158.029H182.523V142.811H177.591ZM180.057 155.563H132.373V160.495H180.057V155.563ZM222.826 158.029H220.36V160.495H222.826V158.029ZM222.826 49.3036V46.8377H220.36V49.3036H222.826ZM239.904 49.3036H242.37V46.8377H239.904V49.3036ZM239.904 64.6909H237.438V67.1568H239.904V64.6909ZM255.123 64.6909H257.588V62.225H255.123V64.6909ZM255.123 79.9091H252.657V82.375H255.123V79.9091ZM270.679 79.9091H273.145V77.4432H270.679V79.9091ZM270.679 125.733H268.213V128.199H270.679V125.733ZM284.206 125.733V128.199H286.672V125.733H284.206ZM284.206 49.3036V46.8377H281.74V49.3036H284.206ZM301.453 49.3036H303.919V46.8377H301.453V49.3036ZM301.453 158.029V160.495H303.919V158.029H301.453ZM284.206 158.029H281.74V160.495H284.206V158.029ZM284.206 142.811H286.672V140.345H284.206V142.811ZM268.988 142.811H266.522V145.277H268.988V142.811ZM268.988 127.424H271.454V124.958H268.988V127.424ZM253.432 127.424H250.966V129.89H253.432V127.424ZM253.432 81.6H255.898V79.1341H253.432V81.6ZM239.904 81.6V79.1341H237.438V81.6H239.904ZM239.904 158.029V160.495H242.37V158.029H239.904ZM225.292 158.029V49.3036H220.36V158.029H225.292ZM222.826 51.7695H239.904V46.8377H222.826V51.7695ZM237.438 49.3036V64.6909H242.37V49.3036H237.438ZM239.904 67.1568H255.123V62.225H239.904V67.1568ZM252.657 64.6909V79.9091H257.588V64.6909H252.657ZM255.123 82.375H270.679V77.4432H255.123V82.375ZM268.213 79.9091V125.733H273.145V79.9091H268.213ZM270.679 128.199H284.206V123.267H270.679V128.199ZM286.672 125.733V49.3036H281.74V125.733H286.672ZM284.206 51.7695H301.453V46.8377H284.206V51.7695ZM298.988 49.3036V158.029H303.919V49.3036H298.988ZM301.453 155.563H284.206V160.495H301.453V155.563ZM286.672 158.029V142.811H281.74V158.029H286.672ZM284.206 140.345H268.988V145.277H284.206V140.345ZM271.454 142.811V127.424H266.522V142.811H271.454ZM268.988 124.958H253.432V129.89H268.988V124.958ZM255.898 127.424V81.6H250.966V127.424H255.898ZM253.432 79.1341H239.904V84.0659H253.432V79.1341ZM237.438 81.6V158.029H242.37V81.6H237.438ZM239.904 155.563H222.826V160.495H239.904V155.563ZM328.666 158.029H326.201V160.495H328.666V158.029ZM328.666 64.6909V62.225H326.201V64.6909H328.666ZM344.054 64.6909V67.1568H346.52V64.6909H344.054ZM344.054 49.3036V46.8377H341.588V49.3036H344.054ZM391.737 49.3036H394.203V46.8377H391.737V49.3036ZM391.737 64.6909H389.271V67.1568H391.737V64.6909ZM407.294 64.6909H409.76V62.225H407.294V64.6909ZM407.294 112.036V114.502H409.76V112.036H407.294ZM391.737 112.036V109.57H389.271V112.036H391.737ZM391.737 127.424V129.89H394.203V127.424H391.737ZM345.745 127.424V124.958H343.279V127.424H345.745ZM345.745 158.029V160.495H348.211V158.029H345.745ZM345.745 110.345H343.279V112.811H345.745V110.345ZM390.046 110.345V112.811H392.512V110.345H390.046ZM390.046 66.3818H392.512V63.9159H390.046V66.3818ZM345.745 66.3818V63.9159H343.279V66.3818H345.745ZM331.132 158.029V64.6909H326.201V158.029H331.132ZM328.666 67.1568H344.054V62.225H328.666V67.1568ZM346.52 64.6909V49.3036H341.588V64.6909H346.52ZM344.054 51.7695H391.737V46.8377H344.054V51.7695ZM389.271 49.3036V64.6909H394.203V49.3036H389.271ZM391.737 67.1568H407.294V62.225H391.737V67.1568ZM404.828 64.6909V112.036H409.76V64.6909H404.828ZM407.294 109.57H391.737V114.502H407.294V109.57ZM389.271 112.036V127.424H394.203V112.036H389.271ZM391.737 124.958H345.745V129.89H391.737V124.958ZM343.279 127.424V158.029H348.211V127.424H343.279ZM345.745 155.563H328.666V160.495H345.745V155.563ZM345.745 112.811H390.046V107.88H345.745V112.811ZM392.512 110.345V66.3818H387.581V110.345H392.512ZM390.046 63.9159H345.745V68.8477H390.046V63.9159ZM343.279 66.3818V110.345H348.211V66.3818H343.279ZM449.894 158.029H447.428V160.495H449.894V158.029ZM449.894 142.811H452.36V140.345H449.894V142.811ZM434.507 142.811H432.041V145.277H434.507V142.811ZM434.507 64.6909V62.225H432.041V64.6909H434.507ZM449.894 64.6909V67.1568H452.36V64.6909H449.894ZM449.894 49.3036V46.8377H447.428V49.3036H449.894ZM497.578 49.3036H500.044V46.8377H497.578V49.3036ZM497.578 64.6909H495.112V67.1568H497.578V64.6909ZM513.134 64.6909H515.6V62.225H513.134V64.6909ZM513.134 81.6V84.0659H515.6V81.6H513.134ZM495.887 81.6H493.421V84.0659H495.887V81.6ZM495.887 66.3818H498.353V63.9159H495.887V66.3818ZM451.585 66.3818V63.9159H449.119V66.3818H451.585ZM451.585 95.2964H449.119V97.7623H451.585V95.2964ZM482.36 95.2964H484.825V92.8304H482.36V95.2964ZM482.36 112.036V114.502H484.825V112.036H482.36ZM451.585 112.036V109.57H449.119V112.036H451.585ZM451.585 141.12H449.119V143.586H451.585V141.12ZM495.887 141.12V143.586H498.353V141.12H495.887ZM495.887 125.733V123.267H493.421V125.733H495.887ZM513.134 125.733H515.6V123.267H513.134V125.733ZM513.134 142.811V145.277H515.6V142.811H513.134ZM497.578 142.811V140.345H495.112V142.811H497.578ZM497.578 158.029V160.495H500.044V158.029H497.578ZM452.36 158.029V142.811H447.428V158.029H452.36ZM449.894 140.345H434.507V145.277H449.894V140.345ZM436.973 142.811V64.6909H432.041V142.811H436.973ZM434.507 67.1568H449.894V62.225H434.507V67.1568ZM452.36 64.6909V49.3036H447.428V64.6909H452.36ZM449.894 51.7695H497.578V46.8377H449.894V51.7695ZM495.112 49.3036V64.6909H500.044V49.3036H495.112ZM497.578 67.1568H513.134V62.225H497.578V67.1568ZM510.668 64.6909V81.6H515.6V64.6909H510.668ZM513.134 79.1341H495.887V84.0659H513.134V79.1341ZM498.353 81.6V66.3818H493.421V81.6H498.353ZM495.887 63.9159H451.585V68.8477H495.887V63.9159ZM449.119 66.3818V95.2964H454.051V66.3818H449.119ZM451.585 97.7623H482.36V92.8304H451.585V97.7623ZM479.894 95.2964V112.036H484.825V95.2964H479.894ZM482.36 109.57H451.585V114.502H482.36V109.57ZM449.119 112.036V141.12H454.051V112.036H449.119ZM451.585 143.586H495.887V138.654H451.585V143.586ZM498.353 141.12V125.733H493.421V141.12H498.353ZM495.887 128.199H513.134V123.267H495.887V128.199ZM510.668 125.733V142.811H515.6V125.733H510.668ZM513.134 140.345H497.578V145.277H513.134V140.345ZM495.112 142.811V158.029H500.044V142.811H495.112ZM497.578 155.563H449.894V160.495H497.578V155.563ZM540.347 158.029H537.881V160.495H540.347V158.029ZM540.347 64.6909V62.225H537.881V64.6909H540.347ZM555.734 64.6909V67.1568H558.2V64.6909H555.734ZM555.734 49.3036V46.8377H553.269V49.3036H555.734ZM603.418 49.3036H605.884V46.8377H603.418V49.3036ZM603.418 64.6909H600.952V67.1568H603.418V64.6909ZM618.974 64.6909H621.44V62.225H618.974V64.6909ZM618.974 112.036V114.502H621.44V112.036H618.974ZM603.418 112.036V109.57H600.952V112.036H603.418ZM603.418 127.424V129.89H605.884V127.424H603.418ZM595.978 127.424V124.958H593.512V127.424H595.978ZM595.978 141.12H593.512V143.586H595.978V141.12ZM611.196 141.12H613.662V138.654H611.196V141.12ZM611.196 158.029V160.495H613.662V158.029H611.196ZM594.287 158.029H591.821V160.495H594.287V158.029ZM594.287 142.811H596.753V140.345H594.287V142.811ZM578.731 142.811H576.265V145.277H578.731V142.811ZM578.731 127.424H581.197V124.958H578.731V127.424ZM557.425 127.424V124.958H554.959V127.424H557.425ZM557.425 158.029V160.495H559.891V158.029H557.425ZM557.425 110.345H554.959V112.811H557.425V110.345ZM601.727 110.345V112.811H604.193V110.345H601.727ZM601.727 66.3818H604.193V63.9159H601.727V66.3818ZM557.425 66.3818V63.9159H554.959V66.3818H557.425ZM542.813 158.029V64.6909H537.881V158.029H542.813ZM540.347 67.1568H555.734V62.225H540.347V67.1568ZM558.2 64.6909V49.3036H553.269V64.6909H558.2ZM555.734 51.7695H603.418V46.8377H555.734V51.7695ZM600.952 49.3036V64.6909H605.884V49.3036H600.952ZM603.418 67.1568H618.974V62.225H603.418V67.1568ZM616.509 64.6909V112.036H621.44V64.6909H616.509ZM618.974 109.57H603.418V114.502H618.974V109.57ZM600.952 112.036V127.424H605.884V112.036H600.952ZM603.418 124.958H595.978V129.89H603.418V124.958ZM593.512 127.424V141.12H598.444V127.424H593.512ZM595.978 143.586H611.196V138.654H595.978V143.586ZM608.73 141.12V158.029H613.662V141.12H608.73ZM611.196 155.563H594.287V160.495H611.196V155.563ZM596.753 158.029V142.811H591.821V158.029H596.753ZM594.287 140.345H578.731V145.277H594.287V140.345ZM581.197 142.811V127.424H576.265V142.811H581.197ZM578.731 124.958H557.425V129.89H578.731V124.958ZM554.959 127.424V158.029H559.891V127.424H554.959ZM557.425 155.563H540.347V160.495H557.425V155.563ZM557.425 112.811H601.727V107.88H557.425V112.811ZM604.193 110.345V66.3818H599.261V110.345H604.193ZM601.727 63.9159H557.425V68.8477H601.727V63.9159ZM554.959 66.3818V110.345H559.891V66.3818H554.959ZM661.575 158.029H659.109V160.495H661.575V158.029ZM661.575 142.811H664.041V140.345H661.575V142.811ZM646.188 142.811H643.722V145.277H646.188V142.811ZM646.188 125.733V123.267H643.722V125.733H646.188ZM663.266 125.733H665.732V123.267H663.266V125.733ZM663.266 141.12H660.8V143.586H663.266V141.12ZM707.568 141.12V143.586H710.033V141.12H707.568ZM707.568 112.036H710.033V109.57H707.568V112.036ZM661.575 112.036H659.109V114.502H661.575V112.036ZM661.575 96.8182H664.041V94.3523H661.575V96.8182ZM646.188 96.8182H643.722V99.2841H646.188V96.8182ZM646.188 64.6909V62.225H643.722V64.6909H646.188ZM661.575 64.6909V67.1568H664.041V64.6909H661.575ZM661.575 49.3036V46.8377H659.109V49.3036H661.575ZM709.258 49.3036H711.724V46.8377H709.258V49.3036ZM709.258 64.6909H706.793V67.1568H709.258V64.6909ZM724.815 64.6909H727.281V62.225H724.815V64.6909ZM724.815 81.6V84.0659H727.281V81.6H724.815ZM707.568 81.6H705.102V84.0659H707.568V81.6ZM707.568 66.3818H710.033V63.9159H707.568V66.3818ZM663.266 66.3818V63.9159H660.8V66.3818H663.266ZM663.266 95.2964H660.8V97.7623H663.266V95.2964ZM709.258 95.2964H711.724V92.8304H709.258V95.2964ZM709.258 110.345H706.793V112.811H709.258V110.345ZM724.815 110.345H727.281V107.88H724.815V110.345ZM724.815 142.811V145.277H727.281V142.811H724.815ZM709.258 142.811V140.345H706.793V142.811H709.258ZM709.258 158.029V160.495H711.724V158.029H709.258ZM664.041 158.029V142.811H659.109V158.029H664.041ZM661.575 140.345H646.188V145.277H661.575V140.345ZM648.653 142.811V125.733H643.722V142.811H648.653ZM646.188 128.199H663.266V123.267H646.188V128.199ZM660.8 125.733V141.12H665.732V125.733H660.8ZM663.266 143.586H707.568V138.654H663.266V143.586ZM710.033 141.12V112.036H705.102V141.12H710.033ZM707.568 109.57H661.575V114.502H707.568V109.57ZM664.041 112.036V96.8182H659.109V112.036H664.041ZM661.575 94.3523H646.188V99.2841H661.575V94.3523ZM648.653 96.8182V64.6909H643.722V96.8182H648.653ZM646.188 67.1568H661.575V62.225H646.188V67.1568ZM664.041 64.6909V49.3036H659.109V64.6909H664.041ZM661.575 51.7695H709.258V46.8377H661.575V51.7695ZM706.793 49.3036V64.6909H711.724V49.3036H706.793ZM709.258 67.1568H724.815V62.225H709.258V67.1568ZM722.349 64.6909V81.6H727.281V64.6909H722.349ZM724.815 79.1341H707.568V84.0659H724.815V79.1341ZM710.033 81.6V66.3818H705.102V81.6H710.033ZM707.568 63.9159H663.266V68.8477H707.568V63.9159ZM660.8 66.3818V95.2964H665.732V66.3818H660.8ZM663.266 97.7623H709.258V92.8304H663.266V97.7623ZM706.793 95.2964V110.345H711.724V95.2964H706.793ZM709.258 112.811H724.815V107.88H709.258V112.811ZM722.349 110.345V142.811H727.281V110.345H722.349ZM724.815 140.345H709.258V145.277H724.815V140.345ZM706.793 142.811V158.029H711.724V142.811H706.793ZM709.258 155.563H661.575V160.495H709.258V155.563ZM752.028 158.029H749.562V160.495H752.028V158.029ZM752.028 64.6909V62.225H749.562V64.6909H752.028ZM767.415 64.6909V67.1568H769.881V64.6909H767.415ZM767.415 49.3036V46.8377H764.949V49.3036H767.415ZM815.099 49.3036H817.565V46.8377H815.099V49.3036ZM815.099 64.6909H812.633V67.1568H815.099V64.6909ZM830.655 64.6909H833.121V62.225H830.655V64.6909ZM830.655 112.036V114.502H833.121V112.036H830.655ZM815.099 112.036V109.57H812.633V112.036H815.099ZM815.099 127.424V129.89H817.565V127.424H815.099ZM807.659 127.424V124.958H805.193V127.424H807.659ZM807.659 141.12H805.193V143.586H807.659V141.12ZM822.877 141.12H825.343V138.654H822.877V141.12ZM822.877 158.029V160.495H825.343V158.029H822.877ZM805.968 158.029H803.502V160.495H805.968V158.029ZM805.968 142.811H808.434V140.345H805.968V142.811ZM790.411 142.811H787.946V145.277H790.411V142.811ZM790.411 127.424H792.877V124.958H790.411V127.424ZM769.106 127.424V124.958H766.64V127.424H769.106ZM769.106 158.029V160.495H771.572V158.029H769.106ZM769.106 110.345H766.64V112.811H769.106V110.345ZM813.408 110.345V112.811H815.874V110.345H813.408ZM813.408 66.3818H815.874V63.9159H813.408V66.3818ZM769.106 66.3818V63.9159H766.64V66.3818H769.106ZM754.494 158.029V64.6909H749.562V158.029H754.494ZM752.028 67.1568H767.415V62.225H752.028V67.1568ZM769.881 64.6909V49.3036H764.949V64.6909H769.881ZM767.415 51.7695H815.099V46.8377H767.415V51.7695ZM812.633 49.3036V64.6909H817.565V49.3036H812.633ZM815.099 67.1568H830.655V62.225H815.099V67.1568ZM828.189 64.6909V112.036H833.121V64.6909H828.189ZM830.655 109.57H815.099V114.502H830.655V109.57ZM812.633 112.036V127.424H817.565V112.036H812.633ZM815.099 124.958H807.659V129.89H815.099V124.958ZM805.193 127.424V141.12H810.125V127.424H805.193ZM807.659 143.586H822.877V138.654H807.659V143.586ZM820.411 141.12V158.029H825.343V141.12H820.411ZM822.877 155.563H805.968V160.495H822.877V155.563ZM808.434 158.029V142.811H803.502V158.029H808.434ZM805.968 140.345H790.411V145.277H805.968V140.345ZM792.877 142.811V127.424H787.946V142.811H792.877ZM790.411 124.958H769.106V129.89H790.411V124.958ZM766.64 127.424V158.029H771.572V127.424H766.64ZM769.106 155.563H752.028V160.495H769.106V155.563ZM769.106 112.811H813.408V107.88H769.106V112.811ZM815.874 110.345V66.3818H810.942V110.345H815.874ZM813.408 63.9159H769.106V68.8477H813.408V63.9159ZM766.64 66.3818V110.345H771.572V66.3818H766.64ZM873.255 158.029H870.79V160.495H873.255V158.029ZM873.255 142.811H875.721V140.345H873.255V142.811ZM857.868 142.811H855.402V145.277H857.868V142.811ZM857.868 49.3036V46.8377H855.402V49.3036H857.868ZM874.946 49.3036H877.412V46.8377H874.946V49.3036ZM874.946 141.12H872.48V143.586H874.946V141.12ZM919.248 141.12V143.586H921.714V141.12H919.248ZM919.248 49.3036V46.8377H916.782V49.3036H919.248ZM936.495 49.3036H938.961V46.8377H936.495V49.3036ZM936.495 142.811V145.277H938.961V142.811H936.495ZM920.939 142.811V140.345H918.473V142.811H920.939ZM920.939 158.029V160.495H923.405V158.029H920.939ZM875.721 158.029V142.811H870.79V158.029H875.721ZM873.255 140.345H857.868V145.277H873.255V140.345ZM860.334 142.811V49.3036H855.402V142.811H860.334ZM857.868 51.7695H874.946V46.8377H857.868V51.7695ZM872.48 49.3036V141.12H877.412V49.3036H872.48ZM874.946 143.586H919.248V138.654H874.946V143.586ZM921.714 141.12V49.3036H916.782V141.12H921.714ZM919.248 51.7695H936.495V46.8377H919.248V51.7695ZM934.03 49.3036V142.811H938.961V49.3036H934.03ZM936.495 140.345H920.939V145.277H936.495V140.345ZM918.473 142.811V158.029H923.405V142.811H918.473ZM920.939 155.563H873.255V160.495H920.939V155.563ZM963.709 158.029H961.243V160.495H963.709V158.029ZM963.709 49.3036V46.8377H961.243V49.3036H963.709ZM980.787 49.3036H983.253V46.8377H980.787V49.3036ZM980.787 64.6909H978.321V67.1568H980.787V64.6909ZM996.005 64.6909H998.471V62.225H996.005V64.6909ZM996.005 79.9091H993.539V82.375H996.005V79.9091ZM1011.56 79.9091H1014.03V77.4432H1011.56V79.9091ZM1011.56 125.733H1009.1V128.199H1011.56V125.733ZM1025.09 125.733V128.199H1027.55V125.733H1025.09ZM1025.09 49.3036V46.8377H1022.62V49.3036H1025.09ZM1042.34 49.3036H1044.8V46.8377H1042.34V49.3036ZM1042.34 158.029V160.495H1044.8V158.029H1042.34ZM1025.09 158.029H1022.62V160.495H1025.09V158.029ZM1025.09 142.811H1027.55V140.345H1025.09V142.811ZM1009.87 142.811H1007.4V145.277H1009.87V142.811ZM1009.87 127.424H1012.34V124.958H1009.87V127.424ZM994.314 127.424H991.848V129.89H994.314V127.424ZM994.314 81.6H996.78V79.1341H994.314V81.6ZM980.787 81.6V79.1341H978.321V81.6H980.787ZM980.787 158.029V160.495H983.253V158.029H980.787ZM966.174 158.029V49.3036H961.243V158.029H966.174ZM963.709 51.7695H980.787V46.8377H963.709V51.7695ZM978.321 49.3036V64.6909H983.253V49.3036H978.321ZM980.787 67.1568H996.005V62.225H980.787V67.1568ZM993.539 64.6909V79.9091H998.471V64.6909H993.539ZM996.005 82.375H1011.56V77.4432H996.005V82.375ZM1009.1 79.9091V125.733H1014.03V79.9091H1009.1ZM1011.56 128.199H1025.09V123.267H1011.56V128.199ZM1027.55 125.733V49.3036H1022.62V125.733H1027.55ZM1025.09 51.7695H1042.34V46.8377H1025.09V51.7695ZM1039.87 49.3036V158.029H1044.8V49.3036H1039.87ZM1042.34 155.563H1025.09V160.495H1042.34V155.563ZM1027.55 158.029V142.811H1022.62V158.029H1027.55ZM1025.09 140.345H1009.87V145.277H1025.09V140.345ZM1012.34 142.811V127.424H1007.4V142.811H1012.34ZM1009.87 124.958H994.314V129.89H1009.87V124.958ZM996.78 127.424V81.6H991.848V127.424H996.78ZM994.314 79.1341H980.787V84.0659H994.314V79.1341ZM978.321 81.6V158.029H983.253V81.6H978.321ZM980.787 155.563H963.709V160.495H980.787V155.563ZM1069.55 127.424H1067.08V129.89H1069.55V127.424ZM1069.55 49.3036V46.8377H1067.08V49.3036H1069.55ZM1086.63 49.3036H1089.09V46.8377H1086.63V49.3036ZM1086.63 127.424V129.89H1089.09V127.424H1086.63ZM1069.55 158.029H1067.08V160.495H1069.55V158.029ZM1069.55 141.12V138.654H1067.08V141.12H1069.55ZM1086.63 141.12H1089.09V138.654H1086.63V141.12ZM1086.63 158.029V160.495H1089.09V158.029H1086.63ZM1072.01 127.424V49.3036H1067.08V127.424H1072.01ZM1069.55 51.7695H1086.63V46.8377H1069.55V51.7695ZM1084.16 49.3036V127.424H1089.09V49.3036H1084.16ZM1086.63 124.958H1069.55V129.89H1086.63V124.958ZM1072.01 158.029V141.12H1067.08V158.029H1072.01ZM1069.55 143.586H1086.63V138.654H1069.55V143.586ZM1084.16 141.12V158.029H1089.09V141.12H1084.16ZM1086.63 155.563H1069.55V160.495H1086.63V155.563Z" fill="#252840" mask="url(#path-3-outside-2_6_2610)"/>
<defs>
<linearGradient id="paint0_linear_6_2610" x1="549" y1="48.2744" x2="549" y2="159.677" gradientUnits="userSpaceOnUse">
<stop stop-color="#F7F0D5"/>
<stop offset="0.335" stop-color="#F9D22B"/>
<stop offset="0.62" stop-color="#EC9345"/>
<stop offset="1" stop-color="#B03B31"/>
</linearGradient>
</defs>
</svg>
