<svg width="722" height="100" viewBox="0 0 722 100" fill="none" xmlns="http://www.w3.org/2000/svg">
<path d="M664.123 97.3471V84.0271H650.655V15.6511H664.123V2.18311H705.859V15.6511H719.475V30.4511H704.379V17.1311H665.603V42.4391H692.539V57.0911H665.603V82.5471H704.379V69.0791H719.475V84.0271H705.859V97.3471H664.123Z" fill="#252840"/>
<path d="M558.016 97.3471V2.18311H572.964V69.0791H584.804V28.9711H598.42V15.6511H611.74V2.18311H626.836V97.3471H611.74V30.4511H599.9V70.5591H586.284V84.0271H572.964V97.3471H558.016Z" fill="#252840"/>
<path d="M465.377 97.3471V2.18311H480.325V42.4391H519.101V2.18311H534.197V97.3471H519.101V57.0911H480.325V97.3471H465.377Z" fill="#252840"/>
<path d="M386.206 97.3471V84.0271H372.738V15.6511H386.206V2.18311H427.942V15.6511H441.558V30.4511H426.462V17.1311H387.686V42.4391H414.622V57.0911H387.686V82.5471H426.462V69.0791H441.558V84.0271H427.942V97.3471H386.206Z" fill="#252840"/>
<path d="M333.972 97.4951V57.3871H293.568V43.9191H280.1V2.33105H295.048V42.5871H333.972V2.33105H348.92V97.4951H333.972Z" fill="#252840"/>
<path d="M214.249 97.3471V43.7711H200.929V30.4511H187.461V2.18311H202.409V28.9711H215.729V42.4391H227.865V28.9711H241.185V2.18311H256.281V30.4511H242.665V43.7711H229.345V97.3471H214.249Z" fill="#252840"/>
<path d="M108.29 97.3471V84.0271H94.8223V2.18311H150.026V15.6511H163.642V30.4511H148.546V17.1311H109.77V42.4391H150.026V55.6111H163.642V84.0271H150.026V97.3471H108.29ZM109.77 82.5471H148.546V57.0911H109.77V82.5471Z" fill="#252840"/>
<path d="M15.6516 97.3471V84.0271H2.18359V15.6511H15.6516V2.18311H57.3876V15.6511H71.0036V84.0271H57.3876V97.3471H15.6516ZM17.1316 82.5471H55.9076V17.1311H17.1316V82.5471Z" fill="#252840"/>
<path fill-rule="evenodd" clip-rule="evenodd" d="M661.94 99.5302V86.2102H648.472V13.468H661.94V0H708.042V13.468H721.658V32.6342H702.196V19.3142H667.786V40.256H694.722V59.2742H667.786V80.364H702.196V66.896H721.658V86.2102H708.042V99.5302H661.94ZM705.859 84.0271H719.475V69.0791H704.379V82.5471H665.603V57.0911H692.539V42.4391H665.603V17.1311H704.379V30.4511H719.475V15.6511H705.859V2.18311H664.123V15.6511H650.655V84.0271H664.123V97.3471H705.859V84.0271Z" fill="#252840"/>
<path fill-rule="evenodd" clip-rule="evenodd" d="M555.832 99.5302V0H575.146V66.896H582.62V26.788H596.236V13.468H609.556V0H629.018V99.5302H609.556V32.6342H602.082V72.7422H588.466V86.2102H575.146V99.5302H555.832ZM572.963 84.0271H586.283V70.5591H599.899V30.4511H611.739V97.3471H626.835V2.18311H611.739V15.6511H598.419V28.9711H584.803V69.0791H572.963V2.18311H558.015V97.3471H572.963V84.0271Z" fill="#252840"/>
<path fill-rule="evenodd" clip-rule="evenodd" d="M463.193 99.5302V0H482.508V40.256H516.917V0H536.38V99.5302H516.917V59.2742H482.508V99.5302H463.193ZM480.324 57.0911H519.1V97.3471H534.196V2.18311H519.1V42.4391H480.324V2.18311H465.376V97.3471H480.324V57.0911Z" fill="#252840"/>
<path fill-rule="evenodd" clip-rule="evenodd" d="M384.023 99.5302V86.2102H370.555V13.468H384.023V0H430.125V13.468H443.741V32.6342H424.279V19.3142H389.869V40.256H416.805V59.2742H389.869V80.364H424.279V66.896H443.741V86.2102H430.125V99.5302H384.023ZM427.942 84.0271H441.558V69.0791H426.462V82.5471H387.686V57.0911H414.622V42.4391H387.686V17.1311H426.462V30.4511H441.558V15.6511H427.942V2.18311H386.206V15.6511H372.738V84.0271H386.206V97.3471H427.942V84.0271Z" fill="#252840"/>
<path fill-rule="evenodd" clip-rule="evenodd" d="M331.788 99.6782V59.5702H291.384V46.1022H277.916V0.147949H297.23V40.404H331.788V0.147949H351.102V99.6782H331.788ZM333.971 42.5871H295.047V2.33106H280.099V43.9191H293.567V57.3871H333.971V97.4951H348.919V2.33106H333.971V42.5871Z" fill="#252840"/>
<path fill-rule="evenodd" clip-rule="evenodd" d="M212.065 99.5302V45.9542H198.745V32.6342H185.277V0H204.592V26.788H217.912V40.256H225.681V26.788H239.001V0H258.464V32.6342H244.848V45.9542H231.528V99.5302H212.065ZM229.344 43.7711H242.664V30.4511H256.28V2.18311H241.184V28.9711H227.864V42.4391H215.728V28.9711H202.408V2.18311H187.46V30.4511H200.928V43.7711H214.248V97.3471H229.344V43.7711Z" fill="#252840"/>
<path fill-rule="evenodd" clip-rule="evenodd" d="M106.107 99.5302V86.2102H92.6387V0H152.209V13.468H165.825V32.6342H146.363V19.3142H111.953V40.256H152.209V53.428H165.825V86.2102H152.209V99.5302H106.107ZM150.026 84.0271H163.642V55.6111H150.026V42.4391H109.77V17.1311H148.546V30.4511H163.642V15.6511H150.026V2.18311H94.8218V84.0271H108.29V97.3471H150.026V84.0271ZM148.546 82.5471V57.0911H109.77V82.5471H148.546ZM146.363 80.364V59.2742H111.953V80.364H146.363Z" fill="#252840"/>
<path fill-rule="evenodd" clip-rule="evenodd" d="M13.468 99.5302V86.2102H0V13.468H13.468V0H59.5702V13.468H73.1862V86.2102H59.5702V99.5302H13.468ZM57.3871 84.0271H71.0031V15.6511H57.3871V2.18311H15.6511V15.6511H2.18311V84.0271H15.6511V97.3471H57.3871V84.0271ZM55.9071 82.5471V17.1311H17.1311V82.5471H55.9071ZM53.724 80.364V19.3142H19.3142V80.364H53.724Z" fill="#252840"/>
</svg>
