<svg width="538" height="358" viewBox="0 0 538 358" fill="none" xmlns="http://www.w3.org/2000/svg">
<g clip-path="url(#clip0_105_196)">
<rect width="538" height="358" fill="white"/>
<path d="M336.537 120.525V89.3113H342.685V83.2307H348.766V77.0825H355.657V83.2307H361.738V89.3113H367.954V120.525H361.062V108.296H343.361V120.525H336.537ZM343.361 101.473H361.062V89.9869H354.982V83.9063H349.442V89.9869H343.361V101.473Z" fill="#252840"/>
<path d="M300.394 120.525V114.444H294.246V107.621H301.07V113.769H318.771V102.148H300.394V95.4595H318.771V83.9063H301.07V89.9869H294.246V83.2307H300.394V77.0825H319.447V83.2307H325.663V96.0675H319.447V101.473H325.663V114.444H319.447V120.525H300.394Z" fill="#252840"/>
<path d="M264.186 120.525V96.0675H258.105V89.9869H251.957V77.0825H258.781V89.3113H264.861V95.4595H270.402V89.3113H276.482V77.0825H283.373V89.9869H277.158V96.0675H271.077V120.525H264.186Z" fill="#252840"/>
<path d="M209.668 120.525V89.3113H215.816V83.2307H221.897V77.0825H228.788V83.2307H234.869V89.3113H241.084V120.525H234.193V108.296H216.492V120.525H209.668ZM216.492 101.473H234.193V89.9869H228.112V83.9063H222.572V89.9869H216.492V101.473Z" fill="#252840"/>
<path d="M160.047 119.715V71.4751H196.26V119.715H190.247V76.8125H166.127V119.715H160.047Z" fill="#252840"/>
<path fill-rule="evenodd" clip-rule="evenodd" d="M336.537 120.525H343.361V108.296H361.063V120.525H367.954V89.3112H361.738V83.2305H355.658V77.0824H348.766V83.2305H342.686V89.3112H336.537V120.525ZM343.361 101.472H361.063V89.9868H354.982V83.9062H349.442V89.9868H343.361V101.472ZM344.836 91.4617V99.9974H359.588V91.4617H353.507V85.3811H350.917V91.4617H344.836ZM341.211 87.8362H335.062V122H344.836V109.771H359.588V122H369.429V87.8362H363.213V81.7556H357.133V75.6074H347.291V81.7556H341.211V87.8362Z" fill="#252840"/>
<path fill-rule="evenodd" clip-rule="evenodd" d="M300.395 120.525H319.447V114.444H325.663V101.472H319.447V96.0674H325.663V83.2305H319.447V77.0824H300.395V83.2305H294.246V89.9868H301.07V83.9062H318.772V95.4593H300.395V102.148H318.772V113.769H301.07V107.621H294.246V114.444H300.395V120.525ZM298.92 115.919V122H320.922V115.919H327.138V99.9974H320.922V97.5423H327.138V81.7556H320.922V75.6074H298.92V81.7556H292.771V91.4617H302.545V85.3811H317.297V93.9844H298.92V103.623H317.297V112.294H302.545V106.146H292.771V115.919H298.92Z" fill="#252840"/>
<path fill-rule="evenodd" clip-rule="evenodd" d="M264.186 96.0674V120.525H271.078V96.0674H277.158V89.9868H283.374V77.0824H276.482V89.3112H270.402V95.4593H264.862V89.3112H258.781V77.0824H251.957V89.9868H258.106V96.0674H264.186ZM256.631 91.4617H250.482V75.6074H260.256V87.8362H266.337V93.9844H268.927V87.8362H275.008V75.6074H284.849V91.4617H278.633V97.5423H272.552V122H262.711V97.5423H256.631V91.4617Z" fill="#252840"/>
<path fill-rule="evenodd" clip-rule="evenodd" d="M209.668 120.525H216.492V108.296H234.193V120.525H241.085V89.3112H234.869V83.2305H228.788V77.0824H221.897V83.2305H215.816V89.3112H209.668V120.525ZM216.492 101.472H234.193V89.9868H228.113V83.9062H222.573V89.9868H216.492V101.472ZM217.967 91.4617V99.9974H232.718V91.4617H226.638V85.3811H224.048V91.4617H217.967ZM214.342 87.8362H208.193V122H217.967V109.771H232.718V122H242.56V87.8362H236.344V81.7556H230.263V75.6074H220.422V81.7556H214.342V87.8362Z" fill="#252840"/>
<path fill-rule="evenodd" clip-rule="evenodd" d="M158.572 121.189V70H197.736V121.189H188.773V78.2873H167.603V121.189H158.572ZM166.128 76.8124H190.248V119.714H196.261V71.475H160.047V119.714H166.128V76.8124Z" fill="#252840"/>
<rect x="525" width="13" height="493" fill="#B9A597"/>
<rect x="989" y="345" width="13" height="989" transform="rotate(90 989 345)" fill="#B9A597"/>
</g>
<defs>
<clipPath id="clip0_105_196">
<rect width="538" height="358" fill="white"/>
</clipPath>
</defs>
</svg>
