<svg width="538" height="358" viewBox="0 0 538 358" fill="none" xmlns="http://www.w3.org/2000/svg">
<g clip-path="url(#clip0_105_2)">
<rect width="538" height="358" fill="white"/>
<path d="M346.942 120.347V113.531H340.051V78.5446H346.942V71.6533H368.298V78.5446H375.265V86.1175H367.54V79.3019H347.699V92.2515H361.482V99.7486H347.699V112.774H367.54V105.883H375.265V113.531H368.298V120.347H346.942Z" fill="#252840"/>
<path d="M299.542 120.347V113.531H292.65V105.883H300.299V112.774H320.14V99.7486H299.542V92.9331H292.65V78.5446H299.542V71.6533H320.897V78.5446H327.864V86.1175H320.14V79.3019H300.299V92.2515H320.897V98.9914H327.864V113.531H320.897V120.347H299.542Z" fill="#252840"/>
<path d="M252.139 120.347V113.531H245.248V71.6533H252.897V112.774H272.738V71.6533H280.462V113.531H273.495V120.347H252.139Z" fill="#252840"/>
<path d="M197.848 120.347V85.3602H204.739V78.5446H211.555V71.6533H219.279V78.5446H226.094V85.3602H233.061V120.347H225.337V106.64H205.496V120.347H197.848ZM205.496 98.9914H225.337V86.1175H218.522V79.3019H212.312V86.1175H205.496V98.9914Z" fill="#252840"/>
<path d="M152.738 120.347V78.5446H159.63V71.6533H180.985V78.5446H187.952V99.7486H180.985V106.64H160.387V120.347H152.738ZM160.387 98.9914H180.228V79.3019H160.387V98.9914Z" fill="#252840"/>
<path fill-rule="evenodd" clip-rule="evenodd" d="M345.288 122V115.184H338.396V76.8913H345.288V70H369.95V76.8913H376.917V87.7707H365.886V80.9551H349.352V90.5982H363.134V101.402H349.352V111.121H365.886V104.229H376.917V115.184H369.95V122H345.288ZM368.296 113.531H375.264V105.883H367.539V112.774H347.698V99.7486H361.481V92.2514H347.698V79.3018H367.539V86.1174H375.264V78.5445H368.296V71.6532H346.941V78.5445H340.05V113.531H346.941V120.347H368.296V113.531Z" fill="#252840"/>
<path fill-rule="evenodd" clip-rule="evenodd" d="M297.887 122V115.184H290.996V104.229H301.951V111.121H318.486V101.402H297.887V94.5862H290.996V76.8913H297.887V70H322.549V76.8913H329.516V87.7707H318.486V80.9551H301.951V90.5982H322.549V97.338H329.516V115.184H322.549V122H297.887ZM320.896 113.531H327.863V98.9913H320.896V92.2514H300.298V79.3018H320.139V86.1174H327.863V78.5445H320.896V71.6532H299.541V78.5445H292.649V92.933H299.541V99.7486H320.139V112.774H300.298V105.883H292.649V113.531H299.541V120.347H320.896V113.531Z" fill="#252840"/>
<path fill-rule="evenodd" clip-rule="evenodd" d="M250.485 122V115.184H243.594V70H254.549V111.121H271.083V70H282.114V115.184H275.147V122H250.485ZM273.494 113.531H280.461V71.6532H272.736V112.774H252.896V71.6532H245.247V113.531H252.138V120.347H273.494V113.531Z" fill="#252840"/>
<path fill-rule="evenodd" clip-rule="evenodd" d="M196.193 122V83.7069H203.085V76.8913H209.9V70H220.931V76.8913H227.747V83.7069H234.714V122H223.683V108.293H207.148V122H196.193ZM205.495 106.64H225.336V120.347H233.06V85.3601H226.093V78.5445H219.278V71.6532H211.553V78.5445H204.738V85.3601H197.847V120.347H205.495V106.64ZM205.495 98.9913H225.336V86.1174H218.521V79.3018H212.311V86.1174H205.495V98.9913ZM207.148 87.7707V97.338H223.683V87.7707H216.867V80.9551H213.964V87.7707H207.148Z" fill="#252840"/>
<path fill-rule="evenodd" clip-rule="evenodd" d="M151.084 122V76.8913H157.975V70H182.637V76.8913H189.604V101.402H182.637V108.293H162.039V122H151.084ZM160.386 106.64H180.984V99.7486H187.951V78.5445H180.984V71.6532H159.629V78.5445H152.737V120.347H160.386V106.64ZM160.386 98.9913H180.227V79.3018H160.386V98.9913ZM162.039 80.9551V97.338H178.573V80.9551H162.039Z" fill="#252840"/>
<rect x="525" width="13" height="493" fill="#B9A597"/>
<rect x="989" y="345" width="13" height="989" transform="rotate(90 989 345)" fill="#B9A597"/>
</g>
<defs>
<clipPath id="clip0_105_2">
<rect width="538" height="358" fill="white"/>
</clipPath>
</defs>
</svg>
