<svg width="235" height="102" viewBox="0 0 235 102" fill="none" xmlns="http://www.w3.org/2000/svg">
<mask id="path-1-inside-1_6_2807" fill="white">
<path fill-rule="evenodd" clip-rule="evenodd" d="M8.66359 0H226.336V8H235V94H226.336V102H8.66359V94H0V8H8.66359V0Z"/>
</mask>
<path fill-rule="evenodd" clip-rule="evenodd" d="M8.66359 0H226.336V8H235V94H226.336V102H8.66359V94H0V8H8.66359V0Z" fill="#F9D22B"/>
<path d="M226.336 0H236.336V-10H226.336V0ZM8.66359 0V-10H-1.33641V0H8.66359ZM226.336 8H216.336V18H226.336V8ZM235 8H245V-2H235V8ZM235 94V104H245V94H235ZM226.336 94V84H216.336V94H226.336ZM226.336 102V112H236.336V102H226.336ZM8.66359 102H-1.33641V112H8.66359V102ZM8.66359 94H18.6636V84H8.66359V94ZM0 94H-10V104H0V94ZM0 8V-2H-10V8H0ZM8.66359 8V18H18.6636V8H8.66359ZM226.336 -10H8.66359V10H226.336V-10ZM236.336 8V0H216.336V8H236.336ZM235 -2H226.336V18H235V-2ZM245 94V8H225V94H245ZM226.336 104H235V84H226.336V104ZM236.336 102V94H216.336V102H236.336ZM8.66359 112H226.336V92H8.66359V112ZM-1.33641 94V102H18.6636V94H-1.33641ZM0 104H8.66359V84H0V104ZM-10 8V94H10V8H-10ZM8.66359 -2H0V18H8.66359V-2ZM-1.33641 0V8H18.6636V0H-1.33641Z" fill="#252840" mask="url(#path-1-inside-1_6_2807)"/>
<rect x="18" y="10" width="8" height="8" fill="white"/>
<rect x="10" y="18" width="8" height="8" fill="white"/>
<rect x="26" y="10" width="8" height="8" fill="white"/>
<rect x="34" y="10" width="8" height="8" fill="white"/>
<rect x="19" y="84" width="198" height="8" fill="#EC9345"/>
<rect x="217" y="76" width="8" height="8" fill="#EC9345"/>
<rect x="10" y="76" width="8" height="8" fill="#EC9345"/>
<rect x="193" y="76" width="8" height="8" fill="white" fill-opacity="0.5"/>
<rect opacity="0.5" x="217" y="68" width="8" height="8" fill="white"/>
<rect opacity="0.5" x="217" y="60" width="8" height="8" fill="white"/>
<rect x="201" y="76" width="8" height="8" fill="white" fill-opacity="0.5"/>
<rect x="209" y="76" width="8" height="8" fill="white" fill-opacity="0.5"/>
<path d="M127.808 62.5186V42.0741H131.178V38.7037H141.622V42.0741H145.03V52.4445H141.622V55.8148H131.548V62.5186H127.808ZM131.548 52.0741H141.252V42.4445H131.548V52.0741Z" fill="#252840"/>
<path d="M82.1826 62.5186V38.7037H85.9234V55.4445H88.8863V45.4074H92.2937V42.0741H95.6271V38.7037H99.4048V62.5186H95.6271V45.7778H92.6641V55.8148H89.2567V59.1852H85.9234V62.5186H82.1826Z" fill="#252840"/>
<path fill-rule="evenodd" clip-rule="evenodd" d="M153.528 59.6481V62.9815H164.898V59.6481H168.305V51.6852H164.898V48.3518H154.824V38.2407H150.157V59.6481H153.528ZM163.602 52.9815V58.3518H154.824V52.9815H163.602Z" fill="#252840"/>
<path d="M170.342 38.2407V62.9815H175.009V38.2407H170.342Z" fill="#252840"/>
<path fill-rule="evenodd" clip-rule="evenodd" d="M127.345 62.9815V41.6111H130.715V38.2407H142.085V41.6111H145.493V52.9074H142.085V56.2778H132.011V62.9815H127.345ZM131.548 55.8148H141.623V52.4444H145.03V42.0741H141.623V38.7037H131.178V42.0741H127.808V62.5185H131.548V55.8148ZM131.548 52.0741H141.252V42.4444H131.548V52.0741ZM132.011 42.9074V51.6111H140.789V42.9074H132.011Z" fill="#252840"/>
<path fill-rule="evenodd" clip-rule="evenodd" d="M81.7197 62.9815V38.2407H86.3864V54.9815H88.4234V44.9444H91.8308V41.6111H95.1642V38.2407H99.8679V62.9815H95.1642V46.2407H93.1271V56.2778H89.7197V59.6481H86.3864V62.9815H81.7197ZM85.9234 59.1852H89.2568V55.8148H92.6642V45.7778H95.6271V62.5185H99.4049V38.7037H95.6271V42.0741H92.2938V45.4074H88.8864V55.4444H85.9234V38.7037H82.1827V62.5185H85.9234V59.1852Z" fill="#252840"/>
<path fill-rule="evenodd" clip-rule="evenodd" d="M65.4815 38H59V42.6296H65.4815V63H70.1111V42.6296H76.5926V38H70.1111H65.4815Z" fill="#252840"/>
<path fill-rule="evenodd" clip-rule="evenodd" d="M110.852 38H104.37V42.6296H110.852V63H115.481V42.6296H121.963V38H115.481H110.852Z" fill="#252840"/>
</svg>
