<svg width="592" height="100" viewBox="0 0 592 100" fill="none" xmlns="http://www.w3.org/2000/svg">
<path fill-rule="evenodd" clip-rule="evenodd" d="M500.303 0H427.303V20H454.303L454.303 100H474.303L474.303 20H500.303V0Z" fill="#252840"/>
<path d="M534.339 97.7761V84.4561H520.871V69.5081H535.819V82.9761H574.595V57.5201H534.339V44.2001H520.871V16.0801H534.339V2.61206H576.075V16.0801H589.691V30.8801H574.595V17.5601H535.819V42.8681H576.075V56.0401H589.691V84.4561H576.075V97.7761H534.339Z" fill="#252840"/>
<path d="M365.367 97.7761V82.9761H378.835V17.5601H365.367V2.61206H407.251V17.5601H393.635V82.9761H407.251V97.7761H365.367Z" fill="#252840"/>
<path d="M280.098 97.7761V2.61206H321.982V16.0801H335.302V29.4001H348.918V70.9881H335.302V84.4561H321.982V97.7761H280.098ZM295.046 82.9761H320.502V69.5081H333.822V30.8801H320.502V17.5601H295.046V82.9761Z" fill="#252840"/>
<path d="M200.929 97.7761V84.4561H187.461V16.0801H200.929V2.61206H242.665V16.0801H256.281V30.8801H241.185V17.5601H202.409V42.8681H229.345V57.5201H202.409V82.9761H241.185V69.5081H256.281V84.4561H242.665V97.7761H200.929Z" fill="#252840"/>
<path d="M94.8213 97.7761V16.0801H108.289V2.61206H150.025V16.0801H163.641V57.5201H150.025V70.9881H143.513V82.9761H156.833V97.7761H142.033V84.4561H128.417V70.9881H109.769V97.7761H94.8213ZM109.769 56.0401H148.545V17.5601H109.769V56.0401Z" fill="#252840"/>
<path d="M15.6506 97.7761V84.4561H2.18262V16.0801H15.6506V2.61206H57.3866V16.0801H71.0026V44.2001H55.9066V17.5601H17.1306V82.9761H55.9066V56.0401H71.0026V84.4561H57.3866V97.7761H15.6506Z" fill="#252840"/>
<path fill-rule="evenodd" clip-rule="evenodd" d="M532.156 99.9592V86.6392H518.688V67.325H538.002V80.793H572.411V59.7032H532.156V46.3832H518.688V13.897H532.156V0.428955H578.258V13.897H591.874V33.0632H572.411V19.7432H538.002V40.685H578.258V53.857H591.874V86.6392H578.258V99.9592H532.156ZM576.075 84.4561H589.691V56.0401H576.075V42.8681H535.819V17.5601H574.595V30.8801H589.691V16.0801H576.075V2.61206H534.339V16.0801H520.871V44.2001H534.339V57.5201H574.595V82.9761H535.819V69.5081H520.871V84.4561H534.339V97.7761H576.075V84.4561Z" fill="#252840"/>
<path fill-rule="evenodd" clip-rule="evenodd" d="M363.184 99.9592V80.793H376.652V19.7432H363.184V0.428955H409.434V19.7432H395.818V80.793H409.434V99.9592H363.184ZM393.635 82.9761V17.5601H407.251V2.61206H365.367V17.5601H378.835V82.9761H365.367V97.7761H407.251V82.9761H393.635Z" fill="#252840"/>
<path fill-rule="evenodd" clip-rule="evenodd" d="M277.916 99.9592V0.428955H324.166V13.897H337.486V27.217H351.102V73.1712H337.486V86.6392H324.166V99.9592H277.916ZM321.983 84.4561H335.303V70.9881H348.919V29.4001H335.303V16.0801H321.983V2.61206H280.099V97.7761H321.983V84.4561ZM320.503 82.9761V69.5081H333.823V30.8801H320.503V17.5601H295.047V82.9761H320.503ZM318.32 80.793V67.325H331.64V33.0632H318.32V19.7432H297.23V80.793H318.32Z" fill="#252840"/>
<path fill-rule="evenodd" clip-rule="evenodd" d="M198.745 99.9592V86.6392H185.277V13.897H198.745V0.428955H244.848V13.897H258.464V33.0632H239.001V19.7432H204.592V40.685H231.528V59.7032H204.592V80.793H239.001V67.325H258.464V86.6392H244.848V99.9592H198.745ZM242.664 84.4561H256.28V69.5081H241.184V82.9761H202.408V57.5201H229.344V42.8681H202.408V17.5601H241.184V30.8801H256.28V16.0801H242.664V2.61206H200.928V16.0801H187.46V84.4561H200.928V97.7761H242.664V84.4561Z" fill="#252840"/>
<path fill-rule="evenodd" clip-rule="evenodd" d="M92.6387 99.9592V13.897H106.107V0.428955H152.209V13.897H165.825V59.7032H152.209V73.1712H145.697V80.793H159.017V99.9592H139.851V86.6392H126.235V73.1712H111.953V99.9592H92.6387ZM109.77 70.9881H128.418V84.4561H142.034V97.7761H156.834V82.9761H143.514V70.9881H150.026V57.5201H163.642V16.0801H150.026V2.61206H108.29V16.0801H94.8218V97.7761H109.77V70.9881ZM109.77 56.0401H148.546V17.5601H109.77V56.0401ZM111.953 19.7432V53.857H146.363V19.7432H111.953Z" fill="#252840"/>
<path fill-rule="evenodd" clip-rule="evenodd" d="M13.468 99.9592V86.6392H0V13.897H13.468V0.428955H59.5702V13.897H73.1862V46.3832H53.724V19.7432H19.3142V80.793H53.724V53.857H73.1862V86.6392H59.5702V99.9592H13.468ZM57.3871 84.4561H71.0031V56.0401H55.9071V82.9761H17.1311V17.5601H55.9071V44.2001H71.0031V16.0801H57.3871V2.61206H15.6511V16.0801H2.18311V84.4561H15.6511V97.7761H57.3871V84.4561Z" fill="#252840"/>
</svg>
