<svg width="682" height="100" viewBox="0 0 682 100" fill="none" xmlns="http://www.w3.org/2000/svg">
<path d="M623.495 97.7761V84.4561H610.027V2.61206H624.975V82.9761H663.751V69.5081H678.847V84.4561H665.231V97.7761H623.495Z" fill="#252840"/>
<path d="M517.389 97.7761V29.4001H530.857V16.0801H544.177V2.61206H559.273V16.0801H572.593V29.4001H586.209V97.7761H571.113V70.9881H532.337V97.7761H517.389ZM532.337 56.0401H571.113V30.8801H557.793V17.5601H545.657V30.8801H532.337V56.0401Z" fill="#252840"/>
<path d="M451.633 97.7761V82.9761H465.101V17.5601H451.633V2.61206H493.517V17.5601H479.901V82.9761H493.517V97.7761H451.633Z" fill="#252840"/>
<path d="M358.994 97.7761V16.0801H372.462V2.61206H414.198V16.0801H427.814V57.5201H414.198V70.9881H407.686V82.9761H421.006V97.7761H406.206V84.4561H392.59V70.9881H373.942V97.7761H358.994ZM373.942 56.0401H412.718V17.5601H373.942V56.0401Z" fill="#252840"/>
<path d="M279.823 97.7761V84.4561H266.355V16.0801H279.823V2.61206H321.559V16.0801H335.175V84.4561H321.559V97.7761H279.823ZM281.303 82.9761H320.079V17.5601H281.303V82.9761Z" fill="#252840"/>
<path d="M103.506 97.7761V84.4561H90.0381V2.61206H104.986V82.9761H143.762V2.61206H158.858V84.4561H145.242V97.7761H103.506Z" fill="#252840"/>
<path fill-rule="evenodd" clip-rule="evenodd" d="M621.312 99.9592V86.6392H607.844V0.428955H627.158V80.793H661.568V67.325H681.03V86.6392H667.414V99.9592H621.312ZM665.231 84.4561H678.847V69.5081H663.751V82.9761H624.975V2.61206H610.027V84.4561H623.495V97.7761H665.231V84.4561Z" fill="#252840"/>
<path fill-rule="evenodd" clip-rule="evenodd" d="M515.205 99.9592V27.217H528.673V13.897H541.993V0.428955H561.455V13.897H574.775V27.217H588.391V99.9592H568.929V73.1712H534.519V99.9592H515.205ZM532.336 70.9881H571.112V97.7761H586.208V29.4001H572.592V16.0801H559.272V2.61206H544.176V16.0801H530.856V29.4001H517.388V97.7761H532.336V70.9881ZM532.336 56.0401H571.112V30.8801H557.792V17.5601H545.656V30.8801H532.336V56.0401ZM534.519 33.0632V53.857H568.929V33.0632H555.609V19.7432H547.839V33.0632H534.519Z" fill="#252840"/>
<path fill-rule="evenodd" clip-rule="evenodd" d="M449.449 99.9592V80.793H462.917V19.7432H449.449V0.428955H495.699V19.7432H482.083V80.793H495.699V99.9592H449.449ZM479.9 82.9761V17.5601H493.516V2.61206H451.632V17.5601H465.1V82.9761H451.632V97.7761H493.516V82.9761H479.9Z" fill="#252840"/>
<path fill-rule="evenodd" clip-rule="evenodd" d="M356.811 99.9592V13.897H370.279V0.428955H416.381V13.897H429.997V59.7032H416.381V73.1712H409.869V80.793H423.189V99.9592H404.023V86.6392H390.407V73.1712H376.125V99.9592H356.811ZM373.942 70.9881H392.59V84.4561H406.206V97.7761H421.006V82.9761H407.686V70.9881H414.198V57.5201H427.814V16.0801H414.198V2.61206H372.462V16.0801H358.994V97.7761H373.942V70.9881ZM373.942 56.0401H412.718V17.5601H373.942V56.0401ZM376.125 19.7432V53.857H410.535V19.7432H376.125Z" fill="#252840"/>
<path fill-rule="evenodd" clip-rule="evenodd" d="M277.64 99.9592V86.6392H264.172V13.897H277.64V0.428955H323.742V13.897H337.358V86.6392H323.742V99.9592H277.64ZM321.559 84.4561H335.175V16.0801H321.559V2.61206H279.823V16.0801H266.355V84.4561H279.823V97.7761H321.559V84.4561ZM320.079 82.9761V17.5601H281.303V82.9761H320.079ZM317.896 80.793V19.7432H283.486V80.793H317.896Z" fill="#252840"/>
<path fill-rule="evenodd" clip-rule="evenodd" d="M101.323 99.9592V86.6392H87.8555V0.428955H107.17V80.793H141.579V0.428955H161.042V86.6392H147.426V99.9592H101.323ZM145.243 84.4561H158.859V2.61206H143.763V82.9761H104.987V2.61206H90.0386V84.4561H103.507V97.7761H145.243V84.4561Z" fill="#252840"/>
<path fill-rule="evenodd" clip-rule="evenodd" d="M249 0H176V20H203L203 100H223L223 20H249V0Z" fill="#252840"/>
<path fill-rule="evenodd" clip-rule="evenodd" d="M73 0H0V20H27L27 100H47L47 20H73V0Z" fill="#252840"/>
</svg>
