<svg width="575" height="102" viewBox="0 0 575 102" fill="none" xmlns="http://www.w3.org/2000/svg">
<mask id="path-1-inside-1_6_2842" fill="white">
<path fill-rule="evenodd" clip-rule="evenodd" d="M348.664 0H566.336V8H575V94H566.336V102H348.664V94H340V8H348.664V0Z"/>
</mask>
<path fill-rule="evenodd" clip-rule="evenodd" d="M348.664 0H566.336V8H575V94H566.336V102H348.664V94H340V8H348.664V0Z" fill="#F9D22B"/>
<path d="M566.336 0H576.336V-10H566.336V0ZM348.664 0V-10H338.664V0H348.664ZM566.336 8H556.336V18H566.336V8ZM575 8H585V-2H575V8ZM575 94V104H585V94H575ZM566.336 94V84H556.336V94H566.336ZM566.336 102V112H576.336V102H566.336ZM348.664 102H338.664V112H348.664V102ZM348.664 94H358.664V84H348.664V94ZM340 94H330V104H340V94ZM340 8V-2H330V8H340ZM348.664 8V18H358.664V8H348.664ZM566.336 -10H348.664V10H566.336V-10ZM576.336 8V0H556.336V8H576.336ZM575 -2H566.336V18H575V-2ZM585 94V8H565V94H585ZM566.336 104H575V84H566.336V104ZM576.336 102V94H556.336V102H576.336ZM348.664 112H566.336V92H348.664V112ZM338.664 94V102H358.664V94H338.664ZM340 104H348.664V84H340V104ZM330 8V94H350V8H330ZM348.664 -2H340V18H348.664V-2ZM338.664 0V8H358.664V0H338.664Z" fill="#252840" mask="url(#path-1-inside-1_6_2842)"/>
<rect x="350" y="18" width="8" height="8" fill="white"/>
<rect x="359" y="84" width="198" height="8" fill="#EC9345"/>
<rect x="557" y="76" width="8" height="8" fill="#EC9345"/>
<rect x="350" y="76" width="8" height="8" fill="#EC9345"/>
<rect x="533" y="76" width="8" height="8" fill="white" fill-opacity="0.5"/>
<rect opacity="0.5" x="557" y="68" width="8" height="8" fill="white"/>
<rect opacity="0.5" x="557" y="60" width="8" height="8" fill="white"/>
<rect x="541" y="76" width="8" height="8" fill="white" fill-opacity="0.5"/>
<rect x="549" y="76" width="8" height="8" fill="white" fill-opacity="0.5"/>
<mask id="path-12-inside-2_6_2842" fill="white">
<path fill-rule="evenodd" clip-rule="evenodd" d="M8.66359 0H226.336V8H235V94H226.336V102H8.66359V94H0V8H8.66359V0Z"/>
</mask>
<path fill-rule="evenodd" clip-rule="evenodd" d="M8.66359 0H226.336V8H235V94H226.336V102H8.66359V94H0V8H8.66359V0Z" fill="#F9D22B"/>
<path d="M226.336 0H236.336V-10H226.336V0ZM8.66359 0V-10H-1.33641V0H8.66359ZM226.336 8H216.336V18H226.336V8ZM235 8H245V-2H235V8ZM235 94V104H245V94H235ZM226.336 94V84H216.336V94H226.336ZM226.336 102V112H236.336V102H226.336ZM8.66359 102H-1.33641V112H8.66359V102ZM8.66359 94H18.6636V84H8.66359V94ZM0 94H-10V104H0V94ZM0 8V-2H-10V8H0ZM8.66359 8V18H18.6636V8H8.66359ZM226.336 -10H8.66359V10H226.336V-10ZM236.336 8V0H216.336V8H236.336ZM235 -2H226.336V18H235V-2ZM245 94V8H225V94H245ZM226.336 104H235V84H226.336V104ZM236.336 102V94H216.336V102H236.336ZM8.66359 112H226.336V92H8.66359V112ZM-1.33641 94V102H18.6636V94H-1.33641ZM0 104H8.66359V84H0V104ZM-10 8V94H10V8H-10ZM8.66359 -2H0V18H8.66359V-2ZM-1.33641 0V8H18.6636V0H-1.33641Z" fill="#252840" mask="url(#path-12-inside-2_6_2842)"/>
<rect x="18" y="10" width="8" height="8" fill="white"/>
<rect x="10" y="18" width="8" height="8" fill="white"/>
<rect x="26" y="10" width="8" height="8" fill="white"/>
<rect x="34" y="10" width="8" height="8" fill="white"/>
<rect x="19" y="84" width="198" height="8" fill="#EC9345"/>
<rect x="217" y="76" width="8" height="8" fill="#EC9345"/>
<rect x="10" y="76" width="8" height="8" fill="#EC9345"/>
<rect opacity="0.5" x="217" y="68" width="8" height="8" fill="white"/>
<rect opacity="0.5" x="217" y="60" width="8" height="8" fill="white"/>
<g clip-path="url(#clip0_6_2842)">
<mask id="path-23-inside-3_6_2842" fill="white">
<path fill-rule="evenodd" clip-rule="evenodd" d="M180.664 0H398.336V8H407V94H398.336V102H180.664V94H172V8H180.664V0Z"/>
</mask>
<path fill-rule="evenodd" clip-rule="evenodd" d="M180.664 0H398.336V8H407V94H398.336V102H180.664V94H172V8H180.664V0Z" fill="#F9D22B"/>
<path d="M398.336 0H408.336V-10H398.336V0ZM180.664 0V-10H170.664V0H180.664ZM398.336 8H388.336V18H398.336V8ZM407 8H417V-2H407V8ZM407 94V104H417V94H407ZM398.336 94V84H388.336V94H398.336ZM398.336 102V112H408.336V102H398.336ZM180.664 102H170.664V112H180.664V102ZM180.664 94H190.664V84H180.664V94ZM172 94H162V104H172V94ZM172 8V-2H162V8H172ZM180.664 8V18H190.664V8H180.664ZM398.336 -10H180.664V10H398.336V-10ZM408.336 8V0H388.336V8H408.336ZM407 -2H398.336V18H407V-2ZM417 94V8H397V94H417ZM398.336 104H407V84H398.336V104ZM408.336 102V94H388.336V102H408.336ZM180.664 112H398.336V92H180.664V112ZM170.664 94V102H190.664V94H170.664ZM172 104H180.664V84H172V104ZM162 8V94H182V8H162ZM180.664 -2H172V18H180.664V-2ZM170.664 0V8H190.664V0H170.664Z" fill="#252840" mask="url(#path-23-inside-3_6_2842)"/>
<rect x="191" y="84" width="198" height="8" fill="#EC9345"/>
</g>
<path fill-rule="evenodd" clip-rule="evenodd" d="M191 36H184V41H191V63H196V41H203V36H196H191Z" fill="#252840"/>
<path fill-rule="evenodd" clip-rule="evenodd" d="M287 36H280V41H287V63H292V41H299V36H292H287Z" fill="#252840"/>
<path fill-rule="evenodd" clip-rule="evenodd" d="M500 36H493V41H500V63H505V41H512V36H505H500Z" fill="#252840"/>
<path d="M521.242 62.22V58.62H517.602V36.5H521.642V43.74H532.522V47.38H536.202V58.62H532.522V62.22H521.242ZM521.642 58.22H532.122V47.74H521.642V58.22Z" fill="#252840"/>
<path d="M468.326 62.22V43.74H471.966V40.14H475.566V36.5H479.646V40.14H483.246V43.74H486.926V62.22H482.846V54.98H472.366V62.22H468.326ZM472.366 50.94H482.846V44.14H479.246V40.54H475.966V44.14H472.366V50.94Z" fill="#252840"/>
<path d="M458.249 62.26V51.42H447.329V47.78H443.689V36.54H447.729V47.42H458.249V36.54H462.289V62.26H458.249Z" fill="#252840"/>
<path d="M419.052 62.22V43.74H422.692V40.14H426.292V36.5H430.372V40.14H433.972V43.74H437.652V62.22H433.572V54.98H423.092V62.22H419.052ZM423.092 50.94H433.572V44.14H429.972V40.54H426.692V44.14H423.092V50.94Z" fill="#252840"/>
<path d="M394.414 62.22V36.5H398.454V47.38H408.934V36.5H413.014V62.22H408.934V51.34H398.454V62.22H394.414Z" fill="#252840"/>
<path d="M332.345 62.22V58.62H328.705V36.5H343.625V40.14H347.305V44.14H343.225V40.54H332.745V47.38H343.625V50.94H347.305V58.62H343.625V62.22H332.345ZM332.745 58.22H343.225V51.34H332.745V58.22Z" fill="#252840"/>
<path d="M307.707 62.22V58.62H304.067V40.14H307.707V36.5H318.987V40.14H322.667V58.62H318.987V62.22H307.707ZM308.107 58.22H318.587V40.54H308.107V58.22Z" fill="#252840"/>
<path d="M269.352 62.26V51.42H258.432V47.78H254.792V36.54H258.832V47.42H269.352V36.54H273.392V62.26H269.352Z" fill="#252840"/>
<path d="M235.521 65.34V63.1H237.361V61.74H233.721V57.7H237.761V61.34H239.561V63.5H237.761V65.34H235.521Z" fill="#252840"/>
<path d="M212.723 62.22V58.62H209.083V40.14H212.723V36.5H224.003V40.14H227.683V44.14H223.603V40.54H213.123V47.38H220.403V51.34H213.123V58.22H223.603V54.58H227.683V58.62H224.003V62.22H212.723Z" fill="#252840"/>
<path d="M159.808 62.22V36.5H163.848V54.58H167.048V43.74H170.728V40.14H174.328V36.5H178.408V62.22H174.328V44.14H171.128V54.98H167.448V58.62H163.848V62.22H159.808Z" fill="#252840"/>
<path d="M127.943 62.22V40.14H131.583V36.5H135.583V40.14H139.263V47.38H142.463V40.14H146.143V36.5H150.183V40.14H153.783V62.22H149.783V40.54H146.543V47.74H142.863V58.62H138.863V47.74H135.183V40.54H131.983V62.22H127.943Z" fill="#252840"/>
<path d="M88.7754 62.22V58.18H92.4154V54.58H96.0154V50.94H99.6954V47.74H96.0154V44.14H92.4154V40.54H88.7754V36.5H92.8154V40.14H96.4154V43.74H100.095V47.38H103.295V36.5H107.375V47.38H110.575V43.74H114.255V40.14H117.855V36.5H121.895V40.54H118.255V44.14H114.615V47.74H110.975V50.94H114.615V54.58H118.255V58.18H121.895V62.22H117.855V58.58H114.255V54.98H110.575V51.34H107.375V62.22H103.295V51.34H100.095V54.98H96.4154V58.58H92.8154V62.22H88.7754Z" fill="#252840"/>
<path d="M64.1377 62.22V43.74H67.7777V40.14H71.3777V36.5H75.4577V40.14H79.0577V43.74H82.7377V62.22H78.6577V54.98H68.1777V62.22H64.1377ZM68.1777 50.94H78.6577V44.14H75.0577V40.54H71.7777V44.14H68.1777V50.94Z" fill="#252840"/>
<path d="M39.5 62.22V36.5H43.54V47.38H54.02V36.5H58.1V62.22H54.02V51.34H43.54V62.22H39.5Z" fill="#252840"/>
<path fill-rule="evenodd" clip-rule="evenodd" d="M520.742 62.72V59.12H517.102V36H522.142V43.24H533.022V46.88H536.702V59.12H533.022V62.72H520.742ZM532.522 58.62H536.202V47.38H532.522V43.74H521.642V36.5H517.602V58.62H521.242V62.22H532.522V58.62ZM532.122 58.22V47.74H521.642V58.22H532.122ZM531.622 57.72V48.24H522.142V57.72H531.622Z" fill="#252840"/>
<path fill-rule="evenodd" clip-rule="evenodd" d="M467.826 62.72V43.24H471.466V39.64H475.066V36H480.146V39.64H483.746V43.24H487.426V62.72H482.346V55.48H472.866V62.72H467.826ZM472.366 54.98H482.846V62.22H486.926V43.74H483.246V40.14H479.646V36.5H475.566V40.14H471.966V43.74H468.326V62.22H472.366V54.98ZM472.366 50.94H482.846V44.14H479.246V40.54H475.966V44.14H472.366V50.94ZM472.866 44.64V50.44H482.346V44.64H478.746V41.04H476.466V44.64H472.866Z" fill="#252840"/>
<path fill-rule="evenodd" clip-rule="evenodd" d="M457.749 62.76V51.92H446.829V48.28H443.189V36.04H448.229V46.92H457.749V36.04H462.789V62.76H457.749ZM458.249 47.42H447.729V36.54H443.689V47.78H447.329V51.42H458.249V62.26H462.289V36.54H458.249V47.42Z" fill="#252840"/>
<path fill-rule="evenodd" clip-rule="evenodd" d="M418.552 62.72V43.24H422.192V39.64H425.792V36H430.872V39.64H434.472V43.24H438.152V62.72H433.072V55.48H423.592V62.72H418.552ZM423.092 54.98H433.572V62.22H437.652V43.74H433.972V40.14H430.372V36.5H426.292V40.14H422.692V43.74H419.052V62.22H423.092V54.98ZM423.092 50.94H433.572V44.14H429.972V40.54H426.692V44.14H423.092V50.94ZM423.592 44.64V50.44H433.072V44.64H429.472V41.04H427.192V44.64H423.592Z" fill="#252840"/>
<path fill-rule="evenodd" clip-rule="evenodd" d="M393.914 62.72V36H398.954V46.88H408.434V36H413.514V62.72H408.434V51.84H398.954V62.72H393.914ZM398.454 51.34H408.934V62.22H413.014V36.5H408.934V47.38H398.454V36.5H394.414V62.22H398.454V51.34Z" fill="#252840"/>
<path d="M356.982 62.22V58.62H353.342V36.5H357.382V47.42H368.262V51.02H371.942V58.62H368.262V62.22H356.982ZM357.382 58.22H367.862V51.42H357.382V58.22ZM375.142 62.22V43.74H379.182V62.22H375.142Z" fill="#252840"/>
<path fill-rule="evenodd" clip-rule="evenodd" d="M356.482 62.72V59.12H352.842V36H357.882V46.92H368.762V50.52H372.442V59.12H368.762V62.72H356.482ZM368.262 58.62H371.942V51.02H368.262V47.42H357.382V36.5H353.342V58.62H356.982V62.22H368.262V58.62ZM367.862 58.22V51.42H357.382V58.22H367.862ZM367.362 57.72V51.92H357.882V57.72H367.362ZM374.642 62.72L375.142 36H379.682V62.72H374.642ZM375.142 62.22H379.182V43.74H375.142V62.22Z" fill="#252840"/>
<path fill-rule="evenodd" clip-rule="evenodd" d="M331.845 62.72V59.12H328.205V36H344.125V39.64H347.805V44.64H342.725V41.04H333.245V46.88H344.125V50.44H347.805V59.12H344.125V62.72H331.845ZM343.625 58.62H347.305V50.94H343.625V47.38H332.745V40.54H343.225V44.14H347.305V40.14H343.625V36.5H328.705V58.62H332.345V62.22H343.625V58.62ZM343.225 58.22V51.34H332.745V58.22H343.225ZM342.725 57.72V51.84H333.245V57.72H342.725Z" fill="#252840"/>
<path fill-rule="evenodd" clip-rule="evenodd" d="M307.207 62.72V59.12H303.567V39.64H307.207V36H319.487V39.64H323.167V59.12H319.487V62.72H307.207ZM318.987 58.62H322.667V40.14H318.987V36.5H307.707V40.14H304.067V58.62H307.707V62.22H318.987V58.62ZM318.587 58.22V40.54H308.107V58.22H318.587ZM318.087 57.72V41.04H308.607V57.72H318.087Z" fill="#252840"/>
<path fill-rule="evenodd" clip-rule="evenodd" d="M268.852 62.76V51.92H257.932V48.28H254.292V36.04H259.332V46.92H268.852V36.04H273.892V62.76H268.852ZM269.352 47.42H258.832V36.54H254.792V47.78H258.432V51.42H269.352V62.26H273.392V36.54H269.352V47.42Z" fill="#252840"/>
<path fill-rule="evenodd" clip-rule="evenodd" d="M235.521 65.34H237.761V63.5H239.561V61.34H237.761V57.7H233.721V61.74H237.361V63.1H235.521V65.34ZM236.861 62.6H235.021V65.84H238.261V64H240.061V60.84H238.261V57.2H233.221V62.24H236.861V62.6Z" fill="#252840"/>
<path fill-rule="evenodd" clip-rule="evenodd" d="M212.223 62.72V59.12H208.583V39.64H212.223V36H224.503V39.64H228.183V44.64H223.103V41.04H213.623V46.88H220.903V51.84H213.623V57.72H223.103V54.08H228.183V59.12H224.503V62.72H212.223ZM224.003 58.62H227.683V54.58H223.603V58.22H213.123V51.34H220.403V47.38H213.123V40.54H223.603V44.14H227.683V40.14H224.003V36.5H212.723V40.14H209.083V58.62H212.723V62.22H224.003V58.62Z" fill="#252840"/>
<path fill-rule="evenodd" clip-rule="evenodd" d="M159.308 62.72V36H164.348V54.08H166.548V43.24H170.228V39.64H173.828V36H178.908V62.72H173.828V44.64H171.628V55.48H167.948V59.12H164.348V62.72H159.308ZM163.848 58.62H167.448V54.98H171.128V44.14H174.328V62.22H178.408V36.5H174.328V40.14H170.728V43.74H167.048V54.58H163.848V36.5H159.808V62.22H163.848V58.62Z" fill="#252840"/>
<path fill-rule="evenodd" clip-rule="evenodd" d="M127.443 62.72V39.64H131.083V36H136.083V39.64H139.763V46.88H141.963V39.64H145.643V36H150.683V39.64H154.283V62.72H149.283V41.04H147.043V48.24H143.363V59.12H138.363V48.24H134.683V41.04H132.483V62.72H127.443ZM131.983 40.54H135.183V47.74H138.863V58.62H142.863V47.74H146.543V40.54H149.783V62.22H153.783V40.14H150.183V36.5H146.143V40.14H142.463V47.38H139.263V40.14H135.583V36.5H131.583V40.14H127.943V62.22H131.983V40.54Z" fill="#252840"/>
<path fill-rule="evenodd" clip-rule="evenodd" d="M88.2754 62.72V57.68H91.9154V54.08H95.5154V50.44H99.1954V48.24H95.5154V44.64H91.9154V41.04H88.2754V36H93.3154V39.64H96.9154V43.24H100.595V46.88H102.795V36H107.875V46.88H110.075V43.24H113.755V39.64H117.355V36H122.395V41.04H118.755V44.64H115.115V48.24H111.475V50.44H115.115V54.08H118.755V57.68H122.395V62.72H117.355V59.08H113.755V55.48H110.075V51.84H107.875V62.72H102.795V51.84H100.595V55.48H96.9154V59.08H93.3154V62.72H88.2754ZM92.8154 58.58H96.4154V54.98H100.095V51.34H103.295V62.22H107.375V51.34H110.575V54.98H114.255V58.58H117.855V62.22H121.895V58.18H118.255V54.58H114.615V50.94H110.975V47.74H114.615V44.14H118.255V40.54H121.895V36.5H117.855V40.14H114.255V43.74H110.575V47.38H107.375V36.5H103.295V47.38H100.095V43.74H96.4154V40.14H92.8154V36.5H88.7754V40.54H92.4154V44.14H96.0154V47.74H99.6954V50.94H96.0154V54.58H92.4154V58.18H88.7754V62.22H92.8154V58.58Z" fill="#252840"/>
<path fill-rule="evenodd" clip-rule="evenodd" d="M63.6377 62.72V43.24H67.2777V39.64H70.8777V36H75.9577V39.64H79.5577V43.24H83.2377V62.72H78.1577V55.48H68.6777V62.72H63.6377ZM68.1777 54.98H78.6577V62.22H82.7377V43.74H79.0577V40.14H75.4577V36.5H71.3777V40.14H67.7777V43.74H64.1377V62.22H68.1777V54.98ZM68.1777 50.94H78.6577V44.14H75.0577V40.54H71.7777V44.14H68.1777V50.94ZM68.6777 44.64V50.44H78.1577V44.64H74.5577V41.04H72.2777V44.64H68.6777Z" fill="#252840"/>
<path fill-rule="evenodd" clip-rule="evenodd" d="M39 62.72V36H44.04V46.88H53.52V36H58.6V62.72H53.52V51.84H44.04V62.72H39ZM43.54 51.34H54.02V62.22H58.1V36.5H54.02V47.38H43.54V36.5H39.5V62.22H43.54V51.34Z" fill="#252840"/>
<defs>
<clipPath id="clip0_6_2842">
<rect width="150" height="102" fill="white" transform="translate(215)"/>
</clipPath>
</defs>
</svg>
