<svg width="235" height="102" viewBox="0 0 235 102" fill="none" xmlns="http://www.w3.org/2000/svg">
<mask id="path-1-inside-1_6_2691" fill="white">
<path fill-rule="evenodd" clip-rule="evenodd" d="M8.66359 0H226.336V8H235V94H226.336V102H8.66359V94H0V8H8.66359V0Z"/>
</mask>
<path fill-rule="evenodd" clip-rule="evenodd" d="M8.66359 0H226.336V8H235V94H226.336V102H8.66359V94H0V8H8.66359V0Z" fill="#F9D22B"/>
<path d="M226.336 0H236.336V-10H226.336V0ZM8.66359 0V-10H-1.33641V0H8.66359ZM226.336 8H216.336V18H226.336V8ZM235 8H245V-2H235V8ZM235 94V104H245V94H235ZM226.336 94V84H216.336V94H226.336ZM226.336 102V112H236.336V102H226.336ZM8.66359 102H-1.33641V112H8.66359V102ZM8.66359 94H18.6636V84H8.66359V94ZM0 94H-10V104H0V94ZM0 8V-2H-10V8H0ZM8.66359 8V18H18.6636V8H8.66359ZM226.336 -10H8.66359V10H226.336V-10ZM236.336 8V0H216.336V8H236.336ZM235 -2H226.336V18H235V-2ZM245 94V8H225V94H245ZM226.336 104H235V84H226.336V104ZM236.336 102V94H216.336V102H236.336ZM8.66359 112H226.336V92H8.66359V112ZM-1.33641 94V102H18.6636V94H-1.33641ZM0 104H8.66359V84H0V104ZM-10 8V94H10V8H-10ZM8.66359 -2H0V18H8.66359V-2ZM-1.33641 0V8H18.6636V0H-1.33641Z" fill="#252840" mask="url(#path-1-inside-1_6_2691)"/>
<rect x="18" y="10" width="8" height="8" fill="white"/>
<rect x="10" y="18" width="8" height="8" fill="white"/>
<rect x="26" y="10" width="8" height="8" fill="white"/>
<rect x="34" y="10" width="8" height="8" fill="white"/>
<rect x="19" y="84" width="198" height="8" fill="#EC9345"/>
<rect x="217" y="76" width="8" height="8" fill="#EC9345"/>
<rect x="10" y="76" width="8" height="8" fill="#EC9345"/>
<rect x="193" y="76" width="8" height="8" fill="white" fill-opacity="0.5"/>
<rect opacity="0.5" x="217" y="68" width="8" height="8" fill="white"/>
<rect opacity="0.5" x="217" y="60" width="8" height="8" fill="white"/>
<rect x="201" y="76" width="8" height="8" fill="white" fill-opacity="0.5"/>
<rect x="209" y="76" width="8" height="8" fill="white" fill-opacity="0.5"/>
<path d="M180.926 63.48V59.88H177.286V55.84H181.326V59.48H191.806V52.6H180.926V49H177.286V41.4H180.926V37.76H192.206V41.4H195.886V45.4H191.806V41.8H181.326V48.64H192.206V52.2H195.886V59.88H192.206V63.48H180.926Z" fill="#252840"/>
<path d="M136.058 63.48V59.48H139.698V41.8H136.058V37.76H147.378V41.8H143.698V59.48H147.378V63.48H136.058Z" fill="#252840"/>
<path d="M113.412 63.48V37.76H124.732V41.4H128.332V45H132.012V56.24H128.332V59.88H124.732V63.48H113.412ZM117.452 59.48H124.332V55.84H127.932V45.4H124.332V41.8H117.452V59.48Z" fill="#252840"/>
<path d="M92.4154 63.48V59.88H88.7754V41.4H92.4154V37.76H103.695V41.4H107.375V45.4H103.295V41.8H92.8154V48.64H100.095V52.6H92.8154V59.48H103.295V55.84H107.375V59.88H103.695V63.48H92.4154Z" fill="#252840"/>
<path d="M64.1377 63.48V41.4H67.7777V37.76H79.0577V41.4H82.7377V52.6H79.0577V56.24H77.2977V59.48H80.8977V63.48H76.8977V59.88H73.2177V56.24H68.1777V63.48H64.1377ZM68.1777 52.2H78.6577V41.8H68.1777V52.2Z" fill="#252840"/>
<path fill-rule="evenodd" clip-rule="evenodd" d="M180.426 63.98V60.38H176.786V55.34H181.826V58.98H191.306V53.1H180.426V49.5H176.786V40.9H180.426V37.26H192.706V40.9H196.386V45.9H191.306V42.3H181.826V48.14H192.706V51.7H196.386V60.38H192.706V63.98H180.426ZM192.206 59.88H195.886V52.2H192.206V48.64H181.326V41.8H191.806V45.4H195.886V41.4H192.206V37.76H180.926V41.4H177.286V49H180.926V52.6H191.806V59.48H181.326V55.84H177.286V59.88H180.926V63.48H192.206V59.88Z" fill="#252840"/>
<path fill-rule="evenodd" clip-rule="evenodd" d="M135.558 63.98V58.98H139.198V42.3H135.558V37.26H147.878V42.3H144.198V58.98H147.878V63.98H135.558ZM143.698 59.48V41.8H147.378V37.76H136.058V41.8H139.698V59.48H136.058V63.48H147.378V59.48H143.698Z" fill="#252840"/>
<path fill-rule="evenodd" clip-rule="evenodd" d="M112.912 63.98V37.26H125.232V40.9H128.832V44.5H132.512V56.74H128.832V60.38H125.232V63.98H112.912ZM124.732 59.88H128.332V56.24H132.012V45H128.332V41.4H124.732V37.76H113.412V63.48H124.732V59.88ZM124.332 59.48V55.84H127.932V45.4H124.332V41.8H117.452V59.48H124.332ZM123.832 58.98V55.34H127.432V45.9H123.832V42.3H117.952V58.98H123.832Z" fill="#252840"/>
<path fill-rule="evenodd" clip-rule="evenodd" d="M91.9154 63.98V60.38H88.2754V40.9H91.9154V37.26H104.195V40.9H107.875V45.9H102.795V42.3H93.3154V48.14H100.595V53.1H93.3154V58.98H102.795V55.34H107.875V60.38H104.195V63.98H91.9154ZM103.695 59.88H107.375V55.84H103.295V59.48H92.8154V52.6H100.095V48.64H92.8154V41.8H103.295V45.4H107.375V41.4H103.695V37.76H92.4154V41.4H88.7754V59.88H92.4154V63.48H103.695V59.88Z" fill="#252840"/>
<path fill-rule="evenodd" clip-rule="evenodd" d="M63.6377 63.98V40.9H67.2777V37.26H79.5577V40.9H83.2377V53.1H79.5577V56.74H77.7977V58.98H81.3977V63.98H76.3977V60.38H72.7177V56.74H68.6777V63.98H63.6377ZM68.1777 56.24H73.2177V59.88H76.8977V63.48H80.8977V59.48H77.2977V56.24H79.0577V52.6H82.7377V41.4H79.0577V37.76H67.7777V41.4H64.1377V63.48H68.1777V56.24ZM68.1777 52.2H78.6577V41.8H68.1777V52.2ZM68.6777 42.3V51.7H78.1577V42.3H68.6777Z" fill="#252840"/>
<path d="M42.64 60.38V63.98H54.92V60.38H58.6L58.5 52H53.42L53.52 58.98H44.04V42.3H53.52L53.5 48H58.58L58.6 40.9H54.92V37.26H42.64V40.9H39V60.38H42.64Z" fill="#252840"/>
<path fill-rule="evenodd" clip-rule="evenodd" d="M160.1 37H153.1V42H160.1V64H165.1V42H172.1V37H165.1H160.1Z" fill="#252840"/>
</svg>
