<svg width="235" height="102" viewBox="0 0 235 102" fill="none" xmlns="http://www.w3.org/2000/svg">
<mask id="path-1-inside-1_6_2614" fill="white">
<path fill-rule="evenodd" clip-rule="evenodd" d="M8.66359 0H226.336V8H235V94H226.336V102H8.66359V94H0V8H8.66359V0Z"/>
</mask>
<path fill-rule="evenodd" clip-rule="evenodd" d="M8.66359 0H226.336V8H235V94H226.336V102H8.66359V94H0V8H8.66359V0Z" fill="#F9D22B"/>
<path d="M226.336 0H236.336V-10H226.336V0ZM8.66359 0V-10H-1.33641V0H8.66359ZM226.336 8H216.336V18H226.336V8ZM235 8H245V-2H235V8ZM235 94V104H245V94H235ZM226.336 94V84H216.336V94H226.336ZM226.336 102V112H236.336V102H226.336ZM8.66359 102H-1.33641V112H8.66359V102ZM8.66359 94H18.6636V84H8.66359V94ZM0 94H-10V104H0V94ZM0 8V-2H-10V8H0ZM8.66359 8V18H18.6636V8H8.66359ZM226.336 -10H8.66359V10H226.336V-10ZM236.336 8V0H216.336V8H236.336ZM235 -2H226.336V18H235V-2ZM245 94V8H225V94H245ZM226.336 104H235V84H226.336V104ZM236.336 102V94H216.336V102H236.336ZM8.66359 112H226.336V92H8.66359V112ZM-1.33641 94V102H18.6636V94H-1.33641ZM0 104H8.66359V84H0V104ZM-10 8V94H10V8H-10ZM8.66359 -2H0V18H8.66359V-2ZM-1.33641 0V8H18.6636V0H-1.33641Z" fill="#252840" mask="url(#path-1-inside-1_6_2614)"/>
<path d="M132.029 64.48V42.4H135.669V38.76H146.949V42.4H150.629V53.6H146.949V57.24H145.189V60.48H148.789V64.48H144.789V60.88H141.109V57.24H136.069V64.48H132.029ZM136.069 53.2H146.549V42.8H136.069V53.2Z" fill="#252840"/>
<path d="M107.393 64.48V46H111.033V42.4H114.633V38.76H118.713V42.4H122.313V46H125.993V64.48H121.913V57.24H111.433V64.48H107.393ZM111.433 53.2H121.913V46.4H118.313V42.8H115.033V46.4H111.433V53.2Z" fill="#252840"/>
<path d="M64.14 64.48V60.88H60.5V56.84H64.54V60.48H75.02V53.6H64.14V50H60.5V42.4H64.14V38.76H75.42V42.4H79.1V46.4H75.02V42.8H64.54V49.64H75.42V53.2H79.1V60.88H75.42V64.48H64.14Z" fill="#252840"/>
<path fill-rule="evenodd" clip-rule="evenodd" d="M131.529 64.98V41.9H135.169V38.26H147.449V41.9H151.129V54.1H147.449V57.74H145.689V59.98H149.289V64.98H144.289V61.38H140.609V57.74H136.569V64.98H131.529ZM136.069 57.24H141.109V60.88H144.789V64.48H148.789V60.48H145.189V57.24H146.949V53.6H150.629V42.4H146.949V38.76H135.669V42.4H132.029V64.48H136.069V57.24ZM136.069 53.2H146.549V42.8H136.069V53.2ZM136.569 43.3V52.7H146.049V43.3H136.569Z" fill="#252840"/>
<path fill-rule="evenodd" clip-rule="evenodd" d="M106.893 64.98V45.5H110.533V41.9H114.133V38.26H119.213V41.9H122.813V45.5H126.493V64.98H121.413V57.74H111.933V64.98H106.893ZM111.433 57.24H121.913V64.48H125.993V46H122.313V42.4H118.713V38.76H114.633V42.4H111.033V46H107.393V64.48H111.433V57.24ZM111.433 53.2H121.913V46.4H118.313V42.8H115.033V46.4H111.433V53.2ZM111.933 46.9V52.7H121.413V46.9H117.813V43.3H115.533V46.9H111.933Z" fill="#252840"/>
<path fill-rule="evenodd" clip-rule="evenodd" d="M63.64 64.98V61.38H60V56.34H65.04V59.98H74.52V54.1H63.64V50.5H60V41.9H63.64V38.26H75.92V41.9H79.6V46.9H74.52V43.3H65.04V49.14H75.92V52.7H79.6V61.38H75.92V64.98H63.64ZM75.42 60.88H79.1V53.2H75.42V49.64H64.54V42.8H75.02V46.4H79.1V42.4H75.42V38.76H64.14V42.4H60.5V50H64.14V53.6H75.02V60.48H64.54V56.84H60.5V60.88H64.14V64.48H75.42V60.88Z" fill="#252840"/>
<path fill-rule="evenodd" clip-rule="evenodd" d="M91.0996 38H84.0996V43H91.0996V65H96.0996V43H103.1V38H96.0996H91.0996Z" fill="#252840"/>
<path fill-rule="evenodd" clip-rule="evenodd" d="M162.1 38H155.1V43H162.1V65H167.1V43H174.1V38H167.1H162.1Z" fill="#252840"/>
<rect x="18" y="10" width="8" height="8" fill="white"/>
<rect x="10" y="18" width="8" height="8" fill="white"/>
<rect x="26" y="10" width="8" height="8" fill="white"/>
<rect x="34" y="10" width="8" height="8" fill="white"/>
<rect x="19" y="84" width="198" height="8" fill="#EC9345"/>
<rect x="217" y="76" width="8" height="8" fill="#EC9345"/>
<rect x="10" y="76" width="8" height="8" fill="#EC9345"/>
<rect x="193" y="76" width="8" height="8" fill="white" fill-opacity="0.5"/>
<rect opacity="0.5" x="217" y="68" width="8" height="8" fill="white"/>
<rect opacity="0.5" x="217" y="60" width="8" height="8" fill="white"/>
<rect x="201" y="76" width="8" height="8" fill="white" fill-opacity="0.5"/>
<rect x="209" y="76" width="8" height="8" fill="white" fill-opacity="0.5"/>
</svg>
