<svg width="235" height="102" viewBox="0 0 235 102" fill="none" xmlns="http://www.w3.org/2000/svg">
<mask id="path-1-inside-1_6_2649" fill="white">
<path fill-rule="evenodd" clip-rule="evenodd" d="M8.66359 0H226.336V8H235V94H226.336V102H8.66359V94H0V8H8.66359V0Z"/>
</mask>
<path fill-rule="evenodd" clip-rule="evenodd" d="M8.66359 0H226.336V8H235V94H226.336V102H8.66359V94H0V8H8.66359V0Z" fill="#F9D22B"/>
<path d="M226.336 0H236.336V-10H226.336V0ZM8.66359 0V-10H-1.33641V0H8.66359ZM226.336 8H216.336V18H226.336V8ZM235 8H245V-2H235V8ZM235 94V104H245V94H235ZM226.336 94V84H216.336V94H226.336ZM226.336 102V112H236.336V102H226.336ZM8.66359 102H-1.33641V112H8.66359V102ZM8.66359 94H18.6636V84H8.66359V94ZM0 94H-10V104H0V94ZM0 8V-2H-10V8H0ZM8.66359 8V18H18.6636V8H8.66359ZM226.336 -10H8.66359V10H226.336V-10ZM236.336 8V0H216.336V8H236.336ZM235 -2H226.336V18H235V-2ZM245 94V8H225V94H245ZM226.336 104H235V84H226.336V104ZM236.336 102V94H216.336V102H236.336ZM8.66359 112H226.336V92H8.66359V112ZM-1.33641 94V102H18.6636V94H-1.33641ZM0 104H8.66359V84H0V104ZM-10 8V94H10V8H-10ZM8.66359 -2H0V18H8.66359V-2ZM-1.33641 0V8H18.6636V0H-1.33641Z" fill="#252840" mask="url(#path-1-inside-1_6_2649)"/>
<rect x="18" y="10" width="8" height="8" fill="white"/>
<rect x="10" y="18" width="8" height="8" fill="white"/>
<rect x="26" y="10" width="8" height="8" fill="white"/>
<rect x="34" y="10" width="8" height="8" fill="white"/>
<rect x="19" y="84" width="198" height="8" fill="#EC9345"/>
<rect x="217" y="76" width="8" height="8" fill="#EC9345"/>
<rect x="10" y="76" width="8" height="8" fill="#EC9345"/>
<rect x="193" y="76" width="8" height="8" fill="white" fill-opacity="0.5"/>
<rect opacity="0.5" x="217" y="68" width="8" height="8" fill="white"/>
<rect opacity="0.5" x="217" y="60" width="8" height="8" fill="white"/>
<rect x="201" y="76" width="8" height="8" fill="white" fill-opacity="0.5"/>
<rect x="209" y="76" width="8" height="8" fill="white" fill-opacity="0.5"/>
<path d="M192.604 63.48V59.88H188.964V37.76H193.004V59.48H203.484V55.84H207.564V59.88H203.884V63.48H192.604Z" fill="#252840"/>
<path d="M164.326 63.48V45H167.966V41.4H171.566V37.76H175.646V41.4H179.246V45H182.926V63.48H178.846V56.24H168.366V63.48H164.326ZM168.366 52.2H178.846V45.4H175.246V41.8H171.966V45.4H168.366V52.2Z" fill="#252840"/>
<path d="M146.955 63.48V59.48H150.595V41.8H146.955V37.76H158.275V41.8H154.595V59.48H158.275V63.48H146.955Z" fill="#252840"/>
<path d="M122.317 63.48V41.4H125.957V37.76H137.237V41.4H140.917V52.6H137.237V56.24H135.477V59.48H139.077V63.48H135.077V59.88H131.397V56.24H126.357V63.48H122.317ZM126.357 52.2H136.837V41.8H126.357V52.2Z" fill="#252840"/>
<path d="M101.32 63.48V59.88H97.6797V41.4H101.32V37.76H112.6V41.4H116.28V59.88H112.6V63.48H101.32ZM101.72 59.48H112.2V41.8H101.72V59.48Z" fill="#252840"/>
<path d="M54.4662 63.48V59.88H50.8262V37.76H54.8662V59.48H65.3462V37.76H69.4262V59.88H65.7462V63.48H54.4662Z" fill="#252840"/>
<path fill-rule="evenodd" clip-rule="evenodd" d="M192.104 63.98V60.38H188.464V37.26H193.504V58.98H202.984V55.34H208.064V60.38H204.384V63.98H192.104ZM203.884 59.88H207.564V55.84H203.484V59.48H193.004V37.76H188.964V59.88H192.604V63.48H203.884V59.88Z" fill="#252840"/>
<path fill-rule="evenodd" clip-rule="evenodd" d="M163.826 63.98V44.5H167.466V40.9H171.066V37.26H176.146V40.9H179.746V44.5H183.426V63.98H178.346V56.74H168.866V63.98H163.826ZM168.366 56.24H178.846V63.48H182.926V45H179.246V41.4H175.646V37.76H171.566V41.4H167.966V45H164.326V63.48H168.366V56.24ZM168.366 52.2H178.846V45.4H175.246V41.8H171.966V45.4H168.366V52.2ZM168.866 45.9V51.7H178.346V45.9H174.746V42.3H172.466V45.9H168.866Z" fill="#252840"/>
<path fill-rule="evenodd" clip-rule="evenodd" d="M146.455 63.98V58.98H150.095V42.3H146.455V37.26H158.775V42.3H155.095V58.98H158.775V63.98H146.455ZM154.595 59.48V41.8H158.275V37.76H146.955V41.8H150.595V59.48H146.955V63.48H158.275V59.48H154.595Z" fill="#252840"/>
<path fill-rule="evenodd" clip-rule="evenodd" d="M121.817 63.98V40.9H125.457V37.26H137.737V40.9H141.417V53.1H137.737V56.74H135.977V58.98H139.577V63.98H134.577V60.38H130.897V56.74H126.857V63.98H121.817ZM126.357 56.24H131.397V59.88H135.077V63.48H139.077V59.48H135.477V56.24H137.237V52.6H140.917V41.4H137.237V37.76H125.957V41.4H122.317V63.48H126.357V56.24ZM126.357 52.2H136.837V41.8H126.357V52.2ZM126.857 42.3V51.7H136.337V42.3H126.857Z" fill="#252840"/>
<path fill-rule="evenodd" clip-rule="evenodd" d="M100.82 63.98V60.38H97.1797V40.9H100.82V37.26H113.1V40.9H116.78V60.38H113.1V63.98H100.82ZM112.6 59.88H116.28V41.4H112.6V37.76H101.32V41.4H97.6797V59.88H101.32V63.48H112.6V59.88ZM112.2 59.48V41.8H101.72V59.48H112.2ZM111.7 58.98V42.3H102.22V58.98H111.7Z" fill="#252840"/>
<path fill-rule="evenodd" clip-rule="evenodd" d="M53.9662 63.98V60.38H50.3262V37.26H55.3662V58.98H64.8462V37.26H69.9262V60.38H66.2462V63.98H53.9662ZM65.7462 59.88H69.4262V37.76H65.3462V59.48H54.8662V37.76H50.8262V59.88H54.4662V63.48H65.7462V59.88Z" fill="#252840"/>
<path fill-rule="evenodd" clip-rule="evenodd" d="M81 37H74V42H81V64H86V42H93V37H86H81Z" fill="#252840"/>
<path fill-rule="evenodd" clip-rule="evenodd" d="M34 37H27V42H34V64H39V42H46V37H39H34Z" fill="#252840"/>
</svg>
