<svg width="1291" height="105" viewBox="0 0 1291 105" fill="none" xmlns="http://www.w3.org/2000/svg">
<rect width="1291" height="103" fill="white"/>
<mask id="path-1-outside-1_6_1904" maskUnits="userSpaceOnUse" x="134" y="27.7908" width="835" height="46" fill="black">
<rect fill="white" x="134" y="27.7908" width="835" height="46"/>
<path d="M145.953 61.7908V36.2326H135V32.5815H160.558V36.2326H149.605V61.7908H145.953ZM164.793 58.1396V50.8373H168.445V58.1396H164.793ZM168.445 61.7908V58.1396H179.398V50.8373H168.445V47.1861H179.398V43.535H183.049V61.7908H168.445ZM168.445 43.535V39.8838H179.398V43.535H168.445ZM205.54 58.1396V43.535H209.192V58.1396H205.54ZM190.936 72.7443V39.8838H205.54V43.535H194.587V58.1396H205.54V61.7908H194.587V72.7443H190.936ZM250.523 61.7908V58.1396H261.476V61.7908H250.523ZM246.872 58.1396V32.5815H250.523V39.8838H261.476V43.535H250.523V58.1396H246.872ZM283.967 61.7908V43.535H287.619V61.7908H283.967ZM269.363 61.7908V28.9303H273.014V39.8838H283.967V43.535H273.014V61.7908H269.363ZM299.156 61.7908V58.1396H310.11V61.7908H299.156ZM310.11 58.1396V54.4884H313.761V58.1396H310.11ZM295.505 58.1396V43.535H299.156V47.1861H310.11V43.535H313.761V50.8373H299.156V58.1396H295.505ZM299.156 43.535V39.8838H310.11V43.535H299.156ZM347.79 61.7908V58.1396H362.394V61.7908H347.79ZM362.394 58.1396V54.4884H366.046V58.1396H362.394ZM358.743 54.4884V50.8373H362.394V54.4884H358.743ZM351.441 50.8373V47.1861H358.743V50.8373H351.441ZM347.79 47.1861V43.535H351.441V47.1861H347.79ZM351.441 43.535V39.8838H366.046V43.535H351.441ZM377.583 61.7908V58.1396H388.537V61.7908H377.583ZM388.537 58.1396V54.4884H392.188V58.1396H388.537ZM373.932 58.1396V43.535H377.583V58.1396H373.932ZM388.537 47.1861V43.535H392.188V47.1861H388.537ZM377.583 43.535V39.8838H388.537V43.535H377.583ZM414.679 47.1861V43.535H418.33V47.1861H414.679ZM400.074 61.7908V39.8838H403.726V43.535H407.377V47.1861H403.726V61.7908H400.074ZM407.377 43.535V39.8838H414.679V43.535H407.377ZM429.868 61.7908V58.1396H440.821V61.7908H429.868ZM440.821 58.1396V54.4884H444.473V58.1396H440.821ZM426.217 58.1396V43.535H429.868V47.1861H440.821V43.535H444.473V50.8373H429.868V58.1396H426.217ZM429.868 43.535V39.8838H440.821V43.535H429.868ZM456.01 61.7908V58.1396H466.964V61.7908H456.01ZM466.964 58.1396V54.4884H470.615V58.1396H466.964ZM452.359 58.1396V43.535H456.01V47.1861H466.964V43.535H470.615V50.8373H456.01V58.1396H452.359ZM456.01 43.535V39.8838H466.964V43.535H456.01ZM493.106 61.7908V43.535H496.757V61.7908H493.106ZM478.501 61.7908V39.8838H493.106V43.535H482.153V61.7908H478.501ZM538.088 61.7908V58.1396H549.042V61.7908H538.088ZM534.437 58.1396V32.5815H538.088V39.8838H549.042V43.535H538.088V58.1396H534.437ZM560.58 61.7908V58.1396H571.533V61.7908H560.58ZM556.928 58.1396V43.535H560.58V58.1396H556.928ZM571.533 58.1396V43.535H575.184V58.1396H571.533ZM560.58 43.535V39.8838H571.533V43.535H560.58ZM616.515 61.7908V43.535H620.167V61.7908H616.515ZM623.818 61.7908V43.535H627.469V61.7908H623.818ZM609.213 61.7908V39.8838H616.515V43.535H612.864V61.7908H609.213ZM620.167 43.535V39.8838H623.818V43.535H620.167ZM635.355 58.1396V50.8373H639.007V58.1396H635.355ZM639.007 61.7908V58.1396H649.96V50.8373H639.007V47.1861H649.96V43.535H653.611V61.7908H639.007ZM639.007 43.535V39.8838H649.96V43.535H639.007ZM676.102 61.7908V58.1396H679.754V61.7908H676.102ZM672.451 58.1396V54.4884H676.102V58.1396H672.451ZM672.451 47.1861V43.535H676.102V47.1861H672.451ZM676.102 43.535V39.8838H679.754V43.535H676.102ZM661.498 61.7908V28.9303H665.149V50.8373H668.8V47.1861H672.451V54.4884H665.149V61.7908H661.498ZM691.291 61.7908V58.1396H702.245V61.7908H691.291ZM702.245 58.1396V54.4884H705.896V58.1396H702.245ZM687.64 58.1396V43.535H691.291V47.1861H702.245V43.535H705.896V50.8373H691.291V58.1396H687.64ZM691.291 43.535V39.8838H702.245V43.535H691.291ZM754.529 47.1861V36.2326H758.181V47.1861H754.529ZM739.925 61.7908V32.5815H754.529V36.2326H743.576V47.1861H754.529V50.8373H743.576V61.7908H739.925ZM769.718 61.7908V58.1396H780.672V61.7908H769.718ZM780.672 58.1396V54.4884H784.323V58.1396H780.672ZM766.067 58.1396V43.535H769.718V47.1861H780.672V43.535H784.323V50.8373H769.718V58.1396H766.067ZM769.718 43.535V39.8838H780.672V43.535H769.718ZM806.814 47.1861V43.535H810.465V47.1861H806.814ZM792.209 61.7908V39.8838H795.86V43.535H799.512V47.1861H795.86V61.7908H792.209ZM799.512 43.535V39.8838H806.814V43.535H799.512ZM818.352 61.7908V58.1396H832.956V61.7908H818.352ZM832.956 58.1396V54.4884H836.607V58.1396H832.956ZM829.305 54.4884V50.8373H832.956V54.4884H829.305ZM822.003 50.8373V47.1861H829.305V50.8373H822.003ZM818.352 47.1861V43.535H822.003V47.1861H818.352ZM822.003 43.535V39.8838H836.607V43.535H822.003ZM870.636 69.0931V65.4419H881.59V69.0931H870.636ZM881.59 65.4419V43.535H877.939V39.8838H885.241V65.4419H881.59ZM881.59 32.5815V28.9303H885.241V32.5815H881.59ZM896.779 58.1396V39.8838H900.43V58.1396H896.779ZM900.43 61.7908V58.1396H911.383V39.8838H915.034V61.7908H900.43ZM930.223 61.7908V43.535H933.874V61.7908H930.223ZM937.526 61.7908V43.535H941.177V61.7908H937.526ZM922.921 61.7908V39.8838H930.223V43.535H926.572V61.7908H922.921ZM933.874 43.535V39.8838H937.526V43.535H933.874ZM963.668 58.1396V43.535H967.319V58.1396H963.668ZM949.063 72.7443V39.8838H963.668V43.535H952.714V58.1396H963.668V61.7908H952.714V72.7443H949.063Z"/>
</mask>
<path d="M145.953 61.7908V36.2326H135V32.5815H160.558V36.2326H149.605V61.7908H145.953ZM164.793 58.1396V50.8373H168.445V58.1396H164.793ZM168.445 61.7908V58.1396H179.398V50.8373H168.445V47.1861H179.398V43.535H183.049V61.7908H168.445ZM168.445 43.535V39.8838H179.398V43.535H168.445ZM205.54 58.1396V43.535H209.192V58.1396H205.54ZM190.936 72.7443V39.8838H205.54V43.535H194.587V58.1396H205.54V61.7908H194.587V72.7443H190.936ZM250.523 61.7908V58.1396H261.476V61.7908H250.523ZM246.872 58.1396V32.5815H250.523V39.8838H261.476V43.535H250.523V58.1396H246.872ZM283.967 61.7908V43.535H287.619V61.7908H283.967ZM269.363 61.7908V28.9303H273.014V39.8838H283.967V43.535H273.014V61.7908H269.363ZM299.156 61.7908V58.1396H310.11V61.7908H299.156ZM310.11 58.1396V54.4884H313.761V58.1396H310.11ZM295.505 58.1396V43.535H299.156V47.1861H310.11V43.535H313.761V50.8373H299.156V58.1396H295.505ZM299.156 43.535V39.8838H310.11V43.535H299.156ZM347.79 61.7908V58.1396H362.394V61.7908H347.79ZM362.394 58.1396V54.4884H366.046V58.1396H362.394ZM358.743 54.4884V50.8373H362.394V54.4884H358.743ZM351.441 50.8373V47.1861H358.743V50.8373H351.441ZM347.79 47.1861V43.535H351.441V47.1861H347.79ZM351.441 43.535V39.8838H366.046V43.535H351.441ZM377.583 61.7908V58.1396H388.537V61.7908H377.583ZM388.537 58.1396V54.4884H392.188V58.1396H388.537ZM373.932 58.1396V43.535H377.583V58.1396H373.932ZM388.537 47.1861V43.535H392.188V47.1861H388.537ZM377.583 43.535V39.8838H388.537V43.535H377.583ZM414.679 47.1861V43.535H418.33V47.1861H414.679ZM400.074 61.7908V39.8838H403.726V43.535H407.377V47.1861H403.726V61.7908H400.074ZM407.377 43.535V39.8838H414.679V43.535H407.377ZM429.868 61.7908V58.1396H440.821V61.7908H429.868ZM440.821 58.1396V54.4884H444.473V58.1396H440.821ZM426.217 58.1396V43.535H429.868V47.1861H440.821V43.535H444.473V50.8373H429.868V58.1396H426.217ZM429.868 43.535V39.8838H440.821V43.535H429.868ZM456.01 61.7908V58.1396H466.964V61.7908H456.01ZM466.964 58.1396V54.4884H470.615V58.1396H466.964ZM452.359 58.1396V43.535H456.01V47.1861H466.964V43.535H470.615V50.8373H456.01V58.1396H452.359ZM456.01 43.535V39.8838H466.964V43.535H456.01ZM493.106 61.7908V43.535H496.757V61.7908H493.106ZM478.501 61.7908V39.8838H493.106V43.535H482.153V61.7908H478.501ZM538.088 61.7908V58.1396H549.042V61.7908H538.088ZM534.437 58.1396V32.5815H538.088V39.8838H549.042V43.535H538.088V58.1396H534.437ZM560.58 61.7908V58.1396H571.533V61.7908H560.58ZM556.928 58.1396V43.535H560.58V58.1396H556.928ZM571.533 58.1396V43.535H575.184V58.1396H571.533ZM560.58 43.535V39.8838H571.533V43.535H560.58ZM616.515 61.7908V43.535H620.167V61.7908H616.515ZM623.818 61.7908V43.535H627.469V61.7908H623.818ZM609.213 61.7908V39.8838H616.515V43.535H612.864V61.7908H609.213ZM620.167 43.535V39.8838H623.818V43.535H620.167ZM635.355 58.1396V50.8373H639.007V58.1396H635.355ZM639.007 61.7908V58.1396H649.96V50.8373H639.007V47.1861H649.96V43.535H653.611V61.7908H639.007ZM639.007 43.535V39.8838H649.96V43.535H639.007ZM676.102 61.7908V58.1396H679.754V61.7908H676.102ZM672.451 58.1396V54.4884H676.102V58.1396H672.451ZM672.451 47.1861V43.535H676.102V47.1861H672.451ZM676.102 43.535V39.8838H679.754V43.535H676.102ZM661.498 61.7908V28.9303H665.149V50.8373H668.8V47.1861H672.451V54.4884H665.149V61.7908H661.498ZM691.291 61.7908V58.1396H702.245V61.7908H691.291ZM702.245 58.1396V54.4884H705.896V58.1396H702.245ZM687.64 58.1396V43.535H691.291V47.1861H702.245V43.535H705.896V50.8373H691.291V58.1396H687.64ZM691.291 43.535V39.8838H702.245V43.535H691.291ZM754.529 47.1861V36.2326H758.181V47.1861H754.529ZM739.925 61.7908V32.5815H754.529V36.2326H743.576V47.1861H754.529V50.8373H743.576V61.7908H739.925ZM769.718 61.7908V58.1396H780.672V61.7908H769.718ZM780.672 58.1396V54.4884H784.323V58.1396H780.672ZM766.067 58.1396V43.535H769.718V47.1861H780.672V43.535H784.323V50.8373H769.718V58.1396H766.067ZM769.718 43.535V39.8838H780.672V43.535H769.718ZM806.814 47.1861V43.535H810.465V47.1861H806.814ZM792.209 61.7908V39.8838H795.86V43.535H799.512V47.1861H795.86V61.7908H792.209ZM799.512 43.535V39.8838H806.814V43.535H799.512ZM818.352 61.7908V58.1396H832.956V61.7908H818.352ZM832.956 58.1396V54.4884H836.607V58.1396H832.956ZM829.305 54.4884V50.8373H832.956V54.4884H829.305ZM822.003 50.8373V47.1861H829.305V50.8373H822.003ZM818.352 47.1861V43.535H822.003V47.1861H818.352ZM822.003 43.535V39.8838H836.607V43.535H822.003ZM870.636 69.0931V65.4419H881.59V69.0931H870.636ZM881.59 65.4419V43.535H877.939V39.8838H885.241V65.4419H881.59ZM881.59 32.5815V28.9303H885.241V32.5815H881.59ZM896.779 58.1396V39.8838H900.43V58.1396H896.779ZM900.43 61.7908V58.1396H911.383V39.8838H915.034V61.7908H900.43ZM930.223 61.7908V43.535H933.874V61.7908H930.223ZM937.526 61.7908V43.535H941.177V61.7908H937.526ZM922.921 61.7908V39.8838H930.223V43.535H926.572V61.7908H922.921ZM933.874 43.535V39.8838H937.526V43.535H933.874ZM963.668 58.1396V43.535H967.319V58.1396H963.668ZM949.063 72.7443V39.8838H963.668V43.535H952.714V58.1396H963.668V61.7908H952.714V72.7443H949.063Z" fill="#252840"/>
<path d="M145.953 61.7908H145.223V62.521H145.953V61.7908ZM145.953 36.2326H146.684V35.5024H145.953V36.2326ZM135 36.2326H134.27V36.9629H135V36.2326ZM135 32.5815V31.8512H134.27V32.5815H135ZM160.558 32.5815H161.288V31.8512H160.558V32.5815ZM160.558 36.2326V36.9629H161.288V36.2326H160.558ZM149.605 36.2326V35.5024H148.874V36.2326H149.605ZM149.605 61.7908V62.521H150.335V61.7908H149.605ZM146.684 61.7908V36.2326H145.223V61.7908H146.684ZM145.953 35.5024H135V36.9629H145.953V35.5024ZM135.73 36.2326V32.5815H134.27V36.2326H135.73ZM135 33.3117H160.558V31.8512H135V33.3117ZM159.828 32.5815V36.2326H161.288V32.5815H159.828ZM160.558 35.5024H149.605V36.9629H160.558V35.5024ZM148.874 36.2326V61.7908H150.335V36.2326H148.874ZM149.605 61.0605H145.953V62.521H149.605V61.0605ZM164.793 58.1396H164.063V58.8698H164.793V58.1396ZM164.793 50.8373V50.107H164.063V50.8373H164.793ZM168.445 50.8373H169.175V50.107H168.445V50.8373ZM168.445 58.1396V58.8698H169.175V58.1396H168.445ZM168.445 61.7908H167.714V62.521H168.445V61.7908ZM168.445 58.1396V57.4094H167.714V58.1396H168.445ZM179.398 58.1396V58.8698H180.128V58.1396H179.398ZM179.398 50.8373H180.128V50.107H179.398V50.8373ZM168.445 50.8373H167.714V51.5675H168.445V50.8373ZM168.445 47.1861V46.4559H167.714V47.1861H168.445ZM179.398 47.1861V47.9164H180.128V47.1861H179.398ZM179.398 43.535V42.8047H178.668V43.535H179.398ZM183.049 43.535H183.78V42.8047H183.049V43.535ZM183.049 61.7908V62.521H183.78V61.7908H183.049ZM168.445 43.535H167.714V44.2652H168.445V43.535ZM168.445 39.8838V39.1536H167.714V39.8838H168.445ZM179.398 39.8838H180.128V39.1536H179.398V39.8838ZM179.398 43.535V44.2652H180.128V43.535H179.398ZM165.524 58.1396V50.8373H164.063V58.1396H165.524ZM164.793 51.5675H168.445V50.107H164.793V51.5675ZM167.714 50.8373V58.1396H169.175V50.8373H167.714ZM168.445 57.4094H164.793V58.8698H168.445V57.4094ZM169.175 61.7908V58.1396H167.714V61.7908H169.175ZM168.445 58.8698H179.398V57.4094H168.445V58.8698ZM180.128 58.1396V50.8373H178.668V58.1396H180.128ZM179.398 50.107H168.445V51.5675H179.398V50.107ZM169.175 50.8373V47.1861H167.714V50.8373H169.175ZM168.445 47.9164H179.398V46.4559H168.445V47.9164ZM180.128 47.1861V43.535H178.668V47.1861H180.128ZM179.398 44.2652H183.049V42.8047H179.398V44.2652ZM182.319 43.535V61.7908H183.78V43.535H182.319ZM183.049 61.0605H168.445V62.521H183.049V61.0605ZM169.175 43.535V39.8838H167.714V43.535H169.175ZM168.445 40.614H179.398V39.1536H168.445V40.614ZM178.668 39.8838V43.535H180.128V39.8838H178.668ZM179.398 42.8047H168.445V44.2652H179.398V42.8047ZM205.54 58.1396H204.81V58.8698H205.54V58.1396ZM205.54 43.535V42.8047H204.81V43.535H205.54ZM209.192 43.535H209.922V42.8047H209.192V43.535ZM209.192 58.1396V58.8698H209.922V58.1396H209.192ZM190.936 72.7443H190.206V73.4745H190.936V72.7443ZM190.936 39.8838V39.1536H190.206V39.8838H190.936ZM205.54 39.8838H206.271V39.1536H205.54V39.8838ZM205.54 43.535V44.2652H206.271V43.535H205.54ZM194.587 43.535V42.8047H193.857V43.535H194.587ZM194.587 58.1396H193.857V58.8698H194.587V58.1396ZM205.54 58.1396H206.271V57.4094H205.54V58.1396ZM205.54 61.7908V62.521H206.271V61.7908H205.54ZM194.587 61.7908V61.0605H193.857V61.7908H194.587ZM194.587 72.7443V73.4745H195.317V72.7443H194.587ZM206.271 58.1396V43.535H204.81V58.1396H206.271ZM205.54 44.2652H209.192V42.8047H205.54V44.2652ZM208.461 43.535V58.1396H209.922V43.535H208.461ZM209.192 57.4094H205.54V58.8698H209.192V57.4094ZM191.666 72.7443V39.8838H190.206V72.7443H191.666ZM190.936 40.614H205.54V39.1536H190.936V40.614ZM204.81 39.8838V43.535H206.271V39.8838H204.81ZM205.54 42.8047H194.587V44.2652H205.54V42.8047ZM193.857 43.535V58.1396H195.317V43.535H193.857ZM194.587 58.8698H205.54V57.4094H194.587V58.8698ZM204.81 58.1396V61.7908H206.271V58.1396H204.81ZM205.54 61.0605H194.587V62.521H205.54V61.0605ZM193.857 61.7908V72.7443H195.317V61.7908H193.857ZM194.587 72.014H190.936V73.4745H194.587V72.014ZM250.523 61.7908H249.793V62.521H250.523V61.7908ZM250.523 58.1396V57.4094H249.793V58.1396H250.523ZM261.476 58.1396H262.207V57.4094H261.476V58.1396ZM261.476 61.7908V62.521H262.207V61.7908H261.476ZM246.872 58.1396H246.141V58.8698H246.872V58.1396ZM246.872 32.5815V31.8512H246.141V32.5815H246.872ZM250.523 32.5815H251.253V31.8512H250.523V32.5815ZM250.523 39.8838H249.793V40.614H250.523V39.8838ZM261.476 39.8838H262.207V39.1536H261.476V39.8838ZM261.476 43.535V44.2652H262.207V43.535H261.476ZM250.523 43.535V42.8047H249.793V43.535H250.523ZM250.523 58.1396V58.8698H251.253V58.1396H250.523ZM251.253 61.7908V58.1396H249.793V61.7908H251.253ZM250.523 58.8698H261.476V57.4094H250.523V58.8698ZM260.746 58.1396V61.7908H262.207V58.1396H260.746ZM261.476 61.0605H250.523V62.521H261.476V61.0605ZM247.602 58.1396V32.5815H246.141V58.1396H247.602ZM246.872 33.3117H250.523V31.8512H246.872V33.3117ZM249.793 32.5815V39.8838H251.253V32.5815H249.793ZM250.523 40.614H261.476V39.1536H250.523V40.614ZM260.746 39.8838V43.535H262.207V39.8838H260.746ZM261.476 42.8047H250.523V44.2652H261.476V42.8047ZM249.793 43.535V58.1396H251.253V43.535H249.793ZM250.523 57.4094H246.872V58.8698H250.523V57.4094ZM283.967 61.7908H283.237V62.521H283.967V61.7908ZM283.967 43.535V42.8047H283.237V43.535H283.967ZM287.619 43.535H288.349V42.8047H287.619V43.535ZM287.619 61.7908V62.521H288.349V61.7908H287.619ZM269.363 61.7908H268.633V62.521H269.363V61.7908ZM269.363 28.9303V28.2001H268.633V28.9303H269.363ZM273.014 28.9303H273.744V28.2001H273.014V28.9303ZM273.014 39.8838H272.284V40.614H273.014V39.8838ZM283.967 39.8838H284.698V39.1536H283.967V39.8838ZM283.967 43.535V44.2652H284.698V43.535H283.967ZM273.014 43.535V42.8047H272.284V43.535H273.014ZM273.014 61.7908V62.521H273.744V61.7908H273.014ZM284.698 61.7908V43.535H283.237V61.7908H284.698ZM283.967 44.2652H287.619V42.8047H283.967V44.2652ZM286.888 43.535V61.7908H288.349V43.535H286.888ZM287.619 61.0605H283.967V62.521H287.619V61.0605ZM270.093 61.7908V28.9303H268.633V61.7908H270.093ZM269.363 29.6605H273.014V28.2001H269.363V29.6605ZM272.284 28.9303V39.8838H273.744V28.9303H272.284ZM273.014 40.614H283.967V39.1536H273.014V40.614ZM283.237 39.8838V43.535H284.698V39.8838H283.237ZM283.967 42.8047H273.014V44.2652H283.967V42.8047ZM272.284 43.535V61.7908H273.744V43.535H272.284ZM273.014 61.0605H269.363V62.521H273.014V61.0605ZM299.156 61.7908H298.426V62.521H299.156V61.7908ZM299.156 58.1396V57.4094H298.426V58.1396H299.156ZM310.11 58.1396H310.84V57.4094H310.11V58.1396ZM310.11 61.7908V62.521H310.84V61.7908H310.11ZM310.11 58.1396H309.38V58.8698H310.11V58.1396ZM310.11 54.4884V53.7582H309.38V54.4884H310.11ZM313.761 54.4884H314.491V53.7582H313.761V54.4884ZM313.761 58.1396V58.8698H314.491V58.1396H313.761ZM295.505 58.1396H294.775V58.8698H295.505V58.1396ZM295.505 43.535V42.8047H294.775V43.535H295.505ZM299.156 43.535H299.887V42.8047H299.156V43.535ZM299.156 47.1861H298.426V47.9164H299.156V47.1861ZM310.11 47.1861V47.9164H310.84V47.1861H310.11ZM310.11 43.535V42.8047H309.38V43.535H310.11ZM313.761 43.535H314.491V42.8047H313.761V43.535ZM313.761 50.8373V51.5675H314.491V50.8373H313.761ZM299.156 50.8373V50.107H298.426V50.8373H299.156ZM299.156 58.1396V58.8698H299.887V58.1396H299.156ZM299.156 43.535H298.426V44.2652H299.156V43.535ZM299.156 39.8838V39.1536H298.426V39.8838H299.156ZM310.11 39.8838H310.84V39.1536H310.11V39.8838ZM310.11 43.535V44.2652H310.84V43.535H310.11ZM299.887 61.7908V58.1396H298.426V61.7908H299.887ZM299.156 58.8698H310.11V57.4094H299.156V58.8698ZM309.38 58.1396V61.7908H310.84V58.1396H309.38ZM310.11 61.0605H299.156V62.521H310.11V61.0605ZM310.84 58.1396V54.4884H309.38V58.1396H310.84ZM310.11 55.2187H313.761V53.7582H310.11V55.2187ZM313.031 54.4884V58.1396H314.491V54.4884H313.031ZM313.761 57.4094H310.11V58.8698H313.761V57.4094ZM296.235 58.1396V43.535H294.775V58.1396H296.235ZM295.505 44.2652H299.156V42.8047H295.505V44.2652ZM298.426 43.535V47.1861H299.887V43.535H298.426ZM299.156 47.9164H310.11V46.4559H299.156V47.9164ZM310.84 47.1861V43.535H309.38V47.1861H310.84ZM310.11 44.2652H313.761V42.8047H310.11V44.2652ZM313.031 43.535V50.8373H314.491V43.535H313.031ZM313.761 50.107H299.156V51.5675H313.761V50.107ZM298.426 50.8373V58.1396H299.887V50.8373H298.426ZM299.156 57.4094H295.505V58.8698H299.156V57.4094ZM299.887 43.535V39.8838H298.426V43.535H299.887ZM299.156 40.614H310.11V39.1536H299.156V40.614ZM309.38 39.8838V43.535H310.84V39.8838H309.38ZM310.11 42.8047H299.156V44.2652H310.11V42.8047ZM347.79 61.7908H347.06V62.521H347.79V61.7908ZM347.79 58.1396V57.4094H347.06V58.1396H347.79ZM362.394 58.1396H363.125V57.4094H362.394V58.1396ZM362.394 61.7908V62.521H363.125V61.7908H362.394ZM362.394 58.1396H361.664V58.8698H362.394V58.1396ZM362.394 54.4884V53.7582H361.664V54.4884H362.394ZM366.046 54.4884H366.776V53.7582H366.046V54.4884ZM366.046 58.1396V58.8698H366.776V58.1396H366.046ZM358.743 54.4884H358.013V55.2187H358.743V54.4884ZM358.743 50.8373V50.107H358.013V50.8373H358.743ZM362.394 50.8373H363.125V50.107H362.394V50.8373ZM362.394 54.4884V55.2187H363.125V54.4884H362.394ZM351.441 50.8373H350.711V51.5675H351.441V50.8373ZM351.441 47.1861V46.4559H350.711V47.1861H351.441ZM358.743 47.1861H359.474V46.4559H358.743V47.1861ZM358.743 50.8373V51.5675H359.474V50.8373H358.743ZM347.79 47.1861H347.06V47.9164H347.79V47.1861ZM347.79 43.535V42.8047H347.06V43.535H347.79ZM351.441 43.535H352.171V42.8047H351.441V43.535ZM351.441 47.1861V47.9164H352.171V47.1861H351.441ZM351.441 43.535H350.711V44.2652H351.441V43.535ZM351.441 39.8838V39.1536H350.711V39.8838H351.441ZM366.046 39.8838H366.776V39.1536H366.046V39.8838ZM366.046 43.535V44.2652H366.776V43.535H366.046ZM348.52 61.7908V58.1396H347.06V61.7908H348.52ZM347.79 58.8698H362.394V57.4094H347.79V58.8698ZM361.664 58.1396V61.7908H363.125V58.1396H361.664ZM362.394 61.0605H347.79V62.521H362.394V61.0605ZM363.125 58.1396V54.4884H361.664V58.1396H363.125ZM362.394 55.2187H366.046V53.7582H362.394V55.2187ZM365.315 54.4884V58.1396H366.776V54.4884H365.315ZM366.046 57.4094H362.394V58.8698H366.046V57.4094ZM359.474 54.4884V50.8373H358.013V54.4884H359.474ZM358.743 51.5675H362.394V50.107H358.743V51.5675ZM361.664 50.8373V54.4884H363.125V50.8373H361.664ZM362.394 53.7582H358.743V55.2187H362.394V53.7582ZM352.171 50.8373V47.1861H350.711V50.8373H352.171ZM351.441 47.9164H358.743V46.4559H351.441V47.9164ZM358.013 47.1861V50.8373H359.474V47.1861H358.013ZM358.743 50.107H351.441V51.5675H358.743V50.107ZM348.52 47.1861V43.535H347.06V47.1861H348.52ZM347.79 44.2652H351.441V42.8047H347.79V44.2652ZM350.711 43.535V47.1861H352.171V43.535H350.711ZM351.441 46.4559H347.79V47.9164H351.441V46.4559ZM352.171 43.535V39.8838H350.711V43.535H352.171ZM351.441 40.614H366.046V39.1536H351.441V40.614ZM365.315 39.8838V43.535H366.776V39.8838H365.315ZM366.046 42.8047H351.441V44.2652H366.046V42.8047ZM377.583 61.7908H376.853V62.521H377.583V61.7908ZM377.583 58.1396V57.4094H376.853V58.1396H377.583ZM388.537 58.1396H389.267V57.4094H388.537V58.1396ZM388.537 61.7908V62.521H389.267V61.7908H388.537ZM388.537 58.1396H387.807V58.8698H388.537V58.1396ZM388.537 54.4884V53.7582H387.807V54.4884H388.537ZM392.188 54.4884H392.918V53.7582H392.188V54.4884ZM392.188 58.1396V58.8698H392.918V58.1396H392.188ZM373.932 58.1396H373.202V58.8698H373.932V58.1396ZM373.932 43.535V42.8047H373.202V43.535H373.932ZM377.583 43.535H378.314V42.8047H377.583V43.535ZM377.583 58.1396V58.8698H378.314V58.1396H377.583ZM388.537 47.1861H387.807V47.9164H388.537V47.1861ZM388.537 43.535V42.8047H387.807V43.535H388.537ZM392.188 43.535H392.918V42.8047H392.188V43.535ZM392.188 47.1861V47.9164H392.918V47.1861H392.188ZM377.583 43.535H376.853V44.2652H377.583V43.535ZM377.583 39.8838V39.1536H376.853V39.8838H377.583ZM388.537 39.8838H389.267V39.1536H388.537V39.8838ZM388.537 43.535V44.2652H389.267V43.535H388.537ZM378.314 61.7908V58.1396H376.853V61.7908H378.314ZM377.583 58.8698H388.537V57.4094H377.583V58.8698ZM387.807 58.1396V61.7908H389.267V58.1396H387.807ZM388.537 61.0605H377.583V62.521H388.537V61.0605ZM389.267 58.1396V54.4884H387.807V58.1396H389.267ZM388.537 55.2187H392.188V53.7582H388.537V55.2187ZM391.458 54.4884V58.1396H392.918V54.4884H391.458ZM392.188 57.4094H388.537V58.8698H392.188V57.4094ZM374.662 58.1396V43.535H373.202V58.1396H374.662ZM373.932 44.2652H377.583V42.8047H373.932V44.2652ZM376.853 43.535V58.1396H378.314V43.535H376.853ZM377.583 57.4094H373.932V58.8698H377.583V57.4094ZM389.267 47.1861V43.535H387.807V47.1861H389.267ZM388.537 44.2652H392.188V42.8047H388.537V44.2652ZM391.458 43.535V47.1861H392.918V43.535H391.458ZM392.188 46.4559H388.537V47.9164H392.188V46.4559ZM378.314 43.535V39.8838H376.853V43.535H378.314ZM377.583 40.614H388.537V39.1536H377.583V40.614ZM387.807 39.8838V43.535H389.267V39.8838H387.807ZM388.537 42.8047H377.583V44.2652H388.537V42.8047ZM414.679 47.1861H413.949V47.9164H414.679V47.1861ZM414.679 43.535V42.8047H413.949V43.535H414.679ZM418.33 43.535H419.06V42.8047H418.33V43.535ZM418.33 47.1861V47.9164H419.06V47.1861H418.33ZM400.074 61.7908H399.344V62.521H400.074V61.7908ZM400.074 39.8838V39.1536H399.344V39.8838H400.074ZM403.726 39.8838H404.456V39.1536H403.726V39.8838ZM403.726 43.535H402.995V44.2652H403.726V43.535ZM407.377 43.535H408.107V42.8047H407.377V43.535ZM407.377 47.1861V47.9164H408.107V47.1861H407.377ZM403.726 47.1861V46.4559H402.995V47.1861H403.726ZM403.726 61.7908V62.521H404.456V61.7908H403.726ZM407.377 43.535H406.647V44.2652H407.377V43.535ZM407.377 39.8838V39.1536H406.647V39.8838H407.377ZM414.679 39.8838H415.409V39.1536H414.679V39.8838ZM414.679 43.535V44.2652H415.409V43.535H414.679ZM415.409 47.1861V43.535H413.949V47.1861H415.409ZM414.679 44.2652H418.33V42.8047H414.679V44.2652ZM417.6 43.535V47.1861H419.06V43.535H417.6ZM418.33 46.4559H414.679V47.9164H418.33V46.4559ZM400.805 61.7908V39.8838H399.344V61.7908H400.805ZM400.074 40.614H403.726V39.1536H400.074V40.614ZM402.995 39.8838V43.535H404.456V39.8838H402.995ZM403.726 44.2652H407.377V42.8047H403.726V44.2652ZM406.647 43.535V47.1861H408.107V43.535H406.647ZM407.377 46.4559H403.726V47.9164H407.377V46.4559ZM402.995 47.1861V61.7908H404.456V47.1861H402.995ZM403.726 61.0605H400.074V62.521H403.726V61.0605ZM408.107 43.535V39.8838H406.647V43.535H408.107ZM407.377 40.614H414.679V39.1536H407.377V40.614ZM413.949 39.8838V43.535H415.409V39.8838H413.949ZM414.679 42.8047H407.377V44.2652H414.679V42.8047ZM429.868 61.7908H429.138V62.521H429.868V61.7908ZM429.868 58.1396V57.4094H429.138V58.1396H429.868ZM440.821 58.1396H441.552V57.4094H440.821V58.1396ZM440.821 61.7908V62.521H441.552V61.7908H440.821ZM440.821 58.1396H440.091V58.8698H440.821V58.1396ZM440.821 54.4884V53.7582H440.091V54.4884H440.821ZM444.473 54.4884H445.203V53.7582H444.473V54.4884ZM444.473 58.1396V58.8698H445.203V58.1396H444.473ZM426.217 58.1396H425.487V58.8698H426.217V58.1396ZM426.217 43.535V42.8047H425.487V43.535H426.217ZM429.868 43.535H430.598V42.8047H429.868V43.535ZM429.868 47.1861H429.138V47.9164H429.868V47.1861ZM440.821 47.1861V47.9164H441.552V47.1861H440.821ZM440.821 43.535V42.8047H440.091V43.535H440.821ZM444.473 43.535H445.203V42.8047H444.473V43.535ZM444.473 50.8373V51.5675H445.203V50.8373H444.473ZM429.868 50.8373V50.107H429.138V50.8373H429.868ZM429.868 58.1396V58.8698H430.598V58.1396H429.868ZM429.868 43.535H429.138V44.2652H429.868V43.535ZM429.868 39.8838V39.1536H429.138V39.8838H429.868ZM440.821 39.8838H441.552V39.1536H440.821V39.8838ZM440.821 43.535V44.2652H441.552V43.535H440.821ZM430.598 61.7908V58.1396H429.138V61.7908H430.598ZM429.868 58.8698H440.821V57.4094H429.868V58.8698ZM440.091 58.1396V61.7908H441.552V58.1396H440.091ZM440.821 61.0605H429.868V62.521H440.821V61.0605ZM441.552 58.1396V54.4884H440.091V58.1396H441.552ZM440.821 55.2187H444.473V53.7582H440.821V55.2187ZM443.742 54.4884V58.1396H445.203V54.4884H443.742ZM444.473 57.4094H440.821V58.8698H444.473V57.4094ZM426.947 58.1396V43.535H425.487V58.1396H426.947ZM426.217 44.2652H429.868V42.8047H426.217V44.2652ZM429.138 43.535V47.1861H430.598V43.535H429.138ZM429.868 47.9164H440.821V46.4559H429.868V47.9164ZM441.552 47.1861V43.535H440.091V47.1861H441.552ZM440.821 44.2652H444.473V42.8047H440.821V44.2652ZM443.742 43.535V50.8373H445.203V43.535H443.742ZM444.473 50.107H429.868V51.5675H444.473V50.107ZM429.138 50.8373V58.1396H430.598V50.8373H429.138ZM429.868 57.4094H426.217V58.8698H429.868V57.4094ZM430.598 43.535V39.8838H429.138V43.535H430.598ZM429.868 40.614H440.821V39.1536H429.868V40.614ZM440.091 39.8838V43.535H441.552V39.8838H440.091ZM440.821 42.8047H429.868V44.2652H440.821V42.8047ZM456.01 61.7908H455.28V62.521H456.01V61.7908ZM456.01 58.1396V57.4094H455.28V58.1396H456.01ZM466.964 58.1396H467.694V57.4094H466.964V58.1396ZM466.964 61.7908V62.521H467.694V61.7908H466.964ZM466.964 58.1396H466.234V58.8698H466.964V58.1396ZM466.964 54.4884V53.7582H466.234V54.4884H466.964ZM470.615 54.4884H471.345V53.7582H470.615V54.4884ZM470.615 58.1396V58.8698H471.345V58.1396H470.615ZM452.359 58.1396H451.629V58.8698H452.359V58.1396ZM452.359 43.535V42.8047H451.629V43.535H452.359ZM456.01 43.535H456.741V42.8047H456.01V43.535ZM456.01 47.1861H455.28V47.9164H456.01V47.1861ZM466.964 47.1861V47.9164H467.694V47.1861H466.964ZM466.964 43.535V42.8047H466.234V43.535H466.964ZM470.615 43.535H471.345V42.8047H470.615V43.535ZM470.615 50.8373V51.5675H471.345V50.8373H470.615ZM456.01 50.8373V50.107H455.28V50.8373H456.01ZM456.01 58.1396V58.8698H456.741V58.1396H456.01ZM456.01 43.535H455.28V44.2652H456.01V43.535ZM456.01 39.8838V39.1536H455.28V39.8838H456.01ZM466.964 39.8838H467.694V39.1536H466.964V39.8838ZM466.964 43.535V44.2652H467.694V43.535H466.964ZM456.741 61.7908V58.1396H455.28V61.7908H456.741ZM456.01 58.8698H466.964V57.4094H456.01V58.8698ZM466.234 58.1396V61.7908H467.694V58.1396H466.234ZM466.964 61.0605H456.01V62.521H466.964V61.0605ZM467.694 58.1396V54.4884H466.234V58.1396H467.694ZM466.964 55.2187H470.615V53.7582H466.964V55.2187ZM469.885 54.4884V58.1396H471.345V54.4884H469.885ZM470.615 57.4094H466.964V58.8698H470.615V57.4094ZM453.089 58.1396V43.535H451.629V58.1396H453.089ZM452.359 44.2652H456.01V42.8047H452.359V44.2652ZM455.28 43.535V47.1861H456.741V43.535H455.28ZM456.01 47.9164H466.964V46.4559H456.01V47.9164ZM467.694 47.1861V43.535H466.234V47.1861H467.694ZM466.964 44.2652H470.615V42.8047H466.964V44.2652ZM469.885 43.535V50.8373H471.345V43.535H469.885ZM470.615 50.107H456.01V51.5675H470.615V50.107ZM455.28 50.8373V58.1396H456.741V50.8373H455.28ZM456.01 57.4094H452.359V58.8698H456.01V57.4094ZM456.741 43.535V39.8838H455.28V43.535H456.741ZM456.01 40.614H466.964V39.1536H456.01V40.614ZM466.234 39.8838V43.535H467.694V39.8838H466.234ZM466.964 42.8047H456.01V44.2652H466.964V42.8047ZM493.106 61.7908H492.376V62.521H493.106V61.7908ZM493.106 43.535V42.8047H492.376V43.535H493.106ZM496.757 43.535H497.487V42.8047H496.757V43.535ZM496.757 61.7908V62.521H497.487V61.7908H496.757ZM478.501 61.7908H477.771V62.521H478.501V61.7908ZM478.501 39.8838V39.1536H477.771V39.8838H478.501ZM493.106 39.8838H493.836V39.1536H493.106V39.8838ZM493.106 43.535V44.2652H493.836V43.535H493.106ZM482.153 43.535V42.8047H481.422V43.535H482.153ZM482.153 61.7908V62.521H482.883V61.7908H482.153ZM493.836 61.7908V43.535H492.376V61.7908H493.836ZM493.106 44.2652H496.757V42.8047H493.106V44.2652ZM496.027 43.535V61.7908H497.487V43.535H496.027ZM496.757 61.0605H493.106V62.521H496.757V61.0605ZM479.232 61.7908V39.8838H477.771V61.7908H479.232ZM478.501 40.614H493.106V39.1536H478.501V40.614ZM492.376 39.8838V43.535H493.836V39.8838H492.376ZM493.106 42.8047H482.153V44.2652H493.106V42.8047ZM481.422 43.535V61.7908H482.883V43.535H481.422ZM482.153 61.0605H478.501V62.521H482.153V61.0605ZM538.088 61.7908H537.358V62.521H538.088V61.7908ZM538.088 58.1396V57.4094H537.358V58.1396H538.088ZM549.042 58.1396H549.772V57.4094H549.042V58.1396ZM549.042 61.7908V62.521H549.772V61.7908H549.042ZM534.437 58.1396H533.707V58.8698H534.437V58.1396ZM534.437 32.5815V31.8512H533.707V32.5815H534.437ZM538.088 32.5815H538.819V31.8512H538.088V32.5815ZM538.088 39.8838H537.358V40.614H538.088V39.8838ZM549.042 39.8838H549.772V39.1536H549.042V39.8838ZM549.042 43.535V44.2652H549.772V43.535H549.042ZM538.088 43.535V42.8047H537.358V43.535H538.088ZM538.088 58.1396V58.8698H538.819V58.1396H538.088ZM538.819 61.7908V58.1396H537.358V61.7908H538.819ZM538.088 58.8698H549.042V57.4094H538.088V58.8698ZM548.312 58.1396V61.7908H549.772V58.1396H548.312ZM549.042 61.0605H538.088V62.521H549.042V61.0605ZM535.167 58.1396V32.5815H533.707V58.1396H535.167ZM534.437 33.3117H538.088V31.8512H534.437V33.3117ZM537.358 32.5815V39.8838H538.819V32.5815H537.358ZM538.088 40.614H549.042V39.1536H538.088V40.614ZM548.312 39.8838V43.535H549.772V39.8838H548.312ZM549.042 42.8047H538.088V44.2652H549.042V42.8047ZM537.358 43.535V58.1396H538.819V43.535H537.358ZM538.088 57.4094H534.437V58.8698H538.088V57.4094ZM560.58 61.7908H559.849V62.521H560.58V61.7908ZM560.58 58.1396V57.4094H559.849V58.1396H560.58ZM571.533 58.1396H572.263V57.4094H571.533V58.1396ZM571.533 61.7908V62.521H572.263V61.7908H571.533ZM556.928 58.1396H556.198V58.8698H556.928V58.1396ZM556.928 43.535V42.8047H556.198V43.535H556.928ZM560.58 43.535H561.31V42.8047H560.58V43.535ZM560.58 58.1396V58.8698H561.31V58.1396H560.58ZM571.533 58.1396H570.803V58.8698H571.533V58.1396ZM571.533 43.535V42.8047H570.803V43.535H571.533ZM575.184 43.535H575.914V42.8047H575.184V43.535ZM575.184 58.1396V58.8698H575.914V58.1396H575.184ZM560.58 43.535H559.849V44.2652H560.58V43.535ZM560.58 39.8838V39.1536H559.849V39.8838H560.58ZM571.533 39.8838H572.263V39.1536H571.533V39.8838ZM571.533 43.535V44.2652H572.263V43.535H571.533ZM561.31 61.7908V58.1396H559.849V61.7908H561.31ZM560.58 58.8698H571.533V57.4094H560.58V58.8698ZM570.803 58.1396V61.7908H572.263V58.1396H570.803ZM571.533 61.0605H560.58V62.521H571.533V61.0605ZM557.659 58.1396V43.535H556.198V58.1396H557.659ZM556.928 44.2652H560.58V42.8047H556.928V44.2652ZM559.849 43.535V58.1396H561.31V43.535H559.849ZM560.58 57.4094H556.928V58.8698H560.58V57.4094ZM572.263 58.1396V43.535H570.803V58.1396H572.263ZM571.533 44.2652H575.184V42.8047H571.533V44.2652ZM574.454 43.535V58.1396H575.914V43.535H574.454ZM575.184 57.4094H571.533V58.8698H575.184V57.4094ZM561.31 43.535V39.8838H559.849V43.535H561.31ZM560.58 40.614H571.533V39.1536H560.58V40.614ZM570.803 39.8838V43.535H572.263V39.8838H570.803ZM571.533 42.8047H560.58V44.2652H571.533V42.8047ZM616.515 61.7908H615.785V62.521H616.515V61.7908ZM616.515 43.535V42.8047H615.785V43.535H616.515ZM620.167 43.535H620.897V42.8047H620.167V43.535ZM620.167 61.7908V62.521H620.897V61.7908H620.167ZM623.818 61.7908H623.087V62.521H623.818V61.7908ZM623.818 43.535V42.8047H623.087V43.535H623.818ZM627.469 43.535H628.199V42.8047H627.469V43.535ZM627.469 61.7908V62.521H628.199V61.7908H627.469ZM609.213 61.7908H608.483V62.521H609.213V61.7908ZM609.213 39.8838V39.1536H608.483V39.8838H609.213ZM616.515 39.8838H617.246V39.1536H616.515V39.8838ZM616.515 43.535V44.2652H617.246V43.535H616.515ZM612.864 43.535V42.8047H612.134V43.535H612.864ZM612.864 61.7908V62.521H613.594V61.7908H612.864ZM620.167 43.535H619.436V44.2652H620.167V43.535ZM620.167 39.8838V39.1536H619.436V39.8838H620.167ZM623.818 39.8838H624.548V39.1536H623.818V39.8838ZM623.818 43.535V44.2652H624.548V43.535H623.818ZM617.246 61.7908V43.535H615.785V61.7908H617.246ZM616.515 44.2652H620.167V42.8047H616.515V44.2652ZM619.436 43.535V61.7908H620.897V43.535H619.436ZM620.167 61.0605H616.515V62.521H620.167V61.0605ZM624.548 61.7908V43.535H623.087V61.7908H624.548ZM623.818 44.2652H627.469V42.8047H623.818V44.2652ZM626.739 43.535V61.7908H628.199V43.535H626.739ZM627.469 61.0605H623.818V62.521H627.469V61.0605ZM609.943 61.7908V39.8838H608.483V61.7908H609.943ZM609.213 40.614H616.515V39.1536H609.213V40.614ZM615.785 39.8838V43.535H617.246V39.8838H615.785ZM616.515 42.8047H612.864V44.2652H616.515V42.8047ZM612.134 43.535V61.7908H613.594V43.535H612.134ZM612.864 61.0605H609.213V62.521H612.864V61.0605ZM620.897 43.535V39.8838H619.436V43.535H620.897ZM620.167 40.614H623.818V39.1536H620.167V40.614ZM623.087 39.8838V43.535H624.548V39.8838H623.087ZM623.818 42.8047H620.167V44.2652H623.818V42.8047ZM635.355 58.1396H634.625V58.8698H635.355V58.1396ZM635.355 50.8373V50.107H634.625V50.8373H635.355ZM639.007 50.8373H639.737V50.107H639.007V50.8373ZM639.007 58.1396V58.8698H639.737V58.1396H639.007ZM639.007 61.7908H638.276V62.521H639.007V61.7908ZM639.007 58.1396V57.4094H638.276V58.1396H639.007ZM649.96 58.1396V58.8698H650.69V58.1396H649.96ZM649.96 50.8373H650.69V50.107H649.96V50.8373ZM639.007 50.8373H638.276V51.5675H639.007V50.8373ZM639.007 47.1861V46.4559H638.276V47.1861H639.007ZM649.96 47.1861V47.9164H650.69V47.1861H649.96ZM649.96 43.535V42.8047H649.23V43.535H649.96ZM653.611 43.535H654.341V42.8047H653.611V43.535ZM653.611 61.7908V62.521H654.341V61.7908H653.611ZM639.007 43.535H638.276V44.2652H639.007V43.535ZM639.007 39.8838V39.1536H638.276V39.8838H639.007ZM649.96 39.8838H650.69V39.1536H649.96V39.8838ZM649.96 43.535V44.2652H650.69V43.535H649.96ZM636.086 58.1396V50.8373H634.625V58.1396H636.086ZM635.355 51.5675H639.007V50.107H635.355V51.5675ZM638.276 50.8373V58.1396H639.737V50.8373H638.276ZM639.007 57.4094H635.355V58.8698H639.007V57.4094ZM639.737 61.7908V58.1396H638.276V61.7908H639.737ZM639.007 58.8698H649.96V57.4094H639.007V58.8698ZM650.69 58.1396V50.8373H649.23V58.1396H650.69ZM649.96 50.107H639.007V51.5675H649.96V50.107ZM639.737 50.8373V47.1861H638.276V50.8373H639.737ZM639.007 47.9164H649.96V46.4559H639.007V47.9164ZM650.69 47.1861V43.535H649.23V47.1861H650.69ZM649.96 44.2652H653.611V42.8047H649.96V44.2652ZM652.881 43.535V61.7908H654.341V43.535H652.881ZM653.611 61.0605H639.007V62.521H653.611V61.0605ZM639.737 43.535V39.8838H638.276V43.535H639.737ZM639.007 40.614H649.96V39.1536H639.007V40.614ZM649.23 39.8838V43.535H650.69V39.8838H649.23ZM649.96 42.8047H639.007V44.2652H649.96V42.8047ZM676.102 61.7908H675.372V62.521H676.102V61.7908ZM676.102 58.1396V57.4094H675.372V58.1396H676.102ZM679.754 58.1396H680.484V57.4094H679.754V58.1396ZM679.754 61.7908V62.521H680.484V61.7908H679.754ZM672.451 58.1396H671.721V58.8698H672.451V58.1396ZM672.451 54.4884V53.7582H671.721V54.4884H672.451ZM676.102 54.4884H676.833V53.7582H676.102V54.4884ZM676.102 58.1396V58.8698H676.833V58.1396H676.102ZM672.451 47.1861H671.721V47.9164H672.451V47.1861ZM672.451 43.535V42.8047H671.721V43.535H672.451ZM676.102 43.535H676.833V42.8047H676.102V43.535ZM676.102 47.1861V47.9164H676.833V47.1861H676.102ZM676.102 43.535H675.372V44.2652H676.102V43.535ZM676.102 39.8838V39.1536H675.372V39.8838H676.102ZM679.754 39.8838H680.484V39.1536H679.754V39.8838ZM679.754 43.535V44.2652H680.484V43.535H679.754ZM661.498 61.7908H660.768V62.521H661.498V61.7908ZM661.498 28.9303V28.2001H660.768V28.9303H661.498ZM665.149 28.9303H665.879V28.2001H665.149V28.9303ZM665.149 50.8373H664.419V51.5675H665.149V50.8373ZM668.8 50.8373V51.5675H669.53V50.8373H668.8ZM668.8 47.1861V46.4559H668.07V47.1861H668.8ZM672.451 47.1861H673.181V46.4559H672.451V47.1861ZM672.451 54.4884V55.2187H673.181V54.4884H672.451ZM665.149 54.4884V53.7582H664.419V54.4884H665.149ZM665.149 61.7908V62.521H665.879V61.7908H665.149ZM676.833 61.7908V58.1396H675.372V61.7908H676.833ZM676.102 58.8698H679.754V57.4094H676.102V58.8698ZM679.023 58.1396V61.7908H680.484V58.1396H679.023ZM679.754 61.0605H676.102V62.521H679.754V61.0605ZM673.181 58.1396V54.4884H671.721V58.1396H673.181ZM672.451 55.2187H676.102V53.7582H672.451V55.2187ZM675.372 54.4884V58.1396H676.833V54.4884H675.372ZM676.102 57.4094H672.451V58.8698H676.102V57.4094ZM673.181 47.1861V43.535H671.721V47.1861H673.181ZM672.451 44.2652H676.102V42.8047H672.451V44.2652ZM675.372 43.535V47.1861H676.833V43.535H675.372ZM676.102 46.4559H672.451V47.9164H676.102V46.4559ZM676.833 43.535V39.8838H675.372V43.535H676.833ZM676.102 40.614H679.754V39.1536H676.102V40.614ZM679.023 39.8838V43.535H680.484V39.8838H679.023ZM679.754 42.8047H676.102V44.2652H679.754V42.8047ZM662.228 61.7908V28.9303H660.768V61.7908H662.228ZM661.498 29.6605H665.149V28.2001H661.498V29.6605ZM664.419 28.9303V50.8373H665.879V28.9303H664.419ZM665.149 51.5675H668.8V50.107H665.149V51.5675ZM669.53 50.8373V47.1861H668.07V50.8373H669.53ZM668.8 47.9164H672.451V46.4559H668.8V47.9164ZM671.721 47.1861V54.4884H673.181V47.1861H671.721ZM672.451 53.7582H665.149V55.2187H672.451V53.7582ZM664.419 54.4884V61.7908H665.879V54.4884H664.419ZM665.149 61.0605H661.498V62.521H665.149V61.0605ZM691.291 61.7908H690.561V62.521H691.291V61.7908ZM691.291 58.1396V57.4094H690.561V58.1396H691.291ZM702.245 58.1396H702.975V57.4094H702.245V58.1396ZM702.245 61.7908V62.521H702.975V61.7908H702.245ZM702.245 58.1396H701.514V58.8698H702.245V58.1396ZM702.245 54.4884V53.7582H701.514V54.4884H702.245ZM705.896 54.4884H706.626V53.7582H705.896V54.4884ZM705.896 58.1396V58.8698H706.626V58.1396H705.896ZM687.64 58.1396H686.91V58.8698H687.64V58.1396ZM687.64 43.535V42.8047H686.91V43.535H687.64ZM691.291 43.535H692.021V42.8047H691.291V43.535ZM691.291 47.1861H690.561V47.9164H691.291V47.1861ZM702.245 47.1861V47.9164H702.975V47.1861H702.245ZM702.245 43.535V42.8047H701.514V43.535H702.245ZM705.896 43.535H706.626V42.8047H705.896V43.535ZM705.896 50.8373V51.5675H706.626V50.8373H705.896ZM691.291 50.8373V50.107H690.561V50.8373H691.291ZM691.291 58.1396V58.8698H692.021V58.1396H691.291ZM691.291 43.535H690.561V44.2652H691.291V43.535ZM691.291 39.8838V39.1536H690.561V39.8838H691.291ZM702.245 39.8838H702.975V39.1536H702.245V39.8838ZM702.245 43.535V44.2652H702.975V43.535H702.245ZM692.021 61.7908V58.1396H690.561V61.7908H692.021ZM691.291 58.8698H702.245V57.4094H691.291V58.8698ZM701.514 58.1396V61.7908H702.975V58.1396H701.514ZM702.245 61.0605H691.291V62.521H702.245V61.0605ZM702.975 58.1396V54.4884H701.514V58.1396H702.975ZM702.245 55.2187H705.896V53.7582H702.245V55.2187ZM705.166 54.4884V58.1396H706.626V54.4884H705.166ZM705.896 57.4094H702.245V58.8698H705.896V57.4094ZM688.37 58.1396V43.535H686.91V58.1396H688.37ZM687.64 44.2652H691.291V42.8047H687.64V44.2652ZM690.561 43.535V47.1861H692.021V43.535H690.561ZM691.291 47.9164H702.245V46.4559H691.291V47.9164ZM702.975 47.1861V43.535H701.514V47.1861H702.975ZM702.245 44.2652H705.896V42.8047H702.245V44.2652ZM705.166 43.535V50.8373H706.626V43.535H705.166ZM705.896 50.107H691.291V51.5675H705.896V50.107ZM690.561 50.8373V58.1396H692.021V50.8373H690.561ZM691.291 57.4094H687.64V58.8698H691.291V57.4094ZM692.021 43.535V39.8838H690.561V43.535H692.021ZM691.291 40.614H702.245V39.1536H691.291V40.614ZM701.514 39.8838V43.535H702.975V39.8838H701.514ZM702.245 42.8047H691.291V44.2652H702.245V42.8047ZM754.529 47.1861H753.799V47.9164H754.529V47.1861ZM754.529 36.2326V35.5024H753.799V36.2326H754.529ZM758.181 36.2326H758.911V35.5024H758.181V36.2326ZM758.181 47.1861V47.9164H758.911V47.1861H758.181ZM739.925 61.7908H739.195V62.521H739.925V61.7908ZM739.925 32.5815V31.8512H739.195V32.5815H739.925ZM754.529 32.5815H755.26V31.8512H754.529V32.5815ZM754.529 36.2326V36.9629H755.26V36.2326H754.529ZM743.576 36.2326V35.5024H742.846V36.2326H743.576ZM743.576 47.1861H742.846V47.9164H743.576V47.1861ZM754.529 47.1861H755.26V46.4559H754.529V47.1861ZM754.529 50.8373V51.5675H755.26V50.8373H754.529ZM743.576 50.8373V50.107H742.846V50.8373H743.576ZM743.576 61.7908V62.521H744.306V61.7908H743.576ZM755.26 47.1861V36.2326H753.799V47.1861H755.26ZM754.529 36.9629H758.181V35.5024H754.529V36.9629ZM757.45 36.2326V47.1861H758.911V36.2326H757.45ZM758.181 46.4559H754.529V47.9164H758.181V46.4559ZM740.655 61.7908V32.5815H739.195V61.7908H740.655ZM739.925 33.3117H754.529V31.8512H739.925V33.3117ZM753.799 32.5815V36.2326H755.26V32.5815H753.799ZM754.529 35.5024H743.576V36.9629H754.529V35.5024ZM742.846 36.2326V47.1861H744.306V36.2326H742.846ZM743.576 47.9164H754.529V46.4559H743.576V47.9164ZM753.799 47.1861V50.8373H755.26V47.1861H753.799ZM754.529 50.107H743.576V51.5675H754.529V50.107ZM742.846 50.8373V61.7908H744.306V50.8373H742.846ZM743.576 61.0605H739.925V62.521H743.576V61.0605ZM769.718 61.7908H768.988V62.521H769.718V61.7908ZM769.718 58.1396V57.4094H768.988V58.1396H769.718ZM780.672 58.1396H781.402V57.4094H780.672V58.1396ZM780.672 61.7908V62.521H781.402V61.7908H780.672ZM780.672 58.1396H779.941V58.8698H780.672V58.1396ZM780.672 54.4884V53.7582H779.941V54.4884H780.672ZM784.323 54.4884H785.053V53.7582H784.323V54.4884ZM784.323 58.1396V58.8698H785.053V58.1396H784.323ZM766.067 58.1396H765.337V58.8698H766.067V58.1396ZM766.067 43.535V42.8047H765.337V43.535H766.067ZM769.718 43.535H770.448V42.8047H769.718V43.535ZM769.718 47.1861H768.988V47.9164H769.718V47.1861ZM780.672 47.1861V47.9164H781.402V47.1861H780.672ZM780.672 43.535V42.8047H779.941V43.535H780.672ZM784.323 43.535H785.053V42.8047H784.323V43.535ZM784.323 50.8373V51.5675H785.053V50.8373H784.323ZM769.718 50.8373V50.107H768.988V50.8373H769.718ZM769.718 58.1396V58.8698H770.448V58.1396H769.718ZM769.718 43.535H768.988V44.2652H769.718V43.535ZM769.718 39.8838V39.1536H768.988V39.8838H769.718ZM780.672 39.8838H781.402V39.1536H780.672V39.8838ZM780.672 43.535V44.2652H781.402V43.535H780.672ZM770.448 61.7908V58.1396H768.988V61.7908H770.448ZM769.718 58.8698H780.672V57.4094H769.718V58.8698ZM779.941 58.1396V61.7908H781.402V58.1396H779.941ZM780.672 61.0605H769.718V62.521H780.672V61.0605ZM781.402 58.1396V54.4884H779.941V58.1396H781.402ZM780.672 55.2187H784.323V53.7582H780.672V55.2187ZM783.593 54.4884V58.1396H785.053V54.4884H783.593ZM784.323 57.4094H780.672V58.8698H784.323V57.4094ZM766.797 58.1396V43.535H765.337V58.1396H766.797ZM766.067 44.2652H769.718V42.8047H766.067V44.2652ZM768.988 43.535V47.1861H770.448V43.535H768.988ZM769.718 47.9164H780.672V46.4559H769.718V47.9164ZM781.402 47.1861V43.535H779.941V47.1861H781.402ZM780.672 44.2652H784.323V42.8047H780.672V44.2652ZM783.593 43.535V50.8373H785.053V43.535H783.593ZM784.323 50.107H769.718V51.5675H784.323V50.107ZM768.988 50.8373V58.1396H770.448V50.8373H768.988ZM769.718 57.4094H766.067V58.8698H769.718V57.4094ZM770.448 43.535V39.8838H768.988V43.535H770.448ZM769.718 40.614H780.672V39.1536H769.718V40.614ZM779.941 39.8838V43.535H781.402V39.8838H779.941ZM780.672 42.8047H769.718V44.2652H780.672V42.8047ZM806.814 47.1861H806.084V47.9164H806.814V47.1861ZM806.814 43.535V42.8047H806.084V43.535H806.814ZM810.465 43.535H811.195V42.8047H810.465V43.535ZM810.465 47.1861V47.9164H811.195V47.1861H810.465ZM792.209 61.7908H791.479V62.521H792.209V61.7908ZM792.209 39.8838V39.1536H791.479V39.8838H792.209ZM795.86 39.8838H796.591V39.1536H795.86V39.8838ZM795.86 43.535H795.13V44.2652H795.86V43.535ZM799.512 43.535H800.242V42.8047H799.512V43.535ZM799.512 47.1861V47.9164H800.242V47.1861H799.512ZM795.86 47.1861V46.4559H795.13V47.1861H795.86ZM795.86 61.7908V62.521H796.591V61.7908H795.86ZM799.512 43.535H798.781V44.2652H799.512V43.535ZM799.512 39.8838V39.1536H798.781V39.8838H799.512ZM806.814 39.8838H807.544V39.1536H806.814V39.8838ZM806.814 43.535V44.2652H807.544V43.535H806.814ZM807.544 47.1861V43.535H806.084V47.1861H807.544ZM806.814 44.2652H810.465V42.8047H806.814V44.2652ZM809.735 43.535V47.1861H811.195V43.535H809.735ZM810.465 46.4559H806.814V47.9164H810.465V46.4559ZM792.94 61.7908V39.8838H791.479V61.7908H792.94ZM792.209 40.614H795.86V39.1536H792.209V40.614ZM795.13 39.8838V43.535H796.591V39.8838H795.13ZM795.86 44.2652H799.512V42.8047H795.86V44.2652ZM798.781 43.535V47.1861H800.242V43.535H798.781ZM799.512 46.4559H795.86V47.9164H799.512V46.4559ZM795.13 47.1861V61.7908H796.591V47.1861H795.13ZM795.86 61.0605H792.209V62.521H795.86V61.0605ZM800.242 43.535V39.8838H798.781V43.535H800.242ZM799.512 40.614H806.814V39.1536H799.512V40.614ZM806.084 39.8838V43.535H807.544V39.8838H806.084ZM806.814 42.8047H799.512V44.2652H806.814V42.8047ZM818.352 61.7908H817.621V62.521H818.352V61.7908ZM818.352 58.1396V57.4094H817.621V58.1396H818.352ZM832.956 58.1396H833.687V57.4094H832.956V58.1396ZM832.956 61.7908V62.521H833.687V61.7908H832.956ZM832.956 58.1396H832.226V58.8698H832.956V58.1396ZM832.956 54.4884V53.7582H832.226V54.4884H832.956ZM836.607 54.4884H837.338V53.7582H836.607V54.4884ZM836.607 58.1396V58.8698H837.338V58.1396H836.607ZM829.305 54.4884H828.575V55.2187H829.305V54.4884ZM829.305 50.8373V50.107H828.575V50.8373H829.305ZM832.956 50.8373H833.687V50.107H832.956V50.8373ZM832.956 54.4884V55.2187H833.687V54.4884H832.956ZM822.003 50.8373H821.273V51.5675H822.003V50.8373ZM822.003 47.1861V46.4559H821.273V47.1861H822.003ZM829.305 47.1861H830.035V46.4559H829.305V47.1861ZM829.305 50.8373V51.5675H830.035V50.8373H829.305ZM818.352 47.1861H817.621V47.9164H818.352V47.1861ZM818.352 43.535V42.8047H817.621V43.535H818.352ZM822.003 43.535H822.733V42.8047H822.003V43.535ZM822.003 47.1861V47.9164H822.733V47.1861H822.003ZM822.003 43.535H821.273V44.2652H822.003V43.535ZM822.003 39.8838V39.1536H821.273V39.8838H822.003ZM836.607 39.8838H837.338V39.1536H836.607V39.8838ZM836.607 43.535V44.2652H837.338V43.535H836.607ZM819.082 61.7908V58.1396H817.621V61.7908H819.082ZM818.352 58.8698H832.956V57.4094H818.352V58.8698ZM832.226 58.1396V61.7908H833.687V58.1396H832.226ZM832.956 61.0605H818.352V62.521H832.956V61.0605ZM833.687 58.1396V54.4884H832.226V58.1396H833.687ZM832.956 55.2187H836.607V53.7582H832.956V55.2187ZM835.877 54.4884V58.1396H837.338V54.4884H835.877ZM836.607 57.4094H832.956V58.8698H836.607V57.4094ZM830.035 54.4884V50.8373H828.575V54.4884H830.035ZM829.305 51.5675H832.956V50.107H829.305V51.5675ZM832.226 50.8373V54.4884H833.687V50.8373H832.226ZM832.956 53.7582H829.305V55.2187H832.956V53.7582ZM822.733 50.8373V47.1861H821.273V50.8373H822.733ZM822.003 47.9164H829.305V46.4559H822.003V47.9164ZM828.575 47.1861V50.8373H830.035V47.1861H828.575ZM829.305 50.107H822.003V51.5675H829.305V50.107ZM819.082 47.1861V43.535H817.621V47.1861H819.082ZM818.352 44.2652H822.003V42.8047H818.352V44.2652ZM821.273 43.535V47.1861H822.733V43.535H821.273ZM822.003 46.4559H818.352V47.9164H822.003V46.4559ZM822.733 43.535V39.8838H821.273V43.535H822.733ZM822.003 40.614H836.607V39.1536H822.003V40.614ZM835.877 39.8838V43.535H837.338V39.8838H835.877ZM836.607 42.8047H822.003V44.2652H836.607V42.8047ZM870.636 69.0931H869.906V69.8233H870.636V69.0931ZM870.636 65.4419V64.7117H869.906V65.4419H870.636ZM881.59 65.4419H882.32V64.7117H881.59V65.4419ZM881.59 69.0931V69.8233H882.32V69.0931H881.59ZM881.59 65.4419H880.86V66.1722H881.59V65.4419ZM881.59 43.535H882.32V42.8047H881.59V43.535ZM877.939 43.535H877.208V44.2652H877.939V43.535ZM877.939 39.8838V39.1536H877.208V39.8838H877.939ZM885.241 39.8838H885.971V39.1536H885.241V39.8838ZM885.241 65.4419V66.1722H885.971V65.4419H885.241ZM881.59 32.5815H880.86V33.3117H881.59V32.5815ZM881.59 28.9303V28.2001H880.86V28.9303H881.59ZM885.241 28.9303H885.971V28.2001H885.241V28.9303ZM885.241 32.5815V33.3117H885.971V32.5815H885.241ZM871.367 69.0931V65.4419H869.906V69.0931H871.367ZM870.636 66.1722H881.59V64.7117H870.636V66.1722ZM880.86 65.4419V69.0931H882.32V65.4419H880.86ZM881.59 68.3629H870.636V69.8233H881.59V68.3629ZM882.32 65.4419V43.535H880.86V65.4419H882.32ZM881.59 42.8047H877.939V44.2652H881.59V42.8047ZM878.669 43.535V39.8838H877.208V43.535H878.669ZM877.939 40.614H885.241V39.1536H877.939V40.614ZM884.511 39.8838V65.4419H885.971V39.8838H884.511ZM885.241 64.7117H881.59V66.1722H885.241V64.7117ZM882.32 32.5815V28.9303H880.86V32.5815H882.32ZM881.59 29.6605H885.241V28.2001H881.59V29.6605ZM884.511 28.9303V32.5815H885.971V28.9303H884.511ZM885.241 31.8512H881.59V33.3117H885.241V31.8512ZM896.779 58.1396H896.048V58.8698H896.779V58.1396ZM896.779 39.8838V39.1536H896.048V39.8838H896.779ZM900.43 39.8838H901.16V39.1536H900.43V39.8838ZM900.43 58.1396V58.8698H901.16V58.1396H900.43ZM900.43 61.7908H899.7V62.521H900.43V61.7908ZM900.43 58.1396V57.4094H899.7V58.1396H900.43ZM911.383 58.1396V58.8698H912.114V58.1396H911.383ZM911.383 39.8838V39.1536H910.653V39.8838H911.383ZM915.034 39.8838H915.765V39.1536H915.034V39.8838ZM915.034 61.7908V62.521H915.765V61.7908H915.034ZM897.509 58.1396V39.8838H896.048V58.1396H897.509ZM896.779 40.614H900.43V39.1536H896.779V40.614ZM899.7 39.8838V58.1396H901.16V39.8838H899.7ZM900.43 57.4094H896.779V58.8698H900.43V57.4094ZM901.16 61.7908V58.1396H899.7V61.7908H901.16ZM900.43 58.8698H911.383V57.4094H900.43V58.8698ZM912.114 58.1396V39.8838H910.653V58.1396H912.114ZM911.383 40.614H915.034V39.1536H911.383V40.614ZM914.304 39.8838V61.7908H915.765V39.8838H914.304ZM915.034 61.0605H900.43V62.521H915.034V61.0605ZM930.223 61.7908H929.493V62.521H930.223V61.7908ZM930.223 43.535V42.8047H929.493V43.535H930.223ZM933.875 43.535H934.605V42.8047H933.875V43.535ZM933.875 61.7908V62.521H934.605V61.7908H933.875ZM937.526 61.7908H936.795V62.521H937.526V61.7908ZM937.526 43.535V42.8047H936.795V43.535H937.526ZM941.177 43.535H941.907V42.8047H941.177V43.535ZM941.177 61.7908V62.521H941.907V61.7908H941.177ZM922.921 61.7908H922.191V62.521H922.921V61.7908ZM922.921 39.8838V39.1536H922.191V39.8838H922.921ZM930.223 39.8838H930.954V39.1536H930.223V39.8838ZM930.223 43.535V44.2652H930.954V43.535H930.223ZM926.572 43.535V42.8047H925.842V43.535H926.572ZM926.572 61.7908V62.521H927.302V61.7908H926.572ZM933.875 43.535H933.144V44.2652H933.875V43.535ZM933.875 39.8838V39.1536H933.144V39.8838H933.875ZM937.526 39.8838H938.256V39.1536H937.526V39.8838ZM937.526 43.535V44.2652H938.256V43.535H937.526ZM930.954 61.7908V43.535H929.493V61.7908H930.954ZM930.223 44.2652H933.875V42.8047H930.223V44.2652ZM933.144 43.535V61.7908H934.605V43.535H933.144ZM933.875 61.0605H930.223V62.521H933.875V61.0605ZM938.256 61.7908V43.535H936.795V61.7908H938.256ZM937.526 44.2652H941.177V42.8047H937.526V44.2652ZM940.447 43.535V61.7908H941.907V43.535H940.447ZM941.177 61.0605H937.526V62.521H941.177V61.0605ZM923.651 61.7908V39.8838H922.191V61.7908H923.651ZM922.921 40.614H930.223V39.1536H922.921V40.614ZM929.493 39.8838V43.535H930.954V39.8838H929.493ZM930.223 42.8047H926.572V44.2652H930.223V42.8047ZM925.842 43.535V61.7908H927.302V43.535H925.842ZM926.572 61.0605H922.921V62.521H926.572V61.0605ZM934.605 43.535V39.8838H933.144V43.535H934.605ZM933.875 40.614H937.526V39.1536H933.875V40.614ZM936.795 39.8838V43.535H938.256V39.8838H936.795ZM937.526 42.8047H933.875V44.2652H937.526V42.8047ZM963.668 58.1396H962.938V58.8698H963.668V58.1396ZM963.668 43.535V42.8047H962.938V43.535H963.668ZM967.319 43.535H968.049V42.8047H967.319V43.535ZM967.319 58.1396V58.8698H968.049V58.1396H967.319ZM949.063 72.7443H948.333V73.4745H949.063V72.7443ZM949.063 39.8838V39.1536H948.333V39.8838H949.063ZM963.668 39.8838H964.398V39.1536H963.668V39.8838ZM963.668 43.535V44.2652H964.398V43.535H963.668ZM952.714 43.535V42.8047H951.984V43.535H952.714ZM952.714 58.1396H951.984V58.8698H952.714V58.1396ZM963.668 58.1396H964.398V57.4094H963.668V58.1396ZM963.668 61.7908V62.521H964.398V61.7908H963.668ZM952.714 61.7908V61.0605H951.984V61.7908H952.714ZM952.714 72.7443V73.4745H953.445V72.7443H952.714ZM964.398 58.1396V43.535H962.938V58.1396H964.398ZM963.668 44.2652H967.319V42.8047H963.668V44.2652ZM966.589 43.535V58.1396H968.049V43.535H966.589ZM967.319 57.4094H963.668V58.8698H967.319V57.4094ZM949.794 72.7443V39.8838H948.333V72.7443H949.794ZM949.063 40.614H963.668V39.1536H949.063V40.614ZM962.938 39.8838V43.535H964.398V39.8838H962.938ZM963.668 42.8047H952.714V44.2652H963.668V42.8047ZM951.984 43.535V58.1396H953.445V43.535H951.984ZM952.714 58.8698H963.668V57.4094H952.714V58.8698ZM962.938 58.1396V61.7908H964.398V58.1396H962.938ZM963.668 61.0605H952.714V62.521H963.668V61.0605ZM951.984 61.7908V72.7443H953.445V61.7908H951.984ZM952.714 72.014H949.063V73.4745H952.714V72.014Z" fill="#252840" mask="url(#path-1-outside-1_6_1904)"/>
<rect x="1278" width="13" height="104" fill="#B9A597"/>
<rect x="1291" y="92" width="13.0001" height="1291" transform="rotate(90 1291 92)" fill="#B9A597"/>
</svg>
