<svg width="1000" height="206" viewBox="0 0 1000 206" fill="none" xmlns="http://www.w3.org/2000/svg">
<g clip-path="url(#clip0_63_30)">
<rect width="1000" height="206" fill="white"/>
<path d="M481.588 82.3468V40.5446H488.479V33.6533H509.835V40.5446H516.802V61.7486H509.835V68.64H506.503V74.774H513.318V82.3468H505.745V75.5313H498.778V68.64H489.236V82.3468H481.588ZM489.236 60.9914H509.077V41.3019H489.236V60.9914Z" fill="#252840"/>
<path d="M434.188 82.3468V47.3602H441.079V40.5446H447.894V33.6533H455.619V40.5446H462.434V47.3602H469.401V82.3468H461.677V68.64H441.836V82.3468H434.188ZM441.836 60.9914H461.677V48.1175H454.861V41.3019H448.652V48.1175H441.836V60.9914Z" fill="#252840"/>
<path fill-rule="evenodd" clip-rule="evenodd" d="M479.936 84V38.8913H486.827V32H511.489V38.8913H518.456V63.4018H511.489V70.2931H508.157V73.1207H514.972V84H504.093V77.1844H497.126V70.2931H490.891V84H479.936ZM489.237 68.6399H498.779V75.5312H505.746V82.3468H513.319V74.7739H506.504V68.6399H509.836V61.7486H516.803V40.5445H509.836V33.6532H488.48V40.5445H481.589V82.3468H489.237V68.6399ZM489.237 60.9913H509.078V41.3018H489.237V60.9913ZM490.891 42.9551V59.338H507.425V42.9551H490.891Z" fill="#252840"/>
<path fill-rule="evenodd" clip-rule="evenodd" d="M432.533 84V45.7069H439.425V38.8913H446.24V32H457.271V38.8913H464.086V45.7069H471.053V84H460.023V70.2931H443.488V84H432.533ZM441.835 68.6399H461.676V82.3468H469.4V47.3601H462.433V40.5445H455.618V33.6532H447.893V40.5445H441.078V47.3601H434.186V82.3468H441.835V68.6399ZM441.835 60.9913H461.676V48.1174H454.86V41.3018H448.651V48.1174H441.835V60.9913ZM443.488 49.7707V59.338H460.023V49.7707H453.207V42.9551H450.304V49.7707H443.488Z" fill="#252840"/>
<path fill-rule="evenodd" clip-rule="evenodd" d="M567.469 42.8166V32.2146H553.838H543.236H528.848V42.8166L543.236 42.8166V83.7101H553.838V42.8166L567.469 42.8166Z" fill="#252840"/>
<mask id="path-6-outside-1_63_30" maskUnits="userSpaceOnUse" x="188.5" y="122" width="619" height="46" fill="black">
<rect fill="white" x="188.5" y="122" width="619" height="46"/>
<path d="M197.453 156V152.349H204.756V156H197.453ZM193.802 152.349V148.698H197.453V152.349H193.802ZM204.756 152.349V148.698H208.407V152.349H204.756ZM190.151 148.698V134.093H193.802V148.698H190.151ZM208.407 148.698V134.093H212.058V148.698H208.407ZM193.802 134.093V130.442H197.453V134.093H193.802ZM204.756 134.093V130.442H208.407V134.093H204.756ZM197.453 130.442V126.791H204.756V130.442H197.453ZM227.247 156V152.349H230.898V156H227.247ZM223.596 152.349V126.791H219.945V123.14H227.247V152.349H223.596ZM246.087 166.953V163.302H257.04V166.953H246.087ZM242.436 163.302V156H246.087V163.302H242.436ZM257.04 163.302V156H260.692V163.302H257.04ZM246.087 156V152.349H257.04V156H246.087ZM242.436 152.349V148.698H246.087V152.349H242.436ZM246.087 148.698V145.047H253.389V148.698H246.087ZM242.436 145.047V137.744H246.087V145.047H242.436ZM253.389 145.047V137.744H257.04V145.047H253.389ZM246.087 137.744V134.093H253.389V137.744H246.087ZM257.04 137.744V134.093H260.692V137.744H257.04ZM268.578 152.349V145.047H272.229V152.349H268.578ZM272.229 156V152.349H283.183V145.047H272.229V141.395H283.183V137.744H286.834V156H272.229ZM272.229 137.744V134.093H283.183V137.744H272.229ZM328.165 156V130.442H317.212V126.791H342.77V130.442H331.816V156H328.165ZM354.307 156V137.744H350.656V134.093H357.959V156H354.307ZM354.307 126.791V123.14H357.959V126.791H354.307ZM380.45 156V137.744H384.101V156H380.45ZM387.752 156V137.744H391.403V156H387.752ZM373.147 156V134.093H380.45V137.744H376.799V156H373.147ZM384.101 137.744V134.093H387.752V137.744H384.101ZM402.941 156V152.349H413.894V156H402.941ZM399.29 152.349V137.744H402.941V152.349H399.29ZM413.894 152.349V137.744H417.546V152.349H413.894ZM402.941 137.744V134.093H413.894V137.744H402.941ZM425.432 156V152.349H440.037V156H425.432ZM440.037 152.349V148.698H443.688V152.349H440.037ZM436.386 148.698V145.047H440.037V148.698H436.386ZM429.083 145.047V141.395H436.386V145.047H429.083ZM425.432 141.395V137.744H429.083V141.395H425.432ZM429.083 137.744V134.093H443.688V137.744H429.083ZM466.179 156V137.744H469.83V156H466.179ZM451.574 156V123.14H455.226V134.093H466.179V137.744H455.226V156H451.574ZM477.717 152.349V134.093H481.368V152.349H477.717ZM481.368 156V152.349H492.321V134.093H495.973V156H481.368ZM518.464 156V152.349H522.115V156H518.464ZM514.813 152.349V148.698H518.464V152.349H514.813ZM514.813 141.395V137.744H518.464V141.395H514.813ZM518.464 137.744V134.093H522.115V137.744H518.464ZM503.859 156V123.14H507.51V145.047H511.161V141.395H514.813V148.698H507.51V156H503.859ZM567.097 163.302V159.651H570.748V163.302H567.097ZM563.446 159.651V152.349H567.097V159.651H563.446ZM559.795 152.349V134.093H563.446V152.349H559.795ZM563.446 134.093V126.791H567.097V134.093H563.446ZM567.097 126.791V123.14H570.748V126.791H567.097ZM585.937 156V152.349H600.542V156H585.937ZM582.286 152.349V148.698H585.937V152.349H582.286ZM585.937 145.047V137.744H589.588V145.047H585.937ZM578.635 148.698V134.093H582.286V148.698H578.635ZM589.588 148.698V145.047H593.24V137.744H589.588V134.093H596.891V145.047H600.542V148.698H589.588ZM600.542 145.047V134.093H604.193V145.047H600.542ZM582.286 134.093V130.442H585.937V134.093H582.286ZM596.891 134.093V130.442H600.542V134.093H596.891ZM585.937 130.442V126.791H596.891V130.442H585.937ZM623.033 156V137.744H626.684V156H623.033ZM608.428 156V123.14H612.08V134.093H623.033V137.744H612.08V156H608.428ZM638.222 156V152.349H649.175V156H638.222ZM649.175 152.349V148.698H652.827V152.349H649.175ZM634.571 152.349V137.744H638.222V141.395H649.175V137.744H652.827V145.047H638.222V152.349H634.571ZM638.222 137.744V134.093H649.175V137.744H638.222ZM664.364 166.953V163.302H668.015V166.953H664.364ZM668.015 163.302V152.349H671.667V163.302H668.015ZM664.364 152.349V141.395H668.015V152.349H664.364ZM671.667 152.349V141.395H675.318V152.349H671.667ZM660.713 141.395V134.093H664.364V141.395H660.713ZM675.318 141.395V134.093H678.969V141.395H675.318ZM690.507 156V152.349H701.46V156H690.507ZM686.855 152.349V137.744H690.507V152.349H686.855ZM701.46 152.349V137.744H705.111V152.349H701.46ZM690.507 137.744V134.093H701.46V137.744H690.507ZM723.951 156V152.349H727.602V156H723.951ZM720.3 152.349V126.791H716.649V123.14H723.951V152.349H720.3ZM742.791 156V152.349H753.745V156H742.791ZM753.745 152.349V148.698H757.396V152.349H753.745ZM739.14 152.349V137.744H742.791V141.395H753.745V137.744H757.396V145.047H742.791V152.349H739.14ZM742.791 137.744V134.093H753.745V137.744H742.791ZM765.282 152.349V145.047H768.934V152.349H765.282ZM768.934 156V152.349H779.887V145.047H768.934V141.395H779.887V137.744H783.538V156H768.934ZM768.934 137.744V134.093H779.887V137.744H768.934ZM795.076 163.302V159.651H798.727V163.302H795.076ZM798.727 159.651V152.349H802.378V159.651H798.727ZM802.378 152.349V134.093H806.029V152.349H802.378ZM798.727 134.093V126.791H802.378V134.093H798.727ZM795.076 126.791V123.14H798.727V126.791H795.076Z"/>
</mask>
<path d="M197.453 156V152.349H204.756V156H197.453ZM193.802 152.349V148.698H197.453V152.349H193.802ZM204.756 152.349V148.698H208.407V152.349H204.756ZM190.151 148.698V134.093H193.802V148.698H190.151ZM208.407 148.698V134.093H212.058V148.698H208.407ZM193.802 134.093V130.442H197.453V134.093H193.802ZM204.756 134.093V130.442H208.407V134.093H204.756ZM197.453 130.442V126.791H204.756V130.442H197.453ZM227.247 156V152.349H230.898V156H227.247ZM223.596 152.349V126.791H219.945V123.14H227.247V152.349H223.596ZM246.087 166.953V163.302H257.04V166.953H246.087ZM242.436 163.302V156H246.087V163.302H242.436ZM257.04 163.302V156H260.692V163.302H257.04ZM246.087 156V152.349H257.04V156H246.087ZM242.436 152.349V148.698H246.087V152.349H242.436ZM246.087 148.698V145.047H253.389V148.698H246.087ZM242.436 145.047V137.744H246.087V145.047H242.436ZM253.389 145.047V137.744H257.04V145.047H253.389ZM246.087 137.744V134.093H253.389V137.744H246.087ZM257.04 137.744V134.093H260.692V137.744H257.04ZM268.578 152.349V145.047H272.229V152.349H268.578ZM272.229 156V152.349H283.183V145.047H272.229V141.395H283.183V137.744H286.834V156H272.229ZM272.229 137.744V134.093H283.183V137.744H272.229ZM328.165 156V130.442H317.212V126.791H342.77V130.442H331.816V156H328.165ZM354.307 156V137.744H350.656V134.093H357.959V156H354.307ZM354.307 126.791V123.14H357.959V126.791H354.307ZM380.45 156V137.744H384.101V156H380.45ZM387.752 156V137.744H391.403V156H387.752ZM373.147 156V134.093H380.45V137.744H376.799V156H373.147ZM384.101 137.744V134.093H387.752V137.744H384.101ZM402.941 156V152.349H413.894V156H402.941ZM399.29 152.349V137.744H402.941V152.349H399.29ZM413.894 152.349V137.744H417.546V152.349H413.894ZM402.941 137.744V134.093H413.894V137.744H402.941ZM425.432 156V152.349H440.037V156H425.432ZM440.037 152.349V148.698H443.688V152.349H440.037ZM436.386 148.698V145.047H440.037V148.698H436.386ZM429.083 145.047V141.395H436.386V145.047H429.083ZM425.432 141.395V137.744H429.083V141.395H425.432ZM429.083 137.744V134.093H443.688V137.744H429.083ZM466.179 156V137.744H469.83V156H466.179ZM451.574 156V123.14H455.226V134.093H466.179V137.744H455.226V156H451.574ZM477.717 152.349V134.093H481.368V152.349H477.717ZM481.368 156V152.349H492.321V134.093H495.973V156H481.368ZM518.464 156V152.349H522.115V156H518.464ZM514.813 152.349V148.698H518.464V152.349H514.813ZM514.813 141.395V137.744H518.464V141.395H514.813ZM518.464 137.744V134.093H522.115V137.744H518.464ZM503.859 156V123.14H507.51V145.047H511.161V141.395H514.813V148.698H507.51V156H503.859ZM567.097 163.302V159.651H570.748V163.302H567.097ZM563.446 159.651V152.349H567.097V159.651H563.446ZM559.795 152.349V134.093H563.446V152.349H559.795ZM563.446 134.093V126.791H567.097V134.093H563.446ZM567.097 126.791V123.14H570.748V126.791H567.097ZM585.937 156V152.349H600.542V156H585.937ZM582.286 152.349V148.698H585.937V152.349H582.286ZM585.937 145.047V137.744H589.588V145.047H585.937ZM578.635 148.698V134.093H582.286V148.698H578.635ZM589.588 148.698V145.047H593.24V137.744H589.588V134.093H596.891V145.047H600.542V148.698H589.588ZM600.542 145.047V134.093H604.193V145.047H600.542ZM582.286 134.093V130.442H585.937V134.093H582.286ZM596.891 134.093V130.442H600.542V134.093H596.891ZM585.937 130.442V126.791H596.891V130.442H585.937ZM623.033 156V137.744H626.684V156H623.033ZM608.428 156V123.14H612.08V134.093H623.033V137.744H612.08V156H608.428ZM638.222 156V152.349H649.175V156H638.222ZM649.175 152.349V148.698H652.827V152.349H649.175ZM634.571 152.349V137.744H638.222V141.395H649.175V137.744H652.827V145.047H638.222V152.349H634.571ZM638.222 137.744V134.093H649.175V137.744H638.222ZM664.364 166.953V163.302H668.015V166.953H664.364ZM668.015 163.302V152.349H671.667V163.302H668.015ZM664.364 152.349V141.395H668.015V152.349H664.364ZM671.667 152.349V141.395H675.318V152.349H671.667ZM660.713 141.395V134.093H664.364V141.395H660.713ZM675.318 141.395V134.093H678.969V141.395H675.318ZM690.507 156V152.349H701.46V156H690.507ZM686.855 152.349V137.744H690.507V152.349H686.855ZM701.46 152.349V137.744H705.111V152.349H701.46ZM690.507 137.744V134.093H701.46V137.744H690.507ZM723.951 156V152.349H727.602V156H723.951ZM720.3 152.349V126.791H716.649V123.14H723.951V152.349H720.3ZM742.791 156V152.349H753.745V156H742.791ZM753.745 152.349V148.698H757.396V152.349H753.745ZM739.14 152.349V137.744H742.791V141.395H753.745V137.744H757.396V145.047H742.791V152.349H739.14ZM742.791 137.744V134.093H753.745V137.744H742.791ZM765.282 152.349V145.047H768.934V152.349H765.282ZM768.934 156V152.349H779.887V145.047H768.934V141.395H779.887V137.744H783.538V156H768.934ZM768.934 137.744V134.093H779.887V137.744H768.934ZM795.076 163.302V159.651H798.727V163.302H795.076ZM798.727 159.651V152.349H802.378V159.651H798.727ZM802.378 152.349V134.093H806.029V152.349H802.378ZM798.727 134.093V126.791H802.378V134.093H798.727ZM795.076 126.791V123.14H798.727V126.791H795.076Z" fill="#252840"/>
<path d="M197.453 156H196.723V156.73H197.453V156ZM197.453 152.349V151.619H196.723V152.349H197.453ZM204.756 152.349H205.486V151.619H204.756V152.349ZM204.756 156V156.73H205.486V156H204.756ZM193.802 152.349H193.072V153.079H193.802V152.349ZM193.802 148.698V147.967H193.072V148.698H193.802ZM197.453 148.698H198.184V147.967H197.453V148.698ZM197.453 152.349V153.079H198.184V152.349H197.453ZM204.756 152.349H204.026V153.079H204.756V152.349ZM204.756 148.698V147.967H204.026V148.698H204.756ZM208.407 148.698H209.137V147.967H208.407V148.698ZM208.407 152.349V153.079H209.137V152.349H208.407ZM190.151 148.698H189.421V149.428H190.151V148.698ZM190.151 134.093V133.363H189.421V134.093H190.151ZM193.802 134.093H194.533V133.363H193.802V134.093ZM193.802 148.698V149.428H194.533V148.698H193.802ZM208.407 148.698H207.677V149.428H208.407V148.698ZM208.407 134.093V133.363H207.677V134.093H208.407ZM212.058 134.093H212.788V133.363H212.058V134.093ZM212.058 148.698V149.428H212.788V148.698H212.058ZM193.802 134.093H193.072V134.823H193.802V134.093ZM193.802 130.442V129.712H193.072V130.442H193.802ZM197.453 130.442H198.184V129.712H197.453V130.442ZM197.453 134.093V134.823H198.184V134.093H197.453ZM204.756 134.093H204.026V134.823H204.756V134.093ZM204.756 130.442V129.712H204.026V130.442H204.756ZM208.407 130.442H209.137V129.712H208.407V130.442ZM208.407 134.093V134.823H209.137V134.093H208.407ZM197.453 130.442H196.723V131.172H197.453V130.442ZM197.453 126.791V126.06H196.723V126.791H197.453ZM204.756 126.791H205.486V126.06H204.756V126.791ZM204.756 130.442V131.172H205.486V130.442H204.756ZM198.184 156V152.349H196.723V156H198.184ZM197.453 153.079H204.756V151.619H197.453V153.079ZM204.026 152.349V156H205.486V152.349H204.026ZM204.756 155.27H197.453V156.73H204.756V155.27ZM194.533 152.349V148.698H193.072V152.349H194.533ZM193.802 149.428H197.453V147.967H193.802V149.428ZM196.723 148.698V152.349H198.184V148.698H196.723ZM197.453 151.619H193.802V153.079H197.453V151.619ZM205.486 152.349V148.698H204.026V152.349H205.486ZM204.756 149.428H208.407V147.967H204.756V149.428ZM207.677 148.698V152.349H209.137V148.698H207.677ZM208.407 151.619H204.756V153.079H208.407V151.619ZM190.881 148.698V134.093H189.421V148.698H190.881ZM190.151 134.823H193.802V133.363H190.151V134.823ZM193.072 134.093V148.698H194.533V134.093H193.072ZM193.802 147.967H190.151V149.428H193.802V147.967ZM209.137 148.698V134.093H207.677V148.698H209.137ZM208.407 134.823H212.058V133.363H208.407V134.823ZM211.328 134.093V148.698H212.788V134.093H211.328ZM212.058 147.967H208.407V149.428H212.058V147.967ZM194.533 134.093V130.442H193.072V134.093H194.533ZM193.802 131.172H197.453V129.712H193.802V131.172ZM196.723 130.442V134.093H198.184V130.442H196.723ZM197.453 133.363H193.802V134.823H197.453V133.363ZM205.486 134.093V130.442H204.026V134.093H205.486ZM204.756 131.172H208.407V129.712H204.756V131.172ZM207.677 130.442V134.093H209.137V130.442H207.677ZM208.407 133.363H204.756V134.823H208.407V133.363ZM198.184 130.442V126.791H196.723V130.442H198.184ZM197.453 127.521H204.756V126.06H197.453V127.521ZM204.026 126.791V130.442H205.486V126.791H204.026ZM204.756 129.712H197.453V131.172H204.756V129.712ZM227.247 156H226.517V156.73H227.247V156ZM227.247 152.349V151.619H226.517V152.349H227.247ZM230.898 152.349H231.628V151.619H230.898V152.349ZM230.898 156V156.73H231.628V156H230.898ZM223.596 152.349H222.866V153.079H223.596V152.349ZM223.596 126.791H224.326V126.06H223.596V126.791ZM219.945 126.791H219.214V127.521H219.945V126.791ZM219.945 123.14V122.409H219.214V123.14H219.945ZM227.247 123.14H227.977V122.409H227.247V123.14ZM227.247 152.349V153.079H227.977V152.349H227.247ZM227.977 156V152.349H226.517V156H227.977ZM227.247 153.079H230.898V151.619H227.247V153.079ZM230.168 152.349V156H231.628V152.349H230.168ZM230.898 155.27H227.247V156.73H230.898V155.27ZM224.326 152.349V126.791H222.866V152.349H224.326ZM223.596 126.06H219.945V127.521H223.596V126.06ZM220.675 126.791V123.14H219.214V126.791H220.675ZM219.945 123.87H227.247V122.409H219.945V123.87ZM226.517 123.14V152.349H227.977V123.14H226.517ZM227.247 151.619H223.596V153.079H227.247V151.619ZM246.087 166.953H245.357V167.684H246.087V166.953ZM246.087 163.302V162.572H245.357V163.302H246.087ZM257.04 163.302H257.771V162.572H257.04V163.302ZM257.04 166.953V167.684H257.771V166.953H257.04ZM242.436 163.302H241.706V164.033H242.436V163.302ZM242.436 156V155.27H241.706V156H242.436ZM246.087 156H246.817V155.27H246.087V156ZM246.087 163.302V164.033H246.817V163.302H246.087ZM257.04 163.302H256.31V164.033H257.04V163.302ZM257.04 156V155.27H256.31V156H257.04ZM260.692 156H261.422V155.27H260.692V156ZM260.692 163.302V164.033H261.422V163.302H260.692ZM246.087 156H245.357V156.73H246.087V156ZM246.087 152.349V151.619H245.357V152.349H246.087ZM257.04 152.349H257.771V151.619H257.04V152.349ZM257.04 156V156.73H257.771V156H257.04ZM242.436 152.349H241.706V153.079H242.436V152.349ZM242.436 148.698V147.967H241.706V148.698H242.436ZM246.087 148.698H246.817V147.967H246.087V148.698ZM246.087 152.349V153.079H246.817V152.349H246.087ZM246.087 148.698H245.357V149.428H246.087V148.698ZM246.087 145.047V144.316H245.357V145.047H246.087ZM253.389 145.047H254.12V144.316H253.389V145.047ZM253.389 148.698V149.428H254.12V148.698H253.389ZM242.436 145.047H241.706V145.777H242.436V145.047ZM242.436 137.744V137.014H241.706V137.744H242.436ZM246.087 137.744H246.817V137.014H246.087V137.744ZM246.087 145.047V145.777H246.817V145.047H246.087ZM253.389 145.047H252.659V145.777H253.389V145.047ZM253.389 137.744V137.014H252.659V137.744H253.389ZM257.04 137.744H257.771V137.014H257.04V137.744ZM257.04 145.047V145.777H257.771V145.047H257.04ZM246.087 137.744H245.357V138.474H246.087V137.744ZM246.087 134.093V133.363H245.357V134.093H246.087ZM253.389 134.093H254.12V133.363H253.389V134.093ZM253.389 137.744V138.474H254.12V137.744H253.389ZM257.04 137.744H256.31V138.474H257.04V137.744ZM257.04 134.093V133.363H256.31V134.093H257.04ZM260.692 134.093H261.422V133.363H260.692V134.093ZM260.692 137.744V138.474H261.422V137.744H260.692ZM246.817 166.953V163.302H245.357V166.953H246.817ZM246.087 164.033H257.04V162.572H246.087V164.033ZM256.31 163.302V166.953H257.771V163.302H256.31ZM257.04 166.223H246.087V167.684H257.04V166.223ZM243.166 163.302V156H241.706V163.302H243.166ZM242.436 156.73H246.087V155.27H242.436V156.73ZM245.357 156V163.302H246.817V156H245.357ZM246.087 162.572H242.436V164.033H246.087V162.572ZM257.771 163.302V156H256.31V163.302H257.771ZM257.04 156.73H260.692V155.27H257.04V156.73ZM259.961 156V163.302H261.422V156H259.961ZM260.692 162.572H257.04V164.033H260.692V162.572ZM246.817 156V152.349H245.357V156H246.817ZM246.087 153.079H257.04V151.619H246.087V153.079ZM256.31 152.349V156H257.771V152.349H256.31ZM257.04 155.27H246.087V156.73H257.04V155.27ZM243.166 152.349V148.698H241.706V152.349H243.166ZM242.436 149.428H246.087V147.967H242.436V149.428ZM245.357 148.698V152.349H246.817V148.698H245.357ZM246.087 151.619H242.436V153.079H246.087V151.619ZM246.817 148.698V145.047H245.357V148.698H246.817ZM246.087 145.777H253.389V144.316H246.087V145.777ZM252.659 145.047V148.698H254.12V145.047H252.659ZM253.389 147.967H246.087V149.428H253.389V147.967ZM243.166 145.047V137.744H241.706V145.047H243.166ZM242.436 138.474H246.087V137.014H242.436V138.474ZM245.357 137.744V145.047H246.817V137.744H245.357ZM246.087 144.316H242.436V145.777H246.087V144.316ZM254.12 145.047V137.744H252.659V145.047H254.12ZM253.389 138.474H257.04V137.014H253.389V138.474ZM256.31 137.744V145.047H257.771V137.744H256.31ZM257.04 144.316H253.389V145.777H257.04V144.316ZM246.817 137.744V134.093H245.357V137.744H246.817ZM246.087 134.823H253.389V133.363H246.087V134.823ZM252.659 134.093V137.744H254.12V134.093H252.659ZM253.389 137.014H246.087V138.474H253.389V137.014ZM257.771 137.744V134.093H256.31V137.744H257.771ZM257.04 134.823H260.692V133.363H257.04V134.823ZM259.961 134.093V137.744H261.422V134.093H259.961ZM260.692 137.014H257.04V138.474H260.692V137.014ZM268.578 152.349H267.848V153.079H268.578V152.349ZM268.578 145.047V144.316H267.848V145.047H268.578ZM272.229 145.047H272.96V144.316H272.229V145.047ZM272.229 152.349V153.079H272.96V152.349H272.229ZM272.229 156H271.499V156.73H272.229V156ZM272.229 152.349V151.619H271.499V152.349H272.229ZM283.183 152.349V153.079H283.913V152.349H283.183ZM283.183 145.047H283.913V144.316H283.183V145.047ZM272.229 145.047H271.499V145.777H272.229V145.047ZM272.229 141.395V140.665H271.499V141.395H272.229ZM283.183 141.395V142.126H283.913V141.395H283.183ZM283.183 137.744V137.014H282.453V137.744H283.183ZM286.834 137.744H287.564V137.014H286.834V137.744ZM286.834 156V156.73H287.564V156H286.834ZM272.229 137.744H271.499V138.474H272.229V137.744ZM272.229 134.093V133.363H271.499V134.093H272.229ZM283.183 134.093H283.913V133.363H283.183V134.093ZM283.183 137.744V138.474H283.913V137.744H283.183ZM269.308 152.349V145.047H267.848V152.349H269.308ZM268.578 145.777H272.229V144.316H268.578V145.777ZM271.499 145.047V152.349H272.96V145.047H271.499ZM272.229 151.619H268.578V153.079H272.229V151.619ZM272.96 156V152.349H271.499V156H272.96ZM272.229 153.079H283.183V151.619H272.229V153.079ZM283.913 152.349V145.047H282.453V152.349H283.913ZM283.183 144.316H272.229V145.777H283.183V144.316ZM272.96 145.047V141.395H271.499V145.047H272.96ZM272.229 142.126H283.183V140.665H272.229V142.126ZM283.913 141.395V137.744H282.453V141.395H283.913ZM283.183 138.474H286.834V137.014H283.183V138.474ZM286.104 137.744V156H287.564V137.744H286.104ZM286.834 155.27H272.229V156.73H286.834V155.27ZM272.96 137.744V134.093H271.499V137.744H272.96ZM272.229 134.823H283.183V133.363H272.229V134.823ZM282.453 134.093V137.744H283.913V134.093H282.453ZM283.183 137.014H272.229V138.474H283.183V137.014ZM328.165 156H327.435V156.73H328.165V156ZM328.165 130.442H328.895V129.712H328.165V130.442ZM317.212 130.442H316.481V131.172H317.212V130.442ZM317.212 126.791V126.06H316.481V126.791H317.212ZM342.77 126.791H343.5V126.06H342.77V126.791ZM342.77 130.442V131.172H343.5V130.442H342.77ZM331.816 130.442V129.712H331.086V130.442H331.816ZM331.816 156V156.73H332.547V156H331.816ZM328.895 156V130.442H327.435V156H328.895ZM328.165 129.712H317.212V131.172H328.165V129.712ZM317.942 130.442V126.791H316.481V130.442H317.942ZM317.212 127.521H342.77V126.06H317.212V127.521ZM342.04 126.791V130.442H343.5V126.791H342.04ZM342.77 129.712H331.816V131.172H342.77V129.712ZM331.086 130.442V156H332.547V130.442H331.086ZM331.816 155.27H328.165V156.73H331.816V155.27ZM354.307 156H353.577V156.73H354.307V156ZM354.307 137.744H355.038V137.014H354.307V137.744ZM350.656 137.744H349.926V138.474H350.656V137.744ZM350.656 134.093V133.363H349.926V134.093H350.656ZM357.959 134.093H358.689V133.363H357.959V134.093ZM357.959 156V156.73H358.689V156H357.959ZM354.307 126.791H353.577V127.521H354.307V126.791ZM354.307 123.14V122.409H353.577V123.14H354.307ZM357.959 123.14H358.689V122.409H357.959V123.14ZM357.959 126.791V127.521H358.689V126.791H357.959ZM355.038 156V137.744H353.577V156H355.038ZM354.307 137.014H350.656V138.474H354.307V137.014ZM351.387 137.744V134.093H349.926V137.744H351.387ZM350.656 134.823H357.959V133.363H350.656V134.823ZM357.228 134.093V156H358.689V134.093H357.228ZM357.959 155.27H354.307V156.73H357.959V155.27ZM355.038 126.791V123.14H353.577V126.791H355.038ZM354.307 123.87H357.959V122.409H354.307V123.87ZM357.228 123.14V126.791H358.689V123.14H357.228ZM357.959 126.06H354.307V127.521H357.959V126.06ZM380.45 156H379.72V156.73H380.45V156ZM380.45 137.744V137.014H379.72V137.744H380.45ZM384.101 137.744H384.831V137.014H384.101V137.744ZM384.101 156V156.73H384.831V156H384.101ZM387.752 156H387.022V156.73H387.752V156ZM387.752 137.744V137.014H387.022V137.744H387.752ZM391.403 137.744H392.134V137.014H391.403V137.744ZM391.403 156V156.73H392.134V156H391.403ZM373.147 156H372.417V156.73H373.147V156ZM373.147 134.093V133.363H372.417V134.093H373.147ZM380.45 134.093H381.18V133.363H380.45V134.093ZM380.45 137.744V138.474H381.18V137.744H380.45ZM376.799 137.744V137.014H376.068V137.744H376.799ZM376.799 156V156.73H377.529V156H376.799ZM384.101 137.744H383.371V138.474H384.101V137.744ZM384.101 134.093V133.363H383.371V134.093H384.101ZM387.752 134.093H388.482V133.363H387.752V134.093ZM387.752 137.744V138.474H388.482V137.744H387.752ZM381.18 156V137.744H379.72V156H381.18ZM380.45 138.474H384.101V137.014H380.45V138.474ZM383.371 137.744V156H384.831V137.744H383.371ZM384.101 155.27H380.45V156.73H384.101V155.27ZM388.482 156V137.744H387.022V156H388.482ZM387.752 138.474H391.403V137.014H387.752V138.474ZM390.673 137.744V156H392.134V137.744H390.673ZM391.403 155.27H387.752V156.73H391.403V155.27ZM373.878 156V134.093H372.417V156H373.878ZM373.147 134.823H380.45V133.363H373.147V134.823ZM379.72 134.093V137.744H381.18V134.093H379.72ZM380.45 137.014H376.799V138.474H380.45V137.014ZM376.068 137.744V156H377.529V137.744H376.068ZM376.799 155.27H373.147V156.73H376.799V155.27ZM384.831 137.744V134.093H383.371V137.744H384.831ZM384.101 134.823H387.752V133.363H384.101V134.823ZM387.022 134.093V137.744H388.482V134.093H387.022ZM387.752 137.014H384.101V138.474H387.752V137.014ZM402.941 156H402.211V156.73H402.941V156ZM402.941 152.349V151.619H402.211V152.349H402.941ZM413.894 152.349H414.625V151.619H413.894V152.349ZM413.894 156V156.73H414.625V156H413.894ZM399.29 152.349H398.56V153.079H399.29V152.349ZM399.29 137.744V137.014H398.56V137.744H399.29ZM402.941 137.744H403.671V137.014H402.941V137.744ZM402.941 152.349V153.079H403.671V152.349H402.941ZM413.894 152.349H413.164V153.079H413.894V152.349ZM413.894 137.744V137.014H413.164V137.744H413.894ZM417.546 137.744H418.276V137.014H417.546V137.744ZM417.546 152.349V153.079H418.276V152.349H417.546ZM402.941 137.744H402.211V138.474H402.941V137.744ZM402.941 134.093V133.363H402.211V134.093H402.941ZM413.894 134.093H414.625V133.363H413.894V134.093ZM413.894 137.744V138.474H414.625V137.744H413.894ZM403.671 156V152.349H402.211V156H403.671ZM402.941 153.079H413.894V151.619H402.941V153.079ZM413.164 152.349V156H414.625V152.349H413.164ZM413.894 155.27H402.941V156.73H413.894V155.27ZM400.02 152.349V137.744H398.56V152.349H400.02ZM399.29 138.474H402.941V137.014H399.29V138.474ZM402.211 137.744V152.349H403.671V137.744H402.211ZM402.941 151.619H399.29V153.079H402.941V151.619ZM414.625 152.349V137.744H413.164V152.349H414.625ZM413.894 138.474H417.546V137.014H413.894V138.474ZM416.815 137.744V152.349H418.276V137.744H416.815ZM417.546 151.619H413.894V153.079H417.546V151.619ZM403.671 137.744V134.093H402.211V137.744H403.671ZM402.941 134.823H413.894V133.363H402.941V134.823ZM413.164 134.093V137.744H414.625V134.093H413.164ZM413.894 137.014H402.941V138.474H413.894V137.014ZM425.432 156H424.702V156.73H425.432V156ZM425.432 152.349V151.619H424.702V152.349H425.432ZM440.037 152.349H440.767V151.619H440.037V152.349ZM440.037 156V156.73H440.767V156H440.037ZM440.037 152.349H439.307V153.079H440.037V152.349ZM440.037 148.698V147.967H439.307V148.698H440.037ZM443.688 148.698H444.418V147.967H443.688V148.698ZM443.688 152.349V153.079H444.418V152.349H443.688ZM436.386 148.698H435.655V149.428H436.386V148.698ZM436.386 145.047V144.316H435.655V145.047H436.386ZM440.037 145.047H440.767V144.316H440.037V145.047ZM440.037 148.698V149.428H440.767V148.698H440.037ZM429.083 145.047H428.353V145.777H429.083V145.047ZM429.083 141.395V140.665H428.353V141.395H429.083ZM436.386 141.395H437.116V140.665H436.386V141.395ZM436.386 145.047V145.777H437.116V145.047H436.386ZM425.432 141.395H424.702V142.126H425.432V141.395ZM425.432 137.744V137.014H424.702V137.744H425.432ZM429.083 137.744H429.814V137.014H429.083V137.744ZM429.083 141.395V142.126H429.814V141.395H429.083ZM429.083 137.744H428.353V138.474H429.083V137.744ZM429.083 134.093V133.363H428.353V134.093H429.083ZM443.688 134.093H444.418V133.363H443.688V134.093ZM443.688 137.744V138.474H444.418V137.744H443.688ZM426.162 156V152.349H424.702V156H426.162ZM425.432 153.079H440.037V151.619H425.432V153.079ZM439.307 152.349V156H440.767V152.349H439.307ZM440.037 155.27H425.432V156.73H440.037V155.27ZM440.767 152.349V148.698H439.307V152.349H440.767ZM440.037 149.428H443.688V147.967H440.037V149.428ZM442.958 148.698V152.349H444.418V148.698H442.958ZM443.688 151.619H440.037V153.079H443.688V151.619ZM437.116 148.698V145.047H435.655V148.698H437.116ZM436.386 145.777H440.037V144.316H436.386V145.777ZM439.307 145.047V148.698H440.767V145.047H439.307ZM440.037 147.967H436.386V149.428H440.037V147.967ZM429.814 145.047V141.395H428.353V145.047H429.814ZM429.083 142.126H436.386V140.665H429.083V142.126ZM435.655 141.395V145.047H437.116V141.395H435.655ZM436.386 144.316H429.083V145.777H436.386V144.316ZM426.162 141.395V137.744H424.702V141.395H426.162ZM425.432 138.474H429.083V137.014H425.432V138.474ZM428.353 137.744V141.395H429.814V137.744H428.353ZM429.083 140.665H425.432V142.126H429.083V140.665ZM429.814 137.744V134.093H428.353V137.744H429.814ZM429.083 134.823H443.688V133.363H429.083V134.823ZM442.958 134.093V137.744H444.418V134.093H442.958ZM443.688 137.014H429.083V138.474H443.688V137.014ZM466.179 156H465.449V156.73H466.179V156ZM466.179 137.744V137.014H465.449V137.744H466.179ZM469.83 137.744H470.56V137.014H469.83V137.744ZM469.83 156V156.73H470.56V156H469.83ZM451.574 156H450.844V156.73H451.574V156ZM451.574 123.14V122.409H450.844V123.14H451.574ZM455.226 123.14H455.956V122.409H455.226V123.14ZM455.226 134.093H454.495V134.823H455.226V134.093ZM466.179 134.093H466.909V133.363H466.179V134.093ZM466.179 137.744V138.474H466.909V137.744H466.179ZM455.226 137.744V137.014H454.495V137.744H455.226ZM455.226 156V156.73H455.956V156H455.226ZM466.909 156V137.744H465.449V156H466.909ZM466.179 138.474H469.83V137.014H466.179V138.474ZM469.1 137.744V156H470.56V137.744H469.1ZM469.83 155.27H466.179V156.73H469.83V155.27ZM452.305 156V123.14H450.844V156H452.305ZM451.574 123.87H455.226V122.409H451.574V123.87ZM454.495 123.14V134.093H455.956V123.14H454.495ZM455.226 134.823H466.179V133.363H455.226V134.823ZM465.449 134.093V137.744H466.909V134.093H465.449ZM466.179 137.014H455.226V138.474H466.179V137.014ZM454.495 137.744V156H455.956V137.744H454.495ZM455.226 155.27H451.574V156.73H455.226V155.27ZM477.717 152.349H476.987V153.079H477.717V152.349ZM477.717 134.093V133.363H476.987V134.093H477.717ZM481.368 134.093H482.098V133.363H481.368V134.093ZM481.368 152.349V153.079H482.098V152.349H481.368ZM481.368 156H480.638V156.73H481.368V156ZM481.368 152.349V151.619H480.638V152.349H481.368ZM492.321 152.349V153.079H493.052V152.349H492.321ZM492.321 134.093V133.363H491.591V134.093H492.321ZM495.973 134.093H496.703V133.363H495.973V134.093ZM495.973 156V156.73H496.703V156H495.973ZM478.447 152.349V134.093H476.987V152.349H478.447ZM477.717 134.823H481.368V133.363H477.717V134.823ZM480.638 134.093V152.349H482.098V134.093H480.638ZM481.368 151.619H477.717V153.079H481.368V151.619ZM482.098 156V152.349H480.638V156H482.098ZM481.368 153.079H492.321V151.619H481.368V153.079ZM493.052 152.349V134.093H491.591V152.349H493.052ZM492.321 134.823H495.973V133.363H492.321V134.823ZM495.242 134.093V156H496.703V134.093H495.242ZM495.973 155.27H481.368V156.73H495.973V155.27ZM518.464 156H517.734V156.73H518.464V156ZM518.464 152.349V151.619H517.734V152.349H518.464ZM522.115 152.349H522.845V151.619H522.115V152.349ZM522.115 156V156.73H522.845V156H522.115ZM514.813 152.349H514.082V153.079H514.813V152.349ZM514.813 148.698V147.967H514.082V148.698H514.813ZM518.464 148.698H519.194V147.967H518.464V148.698ZM518.464 152.349V153.079H519.194V152.349H518.464ZM514.813 141.395H514.082V142.126H514.813V141.395ZM514.813 137.744V137.014H514.082V137.744H514.813ZM518.464 137.744H519.194V137.014H518.464V137.744ZM518.464 141.395V142.126H519.194V141.395H518.464ZM518.464 137.744H517.734V138.474H518.464V137.744ZM518.464 134.093V133.363H517.734V134.093H518.464ZM522.115 134.093H522.845V133.363H522.115V134.093ZM522.115 137.744V138.474H522.845V137.744H522.115ZM503.859 156H503.129V156.73H503.859V156ZM503.859 123.14V122.409H503.129V123.14H503.859ZM507.51 123.14H508.241V122.409H507.51V123.14ZM507.51 145.047H506.78V145.777H507.51V145.047ZM511.161 145.047V145.777H511.892V145.047H511.161ZM511.161 141.395V140.665H510.431V141.395H511.161ZM514.813 141.395H515.543V140.665H514.813V141.395ZM514.813 148.698V149.428H515.543V148.698H514.813ZM507.51 148.698V147.967H506.78V148.698H507.51ZM507.51 156V156.73H508.241V156H507.51ZM519.194 156V152.349H517.734V156H519.194ZM518.464 153.079H522.115V151.619H518.464V153.079ZM521.385 152.349V156H522.845V152.349H521.385ZM522.115 155.27H518.464V156.73H522.115V155.27ZM515.543 152.349V148.698H514.082V152.349H515.543ZM514.813 149.428H518.464V147.967H514.813V149.428ZM517.734 148.698V152.349H519.194V148.698H517.734ZM518.464 151.619H514.813V153.079H518.464V151.619ZM515.543 141.395V137.744H514.082V141.395H515.543ZM514.813 138.474H518.464V137.014H514.813V138.474ZM517.734 137.744V141.395H519.194V137.744H517.734ZM518.464 140.665H514.813V142.126H518.464V140.665ZM519.194 137.744V134.093H517.734V137.744H519.194ZM518.464 134.823H522.115V133.363H518.464V134.823ZM521.385 134.093V137.744H522.845V134.093H521.385ZM522.115 137.014H518.464V138.474H522.115V137.014ZM504.589 156V123.14H503.129V156H504.589ZM503.859 123.87H507.51V122.409H503.859V123.87ZM506.78 123.14V145.047H508.241V123.14H506.78ZM507.51 145.777H511.161V144.316H507.51V145.777ZM511.892 145.047V141.395H510.431V145.047H511.892ZM511.161 142.126H514.813V140.665H511.161V142.126ZM514.082 141.395V148.698H515.543V141.395H514.082ZM514.813 147.967H507.51V149.428H514.813V147.967ZM506.78 148.698V156H508.241V148.698H506.78ZM507.51 155.27H503.859V156.73H507.51V155.27ZM567.097 163.302H566.367V164.033H567.097V163.302ZM567.097 159.651V158.921H566.367V159.651H567.097ZM570.748 159.651H571.479V158.921H570.748V159.651ZM570.748 163.302V164.033H571.479V163.302H570.748ZM563.446 159.651H562.716V160.381H563.446V159.651ZM563.446 152.349V151.619H562.716V152.349H563.446ZM567.097 152.349H567.827V151.619H567.097V152.349ZM567.097 159.651V160.381H567.827V159.651H567.097ZM559.795 152.349H559.065V153.079H559.795V152.349ZM559.795 134.093V133.363H559.065V134.093H559.795ZM563.446 134.093H564.176V133.363H563.446V134.093ZM563.446 152.349V153.079H564.176V152.349H563.446ZM563.446 134.093H562.716V134.823H563.446V134.093ZM563.446 126.791V126.06H562.716V126.791H563.446ZM567.097 126.791H567.827V126.06H567.097V126.791ZM567.097 134.093V134.823H567.827V134.093H567.097ZM567.097 126.791H566.367V127.521H567.097V126.791ZM567.097 123.14V122.409H566.367V123.14H567.097ZM570.748 123.14H571.479V122.409H570.748V123.14ZM570.748 126.791V127.521H571.479V126.791H570.748ZM567.827 163.302V159.651H566.367V163.302H567.827ZM567.097 160.381H570.748V158.921H567.097V160.381ZM570.018 159.651V163.302H571.479V159.651H570.018ZM570.748 162.572H567.097V164.033H570.748V162.572ZM564.176 159.651V152.349H562.716V159.651H564.176ZM563.446 153.079H567.097V151.619H563.446V153.079ZM566.367 152.349V159.651H567.827V152.349H566.367ZM567.097 158.921H563.446V160.381H567.097V158.921ZM560.525 152.349V134.093H559.065V152.349H560.525ZM559.795 134.823H563.446V133.363H559.795V134.823ZM562.716 134.093V152.349H564.176V134.093H562.716ZM563.446 151.619H559.795V153.079H563.446V151.619ZM564.176 134.093V126.791H562.716V134.093H564.176ZM563.446 127.521H567.097V126.06H563.446V127.521ZM566.367 126.791V134.093H567.827V126.791H566.367ZM567.097 133.363H563.446V134.823H567.097V133.363ZM567.827 126.791V123.14H566.367V126.791H567.827ZM567.097 123.87H570.748V122.409H567.097V123.87ZM570.018 123.14V126.791H571.479V123.14H570.018ZM570.748 126.06H567.097V127.521H570.748V126.06ZM585.937 156H585.207V156.73H585.937V156ZM585.937 152.349V151.619H585.207V152.349H585.937ZM600.542 152.349H601.272V151.619H600.542V152.349ZM600.542 156V156.73H601.272V156H600.542ZM582.286 152.349H581.556V153.079H582.286V152.349ZM582.286 148.698V147.967H581.556V148.698H582.286ZM585.937 148.698H586.667V147.967H585.937V148.698ZM585.937 152.349V153.079H586.667V152.349H585.937ZM585.937 145.047H585.207V145.777H585.937V145.047ZM585.937 137.744V137.014H585.207V137.744H585.937ZM589.588 137.744H590.319V137.014H589.588V137.744ZM589.588 145.047V145.777H590.319V145.047H589.588ZM578.635 148.698H577.905V149.428H578.635V148.698ZM578.635 134.093V133.363H577.905V134.093H578.635ZM582.286 134.093H583.016V133.363H582.286V134.093ZM582.286 148.698V149.428H583.016V148.698H582.286ZM589.588 148.698H588.858V149.428H589.588V148.698ZM589.588 145.047V144.316H588.858V145.047H589.588ZM593.24 145.047V145.777H593.97V145.047H593.24ZM593.24 137.744H593.97V137.014H593.24V137.744ZM589.588 137.744H588.858V138.474H589.588V137.744ZM589.588 134.093V133.363H588.858V134.093H589.588ZM596.891 134.093H597.621V133.363H596.891V134.093ZM596.891 145.047H596.161V145.777H596.891V145.047ZM600.542 145.047H601.272V144.316H600.542V145.047ZM600.542 148.698V149.428H601.272V148.698H600.542ZM600.542 145.047H599.812V145.777H600.542V145.047ZM600.542 134.093V133.363H599.812V134.093H600.542ZM604.193 134.093H604.923V133.363H604.193V134.093ZM604.193 145.047V145.777H604.923V145.047H604.193ZM582.286 134.093H581.556V134.823H582.286V134.093ZM582.286 130.442V129.712H581.556V130.442H582.286ZM585.937 130.442H586.667V129.712H585.937V130.442ZM585.937 134.093V134.823H586.667V134.093H585.937ZM596.891 134.093H596.161V134.823H596.891V134.093ZM596.891 130.442V129.712H596.161V130.442H596.891ZM600.542 130.442H601.272V129.712H600.542V130.442ZM600.542 134.093V134.823H601.272V134.093H600.542ZM585.937 130.442H585.207V131.172H585.937V130.442ZM585.937 126.791V126.06H585.207V126.791H585.937ZM596.891 126.791H597.621V126.06H596.891V126.791ZM596.891 130.442V131.172H597.621V130.442H596.891ZM586.667 156V152.349H585.207V156H586.667ZM585.937 153.079H600.542V151.619H585.937V153.079ZM599.812 152.349V156H601.272V152.349H599.812ZM600.542 155.27H585.937V156.73H600.542V155.27ZM583.016 152.349V148.698H581.556V152.349H583.016ZM582.286 149.428H585.937V147.967H582.286V149.428ZM585.207 148.698V152.349H586.667V148.698H585.207ZM585.937 151.619H582.286V153.079H585.937V151.619ZM586.667 145.047V137.744H585.207V145.047H586.667ZM585.937 138.474H589.588V137.014H585.937V138.474ZM588.858 137.744V145.047H590.319V137.744H588.858ZM589.588 144.316H585.937V145.777H589.588V144.316ZM579.365 148.698V134.093H577.905V148.698H579.365ZM578.635 134.823H582.286V133.363H578.635V134.823ZM581.556 134.093V148.698H583.016V134.093H581.556ZM582.286 147.967H578.635V149.428H582.286V147.967ZM590.319 148.698V145.047H588.858V148.698H590.319ZM589.588 145.777H593.24V144.316H589.588V145.777ZM593.97 145.047V137.744H592.509V145.047H593.97ZM593.24 137.014H589.588V138.474H593.24V137.014ZM590.319 137.744V134.093H588.858V137.744H590.319ZM589.588 134.823H596.891V133.363H589.588V134.823ZM596.161 134.093V145.047H597.621V134.093H596.161ZM596.891 145.777H600.542V144.316H596.891V145.777ZM599.812 145.047V148.698H601.272V145.047H599.812ZM600.542 147.967H589.588V149.428H600.542V147.967ZM601.272 145.047V134.093H599.812V145.047H601.272ZM600.542 134.823H604.193V133.363H600.542V134.823ZM603.463 134.093V145.047H604.923V134.093H603.463ZM604.193 144.316H600.542V145.777H604.193V144.316ZM583.016 134.093V130.442H581.556V134.093H583.016ZM582.286 131.172H585.937V129.712H582.286V131.172ZM585.207 130.442V134.093H586.667V130.442H585.207ZM585.937 133.363H582.286V134.823H585.937V133.363ZM597.621 134.093V130.442H596.161V134.093H597.621ZM596.891 131.172H600.542V129.712H596.891V131.172ZM599.812 130.442V134.093H601.272V130.442H599.812ZM600.542 133.363H596.891V134.823H600.542V133.363ZM586.667 130.442V126.791H585.207V130.442H586.667ZM585.937 127.521H596.891V126.06H585.937V127.521ZM596.161 126.791V130.442H597.621V126.791H596.161ZM596.891 129.712H585.937V131.172H596.891V129.712ZM623.033 156H622.303V156.73H623.033V156ZM623.033 137.744V137.014H622.303V137.744H623.033ZM626.684 137.744H627.414V137.014H626.684V137.744ZM626.684 156V156.73H627.414V156H626.684ZM608.428 156H607.698V156.73H608.428V156ZM608.428 123.14V122.409H607.698V123.14H608.428ZM612.08 123.14H612.81V122.409H612.08V123.14ZM612.08 134.093H611.349V134.823H612.08V134.093ZM623.033 134.093H623.763V133.363H623.033V134.093ZM623.033 137.744V138.474H623.763V137.744H623.033ZM612.08 137.744V137.014H611.349V137.744H612.08ZM612.08 156V156.73H612.81V156H612.08ZM623.763 156V137.744H622.303V156H623.763ZM623.033 138.474H626.684V137.014H623.033V138.474ZM625.954 137.744V156H627.414V137.744H625.954ZM626.684 155.27H623.033V156.73H626.684V155.27ZM609.159 156V123.14H607.698V156H609.159ZM608.428 123.87H612.08V122.409H608.428V123.87ZM611.349 123.14V134.093H612.81V123.14H611.349ZM612.08 134.823H623.033V133.363H612.08V134.823ZM622.303 134.093V137.744H623.763V134.093H622.303ZM623.033 137.014H612.08V138.474H623.033V137.014ZM611.349 137.744V156H612.81V137.744H611.349ZM612.08 155.27H608.428V156.73H612.08V155.27ZM638.222 156H637.492V156.73H638.222V156ZM638.222 152.349V151.619H637.492V152.349H638.222ZM649.175 152.349H649.906V151.619H649.175V152.349ZM649.175 156V156.73H649.906V156H649.175ZM649.175 152.349H648.445V153.079H649.175V152.349ZM649.175 148.698V147.967H648.445V148.698H649.175ZM652.827 148.698H653.557V147.967H652.827V148.698ZM652.827 152.349V153.079H653.557V152.349H652.827ZM634.571 152.349H633.841V153.079H634.571V152.349ZM634.571 137.744V137.014H633.841V137.744H634.571ZM638.222 137.744H638.952V137.014H638.222V137.744ZM638.222 141.395H637.492V142.126H638.222V141.395ZM649.175 141.395V142.126H649.906V141.395H649.175ZM649.175 137.744V137.014H648.445V137.744H649.175ZM652.827 137.744H653.557V137.014H652.827V137.744ZM652.827 145.047V145.777H653.557V145.047H652.827ZM638.222 145.047V144.316H637.492V145.047H638.222ZM638.222 152.349V153.079H638.952V152.349H638.222ZM638.222 137.744H637.492V138.474H638.222V137.744ZM638.222 134.093V133.363H637.492V134.093H638.222ZM649.175 134.093H649.906V133.363H649.175V134.093ZM649.175 137.744V138.474H649.906V137.744H649.175ZM638.952 156V152.349H637.492V156H638.952ZM638.222 153.079H649.175V151.619H638.222V153.079ZM648.445 152.349V156H649.906V152.349H648.445ZM649.175 155.27H638.222V156.73H649.175V155.27ZM649.906 152.349V148.698H648.445V152.349H649.906ZM649.175 149.428H652.827V147.967H649.175V149.428ZM652.096 148.698V152.349H653.557V148.698H652.096ZM652.827 151.619H649.175V153.079H652.827V151.619ZM635.301 152.349V137.744H633.841V152.349H635.301ZM634.571 138.474H638.222V137.014H634.571V138.474ZM637.492 137.744V141.395H638.952V137.744H637.492ZM638.222 142.126H649.175V140.665H638.222V142.126ZM649.906 141.395V137.744H648.445V141.395H649.906ZM649.175 138.474H652.827V137.014H649.175V138.474ZM652.096 137.744V145.047H653.557V137.744H652.096ZM652.827 144.316H638.222V145.777H652.827V144.316ZM637.492 145.047V152.349H638.952V145.047H637.492ZM638.222 151.619H634.571V153.079H638.222V151.619ZM638.952 137.744V134.093H637.492V137.744H638.952ZM638.222 134.823H649.175V133.363H638.222V134.823ZM648.445 134.093V137.744H649.906V134.093H648.445ZM649.175 137.014H638.222V138.474H649.175V137.014ZM664.364 166.953H663.634V167.684H664.364V166.953ZM664.364 163.302V162.572H663.634V163.302H664.364ZM668.015 163.302H668.746V162.572H668.015V163.302ZM668.015 166.953V167.684H668.746V166.953H668.015ZM668.015 163.302H667.285V164.033H668.015V163.302ZM668.015 152.349V151.619H667.285V152.349H668.015ZM671.667 152.349H672.397V151.619H671.667V152.349ZM671.667 163.302V164.033H672.397V163.302H671.667ZM664.364 152.349H663.634V153.079H664.364V152.349ZM664.364 141.395V140.665H663.634V141.395H664.364ZM668.015 141.395H668.746V140.665H668.015V141.395ZM668.015 152.349V153.079H668.746V152.349H668.015ZM671.667 152.349H670.936V153.079H671.667V152.349ZM671.667 141.395V140.665H670.936V141.395H671.667ZM675.318 141.395H676.048V140.665H675.318V141.395ZM675.318 152.349V153.079H676.048V152.349H675.318ZM660.713 141.395H659.983V142.126H660.713V141.395ZM660.713 134.093V133.363H659.983V134.093H660.713ZM664.364 134.093H665.094V133.363H664.364V134.093ZM664.364 141.395V142.126H665.094V141.395H664.364ZM675.318 141.395H674.587V142.126H675.318V141.395ZM675.318 134.093V133.363H674.587V134.093H675.318ZM678.969 134.093H679.699V133.363H678.969V134.093ZM678.969 141.395V142.126H679.699V141.395H678.969ZM665.094 166.953V163.302H663.634V166.953H665.094ZM664.364 164.033H668.015V162.572H664.364V164.033ZM667.285 163.302V166.953H668.746V163.302H667.285ZM668.015 166.223H664.364V167.684H668.015V166.223ZM668.746 163.302V152.349H667.285V163.302H668.746ZM668.015 153.079H671.667V151.619H668.015V153.079ZM670.936 152.349V163.302H672.397V152.349H670.936ZM671.667 162.572H668.015V164.033H671.667V162.572ZM665.094 152.349V141.395H663.634V152.349H665.094ZM664.364 142.126H668.015V140.665H664.364V142.126ZM667.285 141.395V152.349H668.746V141.395H667.285ZM668.015 151.619H664.364V153.079H668.015V151.619ZM672.397 152.349V141.395H670.936V152.349H672.397ZM671.667 142.126H675.318V140.665H671.667V142.126ZM674.587 141.395V152.349H676.048V141.395H674.587ZM675.318 151.619H671.667V153.079H675.318V151.619ZM661.443 141.395V134.093H659.983V141.395H661.443ZM660.713 134.823H664.364V133.363H660.713V134.823ZM663.634 134.093V141.395H665.094V134.093H663.634ZM664.364 140.665H660.713V142.126H664.364V140.665ZM676.048 141.395V134.093H674.587V141.395H676.048ZM675.318 134.823H678.969V133.363H675.318V134.823ZM678.239 134.093V141.395H679.699V134.093H678.239ZM678.969 140.665H675.318V142.126H678.969V140.665ZM690.507 156H689.776V156.73H690.507V156ZM690.507 152.349V151.619H689.776V152.349H690.507ZM701.46 152.349H702.19V151.619H701.46V152.349ZM701.46 156V156.73H702.19V156H701.46ZM686.855 152.349H686.125V153.079H686.855V152.349ZM686.855 137.744V137.014H686.125V137.744H686.855ZM690.507 137.744H691.237V137.014H690.507V137.744ZM690.507 152.349V153.079H691.237V152.349H690.507ZM701.46 152.349H700.73V153.079H701.46V152.349ZM701.46 137.744V137.014H700.73V137.744H701.46ZM705.111 137.744H705.841V137.014H705.111V137.744ZM705.111 152.349V153.079H705.841V152.349H705.111ZM690.507 137.744H689.776V138.474H690.507V137.744ZM690.507 134.093V133.363H689.776V134.093H690.507ZM701.46 134.093H702.19V133.363H701.46V134.093ZM701.46 137.744V138.474H702.19V137.744H701.46ZM691.237 156V152.349H689.776V156H691.237ZM690.507 153.079H701.46V151.619H690.507V153.079ZM700.73 152.349V156H702.19V152.349H700.73ZM701.46 155.27H690.507V156.73H701.46V155.27ZM687.586 152.349V137.744H686.125V152.349H687.586ZM686.855 138.474H690.507V137.014H686.855V138.474ZM689.776 137.744V152.349H691.237V137.744H689.776ZM690.507 151.619H686.855V153.079H690.507V151.619ZM702.19 152.349V137.744H700.73V152.349H702.19ZM701.46 138.474H705.111V137.014H701.46V138.474ZM704.381 137.744V152.349H705.841V137.744H704.381ZM705.111 151.619H701.46V153.079H705.111V151.619ZM691.237 137.744V134.093H689.776V137.744H691.237ZM690.507 134.823H701.46V133.363H690.507V134.823ZM700.73 134.093V137.744H702.19V134.093H700.73ZM701.46 137.014H690.507V138.474H701.46V137.014ZM723.951 156H723.221V156.73H723.951V156ZM723.951 152.349V151.619H723.221V152.349H723.951ZM727.602 152.349H728.333V151.619H727.602V152.349ZM727.602 156V156.73H728.333V156H727.602ZM720.3 152.349H719.57V153.079H720.3V152.349ZM720.3 126.791H721.03V126.06H720.3V126.791ZM716.649 126.791H715.919V127.521H716.649V126.791ZM716.649 123.14V122.409H715.919V123.14H716.649ZM723.951 123.14H724.681V122.409H723.951V123.14ZM723.951 152.349V153.079H724.681V152.349H723.951ZM724.681 156V152.349H723.221V156H724.681ZM723.951 153.079H727.602V151.619H723.951V153.079ZM726.872 152.349V156H728.333V152.349H726.872ZM727.602 155.27H723.951V156.73H727.602V155.27ZM721.03 152.349V126.791H719.57V152.349H721.03ZM720.3 126.06H716.649V127.521H720.3V126.06ZM717.379 126.791V123.14H715.919V126.791H717.379ZM716.649 123.87H723.951V122.409H716.649V123.87ZM723.221 123.14V152.349H724.681V123.14H723.221ZM723.951 151.619H720.3V153.079H723.951V151.619ZM742.791 156H742.061V156.73H742.791V156ZM742.791 152.349V151.619H742.061V152.349H742.791ZM753.745 152.349H754.475V151.619H753.745V152.349ZM753.745 156V156.73H754.475V156H753.745ZM753.745 152.349H753.014V153.079H753.745V152.349ZM753.745 148.698V147.967H753.014V148.698H753.745ZM757.396 148.698H758.126V147.967H757.396V148.698ZM757.396 152.349V153.079H758.126V152.349H757.396ZM739.14 152.349H738.41V153.079H739.14V152.349ZM739.14 137.744V137.014H738.41V137.744H739.14ZM742.791 137.744H743.521V137.014H742.791V137.744ZM742.791 141.395H742.061V142.126H742.791V141.395ZM753.745 141.395V142.126H754.475V141.395H753.745ZM753.745 137.744V137.014H753.014V137.744H753.745ZM757.396 137.744H758.126V137.014H757.396V137.744ZM757.396 145.047V145.777H758.126V145.047H757.396ZM742.791 145.047V144.316H742.061V145.047H742.791ZM742.791 152.349V153.079H743.521V152.349H742.791ZM742.791 137.744H742.061V138.474H742.791V137.744ZM742.791 134.093V133.363H742.061V134.093H742.791ZM753.745 134.093H754.475V133.363H753.745V134.093ZM753.745 137.744V138.474H754.475V137.744H753.745ZM743.521 156V152.349H742.061V156H743.521ZM742.791 153.079H753.745V151.619H742.791V153.079ZM753.014 152.349V156H754.475V152.349H753.014ZM753.745 155.27H742.791V156.73H753.745V155.27ZM754.475 152.349V148.698H753.014V152.349H754.475ZM753.745 149.428H757.396V147.967H753.745V149.428ZM756.666 148.698V152.349H758.126V148.698H756.666ZM757.396 151.619H753.745V153.079H757.396V151.619ZM739.87 152.349V137.744H738.41V152.349H739.87ZM739.14 138.474H742.791V137.014H739.14V138.474ZM742.061 137.744V141.395H743.521V137.744H742.061ZM742.791 142.126H753.745V140.665H742.791V142.126ZM754.475 141.395V137.744H753.014V141.395H754.475ZM753.745 138.474H757.396V137.014H753.745V138.474ZM756.666 137.744V145.047H758.126V137.744H756.666ZM757.396 144.316H742.791V145.777H757.396V144.316ZM742.061 145.047V152.349H743.521V145.047H742.061ZM742.791 151.619H739.14V153.079H742.791V151.619ZM743.521 137.744V134.093H742.061V137.744H743.521ZM742.791 134.823H753.745V133.363H742.791V134.823ZM753.014 134.093V137.744H754.475V134.093H753.014ZM753.745 137.014H742.791V138.474H753.745V137.014ZM765.282 152.349H764.552V153.079H765.282V152.349ZM765.282 145.047V144.316H764.552V145.047H765.282ZM768.934 145.047H769.664V144.316H768.934V145.047ZM768.934 152.349V153.079H769.664V152.349H768.934ZM768.934 156H768.203V156.73H768.934V156ZM768.934 152.349V151.619H768.203V152.349H768.934ZM779.887 152.349V153.079H780.617V152.349H779.887ZM779.887 145.047H780.617V144.316H779.887V145.047ZM768.934 145.047H768.203V145.777H768.934V145.047ZM768.934 141.395V140.665H768.203V141.395H768.934ZM779.887 141.395V142.126H780.617V141.395H779.887ZM779.887 137.744V137.014H779.157V137.744H779.887ZM783.538 137.744H784.268V137.014H783.538V137.744ZM783.538 156V156.73H784.268V156H783.538ZM768.934 137.744H768.203V138.474H768.934V137.744ZM768.934 134.093V133.363H768.203V134.093H768.934ZM779.887 134.093H780.617V133.363H779.887V134.093ZM779.887 137.744V138.474H780.617V137.744H779.887ZM766.013 152.349V145.047H764.552V152.349H766.013ZM765.282 145.777H768.934V144.316H765.282V145.777ZM768.203 145.047V152.349H769.664V145.047H768.203ZM768.934 151.619H765.282V153.079H768.934V151.619ZM769.664 156V152.349H768.203V156H769.664ZM768.934 153.079H779.887V151.619H768.934V153.079ZM780.617 152.349V145.047H779.157V152.349H780.617ZM779.887 144.316H768.934V145.777H779.887V144.316ZM769.664 145.047V141.395H768.203V145.047H769.664ZM768.934 142.126H779.887V140.665H768.934V142.126ZM780.617 141.395V137.744H779.157V141.395H780.617ZM779.887 138.474H783.538V137.014H779.887V138.474ZM782.808 137.744V156H784.268V137.744H782.808ZM783.538 155.27H768.934V156.73H783.538V155.27ZM769.664 137.744V134.093H768.203V137.744H769.664ZM768.934 134.823H779.887V133.363H768.934V134.823ZM779.157 134.093V137.744H780.617V134.093H779.157ZM779.887 137.014H768.934V138.474H779.887V137.014ZM795.076 163.302H794.346V164.033H795.076V163.302ZM795.076 159.651V158.921H794.346V159.651H795.076ZM798.727 159.651H799.457V158.921H798.727V159.651ZM798.727 163.302V164.033H799.457V163.302H798.727ZM798.727 159.651H797.997V160.381H798.727V159.651ZM798.727 152.349V151.619H797.997V152.349H798.727ZM802.378 152.349H803.108V151.619H802.378V152.349ZM802.378 159.651V160.381H803.108V159.651H802.378ZM802.378 152.349H801.648V153.079H802.378V152.349ZM802.378 134.093V133.363H801.648V134.093H802.378ZM806.029 134.093H806.76V133.363H806.029V134.093ZM806.029 152.349V153.079H806.76V152.349H806.029ZM798.727 134.093H797.997V134.823H798.727V134.093ZM798.727 126.791V126.06H797.997V126.791H798.727ZM802.378 126.791H803.108V126.06H802.378V126.791ZM802.378 134.093V134.823H803.108V134.093H802.378ZM795.076 126.791H794.346V127.521H795.076V126.791ZM795.076 123.14V122.409H794.346V123.14H795.076ZM798.727 123.14H799.457V122.409H798.727V123.14ZM798.727 126.791V127.521H799.457V126.791H798.727ZM795.806 163.302V159.651H794.346V163.302H795.806ZM795.076 160.381H798.727V158.921H795.076V160.381ZM797.997 159.651V163.302H799.457V159.651H797.997ZM798.727 162.572H795.076V164.033H798.727V162.572ZM799.457 159.651V152.349H797.997V159.651H799.457ZM798.727 153.079H802.378V151.619H798.727V153.079ZM801.648 152.349V159.651H803.108V152.349H801.648ZM802.378 158.921H798.727V160.381H802.378V158.921ZM803.108 152.349V134.093H801.648V152.349H803.108ZM802.378 134.823H806.029V133.363H802.378V134.823ZM805.299 134.093V152.349H806.76V134.093H805.299ZM806.029 151.619H802.378V153.079H806.029V151.619ZM799.457 134.093V126.791H797.997V134.093H799.457ZM798.727 127.521H802.378V126.06H798.727V127.521ZM801.648 126.791V134.093H803.108V126.791H801.648ZM802.378 133.363H798.727V134.823H802.378V133.363ZM795.806 126.791V123.14H794.346V126.791H795.806ZM795.076 123.87H798.727V122.409H795.076V123.87ZM797.997 123.14V126.791H799.457V123.14H797.997ZM798.727 126.06H795.076V127.521H798.727V126.06Z" fill="#252840" mask="url(#path-6-outside-1_63_30)"/>
<rect x="988" y="-9" width="13" height="215" fill="#B9A597"/>
<rect x="989" y="193" width="13" height="989" transform="rotate(90 989 193)" fill="#B9A597"/>
</g>
<defs>
<clipPath id="clip0_63_30">
<rect width="1000" height="206" fill="white"/>
</clipPath>
</defs>
</svg>
