<svg width="1000" height="206" viewBox="0 0 1000 206" fill="none" xmlns="http://www.w3.org/2000/svg">
<g clip-path="url(#clip0_63_7)">
<rect width="1000" height="206" fill="white"/>
<path d="M672 82.3466V40.5444H678.891V33.6531H700.247V40.5444H707.214V61.7484H700.247V68.6397H696.915V74.7737H703.73V82.3466H696.157V75.531H689.19V68.6397H679.649V82.3466H672ZM679.649 60.9911H699.489V41.3017H679.649V60.9911Z" fill="#252840"/>
<path d="M631.489 82.3466V75.531H624.598V40.5444H631.489V33.6531H652.844V40.5444H659.811V48.1172H652.087V41.3017H632.246V54.2513H646.029V61.7484H632.246V74.7737H652.087V67.8824H659.811V75.531H652.844V82.3466H631.489Z" fill="#252840"/>
<path d="M577.197 82.3466V40.5444H584.089V33.6531H605.444V40.5444H612.411V61.7484H605.444V68.6397H584.846V82.3466H577.197ZM584.846 60.9911H604.687V41.3017H584.846V60.9911Z" fill="#252840"/>
<path d="M536.686 82.3466V75.531H529.795V40.5444H536.686V33.6531H558.042V40.5444H565.009V75.531H558.042V82.3466H536.686ZM537.444 74.7737H557.284V41.3017H537.444V74.7737Z" fill="#252840"/>
<path d="M489.286 82.3466V75.531H482.395V33.6531H490.043V74.7737H509.884V67.8824H517.608V75.531H510.641V82.3466H489.286Z" fill="#252840"/>
<path d="M441.883 82.3466V75.531H434.992V40.5444H441.883V33.6531H463.239V40.5444H470.206V48.1172H462.482V41.3017H442.641V54.2513H456.423V61.7484H442.641V74.7737H462.482V67.8824H470.206V75.531H463.239V82.3466H441.883Z" fill="#252840"/>
<path d="M401.299 82.3466V75.531H394.483V61.7484H387.592V33.6531H395.24V60.9911H402.056V74.7737H408.266V60.9911H415.081V33.6531H422.806V61.7484H415.839V75.531H409.023V82.3466H401.299Z" fill="#252840"/>
<path d="M347.081 82.3466V75.531H340.189V40.5444H347.081V33.6531H368.436V40.5444H375.403V48.1172H367.679V41.3017H347.838V54.2513H361.621V61.7484H347.838V74.7737H367.679V67.8824H375.403V75.531H368.436V82.3466H347.081Z" fill="#252840"/>
<path d="M292.789 82.3466V33.6531H314.22V40.5444H321.036V47.36H328.003V68.6397H321.036V75.531H314.22V82.3466H292.789ZM300.438 74.7737H313.463V67.8824H320.279V48.1172H313.463V41.3017H300.438V74.7737Z" fill="#252840"/>
<path fill-rule="evenodd" clip-rule="evenodd" d="M670.346 84V38.8913H677.237V32H701.899V38.8913H708.866V63.4018H701.899V70.2931H698.567V73.1207H705.382V84H694.503V77.1844H687.536V70.2931H681.301V84H670.346ZM679.648 68.6399H689.189V75.5312H696.156V82.3468H703.729V74.7739H696.914V68.6399H700.246V61.7486H707.213V40.5445H700.246V33.6532H678.89V40.5445H671.999V82.3468H679.648V68.6399ZM679.648 60.9913H699.488V41.3018H679.648V60.9913ZM681.301 42.9551V59.338H697.835V42.9551H681.301Z" fill="#252840"/>
<path fill-rule="evenodd" clip-rule="evenodd" d="M629.837 84V77.1844H622.945V38.8913H629.837V32H654.499V38.8913H661.466V49.7707H650.435V42.9551H633.9V52.5982H647.683V63.4018H633.9V73.1207H650.435V66.2293H661.466V77.1844H654.499V84H629.837ZM652.845 75.5312H659.812V67.8826H652.088V74.7739H632.247V61.7486H646.03V54.2514H632.247V41.3018H652.088V48.1174H659.812V40.5445H652.845V33.6532H631.49V40.5445H624.599V75.5312H631.49V82.3468H652.845V75.5312Z" fill="#252840"/>
<path fill-rule="evenodd" clip-rule="evenodd" d="M575.543 84V38.8913H582.434V32H607.096V38.8913H614.063V63.4018H607.096V70.2931H586.498V84H575.543ZM584.845 68.6399H605.443V61.7486H612.41V40.5445H605.443V33.6532H584.088V40.5445H577.196V82.3468H584.845V68.6399ZM584.845 60.9913H604.686V41.3018H584.845V60.9913ZM586.498 42.9551V59.338H603.032V42.9551H586.498Z" fill="#252840"/>
<path fill-rule="evenodd" clip-rule="evenodd" d="M535.034 84V77.1844H528.143V38.8913H535.034V32H559.696V38.8913H566.663V77.1844H559.696V84H535.034ZM558.043 75.5312H565.01V40.5445H558.043V33.6532H536.687V40.5445H529.796V75.5312H536.687V82.3468H558.043V75.5312ZM557.285 74.7739V41.3018H537.444V74.7739H557.285ZM555.632 73.1207V42.9551H539.098V73.1207H555.632Z" fill="#252840"/>
<path fill-rule="evenodd" clip-rule="evenodd" d="M487.632 84V77.1844H480.74V32H491.695V73.1207H508.23V66.2293H519.261V77.1844H512.294V84H487.632ZM510.64 75.5312H517.607V67.8826H509.883V74.7739H490.042V33.6532H482.393V75.5312H489.285V82.3468H510.64V75.5312Z" fill="#252840"/>
<path fill-rule="evenodd" clip-rule="evenodd" d="M440.231 84V77.1844H433.34V38.8913H440.231V32H464.893V38.8913H471.86V49.7707H460.829V42.9551H444.295V52.5982H458.078V63.4018H444.295V73.1207H460.829V66.2293H471.86V77.1844H464.893V84H440.231ZM463.24 75.5312H470.207V67.8826H462.483V74.7739H442.642V61.7486H456.424V54.2514H442.642V41.3018H462.483V48.1174H470.207V40.5445H463.24V33.6532H441.884V40.5445H434.993V75.5312H441.884V82.3468H463.24V75.5312Z" fill="#252840"/>
<path fill-rule="evenodd" clip-rule="evenodd" d="M399.644 84V77.1844H392.829V63.4018H385.938V32H396.893V59.338H403.708V73.1207H406.611V59.338H413.427V32H424.458V63.4018H417.491V77.1844H410.675V84H399.644ZM409.022 75.5312H415.838V61.7486H422.805V33.6532H415.08V60.9913H408.265V74.7739H402.055V60.9913H395.239V33.6532H387.591V61.7486H394.482V75.5312H401.298V82.3468H409.022V75.5312Z" fill="#252840"/>
<path fill-rule="evenodd" clip-rule="evenodd" d="M345.428 84V77.1844H338.537V38.8913H345.428V32H370.09V38.8913H377.057V49.7707H366.027V42.9551H349.492V52.5982H363.275V63.4018H349.492V73.1207H366.027V66.2293H377.057V77.1844H370.09V84H345.428ZM368.437 75.5312H375.404V67.8826H367.68V74.7739H347.839V61.7486H361.622V54.2514H347.839V41.3018H367.68V48.1174H375.404V40.5445H368.437V33.6532H347.082V40.5445H340.19V75.5312H347.082V82.3468H368.437V75.5312Z" fill="#252840"/>
<path fill-rule="evenodd" clip-rule="evenodd" d="M291.135 84V32H315.872V38.8913H322.688V45.7069H329.655V70.2931H322.688V77.1844H315.872V84H291.135ZM314.219 75.5312H321.035V68.6399H328.002V47.3601H321.035V40.5445H314.219V33.6532H292.788V82.3468H314.219V75.5312ZM313.462 74.7739V67.8826H320.277V48.1174H313.462V41.3018H300.437V74.7739H313.462ZM311.809 73.1207V66.2293H318.624V49.7707H311.809V42.9551H302.09V73.1207H311.809Z" fill="#252840"/>
<mask id="path-19-outside-1_63_7" maskUnits="userSpaceOnUse" x="150" y="122" width="697" height="46" fill="black">
<rect fill="white" x="150" y="122" width="697" height="46"/>
<path d="M161.975 148.698V141.395H165.626V148.698H161.975ZM158.324 141.395V134.093H161.975V141.395H158.324ZM151.022 156V126.791H158.324V134.093H154.673V156H151.022ZM165.626 156V148.698H169.278V126.791H172.929V156H165.626ZM184.466 156V137.744H180.815V134.093H188.118V156H184.466ZM184.466 126.791V123.14H188.118V126.791H184.466ZM217.911 156V152.349H221.562V156H217.911ZM214.26 152.349V148.698H217.911V152.349H214.26ZM214.26 141.395V137.744H217.911V141.395H214.26ZM217.911 137.744V134.093H221.562V137.744H217.911ZM203.306 156V123.14H206.958V145.047H210.609V141.395H214.26V148.698H206.958V156H203.306ZM236.751 156V137.744H233.1V134.093H240.402V156H236.751ZM236.751 126.791V123.14H240.402V126.791H236.751ZM262.893 156V152.349H273.847V156H262.893ZM259.242 152.349V126.791H262.893V134.093H273.847V137.744H262.893V152.349H259.242ZM281.733 152.349V145.047H285.385V152.349H281.733ZM285.385 156V152.349H296.338V145.047H285.385V141.395H296.338V137.744H299.989V156H285.385ZM285.385 137.744V134.093H296.338V137.744H285.385ZM341.32 156V152.349H348.623V156H341.32ZM337.669 152.349V148.698H341.32V152.349H337.669ZM348.623 152.349V148.698H352.274V152.349H348.623ZM334.018 148.698V134.093H337.669V148.698H334.018ZM352.274 148.698V134.093H355.925V148.698H352.274ZM337.669 134.093V130.442H341.32V134.093H337.669ZM348.623 134.093V130.442H352.274V134.093H348.623ZM341.32 130.442V126.791H348.623V130.442H341.32ZM360.16 156V152.349H374.765V156H360.16ZM374.765 152.349V148.698H378.416V152.349H374.765ZM371.114 148.698V145.047H374.765V148.698H371.114ZM363.812 145.047V141.395H371.114V145.047H363.812ZM360.16 141.395V137.744H363.812V141.395H360.16ZM363.812 137.744V134.093H378.416V137.744H363.812ZM393.605 156V137.744H389.954V134.093H397.256V156H393.605ZM393.605 126.791V123.14H397.256V126.791H393.605ZM427.05 152.349V137.744H430.701V152.349H427.05ZM412.445 166.953V134.093H427.05V137.744H416.096V152.349H427.05V156H416.096V166.953H412.445ZM442.239 156V152.349H453.192V156H442.239ZM438.587 152.349V137.744H442.239V152.349H438.587ZM453.192 152.349V137.744H456.843V152.349H453.192ZM442.239 137.744V134.093H453.192V137.744H442.239ZM472.032 156V148.698H475.683V156H472.032ZM468.381 148.698V141.395H472.032V148.698H468.381ZM475.683 148.698V141.395H479.334V148.698H475.683ZM464.73 141.395V134.093H468.381V141.395H464.73ZM479.334 141.395V134.093H482.986V141.395H479.334ZM527.968 163.302V159.651H531.619V163.302H527.968ZM524.317 159.651V152.349H527.968V159.651H524.317ZM520.666 152.349V134.093H524.317V152.349H520.666ZM524.317 134.093V126.791H527.968V134.093H524.317ZM527.968 126.791V123.14H531.619V126.791H527.968ZM546.808 156V152.349H561.413V156H546.808ZM543.157 152.349V148.698H546.808V152.349H543.157ZM546.808 145.047V137.744H550.459V145.047H546.808ZM539.506 148.698V134.093H543.157V148.698H539.506ZM550.459 148.698V145.047H554.11V137.744H550.459V134.093H557.761V145.047H561.413V148.698H550.459ZM561.413 145.047V134.093H565.064V145.047H561.413ZM543.157 134.093V130.442H546.808V134.093H543.157ZM557.761 134.093V130.442H561.413V134.093H557.761ZM546.808 130.442V126.791H557.761V130.442H546.808ZM583.904 156V137.744H587.555V156H583.904ZM569.299 156V134.093H583.904V137.744H572.95V156H569.299ZM599.093 156V152.349H610.046V156H599.093ZM610.046 152.349V148.698H613.697V152.349H610.046ZM595.441 152.349V137.744H599.093V141.395H610.046V137.744H613.697V145.047H599.093V152.349H595.441ZM599.093 137.744V134.093H610.046V137.744H599.093ZM636.188 156V152.349H639.84V156H636.188ZM632.537 152.349V148.698H636.188V152.349H632.537ZM632.537 141.395V137.744H636.188V141.395H632.537ZM636.188 137.744V134.093H639.84V137.744H636.188ZM621.584 156V123.14H625.235V145.047H628.886V141.395H632.537V148.698H625.235V156H621.584ZM655.028 156V137.744H651.377V134.093H658.68V156H655.028ZM655.028 126.791V123.14H658.68V126.791H655.028ZM681.171 156V152.349H692.124V156H681.171ZM677.52 152.349V126.791H681.171V134.093H692.124V137.744H681.171V152.349H677.52ZM700.011 156V152.349H703.662V148.698H707.313V152.349H718.267V156H700.011ZM707.313 148.698V145.047H710.964V148.698H707.313ZM710.964 145.047V141.395H714.615V145.047H710.964ZM714.615 141.395V137.744H700.011V134.093H718.267V141.395H714.615ZM726.153 156V152.349H729.804V148.698H733.455V152.349H744.409V156H726.153ZM733.455 148.698V145.047H737.107V148.698H733.455ZM737.107 145.047V141.395H740.758V145.047H737.107ZM740.758 141.395V137.744H726.153V134.093H744.409V141.395H740.758ZM755.947 156V152.349H763.249V156H755.947ZM763.249 152.349V148.698H766.9V152.349H763.249ZM752.295 141.395V130.442H755.947V141.395H752.295ZM766.9 148.698V145.047H755.947V141.395H766.9V130.442H770.551V148.698H766.9ZM755.947 130.442V126.791H766.9V130.442H755.947ZM782.089 156V152.349H789.391V156H782.089ZM789.391 152.349V148.698H793.042V152.349H789.391ZM778.438 141.395V130.442H782.089V141.395H778.438ZM793.042 148.698V145.047H782.089V141.395H793.042V130.442H796.694V148.698H793.042ZM782.089 130.442V126.791H793.042V130.442H782.089ZM804.58 137.744V134.093H808.231V137.744H804.58ZM804.58 156V152.349H811.882V134.093H808.231V130.442H811.882V126.791H815.533V152.349H822.836V156H804.58ZM834.373 163.302V159.651H838.025V163.302H834.373ZM838.025 159.651V152.349H841.676V159.651H838.025ZM841.676 152.349V134.093H845.327V152.349H841.676ZM838.025 134.093V126.791H841.676V134.093H838.025ZM834.373 126.791V123.14H838.025V126.791H834.373Z"/>
</mask>
<path d="M161.975 148.698V141.395H165.626V148.698H161.975ZM158.324 141.395V134.093H161.975V141.395H158.324ZM151.022 156V126.791H158.324V134.093H154.673V156H151.022ZM165.626 156V148.698H169.278V126.791H172.929V156H165.626ZM184.466 156V137.744H180.815V134.093H188.118V156H184.466ZM184.466 126.791V123.14H188.118V126.791H184.466ZM217.911 156V152.349H221.562V156H217.911ZM214.26 152.349V148.698H217.911V152.349H214.26ZM214.26 141.395V137.744H217.911V141.395H214.26ZM217.911 137.744V134.093H221.562V137.744H217.911ZM203.306 156V123.14H206.958V145.047H210.609V141.395H214.26V148.698H206.958V156H203.306ZM236.751 156V137.744H233.1V134.093H240.402V156H236.751ZM236.751 126.791V123.14H240.402V126.791H236.751ZM262.893 156V152.349H273.847V156H262.893ZM259.242 152.349V126.791H262.893V134.093H273.847V137.744H262.893V152.349H259.242ZM281.733 152.349V145.047H285.385V152.349H281.733ZM285.385 156V152.349H296.338V145.047H285.385V141.395H296.338V137.744H299.989V156H285.385ZM285.385 137.744V134.093H296.338V137.744H285.385ZM341.32 156V152.349H348.623V156H341.32ZM337.669 152.349V148.698H341.32V152.349H337.669ZM348.623 152.349V148.698H352.274V152.349H348.623ZM334.018 148.698V134.093H337.669V148.698H334.018ZM352.274 148.698V134.093H355.925V148.698H352.274ZM337.669 134.093V130.442H341.32V134.093H337.669ZM348.623 134.093V130.442H352.274V134.093H348.623ZM341.32 130.442V126.791H348.623V130.442H341.32ZM360.16 156V152.349H374.765V156H360.16ZM374.765 152.349V148.698H378.416V152.349H374.765ZM371.114 148.698V145.047H374.765V148.698H371.114ZM363.812 145.047V141.395H371.114V145.047H363.812ZM360.16 141.395V137.744H363.812V141.395H360.16ZM363.812 137.744V134.093H378.416V137.744H363.812ZM393.605 156V137.744H389.954V134.093H397.256V156H393.605ZM393.605 126.791V123.14H397.256V126.791H393.605ZM427.05 152.349V137.744H430.701V152.349H427.05ZM412.445 166.953V134.093H427.05V137.744H416.096V152.349H427.05V156H416.096V166.953H412.445ZM442.239 156V152.349H453.192V156H442.239ZM438.587 152.349V137.744H442.239V152.349H438.587ZM453.192 152.349V137.744H456.843V152.349H453.192ZM442.239 137.744V134.093H453.192V137.744H442.239ZM472.032 156V148.698H475.683V156H472.032ZM468.381 148.698V141.395H472.032V148.698H468.381ZM475.683 148.698V141.395H479.334V148.698H475.683ZM464.73 141.395V134.093H468.381V141.395H464.73ZM479.334 141.395V134.093H482.986V141.395H479.334ZM527.968 163.302V159.651H531.619V163.302H527.968ZM524.317 159.651V152.349H527.968V159.651H524.317ZM520.666 152.349V134.093H524.317V152.349H520.666ZM524.317 134.093V126.791H527.968V134.093H524.317ZM527.968 126.791V123.14H531.619V126.791H527.968ZM546.808 156V152.349H561.413V156H546.808ZM543.157 152.349V148.698H546.808V152.349H543.157ZM546.808 145.047V137.744H550.459V145.047H546.808ZM539.506 148.698V134.093H543.157V148.698H539.506ZM550.459 148.698V145.047H554.11V137.744H550.459V134.093H557.761V145.047H561.413V148.698H550.459ZM561.413 145.047V134.093H565.064V145.047H561.413ZM543.157 134.093V130.442H546.808V134.093H543.157ZM557.761 134.093V130.442H561.413V134.093H557.761ZM546.808 130.442V126.791H557.761V130.442H546.808ZM583.904 156V137.744H587.555V156H583.904ZM569.299 156V134.093H583.904V137.744H572.95V156H569.299ZM599.093 156V152.349H610.046V156H599.093ZM610.046 152.349V148.698H613.697V152.349H610.046ZM595.441 152.349V137.744H599.093V141.395H610.046V137.744H613.697V145.047H599.093V152.349H595.441ZM599.093 137.744V134.093H610.046V137.744H599.093ZM636.188 156V152.349H639.84V156H636.188ZM632.537 152.349V148.698H636.188V152.349H632.537ZM632.537 141.395V137.744H636.188V141.395H632.537ZM636.188 137.744V134.093H639.84V137.744H636.188ZM621.584 156V123.14H625.235V145.047H628.886V141.395H632.537V148.698H625.235V156H621.584ZM655.028 156V137.744H651.377V134.093H658.68V156H655.028ZM655.028 126.791V123.14H658.68V126.791H655.028ZM681.171 156V152.349H692.124V156H681.171ZM677.52 152.349V126.791H681.171V134.093H692.124V137.744H681.171V152.349H677.52ZM700.011 156V152.349H703.662V148.698H707.313V152.349H718.267V156H700.011ZM707.313 148.698V145.047H710.964V148.698H707.313ZM710.964 145.047V141.395H714.615V145.047H710.964ZM714.615 141.395V137.744H700.011V134.093H718.267V141.395H714.615ZM726.153 156V152.349H729.804V148.698H733.455V152.349H744.409V156H726.153ZM733.455 148.698V145.047H737.107V148.698H733.455ZM737.107 145.047V141.395H740.758V145.047H737.107ZM740.758 141.395V137.744H726.153V134.093H744.409V141.395H740.758ZM755.947 156V152.349H763.249V156H755.947ZM763.249 152.349V148.698H766.9V152.349H763.249ZM752.295 141.395V130.442H755.947V141.395H752.295ZM766.9 148.698V145.047H755.947V141.395H766.9V130.442H770.551V148.698H766.9ZM755.947 130.442V126.791H766.9V130.442H755.947ZM782.089 156V152.349H789.391V156H782.089ZM789.391 152.349V148.698H793.042V152.349H789.391ZM778.438 141.395V130.442H782.089V141.395H778.438ZM793.042 148.698V145.047H782.089V141.395H793.042V130.442H796.694V148.698H793.042ZM782.089 130.442V126.791H793.042V130.442H782.089ZM804.58 137.744V134.093H808.231V137.744H804.58ZM804.58 156V152.349H811.882V134.093H808.231V130.442H811.882V126.791H815.533V152.349H822.836V156H804.58ZM834.373 163.302V159.651H838.025V163.302H834.373ZM838.025 159.651V152.349H841.676V159.651H838.025ZM841.676 152.349V134.093H845.327V152.349H841.676ZM838.025 134.093V126.791H841.676V134.093H838.025ZM834.373 126.791V123.14H838.025V126.791H834.373Z" fill="#252840"/>
<path d="M161.975 148.698H161.245V149.428H161.975V148.698ZM161.975 141.395V140.665H161.245V141.395H161.975ZM165.626 141.395H166.357V140.665H165.626V141.395ZM165.626 148.698V149.428H166.357V148.698H165.626ZM158.324 141.395H157.594V142.126H158.324V141.395ZM158.324 134.093V133.363H157.594V134.093H158.324ZM161.975 134.093H162.706V133.363H161.975V134.093ZM161.975 141.395V142.126H162.706V141.395H161.975ZM151.022 156H150.292V156.73H151.022V156ZM151.022 126.791V126.06H150.292V126.791H151.022ZM158.324 126.791H159.054V126.06H158.324V126.791ZM158.324 134.093V134.823H159.054V134.093H158.324ZM154.673 134.093V133.363H153.943V134.093H154.673ZM154.673 156V156.73H155.403V156H154.673ZM165.626 156H164.896V156.73H165.626V156ZM165.626 148.698V147.967H164.896V148.698H165.626ZM169.278 148.698V149.428H170.008V148.698H169.278ZM169.278 126.791V126.06H168.547V126.791H169.278ZM172.929 126.791H173.659V126.06H172.929V126.791ZM172.929 156V156.73H173.659V156H172.929ZM162.706 148.698V141.395H161.245V148.698H162.706ZM161.975 142.126H165.626V140.665H161.975V142.126ZM164.896 141.395V148.698H166.357V141.395H164.896ZM165.626 147.967H161.975V149.428H165.626V147.967ZM159.054 141.395V134.093H157.594V141.395H159.054ZM158.324 134.823H161.975V133.363H158.324V134.823ZM161.245 134.093V141.395H162.706V134.093H161.245ZM161.975 140.665H158.324V142.126H161.975V140.665ZM151.752 156V126.791H150.292V156H151.752ZM151.022 127.521H158.324V126.06H151.022V127.521ZM157.594 126.791V134.093H159.054V126.791H157.594ZM158.324 133.363H154.673V134.823H158.324V133.363ZM153.943 134.093V156H155.403V134.093H153.943ZM154.673 155.27H151.022V156.73H154.673V155.27ZM166.357 156V148.698H164.896V156H166.357ZM165.626 149.428H169.278V147.967H165.626V149.428ZM170.008 148.698V126.791H168.547V148.698H170.008ZM169.278 127.521H172.929V126.06H169.278V127.521ZM172.199 126.791V156H173.659V126.791H172.199ZM172.929 155.27H165.626V156.73H172.929V155.27ZM184.466 156H183.736V156.73H184.466V156ZM184.466 137.744H185.197V137.014H184.466V137.744ZM180.815 137.744H180.085V138.474H180.815V137.744ZM180.815 134.093V133.363H180.085V134.093H180.815ZM188.118 134.093H188.848V133.363H188.118V134.093ZM188.118 156V156.73H188.848V156H188.118ZM184.466 126.791H183.736V127.521H184.466V126.791ZM184.466 123.14V122.409H183.736V123.14H184.466ZM188.118 123.14H188.848V122.409H188.118V123.14ZM188.118 126.791V127.521H188.848V126.791H188.118ZM185.197 156V137.744H183.736V156H185.197ZM184.466 137.014H180.815V138.474H184.466V137.014ZM181.546 137.744V134.093H180.085V137.744H181.546ZM180.815 134.823H188.118V133.363H180.815V134.823ZM187.387 134.093V156H188.848V134.093H187.387ZM188.118 155.27H184.466V156.73H188.118V155.27ZM185.197 126.791V123.14H183.736V126.791H185.197ZM184.466 123.87H188.118V122.409H184.466V123.87ZM187.387 123.14V126.791H188.848V123.14H187.387ZM188.118 126.06H184.466V127.521H188.118V126.06ZM217.911 156H217.181V156.73H217.911V156ZM217.911 152.349V151.619H217.181V152.349H217.911ZM221.562 152.349H222.293V151.619H221.562V152.349ZM221.562 156V156.73H222.293V156H221.562ZM214.26 152.349H213.53V153.079H214.26V152.349ZM214.26 148.698V147.967H213.53V148.698H214.26ZM217.911 148.698H218.641V147.967H217.911V148.698ZM217.911 152.349V153.079H218.641V152.349H217.911ZM214.26 141.395H213.53V142.126H214.26V141.395ZM214.26 137.744V137.014H213.53V137.744H214.26ZM217.911 137.744H218.641V137.014H217.911V137.744ZM217.911 141.395V142.126H218.641V141.395H217.911ZM217.911 137.744H217.181V138.474H217.911V137.744ZM217.911 134.093V133.363H217.181V134.093H217.911ZM221.562 134.093H222.293V133.363H221.562V134.093ZM221.562 137.744V138.474H222.293V137.744H221.562ZM203.306 156H202.576V156.73H203.306V156ZM203.306 123.14V122.409H202.576V123.14H203.306ZM206.958 123.14H207.688V122.409H206.958V123.14ZM206.958 145.047H206.227V145.777H206.958V145.047ZM210.609 145.047V145.777H211.339V145.047H210.609ZM210.609 141.395V140.665H209.879V141.395H210.609ZM214.26 141.395H214.99V140.665H214.26V141.395ZM214.26 148.698V149.428H214.99V148.698H214.26ZM206.958 148.698V147.967H206.227V148.698H206.958ZM206.958 156V156.73H207.688V156H206.958ZM218.641 156V152.349H217.181V156H218.641ZM217.911 153.079H221.562V151.619H217.911V153.079ZM220.832 152.349V156H222.293V152.349H220.832ZM221.562 155.27H217.911V156.73H221.562V155.27ZM214.99 152.349V148.698H213.53V152.349H214.99ZM214.26 149.428H217.911V147.967H214.26V149.428ZM217.181 148.698V152.349H218.641V148.698H217.181ZM217.911 151.619H214.26V153.079H217.911V151.619ZM214.99 141.395V137.744H213.53V141.395H214.99ZM214.26 138.474H217.911V137.014H214.26V138.474ZM217.181 137.744V141.395H218.641V137.744H217.181ZM217.911 140.665H214.26V142.126H217.911V140.665ZM218.641 137.744V134.093H217.181V137.744H218.641ZM217.911 134.823H221.562V133.363H217.911V134.823ZM220.832 134.093V137.744H222.293V134.093H220.832ZM221.562 137.014H217.911V138.474H221.562V137.014ZM204.037 156V123.14H202.576V156H204.037ZM203.306 123.87H206.958V122.409H203.306V123.87ZM206.227 123.14V145.047H207.688V123.14H206.227ZM206.958 145.777H210.609V144.316H206.958V145.777ZM211.339 145.047V141.395H209.879V145.047H211.339ZM210.609 142.126H214.26V140.665H210.609V142.126ZM213.53 141.395V148.698H214.99V141.395H213.53ZM214.26 147.967H206.958V149.428H214.26V147.967ZM206.227 148.698V156H207.688V148.698H206.227ZM206.958 155.27H203.306V156.73H206.958V155.27ZM236.751 156H236.021V156.73H236.751V156ZM236.751 137.744H237.481V137.014H236.751V137.744ZM233.1 137.744H232.37V138.474H233.1V137.744ZM233.1 134.093V133.363H232.37V134.093H233.1ZM240.402 134.093H241.133V133.363H240.402V134.093ZM240.402 156V156.73H241.133V156H240.402ZM236.751 126.791H236.021V127.521H236.751V126.791ZM236.751 123.14V122.409H236.021V123.14H236.751ZM240.402 123.14H241.133V122.409H240.402V123.14ZM240.402 126.791V127.521H241.133V126.791H240.402ZM237.481 156V137.744H236.021V156H237.481ZM236.751 137.014H233.1V138.474H236.751V137.014ZM233.83 137.744V134.093H232.37V137.744H233.83ZM233.1 134.823H240.402V133.363H233.1V134.823ZM239.672 134.093V156H241.133V134.093H239.672ZM240.402 155.27H236.751V156.73H240.402V155.27ZM237.481 126.791V123.14H236.021V126.791H237.481ZM236.751 123.87H240.402V122.409H236.751V123.87ZM239.672 123.14V126.791H241.133V123.14H239.672ZM240.402 126.06H236.751V127.521H240.402V126.06ZM262.893 156H262.163V156.73H262.893V156ZM262.893 152.349V151.619H262.163V152.349H262.893ZM273.847 152.349H274.577V151.619H273.847V152.349ZM273.847 156V156.73H274.577V156H273.847ZM259.242 152.349H258.512V153.079H259.242V152.349ZM259.242 126.791V126.06H258.512V126.791H259.242ZM262.893 126.791H263.624V126.06H262.893V126.791ZM262.893 134.093H262.163V134.823H262.893V134.093ZM273.847 134.093H274.577V133.363H273.847V134.093ZM273.847 137.744V138.474H274.577V137.744H273.847ZM262.893 137.744V137.014H262.163V137.744H262.893ZM262.893 152.349V153.079H263.624V152.349H262.893ZM263.624 156V152.349H262.163V156H263.624ZM262.893 153.079H273.847V151.619H262.893V153.079ZM273.117 152.349V156H274.577V152.349H273.117ZM273.847 155.27H262.893V156.73H273.847V155.27ZM259.973 152.349V126.791H258.512V152.349H259.973ZM259.242 127.521H262.893V126.06H259.242V127.521ZM262.163 126.791V134.093H263.624V126.791H262.163ZM262.893 134.823H273.847V133.363H262.893V134.823ZM273.117 134.093V137.744H274.577V134.093H273.117ZM273.847 137.014H262.893V138.474H273.847V137.014ZM262.163 137.744V152.349H263.624V137.744H262.163ZM262.893 151.619H259.242V153.079H262.893V151.619ZM281.733 152.349H281.003V153.079H281.733V152.349ZM281.733 145.047V144.316H281.003V145.047H281.733ZM285.385 145.047H286.115V144.316H285.385V145.047ZM285.385 152.349V153.079H286.115V152.349H285.385ZM285.385 156H284.654V156.73H285.385V156ZM285.385 152.349V151.619H284.654V152.349H285.385ZM296.338 152.349V153.079H297.068V152.349H296.338ZM296.338 145.047H297.068V144.316H296.338V145.047ZM285.385 145.047H284.654V145.777H285.385V145.047ZM285.385 141.395V140.665H284.654V141.395H285.385ZM296.338 141.395V142.126H297.068V141.395H296.338ZM296.338 137.744V137.014H295.608V137.744H296.338ZM299.989 137.744H300.72V137.014H299.989V137.744ZM299.989 156V156.73H300.72V156H299.989ZM285.385 137.744H284.654V138.474H285.385V137.744ZM285.385 134.093V133.363H284.654V134.093H285.385ZM296.338 134.093H297.068V133.363H296.338V134.093ZM296.338 137.744V138.474H297.068V137.744H296.338ZM282.464 152.349V145.047H281.003V152.349H282.464ZM281.733 145.777H285.385V144.316H281.733V145.777ZM284.654 145.047V152.349H286.115V145.047H284.654ZM285.385 151.619H281.733V153.079H285.385V151.619ZM286.115 156V152.349H284.654V156H286.115ZM285.385 153.079H296.338V151.619H285.385V153.079ZM297.068 152.349V145.047H295.608V152.349H297.068ZM296.338 144.316H285.385V145.777H296.338V144.316ZM286.115 145.047V141.395H284.654V145.047H286.115ZM285.385 142.126H296.338V140.665H285.385V142.126ZM297.068 141.395V137.744H295.608V141.395H297.068ZM296.338 138.474H299.989V137.014H296.338V138.474ZM299.259 137.744V156H300.72V137.744H299.259ZM299.989 155.27H285.385V156.73H299.989V155.27ZM286.115 137.744V134.093H284.654V137.744H286.115ZM285.385 134.823H296.338V133.363H285.385V134.823ZM295.608 134.093V137.744H297.068V134.093H295.608ZM296.338 137.014H285.385V138.474H296.338V137.014ZM341.32 156H340.59V156.73H341.32V156ZM341.32 152.349V151.619H340.59V152.349H341.32ZM348.623 152.349H349.353V151.619H348.623V152.349ZM348.623 156V156.73H349.353V156H348.623ZM337.669 152.349H336.939V153.079H337.669V152.349ZM337.669 148.698V147.967H336.939V148.698H337.669ZM341.32 148.698H342.051V147.967H341.32V148.698ZM341.32 152.349V153.079H342.051V152.349H341.32ZM348.623 152.349H347.893V153.079H348.623V152.349ZM348.623 148.698V147.967H347.893V148.698H348.623ZM352.274 148.698H353.004V147.967H352.274V148.698ZM352.274 152.349V153.079H353.004V152.349H352.274ZM334.018 148.698H333.288V149.428H334.018V148.698ZM334.018 134.093V133.363H333.288V134.093H334.018ZM337.669 134.093H338.4V133.363H337.669V134.093ZM337.669 148.698V149.428H338.4V148.698H337.669ZM352.274 148.698H351.544V149.428H352.274V148.698ZM352.274 134.093V133.363H351.544V134.093H352.274ZM355.925 134.093H356.655V133.363H355.925V134.093ZM355.925 148.698V149.428H356.655V148.698H355.925ZM337.669 134.093H336.939V134.823H337.669V134.093ZM337.669 130.442V129.712H336.939V130.442H337.669ZM341.32 130.442H342.051V129.712H341.32V130.442ZM341.32 134.093V134.823H342.051V134.093H341.32ZM348.623 134.093H347.893V134.823H348.623V134.093ZM348.623 130.442V129.712H347.893V130.442H348.623ZM352.274 130.442H353.004V129.712H352.274V130.442ZM352.274 134.093V134.823H353.004V134.093H352.274ZM341.32 130.442H340.59V131.172H341.32V130.442ZM341.32 126.791V126.06H340.59V126.791H341.32ZM348.623 126.791H349.353V126.06H348.623V126.791ZM348.623 130.442V131.172H349.353V130.442H348.623ZM342.051 156V152.349H340.59V156H342.051ZM341.32 153.079H348.623V151.619H341.32V153.079ZM347.893 152.349V156H349.353V152.349H347.893ZM348.623 155.27H341.32V156.73H348.623V155.27ZM338.4 152.349V148.698H336.939V152.349H338.4ZM337.669 149.428H341.32V147.967H337.669V149.428ZM340.59 148.698V152.349H342.051V148.698H340.59ZM341.32 151.619H337.669V153.079H341.32V151.619ZM349.353 152.349V148.698H347.893V152.349H349.353ZM348.623 149.428H352.274V147.967H348.623V149.428ZM351.544 148.698V152.349H353.004V148.698H351.544ZM352.274 151.619H348.623V153.079H352.274V151.619ZM334.748 148.698V134.093H333.288V148.698H334.748ZM334.018 134.823H337.669V133.363H334.018V134.823ZM336.939 134.093V148.698H338.4V134.093H336.939ZM337.669 147.967H334.018V149.428H337.669V147.967ZM353.004 148.698V134.093H351.544V148.698H353.004ZM352.274 134.823H355.925V133.363H352.274V134.823ZM355.195 134.093V148.698H356.655V134.093H355.195ZM355.925 147.967H352.274V149.428H355.925V147.967ZM338.4 134.093V130.442H336.939V134.093H338.4ZM337.669 131.172H341.32V129.712H337.669V131.172ZM340.59 130.442V134.093H342.051V130.442H340.59ZM341.32 133.363H337.669V134.823H341.32V133.363ZM349.353 134.093V130.442H347.893V134.093H349.353ZM348.623 131.172H352.274V129.712H348.623V131.172ZM351.544 130.442V134.093H353.004V130.442H351.544ZM352.274 133.363H348.623V134.823H352.274V133.363ZM342.051 130.442V126.791H340.59V130.442H342.051ZM341.32 127.521H348.623V126.06H341.32V127.521ZM347.893 126.791V130.442H349.353V126.791H347.893ZM348.623 129.712H341.32V131.172H348.623V129.712ZM360.16 156H359.43V156.73H360.16V156ZM360.16 152.349V151.619H359.43V152.349H360.16ZM374.765 152.349H375.495V151.619H374.765V152.349ZM374.765 156V156.73H375.495V156H374.765ZM374.765 152.349H374.035V153.079H374.765V152.349ZM374.765 148.698V147.967H374.035V148.698H374.765ZM378.416 148.698H379.146V147.967H378.416V148.698ZM378.416 152.349V153.079H379.146V152.349H378.416ZM371.114 148.698H370.384V149.428H371.114V148.698ZM371.114 145.047V144.316H370.384V145.047H371.114ZM374.765 145.047H375.495V144.316H374.765V145.047ZM374.765 148.698V149.428H375.495V148.698H374.765ZM363.812 145.047H363.081V145.777H363.812V145.047ZM363.812 141.395V140.665H363.081V141.395H363.812ZM371.114 141.395H371.844V140.665H371.114V141.395ZM371.114 145.047V145.777H371.844V145.047H371.114ZM360.16 141.395H359.43V142.126H360.16V141.395ZM360.16 137.744V137.014H359.43V137.744H360.16ZM363.812 137.744H364.542V137.014H363.812V137.744ZM363.812 141.395V142.126H364.542V141.395H363.812ZM363.812 137.744H363.081V138.474H363.812V137.744ZM363.812 134.093V133.363H363.081V134.093H363.812ZM378.416 134.093H379.146V133.363H378.416V134.093ZM378.416 137.744V138.474H379.146V137.744H378.416ZM360.891 156V152.349H359.43V156H360.891ZM360.16 153.079H374.765V151.619H360.16V153.079ZM374.035 152.349V156H375.495V152.349H374.035ZM374.765 155.27H360.16V156.73H374.765V155.27ZM375.495 152.349V148.698H374.035V152.349H375.495ZM374.765 149.428H378.416V147.967H374.765V149.428ZM377.686 148.698V152.349H379.146V148.698H377.686ZM378.416 151.619H374.765V153.079H378.416V151.619ZM371.844 148.698V145.047H370.384V148.698H371.844ZM371.114 145.777H374.765V144.316H371.114V145.777ZM374.035 145.047V148.698H375.495V145.047H374.035ZM374.765 147.967H371.114V149.428H374.765V147.967ZM364.542 145.047V141.395H363.081V145.047H364.542ZM363.812 142.126H371.114V140.665H363.812V142.126ZM370.384 141.395V145.047H371.844V141.395H370.384ZM371.114 144.316H363.812V145.777H371.114V144.316ZM360.891 141.395V137.744H359.43V141.395H360.891ZM360.16 138.474H363.812V137.014H360.16V138.474ZM363.081 137.744V141.395H364.542V137.744H363.081ZM363.812 140.665H360.16V142.126H363.812V140.665ZM364.542 137.744V134.093H363.081V137.744H364.542ZM363.812 134.823H378.416V133.363H363.812V134.823ZM377.686 134.093V137.744H379.146V134.093H377.686ZM378.416 137.014H363.812V138.474H378.416V137.014ZM393.605 156H392.875V156.73H393.605V156ZM393.605 137.744H394.335V137.014H393.605V137.744ZM389.954 137.744H389.224V138.474H389.954V137.744ZM389.954 134.093V133.363H389.224V134.093H389.954ZM397.256 134.093H397.986V133.363H397.256V134.093ZM397.256 156V156.73H397.986V156H397.256ZM393.605 126.791H392.875V127.521H393.605V126.791ZM393.605 123.14V122.409H392.875V123.14H393.605ZM397.256 123.14H397.986V122.409H397.256V123.14ZM397.256 126.791V127.521H397.986V126.791H397.256ZM394.335 156V137.744H392.875V156H394.335ZM393.605 137.014H389.954V138.474H393.605V137.014ZM390.684 137.744V134.093H389.224V137.744H390.684ZM389.954 134.823H397.256V133.363H389.954V134.823ZM396.526 134.093V156H397.986V134.093H396.526ZM397.256 155.27H393.605V156.73H397.256V155.27ZM394.335 126.791V123.14H392.875V126.791H394.335ZM393.605 123.87H397.256V122.409H393.605V123.87ZM396.526 123.14V126.791H397.986V123.14H396.526ZM397.256 126.06H393.605V127.521H397.256V126.06ZM427.05 152.349H426.32V153.079H427.05V152.349ZM427.05 137.744V137.014H426.32V137.744H427.05ZM430.701 137.744H431.431V137.014H430.701V137.744ZM430.701 152.349V153.079H431.431V152.349H430.701ZM412.445 166.953H411.715V167.684H412.445V166.953ZM412.445 134.093V133.363H411.715V134.093H412.445ZM427.05 134.093H427.78V133.363H427.05V134.093ZM427.05 137.744V138.474H427.78V137.744H427.05ZM416.096 137.744V137.014H415.366V137.744H416.096ZM416.096 152.349H415.366V153.079H416.096V152.349ZM427.05 152.349H427.78V151.619H427.05V152.349ZM427.05 156V156.73H427.78V156H427.05ZM416.096 156V155.27H415.366V156H416.096ZM416.096 166.953V167.684H416.827V166.953H416.096ZM427.78 152.349V137.744H426.32V152.349H427.78ZM427.05 138.474H430.701V137.014H427.05V138.474ZM429.971 137.744V152.349H431.431V137.744H429.971ZM430.701 151.619H427.05V153.079H430.701V151.619ZM413.175 166.953V134.093H411.715V166.953H413.175ZM412.445 134.823H427.05V133.363H412.445V134.823ZM426.32 134.093V137.744H427.78V134.093H426.32ZM427.05 137.014H416.096V138.474H427.05V137.014ZM415.366 137.744V152.349H416.827V137.744H415.366ZM416.096 153.079H427.05V151.619H416.096V153.079ZM426.32 152.349V156H427.78V152.349H426.32ZM427.05 155.27H416.096V156.73H427.05V155.27ZM415.366 156V166.953H416.827V156H415.366ZM416.096 166.223H412.445V167.684H416.096V166.223ZM442.239 156H441.508V156.73H442.239V156ZM442.239 152.349V151.619H441.508V152.349H442.239ZM453.192 152.349H453.922V151.619H453.192V152.349ZM453.192 156V156.73H453.922V156H453.192ZM438.587 152.349H437.857V153.079H438.587V152.349ZM438.587 137.744V137.014H437.857V137.744H438.587ZM442.239 137.744H442.969V137.014H442.239V137.744ZM442.239 152.349V153.079H442.969V152.349H442.239ZM453.192 152.349H452.462V153.079H453.192V152.349ZM453.192 137.744V137.014H452.462V137.744H453.192ZM456.843 137.744H457.573V137.014H456.843V137.744ZM456.843 152.349V153.079H457.573V152.349H456.843ZM442.239 137.744H441.508V138.474H442.239V137.744ZM442.239 134.093V133.363H441.508V134.093H442.239ZM453.192 134.093H453.922V133.363H453.192V134.093ZM453.192 137.744V138.474H453.922V137.744H453.192ZM442.969 156V152.349H441.508V156H442.969ZM442.239 153.079H453.192V151.619H442.239V153.079ZM452.462 152.349V156H453.922V152.349H452.462ZM453.192 155.27H442.239V156.73H453.192V155.27ZM439.318 152.349V137.744H437.857V152.349H439.318ZM438.587 138.474H442.239V137.014H438.587V138.474ZM441.508 137.744V152.349H442.969V137.744H441.508ZM442.239 151.619H438.587V153.079H442.239V151.619ZM453.922 152.349V137.744H452.462V152.349H453.922ZM453.192 138.474H456.843V137.014H453.192V138.474ZM456.113 137.744V152.349H457.573V137.744H456.113ZM456.843 151.619H453.192V153.079H456.843V151.619ZM442.969 137.744V134.093H441.508V137.744H442.969ZM442.239 134.823H453.192V133.363H442.239V134.823ZM452.462 134.093V137.744H453.922V134.093H452.462ZM453.192 137.014H442.239V138.474H453.192V137.014ZM472.032 156H471.302V156.73H472.032V156ZM472.032 148.698V147.967H471.302V148.698H472.032ZM475.683 148.698H476.413V147.967H475.683V148.698ZM475.683 156V156.73H476.413V156H475.683ZM468.381 148.698H467.651V149.428H468.381V148.698ZM468.381 141.395V140.665H467.651V141.395H468.381ZM472.032 141.395H472.762V140.665H472.032V141.395ZM472.032 148.698V149.428H472.762V148.698H472.032ZM475.683 148.698H474.953V149.428H475.683V148.698ZM475.683 141.395V140.665H474.953V141.395H475.683ZM479.334 141.395H480.065V140.665H479.334V141.395ZM479.334 148.698V149.428H480.065V148.698H479.334ZM464.73 141.395H464V142.126H464.73V141.395ZM464.73 134.093V133.363H464V134.093H464.73ZM468.381 134.093H469.111V133.363H468.381V134.093ZM468.381 141.395V142.126H469.111V141.395H468.381ZM479.334 141.395H478.604V142.126H479.334V141.395ZM479.334 134.093V133.363H478.604V134.093H479.334ZM482.986 134.093H483.716V133.363H482.986V134.093ZM482.986 141.395V142.126H483.716V141.395H482.986ZM472.762 156V148.698H471.302V156H472.762ZM472.032 149.428H475.683V147.967H472.032V149.428ZM474.953 148.698V156H476.413V148.698H474.953ZM475.683 155.27H472.032V156.73H475.683V155.27ZM469.111 148.698V141.395H467.651V148.698H469.111ZM468.381 142.126H472.032V140.665H468.381V142.126ZM471.302 141.395V148.698H472.762V141.395H471.302ZM472.032 147.967H468.381V149.428H472.032V147.967ZM476.413 148.698V141.395H474.953V148.698H476.413ZM475.683 142.126H479.334V140.665H475.683V142.126ZM478.604 141.395V148.698H480.065V141.395H478.604ZM479.334 147.967H475.683V149.428H479.334V147.967ZM465.46 141.395V134.093H464V141.395H465.46ZM464.73 134.823H468.381V133.363H464.73V134.823ZM467.651 134.093V141.395H469.111V134.093H467.651ZM468.381 140.665H464.73V142.126H468.381V140.665ZM480.065 141.395V134.093H478.604V141.395H480.065ZM479.334 134.823H482.986V133.363H479.334V134.823ZM482.255 134.093V141.395H483.716V134.093H482.255ZM482.986 140.665H479.334V142.126H482.986V140.665ZM527.968 163.302H527.238V164.033H527.968V163.302ZM527.968 159.651V158.921H527.238V159.651H527.968ZM531.619 159.651H532.349V158.921H531.619V159.651ZM531.619 163.302V164.033H532.349V163.302H531.619ZM524.317 159.651H523.587V160.381H524.317V159.651ZM524.317 152.349V151.619H523.587V152.349H524.317ZM527.968 152.349H528.698V151.619H527.968V152.349ZM527.968 159.651V160.381H528.698V159.651H527.968ZM520.666 152.349H519.935V153.079H520.666V152.349ZM520.666 134.093V133.363H519.935V134.093H520.666ZM524.317 134.093H525.047V133.363H524.317V134.093ZM524.317 152.349V153.079H525.047V152.349H524.317ZM524.317 134.093H523.587V134.823H524.317V134.093ZM524.317 126.791V126.06H523.587V126.791H524.317ZM527.968 126.791H528.698V126.06H527.968V126.791ZM527.968 134.093V134.823H528.698V134.093H527.968ZM527.968 126.791H527.238V127.521H527.968V126.791ZM527.968 123.14V122.409H527.238V123.14H527.968ZM531.619 123.14H532.349V122.409H531.619V123.14ZM531.619 126.791V127.521H532.349V126.791H531.619ZM528.698 163.302V159.651H527.238V163.302H528.698ZM527.968 160.381H531.619V158.921H527.968V160.381ZM530.889 159.651V163.302H532.349V159.651H530.889ZM531.619 162.572H527.968V164.033H531.619V162.572ZM525.047 159.651V152.349H523.587V159.651H525.047ZM524.317 153.079H527.968V151.619H524.317V153.079ZM527.238 152.349V159.651H528.698V152.349H527.238ZM527.968 158.921H524.317V160.381H527.968V158.921ZM521.396 152.349V134.093H519.935V152.349H521.396ZM520.666 134.823H524.317V133.363H520.666V134.823ZM523.587 134.093V152.349H525.047V134.093H523.587ZM524.317 151.619H520.666V153.079H524.317V151.619ZM525.047 134.093V126.791H523.587V134.093H525.047ZM524.317 127.521H527.968V126.06H524.317V127.521ZM527.238 126.791V134.093H528.698V126.791H527.238ZM527.968 133.363H524.317V134.823H527.968V133.363ZM528.698 126.791V123.14H527.238V126.791H528.698ZM527.968 123.87H531.619V122.409H527.968V123.87ZM530.889 123.14V126.791H532.349V123.14H530.889ZM531.619 126.06H527.968V127.521H531.619V126.06ZM546.808 156H546.078V156.73H546.808V156ZM546.808 152.349V151.619H546.078V152.349H546.808ZM561.413 152.349H562.143V151.619H561.413V152.349ZM561.413 156V156.73H562.143V156H561.413ZM543.157 152.349H542.427V153.079H543.157V152.349ZM543.157 148.698V147.967H542.427V148.698H543.157ZM546.808 148.698H547.538V147.967H546.808V148.698ZM546.808 152.349V153.079H547.538V152.349H546.808ZM546.808 145.047H546.078V145.777H546.808V145.047ZM546.808 137.744V137.014H546.078V137.744H546.808ZM550.459 137.744H551.189V137.014H550.459V137.744ZM550.459 145.047V145.777H551.189V145.047H550.459ZM539.506 148.698H538.775V149.428H539.506V148.698ZM539.506 134.093V133.363H538.775V134.093H539.506ZM543.157 134.093H543.887V133.363H543.157V134.093ZM543.157 148.698V149.428H543.887V148.698H543.157ZM550.459 148.698H549.729V149.428H550.459V148.698ZM550.459 145.047V144.316H549.729V145.047H550.459ZM554.11 145.047V145.777H554.841V145.047H554.11ZM554.11 137.744H554.841V137.014H554.11V137.744ZM550.459 137.744H549.729V138.474H550.459V137.744ZM550.459 134.093V133.363H549.729V134.093H550.459ZM557.761 134.093H558.492V133.363H557.761V134.093ZM557.761 145.047H557.031V145.777H557.761V145.047ZM561.413 145.047H562.143V144.316H561.413V145.047ZM561.413 148.698V149.428H562.143V148.698H561.413ZM561.413 145.047H560.682V145.777H561.413V145.047ZM561.413 134.093V133.363H560.682V134.093H561.413ZM565.064 134.093H565.794V133.363H565.064V134.093ZM565.064 145.047V145.777H565.794V145.047H565.064ZM543.157 134.093H542.427V134.823H543.157V134.093ZM543.157 130.442V129.712H542.427V130.442H543.157ZM546.808 130.442H547.538V129.712H546.808V130.442ZM546.808 134.093V134.823H547.538V134.093H546.808ZM557.761 134.093H557.031V134.823H557.761V134.093ZM557.761 130.442V129.712H557.031V130.442H557.761ZM561.413 130.442H562.143V129.712H561.413V130.442ZM561.413 134.093V134.823H562.143V134.093H561.413ZM546.808 130.442H546.078V131.172H546.808V130.442ZM546.808 126.791V126.06H546.078V126.791H546.808ZM557.761 126.791H558.492V126.06H557.761V126.791ZM557.761 130.442V131.172H558.492V130.442H557.761ZM547.538 156V152.349H546.078V156H547.538ZM546.808 153.079H561.413V151.619H546.808V153.079ZM560.682 152.349V156H562.143V152.349H560.682ZM561.413 155.27H546.808V156.73H561.413V155.27ZM543.887 152.349V148.698H542.427V152.349H543.887ZM543.157 149.428H546.808V147.967H543.157V149.428ZM546.078 148.698V152.349H547.538V148.698H546.078ZM546.808 151.619H543.157V153.079H546.808V151.619ZM547.538 145.047V137.744H546.078V145.047H547.538ZM546.808 138.474H550.459V137.014H546.808V138.474ZM549.729 137.744V145.047H551.189V137.744H549.729ZM550.459 144.316H546.808V145.777H550.459V144.316ZM540.236 148.698V134.093H538.775V148.698H540.236ZM539.506 134.823H543.157V133.363H539.506V134.823ZM542.427 134.093V148.698H543.887V134.093H542.427ZM543.157 147.967H539.506V149.428H543.157V147.967ZM551.189 148.698V145.047H549.729V148.698H551.189ZM550.459 145.777H554.11V144.316H550.459V145.777ZM554.841 145.047V137.744H553.38V145.047H554.841ZM554.11 137.014H550.459V138.474H554.11V137.014ZM551.189 137.744V134.093H549.729V137.744H551.189ZM550.459 134.823H557.761V133.363H550.459V134.823ZM557.031 134.093V145.047H558.492V134.093H557.031ZM557.761 145.777H561.413V144.316H557.761V145.777ZM560.682 145.047V148.698H562.143V145.047H560.682ZM561.413 147.967H550.459V149.428H561.413V147.967ZM562.143 145.047V134.093H560.682V145.047H562.143ZM561.413 134.823H565.064V133.363H561.413V134.823ZM564.334 134.093V145.047H565.794V134.093H564.334ZM565.064 144.316H561.413V145.777H565.064V144.316ZM543.887 134.093V130.442H542.427V134.093H543.887ZM543.157 131.172H546.808V129.712H543.157V131.172ZM546.078 130.442V134.093H547.538V130.442H546.078ZM546.808 133.363H543.157V134.823H546.808V133.363ZM558.492 134.093V130.442H557.031V134.093H558.492ZM557.761 131.172H561.413V129.712H557.761V131.172ZM560.682 130.442V134.093H562.143V130.442H560.682ZM561.413 133.363H557.761V134.823H561.413V133.363ZM547.538 130.442V126.791H546.078V130.442H547.538ZM546.808 127.521H557.761V126.06H546.808V127.521ZM557.031 126.791V130.442H558.492V126.791H557.031ZM557.761 129.712H546.808V131.172H557.761V129.712ZM583.904 156H583.174V156.73H583.904V156ZM583.904 137.744V137.014H583.174V137.744H583.904ZM587.555 137.744H588.285V137.014H587.555V137.744ZM587.555 156V156.73H588.285V156H587.555ZM569.299 156H568.569V156.73H569.299V156ZM569.299 134.093V133.363H568.569V134.093H569.299ZM583.904 134.093H584.634V133.363H583.904V134.093ZM583.904 137.744V138.474H584.634V137.744H583.904ZM572.95 137.744V137.014H572.22V137.744H572.95ZM572.95 156V156.73H573.681V156H572.95ZM584.634 156V137.744H583.174V156H584.634ZM583.904 138.474H587.555V137.014H583.904V138.474ZM586.825 137.744V156H588.285V137.744H586.825ZM587.555 155.27H583.904V156.73H587.555V155.27ZM570.029 156V134.093H568.569V156H570.029ZM569.299 134.823H583.904V133.363H569.299V134.823ZM583.174 134.093V137.744H584.634V134.093H583.174ZM583.904 137.014H572.95V138.474H583.904V137.014ZM572.22 137.744V156H573.681V137.744H572.22ZM572.95 155.27H569.299V156.73H572.95V155.27ZM599.093 156H598.362V156.73H599.093V156ZM599.093 152.349V151.619H598.362V152.349H599.093ZM610.046 152.349H610.776V151.619H610.046V152.349ZM610.046 156V156.73H610.776V156H610.046ZM610.046 152.349H609.316V153.079H610.046V152.349ZM610.046 148.698V147.967H609.316V148.698H610.046ZM613.697 148.698H614.427V147.967H613.697V148.698ZM613.697 152.349V153.079H614.427V152.349H613.697ZM595.441 152.349H594.711V153.079H595.441V152.349ZM595.441 137.744V137.014H594.711V137.744H595.441ZM599.093 137.744H599.823V137.014H599.093V137.744ZM599.093 141.395H598.362V142.126H599.093V141.395ZM610.046 141.395V142.126H610.776V141.395H610.046ZM610.046 137.744V137.014H609.316V137.744H610.046ZM613.697 137.744H614.427V137.014H613.697V137.744ZM613.697 145.047V145.777H614.427V145.047H613.697ZM599.093 145.047V144.316H598.362V145.047H599.093ZM599.093 152.349V153.079H599.823V152.349H599.093ZM599.093 137.744H598.362V138.474H599.093V137.744ZM599.093 134.093V133.363H598.362V134.093H599.093ZM610.046 134.093H610.776V133.363H610.046V134.093ZM610.046 137.744V138.474H610.776V137.744H610.046ZM599.823 156V152.349H598.362V156H599.823ZM599.093 153.079H610.046V151.619H599.093V153.079ZM609.316 152.349V156H610.776V152.349H609.316ZM610.046 155.27H599.093V156.73H610.046V155.27ZM610.776 152.349V148.698H609.316V152.349H610.776ZM610.046 149.428H613.697V147.967H610.046V149.428ZM612.967 148.698V152.349H614.427V148.698H612.967ZM613.697 151.619H610.046V153.079H613.697V151.619ZM596.172 152.349V137.744H594.711V152.349H596.172ZM595.441 138.474H599.093V137.014H595.441V138.474ZM598.362 137.744V141.395H599.823V137.744H598.362ZM599.093 142.126H610.046V140.665H599.093V142.126ZM610.776 141.395V137.744H609.316V141.395H610.776ZM610.046 138.474H613.697V137.014H610.046V138.474ZM612.967 137.744V145.047H614.427V137.744H612.967ZM613.697 144.316H599.093V145.777H613.697V144.316ZM598.362 145.047V152.349H599.823V145.047H598.362ZM599.093 151.619H595.441V153.079H599.093V151.619ZM599.823 137.744V134.093H598.362V137.744H599.823ZM599.093 134.823H610.046V133.363H599.093V134.823ZM609.316 134.093V137.744H610.776V134.093H609.316ZM610.046 137.014H599.093V138.474H610.046V137.014ZM636.188 156H635.458V156.73H636.188V156ZM636.188 152.349V151.619H635.458V152.349H636.188ZM639.84 152.349H640.57V151.619H639.84V152.349ZM639.84 156V156.73H640.57V156H639.84ZM632.537 152.349H631.807V153.079H632.537V152.349ZM632.537 148.698V147.967H631.807V148.698H632.537ZM636.188 148.698H636.919V147.967H636.188V148.698ZM636.188 152.349V153.079H636.919V152.349H636.188ZM632.537 141.395H631.807V142.126H632.537V141.395ZM632.537 137.744V137.014H631.807V137.744H632.537ZM636.188 137.744H636.919V137.014H636.188V137.744ZM636.188 141.395V142.126H636.919V141.395H636.188ZM636.188 137.744H635.458V138.474H636.188V137.744ZM636.188 134.093V133.363H635.458V134.093H636.188ZM639.84 134.093H640.57V133.363H639.84V134.093ZM639.84 137.744V138.474H640.57V137.744H639.84ZM621.584 156H620.853V156.73H621.584V156ZM621.584 123.14V122.409H620.853V123.14H621.584ZM625.235 123.14H625.965V122.409H625.235V123.14ZM625.235 145.047H624.505V145.777H625.235V145.047ZM628.886 145.047V145.777H629.616V145.047H628.886ZM628.886 141.395V140.665H628.156V141.395H628.886ZM632.537 141.395H633.267V140.665H632.537V141.395ZM632.537 148.698V149.428H633.267V148.698H632.537ZM625.235 148.698V147.967H624.505V148.698H625.235ZM625.235 156V156.73H625.965V156H625.235ZM636.919 156V152.349H635.458V156H636.919ZM636.188 153.079H639.84V151.619H636.188V153.079ZM639.109 152.349V156H640.57V152.349H639.109ZM639.84 155.27H636.188V156.73H639.84V155.27ZM633.267 152.349V148.698H631.807V152.349H633.267ZM632.537 149.428H636.188V147.967H632.537V149.428ZM635.458 148.698V152.349H636.919V148.698H635.458ZM636.188 151.619H632.537V153.079H636.188V151.619ZM633.267 141.395V137.744H631.807V141.395H633.267ZM632.537 138.474H636.188V137.014H632.537V138.474ZM635.458 137.744V141.395H636.919V137.744H635.458ZM636.188 140.665H632.537V142.126H636.188V140.665ZM636.919 137.744V134.093H635.458V137.744H636.919ZM636.188 134.823H639.84V133.363H636.188V134.823ZM639.109 134.093V137.744H640.57V134.093H639.109ZM639.84 137.014H636.188V138.474H639.84V137.014ZM622.314 156V123.14H620.853V156H622.314ZM621.584 123.87H625.235V122.409H621.584V123.87ZM624.505 123.14V145.047H625.965V123.14H624.505ZM625.235 145.777H628.886V144.316H625.235V145.777ZM629.616 145.047V141.395H628.156V145.047H629.616ZM628.886 142.126H632.537V140.665H628.886V142.126ZM631.807 141.395V148.698H633.267V141.395H631.807ZM632.537 147.967H625.235V149.428H632.537V147.967ZM624.505 148.698V156H625.965V148.698H624.505ZM625.235 155.27H621.584V156.73H625.235V155.27ZM655.028 156H654.298V156.73H655.028V156ZM655.028 137.744H655.759V137.014H655.028V137.744ZM651.377 137.744H650.647V138.474H651.377V137.744ZM651.377 134.093V133.363H650.647V134.093H651.377ZM658.68 134.093H659.41V133.363H658.68V134.093ZM658.68 156V156.73H659.41V156H658.68ZM655.028 126.791H654.298V127.521H655.028V126.791ZM655.028 123.14V122.409H654.298V123.14H655.028ZM658.68 123.14H659.41V122.409H658.68V123.14ZM658.68 126.791V127.521H659.41V126.791H658.68ZM655.759 156V137.744H654.298V156H655.759ZM655.028 137.014H651.377V138.474H655.028V137.014ZM652.107 137.744V134.093H650.647V137.744H652.107ZM651.377 134.823H658.68V133.363H651.377V134.823ZM657.949 134.093V156H659.41V134.093H657.949ZM658.68 155.27H655.028V156.73H658.68V155.27ZM655.759 126.791V123.14H654.298V126.791H655.759ZM655.028 123.87H658.68V122.409H655.028V123.87ZM657.949 123.14V126.791H659.41V123.14H657.949ZM658.68 126.06H655.028V127.521H658.68V126.06ZM681.171 156H680.44V156.73H681.171V156ZM681.171 152.349V151.619H680.44V152.349H681.171ZM692.124 152.349H692.854V151.619H692.124V152.349ZM692.124 156V156.73H692.854V156H692.124ZM677.52 152.349H676.789V153.079H677.52V152.349ZM677.52 126.791V126.06H676.789V126.791H677.52ZM681.171 126.791H681.901V126.06H681.171V126.791ZM681.171 134.093H680.44V134.823H681.171V134.093ZM692.124 134.093H692.854V133.363H692.124V134.093ZM692.124 137.744V138.474H692.854V137.744H692.124ZM681.171 137.744V137.014H680.44V137.744H681.171ZM681.171 152.349V153.079H681.901V152.349H681.171ZM681.901 156V152.349H680.44V156H681.901ZM681.171 153.079H692.124V151.619H681.171V153.079ZM691.394 152.349V156H692.854V152.349H691.394ZM692.124 155.27H681.171V156.73H692.124V155.27ZM678.25 152.349V126.791H676.789V152.349H678.25ZM677.52 127.521H681.171V126.06H677.52V127.521ZM680.44 126.791V134.093H681.901V126.791H680.44ZM681.171 134.823H692.124V133.363H681.171V134.823ZM691.394 134.093V137.744H692.854V134.093H691.394ZM692.124 137.014H681.171V138.474H692.124V137.014ZM680.44 137.744V152.349H681.901V137.744H680.44ZM681.171 151.619H677.52V153.079H681.171V151.619ZM700.011 156H699.28V156.73H700.011V156ZM700.011 152.349V151.619H699.28V152.349H700.011ZM703.662 152.349V153.079H704.392V152.349H703.662ZM703.662 148.698V147.967H702.932V148.698H703.662ZM707.313 148.698H708.043V147.967H707.313V148.698ZM707.313 152.349H706.583V153.079H707.313V152.349ZM718.267 152.349H718.997V151.619H718.267V152.349ZM718.267 156V156.73H718.997V156H718.267ZM707.313 148.698H706.583V149.428H707.313V148.698ZM707.313 145.047V144.316H706.583V145.047H707.313ZM710.964 145.047H711.694V144.316H710.964V145.047ZM710.964 148.698V149.428H711.694V148.698H710.964ZM710.964 145.047H710.234V145.777H710.964V145.047ZM710.964 141.395V140.665H710.234V141.395H710.964ZM714.615 141.395H715.346V140.665H714.615V141.395ZM714.615 145.047V145.777H715.346V145.047H714.615ZM714.615 141.395H713.885V142.126H714.615V141.395ZM714.615 137.744H715.346V137.014H714.615V137.744ZM700.011 137.744H699.28V138.474H700.011V137.744ZM700.011 134.093V133.363H699.28V134.093H700.011ZM718.267 134.093H718.997V133.363H718.267V134.093ZM718.267 141.395V142.126H718.997V141.395H718.267ZM700.741 156V152.349H699.28V156H700.741ZM700.011 153.079H703.662V151.619H700.011V153.079ZM704.392 152.349V148.698H702.932V152.349H704.392ZM703.662 149.428H707.313V147.967H703.662V149.428ZM706.583 148.698V152.349H708.043V148.698H706.583ZM707.313 153.079H718.267V151.619H707.313V153.079ZM717.536 152.349V156H718.997V152.349H717.536ZM718.267 155.27H700.011V156.73H718.267V155.27ZM708.043 148.698V145.047H706.583V148.698H708.043ZM707.313 145.777H710.964V144.316H707.313V145.777ZM710.234 145.047V148.698H711.694V145.047H710.234ZM710.964 147.967H707.313V149.428H710.964V147.967ZM711.694 145.047V141.395H710.234V145.047H711.694ZM710.964 142.126H714.615V140.665H710.964V142.126ZM713.885 141.395V145.047H715.346V141.395H713.885ZM714.615 144.316H710.964V145.777H714.615V144.316ZM715.346 141.395V137.744H713.885V141.395H715.346ZM714.615 137.014H700.011V138.474H714.615V137.014ZM700.741 137.744V134.093H699.28V137.744H700.741ZM700.011 134.823H718.267V133.363H700.011V134.823ZM717.536 134.093V141.395H718.997V134.093H717.536ZM718.267 140.665H714.615V142.126H718.267V140.665ZM726.153 156H725.423V156.73H726.153V156ZM726.153 152.349V151.619H725.423V152.349H726.153ZM729.804 152.349V153.079H730.534V152.349H729.804ZM729.804 148.698V147.967H729.074V148.698H729.804ZM733.455 148.698H734.186V147.967H733.455V148.698ZM733.455 152.349H732.725V153.079H733.455V152.349ZM744.409 152.349H745.139V151.619H744.409V152.349ZM744.409 156V156.73H745.139V156H744.409ZM733.455 148.698H732.725V149.428H733.455V148.698ZM733.455 145.047V144.316H732.725V145.047H733.455ZM737.107 145.047H737.837V144.316H737.107V145.047ZM737.107 148.698V149.428H737.837V148.698H737.107ZM737.107 145.047H736.376V145.777H737.107V145.047ZM737.107 141.395V140.665H736.376V141.395H737.107ZM740.758 141.395H741.488V140.665H740.758V141.395ZM740.758 145.047V145.777H741.488V145.047H740.758ZM740.758 141.395H740.027V142.126H740.758V141.395ZM740.758 137.744H741.488V137.014H740.758V137.744ZM726.153 137.744H725.423V138.474H726.153V137.744ZM726.153 134.093V133.363H725.423V134.093H726.153ZM744.409 134.093H745.139V133.363H744.409V134.093ZM744.409 141.395V142.126H745.139V141.395H744.409ZM726.883 156V152.349H725.423V156H726.883ZM726.153 153.079H729.804V151.619H726.153V153.079ZM730.534 152.349V148.698H729.074V152.349H730.534ZM729.804 149.428H733.455V147.967H729.804V149.428ZM732.725 148.698V152.349H734.186V148.698H732.725ZM733.455 153.079H744.409V151.619H733.455V153.079ZM743.679 152.349V156H745.139V152.349H743.679ZM744.409 155.27H726.153V156.73H744.409V155.27ZM734.186 148.698V145.047H732.725V148.698H734.186ZM733.455 145.777H737.107V144.316H733.455V145.777ZM736.376 145.047V148.698H737.837V145.047H736.376ZM737.107 147.967H733.455V149.428H737.107V147.967ZM737.837 145.047V141.395H736.376V145.047H737.837ZM737.107 142.126H740.758V140.665H737.107V142.126ZM740.027 141.395V145.047H741.488V141.395H740.027ZM740.758 144.316H737.107V145.777H740.758V144.316ZM741.488 141.395V137.744H740.027V141.395H741.488ZM740.758 137.014H726.153V138.474H740.758V137.014ZM726.883 137.744V134.093H725.423V137.744H726.883ZM726.153 134.823H744.409V133.363H726.153V134.823ZM743.679 134.093V141.395H745.139V134.093H743.679ZM744.409 140.665H740.758V142.126H744.409V140.665ZM755.947 156H755.216V156.73H755.947V156ZM755.947 152.349V151.619H755.216V152.349H755.947ZM763.249 152.349H763.979V151.619H763.249V152.349ZM763.249 156V156.73H763.979V156H763.249ZM763.249 152.349H762.519V153.079H763.249V152.349ZM763.249 148.698V147.967H762.519V148.698H763.249ZM766.9 148.698H767.63V147.967H766.9V148.698ZM766.9 152.349V153.079H767.63V152.349H766.9ZM752.295 141.395H751.565V142.126H752.295V141.395ZM752.295 130.442V129.712H751.565V130.442H752.295ZM755.947 130.442H756.677V129.712H755.947V130.442ZM755.947 141.395V142.126H756.677V141.395H755.947ZM766.9 148.698H766.17V149.428H766.9V148.698ZM766.9 145.047H767.63V144.316H766.9V145.047ZM755.947 145.047H755.216V145.777H755.947V145.047ZM755.947 141.395V140.665H755.216V141.395H755.947ZM766.9 141.395V142.126H767.63V141.395H766.9ZM766.9 130.442V129.712H766.17V130.442H766.9ZM770.551 130.442H771.281V129.712H770.551V130.442ZM770.551 148.698V149.428H771.281V148.698H770.551ZM755.947 130.442H755.216V131.172H755.947V130.442ZM755.947 126.791V126.06H755.216V126.791H755.947ZM766.9 126.791H767.63V126.06H766.9V126.791ZM766.9 130.442V131.172H767.63V130.442H766.9ZM756.677 156V152.349H755.216V156H756.677ZM755.947 153.079H763.249V151.619H755.947V153.079ZM762.519 152.349V156H763.979V152.349H762.519ZM763.249 155.27H755.947V156.73H763.249V155.27ZM763.979 152.349V148.698H762.519V152.349H763.979ZM763.249 149.428H766.9V147.967H763.249V149.428ZM766.17 148.698V152.349H767.63V148.698H766.17ZM766.9 151.619H763.249V153.079H766.9V151.619ZM753.026 141.395V130.442H751.565V141.395H753.026ZM752.295 131.172H755.947V129.712H752.295V131.172ZM755.216 130.442V141.395H756.677V130.442H755.216ZM755.947 140.665H752.295V142.126H755.947V140.665ZM767.63 148.698V145.047H766.17V148.698H767.63ZM766.9 144.316H755.947V145.777H766.9V144.316ZM756.677 145.047V141.395H755.216V145.047H756.677ZM755.947 142.126H766.9V140.665H755.947V142.126ZM767.63 141.395V130.442H766.17V141.395H767.63ZM766.9 131.172H770.551V129.712H766.9V131.172ZM769.821 130.442V148.698H771.281V130.442H769.821ZM770.551 147.967H766.9V149.428H770.551V147.967ZM756.677 130.442V126.791H755.216V130.442H756.677ZM755.947 127.521H766.9V126.06H755.947V127.521ZM766.17 126.791V130.442H767.63V126.791H766.17ZM766.9 129.712H755.947V131.172H766.9V129.712ZM782.089 156H781.359V156.73H782.089V156ZM782.089 152.349V151.619H781.359V152.349H782.089ZM789.391 152.349H790.121V151.619H789.391V152.349ZM789.391 156V156.73H790.121V156H789.391ZM789.391 152.349H788.661V153.079H789.391V152.349ZM789.391 148.698V147.967H788.661V148.698H789.391ZM793.042 148.698H793.773V147.967H793.042V148.698ZM793.042 152.349V153.079H793.773V152.349H793.042ZM778.438 141.395H777.707V142.126H778.438V141.395ZM778.438 130.442V129.712H777.707V130.442H778.438ZM782.089 130.442H782.819V129.712H782.089V130.442ZM782.089 141.395V142.126H782.819V141.395H782.089ZM793.042 148.698H792.312V149.428H793.042V148.698ZM793.042 145.047H793.773V144.316H793.042V145.047ZM782.089 145.047H781.359V145.777H782.089V145.047ZM782.089 141.395V140.665H781.359V141.395H782.089ZM793.042 141.395V142.126H793.773V141.395H793.042ZM793.042 130.442V129.712H792.312V130.442H793.042ZM796.694 130.442H797.424V129.712H796.694V130.442ZM796.694 148.698V149.428H797.424V148.698H796.694ZM782.089 130.442H781.359V131.172H782.089V130.442ZM782.089 126.791V126.06H781.359V126.791H782.089ZM793.042 126.791H793.773V126.06H793.042V126.791ZM793.042 130.442V131.172H793.773V130.442H793.042ZM782.819 156V152.349H781.359V156H782.819ZM782.089 153.079H789.391V151.619H782.089V153.079ZM788.661 152.349V156H790.121V152.349H788.661ZM789.391 155.27H782.089V156.73H789.391V155.27ZM790.121 152.349V148.698H788.661V152.349H790.121ZM789.391 149.428H793.042V147.967H789.391V149.428ZM792.312 148.698V152.349H793.773V148.698H792.312ZM793.042 151.619H789.391V153.079H793.042V151.619ZM779.168 141.395V130.442H777.707V141.395H779.168ZM778.438 131.172H782.089V129.712H778.438V131.172ZM781.359 130.442V141.395H782.819V130.442H781.359ZM782.089 140.665H778.438V142.126H782.089V140.665ZM793.773 148.698V145.047H792.312V148.698H793.773ZM793.042 144.316H782.089V145.777H793.042V144.316ZM782.819 145.047V141.395H781.359V145.047H782.819ZM782.089 142.126H793.042V140.665H782.089V142.126ZM793.773 141.395V130.442H792.312V141.395H793.773ZM793.042 131.172H796.694V129.712H793.042V131.172ZM795.963 130.442V148.698H797.424V130.442H795.963ZM796.694 147.967H793.042V149.428H796.694V147.967ZM782.819 130.442V126.791H781.359V130.442H782.819ZM782.089 127.521H793.042V126.06H782.089V127.521ZM792.312 126.791V130.442H793.773V126.791H792.312ZM793.042 129.712H782.089V131.172H793.042V129.712ZM804.58 137.744H803.85V138.474H804.58V137.744ZM804.58 134.093V133.363H803.85V134.093H804.58ZM808.231 134.093H808.961V133.363H808.231V134.093ZM808.231 137.744V138.474H808.961V137.744H808.231ZM804.58 156H803.85V156.73H804.58V156ZM804.58 152.349V151.619H803.85V152.349H804.58ZM811.882 152.349V153.079H812.613V152.349H811.882ZM811.882 134.093H812.613V133.363H811.882V134.093ZM808.231 134.093H807.501V134.823H808.231V134.093ZM808.231 130.442V129.712H807.501V130.442H808.231ZM811.882 130.442V131.172H812.613V130.442H811.882ZM811.882 126.791V126.06H811.152V126.791H811.882ZM815.533 126.791H816.264V126.06H815.533V126.791ZM815.533 152.349H814.803V153.079H815.533V152.349ZM822.836 152.349H823.566V151.619H822.836V152.349ZM822.836 156V156.73H823.566V156H822.836ZM805.31 137.744V134.093H803.85V137.744H805.31ZM804.58 134.823H808.231V133.363H804.58V134.823ZM807.501 134.093V137.744H808.961V134.093H807.501ZM808.231 137.014H804.58V138.474H808.231V137.014ZM805.31 156V152.349H803.85V156H805.31ZM804.58 153.079H811.882V151.619H804.58V153.079ZM812.613 152.349V134.093H811.152V152.349H812.613ZM811.882 133.363H808.231V134.823H811.882V133.363ZM808.961 134.093V130.442H807.501V134.093H808.961ZM808.231 131.172H811.882V129.712H808.231V131.172ZM812.613 130.442V126.791H811.152V130.442H812.613ZM811.882 127.521H815.533V126.06H811.882V127.521ZM814.803 126.791V152.349H816.264V126.791H814.803ZM815.533 153.079H822.836V151.619H815.533V153.079ZM822.106 152.349V156H823.566V152.349H822.106ZM822.836 155.27H804.58V156.73H822.836V155.27ZM834.373 163.302H833.643V164.033H834.373V163.302ZM834.373 159.651V158.921H833.643V159.651H834.373ZM838.025 159.651H838.755V158.921H838.025V159.651ZM838.025 163.302V164.033H838.755V163.302H838.025ZM838.025 159.651H837.294V160.381H838.025V159.651ZM838.025 152.349V151.619H837.294V152.349H838.025ZM841.676 152.349H842.406V151.619H841.676V152.349ZM841.676 159.651V160.381H842.406V159.651H841.676ZM841.676 152.349H840.946V153.079H841.676V152.349ZM841.676 134.093V133.363H840.946V134.093H841.676ZM845.327 134.093H846.057V133.363H845.327V134.093ZM845.327 152.349V153.079H846.057V152.349H845.327ZM838.025 134.093H837.294V134.823H838.025V134.093ZM838.025 126.791V126.06H837.294V126.791H838.025ZM841.676 126.791H842.406V126.06H841.676V126.791ZM841.676 134.093V134.823H842.406V134.093H841.676ZM834.373 126.791H833.643V127.521H834.373V126.791ZM834.373 123.14V122.409H833.643V123.14H834.373ZM838.025 123.14H838.755V122.409H838.025V123.14ZM838.025 126.791V127.521H838.755V126.791H838.025ZM835.104 163.302V159.651H833.643V163.302H835.104ZM834.373 160.381H838.025V158.921H834.373V160.381ZM837.294 159.651V163.302H838.755V159.651H837.294ZM838.025 162.572H834.373V164.033H838.025V162.572ZM838.755 159.651V152.349H837.294V159.651H838.755ZM838.025 153.079H841.676V151.619H838.025V153.079ZM840.946 152.349V159.651H842.406V152.349H840.946ZM841.676 158.921H838.025V160.381H841.676V158.921ZM842.406 152.349V134.093H840.946V152.349H842.406ZM841.676 134.823H845.327V133.363H841.676V134.823ZM844.597 134.093V152.349H846.057V134.093H844.597ZM845.327 151.619H841.676V153.079H845.327V151.619ZM838.755 134.093V126.791H837.294V134.093H838.755ZM838.025 127.521H841.676V126.06H838.025V127.521ZM840.946 126.791V134.093H842.406V126.791H840.946ZM841.676 133.363H838.025V134.823H841.676V133.363ZM835.104 126.791V123.14H833.643V126.791H835.104ZM834.373 123.87H838.025V122.409H834.373V123.87ZM837.294 123.14V126.791H838.755V123.14H837.294ZM838.025 126.06H834.373V127.521H838.025V126.06Z" fill="#252840" mask="url(#path-19-outside-1_63_7)"/>
<rect x="988" y="-9" width="13" height="215" fill="#B9A597"/>
<rect x="989" y="193" width="13" height="989" transform="rotate(90 989 193)" fill="#B9A597"/>
</g>
<defs>
<clipPath id="clip0_63_7">
<rect width="1000" height="206" fill="white"/>
</clipPath>
</defs>
</svg>
