<?xml version="1.0" encoding="UTF-8"?>
<svg id="_Слой_2" data-name="Слой_2" xmlns="http://www.w3.org/2000/svg" version="1.1" viewBox="0 0 1000 354">
  <!-- Generator: Adobe Illustrator 29.2.1, SVG Export Plug-In . SVG Version: 2.1.0 Build 116)  -->
  <defs>
    <style>
      .st0 {
        fill: #b9a597;
      }

      .st1 {
        fill: #fff;
      }

      .st2 {
        fill-rule: evenodd;
      }

      .st2, .st3 {
        fill: #252840;
      }
    </style>
  </defs>
  <rect class="st1" width="1000" height="354"/>
  <g>
    <polygon class="st2" points="613.29 53.42 613.29 38.89 606.32 38.89 606.32 32 581.66 32 581.66 38.89 574.77 38.89 574.77 77.18 581.66 77.18 581.66 84 606.32 84 606.32 77.18 613.29 77.18 613.29 60.99 602.26 60.99 602.26 73.12 585.72 73.12 585.72 42.96 602.26 42.96 602.26 53.42 613.29 53.42"/>
    <path class="st2" d="M542.6,42.96h6.89v30.17h-6.89v10.88h24.74v-10.88h-6.97v-30.17h6.97v-10.96h-24.74v10.96ZM544.25,74.77h6.89v-33.47h0v33.47h-6.89v7.57h0v-7.57ZM565.68,74.77h0s-6.97,0-6.97,0h0s6.97,0,6.97,0ZM544.25,33.65h21.43s-21.43,0-21.43,0v7.65h0v-7.65Z"/>
    <path class="st2" d="M526.75,32h-24.66v6.89h-6.89v17.69h6.89v6.82h20.6v9.72h-16.53v-6.89h-10.96v10.96h6.89v6.82h24.66v-6.82h6.97v-17.85h-6.97v-6.74h-20.6v-9.64h16.53v6.82h11.03v-10.88h-6.97v-6.89ZM496.85,40.54h6.89v-6.89h21.36s-21.35,0-21.35,0v6.89h-6.89v14.39h0v-14.39ZM503.74,54.93h0v6.82h0v-6.82ZM524.34,74.77v-13.03h0v13.03h-19.84s19.84,0,19.84,0ZM496.85,67.88h7.65s-7.65,0-7.65,0v7.65h0v-7.65ZM503.74,75.53h0v6.82h0v-6.82ZM532.07,60.99h0s-6.97,0-6.97,0h0s6.97,0,6.97,0ZM525.1,54.25h0s-20.6,0-20.6,0h0s20.6,0,20.6,0ZM524.34,41.3h0v6.82h0v-6.82ZM532.07,40.54h0s-6.97,0-6.97,0h0s6.97,0,6.97,0Z"/>
    <path class="st2" d="M475.29,73.12h-16.53v-41.12h-10.96v45.18h6.89v6.82h24.66v-6.82h6.97v-45.18h-11.03v41.12ZM457.1,33.65v41.12h19.84s-19.84,0-19.84,0v-41.12h-7.65s7.65,0,7.65,0ZM477.7,82.35v-6.82h0v6.82h0ZM484.66,33.65v41.88h0v-41.88h-7.72s7.72,0,7.72,0Z"/>
    <path class="st2" d="M432.13,32h-10.96v6.89h-6.97v13.71h-2.75v-13.71h-6.97v-6.89h-10.88v6.89h-6.89v45.11h10.96v-41.04h2.75v13.63h6.97v20.6h10.88v-20.6h6.97v-13.63h2.83v41.04h10.88v-45.11h-6.82v-6.89ZM415.86,54.25v-13.71h6.97v-6.89h7.65s-7.65,0-7.65,0v6.89h-6.97v13.71h-6.06s6.06,0,6.06,0ZM409.8,40.54h0s-6.97,0-6.97,0h0s6.97,0,6.97,0ZM388.37,40.54h6.89v-6.89h7.57s-7.57,0-7.57,0v6.89h-6.89v41.8h0v-41.8ZM402.07,41.3h0v13.63h0v-13.63ZM409.04,54.93h0v20.6h0v-20.6ZM429.71,41.3h0v41.04h0v-41.04ZM437.29,40.54h0s-6.81,0-6.81,0h0s6.81,0,6.81,0Z"/>
  </g>
  <g>
    <polygon class="st3" points="348.58 156.73 349.31 156.73 349.31 156 349.31 142.13 352.23 142.13 352.96 142.13 352.96 141.4 352.96 138.47 358.81 138.47 358.81 141.4 358.81 142.13 359.54 142.13 363.19 142.13 363.92 142.13 363.92 141.4 363.92 137.74 363.92 137.01 363.19 137.01 360.27 137.01 360.27 134.09 360.27 133.36 359.54 133.36 352.23 133.36 351.5 133.36 351.5 134.09 351.5 137.01 349.31 137.01 349.31 134.09 349.31 133.36 348.58 133.36 344.93 133.36 344.2 133.36 344.2 134.09 344.2 156 344.2 156.73 344.93 156.73 348.58 156.73"/>
    <polygon class="st3" points="229.56 137.01 229.56 134.09 229.56 133.36 228.83 133.36 217.87 133.36 217.14 133.36 217.14 134.09 217.14 137.01 214.22 137.01 213.49 137.01 213.49 137.74 213.49 152.35 213.49 153.08 214.22 153.08 217.14 153.08 217.14 156 217.14 156.73 217.87 156.73 228.83 156.73 229.56 156.73 229.56 156 229.56 153.08 232.48 153.08 233.21 153.08 233.21 152.35 233.21 148.7 233.21 147.97 232.48 147.97 228.83 147.97 228.09 147.97 228.09 148.7 228.09 151.62 218.6 151.62 218.6 138.47 228.09 138.47 228.09 141.4 228.09 142.13 228.83 142.13 232.48 142.13 233.21 142.13 233.21 141.4 233.21 137.74 233.21 137.01 232.48 137.01 229.56 137.01"/>
    <polygon class="st3" points="374 153.08 374 156 374 156.73 374.73 156.73 385.68 156.73 386.41 156.73 386.41 156 386.41 153.08 389.33 153.08 390.06 153.08 390.06 152.35 390.06 148.7 390.06 147.97 389.33 147.97 385.68 147.97 384.95 147.97 384.95 148.7 384.95 151.62 375.46 151.62 375.46 138.47 384.95 138.47 384.95 141.4 384.95 142.13 385.68 142.13 389.33 142.13 390.06 142.13 390.06 141.4 390.06 137.74 390.06 137.01 389.33 137.01 386.41 137.01 386.41 134.09 386.41 133.36 385.68 133.36 374.73 133.36 374 133.36 374 134.09 374 137.01 371.07 137.01 370.34 137.01 370.34 137.74 370.34 152.35 370.34 153.08 371.07 153.08 374 153.08"/>
    <path class="st3" d="M400.14,156v.73h12.41v-3.65h3.65v-5.11h-5.11v3.65h-9.49v-5.84h14.6v-8.76h-3.65v-3.65h-12.41v3.65h-3.65v16.07h3.65v2.92ZM411.09,140.67h-9.49v-2.19h9.49v2.19Z"/>
    <path class="st3" d="M560.64,153.08v3.65h12.41v-3.65h3.65v-5.11h-5.11v3.65h-9.49v-5.84h14.6v-8.76h-3.65v-3.65h-12.41v3.65h-3.65v16.07h3.65ZM571.6,140.67h-9.49v-2.19h9.49v2.19Z"/>
    <polygon class="st3" points="448.19 137.34 447.46 137.34 447.46 138.07 447.46 142.62 447.46 143.35 448.19 143.35 472.72 143.35 473.45 143.35 473.45 142.62 473.45 138.07 473.45 137.34 472.72 137.34 448.19 137.34"/>
    <polygon class="st3" points="285.49 129.71 285.49 126.79 285.49 126.06 284.76 126.06 270.16 126.06 269.43 126.06 269.43 126.79 269.43 129.71 266.51 129.71 265.77 129.71 265.77 130.44 265.77 137.74 265.77 138.47 266.51 138.47 269.43 138.47 269.43 141.4 269.43 142.13 270.16 142.13 276.73 142.13 276.73 145.05 276.73 145.78 277.46 145.78 284.03 145.78 284.03 151.62 270.89 151.62 270.89 148.7 270.89 147.97 270.16 147.97 266.51 147.97 265.77 147.97 265.77 148.7 265.77 152.35 265.77 153.08 266.51 153.08 269.43 153.08 269.43 156 269.43 156.73 270.16 156.73 284.76 156.73 285.49 156.73 285.49 156 285.49 153.08 288.41 153.08 289.14 153.08 289.14 152.35 289.14 145.05 289.14 144.32 288.41 144.32 285.49 144.32 285.49 141.4 285.49 140.67 284.76 140.67 278.19 140.67 278.19 137.74 278.19 137.01 277.46 137.01 270.89 137.01 270.89 131.17 284.03 131.17 284.03 134.09 284.03 134.82 284.76 134.82 288.41 134.82 289.14 134.82 289.14 134.09 289.14 130.44 289.14 129.71 288.41 129.71 285.49 129.71"/>
    <polygon class="st3" points="150.4 133.36 149.67 133.36 149.67 134.09 149.67 151.62 140.17 151.62 140.17 134.09 140.17 133.36 139.44 133.36 135.79 133.36 135.06 133.36 135.06 134.09 135.06 152.35 135.06 153.08 135.79 153.08 138.71 153.08 138.71 156 138.71 156.73 139.44 156.73 154.05 156.73 154.78 156.73 154.78 156 154.78 134.09 154.78 133.36 154.05 133.36 150.4 133.36"/>
    <polygon class="st3" points="124.26 126.06 123.53 126.06 123.53 126.79 123.53 133.36 120.6 133.36 119.87 133.36 119.87 134.09 119.87 140.67 117.68 140.67 117.68 134.09 117.68 133.36 116.95 133.36 114.03 133.36 114.03 126.79 114.03 126.06 113.3 126.06 106 126.06 105.27 126.06 105.27 126.79 105.27 156 105.27 156.73 106 156.73 109.65 156.73 110.38 156.73 110.38 156 110.38 134.82 112.57 134.82 112.57 141.4 112.57 142.13 113.3 142.13 116.22 142.13 116.22 148.7 116.22 149.43 116.95 149.43 120.6 149.43 121.33 149.43 121.33 148.7 121.33 142.13 124.26 142.13 124.99 142.13 124.99 141.4 124.99 134.82 127.18 134.82 127.18 156 127.18 156.73 127.91 156.73 131.56 156.73 132.29 156.73 132.29 156 132.29 126.79 132.29 126.06 131.56 126.06 124.26 126.06"/>
    <path class="st3" d="M508.36,153.08v3.65h12.41v-3.65h3.65v-16.07h-3.65v-3.65h-12.41v3.65h-3.65v16.07h3.65ZM509.82,151.62v-13.14h9.49v13.14h-9.49Z"/>
    <path class="st3" d="M612.93,164.03v3.65h12.41v-3.65h3.65v-8.76h-3.65v-3.65h-10.95v-2.19h7.3v-3.65h3.65v-7.3h3.65v-5.11h-5.11v3.65h-2.19v-3.65h-8.76v3.65h-3.65v8.76h3.65v2.19h-3.65v5.11h3.65v2.19h-3.65v8.76h3.65ZM614.39,162.57v-5.84h9.49v5.84h-9.49ZM614.39,144.32v-5.84h5.84v5.84h-5.84Z"/>
    <path class="st3" d="M834.48,137.01v-3.65h-12.41v3.65h-3.65v16.07h3.65v3.65h12.41v-3.65h3.65v-16.07h-3.65ZM833.02,138.47v13.14h-9.49v-13.14h9.49Z"/>
    <polygon class="st3" points="665.94 156.73 666.67 156.73 666.67 156 666.67 138.47 668.86 138.47 668.86 156 668.86 156.73 669.59 156.73 673.24 156.73 673.97 156.73 673.97 156 673.97 138.47 676.17 138.47 676.17 156 676.17 156.73 676.9 156.73 680.55 156.73 681.28 156.73 681.28 156 681.28 137.74 681.28 137.01 680.55 137.01 677.63 137.01 677.63 134.09 677.63 133.36 676.9 133.36 673.24 133.36 672.51 133.36 672.51 134.09 672.51 137.01 670.32 137.01 670.32 134.09 670.32 133.36 669.59 133.36 662.29 133.36 661.56 133.36 661.56 134.09 661.56 156 661.56 156.73 662.29 156.73 665.94 156.73"/>
    <path class="st3" d="M639.07,153.08v3.65h16.07v-19.72h-3.65v-3.65h-12.41v5.11h10.95v2.19h-10.95v3.65h-3.65v8.76h3.65ZM650.02,151.62h-9.49v-5.84h9.49v5.84Z"/>
    <path class="st3" d="M295.57,153.08v3.65h12.41v-3.65h3.65v-16.07h-3.65v-3.65h-12.41v3.65h-3.65v16.07h3.65ZM297.03,151.62v-13.14h9.49v13.14h-9.49Z"/>
    <path class="st3" d="M874.35,164.03v3.65h12.41v-3.65h3.65v-8.76h-3.65v-3.65h-10.95v-2.19h7.3v-3.65h3.65v-7.3h3.65v-5.11h-5.11v3.65h-2.19v-3.65h-8.76v3.65h-3.65v8.76h3.65v2.19h-3.65v5.11h3.65v2.19h-3.65v8.76h3.65ZM875.81,162.57v-5.84h9.49v5.84h-9.49ZM875.81,144.32v-5.84h5.84v5.84h-5.84Z"/>
    <polygon class="st3" points="800.31 156.73 801.04 156.73 801.04 156 801.04 148.7 801.04 147.97 800.31 147.97 796.65 147.97 795.92 147.97 795.92 148.7 795.92 156 795.92 156.73 796.65 156.73 800.31 156.73"/>
    <polygon class="st3" points="860.62 137.01 860.62 134.09 860.62 133.36 859.89 133.36 852.59 133.36 851.86 133.36 851.86 134.09 851.86 137.01 849.67 137.01 849.67 134.09 849.67 133.36 848.94 133.36 845.29 133.36 844.56 133.36 844.56 134.09 844.56 156 844.56 156.73 845.29 156.73 848.94 156.73 849.67 156.73 849.67 156 849.67 142.13 852.59 142.13 853.32 142.13 853.32 141.4 853.32 138.47 859.16 138.47 859.16 141.4 859.16 142.13 859.89 142.13 863.54 142.13 864.27 142.13 864.27 141.4 864.27 137.74 864.27 137.01 863.54 137.01 860.62 137.01"/>
    <polygon class="st3" points="773.43 153.08 773.43 156 773.43 156.73 774.16 156.73 785.12 156.73 785.85 156.73 785.85 156 785.85 152.35 785.85 151.62 785.12 151.62 774.89 151.62 774.89 138.47 785.12 138.47 785.85 138.47 785.85 137.74 785.85 134.09 785.85 133.36 785.12 133.36 774.89 133.36 774.89 126.79 774.89 126.06 774.16 126.06 770.51 126.06 769.78 126.06 769.78 126.79 769.78 152.35 769.78 153.08 770.51 153.08 773.43 153.08"/>
    <polygon class="st3" points="587.52 156.73 588.25 156.73 588.25 156 588.25 138.47 597.74 138.47 597.74 156 597.74 156.73 598.47 156.73 602.12 156.73 602.85 156.73 602.85 156 602.85 137.74 602.85 137.01 602.12 137.01 599.2 137.01 599.2 134.09 599.2 133.36 598.47 133.36 583.86 133.36 583.13 133.36 583.13 134.09 583.13 156 583.13 156.73 583.86 156.73 587.52 156.73"/>
    <polygon class="st3" points="199.03 127.52 199.76 127.52 199.76 126.79 199.76 123.14 199.76 122.41 199.03 122.41 195.38 122.41 194.65 122.41 194.65 123.14 194.65 126.79 194.65 127.52 195.38 127.52 199.03 127.52"/>
    <polygon class="st3" points="194.65 138.47 194.65 156 194.65 156.73 195.38 156.73 199.03 156.73 199.76 156.73 199.76 156 199.76 134.09 199.76 133.36 199.03 133.36 191.73 133.36 191 133.36 191 134.09 191 137.74 191 138.47 191.73 138.47 194.65 138.47"/>
    <polygon class="st3" points="176.54 156.73 177.27 156.73 177.27 156 177.27 153.08 180.19 153.08 180.92 153.08 180.92 152.35 180.92 148.7 180.92 147.97 180.19 147.97 177.27 147.97 177.27 145.05 177.27 144.32 176.54 144.32 173.62 144.32 173.62 141.4 173.62 140.67 172.89 140.67 166.32 140.67 166.32 138.47 180.19 138.47 180.92 138.47 180.92 137.74 180.92 134.09 180.92 133.36 180.19 133.36 165.59 133.36 164.86 133.36 164.86 134.09 164.86 137.01 161.94 137.01 161.21 137.01 161.21 137.74 161.21 141.4 161.21 142.13 161.94 142.13 164.86 142.13 164.86 145.05 164.86 145.78 165.59 145.78 172.16 145.78 172.16 148.7 172.16 149.43 172.89 149.43 175.81 149.43 175.81 151.62 161.94 151.62 161.21 151.62 161.21 152.35 161.21 156 161.21 156.73 161.94 156.73 176.54 156.73"/>
    <path class="st3" d="M691.35,153.08v3.65h12.41v-3.65h3.65v-5.11h-5.11v3.65h-9.49v-5.84h14.6v-8.76h-3.65v-3.65h-12.41v3.65h-3.65v16.07h3.65ZM702.31,140.67h-9.49v-2.19h9.49v2.19Z"/>
    <path class="st3" d="M535.23,167.68h.73v-10.95h10.95v-3.65h3.65v-16.07h-3.65v-3.65h-16.07v34.32h4.38ZM535.96,138.47h9.49v13.14h-9.49v-13.14Z"/>
    <polygon class="st3" points="744.37 156.73 745.1 156.73 745.1 156 745.1 142.13 748.02 142.13 748.75 142.13 748.75 141.4 748.75 138.47 754.59 138.47 754.59 141.4 754.59 142.13 755.32 142.13 758.97 142.13 759.7 142.13 759.7 141.4 759.7 137.74 759.7 137.01 758.97 137.01 756.05 137.01 756.05 134.09 756.05 133.36 755.32 133.36 748.02 133.36 747.29 133.36 747.29 134.09 747.29 137.01 745.1 137.01 745.1 134.09 745.1 133.36 744.37 133.36 740.72 133.36 739.99 133.36 739.99 134.09 739.99 156 739.99 156.73 740.72 156.73 744.37 156.73"/>
    <path class="st3" d="M717.5,153.08v3.65h16.07v-19.72h-3.65v-3.65h-12.41v5.11h10.95v2.19h-10.95v3.65h-3.65v8.76h3.65ZM728.45,151.62h-9.49v-5.84h9.49v5.84Z"/>
    <polygon class="st3" points="321.71 156 321.71 156.73 322.44 156.73 337.05 156.73 337.78 156.73 337.78 156 337.78 134.09 337.78 133.36 337.05 133.36 333.39 133.36 332.66 133.36 332.66 134.09 332.66 151.62 323.17 151.62 323.17 134.09 323.17 133.36 322.44 133.36 318.79 133.36 318.06 133.36 318.06 134.09 318.06 152.35 318.06 153.08 318.79 153.08 321.71 153.08 321.71 156"/>
    <polygon class="st3" points="283.19 207.36 282.46 207.36 282.46 208.09 282.46 225.62 272.96 225.62 272.96 208.09 272.96 207.36 272.23 207.36 268.58 207.36 267.85 207.36 267.85 208.09 267.85 226.35 267.85 227.08 268.58 227.08 271.5 227.08 271.5 230 271.5 230.73 272.23 230.73 286.84 230.73 287.57 230.73 287.57 230 287.57 208.09 287.57 207.36 286.84 207.36 283.19 207.36"/>
    <polygon class="st3" points="227.98 203.71 227.98 197.14 227.98 196.41 227.25 196.41 223.6 196.41 222.87 196.41 222.87 197.14 222.87 204.44 222.87 205.17 223.6 205.17 226.52 205.17 226.52 208.09 226.52 208.82 227.25 208.82 230.9 208.82 231.63 208.82 231.63 208.09 231.63 204.44 231.63 203.71 230.9 203.71 227.98 203.71"/>
    <path class="st3" d="M44.99,211.01v-3.65h-10.95v-10.95h-5.11v34.32h16.07v-3.65h3.65v-16.07h-3.65ZM34.03,212.47h9.49v13.14h-9.49v-13.14Z"/>
    <path class="st3" d="M428.36,227.08v3.65h16.07v-34.32h-5.11v10.95h-10.95v3.65h-3.65v16.07h3.65ZM439.31,225.62h-9.49v-13.14h9.49v13.14Z"/>
    <polygon class="st3" points="679.7 208.09 679.7 207.36 678.97 207.36 671.67 207.36 670.94 207.36 670.94 208.09 670.94 211.01 668.75 211.01 668.75 208.09 668.75 207.36 668.02 207.36 664.37 207.36 663.64 207.36 663.64 208.09 663.64 230 663.64 230.73 664.37 230.73 668.02 230.73 668.75 230.73 668.75 230 668.75 216.13 671.67 216.13 672.4 216.13 672.4 215.4 672.4 212.47 678.24 212.47 678.24 215.4 678.24 216.13 678.97 216.13 682.63 216.13 683.36 216.13 683.36 215.4 683.36 211.74 683.36 211.01 682.63 211.01 679.7 211.01 679.7 208.09"/>
    <polygon class="st3" points="246.09 200.06 245.36 200.06 245.36 200.79 245.36 204.44 245.36 205.17 246.09 205.17 252.66 205.17 252.66 225.62 242.44 225.62 241.71 225.62 241.71 226.35 241.71 230 241.71 230.73 242.44 230.73 253.39 230.73 254.12 230.73 254.12 230 254.12 227.08 257.05 227.08 257.78 227.08 257.78 226.35 257.78 200.79 257.78 200.06 257.05 200.06 246.09 200.06"/>
    <path class="st3" d="M71.13,211.01v-3.65h-12.41v5.11h10.95v2.19h-10.95v3.65h-3.65v8.76h3.65v3.65h16.07v-19.72h-3.65ZM69.67,225.62h-9.49v-5.84h9.49v5.84Z"/>
    <polygon class="st3" points="97.27 211.01 97.27 208.09 97.27 207.36 96.54 207.36 89.24 207.36 88.51 207.36 88.51 208.09 88.51 211.01 86.32 211.01 86.32 208.09 86.32 207.36 85.59 207.36 81.94 207.36 81.21 207.36 81.21 208.09 81.21 230 81.21 230.73 81.94 230.73 85.59 230.73 86.32 230.73 86.32 230 86.32 216.13 89.24 216.13 89.97 216.13 89.97 215.4 89.97 212.47 95.81 212.47 95.81 215.4 95.81 216.13 96.54 216.13 100.19 216.13 100.92 216.13 100.92 215.4 100.92 211.74 100.92 211.01 100.19 211.01 97.27 211.01"/>
    <polygon class="st3" points="159.05 211.34 158.32 211.34 158.32 212.07 158.32 216.62 158.32 217.35 159.05 217.35 183.58 217.35 184.31 217.35 184.31 216.62 184.31 212.07 184.31 211.34 183.58 211.34 159.05 211.34"/>
    <polygon class="st3" points="116.11 207.36 116.11 200.79 116.11 200.06 115.38 200.06 111.73 200.06 111 200.06 111 200.79 111 226.35 111 227.08 111.73 227.08 114.65 227.08 114.65 230 114.65 230.73 115.38 230.73 126.33 230.73 127.06 230.73 127.06 230 127.06 226.35 127.06 225.62 126.33 225.62 116.11 225.62 116.11 212.47 126.33 212.47 127.06 212.47 127.06 211.74 127.06 208.09 127.06 207.36 126.33 207.36 116.11 207.36"/>
    <path class="st3" d="M810.42,211.01v-3.65h-12.41v5.11h10.95v2.19h-10.95v3.65h-3.65v8.76h3.65v3.65h16.07v-19.72h-3.65ZM808.96,225.62h-9.49v-5.84h9.49v5.84Z"/>
    <path class="st3" d="M731.99,211.01v-3.65h-16.07v34.32h5.11v-10.95h10.95v-3.65h3.65v-16.07h-3.65ZM721.04,212.47h9.49v13.14h-9.49v-13.14Z"/>
    <path class="st3" d="M705.85,211.01v-3.65h-12.41v3.65h-3.65v16.07h3.65v3.65h12.41v-3.65h3.65v-16.07h-3.65ZM704.39,212.47v13.14h-9.49v-13.14h9.49Z"/>
    <polygon class="st3" points="749.37 230.73 750.1 230.73 753.75 230.73 754.48 230.73 754.48 230 754.48 208.09 754.48 207.36 753.75 207.36 746.45 207.36 745.72 207.36 745.72 208.09 745.72 211.74 745.72 212.47 746.45 212.47 749.37 212.47 749.37 230 749.37 230.73"/>
    <polygon class="st3" points="534.39 230.73 534.39 230 534.39 212.47 543.88 212.47 543.88 230 543.88 230.73 544.61 230.73 548.26 230.73 548.99 230.73 548.99 230 548.99 211.74 548.99 211.01 548.26 211.01 545.34 211.01 545.34 208.09 545.34 207.36 544.61 207.36 530.01 207.36 529.28 207.36 529.28 208.09 529.28 230 529.28 230.73 530.01 230.73 533.66 230.73 534.39 230.73"/>
    <polygon class="st3" points="754.48 200.79 754.48 197.14 754.48 196.41 753.75 196.41 750.1 196.41 749.37 196.41 749.37 197.14 749.37 200.79 749.37 201.52 750.1 201.52 753.75 201.52 754.48 201.52 754.48 200.79"/>
    <polygon class="st3" points="660.13 205.17 660.86 205.17 660.86 204.44 660.86 200.79 660.86 200.06 660.13 200.06 634.58 200.06 633.85 200.06 633.85 200.79 633.85 204.44 633.85 205.17 634.58 205.17 644.8 205.17 644.8 230 644.8 230.73 645.53 230.73 649.18 230.73 649.91 230.73 649.91 230 649.91 205.17 660.13 205.17"/>
    <polygon class="st3" points="580.98 211.34 580.25 211.34 580.25 212.07 580.25 216.62 580.25 217.35 580.98 217.35 605.51 217.35 606.24 217.35 606.24 216.62 606.24 212.07 606.24 211.34 605.51 211.34 580.98 211.34"/>
    <polygon class="st3" points="906.95 196.41 906.22 196.41 906.22 197.14 906.22 200.79 906.22 201.52 906.95 201.52 910.6 201.52 911.33 201.52 911.33 200.79 911.33 197.14 911.33 196.41 910.6 196.41 906.95 196.41"/>
    <polygon class="st3" points="784.27 211.01 784.27 208.09 784.27 207.36 783.54 207.36 772.59 207.36 771.86 207.36 771.86 208.09 771.86 211.01 768.94 211.01 768.21 211.01 768.21 211.74 768.21 226.35 768.21 227.08 768.94 227.08 771.86 227.08 771.86 230 771.86 230.73 772.59 230.73 783.54 230.73 784.27 230.73 784.27 230 784.27 227.08 787.19 227.08 787.92 227.08 787.92 226.35 787.92 222.7 787.92 221.97 787.19 221.97 783.54 221.97 782.81 221.97 782.81 222.7 782.81 225.62 773.32 225.62 773.32 212.47 782.81 212.47 782.81 215.4 782.81 216.13 783.54 216.13 787.19 216.13 787.92 216.13 787.92 215.4 787.92 211.74 787.92 211.01 787.19 211.01 784.27 211.01"/>
    <path class="st3" d="M496.71,225.62v-3.65h-3.65v-5.84h3.65v-12.41h-3.65v-3.65h-16.07v30.67h5.11v-10.95h5.84v3.65h3.65v3.65h3.65v3.65h5.11v-5.11h-3.65ZM482.1,205.17h9.49v9.49h-9.49v-9.49Z"/>
    <polygon class="st3" points="962.89 196.41 959.24 196.41 958.51 196.41 958.51 197.14 958.51 203.71 955.59 203.71 954.86 203.71 954.86 204.44 954.86 208.09 954.86 208.82 955.59 208.82 959.24 208.82 959.97 208.82 959.97 208.09 959.97 205.17 962.89 205.17 963.62 205.17 963.62 204.44 963.62 197.14 963.62 196.41 962.89 196.41"/>
    <polygon class="st3" points="940.4 207.36 939.67 207.36 939.67 208.09 939.67 211.01 936.75 211.01 936.02 211.01 936.02 211.74 936.02 214.67 933.83 214.67 933.83 211.74 933.83 211.01 933.09 211.01 930.17 211.01 930.17 208.09 930.17 207.36 929.44 207.36 925.79 207.36 925.06 207.36 925.06 208.09 925.06 211.74 925.06 212.47 925.79 212.47 928.71 212.47 928.71 215.4 928.71 216.13 929.44 216.13 932.36 216.13 932.36 221.97 929.44 221.97 928.71 221.97 928.71 222.7 928.71 225.62 925.79 225.62 925.06 225.62 925.06 226.35 925.06 230 925.06 230.73 925.79 230.73 929.44 230.73 930.17 230.73 930.17 230 930.17 227.08 933.09 227.08 933.83 227.08 933.83 226.35 933.83 223.43 936.02 223.43 936.02 226.35 936.02 227.08 936.75 227.08 939.67 227.08 939.67 230 939.67 230.73 940.4 230.73 944.05 230.73 944.78 230.73 944.78 230 944.78 226.35 944.78 225.62 944.05 225.62 941.13 225.62 941.13 222.7 941.13 221.97 940.4 221.97 937.48 221.97 937.48 216.13 940.4 216.13 941.13 216.13 941.13 215.4 941.13 212.47 944.05 212.47 944.78 212.47 944.78 211.74 944.78 208.09 944.78 207.36 944.05 207.36 940.4 207.36"/>
    <polygon class="st3" points="903.3 207.36 902.57 207.36 902.57 208.09 902.57 211.74 902.57 212.47 903.3 212.47 906.22 212.47 906.22 230 906.22 230.73 906.95 230.73 910.6 230.73 911.33 230.73 911.33 230 911.33 208.09 911.33 207.36 910.6 207.36 903.3 207.36"/>
    <polygon class="st3" points="832.91 225.62 832.91 197.14 832.91 196.41 832.18 196.41 824.87 196.41 824.14 196.41 824.14 197.14 824.14 200.79 824.14 201.52 824.87 201.52 827.8 201.52 827.8 226.35 827.8 227.08 828.53 227.08 831.45 227.08 831.45 230 831.45 230.73 832.18 230.73 835.83 230.73 836.56 230.73 836.56 230 836.56 226.35 836.56 225.62 835.83 225.62 832.91 225.62"/>
    <polygon class="st3" points="888.11 200.06 887.38 200.06 887.38 200.79 887.38 207.36 884.46 207.36 883.73 207.36 883.73 208.09 883.73 214.67 881.54 214.67 881.54 208.09 881.54 207.36 880.81 207.36 877.89 207.36 877.89 200.79 877.89 200.06 877.16 200.06 869.86 200.06 869.13 200.06 869.13 200.79 869.13 230 869.13 230.73 869.86 230.73 873.51 230.73 874.24 230.73 874.24 230 874.24 208.82 876.43 208.82 876.43 215.4 876.43 216.13 877.16 216.13 880.08 216.13 880.08 222.7 880.08 223.43 880.81 223.43 884.46 223.43 885.19 223.43 885.19 222.7 885.19 216.13 888.11 216.13 888.84 216.13 888.84 215.4 888.84 208.82 891.03 208.82 891.03 230 891.03 230.73 891.76 230.73 895.41 230.73 896.15 230.73 896.15 230 896.15 200.79 896.15 200.06 895.41 200.06 888.11 200.06"/>
    <polygon class="st3" points="506.79 230 506.79 230.73 507.52 230.73 522.12 230.73 522.85 230.73 522.85 230 522.85 208.09 522.85 207.36 522.12 207.36 518.47 207.36 517.74 207.36 517.74 208.09 517.74 225.62 508.25 225.62 508.25 208.09 508.25 207.36 507.52 207.36 503.86 207.36 503.13 207.36 503.13 208.09 503.13 226.35 503.13 227.08 503.86 227.08 506.79 227.08 506.79 230"/>
    <polygon class="st3" points="414.63 211.01 414.63 208.09 414.63 207.36 413.9 207.36 399.29 207.36 398.56 207.36 398.56 208.09 398.56 230 398.56 230.73 399.29 230.73 402.95 230.73 403.68 230.73 403.68 230 403.68 212.47 413.17 212.47 413.17 230 413.17 230.73 413.9 230.73 417.55 230.73 418.28 230.73 418.28 230 418.28 211.74 418.28 211.01 417.55 211.01 414.63 211.01"/>
    <path class="st3" d="M336.2,211.01v-3.65h-16.07v34.32h5.11v-10.95h10.95v-3.65h3.65v-16.07h-3.65ZM325.25,212.47h9.49v13.14h-9.49v-13.14Z"/>
    <path class="st3" d="M388.49,211.01v-3.65h-12.41v5.11h10.95v2.19h-10.95v3.65h-3.65v8.76h3.65v3.65h16.07v-19.72h-3.65ZM387.03,225.62h-9.49v-5.84h9.49v5.84Z"/>
    <polygon class="st3" points="310.06 211.01 310.06 208.09 310.06 207.36 309.33 207.36 305.68 207.36 304.95 207.36 304.95 208.09 304.95 211.01 302.76 211.01 302.76 208.09 302.76 207.36 302.03 207.36 294.73 207.36 294 207.36 294 208.09 294 230 294 230.73 294.73 230.73 298.38 230.73 299.11 230.73 299.11 230 299.11 212.47 301.3 212.47 301.3 230 301.3 230.73 302.03 230.73 305.68 230.73 306.41 230.73 306.41 230 306.41 212.47 308.6 212.47 308.6 230 308.6 230.73 309.33 230.73 312.98 230.73 313.71 230.73 313.71 230 313.71 211.74 313.71 211.01 312.98 211.01 310.06 211.01"/>
    <polygon class="st3" points="326.17 270.41 325.43 270.41 325.43 271.14 325.43 274.79 325.43 275.52 326.17 275.52 329.82 275.52 330.55 275.52 330.55 274.79 330.55 271.14 330.55 270.41 329.82 270.41 326.17 270.41"/>
    <path class="st3" d="M782.27,285.01v-3.65h-12.41v3.65h-3.65v16.07h3.65v3.65h12.41v-3.65h3.65v-5.11h-5.11v3.65h-9.49v-5.84h14.6v-8.76h-3.65ZM780.81,288.67h-9.49v-2.19h9.49v2.19Z"/>
    <polygon class="st3" points="252.12 299.62 252.12 271.14 252.12 270.41 251.39 270.41 244.09 270.41 243.36 270.41 243.36 271.14 243.36 274.79 243.36 275.52 244.09 275.52 247.01 275.52 247.01 300.35 247.01 301.08 247.74 301.08 250.66 301.08 250.66 304 250.66 304.73 251.39 304.73 255.04 304.73 255.77 304.73 255.77 304 255.77 300.35 255.77 299.62 255.04 299.62 252.12 299.62"/>
    <polygon class="st3" points="221.6 270.41 220.87 270.41 220.87 271.14 220.87 274.79 220.87 275.52 221.6 275.52 225.25 275.52 225.98 275.52 225.98 274.79 225.98 271.14 225.98 270.41 225.25 270.41 221.6 270.41"/>
    <path class="st3" d="M386.48,285.01v-3.65h-12.41v3.65h-3.65v16.07h3.65v3.65h12.41v-3.65h3.65v-5.11h-5.11v3.65h-9.49v-5.84h14.6v-8.76h-3.65ZM385.02,288.67h-9.49v-2.19h9.49v2.19Z"/>
    <polygon class="st3" points="756.13 285.01 756.13 282.09 756.13 281.36 755.4 281.36 751.74 281.36 751.01 281.36 751.01 282.09 751.01 285.01 748.82 285.01 748.82 282.09 748.82 281.36 748.09 281.36 740.79 281.36 740.06 281.36 740.06 282.09 740.06 304 740.06 304.73 740.79 304.73 744.44 304.73 745.17 304.73 745.17 304 745.17 286.47 747.36 286.47 747.36 304 747.36 304.73 748.09 304.73 751.74 304.73 752.47 304.73 752.47 304 752.47 286.47 754.67 286.47 754.67 304 754.67 304.73 755.4 304.73 759.05 304.73 759.78 304.73 759.78 304 759.78 285.74 759.78 285.01 759.05 285.01 756.13 285.01"/>
    <polygon class="st3" points="266.58 281.36 265.85 281.36 265.85 282.09 265.85 285.74 265.85 286.47 266.58 286.47 280.45 286.47 280.45 288.67 277.53 288.67 276.8 288.67 276.8 289.4 276.8 292.32 273.88 292.32 273.15 292.32 273.15 293.05 273.15 295.97 270.23 295.97 269.5 295.97 269.5 296.7 269.5 299.62 266.58 299.62 265.85 299.62 265.85 300.35 265.85 304 265.85 304.73 266.58 304.73 284.83 304.73 285.56 304.73 285.56 304 285.56 300.35 285.56 299.62 284.83 299.62 274.61 299.62 274.61 297.43 277.53 297.43 278.26 297.43 278.26 296.7 278.26 293.78 281.18 293.78 281.91 293.78 281.91 293.05 281.91 290.13 284.83 290.13 285.56 290.13 285.56 289.4 285.56 282.09 285.56 281.36 284.83 281.36 266.58 281.36"/>
    <polygon class="st3" points="322.51 281.36 321.78 281.36 321.78 282.09 321.78 285.74 321.78 286.47 322.51 286.47 325.43 286.47 325.43 304 325.43 304.73 326.17 304.73 329.82 304.73 330.55 304.73 330.55 304 330.55 282.09 330.55 281.36 329.82 281.36 322.51 281.36"/>
    <polygon class="st3" points="800.38 270.41 799.65 270.41 799.65 271.14 799.65 277.71 796.73 277.71 796 277.71 796 278.44 796 282.09 796 282.82 796.73 282.82 800.38 282.82 801.11 282.82 801.11 282.09 801.11 279.17 804.03 279.17 804.76 279.17 804.76 278.44 804.76 271.14 804.76 270.41 804.03 270.41 800.38 270.41"/>
    <path class="st3" d="M359.61,270.41h-.73v10.95h-10.95v3.65h-3.65v16.07h3.65v3.65h16.07v-34.32h-4.38ZM358.88,299.62h-9.49v-13.14h9.49v13.14Z"/>
    <polygon class="st3" points="491.05 277.71 491.05 271.14 491.05 270.41 490.32 270.41 486.67 270.41 485.94 270.41 485.94 271.14 485.94 278.44 485.94 279.17 486.67 279.17 489.59 279.17 489.59 282.09 489.59 282.82 490.32 282.82 493.97 282.82 494.7 282.82 494.7 282.09 494.7 278.44 494.7 277.71 493.97 277.71 491.05 277.71"/>
    <path class="st3" d="M546.99,285.01v-3.65h-12.41v5.11h10.95v2.19h-10.95v3.65h-3.65v8.76h3.65v3.65h16.07v-19.72h-3.65ZM545.53,299.62h-9.49v-5.84h9.49v5.84Z"/>
    <polygon class="st3" points="422.12 285.34 421.39 285.34 421.39 286.07 421.39 290.62 421.39 291.35 422.12 291.35 446.65 291.35 447.38 291.35 447.38 290.62 447.38 286.07 447.38 285.34 446.65 285.34 422.12 285.34"/>
    <path class="st3" d="M573.13,285.01v-3.65h-16.07v34.32h5.11v-10.95h10.95v-3.65h3.65v-16.07h-3.65ZM562.18,286.47h9.49v13.14h-9.49v-13.14Z"/>
    <path class="st3" d="M308.06,285.01v-3.65h-12.41v3.65h-3.65v16.07h3.65v3.65h12.41v-3.65h3.65v-16.07h-3.65ZM306.59,286.47v13.14h-9.49v-13.14h9.49Z"/>
    <path class="st3" d="M599.27,285.01v-3.65h-16.07v34.32h5.11v-10.95h10.95v-3.65h3.65v-16.07h-3.65ZM588.32,286.47h9.49v13.14h-9.49v-13.14Z"/>
    <polygon class="st3" points="523.77 274.06 523.04 274.06 523.04 274.79 523.04 285.01 509.89 285.01 509.89 274.79 509.89 274.06 509.16 274.06 505.51 274.06 504.78 274.06 504.78 274.79 504.78 304 504.78 304.73 505.51 304.73 509.16 304.73 509.89 304.73 509.89 304 509.89 290.13 523.04 290.13 523.04 304 523.04 304.73 523.77 304.73 527.42 304.73 528.15 304.73 528.15 304 528.15 274.79 528.15 274.06 527.42 274.06 523.77 274.06"/>
    <polygon class="st3" points="658.71 274.06 657.98 274.06 657.98 274.79 657.98 278.44 657.98 279.17 658.71 279.17 668.94 279.17 668.94 304 668.94 304.73 669.67 304.73 673.32 304.73 674.05 304.73 674.05 304 674.05 279.17 684.27 279.17 685 279.17 685 278.44 685 274.79 685 274.06 684.27 274.06 658.71 274.06"/>
    <polygon class="st3" points="703.84 285.01 703.84 282.09 703.84 281.36 703.11 281.36 692.89 281.36 692.89 271.14 692.89 270.41 692.16 270.41 688.51 270.41 687.78 270.41 687.78 271.14 687.78 304 687.78 304.73 688.51 304.73 692.16 304.73 692.89 304.73 692.89 304 692.89 286.47 702.38 286.47 702.38 304 702.38 304.73 703.11 304.73 706.76 304.73 707.49 304.73 707.49 304 707.49 285.74 707.49 285.01 706.76 285.01 703.84 285.01"/>
    <polygon class="st3" points="217.94 281.36 217.21 281.36 217.21 282.09 217.21 285.74 217.21 286.47 217.94 286.47 220.87 286.47 220.87 304 220.87 304.73 221.6 304.73 225.25 304.73 225.98 304.73 225.98 304 225.98 282.09 225.98 281.36 225.25 281.36 217.94 281.36"/>
    <polygon class="st3" points="624.68 281.36 623.95 281.36 623.95 282.09 623.95 288.67 621.03 288.67 620.3 288.67 620.3 289.4 620.3 299.62 618.11 299.62 618.11 289.4 618.11 288.67 617.38 288.67 614.46 288.67 614.46 282.09 614.46 281.36 613.73 281.36 610.08 281.36 609.35 281.36 609.35 282.09 609.35 289.4 609.35 290.13 610.08 290.13 613 290.13 613 300.35 613 301.08 613.73 301.08 616.65 301.08 616.65 310.57 613.73 310.57 613 310.57 613 311.3 613 314.95 613 315.68 613.73 315.68 617.38 315.68 618.11 315.68 618.11 314.95 618.11 312.03 621.03 312.03 621.76 312.03 621.76 311.3 621.76 301.08 624.68 301.08 625.41 301.08 625.41 300.35 625.41 290.13 628.34 290.13 629.07 290.13 629.07 289.4 629.07 282.09 629.07 281.36 628.34 281.36 624.68 281.36"/>
    <path class="st3" d="M202.76,281.36h-.73v3.65h-2.19v-3.65h-8.76v3.65h-3.65v8.76h3.65v2.19h-3.65v5.11h3.65v2.19h-3.65v8.76h3.65v3.65h12.41v-3.65h3.65v-8.76h-3.65v-3.65h-10.95v-2.19h7.3v-3.65h3.65v-7.3h3.65v-5.11h-4.38ZM198.37,286.47v5.84h-5.84v-5.84h5.84ZM202.03,304.73v5.84h-9.49v-5.84h9.49Z"/>
    <path class="st3" d="M729.98,285.01v-3.65h-12.41v3.65h-3.65v16.07h3.65v3.65h12.41v-3.65h3.65v-5.11h-5.11v3.65h-9.49v-5.84h14.6v-8.76h-3.65ZM728.52,288.67h-9.49v-2.19h9.49v2.19Z"/>
  </g>
  <rect class="st0" x="988" y=".15" width="11.71" height="353.85"/>
  <rect class="st0" x="-1" y="341" width="989" height="13"/>
</svg>