<svg width="425" height="102" viewBox="0 0 425 102" fill="none" xmlns="http://www.w3.org/2000/svg">
<mask id="path-1-inside-1_6_2945" fill="white">
<path fill-rule="evenodd" clip-rule="evenodd" d="M198.664 0H416.336V8H425V94H416.336V102H198.664V94H190V8H198.664V0Z"/>
</mask>
<path fill-rule="evenodd" clip-rule="evenodd" d="M198.664 0H416.336V8H425V94H416.336V102H198.664V94H190V8H198.664V0Z" fill="#F9D22B"/>
<path d="M416.336 0H426.336V-10H416.336V0ZM198.664 0V-10H188.664V0H198.664ZM416.336 8H406.336V18H416.336V8ZM425 8H435V-2H425V8ZM425 94V104H435V94H425ZM416.336 94V84H406.336V94H416.336ZM416.336 102V112H426.336V102H416.336ZM198.664 102H188.664V112H198.664V102ZM198.664 94H208.664V84H198.664V94ZM190 94H180V104H190V94ZM190 8V-2H180V8H190ZM198.664 8V18H208.664V8H198.664ZM416.336 -10H198.664V10H416.336V-10ZM426.336 8V0H406.336V8H426.336ZM425 -2H416.336V18H425V-2ZM435 94V8H415V94H435ZM416.336 104H425V84H416.336V104ZM426.336 102V94H406.336V102H426.336ZM198.664 112H416.336V92H198.664V112ZM188.664 94V102H208.664V94H188.664ZM190 104H198.664V84H190V104ZM180 8V94H200V8H180ZM198.664 -2H190V18H198.664V-2ZM188.664 0V8H208.664V0H188.664Z" fill="#252840" mask="url(#path-1-inside-1_6_2945)"/>
<rect x="208" y="10" width="8" height="8" fill="white"/>
<rect x="200" y="18" width="8" height="8" fill="white"/>
<rect x="216" y="10" width="8" height="8" fill="white"/>
<rect x="224" y="10" width="8" height="8" fill="white"/>
<rect x="209" y="84" width="198" height="8" fill="#EC9345"/>
<rect x="407" y="76" width="8" height="8" fill="#EC9345"/>
<rect x="200" y="76" width="8" height="8" fill="#EC9345"/>
<rect x="383" y="76" width="8" height="8" fill="white" fill-opacity="0.5"/>
<rect opacity="0.5" x="407" y="68" width="8" height="8" fill="white"/>
<rect opacity="0.5" x="407" y="60" width="8" height="8" fill="white"/>
<rect x="391" y="76" width="8" height="8" fill="white" fill-opacity="0.5"/>
<rect x="399" y="76" width="8" height="8" fill="white" fill-opacity="0.5"/>
<mask id="path-15-inside-2_6_2945" fill="white">
<path fill-rule="evenodd" clip-rule="evenodd" d="M8.66359 0H226.336V8H235V94H226.336V102H8.66359V94H0V8H8.66359V0Z"/>
</mask>
<path fill-rule="evenodd" clip-rule="evenodd" d="M8.66359 0H226.336V8H235V94H226.336V102H8.66359V94H0V8H8.66359V0Z" fill="#F9D22B"/>
<path d="M226.336 0H236.336V-10H226.336V0ZM8.66359 0V-10H-1.33641V0H8.66359ZM226.336 8H216.336V18H226.336V8ZM235 8H245V-2H235V8ZM235 94V104H245V94H235ZM226.336 94V84H216.336V94H226.336ZM226.336 102V112H236.336V102H226.336ZM8.66359 102H-1.33641V112H8.66359V102ZM8.66359 94H18.6636V84H8.66359V94ZM0 94H-10V104H0V94ZM0 8V-2H-10V8H0ZM8.66359 8V18H18.6636V8H8.66359ZM226.336 -10H8.66359V10H226.336V-10ZM236.336 8V0H216.336V8H236.336ZM235 -2H226.336V18H235V-2ZM245 94V8H225V94H245ZM226.336 104H235V84H226.336V104ZM236.336 102V94H216.336V102H236.336ZM8.66359 112H226.336V92H8.66359V112ZM-1.33641 94V102H18.6636V94H-1.33641ZM0 104H8.66359V84H0V104ZM-10 8V94H10V8H-10ZM8.66359 -2H0V18H8.66359V-2ZM-1.33641 0V8H18.6636V0H-1.33641Z" fill="#252840" mask="url(#path-15-inside-2_6_2945)"/>
<rect x="18" y="10" width="8" height="8" fill="white"/>
<rect x="10" y="18" width="8" height="8" fill="white"/>
<rect x="26" y="10" width="8" height="8" fill="white"/>
<rect x="34" y="10" width="8" height="8" fill="white"/>
<rect x="19" y="84" width="198" height="8" fill="#EC9345"/>
<rect x="217" y="76" width="8" height="8" fill="#EC9345"/>
<rect x="10" y="76" width="8" height="8" fill="#EC9345"/>
<rect x="193" y="76" width="8" height="8" fill="white" fill-opacity="0.5"/>
<rect opacity="0.5" x="217" y="68" width="8" height="8" fill="white"/>
<rect opacity="0.5" x="217" y="60" width="8" height="8" fill="white"/>
<rect x="201" y="76" width="8" height="8" fill="white" fill-opacity="0.5"/>
<rect x="209" y="76" width="8" height="8" fill="white" fill-opacity="0.5"/>
<g clip-path="url(#clip0_6_2945)">
<mask id="path-29-inside-3_6_2945" fill="white">
<path fill-rule="evenodd" clip-rule="evenodd" d="M115.664 0H333.336V8H342V94H333.336V102H115.664V94H107V8H115.664V0Z"/>
</mask>
<path fill-rule="evenodd" clip-rule="evenodd" d="M115.664 0H333.336V8H342V94H333.336V102H115.664V94H107V8H115.664V0Z" fill="#F9D22B"/>
<path d="M333.336 0H343.336V-10H333.336V0ZM115.664 0V-10H105.664V0H115.664ZM333.336 8H323.336V18H333.336V8ZM342 8H352V-2H342V8ZM342 94V104H352V94H342ZM333.336 94V84H323.336V94H333.336ZM333.336 102V112H343.336V102H333.336ZM115.664 102H105.664V112H115.664V102ZM115.664 94H125.664V84H115.664V94ZM107 94H97V104H107V94ZM107 8V-2H97V8H107ZM115.664 8V18H125.664V8H115.664ZM333.336 -10H115.664V10H333.336V-10ZM343.336 8V0H323.336V8H343.336ZM342 -2H333.336V18H342V-2ZM352 94V8H332V94H352ZM333.336 104H342V84H333.336V104ZM343.336 102V94H323.336V102H343.336ZM115.664 112H333.336V92H115.664V112ZM105.664 94V102H125.664V94H105.664ZM107 104H115.664V84H107V104ZM97 8V94H117V8H97ZM115.664 -2H107V18H115.664V-2ZM105.664 0V8H125.664V0H105.664Z" fill="#252840" mask="url(#path-29-inside-3_6_2945)"/>
<rect x="126" y="84" width="198" height="8" fill="#EC9345"/>
</g>
<path fill-rule="evenodd" clip-rule="evenodd" d="M212.1 37H205.1V42H212.1V64H217.1V42H224.1V37H217.1H212.1Z" fill="#252840"/>
<path d="M341.328 63.48V49H337.728V45.4H334.088V37.76H338.128V45H341.728V48.64H345.008V45H348.608V37.76H352.688V45.4H349.008V49H345.408V63.48H341.328Z" fill="#252840"/>
<path d="M311.442 63.48V45H315.082V41.4H318.682V37.76H322.762V41.4H326.362V45H330.042V63.48H325.962V56.24H315.482V63.48H311.442ZM315.482 52.2H325.962V45.4H322.362V41.8H319.082V45.4H315.482V52.2Z" fill="#252840"/>
<path d="M290.445 63.48V59.88H286.805V37.76H290.845V59.48H301.325V55.84H305.405V59.88H301.725V63.48H290.445Z" fill="#252840"/>
<path d="M262.167 63.48V41.4H265.807V37.76H277.087V41.4H280.767V52.6H277.087V56.24H266.207V63.48H262.167ZM266.207 52.2H276.687V41.8H266.207V52.2Z" fill="#252840"/>
<path d="M231.962 63.48V59.88H228.322V41.4H231.962V37.76H243.242V41.4H246.922V59.88H243.242V63.48H231.962ZM232.362 59.48H242.842V41.8H232.362V59.48Z" fill="#252840"/>
<path d="M174.69 63.48V59.88H171.05V55.84H175.09V59.48H185.57V52.6H174.69V49H171.05V41.4H174.69V37.76H185.97V41.4H189.65V45.4H185.57V41.8H175.09V48.64H185.97V52.2H189.65V59.88H185.97V63.48H174.69Z" fill="#252840"/>
<path d="M150.052 63.48V59.88H146.412V55.84H150.452V59.48H160.932V52.6H150.052V49H146.412V41.4H150.052V37.76H161.332V41.4H165.012V45.4H160.932V41.8H150.452V48.64H161.332V52.2H165.012V59.88H161.332V63.48H150.052Z" fill="#252840"/>
<path d="M125.415 63.48V59.88H121.775V41.4H125.415V37.76H136.695V41.4H140.375V45.4H136.295V41.8H125.815V48.64H133.095V52.6H125.815V59.48H136.295V55.84H140.375V59.88H136.695V63.48H125.415Z" fill="#252840"/>
<path d="M97.1377 63.48V41.4H100.778V37.76H112.058V41.4H115.738V52.6H112.058V56.24H110.298V59.48H113.898V63.48H109.898V59.88H106.218V56.24H101.178V63.48H97.1377ZM101.178 52.2H111.658V41.8H101.178V52.2Z" fill="#252840"/>
<path d="M72.5 63.48V41.4H76.14V37.76H87.42V41.4H91.1V52.6H87.42V56.24H76.54V63.48H72.5ZM76.54 52.2H87.02V41.8H76.54V52.2Z" fill="#252840"/>
<path fill-rule="evenodd" clip-rule="evenodd" d="M340.828 63.98V49.5H337.228V45.9H333.588V37.26H338.628V44.5H342.228V48.14H344.508V44.5H348.108V37.26H353.188V45.9H349.508V49.5H345.908V63.98H340.828ZM345.408 49H349.008V45.4H352.688V37.76H348.608V45H345.008V48.64H341.728V45H338.128V37.76H334.088V45.4H337.728V49H341.328V63.48H345.408V49Z" fill="#252840"/>
<path fill-rule="evenodd" clip-rule="evenodd" d="M310.942 63.98V44.5H314.582V40.9H318.182V37.26H323.262V40.9H326.862V44.5H330.542V63.98H325.462V56.74H315.982V63.98H310.942ZM315.482 56.24H325.962V63.48H330.042V45H326.362V41.4H322.762V37.76H318.682V41.4H315.082V45H311.442V63.48H315.482V56.24ZM315.482 52.2H325.962V45.4H322.362V41.8H319.082V45.4H315.482V52.2ZM315.982 45.9V51.7H325.462V45.9H321.862V42.3H319.582V45.9H315.982Z" fill="#252840"/>
<path fill-rule="evenodd" clip-rule="evenodd" d="M289.945 63.98V60.38H286.305V37.26H291.345V58.98H300.825V55.34H305.905V60.38H302.225V63.98H289.945ZM301.725 59.88H305.405V55.84H301.325V59.48H290.845V37.76H286.805V59.88H290.445V63.48H301.725V59.88Z" fill="#252840"/>
<path fill-rule="evenodd" clip-rule="evenodd" d="M261.667 63.98V40.9H265.307V37.26H277.587V40.9H281.267V53.1H277.587V56.74H266.707V63.98H261.667ZM266.207 56.24H277.087V52.6H280.767V41.4H277.087V37.76H265.807V41.4H262.167V63.48H266.207V56.24ZM266.207 52.2H276.687V41.8H266.207V52.2ZM266.707 42.3V51.7H276.187V42.3H266.707Z" fill="#252840"/>
<path fill-rule="evenodd" clip-rule="evenodd" d="M231.462 63.98V60.38H227.822V40.9H231.462V37.26H243.742V40.9H247.422V60.38H243.742V63.98H231.462ZM243.242 59.88H246.922V41.4H243.242V37.76H231.962V41.4H228.322V59.88H231.962V63.48H243.242V59.88ZM242.842 59.48V41.8H232.362V59.48H242.842ZM242.342 58.98V42.3H232.862V58.98H242.342Z" fill="#252840"/>
<path fill-rule="evenodd" clip-rule="evenodd" d="M174.19 63.98V60.38H170.55V55.34H175.59V58.98H185.07V53.1H174.19V49.5H170.55V40.9H174.19V37.26H186.47V40.9H190.15V45.9H185.07V42.3H175.59V48.14H186.47V51.7H190.15V60.38H186.47V63.98H174.19ZM185.97 59.88H189.65V52.2H185.97V48.64H175.09V41.8H185.57V45.4H189.65V41.4H185.97V37.76H174.69V41.4H171.05V49H174.69V52.6H185.57V59.48H175.09V55.84H171.05V59.88H174.69V63.48H185.97V59.88Z" fill="#252840"/>
<path fill-rule="evenodd" clip-rule="evenodd" d="M149.552 63.98V60.38H145.912V55.34H150.952V58.98H160.432V53.1H149.552V49.5H145.912V40.9H149.552V37.26H161.832V40.9H165.512V45.9H160.432V42.3H150.952V48.14H161.832V51.7H165.512V60.38H161.832V63.98H149.552ZM161.332 59.88H165.012V52.2H161.332V48.64H150.452V41.8H160.932V45.4H165.012V41.4H161.332V37.76H150.052V41.4H146.412V49H150.052V52.6H160.932V59.48H150.452V55.84H146.412V59.88H150.052V63.48H161.332V59.88Z" fill="#252840"/>
<path fill-rule="evenodd" clip-rule="evenodd" d="M124.915 63.98V60.38H121.275V40.9H124.915V37.26H137.195V40.9H140.875V45.9H135.795V42.3H126.315V48.14H133.595V53.1H126.315V58.98H135.795V55.34H140.875V60.38H137.195V63.98H124.915ZM136.695 59.88H140.375V55.84H136.295V59.48H125.815V52.6H133.095V48.64H125.815V41.8H136.295V45.4H140.375V41.4H136.695V37.76H125.415V41.4H121.775V59.88H125.415V63.48H136.695V59.88Z" fill="#252840"/>
<path fill-rule="evenodd" clip-rule="evenodd" d="M96.6377 63.98V40.9H100.278V37.26H112.558V40.9H116.238V53.1H112.558V56.74H110.798V58.98H114.398V63.98H109.398V60.38H105.718V56.74H101.678V63.98H96.6377ZM101.178 56.24H106.218V59.88H109.898V63.48H113.898V59.48H110.298V56.24H112.058V52.6H115.738V41.4H112.058V37.76H100.778V41.4H97.1377V63.48H101.178V56.24ZM101.178 52.2H111.658V41.8H101.178V52.2ZM101.678 42.3V51.7H111.158V42.3H101.678Z" fill="#252840"/>
<path fill-rule="evenodd" clip-rule="evenodd" d="M72 63.98V40.9H75.64V37.26H87.92V40.9H91.6V53.1H87.92V56.74H77.04V63.98H72ZM76.54 56.24H87.42V52.6H91.1V41.4H87.42V37.76H76.14V41.4H72.5V63.48H76.54V56.24ZM76.54 52.2H87.02V41.8H76.54V52.2ZM77.04 42.3V51.7H86.52V42.3H77.04Z" fill="#252840"/>
<defs>
<clipPath id="clip0_6_2945">
<rect width="150" height="102" fill="white" transform="translate(150)"/>
</clipPath>
</defs>
</svg>
